# https://github.com/mikedh/trimesh
v 0.65183617 -0.64421123 -0.38439215
v 0.63563220 -0.64755691 -0.38439215
v 0.64709012 -0.63947981 -0.38104649
v 0.65183617 -0.64421123 -0.38439215
v 0.64709012 -0.63947981 -0.38104649
v 0.65183617 -0.63613413 -0.37296934
v -0.65183617 -0.64421123 -0.38439215
v -0.65183617 -0.63613413 -0.37296934
v -0.64709008 -0.63947981 -0.38104649
v -0.65183617 -0.64421123 -0.38439215
v -0.64709008 -0.63947981 -0.38104649
v -0.63563211 -0.64755691 -0.38439215
v -0.65183617 -1.37128607 0.54551203
v 0.65183617 -1.37128607 0.54551203
v 0.65183617 -1.37128607 -0.22936033
v -0.65183617 -1.37128607 -0.22936033
v 0.62868527 -1.47001590 -0.38439215
v 0.65183617 -1.48633575 -0.38439215
v -0.65183617 -1.48633575 -0.38439215
v -0.62868523 -1.47001590 -0.38439215
v 0.65183617 -1.38278978 0.55701584
v -0.65183617 -1.38278978 0.55701584
v -0.65183617 -1.47483169 0.55701584
v 0.65183617 -1.47483169 0.55701584
v 0.65183617 -0.63613413 -0.37296934
v -0.65183617 -0.63613413 -0.37296934
v -0.65183617 -0.63613413 -0.24078314
v 0.65183617 -0.63613413 -0.24078314
v 0.62868527 -0.65245407 -0.38439215
v -0.62868523 -0.65245407 -0.38439215
v -0.65183617 -1.37128607 -0.22936033
v 0.65183617 -1.37128607 -0.22936033
v 0.65183617 -0.64755691 -0.22936033
v -0.65183617 -0.64755691 -0.22936033
v 0.62868527 -1.47001590 -0.55701584
v 0.62868527 -0.65245407 -0.55701584
v 0.62868527 -0.65245407 -0.38439215
v 0.62868527 -1.47001590 -0.38439215
v -0.62868523 -1.47001590 -0.55701584
v 0.62868527 -1.47001590 -0.55701584
v 0.62868527 -1.47001590 -0.38439215
v -0.62868523 -1.47001590 -0.38439215
v -0.62868523 -1.47001590 -0.38439215
v -0.62868523 -0.65245407 -0.38439215
v -0.62868523 -0.65245407 -0.55701584
v -0.62868523 -1.47001590 -0.55701584
v 0.62868527 -0.65245407 -0.55701584
v -0.62868523 -0.65245407 -0.55701584
v -0.62868523 -0.65245407 -0.38439215
v 0.62868527 -0.65245407 -0.38439215
v 0.65183617 -1.48633575 0.54551203
v 0.65183617 -1.48296638 0.55364647
v -0.65183617 -1.48296638 0.55364647
v -0.65183617 -1.48633575 0.54551203
v 0.65183617 -1.48296638 0.55364647
v -0.65183617 -1.48296638 0.55364647
v 0.65183617 -1.37465544 0.55364647
v -0.65183617 -1.37465544 0.55364647
v 0.65183617 -1.37465544 0.55364647
v -0.65183617 -1.37465544 0.55364647
v 0.65183617 -0.63947981 -0.23270600
v -0.65183617 -0.63947981 -0.23270600
v 0.65183617 -0.63947981 -0.23270600
v -0.65183617 -0.63947981 -0.23270600
v 0.65183617 -1.48633575 -0.38439215
v -0.65183617 -1.48633575 -0.22936033
v -0.65183617 -1.48633575 -0.38439215
v 0.63563220 -0.64755691 -0.38439215
v 0.65183617 -0.64421123 -0.38439215
v 0.62868527 -0.65245407 -0.38439215
v -0.63563211 -0.64755691 -0.38439215
v -0.65183617 -1.48633575 -0.38439215
v -0.65183617 -0.64421123 -0.38439215
v -0.62868523 -0.65245407 -0.38439215
v -0.62868523 -1.47001590 -0.38439215
v 0.65183617 -1.37128607 0.54551203
v 0.65183617 -1.48633575 -0.22936033
v 0.65183617 -1.37128607 -0.22936033
v 0.65183617 -1.48633575 0.54551203
v 0.65183617 -1.37465544 0.55364647
v 0.65183617 -1.48296638 0.55364647
v 0.65183617 -1.38278978 0.55701584
v 0.65183617 -1.47483169 0.55701584
v -0.65183617 -1.48633575 0.54551203
v -0.65183617 -1.37128607 -0.22936033
v -0.65183617 -1.48633575 -0.22936033
v -0.65183617 -1.37128607 0.54551203
v -0.65183617 -1.48296638 0.55364647
v -0.65183617 -1.37465544 0.55364647
v -0.65183617 -1.47483169 0.55701584
v -0.65183617 -1.38278978 0.55701584
v 0.65183617 -0.63613413 -0.37296934
v 0.65183617 -1.48633575 -0.38439215
v 0.65183617 -0.64421123 -0.38439215
v 0.65183617 -0.63613413 -0.24078314
v 0.65183617 -0.63947981 -0.23270600
v 0.65183617 -0.64755691 -0.22936033
v -0.65183617 -0.64421123 -0.38439215
v -0.65183617 -1.48633575 -0.38439215
v -0.65183617 -0.63613413 -0.37296934
v -0.65183617 -0.63613413 -0.24078314
v -0.65183617 -0.63947981 -0.23270600
v -0.65183617 -0.64755691 -0.22936033
vt 0.40193364 0.99640495
vt 0.40269411 0.99367195
vt 0.40062469 0.99559397
vt 0.40193364 0.99640495
vt 0.40062469 0.99559397
vt 0.39868644 0.99652886
vt 0.40276331 0.77635801
vt 0.39951703 0.77622294
vt 0.40144897 0.77716458
vt 0.40276331 0.77635801
vt 0.40144897 0.77716458
vt 0.40350461 0.77909356
vt 0.01066602 0.77570856
vt 0.00988723 0.99565256
vt 0.19261524 0.99598569
vt 0.19340149 0.77602893
vt 0.59676075 0.99271059
vt 0.60060000 0.99662024
vt 0.60120314 0.77680981
vt 0.59734130 0.78070629
vt 0.84573215 0.99703312
vt 0.84637111 0.77715349
vt 0.82466525 0.77712029
vt 0.82402664 0.99699938
vt 0.39856043 0.99639058
vt 0.39938971 0.77636063
vt 0.36821142 0.77631509
vt 0.36739418 0.99632466
vt 0.40385273 0.99250120
vt 0.40465468 0.78026813
vt 0.19340149 0.77602893
vt 0.19261524 0.99598569
vt 0.36327139 0.99631608
vt 0.36408731 0.77630895
vt 0.01120847 0.06998575
vt 0.20206615 0.07086527
vt 0.20241502 0.04130280
vt 0.01155728 0.04042310
vt 0.68645418 0.07309800
vt 0.97998393 0.07445073
vt 0.98033357 0.04488814
vt 0.68680310 0.04353553
vt 0.68680310 0.04353553
vt 0.49594519 0.04265583
vt 0.49559614 0.07221830
vt 0.68645418 0.07309800
vt 0.20206615 0.07086527
vt 0.49559614 0.07221830
vt 0.49594519 0.04265583
vt 0.20241502 0.04130280
vt 0.81987399 0.99699283
vt 0.82195026 0.99699610
vt 0.82258886 0.77711713
vt 0.82051247 0.77711397
vt 0.82195026 0.99699610
vt 0.82258886 0.77711713
vt 0.84780842 0.99703634
vt 0.84844714 0.77715671
vt 0.00781090 0.99564886
vt 0.00858969 0.77570480
vt 0.36533275 0.99632031
vt 0.36614934 0.77631205
vt 0.36533275 0.99632031
vt 0.36614934 0.77631205
vt 0.60060000 0.99662024
vt 0.63776922 0.77685404
vt 0.60120314 0.77680981
vt 0.40269411 0.99367195
vt 0.40193364 0.99640495
vt 0.40385273 0.99250120
vt 0.40350461 0.77909356
vt 0.60120314 0.77680981
vt 0.40276331 0.77635801
vt 0.40465468 0.78026813
vt 0.59734130 0.78070629
vt 0.03332838 0.29552877
vt 0.00749511 0.46951932
vt 0.03332838 0.46951932
vt 0.00749511 0.29552877
vt 0.03257185 0.29370230
vt 0.00825146 0.29370230
vt 0.03074533 0.29294562
vt 0.01007798 0.29294562
vt 0.22698373 0.33473110
vt 0.20127964 0.50785160
vt 0.22698373 0.50785160
vt 0.20127964 0.33473110
vt 0.22623101 0.33291382
vt 0.20203245 0.33291382
vt 0.22441360 0.33216095
vt 0.20384978 0.33216095
vt 0.19840026 0.50176549
vt 0.00749511 0.50433040
vt 0.19658667 0.50433040
vt 0.19840026 0.47208422
vt 0.19764894 0.47027057
vt 0.19583535 0.46951932
vt 0.03883798 0.54248857
vt 0.22698373 0.54248857
vt 0.03703339 0.53993642
vt 0.03703339 0.51040369
vt 0.03778092 0.50859910
vt 0.03958550 0.50785160
f 1/1 2/2 3/3
f 4/4 5/5 6/6
f 7/7 8/8 9/9
f 10/10 11/11 12/12
f 13/13 14/14 15/15
f 13/13 15/15 16/16
f 17/17 18/18 19/19
f 17/17 19/19 20/20
f 21/21 22/22 23/23
f 21/21 23/23 24/24
f 25/25 26/26 27/27
f 25/25 27/27 28/28
f 29/29 30/30 12/12
f 29/29 12/12 2/2
f 31/31 32/32 33/33
f 31/31 33/33 34/34
f 35/35 36/36 37/37
f 35/35 37/37 38/38
f 39/39 40/40 41/41
f 39/39 41/41 42/42
f 43/43 44/44 45/45
f 43/43 45/45 46/46
f 47/47 48/48 49/49
f 47/47 49/49 50/50
f 51/51 52/52 53/53
f 51/51 53/53 54/54
f 55/55 24/24 23/23
f 55/55 23/23 56/56
f 21/21 57/57 58/58
f 21/21 58/58 22/22
f 59/59 14/14 13/13
f 59/59 13/13 60/60
f 25/25 5/5 9/9
f 25/25 9/9 26/26
f 3/3 2/2 12/12
f 3/3 12/12 11/11
f 33/33 61/61 62/62
f 33/33 62/62 34/34
f 63/63 28/28 27/27
f 63/63 27/27 64/64
f 65/65 66/66 67/67
f 66/66 65/65 54/54
f 54/54 65/65 51/51
f 18/18 68/68 69/69
f 68/68 18/18 70/70
f 70/70 18/18 17/17
f 71/71 72/72 73/73
f 72/72 71/71 74/74
f 72/72 74/74 75/75
f 76/76 77/77 78/78
f 77/77 76/76 79/79
f 79/79 76/76 80/80
f 79/79 80/80 81/81
f 81/81 80/80 82/82
f 81/81 82/82 83/83
f 84/84 85/85 86/86
f 85/85 84/84 87/87
f 87/87 84/84 88/88
f 87/87 88/88 89/89
f 89/89 88/88 90/90
f 89/89 90/90 91/91
f 92/92 93/93 94/94
f 93/93 92/92 77/77
f 77/77 92/92 95/95
f 77/77 95/95 96/96
f 77/77 96/96 97/97
f 86/86 98/98 99/99
f 98/98 86/86 100/100
f 100/100 86/86 101/101
f 101/101 86/86 102/102
f 102/102 86/86 103/103

