# https://github.com/mikedh/trimesh
v -0.63054081 -0.69684542 0.27195574
v -0.63979258 -0.69844809 0.26276928
v -0.63229772 -0.71654236 0.26277074
v -0.62526780 -0.70951244 0.27195574
v -0.63062522 0.65724404 0.27195582
v -0.63979322 0.65912665 0.26277074
v -0.62531942 0.67015761 0.27195582
v -0.63229832 0.67722092 0.26277074
v -0.61420345 -0.72403723 0.26277065
v -0.61232620 -0.71486759 0.27195574
v -0.62526780 -0.70951244 0.27195574
v -0.63229772 -0.71654236 0.26277074
v 0.61420345 -0.72403723 0.26276919
v 0.61260558 -0.71478403 0.27195574
v 0.63229772 -0.71654236 0.26277074
v 0.62526780 -0.70951244 0.27195574
v 0.63979258 -0.69844809 0.26277065
v 0.63062458 -0.69656548 0.27195574
v 0.62526780 -0.70951244 0.27195574
v 0.63229772 -0.71654236 0.26277074
v 0.63979322 0.65912665 0.26276936
v 0.63054145 0.65752397 0.27195582
v 0.63229832 0.67722092 0.26276928
v 0.62513240 0.67040094 0.27195582
v -0.61260618 0.67546263 0.27195582
v -0.61420405 0.68471582 0.26276928
v -0.63229832 0.67722092 0.26277074
v -0.62531942 0.67015761 0.27195582
v -0.61420405 0.68471582 0.26276928
v -0.61260618 0.67546263 0.27195582
v 0.61232676 0.67554619 0.27195582
v 0.61420405 0.68471582 0.26277074
v 0.62513240 0.67040094 0.27195582
v 0.63229832 0.67722092 0.26276928
v -0.61420345 -0.72403723 0.26277065
v -0.61420345 -0.72403723 0.13689012
v 0.61420345 -0.72403723 0.13689012
v 0.61420345 -0.72403723 0.26276919
v -0.61420409 0.68471582 0.13689004
v -0.61420405 0.68471582 0.26276928
v 0.61420405 0.68471582 0.26277074
v 0.61420409 0.68471582 0.13689004
v 0.63979258 -0.69844809 0.26277065
v 0.63979262 -0.69844809 0.13689012
v 0.63979322 0.65912669 0.13689004
v 0.63979322 0.65912665 0.26276936
v -0.63979322 0.65912665 0.26277074
v -0.63979322 0.65912669 0.13689004
v -0.63979262 -0.69844809 0.13689012
v -0.63979258 -0.69844809 0.26276928
v -0.63229772 -0.71654236 0.13689012
v -0.63229772 -0.71654236 0.26277074
v -0.63229772 -0.71654236 0.13689012
v -0.63229772 -0.71654236 0.26277074
v 0.63229772 -0.71654236 0.13689012
v 0.63229772 -0.71654236 0.26277074
v 0.63229772 -0.71654236 0.13689012
v 0.63229772 -0.71654236 0.26277074
v -0.63229832 0.67722092 0.26277074
v -0.63229836 0.67722096 0.13689004
v -0.63229832 0.67722092 0.26277074
v -0.61420405 0.68471582 0.26276928
v -0.61420409 0.68471582 0.13689004
v -0.63229836 0.67722096 0.13689004
v 0.63229832 0.67722092 0.26276928
v 0.63229836 0.67722096 0.13689004
v 0.63229832 0.67722092 0.26276928
v 0.63229836 0.67722096 0.13689004
v -0.63979262 -0.69844809 0.13689012
v -0.63979322 0.65912669 0.13689004
v -0.63229836 0.67722096 0.13689004
v -0.61420409 0.68471582 0.13689004
v 0.61420409 0.68471582 0.13689004
v 0.63229836 0.67722096 0.13689004
v 0.63979322 0.65912669 0.13689004
v 0.63979262 -0.69844809 0.13689012
v 0.63229772 -0.71654236 0.13689012
v 0.61420345 -0.72403723 0.13689012
v -0.61420345 -0.72403723 0.13689012
v -0.63229772 -0.71654236 0.13689012
v 0.62513240 0.67040094 0.27195582
v 0.61232676 0.67554619 0.27195582
v -0.61260618 0.67546263 0.27195582
v -0.62531942 0.67015761 0.27195582
v -0.63062522 0.65724404 0.27195582
v -0.63054081 -0.69684542 0.27195574
v -0.62526780 -0.70951244 0.27195574
v -0.61232620 -0.71486759 0.27195574
v 0.61260558 -0.71478403 0.27195574
v 0.62526780 -0.70951244 0.27195574
v 0.63062458 -0.69656548 0.27195574
v 0.63054145 0.65752397 0.27195582
vt 0.75035465 0.10634762
vt 0.75035465 0.10634762
vt 0.74701035 0.10634762
vt 0.74701035 0.10634762
vt 0.97586846 0.10634756
vt 0.97586846 0.10634756
vt 0.97112489 0.10634792
vt 0.97953349 0.10634792
vt 0.74354261 0.10634762
vt 0.74354261 0.10634762
vt 0.74701035 0.10634762
vt 0.74701035 0.10634762
vt 0.51376468 0.10634762
vt 0.51376468 0.10634762
vt 0.51017469 0.10634762
vt 0.51017469 0.10634762
vt 0.50653946 0.10634762
vt 0.50653946 0.10634762
vt 0.51017469 0.10634762
vt 0.51017469 0.10634762
vt 0.25261801 0.10634792
vt 0.25261801 0.10634756
vt 0.24916768 0.10634792
vt 0.24916768 0.10634792
vt 0.97300428 0.10634792
vt 0.98230898 0.10634756
vt 0.97953349 0.10634792
vt 0.97112489 0.10634792
vt 0.03837296 0.10634756
vt 0.03837296 0.10634756
vt 0.24579766 0.10634756
vt 0.24579766 0.10634792
vt 0.24916768 0.10634792
vt 0.24916768 0.10634792
vt 0.74354261 0.10634762
vt 0.74354261 0.07824248
vt 0.51376468 0.07824248
vt 0.51376468 0.10634762
vt 0.03837296 0.07824218
vt 0.03837296 0.10634756
vt 0.24579766 0.10634792
vt 0.24579766 0.07824242
vt 0.50653946 0.10634762
vt 0.50653946 0.07824248
vt 0.25261801 0.07824242
vt 0.25261801 0.10634792
vt 0.97586846 0.10634756
vt 0.97586846 0.07824242
vt 0.75035465 0.07824248
vt 0.75035465 0.10634762
vt 0.74701035 0.07824248
vt 0.74701035 0.10634762
vt 0.74701035 0.07824248
vt 0.74701035 0.10634762
vt 0.51017469 0.07824248
vt 0.51017469 0.10634762
vt 0.51017469 0.07824248
vt 0.51017469 0.10634762
vt 0.97953349 0.10634792
vt 0.97953343 0.07824218
vt 0.97953349 0.10634792
vt 0.98230898 0.10634756
vt 0.98230898 0.07824218
vt 0.97953343 0.07824218
vt 0.24916768 0.10634792
vt 0.24916768 0.07824242
vt 0.24916768 0.10634792
vt 0.24916768 0.07824242
vt 0.27300373 0.59216797
vt 0.27129894 0.73674726
vt 0.27208552 0.73868358
vt 0.27402988 0.73950410
vt 0.40666932 0.74102557
vt 0.40863252 0.74024975
vt 0.40946454 0.73833203
vt 0.41116917 0.59375274
vt 0.41038263 0.59181643
vt 0.40843827 0.59099591
vt 0.27579889 0.58947444
vt 0.27383569 0.59025025
vt 0.49932322 0.26601481
vt 0.49676654 0.26496738
vt 0.24994338 0.26396751
vt 0.24628380 0.26502603
vt 0.24628380 0.26762360
vt 0.24628380 0.54047179
vt 0.24628380 0.54302853
vt 0.24884585 0.54411846
vt 0.49566880 0.54511809
vt 0.49932322 0.54406655
vt 0.49932322 0.54146200
vt 0.49932322 0.26861393
f 1/1 2/2 3/3
f 1/1 3/3 4/4
f 2/2 1/1 5/5
f 2/2 5/5 6/6
f 6/6 5/5 7/7
f 6/6 7/7 8/8
f 9/9 10/10 11/11
f 9/9 11/11 12/12
f 10/10 9/9 13/13
f 10/10 13/13 14/14
f 14/14 13/13 15/15
f 14/14 15/15 16/16
f 17/17 18/18 19/19
f 17/17 19/19 20/20
f 18/18 17/17 21/21
f 18/18 21/21 22/22
f 22/22 21/21 23/23
f 22/22 23/23 24/24
f 25/25 26/26 27/27
f 25/25 27/27 28/28
f 29/29 30/30 31/31
f 29/29 31/31 32/32
f 32/32 31/31 33/33
f 32/32 33/33 34/34
f 35/35 36/36 37/37
f 35/35 37/37 38/38
f 39/39 40/40 41/41
f 39/39 41/41 42/42
f 43/43 44/44 45/45
f 43/43 45/45 46/46
f 47/47 48/48 49/49
f 47/47 49/49 50/50
f 49/49 51/51 52/52
f 49/49 52/52 50/50
f 53/53 36/36 35/35
f 53/53 35/35 54/54
f 37/37 55/55 56/56
f 37/37 56/56 38/38
f 57/57 44/44 43/43
f 57/57 43/43 58/58
f 47/47 59/59 60/60
f 47/47 60/60 48/48
f 61/61 62/62 63/63
f 61/61 63/63 64/64
f 41/41 65/65 66/66
f 41/41 66/66 42/42
f 67/67 46/46 45/45
f 67/67 45/45 68/68
f 74/74 72/72 73/73
f 72/72 74/74 71/71
f 71/71 74/74 75/75
f 71/71 75/75 70/70
f 70/70 75/75 76/76
f 70/70 76/76 69/69
f 69/69 76/76 77/77
f 69/69 77/77 80/80
f 80/80 77/77 78/78
f 80/80 78/78 79/79
f 83/83 81/81 82/82
f 81/81 83/83 84/84
f 81/81 84/84 92/92
f 92/92 84/84 85/85
f 92/92 85/85 91/91
f 91/91 85/85 86/86
f 91/91 86/86 90/90
f 90/90 86/86 87/87
f 90/90 87/87 88/88
f 90/90 88/88 89/89

