# https://github.com/mikedh/trimesh
v -0.65183617 0.64421119 -0.38439215
v -0.63563220 0.64755687 -0.38439215
v -0.64709012 0.63947973 -0.38104649
v -0.65183617 0.64421119 -0.38439215
v -0.64709012 0.63947973 -0.38104649
v -0.65183617 0.63613405 -0.37296934
v 0.65183617 0.64421119 -0.38439215
v 0.65183617 0.63613405 -0.37296934
v 0.64709008 0.63947973 -0.38104649
v 0.65183617 0.64421119 -0.38439215
v 0.64709008 0.63947973 -0.38104649
v 0.63563211 0.64755687 -0.38439215
v 0.65183617 1.37128602 0.54551203
v -0.65183617 1.37128602 0.54551203
v -0.65183617 1.37128602 -0.22936033
v 0.65183617 1.37128602 -0.22936033
v -0.62868527 1.47001577 -0.38439215
v -0.65183617 1.48633575 -0.38439215
v 0.65183617 1.48633575 -0.38439215
v 0.62868523 1.47001577 -0.38439215
v -0.65183617 1.38278985 0.55701584
v 0.65183617 1.38278985 0.55701584
v 0.65183617 1.47483195 0.55701584
v -0.65183617 1.47483195 0.55701584
v -0.65183617 0.63613405 -0.37296934
v 0.65183617 0.63613405 -0.37296934
v 0.65183617 0.63613405 -0.24078314
v -0.65183617 0.63613405 -0.24078314
v -0.62868527 0.65245398 -0.38439215
v 0.62868523 0.65245398 -0.38439215
v 0.65183617 1.37128602 -0.22936033
v -0.65183617 1.37128602 -0.22936033
v -0.65183617 0.64755687 -0.22936033
v 0.65183617 0.64755687 -0.22936033
v -0.62868527 1.47001577 -0.55701584
v -0.62868527 0.65245398 -0.55701584
v -0.62868527 0.65245398 -0.38439215
v -0.62868527 1.47001577 -0.38439215
v 0.62868523 1.47001577 -0.55701584
v -0.62868527 1.47001577 -0.55701584
v -0.62868527 1.47001577 -0.38439215
v 0.62868523 1.47001577 -0.38439215
v 0.62868523 1.47001577 -0.38439215
v 0.62868523 0.65245398 -0.38439215
v 0.62868523 0.65245398 -0.55701584
v 0.62868523 1.47001577 -0.55701584
v -0.62868527 0.65245398 -0.55701584
v 0.62868523 0.65245398 -0.55701584
v 0.62868523 0.65245398 -0.38439215
v -0.62868527 0.65245398 -0.38439215
v -0.65183617 1.48633575 0.54551203
v -0.65183617 1.48296638 0.55364647
v 0.65183617 1.48296638 0.55364647
v 0.65183617 1.48633575 0.54551203
v -0.65183617 1.48296638 0.55364647
v 0.65183617 1.48296638 0.55364647
v -0.65183617 1.37465541 0.55364647
v 0.65183617 1.37465541 0.55364647
v -0.65183617 1.37465541 0.55364647
v 0.65183617 1.37465541 0.55364647
v -0.65183617 0.63947973 -0.23270600
v 0.65183617 0.63947973 -0.23270600
v -0.65183617 0.63947973 -0.23270600
v 0.65183617 0.63947973 -0.23270600
v -0.65183617 1.48633575 -0.22936033
v -0.65183617 1.48633575 -0.38439215
v 0.65183617 1.48633575 -0.38439215
v -0.65183617 0.64421119 -0.38439215
v -0.62868527 0.65245398 -0.38439215
v -0.63563220 0.64755687 -0.38439215
v 0.65183617 0.64421119 -0.38439215
v 0.62868523 1.47001577 -0.38439215
v 0.65183617 1.48633575 -0.38439215
v 0.62868523 0.65245398 -0.38439215
v 0.63563211 0.64755687 -0.38439215
v -0.65183617 1.37128602 0.54551203
v -0.65183617 1.48633575 -0.22936033
v -0.65183617 1.37128602 -0.22936033
v -0.65183617 1.48633575 0.54551203
v -0.65183617 1.37465541 0.55364647
v -0.65183617 1.48296638 0.55364647
v -0.65183617 1.38278985 0.55701584
v -0.65183617 1.47483195 0.55701584
v 0.65183617 1.48633575 0.54551203
v 0.65183617 1.37128602 -0.22936033
v 0.65183617 1.48633575 -0.22936033
v 0.65183617 1.37128602 0.54551203
v 0.65183617 1.48296638 0.55364647
v 0.65183617 1.37465541 0.55364647
v 0.65183617 1.47483195 0.55701584
v 0.65183617 1.38278985 0.55701584
v -0.65183617 0.63613405 -0.37296934
v -0.65183617 1.48633575 -0.38439215
v -0.65183617 0.64421119 -0.38439215
v -0.65183617 0.63613405 -0.24078314
v -0.65183617 0.63947973 -0.23270600
v -0.65183617 0.64755687 -0.22936033
v 0.65183617 0.64421119 -0.38439215
v 0.65183617 1.48633575 -0.38439215
v 0.65183617 0.63613405 -0.37296934
v 0.65183617 0.63613405 -0.24078314
v 0.65183617 0.63947973 -0.23270600
v 0.65183617 0.64755687 -0.22936033
vt 0.45349112 0.55196667
vt 0.45270154 0.55470234
vt 0.45460775 0.55276787
vt 0.45349112 0.55196667
vt 0.45460775 0.55276787
vt 0.45539734 0.55196667
vt 0.45349112 0.77205962
vt 0.45539734 0.77205962
vt 0.45460775 0.77125835
vt 0.45349112 0.77205962
vt 0.45460775 0.77125835
vt 0.45270154 0.76932400
vt 0.84519267 0.77205962
vt 0.84519279 0.55196667
vt 0.66232258 0.55196667
vt 0.66232258 0.77205962
vt 0.25860113 0.55587512
vt 0.25474969 0.55196667
vt 0.25474969 0.77205962
vt 0.25860113 0.76815116
vt 0.00973062 0.55196667
vt 0.00973062 0.77205962
vt 0.03145272 0.77205962
vt 0.03145272 0.55196667
vt 0.45651409 0.55196667
vt 0.45651409 0.77205962
vt 0.48771003 0.77205962
vt 0.48771003 0.55196667
vt 0.44455877 0.55587512
vt 0.44455877 0.76815116
vt 0.66232258 0.77205962
vt 0.66232258 0.55196667
vt 0.49152234 0.55196655
vt 0.49152234 0.77205962
vt 0.01058483 0.03459913
vt 0.19128919 0.03493345
vt 0.19143629 0.00557274
vt 0.01073200 0.00523859
vt 0.70743978 0.03588825
vt 0.98535341 0.03640217
vt 0.98550040 0.00704151
vt 0.70758635 0.00652748
vt 0.70758635 0.00652748
vt 0.52688271 0.00619334
vt 0.52673584 0.03555387
vt 0.70743978 0.03588825
vt 0.19128919 0.03493345
vt 0.52673584 0.03555387
vt 0.52688271 0.00619334
vt 0.19143629 0.00557274
vt 0.03529207 0.55196667
vt 0.03337244 0.55196667
vt 0.03337244 0.77205962
vt 0.03529207 0.77205962
vt 0.03337244 0.55196667
vt 0.03337244 0.77205962
vt 0.00781099 0.55196667
vt 0.00781099 0.77205962
vt 0.84711266 0.55196667
vt 0.84711254 0.77205962
vt 0.48961619 0.55196667
vt 0.48961619 0.77205962
vt 0.48961619 0.55196667
vt 0.48961619 0.77205962
vt 0.21816206 0.55196667
vt 0.25474969 0.55196667
vt 0.25474969 0.77205962
vt 0.45349112 0.55196667
vt 0.44455877 0.55587512
vt 0.45270154 0.55470234
vt 0.45349112 0.77205962
vt 0.25860113 0.76815116
vt 0.25474969 0.77205962
vt 0.44455877 0.76815116
vt 0.45270154 0.76932400
vt 0.03147071 0.09316140
vt 0.00722076 0.25648755
vt 0.03147071 0.25648755
vt 0.00722076 0.09316140
vt 0.03076051 0.09144682
vt 0.00793091 0.09144682
vt 0.02904593 0.09073669
vt 0.00964547 0.09073669
vt 0.23191297 0.12117332
vt 0.20587358 0.29655206
vt 0.23191297 0.29655206
vt 0.20587358 0.12117332
vt 0.23115051 0.11933225
vt 0.20663619 0.11933225
vt 0.22930944 0.11856961
vt 0.20847729 0.11856961
vt 0.18642476 0.28675741
vt 0.00722076 0.28916514
vt 0.18472219 0.28916514
vt 0.18642476 0.25889546
vt 0.18571958 0.25719303
vt 0.18401703 0.25648755
vt 0.04131295 0.33164060
vt 0.23191297 0.33164060
vt 0.03948497 0.32905531
vt 0.03948497 0.29913747
vt 0.04024209 0.29730928
vt 0.04207030 0.29655206
f 1/1 2/2 3/3
f 4/4 5/5 6/6
f 7/7 8/8 9/9
f 10/10 11/11 12/12
f 13/13 14/14 15/15
f 13/13 15/15 16/16
f 17/17 18/18 19/19
f 17/17 19/19 20/20
f 21/21 22/22 23/23
f 21/21 23/23 24/24
f 25/25 26/26 27/27
f 25/25 27/27 28/28
f 29/29 30/30 12/12
f 29/29 12/12 2/2
f 31/31 32/32 33/33
f 31/31 33/33 34/34
f 35/35 36/36 37/37
f 35/35 37/37 38/38
f 39/39 40/40 41/41
f 39/39 41/41 42/42
f 43/43 44/44 45/45
f 43/43 45/45 46/46
f 47/47 48/48 49/49
f 47/47 49/49 50/50
f 51/51 52/52 53/53
f 51/51 53/53 54/54
f 55/55 24/24 23/23
f 55/55 23/23 56/56
f 21/21 57/57 58/58
f 21/21 58/58 22/22
f 59/59 14/14 13/13
f 59/59 13/13 60/60
f 25/25 5/5 9/9
f 25/25 9/9 26/26
f 3/3 2/2 12/12
f 3/3 12/12 11/11
f 33/33 61/61 62/62
f 33/33 62/62 34/34
f 63/63 28/28 27/27
f 63/63 27/27 64/64
f 54/54 65/65 51/51
f 65/65 54/54 66/66
f 66/66 54/54 67/67
f 17/17 68/68 18/18
f 68/68 17/17 69/69
f 68/68 69/69 70/70
f 71/71 72/72 73/73
f 72/72 71/71 74/74
f 74/74 71/71 75/75
f 76/76 77/77 78/78
f 77/77 76/76 79/79
f 79/79 76/76 80/80
f 79/79 80/80 81/81
f 81/81 80/80 82/82
f 81/81 82/82 83/83
f 84/84 85/85 86/86
f 85/85 84/84 87/87
f 87/87 84/84 88/88
f 87/87 88/88 89/89
f 89/89 88/88 90/90
f 89/89 90/90 91/91
f 92/92 93/93 94/94
f 93/93 92/92 77/77
f 77/77 92/92 95/95
f 77/77 95/95 96/96
f 77/77 96/96 97/97
f 86/86 98/98 99/99
f 98/98 86/86 100/100
f 100/100 86/86 101/101
f 101/101 86/86 102/102
f 102/102 86/86 103/103

