# https://github.com/mikedh/trimesh
v -1.09923165 -0.83572096 -0.66336287
v -1.09923234 -1.32763139 -0.75371885
v -1.09919236 -1.32758194 -0.66340785
v -1.09927804 -1.25736331 -0.75372953
v -1.09931337 -1.32762082 -1.17539828
v -1.09926026 -1.32763167 -1.62710552
v -1.09922211 -0.90595278 -0.75373504
v -1.09919027 -0.90600973 -1.17534501
v -1.09920571 -1.25733939 -1.17538152
v -1.09926658 -0.83573182 -1.62708756
v -1.09926951 -0.83572353 -1.17536204
v -1.07913968 -0.83570939 -1.62708305
v -1.09925764 -0.83572087 -1.62706876
v -1.07910791 -0.83575854 -1.17530625
v -1.07911283 -1.32758747 -0.75372209
v -1.09924631 -1.32756491 -1.17529136
v -1.07909764 -1.32756967 -1.17534481
v -1.09927613 -1.32761367 -0.75370902
v -1.07920068 -1.32760035 -1.62708064
v -1.07913450 -1.25738202 -1.17537880
v -1.07917227 -1.25738154 -0.75367291
v -1.07917425 -0.83570558 -1.62710352
v -1.07910491 -0.90594352 -1.17533561
v -1.07923119 -0.83571482 -0.66336143
v -1.07912424 -1.32763413 -0.75367015
v -1.07920175 -1.32763559 -0.66335320
v -1.07915608 -1.32754675 -1.17535044
v -1.07917883 -0.90600014 -0.75376714
v 1.36018933 0.59983145 -0.63324659
v 1.35023604 0.20827817 -0.63320965
v 1.35018329 0.59986293 -0.63328040
v 1.36020741 0.20831167 -0.63323158
v 1.36023730 0.20828381 -0.63331070
v 1.35014614 -0.02256960 -0.63323297
v 1.35018739 0.20826751 -0.63323686
v 1.36018924 -0.02261014 -0.63324526
v 1.35011784 0.59982331 -0.46262771
v 1.36023558 0.59980790 -0.63325923
v 1.35021602 0.59978514 -0.63321859
v 1.36025615 0.59983856 -0.46256947
v 1.36025820 -0.02255822 -0.56299581
v 1.35014529 -0.02259087 -0.63329163
v 1.36018449 -0.02257775 -0.63328493
v 1.35015853 -0.02262115 -0.56298938
v 1.36024389 0.41915844 -0.46260878
v 1.35022761 0.59985719 -0.46256996
v 1.35011400 0.41915531 -0.46259699
v 1.36024606 0.59982281 -0.46259555
v 1.36024258 0.20829137 -0.46267173
v 1.35018924 0.20827654 -0.48265134
v 1.36022230 0.20830612 -0.48271569
v 1.35017584 0.20830295 -0.46265785
vt -4.00000000 -1.00000000
vt -3.00005794 -0.90629995
vt -3.00011706 -1.00000000
vt -3.14289999 -0.90629995
vt -2.99978590 -0.46902394
vt -2.99949408 -0.00051796
vt -3.85710001 -0.90629995
vt -3.85682702 -0.46902394
vt -3.14262700 -0.46902394
vt -3.99937701 -0.00051796
vt 267.99899292 -0.42009997
vt 266.99899292 0.00040001
vt 267.99899292 0.00040001
vt 266.99899292 -0.42009997
vt 266.00100708 -0.81270003
vt 267.00100708 -0.42009997
vt 266.00100708 -0.42009997
vt 267.00100708 -0.81270003
vt -2.99949408 -0.00051796
vt -3.14262700 -0.46902394
vt -3.14289999 -0.90629995
vt -3.99937701 -0.00051796
vt -3.85682702 -0.46902394
vt -4.00000000 -1.00000000
vt -3.00005794 -0.90629995
vt -3.00011706 -1.00000000
vt -2.99978590 -0.46902394
vt -3.85710001 -0.90629995
vt 0.19140001 1.33200002
vt 0.19530000 1.17970002
vt 0.19530000 1.33200002
vt 0.19140001 1.17970002
vt 0.19140001 0.54789996
vt 0.19530000 0.45800000
vt 0.19530000 0.54789996
vt 0.19140001 0.45800000
vt 0.19530000 -0.44529998
vt 0.19140001 -0.37890005
vt 0.19530000 -0.37890005
vt 0.19140001 -0.44529998
vt 0.19140001 -0.15919995
vt 0.19530000 -0.13180006
vt 0.19140001 -0.13180006
vt 0.19530000 -0.15919995
vt 0.19140001 1.26170003
vt 0.19530000 1.33200002
vt 0.19530000 1.26170003
vt 0.19140001 1.33200002
vt 0.19140001 -0.44529998
vt 0.19530000 -0.43750000
vt 0.19140001 -0.43750000
vt 0.19530000 -0.44529998
f 1/1 2/2 3/3
f 2/2 1/1 4/4
f 2/2 4/4 5/5
f 5/5 4/4 6/6
f 4/4 1/1 7/7
f 7/7 1/1 8/8
f 6/6 9/9 10/10
f 9/9 6/6 4/4
f 10/10 9/9 8/8
f 10/10 8/8 1/1
f 11/11 12/12 13/13
f 12/12 11/11 14/14
f 15/15 16/16 17/17
f 16/16 15/15 18/18
f 19/19 20/20 21/21
f 20/20 19/19 22/22
f 20/20 22/22 23/23
f 23/23 22/22 24/24
f 25/25 24/24 26/26
f 24/24 25/25 21/21
f 21/21 25/25 27/27
f 21/21 27/27 19/19
f 24/24 21/21 28/28
f 24/24 28/28 23/23
f 29/29 30/30 31/31
f 30/30 29/29 32/32
f 33/33 34/34 35/35
f 34/34 33/33 36/36
f 37/37 38/38 39/39
f 38/38 37/37 40/40
f 41/41 42/42 43/43
f 42/42 41/41 44/44
f 45/45 46/46 47/47
f 46/46 45/45 48/48
f 49/49 50/50 51/51
f 50/50 49/49 52/52

