# https://github.com/mikedh/trimesh
v 3.07684914 -1.27742155 -1.28814348
v 3.07684898 -1.29749982 -1.28577760
v 3.07685848 -1.27741300 -1.28578604
v 3.07683812 -1.27742544 -1.28578014
v 3.07682972 -1.29749731 -1.28579034
v 3.07684234 -1.27742481 -1.28815106
v 3.07685141 -1.79942045 -0.97458230
v 3.07685897 -1.79943398 -0.97457849
v 3.07685530 -1.81950670 -1.28578636
v 3.07684084 -1.81951107 -0.97457954
v 3.07684015 -1.81950910 -0.97458254
v 3.07685243 -1.79942701 -1.28577765
v 3.07684296 -1.27742153 -0.95450015
v 3.07685998 -1.81951742 -0.95449452
v 3.07685881 -1.29748938 -0.97457918
v 3.07684566 -1.29748402 -0.97456575
v 3.07686242 -1.27741008 -0.97457837
v 3.07683857 -1.27742054 -0.97457600
v 3.07683794 -1.79942558 -0.97457787
v 3.09693178 -1.79943809 -1.28578571
v 3.07684469 -1.79943798 -1.28576669
v 3.09692234 -1.79942610 -0.97458333
v 3.09693882 -1.79941825 -1.28577545
v 3.07683069 -1.81950703 -1.28577505
v 3.07685610 -1.79943361 -1.28576603
v 3.09691581 -1.81951269 -1.28577306
v 3.09692666 -1.81949158 -0.97457979
v 3.07684313 -1.81951044 -1.28578911
v 3.09691615 -1.81950245 -1.28577586
v 3.07685840 -1.81951343 -0.97456790
v 3.45831559 -1.81949497 -0.85412023
v 3.07684232 -1.27741852 -0.95449819
v 3.07684942 -1.81951209 -0.95451714
v 3.45830677 -1.27741652 -0.85410881
v 3.07684684 -1.27742901 -0.95449944
v 3.09691612 -1.27742615 -0.97457628
v 3.07683032 -1.27741744 -0.97458581
v 3.43824061 -1.27742110 -0.97457960
v 3.45832337 -1.27742651 -0.97456994
v 3.45832362 -1.27741382 -0.85410742
v 3.09693251 -1.27741381 -0.97458060
v 3.07683684 -1.29749664 -0.97458738
v 3.07683687 -1.27741845 -0.97458571
v 3.07683999 -1.79943697 -0.97457915
v 3.07685099 -1.81949697 -0.97458139
v 3.09693452 -1.81949634 -0.97457217
v 3.43822101 -1.27741077 -0.97457851
v 3.45832123 -1.81950451 -0.97457825
v 3.45832040 -1.27742335 -0.97459627
v 3.45831701 -1.29750194 -0.97457272
v 3.45831558 -1.81950678 -0.85412353
v 3.09692222 -1.81950754 -0.97459305
v 3.45832025 -1.81950829 -0.97459067
v 3.07682914 -1.81950338 -0.97458364
v 3.07684395 -1.81950932 -0.95449212
v 3.09692587 -1.79942802 -1.28579225
v 3.09693932 -1.79942144 -1.28814018
v 3.07684852 -1.79942145 -1.28577753
v 3.09693113 -1.79942992 -1.28816031
v 3.09693442 -1.81952278 -1.28578237
v 3.09692465 -1.79943697 -1.28577561
v 3.09692468 -1.81951091 -1.28577635
v 3.09692249 -1.81949644 -1.28814585
v 3.07684439 -1.81952285 -1.28579083
v 3.07685676 -1.79942911 -1.28578271
v 3.07686116 -1.81951761 -1.28578511
v 3.07684440 -1.81950280 -1.28815389
v 3.07684328 -1.81952016 -1.28577469
v 3.07685453 -1.81951122 -1.28814734
v 3.09691603 -1.81951118 -1.28576955
v 3.43824082 -1.27740220 -0.97458744
v 3.45832247 -1.27742205 -1.28577598
v 3.43823969 -1.27742495 -1.28578734
v 3.45834216 -1.27742111 -0.97459718
v 3.07684301 -1.27741513 -1.28578443
v 3.09693705 -1.27741256 -1.28578167
v 3.09692253 -1.27742846 -1.28815410
v 3.07683647 -1.27741096 -0.97456860
v 3.09691632 -1.27742986 -0.97459522
v 3.09691863 -1.29752019 -0.97459033
v 3.07685842 -1.29749831 -1.28577370
v 3.09692240 -1.29748162 -1.28577889
v 3.07684512 -1.29747535 -0.97458385
v 3.45830820 -1.27741890 -1.28578078
v 3.43824819 -1.29750288 -1.28577409
v 3.43824650 -1.27742579 -1.28577917
v 3.45831129 -1.29747699 -1.28578605
v 3.45831428 -1.27742895 -1.28578321
v 3.45831782 -1.27741442 -1.28815339
v 3.43823827 -1.27743172 -1.28578702
v 3.09694810 -1.29748733 -1.28578666
v 3.07683755 -1.29750330 -1.28578064
v 3.07684842 -1.27742640 -1.28815875
v 3.45832914 -1.27741692 -1.28815152
v 3.45831612 -1.29749977 -1.28580373
v 3.45831879 -1.27742898 -1.28578841
v 3.45831280 -1.29748977 -0.97459055
v 3.43822838 -1.29749051 -1.28577449
v 3.45831027 -1.29749112 -1.28578278
v 3.43824213 -1.29750557 -0.97457468
v 3.43824928 -1.27741545 -1.28577604
v 3.43820986 -1.29749351 -1.28578067
v 3.43823858 -1.29750057 -1.28814812
v 3.43824301 -1.27742259 -1.28578414
v 3.43824949 -1.27742926 -1.28814039
v 3.45831927 -1.27742687 -1.28578277
v 3.09691898 -1.29749023 -1.28577771
v 3.09692186 -1.29750431 -1.28814617
v 3.07685573 -1.29749648 -1.28577715
v 3.09692329 -1.27741997 -1.28578278
v 3.43824208 -1.29750754 -1.28577536
v 3.43823792 -1.29749273 -1.28815125
v 3.45832041 -1.29750407 -1.28577105
v 3.09691277 -1.27742874 -1.28814669
v 3.09693786 -1.29749337 -1.28578243
v 3.09691498 -1.27742202 -1.28578063
vt 5.03910017 -0.49240005
vt 4.97660017 -0.49609995
vt 5.03910017 -0.49609995
vt 211.60429382 -33.33319092
vt 213.61180115 -33.33319092
vt 211.60429382 -33.09637833
vt 4.03910017 -0.98049998
vt 1.96879995 -1.37059999
vt 3.97659993 -0.49609995
vt 3.97659993 -0.98049998
vt 1.96879995 -1.34618306
vt 4.03910017 -0.49609995
vt 2.03130007 -2.00539994
vt 2.03130007 -1.34619999
vt 1.96879995 -1.98097205
vt 4.97660017 -0.98049998
vt 1.96879995 -2.00538301
vt 5.03910017 -0.98049998
vt 3.03130007 -0.98049998
vt 2.96880007 -0.49609995
vt 3.03130007 -0.49609995
vt 2.96880007 -0.98049998
vt 3.41409993 -1.27729988
vt 3.35159993 -1.30859995
vt 3.41409993 -1.30859995
vt 3.35159993 -1.27729988
vt 2.96880007 -0.98049998
vt 3.03130007 -0.49609995
vt 2.96880007 -0.49609995
vt 3.03130007 -0.98049998
vt -1.95539999 -1.35400009
vt -3.01559997 -2.01320004
vt -3.01559997 -1.35400009
vt -1.95539999 -2.01320004
vt 6.14319420 -2.00461507
vt 5.96960020 -1.96910000
vt 5.96960020 -2.00461197
vt 5.96960020 -1.36540008
vt 5.96960020 -1.32988596
vt 7.01130009 -1.32990003
vt 2.95659995 -0.92659998
vt 2.92188096 -0.94396102
vt 2.95659900 -0.94396102
vt 2.05382395 -0.94396102
vt 2.01909900 -0.94396102
vt 2.01909995 -0.92659998
vt 2.95661712 -0.63146198
vt 2.01911807 -0.61409998
vt 2.95661807 -0.61409998
vt 2.92190003 -0.61409998
vt 3.48729992 -1.35109997
vt 2.99385691 -1.96242189
vt 2.99379706 -1.35103202
vt 2.99386001 -1.99638891
vt 3.07610011 -1.99640012
vt 2.96880007 -0.49609995
vt 2.96880007 -0.49240005
vt 3.03130007 -0.49609995
vt 263.80511475 -33.09637070
vt 265.81298828 -33.33319092
vt 263.80511475 -33.33319092
vt -14.43078995 -33.33322906
vt -14.43078995 -33.09642029
vt -12.42302990 -33.33322906
vt -263.80511475 -33.33319092
vt -265.81298828 -33.33319092
vt -265.81298828 -33.09637070
vt 3.03130007 -0.49609995
vt 3.03130007 -0.49240005
vt 2.96880007 -0.49609995
vt 2.01559997 -0.98049998
vt 1.95309997 -0.49609995
vt 2.01559997 -0.49609995
vt 1.95309997 -0.98049998
vt 3.03130007 -0.49609995
vt 2.96880007 -0.49609995
vt 2.96880007 -0.49241400
vt 3.03130007 -0.98049998
vt 2.96880007 -0.98049998
vt 2.96090007 -0.98049998
vt 3.02340007 -0.49609995
vt 2.96090007 -0.49609995
vt 3.02340007 -0.98049998
vt 5.03910017 -0.71480000
vt 4.97660017 -0.74609995
vt 5.03910017 -0.74609995
vt 4.97660017 -0.71480000
vt 1.95309997 -0.49609995
vt 1.95309997 -0.49240005
vt 2.01559997 -0.49609995
vt 4.97660017 -1.27729988
vt 4.97660017 -1.30859995
vt 5.03910017 -1.30859995
vt 211.60429382 -33.09637833
vt 213.61180115 -33.33319092
vt 211.60429382 -33.33319092
vt 1.96879995 -0.98049998
vt 2.03130007 -0.49609995
vt 1.96879995 -0.49609995
vt 2.03130007 -0.98049998
vt -211.60429382 -33.33319092
vt -213.61180115 -33.33319092
vt -213.61180115 -33.09637833
vt 48.56219864 -33.33322906
vt 48.56219864 -33.09642029
vt 50.57007980 -33.33322906
vt -14.43078995 -33.33322906
vt -14.43078995 -33.09642029
vt -12.42302990 -33.33322906
vt 5.03910017 -1.27729988
vt 2.03130007 -0.49609995
vt 2.03130007 -0.49240005
vt 1.96879995 -0.49609995
vt 211.60429382 -33.09637833
vt 213.61180115 -33.33319092
vt 211.60429382 -33.33319092
f 1/1 2/2 3/3
f 4/4 5/5 6/6
f 7/7 9/9 10/10
f 9/9 7/7 12/12
f 13/13 11/11 14/14
f 11/11 13/13 8/8
f 8/8 13/13 15/15
f 15/15 13/13 17/17
f 19/19 20/20 21/21
f 20/20 19/19 22/22
f 23/23 24/24 25/25
f 24/24 23/23 26/26
f 27/27 28/28 29/29
f 28/28 27/27 30/30
f 31/31 32/32 33/33
f 32/32 31/31 34/34
f 35/35 36/36 37/37
f 36/36 35/35 38/38
f 38/38 35/35 39/39
f 39/39 35/35 40/40
f 18/18 2/2 16/16
f 2/2 18/18 3/3
f 41/41 42/42 43/43
f 42/42 41/41 44/44
f 44/44 41/41 45/45
f 45/45 41/41 46/46
f 46/46 41/41 47/47
f 46/46 47/47 48/48
f 48/48 47/47 49/49
f 48/48 49/49 50/50
f 51/51 52/52 53/53
f 52/52 51/51 54/54
f 54/54 51/51 55/55
f 56/56 57/57 58/58
f 59/59 60/60 61/61
f 62/62 63/63 64/64
f 65/65 66/66 67/67
f 68/68 69/69 70/70
f 71/71 72/72 73/73
f 72/72 71/71 74/74
f 75/75 76/76 77/77
f 76/76 75/75 78/78
f 76/76 78/78 79/79
f 80/80 81/81 82/82
f 81/81 80/80 83/83
f 84/84 85/85 86/86
f 85/85 84/84 87/87
f 88/88 89/89 90/90
f 91/91 92/92 93/93
f 94/94 95/95 96/96
f 97/97 98/98 99/99
f 98/98 97/97 100/100
f 101/101 102/102 103/103
f 104/104 105/105 106/106
f 107/107 108/108 109/109
f 91/91 93/93 110/110
f 111/111 112/112 113/113
f 114/114 115/115 116/116

