# https://github.com/mikedh/trimesh
v 1.03900104 1.63378698 -1.12513675
v 1.30000616 1.63377268 -1.14522544
v 1.03904277 1.63382520 -1.14526317
v 1.29995762 1.63376958 -1.12515797
v 1.29992009 1.37277999 -1.12520372
v 1.03897065 1.63377238 -1.12517064
v 1.03901116 1.37282467 -1.12516414
v 1.30005084 1.63376810 -1.12514699
v 1.30003444 1.37279107 -1.14526458
v 1.29996980 1.63377544 -1.12515164
v 1.29996668 1.37278033 -1.12516523
v 1.30002160 1.63379926 -1.14522566
v 1.29997928 1.63378707 -1.14521048
v 1.03904948 1.37274315 -1.14518463
v 1.03904425 1.63381933 -1.14522888
v 1.29999132 1.37283938 -1.14516882
v 1.03906039 1.63383824 -1.12514678
v 1.03895379 1.37278758 -1.14521500
v 1.03895095 1.37280174 -1.12514436
v 1.03902123 1.63374972 -1.14526168
v 1.29998698 1.37274631 -1.12509798
v 1.03897902 1.37279939 -1.14524741
v 1.30005853 1.37283451 -1.14521581
v 1.03891854 1.37278959 -1.12513537
v 1.52088761 1.57353738 -0.36215774
v 1.53083946 1.50326812 -0.34211423
v 1.53089285 1.50336247 -0.36221559
v 1.52082962 1.57354589 -0.36226092
v 1.52081168 1.57358159 -0.34212677
v 1.53093208 1.50326482 -0.34208753
v 1.52085652 1.43307559 -0.34216268
v 0.81812092 1.57356811 -0.36218574
v 0.81812826 1.43317239 -0.36226977
v 0.80805827 1.50330935 -0.36218722
v 0.83827299 1.36259600 -0.36219135
v 0.83817975 1.64380569 -0.36220028
v 0.86826259 1.70407679 -0.36224287
v 0.86824362 1.30272197 -0.36221511
v 0.90870867 1.25213867 -0.36217194
v 0.91366097 1.75941595 -0.36218101
v 0.96875592 1.20216002 -0.36221959
v 0.96368238 1.80948359 -0.36224953
v 1.02864346 1.83447388 -0.36224241
v 1.02893569 1.17197741 -0.36221276
v 1.09942432 1.85468826 -0.36222276
v 1.09911161 1.15198650 -0.36218153
v 1.16948898 1.14194175 -0.36221024
v 1.16951452 1.86469462 -0.36220871
v 1.23977938 1.85462871 -0.36228962
v 1.23976909 1.15190837 -0.36218401
v 1.31003128 1.83457006 -0.36225236
v 1.31002342 1.17201394 -0.36227488
v 1.37028165 1.80444525 -0.36226427
v 1.37018606 1.20214830 -0.36223281
v 1.43048660 1.76428706 -0.36215793
v 1.43050361 1.25232610 -0.36227494
v 1.47071508 1.70409561 -0.36218448
v 1.47052659 1.30228459 -0.36220913
v 1.50080053 1.36274283 -0.36227447
v 1.50081525 1.64376242 -0.36223077
v 1.52084481 1.57352233 -0.36220056
v 1.52084496 1.43300436 -0.36220386
v 1.53087423 1.50334074 -0.36220982
v 1.50076201 1.64376209 -0.36226859
v 1.53092961 1.50328976 -0.36223230
v 1.52092490 1.43297440 -0.34216809
v 1.52083531 1.43304060 -0.36224577
v 0.86821802 1.30266780 -0.36219644
v 0.90871263 1.25214865 -0.36221649
v 0.86820373 1.30268421 -0.34209855
v 0.83828362 1.36271588 -0.34217523
v 0.83829936 1.36262712 -0.36220223
v 0.83827855 1.36261417 -0.36225300
v 0.81822627 1.43321000 -0.34221878
v 0.81809959 1.43321715 -0.36223998
v 0.83832699 1.36266955 -0.36222767
v 0.80809119 1.50325596 -0.36224706
v 0.81807038 1.43323579 -0.36216593
v 0.80806342 1.50324970 -0.34220999
v 0.81811283 1.57344924 -0.36226273
v 0.80815384 1.50327931 -0.36219200
v 0.81812477 1.57362162 -0.34214029
v 0.83821157 1.64392135 -0.36223376
v 0.83820138 1.64383810 -0.34214873
v 0.86838005 1.70403047 -0.36219377
v 0.83825530 1.64380730 -0.36221649
v 0.86831286 1.70414619 -0.34217229
v 0.91362897 1.75936006 -0.34215961
v 0.91363505 1.75941326 -0.36224389
v 0.86833571 1.70401294 -0.36225158
v 0.96383052 1.80952525 -0.36224995
v 0.91358789 1.75935151 -0.36222304
v 0.96371949 1.80945415 -0.34219292
v 1.02879305 1.83458311 -0.34216062
v 1.02868603 1.83444597 -0.36232626
v 0.96373701 1.80945046 -0.36225778
v 1.09945730 1.85466736 -0.34218881
v 1.09936082 1.85466408 -0.36219555
v 1.16946555 1.86470139 -0.34215768
v 1.16951018 1.86463681 -0.34211785
v 1.16954213 1.86470404 -0.36220250
v 1.16936590 1.86469070 -0.36222317
v 1.09940641 1.85461908 -0.36222031
v 1.23978266 1.85463208 -0.34216376
v 1.23981162 1.85460227 -0.34211086
v 1.23977433 1.85461293 -0.36223254
v 1.23973548 1.85466533 -0.36220995
v 1.31005108 1.83452807 -0.34213666
v 1.31007541 1.83456308 -0.36220745
v 1.23975475 1.85464381 -0.36223259
v 1.37028141 1.80439553 -0.34212453
v 1.37026285 1.80446171 -0.34215940
v 1.37028234 1.80441102 -0.36218015
v 1.37021066 1.80441220 -0.36221392
v 1.31009332 1.83457696 -0.36223105
v 1.43045490 1.76428865 -0.34214805
v 1.43056525 1.76431746 -0.36227643
v 1.43057716 1.76428143 -0.36225342
v 1.47075292 1.70406135 -0.34216036
v 1.47066449 1.70409303 -0.36218709
v 1.50073010 1.64390173 -0.34211381
v 1.50076538 1.64380195 -0.36225659
v 1.50077341 1.36272527 -0.34217444
v 1.50080754 1.36276113 -0.36223625
v 1.50080481 1.36279665 -0.36226104
v 1.47050842 1.30228551 -0.34212189
v 1.47053293 1.30229329 -0.36226081
v 1.47047251 1.30222143 -0.36221793
v 1.43046741 1.25230578 -0.34218188
v 1.43048340 1.25228745 -0.36220926
v 1.37026009 1.20211311 -0.34215469
v 1.37021135 1.20214894 -0.34214420
v 1.37032746 1.20209133 -0.36220943
v 1.37028672 1.20211736 -0.36220160
v 1.43045442 1.25239808 -0.36226980
v 1.31007408 1.17197464 -0.34210659
v 1.31002788 1.17201996 -0.36222038
v 1.37030998 1.20211874 -0.36232736
v 1.23978509 1.15194334 -0.34216295
v 1.23980021 1.15197280 -0.36222750
v 1.30998874 1.17206338 -0.36218391
v 1.16947915 1.14197290 -0.34215971
v 1.16953248 1.14189271 -0.36218410
v 1.23973975 1.15200595 -0.36225402
v 1.09925988 1.15195612 -0.34215281
v 1.09911298 1.15188372 -0.36217419
v 1.02893085 1.17199514 -0.34212082
v 1.02900971 1.17204162 -0.36215145
v 0.96876630 1.20217559 -0.34216647
v 0.96873180 1.20215007 -0.34214798
v 0.96873871 1.20214522 -0.36219237
v 0.96872443 1.20211774 -0.36225161
v 1.02894058 1.17205588 -0.36222526
v 0.90866313 1.25227709 -0.34221600
v 1.52081978 1.57359988 -0.34210952
v 0.81812944 1.43318433 -0.34215198
v 0.80809736 1.50327933 -0.34223611
v 0.81811170 1.57355253 -0.34209364
v 0.86834798 1.70411273 -0.34216129
v 0.91363607 1.75925970 -0.34213094
v 0.96373764 1.80954298 -0.34216459
v 0.96372160 1.80945553 -0.34218901
v 1.16947425 1.86466925 -0.34209934
v 1.31007088 1.83453911 -0.34214233
v 1.37027870 1.80442505 -0.34210686
v 1.43043849 1.76428786 -0.34212379
v 1.47048238 1.30226492 -0.34210156
v 1.43051167 1.25226317 -0.34217314
v 1.37027558 1.20214069 -0.34214770
v 1.31005713 1.17203989 -0.34217244
v 1.23980173 1.15194190 -0.34216662
v 1.16948502 1.14194420 -0.34218163
v 0.96879627 1.20219669 -0.34220804
v -1.61120861 1.63380379 -1.12518638
v -1.35024353 1.63378325 -1.14521207
v -1.61122172 1.63385635 -1.14522798
v -1.35022092 1.63384299 -1.12513725
v -1.35020421 1.37277601 -1.12509534
v -1.61117486 1.63378445 -1.12521530
v -1.61119040 1.37274723 -1.12522036
v -1.35022717 1.63380163 -1.12511401
v -1.35020728 1.37281629 -1.14528167
v -1.35021808 1.63379606 -1.12512890
v -1.35021317 1.37281622 -1.12517745
v -1.35020461 1.63380635 -1.14528251
v -1.35021107 1.63378031 -1.14530569
v -1.61116967 1.37277493 -1.14526844
v -1.61121698 1.63379655 -1.14518484
v -1.35022316 1.37280447 -1.14518960
v -1.61118472 1.63382950 -1.12517631
v -1.61117630 1.37278569 -1.14520019
v -1.61123916 1.37276013 -1.12511465
v -1.61121056 1.63377894 -1.14523550
v -1.35024171 1.37283492 -1.12520383
v -1.61120895 1.37280003 -1.14524195
v -1.35024570 1.37275699 -1.14522318
v -1.61124011 1.37281063 -1.12521357
v -1.48074964 1.14189952 -0.34219170
v -1.48062876 1.14189757 -0.36225897
v -1.41051034 1.15188139 -0.36222046
v -1.41049752 1.15188849 -0.34215554
v -1.48064932 1.14190806 -0.34212033
v -1.41044901 1.15196457 -0.36226984
v -1.55070617 1.15194609 -0.34214798
v -1.83207467 1.57353568 -0.36223142
v -1.83209529 1.43293405 -0.36226458
v -1.84209009 1.50334670 -0.36215804
v -1.81198632 1.64386259 -0.36219011
v -1.81201426 1.36268808 -0.36222118
v -1.78193497 1.70405178 -0.36220073
v -1.78192285 1.30251709 -0.36217835
v -1.73697694 1.75898327 -0.36219016
v -1.74165493 1.25232840 -0.36217872
v -1.68147932 1.20211078 -0.36221112
v -1.68649851 1.80944442 -0.36224380
v -1.62132398 1.83457084 -0.36226703
v -1.62144179 1.17206571 -0.36224072
v -1.55078824 1.15198514 -0.36220292
v -1.55093465 1.85462883 -0.36219578
v -1.48071522 1.86465753 -0.36220115
v -1.48067305 1.14192540 -0.36213756
v -1.41051626 1.85461478 -0.36218260
v -1.41046168 1.15197796 -0.36225805
v -1.34016649 1.83456178 -0.36221730
v -1.34016650 1.17197114 -0.36226031
v -1.27938159 1.80420739 -0.36221850
v -1.27994541 1.20214276 -0.36226321
v -1.21974486 1.25236924 -0.36221691
v -1.21967936 1.76427397 -0.36217351
v -1.17953611 1.70408016 -0.36220284
v -1.17957657 1.30244986 -0.36226034
v -1.14937340 1.64387702 -0.36223456
v -1.14944184 1.36278494 -0.36222824
v -1.12939904 1.57360409 -0.36220537
v -1.12944215 1.43300874 -0.36221718
v -1.11929692 1.50329694 -0.36224479
v -1.34018232 1.17202479 -0.36223176
v -1.34019139 1.17205870 -0.34218088
v -1.55078142 1.15186489 -0.36220311
v -1.27944088 1.80424405 -0.34211485
v -1.27945461 1.80423676 -0.34213056
v -1.27944062 1.80423909 -0.36223462
v -1.27948295 1.80422710 -0.36215672
v -1.34021223 1.83456351 -0.36224655
v -1.21972295 1.76429706 -0.34219133
v -1.21971931 1.76424350 -0.36224240
v -1.21975148 1.76425792 -0.36228319
v -1.17942703 1.70391978 -0.34221526
v -1.17956948 1.70403936 -0.36224674
v -1.17959959 1.70408983 -0.36223629
v -1.14941457 1.64384960 -0.34209863
v -1.14949543 1.64389253 -0.36217733
v -1.12933273 1.57374607 -0.34214009
v -1.12932393 1.57353311 -0.36218209
v -1.12934708 1.57354328 -0.36214729
v -1.11932476 1.50329186 -0.34215434
v -1.11934073 1.50331037 -0.36219612
v -1.12934048 1.43293622 -0.36218657
v -1.12936543 1.43297675 -0.34212598
v -1.14941122 1.36271128 -0.36213470
v -1.14947400 1.36268684 -0.34218823
v -1.17949802 1.30250972 -0.36223545
v -1.17955054 1.30249481 -0.34217180
v -1.21973218 1.25234811 -0.36218613
v -1.21974684 1.25233151 -0.34211943
v -1.27998216 1.20211233 -0.34218412
v -1.27998957 1.20213373 -0.34217342
v -1.27992149 1.20212908 -0.36220766
v -1.27995420 1.20210764 -0.36222548
v -1.62139910 1.17198935 -0.34213224
v -1.62141155 1.17201995 -0.36216158
v -1.55079144 1.15195527 -0.36223675
v -1.68146874 1.20210073 -0.34210785
v -1.68147082 1.20217235 -0.34219219
v -1.68149453 1.20209851 -0.36224111
v -1.68150158 1.20212586 -0.36222288
v -1.62143944 1.17199468 -0.36221563
v -1.74168530 1.25229108 -0.36222224
v -1.74171893 1.25233962 -0.34214961
v -1.78187311 1.30248084 -0.34214658
v -1.78190521 1.30253421 -0.36222593
v -1.81198833 1.36271666 -0.34211888
v -1.81196523 1.36277874 -0.36214338
v -1.83206973 1.43306245 -0.34215174
v -1.83205391 1.43303277 -0.36221290
v -1.84208362 1.50328078 -0.34214590
v -1.84208797 1.50335346 -0.36225211
v -1.83213184 1.57354212 -0.34214417
v -1.83206167 1.57356253 -0.36218038
v -1.81195518 1.64382920 -0.36223890
v -1.81196294 1.64381833 -0.34215534
v -1.78192826 1.70404678 -0.36223732
v -1.78187925 1.70405410 -0.34212355
v -1.73700859 1.75894923 -0.36220308
v -1.78188089 1.70407078 -0.36219856
v -1.73701386 1.75893823 -0.34215431
v -1.68645290 1.80948276 -0.34216523
v -1.68648239 1.80942158 -0.36225633
v -1.73705644 1.75894069 -0.36217497
v -1.62122332 1.83459500 -0.34214747
v -1.62126749 1.83461451 -0.36220165
v -1.68653910 1.80950161 -0.36226034
v -1.55097554 1.85466508 -0.36223289
v -1.55088566 1.85466838 -0.34220320
v -1.48070765 1.86469146 -0.34216772
v -1.48069858 1.86470980 -0.36221105
v -1.55100184 1.85464760 -0.36224396
v -1.41049958 1.85460139 -0.34213719
v -1.41045754 1.85464161 -0.36226287
v -1.34018474 1.83453037 -0.34218016
v -1.34018407 1.83451811 -0.36219857
v -1.62131084 1.17203060 -0.34218429
v -1.27947982 1.80416953 -0.34216072
v -1.21969150 1.76431630 -0.34218389
v -1.14942056 1.64387191 -0.34208519
v -1.11933879 1.50326094 -0.34214542
v -1.68158076 1.20211132 -0.34215695
v -1.73704508 1.75887327 -0.34215605
v -1.68650456 1.80950338 -0.34217988
v -1.68648705 1.80946830 -0.34212725
v -1.48078109 1.86466941 -0.34212045
vt -4.94980001 -0.43750000
vt -4.54360008 -0.42190003
vt -4.94980001 -0.42190003
vt -4.54360008 -0.43750000
vt -6.73439980 1.77180004
vt -7.14064503 1.97490001
vt -6.73444510 1.97490001
vt -7.14060020 1.77180004
vt -6.73439980 -0.42190003
vt -7.14060020 -0.43750000
vt -6.73439980 -0.43750000
vt -7.14060020 -0.42190003
vt -7.14060020 1.77180004
vt -6.73445511 1.97490001
vt -7.14065504 1.97490001
vt -6.73439980 1.77180004
vt -7.14060020 -0.43750000
vt -6.73452902 -0.42190003
vt -6.73452902 -0.43750000
vt -7.14060020 -0.42190003
vt -4.54360008 -0.43750000
vt -4.94980001 -0.42190003
vt -4.54360008 -0.42190003
vt -4.94980001 -0.43750000
vt -6.42189980 -1.04690003
vt -6.31250000 -1.06250000
vt -6.31250000 -1.04690003
vt -6.42189980 -1.04690003
vt -6.42189980 -1.06250000
vt -6.31250000 -1.06250000
vt -6.20310020 -1.06250000
vt 4.64066076 2.71089983
vt 4.64069986 2.60165906
vt 4.65628815 2.65621305
vt 4.60932589 2.54674911
vt 4.60940695 2.76559210
vt 4.56253386 2.81247091
vt 4.56269884 2.50012684
vt 4.49974680 2.46078300
vt 4.49203014 2.85553098
vt 4.40629005 2.42184901
vt 4.41405106 2.89452887
vt 4.31293917 2.91397405
vt 4.31252098 2.39841795
vt 4.20286798 2.92968512
vt 4.20340014 2.38280010
vt 4.09367323 2.37499499
vt 4.09377193 2.93750596
vt 3.98440003 2.92969990
vt 3.98440504 2.38281488
vt 3.87502193 2.91408396
vt 3.87503195 2.39844799
vt 3.78127098 2.89065099
vt 3.78128004 2.42189217
vt 3.68752003 2.85940790
vt 3.68752694 2.46096206
vt 3.62502098 2.81253600
vt 3.62523603 2.49982405
vt 3.57814789 2.54690790
vt 3.57814288 2.76566315
vt 3.54689789 2.71097612
vt 3.54690003 2.60160017
vt 3.53127289 2.65629005
vt -6.53130007 -1.04690003
vt -6.31250000 -1.04690003
vt -6.20310020 -1.06250000
vt -6.20310020 -1.04690003
vt -6.00029993 -1.04690003
vt -5.92159986 -1.04690003
vt -6.00029993 -1.06250000
vt -6.09359980 -1.06250000
vt -6.09356308 -1.04690003
vt -6.09359980 -1.04690003
vt -6.20340014 -1.06250000
vt -6.20340014 -1.04690003
vt -6.09359980 -1.04690003
vt -6.31250000 -1.04690003
vt -6.20340014 -1.04690003
vt -6.31250000 -1.06250000
vt -6.42189980 -1.04690003
vt -6.31250000 -1.04690003
vt -6.42189980 -1.06250000
vt -6.53130007 -1.04690003
vt -6.53130007 -1.06250000
vt -6.62500000 -1.04690003
vt -6.53130007 -1.04690003
vt -6.62500000 -1.06250000
vt -6.71110010 -1.06250000
vt -6.71110010 -1.04690003
vt -6.62500000 -1.04690003
vt -6.78910017 -1.04690003
vt -6.71110010 -1.04690003
vt -6.78910017 -1.06250000
vt 4.31279993 -1.06250000
vt 4.31290007 -1.04690003
vt 4.41400003 -1.04690003
vt 4.20270014 -1.06250000
vt 4.20279980 -1.04690003
vt 4.09380007 -1.06250000
vt 4.09380484 -1.06250811
vt 4.09380007 -1.04690003
vt 4.09380484 -1.04690790
vt 4.20279980 -1.04690003
vt 3.98440504 -1.06250811
vt 3.98440003 -1.06250000
vt 3.98441100 -1.04690790
vt 3.98440003 -1.04690003
vt 3.87500000 -1.06250000
vt 3.87500000 -1.04690003
vt 3.98440003 -1.04690003
vt 3.78119993 -1.06250000
vt -6.78130007 -1.06250000
vt 3.78119993 -1.04690003
vt -6.78130007 -1.04690003
vt 3.87500000 -1.04690003
vt -6.71880007 -1.06250000
vt -6.71880007 -1.04690003
vt -6.71880007 -1.04690003
vt -6.62500000 -1.06250000
vt -6.62500000 -1.04690003
vt -6.53130007 -1.06250000
vt -6.53130007 -1.04690003
vt -6.09380007 -1.06250000
vt -6.09380007 -1.04690003
vt -6.09380007 -1.04690003
vt -5.99959993 -1.06250000
vt -5.99959993 -1.04690003
vt -5.99959993 -1.04690003
vt -5.92189980 -1.06250000
vt -5.92189980 -1.04690003
vt -5.84380007 -1.06250000
vt 3.78130007 -1.06250000
vt -5.84380007 -1.04690003
vt 3.78119993 -1.04690003
vt -5.92189980 -1.04690003
vt 3.87500000 -1.06250000
vt 3.87500000 -1.04690003
vt 3.78119993 -1.04690003
vt 3.98429990 -1.06250000
vt 3.98440003 -1.04690003
vt 3.87500000 -1.04690003
vt 4.09380007 -1.06250000
vt 4.09359980 -1.04690003
vt 3.98440003 -1.04690003
vt 4.20310020 -1.06250000
vt 4.20340014 -1.04690003
vt 4.31250000 -1.06250000
vt 4.31250000 -1.04690003
vt 4.40630007 -1.06250000
vt -5.84380007 -1.06250000
vt 4.40630007 -1.04690003
vt -5.84380007 -1.04690003
vt 4.31250000 -1.04690003
vt -5.92189980 -1.06250000
vt -6.42189980 -1.06250000
vt -6.20340014 -1.06250000
vt -6.31250000 -1.06250000
vt -6.42189980 -1.06250000
vt -6.62500000 -1.06250000
vt -6.71110010 -1.06250000
vt -6.78910017 -1.06250000
vt 4.41400003 -1.06250000
vt 4.09380007 -1.06250000
vt 3.87500000 -1.06250000
vt 3.78119993 -1.06250000
vt -6.71880007 -1.06250000
vt -5.99959993 -1.06250000
vt -5.92189980 -1.06250000
vt -5.84380007 -1.06250000
vt 3.87500000 -1.06250000
vt 3.98429990 -1.06250000
vt 4.09380007 -1.06250000
vt 4.40630007 -1.06250000
vt -8.94979954 -0.43750000
vt -8.54360104 -0.42190003
vt -8.94979954 -0.42190003
vt -8.54360104 -0.43750000
vt -6.73444510 3.77180004
vt -7.14060020 3.97490001
vt -6.73439980 3.97490001
vt -7.14064503 3.77180004
vt -6.73439980 -0.42190003
vt -7.14070702 -0.43750000
vt -6.73439980 -0.43750000
vt -7.14070702 -0.42190003
vt -7.14065504 3.77180004
vt -6.73439980 3.97490001
vt -7.14060020 3.97490001
vt -6.73445511 3.77180004
vt -7.14060020 -0.43750000
vt -6.73439980 -0.42190003
vt -6.73439980 -0.43750000
vt -7.14060020 -0.42190003
vt -8.54360104 -0.43750000
vt -8.94979954 -0.42190003
vt -8.54360104 -0.42190003
vt -8.94979954 -0.43750000
vt 8.09379959 -1.06250000
vt 8.09370136 -1.04690003
vt 7.98439980 -1.04690003
vt 7.98439980 -1.06250000
vt 8.09379959 -1.06250000
vt 7.98439980 -1.04690003
vt 8.20269966 -1.06250000
vt 8.64060116 2.71089983
vt 8.64060402 2.60152388
vt 8.65622807 2.65621305
vt 8.60934925 2.76559210
vt 8.60935497 2.54683685
vt 8.56247234 2.81247091
vt 8.56248093 2.49996400
vt 8.49261761 2.85520315
vt 8.49998188 2.46090603
vt 8.40623188 2.42184901
vt 8.41400146 2.89451098
vt 8.31246662 2.91405392
vt 8.31278801 2.39841795
vt 8.20279980 2.38280010
vt 8.20309067 2.92968512
vt 8.09371471 2.93750596
vt 8.09366894 2.37499499
vt 7.98439980 2.92969990
vt 7.98441601 2.38281488
vt 7.87502480 2.91408396
vt 7.87503910 2.39844799
vt 7.78047800 2.89045501
vt 7.78128815 2.42189312
vt 7.68753576 2.46096206
vt 7.68752384 2.85940790
vt 7.62502480 2.81253600
vt 7.62503386 2.50002909
vt 7.57815123 2.76566315
vt 7.57815695 2.54690886
vt 7.54690218 2.71097612
vt 7.54690504 2.60160017
vt 7.53127909 2.65629101
vt 7.87500000 -1.04690003
vt 7.87500000 -1.06250000
vt 8.20279980 -1.04690003
vt 7.78049994 -1.06250000
vt -6.78091002 -1.06253099
vt 7.78049994 -1.04690003
vt -6.78091002 -1.04693103
vt 7.87500000 -1.04690003
vt -6.71881008 -1.06253099
vt -6.71885109 -1.04693103
vt -6.71880007 -1.04690003
vt -6.62470007 -1.06250000
vt -6.62500000 -1.04690003
vt -6.62500000 -1.04690003
vt -6.53130007 -1.06250000
vt -6.53130007 -1.04690003
vt -6.42199993 -1.06250000
vt -6.42189980 -1.04690003
vt -6.42189980 -1.04690003
vt -6.31250000 -1.06250000
vt -6.31250000 -1.04690003
vt -6.20310020 -1.04690003
vt -6.20310020 -1.06250000
vt -6.09380007 -1.04690003
vt -6.09380007 -1.06250000
vt -6.00000000 -1.04690003
vt -6.00000000 -1.06250000
vt -5.92189980 -1.04690003
vt -5.92189980 -1.06250000
vt -5.84380007 -1.06250000
vt 7.78119993 -1.06250000
vt -5.84380007 -1.04690003
vt 7.78119993 -1.04690003
vt 8.31280136 -1.06250000
vt 8.31280136 -1.04690003
vt 8.20279980 -1.04690003
vt 8.40629959 -1.06250000
vt -5.84380007 -1.06250000
vt 8.40629959 -1.04690003
vt -5.84380007 -1.04690003
vt 8.31280136 -1.04690003
vt -5.92189980 -1.04690003
vt -5.92189980 -1.06250000
vt -6.00000000 -1.06250000
vt -6.00000000 -1.04690003
vt -6.09380007 -1.06250000
vt -6.09380007 -1.04690003
vt -6.20310020 -1.06250000
vt -6.20310020 -1.04690003
vt -6.31250000 -1.06250000
vt -6.31250000 -1.04690003
vt -6.42189980 -1.06250000
vt -6.42189980 -1.04690003
vt -6.53130007 -1.04690003
vt -6.53130007 -1.06250000
vt -6.62500000 -1.04690003
vt -6.62500000 -1.06250000
vt -6.71049976 -1.04690003
vt -6.62500000 -1.04690003
vt -6.71040010 -1.06250000
vt -6.78910017 -1.06250000
vt -6.78910017 -1.04690003
vt -6.71049976 -1.04690003
vt 8.31239986 -1.06250000
vt 8.31250000 -1.04690003
vt 8.41409969 -1.04690003
vt 8.20310116 -1.04690003
vt 8.20300102 -1.06250000
vt 8.09370136 -1.06250000
vt 8.09370136 -1.04690003
vt 8.20310116 -1.04690003
vt 7.98439980 -1.06250000
vt 7.98439980 -1.04690003
vt 7.87500000 -1.06250000
vt 7.87500000 -1.04690003
vt 8.31280136 -1.06250000
vt 7.78049994 -1.06250000
vt -6.71880007 -1.06250000
vt -6.53130007 -1.06250000
vt -6.31250000 -1.06250000
vt 8.40629959 -1.06250000
vt -6.71040010 -1.06250000
vt -6.78910017 -1.06250000
vt 8.41399956 -1.06250000
vt 8.09370136 -1.06250000
f 1/1 2/2 3/3
f 2/2 1/1 4/4
f 5/5 6/6 7/7
f 6/6 5/5 8/8
f 9/9 10/10 11/11
f 10/10 9/9 12/12
f 13/13 14/14 15/15
f 14/14 13/13 16/16
f 17/17 18/18 19/19
f 18/18 17/17 20/20
f 21/21 22/22 23/23
f 22/22 21/21 24/24
f 25/25 26/26 27/27
f 28/28 29/29 30/30
f 27/27 26/26 31/31
f 32/32 33/33 34/34
f 33/33 32/32 35/35
f 35/35 32/32 36/36
f 35/35 36/36 37/37
f 35/35 37/37 38/38
f 38/38 37/37 39/39
f 39/39 37/37 40/40
f 39/39 40/40 41/41
f 41/41 40/40 42/42
f 41/41 42/42 43/43
f 41/41 43/43 44/44
f 44/44 43/43 45/45
f 44/44 45/45 46/46
f 46/46 45/45 47/47
f 47/47 45/45 48/48
f 47/47 48/48 49/49
f 47/47 49/49 50/50
f 50/50 49/49 51/51
f 50/50 51/51 52/52
f 52/52 51/51 53/53
f 52/52 53/53 54/54
f 54/54 53/53 55/55
f 54/54 55/55 56/56
f 56/56 55/55 57/57
f 56/56 57/57 58/58
f 58/58 57/57 59/59
f 59/59 57/57 60/60
f 59/59 60/60 61/61
f 59/59 61/61 62/62
f 62/62 61/61 63/63
f 64/64 29/29 28/28
f 65/65 66/66 67/67
f 68/68 69/69 70/70
f 71/71 68/68 70/70
f 68/68 71/71 72/72
f 74/74 75/75 76/76
f 77/77 78/78 79/79
f 80/80 81/81 82/82
f 83/83 80/80 84/84
f 85/85 86/86 87/87
f 88/88 89/89 90/90
f 91/91 92/92 93/93
f 94/94 95/95 96/96
f 97/97 98/98 95/95
f 99/99 101/101 103/103
f 102/102 104/104 106/106
f 104/104 102/102 100/100
f 108/108 109/109 110/110
f 111/111 113/113 115/115
f 114/114 116/116 117/117
f 116/116 114/114 112/112
f 118/118 119/119 120/120
f 120/120 121/121 122/122
f 67/67 123/123 124/124
f 125/125 126/126 127/127
f 128/128 129/129 130/130
f 131/131 133/133 135/135
f 136/136 137/137 138/138
f 139/139 140/140 141/141
f 142/142 143/143 144/144
f 145/145 146/146 143/143
f 147/147 148/148 146/146
f 149/149 151/151 153/153
f 154/154 69/69 152/152
f 122/122 121/121 155/155
f 67/67 66/66 123/123
f 70/70 69/69 154/154
f 156/156 73/73 71/71
f 157/157 75/75 74/74
f 158/158 77/77 79/79
f 84/84 80/80 82/82
f 159/159 83/83 84/84
f 160/160 85/85 87/87
f 161/161 89/89 88/88
f 94/94 96/96 162/162
f 97/97 95/95 94/94
f 163/163 98/98 97/97
f 105/105 164/164 107/107
f 108/108 165/165 109/109
f 118/118 166/166 119/119
f 120/120 119/119 121/121
f 124/124 123/123 167/167
f 127/127 126/126 168/168
f 129/129 169/169 130/130
f 132/132 170/170 134/134
f 136/136 171/171 137/137
f 139/139 172/172 140/140
f 145/145 143/143 142/142
f 147/147 146/146 145/145
f 173/173 148/148 147/147
f 154/154 152/152 150/150
f 174/174 175/175 176/176
f 175/175 174/174 177/177
f 178/178 179/179 180/180
f 179/179 178/178 181/181
f 182/182 183/183 184/184
f 183/183 182/182 185/185
f 186/186 187/187 188/188
f 187/187 186/186 189/189
f 190/190 191/191 192/192
f 191/191 190/190 193/193
f 194/194 195/195 196/196
f 195/195 194/194 197/197
f 198/198 199/199 200/200
f 201/201 202/202 203/203
f 204/204 199/199 198/198
f 205/205 206/206 207/207
f 206/206 205/205 208/208
f 206/206 208/208 209/209
f 209/209 208/208 210/210
f 209/209 210/210 211/211
f 211/211 210/210 212/212
f 211/211 212/212 213/213
f 213/213 212/212 214/214
f 214/214 212/212 215/215
f 214/214 215/215 216/216
f 214/214 216/216 217/217
f 217/217 216/216 218/218
f 218/218 216/216 219/219
f 218/218 219/219 220/220
f 218/218 220/220 221/221
f 221/221 220/220 222/222
f 221/221 222/222 223/223
f 223/223 222/222 224/224
f 223/223 224/224 225/225
f 225/225 224/224 226/226
f 225/225 226/226 227/227
f 227/227 226/226 228/228
f 228/228 226/226 229/229
f 228/228 229/229 230/230
f 228/228 230/230 231/231
f 231/231 230/230 232/232
f 231/231 232/232 233/233
f 233/233 232/232 234/234
f 233/233 234/234 235/235
f 235/235 234/234 236/236
f 237/237 201/201 203/203
f 201/201 237/237 238/238
f 204/204 239/239 199/199
f 240/240 242/242 244/244
f 243/243 245/245 246/246
f 245/245 243/243 241/241
f 247/247 248/248 249/249
f 250/250 251/251 252/252
f 252/252 253/253 254/254
f 255/255 256/256 257/257
f 258/258 256/256 259/259
f 256/256 258/258 257/257
f 260/260 259/259 261/261
f 259/259 260/260 258/258
f 262/262 261/261 263/263
f 261/261 262/262 260/260
f 264/264 263/263 265/265
f 263/263 264/264 262/262
f 264/264 266/266 268/268
f 266/266 264/264 265/265
f 269/269 238/238 237/237
f 238/238 269/269 267/267
f 270/270 271/271 272/272
f 273/273 275/275 277/277
f 274/274 278/278 276/276
f 278/278 274/274 279/279
f 280/280 278/278 279/279
f 278/278 280/280 281/281
f 282/282 281/281 280/280
f 281/281 282/282 283/283
f 284/284 283/283 282/282
f 283/283 284/284 285/285
f 286/286 285/285 284/284
f 285/285 286/286 287/287
f 288/288 287/287 286/286
f 287/287 288/288 289/289
f 290/290 289/289 291/291
f 292/292 290/290 293/293
f 294/294 295/295 296/296
f 297/297 298/298 299/299
f 300/300 301/301 302/302
f 300/300 303/303 301/301
f 303/303 300/300 304/304
f 305/305 306/306 307/307
f 306/306 308/308 309/309
f 308/308 306/306 305/305
f 309/309 310/310 311/311
f 310/310 309/309 308/308
f 312/312 239/239 204/204
f 310/310 313/313 311/311
f 247/247 314/314 248/248
f 249/249 248/248 315/315
f 252/252 251/251 253/253
f 253/253 316/316 254/254
f 317/317 271/271 270/270
f 291/291 289/289 288/288
f 293/293 290/290 291/291
f 318/318 292/292 293/293
f 319/319 294/294 296/296
f 300/300 302/302 320/320
f 321/321 303/303 304/304

