# https://github.com/mikedh/trimesh
v -1.34016804 3.44074186 0.15983750
v -1.34016973 1.51328356 -0.26180709
v -1.34007261 1.51340358 0.15972863
v -1.34028071 3.44070208 -0.26183303
v 0.58706999 1.51330915 0.15968472
v -1.34023753 3.44070848 0.15976001
v -1.34014488 1.51341131 0.15977522
v 0.58736898 3.44069869 0.15981410
v -1.34010505 3.44076018 0.15972541
v 0.58718365 3.44071549 -0.26181854
v -1.34026000 3.44073562 -0.26184927
v 0.58730211 3.44076995 0.15981442
v 0.58720534 1.51331638 0.15984913
v -1.34005726 1.51322497 -0.26171376
v 0.58736731 1.51339023 -0.26181496
v -1.34020365 1.51344497 0.15994440
v 0.58740422 1.51343347 -0.26180743
v 0.58716043 3.44075220 0.15983880
v 0.58715395 1.51335888 0.15982045
v 0.58731468 3.44065666 -0.26188997
v 2.29379522 0.11785821 -0.26169657
v 2.29379040 0.76045548 0.15976469
v 2.29395882 0.11805975 0.15983693
v 2.29365209 0.76043312 -0.26178100
v 0.36649001 0.76037879 0.15993321
v 2.29372362 0.76037533 -0.26176064
v 0.36641266 0.76059109 -0.26182111
v 2.29377928 0.76039826 0.15969726
v 2.29372708 0.11800386 0.15983270
v 0.36651354 0.76036772 0.15992244
v 0.36638541 0.11808032 0.15975058
v 2.29377100 0.76044907 0.15986918
v 2.29384361 0.11790538 0.15967700
v 0.36629518 0.11799367 -0.26175728
v 2.29381726 0.11786594 -0.26176673
v 0.36630499 0.11789505 0.15983593
v 0.36622644 0.76046013 0.15973852
v 0.36641754 0.11794683 -0.26182107
v 0.36646492 0.11789138 0.15990072
v 0.36646750 0.76049724 -0.26174203
v -1.24976287 0.11802132 -0.26183132
v -1.24994222 0.76041790 0.15972331
v -1.24994189 0.11797374 0.15973958
v -1.24991007 0.76034443 -0.26181464
v -3.12699976 0.76053595 0.15978451
v -1.24974228 0.76054248 -0.26174322
v -3.12722039 0.76052842 -0.26180887
v -1.24979234 0.76045891 0.15981663
v -1.24980079 0.11792373 0.15963161
v -3.12703763 0.76036374 0.15987312
v -3.12705220 0.11795957 0.15971682
v -1.24986802 0.76042790 0.15966533
v -1.24980231 0.11794421 0.15968960
v -3.12722305 0.11799451 -0.26186155
v -1.24986959 0.11793383 -0.26169032
v -3.12703284 0.11795982 0.15966519
v 1.96268469 -2.56229629 -0.26175103
v 1.96255513 -1.91981925 0.15981461
v 1.96260093 -2.56238293 0.15966519
v 1.96263460 -1.92005021 -0.26185688
v 1.96253470 -2.56245507 0.15983422
v -3.12704503 -1.91992888 0.15982667
v -3.12706741 -2.56225811 0.15981303
v 1.96251285 -1.92005097 0.15967864
v 1.96263930 -2.56237470 0.15976163
v -3.12689571 -2.56247449 -0.26188488
v 1.96251299 -2.56232312 -0.26189119
v -3.12707849 -2.56250061 0.15984364
v -3.12696352 -1.91993208 0.15979779
v 1.96244657 -1.91993171 -0.26172584
v -3.12701782 -1.91970637 -0.26190120
v 1.96259827 -1.91990933 0.15983039
vt 4.50199986 -4.00000000
vt 3.00200009 -2.97460008
vt 3.00200009 -4.00000000
vt 4.50199986 -2.97460008
vt -1.00000000 -7.00000000
vt -2.00000000 -10.00000000
vt -2.00000000 -7.00000000
vt -1.00000000 -10.00000000
vt -4.00780010 -4.00780010
vt -2.50780010 -2.98239994
vt -4.00780010 -2.98239994
vt -2.50780010 -4.00780010
vt -2.50780010 -4.00780010
vt -4.00780010 -2.98239994
vt -2.50780010 -2.98239994
vt -4.00780010 -4.00780010
vt 3.00589991 -2.97460008
vt 4.50589991 -4.00000000
vt 3.00589991 -4.00000000
vt 4.50589991 -2.97460008
vt 2.00586510 -2.97460008
vt 2.50589991 -4.00000000
vt 2.00586510 -4.00000000
vt 2.50589991 -2.97460008
vt -3.00780010 -4.00780010
vt -1.50779998 -2.98239994
vt -3.00780010 -2.98239994
vt -1.50779998 -4.00780010
vt -1.00000000 -5.00000000
vt -2.00000000 -6.00000000
vt -2.00000000 -5.00000000
vt -1.00000000 -6.00000000
vt -1.50779998 -4.00780010
vt -3.00780010 -2.98239994
vt -1.50779998 -2.98239994
vt -3.00780010 -4.00780010
vt 2.50200009 -4.00000000
vt 2.00200009 -2.97460008
vt 2.00200009 -4.00000000
vt 2.50200009 -2.97460008
vt 2.00589991 -2.97460008
vt 2.50589991 -4.00000000
vt 2.00589991 -4.00000000
vt 2.50589991 -2.97460008
vt -4.96880007 -4.00780010
vt -3.50780010 -2.98239994
vt -4.96880007 -2.98239994
vt -3.50780010 -4.00780010
vt -2.00000000 -5.00000000
vt -2.97399998 -6.00000000
vt -2.97399998 -5.00000000
vt -2.00000000 -6.00000000
vt -3.50780010 -4.00780010
vt -4.96880007 -2.98239994
vt -3.50780010 -2.98239994
vt -4.96880007 -4.00780010
vt 0.00589996 -2.97460008
vt 0.50590003 -4.00000000
vt 0.00589996 -4.00000000
vt 0.50590003 -2.97460008
vt -1.34179997 0.00000000
vt -5.30270004 -1.00000000
vt -5.30270004 0.00000000
vt -1.34179997 -1.00000000
vt -1.00779998 -4.00780010
vt -4.96880007 -2.98239994
vt -1.00779998 -2.98239994
vt -4.96880007 -4.00780010
vt -4.96880007 -4.00780010
vt -1.00779998 -2.98239994
vt -4.96880007 -2.98239994
vt -1.00779998 -4.00780010
f 1/1 2/2 3/3
f 2/2 1/1 4/4
f 5/5 6/6 7/7
f 6/6 5/5 8/8
f 9/9 10/10 11/11
f 10/10 9/9 12/12
f 13/13 14/14 15/15
f 14/14 13/13 16/16
f 17/17 18/18 19/19
f 18/18 17/17 20/20
f 21/21 22/22 23/23
f 22/22 21/21 24/24
f 25/25 26/26 27/27
f 26/26 25/25 28/28
f 29/29 30/30 31/31
f 30/30 29/29 32/32
f 33/33 34/34 35/35
f 34/34 33/33 36/36
f 37/37 38/38 39/39
f 38/38 37/37 40/40
f 41/41 42/42 43/43
f 42/42 41/41 44/44
f 45/45 46/46 47/47
f 46/46 45/45 48/48
f 49/49 50/50 51/51
f 50/50 49/49 52/52
f 53/53 54/54 55/55
f 54/54 53/53 56/56
f 57/57 58/58 59/59
f 58/58 57/57 60/60
f 61/61 62/62 63/63
f 62/62 61/61 64/64
f 65/65 66/66 67/67
f 66/66 65/65 68/68
f 69/69 70/70 71/71
f 70/70 69/69 72/72

