# https://github.com/mikedh/trimesh
v 0.39903167 6.17047146 -0.89426827
v 0.39903152 6.16794961 -1.61705249
v 0.39904020 6.16796035 -0.89427799
v 0.39902160 6.17046790 -1.61705481
v 0.39901394 6.17047083 -0.89428192
v 0.40916706 6.17046847 -1.61705740
v 0.39903374 6.17047996 -1.61705604
v 0.40918225 6.17046760 -0.89427036
v 0.40917890 6.17047309 -1.61706049
v 0.39902409 6.16795018 -1.61705352
v 0.39902346 6.17047090 -1.61705626
v 0.40917628 6.16795504 -1.61705254
v 0.40916763 6.16795255 -0.89426723
v 0.39904157 6.16794438 -1.61704415
v 0.40918210 6.16795915 -1.61705320
v 0.39902849 6.16796404 -0.89425871
v 0.40918540 6.16796301 -0.89427031
v 0.39902202 6.17047238 -0.89426815
v 0.39902144 6.16795635 -0.89426979
v 0.40917740 6.17046384 -0.89427769
v 0.41143971 6.16231514 -0.89426031
v 0.41143928 6.16484491 -0.89427477
v 0.41145433 6.16485208 -1.61705053
v 0.40915642 6.17047279 -0.89426795
v 0.41145014 6.16483806 -0.89425971
v 0.40916281 6.17046762 -1.61704834
v 0.41144323 6.16485702 -1.61705375
v 0.40916778 6.16795076 -1.61706301
v 0.40916312 6.17047697 -1.61705091
v 0.41145224 6.16231815 -1.61704289
v 0.42175817 6.16485392 -1.61705824
v 0.42175493 6.16232542 -1.61704765
v 0.40917353 6.16794925 -0.89428261
v 0.41143273 6.16232725 -1.61704795
v 0.41144168 6.16231583 -0.89426658
v 0.40916310 6.16794833 -1.61705062
v 0.42174397 6.16232640 -0.89427711
v 0.41144366 6.16484198 -0.89427144
v 0.41144789 6.16231812 -0.89426262
v 0.42176551 6.16484864 -0.89426447
v 0.42403646 6.16795960 -0.89427235
v 0.42402044 6.17047143 -0.89427847
v 0.41143257 6.16484440 -0.89427701
v 0.42175280 6.16483498 -1.61705317
v 0.41144547 6.16485210 -1.61705521
v 0.42176779 6.16485268 -0.89426458
v 0.42401364 6.17048130 -1.61705265
v 0.42176332 6.16232629 -1.61705234
v 0.42176257 6.16483993 -1.61706887
v 0.42402997 6.16794767 -1.61704729
v 0.43416539 6.17047302 -1.61706126
v 0.43416379 6.16795341 -1.61706586
v 0.42176243 6.16232284 -0.89428148
v 0.41142552 6.16232732 -1.61705726
v 0.42175642 6.16232190 -1.61704197
v 0.41144251 6.16232424 -0.89428366
v 0.42177218 6.16233025 -1.61704739
v 0.42403111 6.16796012 -0.89427022
v 0.42176469 6.16232251 -0.89428357
v 0.42403821 6.16793949 -1.61705685
v 0.43416600 6.16794594 -0.89426846
v 0.42402931 6.17046925 -0.89426914
v 0.42402731 6.16796354 -0.89427036
v 0.43416405 6.17045834 -0.89428236
v 0.42403863 6.17047205 -0.89427495
v 0.42177215 6.16483325 -1.61705935
v 0.42175683 6.16484677 -0.89427770
v 0.42402632 6.17046080 -1.61704983
v 0.42403660 6.17046896 -0.89427172
v 0.43415813 6.17046900 -1.61704514
v 0.42403174 6.17048913 -1.61706081
v 0.43417168 6.17047100 -0.89426880
v 0.43416743 6.16794943 -1.61706139
v 0.43418967 6.17047185 -0.89428749
v 0.43416279 6.16795840 -0.89427652
v 0.43417733 6.17047967 -1.61705621
v 0.43416406 6.16794622 -0.89427797
v 0.42402010 6.16796221 -1.61704360
v 0.43415839 6.16794494 -1.61706791
v 0.42402379 6.16793101 -0.89428117
vt 0.00050000 -1.29999995
vt 0.30829999 2.29999995
vt 0.30829999 -1.29999995
vt 0.00050000 2.29999995
vt 0.99949998 -1.29999995
vt 0.71130002 2.29999995
vt 0.99949998 2.29999995
vt 0.71130002 -1.29999995
vt 0.28870001 0.99949998
vt 0.00050000 0.69169998
vt 0.00050000 0.99949998
vt 0.28870001 0.69169998
vt 0.28870001 -1.29999995
vt 0.00050000 2.29999995
vt 0.28870001 2.29999995
vt 0.00050000 -1.29999995
vt 0.71130002 0.69169998
vt 0.99949998 0.99949998
vt 0.99949998 0.69169998
vt 0.71130002 0.99949998
vt 0.64672083 0.00395942
vt 0.64672083 0.31175941
vt 0.64670002 2.29999995
vt 0.71130002 -1.29999995
vt 0.64670002 -1.29999995
vt 0.71130002 2.29999995
vt 0.35330001 0.30830002
vt 0.28868479 0.68824059
vt 0.28868479 0.99604064
vt 0.35330001 0.00050002
vt 0.64670002 0.30830002
vt 0.64670002 0.00050002
vt 0.28870001 -1.29999995
vt 0.35330001 2.29999995
vt 0.35330001 -1.29999995
vt 0.28870001 2.29999995
vt 0.35330001 0.00050002
vt 0.64670002 0.30830002
vt 0.64670002 0.00050002
vt 0.35330001 0.30830002
vt 0.28857279 0.68824059
vt 0.28857279 0.99604064
vt 0.64670002 -1.29999995
vt 0.35330001 2.29999995
vt 0.64670002 2.29999995
vt 0.35330001 -1.29999995
vt 0.71130002 0.99949998
vt 0.64658380 0.00395942
vt 0.64658380 0.31175941
vt 0.71130002 0.69169998
vt 0.99949998 0.99949998
vt 0.99949998 0.69169998
vt 0.64670002 -1.29999995
vt 0.35330001 2.29999995
vt 0.64670002 2.29999995
vt 0.35330001 -1.29999995
vt 0.64670002 2.29999995
vt 0.71130002 -1.29999995
vt 0.64670002 -1.29999995
vt 0.71130002 2.29999995
vt 0.00050000 0.69169998
vt 0.28870001 0.99949998
vt 0.28870001 0.69169998
vt 0.00050000 0.99949998
vt 0.28870001 -1.29999995
vt 0.35330001 2.29999995
vt 0.35330001 -1.29999995
vt 0.28870001 2.29999995
vt 0.28870001 -1.29999995
vt 0.00050000 2.29999995
vt 0.28870001 2.29999995
vt 0.00050000 -1.29999995
vt 0.69169998 2.29999995
vt 0.99949998 -1.29999995
vt 0.69169998 -1.29999995
vt 0.99949998 2.29999995
vt 0.99949998 -1.29999995
vt 0.71130002 2.29999995
vt 0.99949998 2.29999995
vt 0.71130002 -1.29999995
f 1/1 2/2 3/3
f 2/2 1/1 4/4
f 5/5 6/6 7/7
f 6/6 5/5 8/8
f 9/9 10/10 11/11
f 10/10 9/9 12/12
f 13/13 14/14 15/15
f 14/14 13/13 16/16
f 17/17 18/18 19/19
f 18/18 17/17 20/20
f 20/20 17/17 21/21
f 20/20 21/21 22/22
f 23/23 24/24 25/25
f 24/24 23/23 26/26
f 27/27 28/28 29/29
f 28/28 27/27 30/30
f 30/30 27/27 31/31
f 30/30 31/31 32/32
f 33/33 34/34 35/35
f 34/34 33/33 36/36
f 37/37 38/38 39/39
f 38/38 37/37 40/40
f 40/40 37/37 41/41
f 40/40 41/41 42/42
f 43/43 44/44 45/45
f 44/44 43/43 46/46
f 47/47 48/48 49/49
f 48/48 47/47 50/50
f 50/50 47/47 51/51
f 50/50 51/51 52/52
f 53/53 54/54 55/55
f 54/54 53/53 56/56
f 57/57 58/58 59/59
f 58/58 57/57 60/60
f 61/61 62/62 63/63
f 62/62 61/61 64/64
f 65/65 66/66 67/67
f 66/66 65/65 68/68
f 69/69 70/70 71/71
f 70/70 69/69 72/72
f 73/73 74/74 75/75
f 74/74 73/73 76/76
f 77/77 78/78 79/79
f 78/78 77/77 80/80

