# https://github.com/mikedh/trimesh
v 2.89409176 0.10247296 -1.03557534
v 2.89409055 0.06731178 -1.09581993
v 2.89416007 0.06739774 -1.03565326
v 2.89401112 0.10244449 -1.09583850
v 2.89394969 0.10246794 -1.03568469
v 2.92917874 0.10244907 -1.09585923
v 2.89410833 0.10254106 -1.09584834
v 2.92930041 0.10244206 -1.03559209
v 2.92927357 0.10248607 -1.09588399
v 2.89403104 0.06731630 -1.09582813
v 2.89402594 0.10246850 -1.09585012
v 2.92925254 0.06735528 -1.09582029
v 2.92918329 0.06733532 -1.03556702
v 2.89417105 0.06726985 -1.09575313
v 2.92929921 0.06738813 -1.09582556
v 2.89406627 0.06742736 -1.03549883
v 2.92932563 0.06741907 -1.03559175
v 2.89401443 0.10248036 -1.03557441
v 2.89400979 0.06736574 -1.03558755
v 2.92926154 0.10241198 -1.03565083
v 2.92919589 0.06727502 -1.09574006
v 2.92919244 0.10249969 -1.03562746
v 2.92931299 0.06741938 -1.03557575
v 2.92909345 0.10248364 -1.09580126
v 2.93200888 0.10244480 -1.03550685
v 2.93187414 0.06730449 -1.09578669
v 2.93195353 0.06745891 -1.03560154
v 2.93191398 0.10245873 -1.09590415
v 2.93187662 0.10251717 -1.03557878
v 2.96716245 0.10243688 -1.09574297
v 2.93193402 0.10257189 -1.09586598
v 2.96704477 0.10249510 -1.03555268
v 2.96709674 0.10244668 -1.09591864
v 2.93186944 0.06737198 -1.09578352
v 2.93194116 0.10241834 -1.09579028
v 2.96701318 0.06730150 -1.09580489
v 2.96695696 0.06736523 -1.03564619
v 2.93195702 0.06733845 -1.09582918
v 2.96712764 0.06729887 -1.09575852
v 2.93199278 0.06739175 -1.03554494
v 2.96713306 0.06739177 -1.03560809
v 2.93186797 0.10247279 -1.03565708
v 2.93186821 0.06735782 -1.03564543
v 2.96702770 0.10242016 -1.03559691
v 2.96710819 0.06741950 -1.09584170
v 2.96714780 0.10256191 -1.03554579
v 2.96695029 0.06741406 -1.03559278
v 2.96711197 0.10250214 -1.09581870
v 2.96976217 0.10245982 -1.03572271
v 2.96973734 0.06729624 -1.09577828
v 2.96972691 0.06734767 -1.03566172
v 2.96971405 0.10247995 -1.09592700
v 2.96976108 0.10247447 -1.03568121
v 3.00474135 0.10251036 -1.09585814
v 2.96971293 0.10246693 -1.09573559
v 3.00487748 0.10248564 -1.03569867
v 3.00497587 0.10253381 -1.09577904
v 2.96974642 0.06739597 -1.09581939
v 2.96977920 0.10247180 -1.09592633
v 3.00494001 0.06723066 -1.09585480
v 3.00486851 0.06728238 -1.03557693
v 2.96973204 0.06731751 -1.09581076
v 3.00485274 0.06742335 -1.09582052
v 2.96971616 0.06723013 -1.03568828
v 3.00494337 0.06733990 -1.03562888
v 2.96983891 0.10240627 -1.03564642
v 2.96971626 0.06737682 -1.03565093
v 3.00484481 0.10238757 -1.03557019
v 3.00492710 0.06731522 -1.09583142
v 3.00480544 0.10245327 -1.03553259
v 3.00488824 0.06747677 -1.03565810
v 3.00491401 0.10246929 -1.09580809
v 2.15287312 2.66153485 -1.03566238
v 2.18818311 2.66156290 -1.09595726
v 2.15283594 2.66160669 -1.09586934
v 2.18808424 2.66162549 -1.03562092
v 2.18797800 2.62637516 -1.09588101
v 2.18791997 2.66163720 -1.03551987
v 2.18793255 2.62636491 -1.03571461
v 2.18794950 2.66138731 -1.09590658
v 2.18808055 2.66154734 -1.09579082
v 2.15284519 2.62653548 -1.09582889
v 2.15285139 2.66171535 -1.09585917
v 2.18793458 2.62644512 -1.09584269
v 2.15293535 2.66151396 -1.03556544
v 2.15292297 2.62639470 -1.09583097
v 2.15282538 2.62656940 -1.03565291
v 2.15284727 2.66150560 -1.09586042
v 2.18800503 2.62647792 -1.03564748
v 2.15286277 2.66148527 -1.03566005
v 2.15303329 2.62649377 -1.03565739
v 2.18792784 2.66151083 -1.03561334
v 2.18800738 2.62639026 -1.03568667
v 2.15295599 2.62645959 -1.09586215
v 2.18799258 2.62640271 -1.09601064
v 2.15288024 2.62637135 -1.03567021
v 2.78185497 0.10252307 -1.03568032
v 2.78180894 0.06737993 -1.09579716
v 2.78183650 0.06737544 -1.03562937
v 2.78190956 0.10240752 -1.09579261
v 2.78196184 0.10251755 -1.03558010
v 2.81681013 0.10249573 -1.09584237
v 2.78188357 0.10244407 -1.09583768
v 2.81705270 0.10246533 -1.03563933
v 2.81710010 0.10241654 -1.09578117
v 2.78190234 0.06729621 -1.09585770
v 2.78183876 0.10251975 -1.09582072
v 2.81699653 0.06727894 -1.09582340
v 2.81708431 0.06733624 -1.03558822
v 2.78187029 0.06734675 -1.09585778
v 2.81704585 0.06725531 -1.09580355
v 2.78187876 0.06736362 -1.03563220
v 2.81704738 0.06728066 -1.03554353
v 2.78179334 0.10242038 -1.03559881
v 2.78197689 0.06735896 -1.03562684
v 2.81694620 0.10246953 -1.03561362
v 2.81712681 0.06737890 -1.09592953
v 2.81714630 0.10245772 -1.03566345
v 2.81711430 0.06733995 -1.03563377
v 2.81704149 0.10252960 -1.09578331
v 2.15279381 2.54949024 -1.03555720
v 2.18798339 2.54932693 -1.09589661
v 2.15288069 2.54933682 -1.09588477
v 2.18805240 2.54939552 -1.03563496
v 2.18804794 2.51431968 -1.09590388
v 2.18797040 2.54942903 -1.03557041
v 2.18801851 2.51430780 -1.03567517
v 2.18791963 2.54932416 -1.09583333
v 2.18795922 2.54934615 -1.09589696
v 2.15283757 2.51418217 -1.09581913
v 2.15291962 2.54934654 -1.09585245
v 2.18797169 2.51427121 -1.09583527
v 2.15296595 2.54931088 -1.03559107
v 2.15289927 2.51421952 -1.09580661
v 2.15279014 2.51436324 -1.03568989
v 2.15292686 2.54930940 -1.09577372
v 2.18798307 2.51424960 -1.03560899
v 2.15293734 2.54935575 -1.03578410
v 2.15282947 2.51425107 -1.03563762
v 2.18805000 2.54943325 -1.03562065
v 2.18791902 2.51432066 -1.03554930
v 2.15285619 2.51436264 -1.09586066
v 2.18793945 2.51423138 -1.09577795
v 2.15281919 2.51435353 -1.03566406
v 2.15292886 2.69939405 -1.03562102
v 2.18806801 2.69927554 -1.09576166
v 2.15286984 2.69933104 -1.09579693
v 2.18806681 2.69940711 -1.03549618
v 2.18806802 2.66429880 -1.09587165
v 2.18801155 2.69939512 -1.03561312
v 2.18802286 2.66424910 -1.03556315
v 2.18799948 2.69934221 -1.09588838
v 2.18795368 2.69943046 -1.09584526
v 2.15291915 2.66414919 -1.09595271
v 2.15281272 2.69942896 -1.09577844
v 2.18802462 2.66417789 -1.09584794
v 2.15285627 2.69934249 -1.03575736
v 2.15282380 2.66421338 -1.09575245
v 2.15288285 2.66430561 -1.03563491
v 2.15285889 2.69913644 -1.09581350
v 2.18803709 2.66432664 -1.03564030
v 2.15287899 2.69932159 -1.03568028
v 2.15283220 2.66420440 -1.03553351
v 2.18800550 2.69931666 -1.03560386
v 2.18801798 2.66418519 -1.03554581
v 2.15276407 2.66421202 -1.09580180
v 2.18792778 2.66424534 -1.09576541
v 2.15289983 2.66412642 -1.03565430
v 2.15294497 2.51152975 -1.03561266
v 2.18803095 2.51155425 -1.09588150
v 2.15285670 2.51152074 -1.09587197
v 2.18799763 2.51158769 -1.03566819
v 2.18811706 2.47648346 -1.09593976
v 2.18799720 2.51153232 -1.03565620
v 2.18796241 2.47636075 -1.03556924
v 2.18797573 2.51161834 -1.09582363
v 2.18799942 2.51159647 -1.09580413
v 2.15289494 2.47635532 -1.09573528
v 2.15292060 2.51150066 -1.09593187
v 2.18802699 2.47630821 -1.09593991
v 2.15285735 2.51152877 -1.03553774
v 2.15288991 2.47642124 -1.09591150
v 2.15287223 2.47638171 -1.03556210
v 2.15288026 2.51155906 -1.09586966
v 2.18802612 2.47639856 -1.03568454
v 2.15288371 2.51149388 -1.03572247
v 2.15292909 2.47635353 -1.03566150
v 2.18798350 2.51152046 -1.03552467
v 2.18799575 2.47640190 -1.03553246
v 2.15290447 2.47643646 -1.09586806
v 2.18805007 2.47637115 -1.09577815
v 2.15281536 2.47632932 -1.03553854
v 2.15286217 2.73720362 -1.03560759
v 2.18796540 2.73730164 -1.09591277
v 2.15286480 2.73724454 -1.09584641
v 2.18795886 2.73717409 -1.03558743
v 2.18794563 2.70212792 -1.09592871
v 2.18797320 2.73722653 -1.03568467
v 2.18804317 2.70208938 -1.03567215
v 2.18791732 2.73713367 -1.09583740
v 2.18793831 2.73714530 -1.09585376
v 2.15300556 2.70210654 -1.09579613
v 2.15288587 2.73726982 -1.09591822
v 2.18798041 2.70210560 -1.09584140
v 2.15286241 2.73718583 -1.03562707
v 2.15282865 2.70195006 -1.09590960
v 2.15290111 2.70218072 -1.03550695
v 2.15287914 2.73727622 -1.09578772
v 2.18796524 2.70199202 -1.03561030
v 2.15277138 2.73720588 -1.03557683
v 2.15279121 2.70209233 -1.03554020
v 2.18802633 2.73725471 -1.03555952
v 2.18810583 2.70209923 -1.03554081
v 2.15286982 2.70205879 -1.09582211
v 2.18797025 2.70205723 -1.09587559
v 2.15274047 2.70209657 -1.03568535
v 2.15286732 2.47380445 -1.03564229
v 2.18797395 2.47379946 -1.09580877
v 2.15293014 2.47369980 -1.09579707
v 2.18796559 2.47368121 -1.03557752
v 2.18797068 2.43862784 -1.09570179
v 2.18790762 2.47367679 -1.03554715
v 2.18799696 2.43865068 -1.03567064
v 2.18802458 2.47371167 -1.09583230
v 2.18802457 2.47364967 -1.09590270
v 2.15295465 2.43860037 -1.09583427
v 2.15287098 2.47374107 -1.09590744
v 2.18794746 2.43865900 -1.09583167
v 2.15292283 2.47368529 -1.03553228
v 2.15289355 2.43861127 -1.09580863
v 2.15282733 2.43847522 -1.03567439
v 2.15296806 2.47379580 -1.09586055
v 2.18798788 2.43864347 -1.03562185
v 2.15279822 2.47379376 -1.03558443
v 2.15272766 2.43856522 -1.03560376
v 2.18803327 2.47372922 -1.03564894
v 2.18799866 2.43860046 -1.03562762
v 2.15285198 2.43865596 -1.09589531
v 2.18798511 2.43846562 -1.09580907
v 2.15292155 2.43861517 -1.03555889
v 0.01176139 -1.50284971 -1.09581357
v 0.01172034 -1.46766671 -1.03563298
v 0.01165107 -1.50282031 -1.03550549
v 0.01168018 -1.46774149 -1.09588078
v 0.01171378 -1.50286690 -1.03568476
v -0.02342186 -1.50295455 -1.09587399
v 0.01166708 -1.50293096 -1.09594075
v -0.02333508 -1.50284006 -1.03572393
v 0.01170124 -1.46777446 -1.09588110
v -0.02348964 -1.50282584 -1.09586399
v -0.02337862 -1.46770506 -1.09576131
v 0.01163063 -1.50276878 -1.09576749
v -0.02337254 -1.46759742 -1.03560089
v 0.01178346 -1.46777840 -1.09577529
v -0.02339603 -1.46776175 -1.09571833
v 0.01171817 -1.46773508 -1.03562421
v 0.01169203 -1.50283877 -1.03556997
v -0.02338522 -1.46787244 -1.03555434
v -0.02342607 -1.50294008 -1.03557780
v 0.01176847 -1.46779606 -1.03546945
v -0.02347588 -1.46783606 -1.03567968
v -0.02332340 -1.50287976 -1.09586261
v -0.02340937 -1.50290415 -1.03565279
v -0.02344293 -1.46769456 -1.09578189
v 0.04946276 -1.50285570 -1.09579535
v 0.04946122 -1.46776473 -1.03567295
v 0.04944908 -1.50286366 -1.03565545
v 0.04956051 -1.46773730 -1.09581713
v 0.04950698 -1.50290638 -1.03561803
v 0.01439180 -1.50291049 -1.09581632
v 0.04956721 -1.50286040 -1.09574171
v 0.01435543 -1.50283939 -1.03563647
v 0.04953753 -1.46778371 -1.09577640
v 0.01440229 -1.50280045 -1.09591444
v 0.01436348 -1.46778734 -1.09587188
v 0.04948378 -1.50287656 -1.09584205
v 0.01438971 -1.46776780 -1.03560191
v 0.04957469 -1.46778790 -1.09584099
v 0.01438780 -1.46770845 -1.09584475
v 0.04952302 -1.46779305 -1.03561152
v 0.04947048 -1.50283967 -1.03561876
v 0.01439440 -1.46778726 -1.03556618
v 0.01443222 -1.50281963 -1.03548365
v 0.04952088 -1.46766583 -1.03561995
v 0.01441494 -1.46771442 -1.03559744
v 0.01443025 -1.50288719 -1.09583867
v 0.01442312 -1.50276824 -1.03566161
v 0.01428739 -1.46776366 -1.09583583
v 0.08740028 -1.50286422 -1.09577248
v 0.08744672 -1.46773845 -1.03563999
v 0.08737008 -1.50289022 -1.03562585
v 0.08729897 -1.46776232 -1.09586568
v 0.08737919 -1.50288431 -1.03557382
v 0.05222258 -1.50289499 -1.09580963
v 0.08737650 -1.50285702 -1.09580224
v 0.05227788 -1.50285507 -1.03562416
v 0.08742967 -1.46772542 -1.09587031
v 0.05224468 -1.50294018 -1.09589679
v 0.05214427 -1.46777501 -1.09576362
v 0.08735788 -1.50282391 -1.09584125
v 0.05221281 -1.46765802 -1.03557902
v 0.08728858 -1.46767523 -1.09590335
v 0.05224310 -1.46769687 -1.09585843
v 0.08745500 -1.46769147 -1.03570419
v 0.08736275 -1.50285322 -1.03564611
v 0.05224088 -1.46768923 -1.03559441
v 0.05220005 -1.50285945 -1.03564827
v 0.08731969 -1.46780111 -1.03559614
v 0.05225179 -1.46773528 -1.03567922
v 0.05224276 -1.50292969 -1.09589475
v 0.05224385 -1.50294976 -1.03557398
v 0.05239758 -1.46770900 -1.09590150
v 0.19956680 -1.50295974 -1.09586294
v 0.19961193 -1.46770143 -1.03567258
v 0.19959986 -1.50280253 -1.03551103
v 0.19954189 -1.46778569 -1.09583789
v 0.19941278 -1.50290035 -1.03562848
v 0.16441917 -1.50296139 -1.09585528
v 0.19953750 -1.50282566 -1.09589429
v 0.16442943 -1.50288307 -1.03557987
v 0.19943493 -1.46775534 -1.09579701
v 0.16442483 -1.50295808 -1.09582211
v 0.16446532 -1.46775128 -1.09590828
v 0.19953958 -1.50288776 -1.09589180
v 0.16433449 -1.46778019 -1.03561635
v 0.19955313 -1.46773998 -1.09583620
v 0.16449778 -1.46760784 -1.09579862
v 0.19950111 -1.46788962 -1.03561825
v 0.19958666 -1.50293692 -1.03559700
v 0.16440134 -1.46771225 -1.03563164
v 0.16446884 -1.50297062 -1.03563819
v 0.19957391 -1.46781820 -1.03550365
v 0.16441445 -1.46765502 -1.03565129
v 0.16443247 -1.50280094 -1.09582343
v 0.16445693 -1.50285415 -1.03569197
v 0.16442322 -1.46779104 -1.09582960
v 0.23734395 -1.50287212 -1.09584553
v 0.23737338 -1.46773761 -1.03565059
v 0.23731439 -1.50290808 -1.03555066
v 0.23739718 -1.46770157 -1.09576105
v 0.23730712 -1.50284001 -1.03567510
v 0.20221939 -1.50284150 -1.09574746
v 0.23733015 -1.50287506 -1.09577402
v 0.20215241 -1.50284858 -1.03563064
v 0.23732438 -1.46772710 -1.09580656
v 0.20218589 -1.50284754 -1.09583100
v 0.20216678 -1.46764554 -1.09577786
v 0.23732564 -1.50290357 -1.09579636
v 0.20221005 -1.46784224 -1.03555197
v 0.23737600 -1.46762505 -1.09582032
v 0.20224984 -1.46756896 -1.09585101
v 0.23732031 -1.46772231 -1.03554693
v 0.23730795 -1.50292222 -1.03558670
v 0.20205342 -1.46779894 -1.03556666
v 0.20220476 -1.50296386 -1.03550115
v 0.23729372 -1.46776594 -1.03563438
v 0.20224359 -1.46775702 -1.03561747
v 0.20224210 -1.50287459 -1.09583564
v 0.20210086 -1.50284400 -1.03569419
v 0.20211317 -1.46765552 -1.09591557
v 0.27524724 -1.50291435 -1.09588038
v 0.27526485 -1.46779636 -1.03559117
v 0.27525889 -1.50280206 -1.03563226
v 0.27529749 -1.46763585 -1.09574907
v 0.27527079 -1.50284353 -1.03544759
v 0.24023438 -1.50291401 -1.09578750
v 0.27527171 -1.50286538 -1.09583216
v 0.24013326 -1.50281523 -1.03560009
v 0.27525651 -1.46765489 -1.09582263
v 0.24013658 -1.50281216 -1.09574636
v 0.24017611 -1.46771373 -1.09582900
v 0.27516588 -1.50285264 -1.09590117
v 0.24004562 -1.46769789 -1.03561860
v 0.27526419 -1.46777194 -1.09577141
v 0.24011331 -1.46766674 -1.09580201
v 0.27524640 -1.46776334 -1.03561095
v 0.27528482 -1.50282912 -1.03568208
v 0.24016444 -1.46774800 -1.03556551
v 0.24006455 -1.50283259 -1.03565895
v 0.27524432 -1.46775287 -1.03562933
v 0.24007214 -1.46774450 -1.03571368
v 0.24015580 -1.50281382 -1.09586671
v 0.24002500 -1.50290706 -1.03555784
v 0.24014124 -1.46775301 -1.09578903
v 2.15281316 3.17638996 -1.03558442
v 2.18799981 3.17639132 -1.09598599
v 2.15291245 3.17644424 -1.09594140
v 2.18804017 3.17642464 -1.03559577
v 2.18806016 3.14124861 -1.09579899
v 2.18804501 3.17646962 -1.03551710
v 2.18804356 3.14125895 -1.03550768
v 2.18794118 3.17639865 -1.09589627
v 2.18799941 3.17648821 -1.09576513
v 2.15290041 3.14125618 -1.09587245
v 2.15283857 3.17648071 -1.09589291
v 2.18805549 3.14128961 -1.09583038
v 2.15296117 3.17639792 -1.03551560
v 2.15279183 3.14124369 -1.09593186
v 2.15283024 3.14132529 -1.03556917
v 2.15289132 3.17644096 -1.09590838
v 2.18792845 3.14130912 -1.03553380
v 2.15285243 3.17635194 -1.03570082
v 2.15283408 3.14138307 -1.03562398
v 2.18794520 3.17639014 -1.03563997
v 2.18802077 3.14125324 -1.03566352
v 2.15286264 3.14131867 -1.09579879
v 2.18803729 3.14126498 -1.09593862
v 2.15282725 3.14130797 -1.03568925
v 2.15288818 3.21418226 -1.03564568
v 2.18807027 3.21422914 -1.09576092
v 2.15281909 3.21428201 -1.09578766
v 2.18783175 3.21421134 -1.03552253
v 2.18805048 3.17905782 -1.09585385
v 2.18792983 3.21422842 -1.03571589
v 2.18794651 3.17914828 -1.03561313
v 2.18798430 3.21421032 -1.09568141
v 2.18806538 3.21417150 -1.09574374
v 2.15286839 3.17912629 -1.09587437
v 2.15281917 3.21426295 -1.09588493
v 2.18796008 3.17913545 -1.09590772
v 2.15279126 3.21424806 -1.03572555
v 2.15282996 3.17906221 -1.09591835
v 2.15280876 3.17912201 -1.03559498
v 2.15281871 3.21424716 -1.09575229
v 2.18793103 3.17908696 -1.03549735
v 2.15290896 3.21426361 -1.03562354
v 2.15282728 3.17914969 -1.03557404
v 2.18800238 3.21418949 -1.03571325
v 2.18801441 3.17904331 -1.03561958
v 2.15291243 3.17913094 -1.09579868
v 2.18813610 3.17915095 -1.09588361
v 2.15282610 3.17921837 -1.03565039
v 2.15287098 3.25218458 -1.03551250
v 2.18800220 3.25209746 -1.09593515
v 2.15282088 3.25206226 -1.09584069
v 2.18798663 3.25209226 -1.03548482
v 2.18803229 3.21696339 -1.09584025
v 2.18799541 3.25215491 -1.03566940
v 2.18799809 3.21688197 -1.03560688
v 2.18801227 3.25213680 -1.09577093
v 2.18804381 3.25217748 -1.09574827
v 2.15289182 3.21696714 -1.09595261
v 2.15289210 3.25208314 -1.09593824
v 2.18798036 3.21700100 -1.09591217
v 2.15294849 3.25211096 -1.03562517
v 2.15286528 3.21699361 -1.09592334
v 2.15299184 3.21689834 -1.03565630
v 2.15294430 3.25212923 -1.09576353
v 2.18806601 3.21696732 -1.03568593
v 2.15284612 3.25209494 -1.03561293
v 2.15275453 3.21700604 -1.03551158
v 2.18809024 3.25202443 -1.03558666
v 2.18788210 3.21704347 -1.03572439
v 2.15289733 3.21701289 -1.09576550
v 2.18802531 3.21686285 -1.09584622
v 2.15285798 3.21696685 -1.03555467
v 2.15291191 3.36439850 -1.03557361
v 2.18798283 3.36437000 -1.09585852
v 2.15288987 3.36428599 -1.09597322
v 2.18802142 3.36429229 -1.03562409
v 2.18799718 3.32906403 -1.09583550
v 2.18809250 3.36426524 -1.03564220
v 2.18797014 3.32925542 -1.03569050
v 2.18805435 3.36428197 -1.09572893
v 2.18808139 3.36427039 -1.09592964
v 2.15295641 3.32922301 -1.09590433
v 2.15291674 3.36422909 -1.09588528
v 2.18791208 3.32919257 -1.09582457
v 2.15290220 3.36435971 -1.03557317
v 2.15290742 3.32918192 -1.09590200
v 2.15287154 3.32906856 -1.03566410
v 2.15286821 3.36433707 -1.09572097
v 2.18794246 3.32914854 -1.03561605
v 2.15290410 3.36430928 -1.03559093
v 2.15281747 3.32916137 -1.03556021
v 2.18797561 3.36439019 -1.03562555
v 2.18796863 3.32915567 -1.03562687
v 2.15279428 3.32913697 -1.09574778
v 2.18812146 3.32910562 -1.09578780
v 2.15288122 3.32915495 -1.03553846
v 2.70628719 0.10248957 -1.03566631
v 2.70617264 0.06733912 -1.09582213
v 2.70626696 0.06738817 -1.03555568
v 2.70609849 0.10253299 -1.09590161
v 2.70630238 0.10250014 -1.03557592
v 2.74133827 0.10249701 -1.09594914
v 2.70630128 0.10246144 -1.09599098
v 2.74143116 0.10257782 -1.03566326
v 2.74143993 0.10243716 -1.09597228
v 2.70621705 0.06736174 -1.09583315
v 2.70624380 0.10249781 -1.09582834
v 2.74135711 0.06730797 -1.09585630
v 2.74134924 0.06732527 -1.03567641
v 2.70620634 0.06734760 -1.09582296
v 2.74136592 0.06733219 -1.09580991
v 2.70628501 0.06738226 -1.03571391
v 2.74134323 0.06738374 -1.03558259
v 2.70627720 0.10249884 -1.03566195
v 2.70630867 0.06726402 -1.03555532
v 2.74136868 0.10239525 -1.03563543
v 2.74143941 0.06730872 -1.09591107
v 2.74135289 0.10243320 -1.03568497
v 2.74139499 0.06738910 -1.03564445
v 2.74139998 0.10245819 -1.09584667
v 2.15288069 3.44002004 -1.03558251
v 2.18794745 3.43996337 -1.09585310
v 2.15284650 3.43988479 -1.09584180
v 2.18800189 3.43991016 -1.03569258
v 2.18790641 3.40480295 -1.09582995
v 2.18813193 3.43992311 -1.03555272
v 2.18807466 3.40479199 -1.03560748
v 2.18798045 3.44003638 -1.09592773
v 2.18800307 3.44001371 -1.09584652
v 2.15284044 3.40480903 -1.09580973
v 2.15290643 3.43994980 -1.09579680
v 2.18806019 3.40473137 -1.09586225
v 2.15292395 3.43996180 -1.03559833
v 2.15291252 3.40485073 -1.09589002
v 2.15280241 3.40472865 -1.03550419
v 2.15281241 3.43991987 -1.09585103
v 2.18806514 3.40469476 -1.03561421
v 2.15294393 3.43999810 -1.03558821
v 2.15285841 3.40489743 -1.03570886
v 2.18806224 3.43996293 -1.03557767
v 2.18802078 3.40480743 -1.03555798
v 2.15280669 3.40472327 -1.09583086
v 2.18800839 3.40480502 -1.09574808
v 2.15283995 3.40483909 -1.03558965
v 2.15301073 3.40198628 -1.03564359
v 2.18797889 3.40214412 -1.09588781
v 2.15296965 3.40216021 -1.09579010
v 2.18803073 3.40197735 -1.03560138
v 2.18792243 3.36691242 -1.09582851
v 2.18798747 3.40212268 -1.03561942
v 2.18791560 3.36687199 -1.03568578
v 2.18798703 3.40213989 -1.09581096
v 2.18802505 3.40199305 -1.09570294
v 2.15287190 3.36707355 -1.09589057
v 2.15284062 3.40221827 -1.09590260
v 2.18802964 3.36691384 -1.09588744
v 2.15299881 3.40200936 -1.03555991
v 2.15293755 3.36687479 -1.09595026
v 2.15277031 3.36688709 -1.03559903
v 2.15289298 3.40205661 -1.09584639
v 2.18806184 3.36697797 -1.03558998
v 2.15283777 3.40211264 -1.03560143
v 2.15283018 3.36690000 -1.03554071
v 2.18811235 3.40203686 -1.03573240
v 2.18803943 3.36688108 -1.03556947
v 2.15285174 3.36706269 -1.09583378
v 2.18805771 3.36686300 -1.09600372
v 2.15288138 3.36694863 -1.03557018
v 2.74407190 0.10240573 -1.03570525
v 2.74413607 0.06738401 -1.09589166
v 2.74407339 0.06730062 -1.03572233
v 2.74411555 0.10252967 -1.09585384
v 2.74402154 0.10246912 -1.03553337
v 2.77935931 0.10249622 -1.09588663
v 2.74398890 0.10239100 -1.09584605
v 2.77924893 0.10249550 -1.03562771
v 2.77914638 0.10238923 -1.09583235
v 2.74405620 0.06741848 -1.09592547
v 2.74420181 0.10244198 -1.09582795
v 2.77924878 0.06732289 -1.09595761
v 2.77920788 0.06743109 -1.03568672
v 2.74399722 0.06733015 -1.09586480
v 2.77916089 0.06729921 -1.09586878
v 2.74408007 0.06735227 -1.03557150
v 2.77925828 0.06736265 -1.03551507
v 2.74416750 0.10231176 -1.03563352
v 2.74401261 0.06730289 -1.03556777
v 2.77922418 0.10245579 -1.03553612
v 2.77914867 0.06733740 -1.09580908
v 2.77923724 0.10241319 -1.03561378
v 2.77928265 0.06736354 -1.03559405
v 2.77925366 0.10248846 -1.09591285
vt 0.48359999 1.71379995
vt 0.00999999 1.99000001
vt 0.48359999 1.99000001
vt 0.00999999 1.71379995
vt 0.48359999 1.68089998
vt 0.00999999 1.40460002
vt 0.00999999 1.68089998
vt 0.48359999 1.40460002
vt 0.79269999 1.68089998
vt 0.51639998 1.40460002
vt 0.51639998 1.68089998
vt 0.79269999 1.40460002
vt 0.99000001 1.99000001
vt 0.51639998 1.71379995
vt 0.51639998 1.99000001
vt 0.99000001 1.71379995
vt 0.79269999 1.37170005
vt 0.51639998 1.09549999
vt 0.51639998 1.37170005
vt 0.79269999 1.09549999
vt 0.00999999 1.09549999
vt 0.48359999 1.37170005
vt 0.48359999 1.09549999
vt 0.00999999 1.37170005
vt 0.48359999 1.71379995
vt 0.00999999 1.99000001
vt 0.48359999 1.99000001
vt 0.00999999 1.71379995
vt 0.48359999 1.68089998
vt 0.00999999 1.40460002
vt 0.00999999 1.68089998
vt 0.48359999 1.40460002
vt 0.79269999 1.68089998
vt 0.51639998 1.40460002
vt 0.51639998 1.68089998
vt 0.79269999 1.40460002
vt 0.99000001 1.99000001
vt 0.51639998 1.71379995
vt 0.51639998 1.99000001
vt 0.99000001 1.71379995
vt 0.79269999 1.37170005
vt 0.51639998 1.09549999
vt 0.51639998 1.37170005
vt 0.79269999 1.09549999
vt 0.00999999 1.09549999
vt 0.48359999 1.37170005
vt 0.48359999 1.09549999
vt 0.00999999 1.37170005
vt 0.48359999 1.71379995
vt 0.00999999 1.99000001
vt 0.48359999 1.99000001
vt 0.00999999 1.71379995
vt 0.48359999 1.68089998
vt 0.00999999 1.40460002
vt 0.00999999 1.68089998
vt 0.48359999 1.40460002
vt 0.79269999 1.68089998
vt 0.51639998 1.40460002
vt 0.51639998 1.68089998
vt 0.79269999 1.40460002
vt 0.99000001 1.99000001
vt 0.51639998 1.71379995
vt 0.51639998 1.99000001
vt 0.99000001 1.71379995
vt 0.79269999 1.37170005
vt 0.51639998 1.09549999
vt 0.51639998 1.37170005
vt 0.79269999 1.09549999
vt 0.00999999 1.09549999
vt 0.48359999 1.37170005
vt 0.48359999 1.09549999
vt 0.00999999 1.37170005
vt 0.48359999 1.99000001
vt 0.00999999 1.71379995
vt 0.00999999 1.99000001
vt 0.48359999 1.71379995
vt 0.00999999 1.40460002
vt 0.48359999 1.68089998
vt 0.48359999 1.40460002
vt 0.00999999 1.68089998
vt 0.51639998 1.68089998
vt 0.79269999 1.40460002
vt 0.51639998 1.40460002
vt 0.79269999 1.68089998
vt 0.99000001 1.71379995
vt 0.51639998 1.99000001
vt 0.99000001 1.99000001
vt 0.51639998 1.71379995
vt 0.79269999 1.09549999
vt 0.51639998 1.37170005
vt 0.79269999 1.37170005
vt 0.51639998 1.09549999
vt 0.48359999 1.37170005
vt 0.00999999 1.09549999
vt 0.00999999 1.37170005
vt 0.48359999 1.09549999
vt 0.48359999 1.71379995
vt 0.00999999 1.99000001
vt 0.48359999 1.99000001
vt 0.00999999 1.71379995
vt 0.48359999 1.68089998
vt 0.00999999 1.40460002
vt 0.00999999 1.68089998
vt 0.48359999 1.40460002
vt 0.79269999 1.68089998
vt 0.51639998 1.40460002
vt 0.51639998 1.68089998
vt 0.79269999 1.40460002
vt 0.99000001 1.99000001
vt 0.51639998 1.71379995
vt 0.51639998 1.99000001
vt 0.99000001 1.71379995
vt 0.79269999 1.37170005
vt 0.51639998 1.09549999
vt 0.51639998 1.37170005
vt 0.79269999 1.09549999
vt 0.00999999 1.09549999
vt 0.48359999 1.37170005
vt 0.48359999 1.09549999
vt 0.00999999 1.37170005
vt 0.48359999 1.99000001
vt 0.00999999 1.71379995
vt 0.00999999 1.99000001
vt 0.48359999 1.71379995
vt 0.00999999 1.40460002
vt 0.48359999 1.68089998
vt 0.48359999 1.40460002
vt 0.00999999 1.68089998
vt 0.51639998 1.68089998
vt 0.79269999 1.40460002
vt 0.51639998 1.40460002
vt 0.79269999 1.68089998
vt 0.99000001 1.71379995
vt 0.51639998 1.99000001
vt 0.99000001 1.99000001
vt 0.51639998 1.71379995
vt 0.79269999 1.09549999
vt 0.51639998 1.37170005
vt 0.79269999 1.37170005
vt 0.51639998 1.09549999
vt 0.48359999 1.37170005
vt 0.00999999 1.09549999
vt 0.00999999 1.37170005
vt 0.48359999 1.09549999
vt 0.48359999 1.99000001
vt 0.00999999 1.71379995
vt 0.00999999 1.99000001
vt 0.48359999 1.71379995
vt 0.00999999 1.40460002
vt 0.48359999 1.68089998
vt 0.48359999 1.40460002
vt 0.00999999 1.68089998
vt 0.51639998 1.68089998
vt 0.79269999 1.40460002
vt 0.51639998 1.40460002
vt 0.79269999 1.68089998
vt 0.99000001 1.71379995
vt 0.51639998 1.99000001
vt 0.99000001 1.99000001
vt 0.51639998 1.71379995
vt 0.79269999 1.09549999
vt 0.51639998 1.37170005
vt 0.79269999 1.37170005
vt 0.51639998 1.09549999
vt 0.48359999 1.37170005
vt 0.00999999 1.09549999
vt 0.00999999 1.37170005
vt 0.48359999 1.09549999
vt 0.48359999 1.99000001
vt 0.00999999 1.71379995
vt 0.00999999 1.99000001
vt 0.48359999 1.71379995
vt 0.00999999 1.40460002
vt 0.48359999 1.68089998
vt 0.48359999 1.40460002
vt 0.00999999 1.68089998
vt 0.51639998 1.68089998
vt 0.79269999 1.40460002
vt 0.51639998 1.40460002
vt 0.79269999 1.68089998
vt 0.99000001 1.71379995
vt 0.51639998 1.99000001
vt 0.99000001 1.99000001
vt 0.51639998 1.71379995
vt 0.79269999 1.09549999
vt 0.51639998 1.37170005
vt 0.79269999 1.37170005
vt 0.51639998 1.09549999
vt 0.48359999 1.37170005
vt 0.00999999 1.09549999
vt 0.00999999 1.37170005
vt 0.48359999 1.09549999
vt 0.48359999 1.99000001
vt 0.00999999 1.71379995
vt 0.00999999 1.99000001
vt 0.48359999 1.71379995
vt 0.00999999 1.40460002
vt 0.48359999 1.68089998
vt 0.48359999 1.40460002
vt 0.00999999 1.68089998
vt 0.51639998 1.68089998
vt 0.79269999 1.40460002
vt 0.51639998 1.40460002
vt 0.79269999 1.68089998
vt 0.99000001 1.71379995
vt 0.51639998 1.99000001
vt 0.99000001 1.99000001
vt 0.51639998 1.71379995
vt 0.79269999 1.09549999
vt 0.51639998 1.37170005
vt 0.79269999 1.37170005
vt 0.51639998 1.09549999
vt 0.48359999 1.37170005
vt 0.00999999 1.09549999
vt 0.00999999 1.37170005
vt 0.48359999 1.09549999
vt 0.48359999 1.99000001
vt 0.00999999 1.71379995
vt 0.00999999 1.99000001
vt 0.48359999 1.71379995
vt 0.00999999 1.40460002
vt 0.48359999 1.68089998
vt 0.48359999 1.40460002
vt 0.00999999 1.68089998
vt 0.51639998 1.68089998
vt 0.79269999 1.40460002
vt 0.51639998 1.40460002
vt 0.79269999 1.68089998
vt 0.99000001 1.71379995
vt 0.51639998 1.99000001
vt 0.99000001 1.99000001
vt 0.51639998 1.71379995
vt 0.79269999 1.09549999
vt 0.51639998 1.37170005
vt 0.79269999 1.37170005
vt 0.51639998 1.09549999
vt 0.48359999 1.37170005
vt 0.00999999 1.09549999
vt 0.00999999 1.37170005
vt 0.48359999 1.09549999
vt 0.00999999 1.71379995
vt 0.48359999 1.99000001
vt 0.48359999 1.71379995
vt 0.00999999 1.99000001
vt 0.48359999 1.68089998
vt 0.00999999 1.40460002
vt 0.00999999 1.68089998
vt 0.48359999 1.40460002
vt 0.51639998 1.40460002
vt 0.79269999 1.68089998
vt 0.79269999 1.40460002
vt 0.51639998 1.68089998
vt 0.99000001 1.99000001
vt 0.51639998 1.71379995
vt 0.51639998 1.99000001
vt 0.99000001 1.71379995
vt 0.51639998 1.09549999
vt 0.79269999 1.37170005
vt 0.79269999 1.09549999
vt 0.51639998 1.37170005
vt 0.48359999 1.09549999
vt 0.00999999 1.37170005
vt 0.48359999 1.37170005
vt 0.00999999 1.09549999
vt 0.00999999 1.71379995
vt 0.48359999 1.99000001
vt 0.48359999 1.71379995
vt 0.00999999 1.99000001
vt 0.48359999 1.68089998
vt 0.00999999 1.40460002
vt 0.00999999 1.68089998
vt 0.48359999 1.40460002
vt 0.51639998 1.40460002
vt 0.79269999 1.68089998
vt 0.79269999 1.40460002
vt 0.51639998 1.68089998
vt 0.99000001 1.99000001
vt 0.51639998 1.71379995
vt 0.51639998 1.99000001
vt 0.99000001 1.71379995
vt 0.51639998 1.09549999
vt 0.79269999 1.37170005
vt 0.79269999 1.09549999
vt 0.51639998 1.37170005
vt 0.48359999 1.09549999
vt 0.00999999 1.37170005
vt 0.48359999 1.37170005
vt 0.00999999 1.09549999
vt 0.00999999 1.71379995
vt 0.48359999 1.99000001
vt 0.48359999 1.71379995
vt 0.00999999 1.99000001
vt 0.48359999 1.68089998
vt 0.00999999 1.40460002
vt 0.00999999 1.68089998
vt 0.48359999 1.40460002
vt 0.51639998 1.40460002
vt 0.79269999 1.68089998
vt 0.79269999 1.40460002
vt 0.51639998 1.68089998
vt 0.99000001 1.99000001
vt 0.51639998 1.71379995
vt 0.51639998 1.99000001
vt 0.99000001 1.71379995
vt 0.51639998 1.09549999
vt 0.79269999 1.37170005
vt 0.79269999 1.09549999
vt 0.51639998 1.37170005
vt 0.48359999 1.09549999
vt 0.00999999 1.37170005
vt 0.48359999 1.37170005
vt 0.00999999 1.09549999
vt 0.00999999 1.71379995
vt 0.48359999 1.99000001
vt 0.48359999 1.71379995
vt 0.00999999 1.99000001
vt 0.48359999 1.68089998
vt 0.00999999 1.40460002
vt 0.00999999 1.68089998
vt 0.48359999 1.40460002
vt 0.51639998 1.40460002
vt 0.79269999 1.68089998
vt 0.79269999 1.40460002
vt 0.51639998 1.68089998
vt 0.99000001 1.99000001
vt 0.51639998 1.71379995
vt 0.51639998 1.99000001
vt 0.99000001 1.71379995
vt 0.51639998 1.09549999
vt 0.79269999 1.37170005
vt 0.79269999 1.09549999
vt 0.51639998 1.37170005
vt 0.48359999 1.09549999
vt 0.00999999 1.37170005
vt 0.48359999 1.37170005
vt 0.00999999 1.09549999
vt 0.00999999 1.71379995
vt 0.48359999 1.99000001
vt 0.48359999 1.71379995
vt 0.00999999 1.99000001
vt 0.48359999 1.68089998
vt 0.00999999 1.40460002
vt 0.00999999 1.68089998
vt 0.48359999 1.40460002
vt 0.51639998 1.40460002
vt 0.79269999 1.68089998
vt 0.79269999 1.40460002
vt 0.51639998 1.68089998
vt 0.99000001 1.99000001
vt 0.51639998 1.71379995
vt 0.51639998 1.99000001
vt 0.99000001 1.71379995
vt 0.51639998 1.09549999
vt 0.79269999 1.37170005
vt 0.79269999 1.09549999
vt 0.51639998 1.37170005
vt 0.48359999 1.09549999
vt 0.00999999 1.37170005
vt 0.48359999 1.37170005
vt 0.00999999 1.09549999
vt 0.00999999 1.71379995
vt 0.48359999 1.99000001
vt 0.48359999 1.71379995
vt 0.00999999 1.99000001
vt 0.48359999 1.68089998
vt 0.00999999 1.40460002
vt 0.00999999 1.68089998
vt 0.48359999 1.40460002
vt 0.51639998 1.40460002
vt 0.79269999 1.68089998
vt 0.79269999 1.40460002
vt 0.51639998 1.68089998
vt 0.99000001 1.99000001
vt 0.51639998 1.71379995
vt 0.51639998 1.99000001
vt 0.99000001 1.71379995
vt 0.51639998 1.09549999
vt 0.79269999 1.37170005
vt 0.79269999 1.09549999
vt 0.51639998 1.37170005
vt 0.48359999 1.09549999
vt 0.00999999 1.37170005
vt 0.48359999 1.37170005
vt 0.00999999 1.09549999
vt 0.48359999 1.99000001
vt 0.00999999 1.71379995
vt 0.00999999 1.99000001
vt 0.48359999 1.71379995
vt 0.00999999 1.40460002
vt 0.48359999 1.68089998
vt 0.48359999 1.40460002
vt 0.00999999 1.68089998
vt 0.51639998 1.68089998
vt 0.79269999 1.40460002
vt 0.51639998 1.40460002
vt 0.79269999 1.68089998
vt 0.99000001 1.71379995
vt 0.51639998 1.99000001
vt 0.99000001 1.99000001
vt 0.51639998 1.71379995
vt 0.79269999 1.09549999
vt 0.51639998 1.37170005
vt 0.79269999 1.37170005
vt 0.51639998 1.09549999
vt 0.48359999 1.37170005
vt 0.00999999 1.09549999
vt 0.00999999 1.37170005
vt 0.48359999 1.09549999
vt 0.48359999 1.99000001
vt 0.00999999 1.71379995
vt 0.00999999 1.99000001
vt 0.48359999 1.71379995
vt 0.00999999 1.40460002
vt 0.48359999 1.68089998
vt 0.48359999 1.40460002
vt 0.00999999 1.68089998
vt 0.51639998 1.68089998
vt 0.79269999 1.40460002
vt 0.51639998 1.40460002
vt 0.79269999 1.68089998
vt 0.99000001 1.71379995
vt 0.51639998 1.99000001
vt 0.99000001 1.99000001
vt 0.51639998 1.71379995
vt 0.79269999 1.09549999
vt 0.51639998 1.37170005
vt 0.79269999 1.37170005
vt 0.51639998 1.09549999
vt 0.48359999 1.37170005
vt 0.00999999 1.09549999
vt 0.00999999 1.37170005
vt 0.48359999 1.09549999
vt 0.48359999 1.99000001
vt 0.00999999 1.71379995
vt 0.00999999 1.99000001
vt 0.48359999 1.71379995
vt 0.00999999 1.40460002
vt 0.48359999 1.68089998
vt 0.48359999 1.40460002
vt 0.00999999 1.68089998
vt 0.51639998 1.68089998
vt 0.79269999 1.40460002
vt 0.51639998 1.40460002
vt 0.79269999 1.68089998
vt 0.99000001 1.71379995
vt 0.51639998 1.99000001
vt 0.99000001 1.99000001
vt 0.51639998 1.71379995
vt 0.79269999 1.09549999
vt 0.51639998 1.37170005
vt 0.79269999 1.37170005
vt 0.51639998 1.09549999
vt 0.48359999 1.37170005
vt 0.00999999 1.09549999
vt 0.00999999 1.37170005
vt 0.48359999 1.09549999
vt 0.48359999 1.99000001
vt 0.00999999 1.71379995
vt 0.00999999 1.99000001
vt 0.48359999 1.71379995
vt 0.00999999 1.40460002
vt 0.48359999 1.68089998
vt 0.48359999 1.40460002
vt 0.00999999 1.68089998
vt 0.51639998 1.68089998
vt 0.79269999 1.40460002
vt 0.51639998 1.40460002
vt 0.79269999 1.68089998
vt 0.99000001 1.71379995
vt 0.51639998 1.99000001
vt 0.99000001 1.99000001
vt 0.51639998 1.71379995
vt 0.79269999 1.09549999
vt 0.51639998 1.37170005
vt 0.79269999 1.37170005
vt 0.51639998 1.09549999
vt 0.48359999 1.37170005
vt 0.00999999 1.09549999
vt 0.00999999 1.37170005
vt 0.48359999 1.09549999
vt 0.48359999 1.71379995
vt 0.00999999 1.99000001
vt 0.48359999 1.99000001
vt 0.00999999 1.71379995
vt 0.48359999 1.68089998
vt 0.00999999 1.40460002
vt 0.00999999 1.68089998
vt 0.48359999 1.40460002
vt 0.79269999 1.68089998
vt 0.51639998 1.40460002
vt 0.51639998 1.68089998
vt 0.79269999 1.40460002
vt 0.99000001 1.99000001
vt 0.51639998 1.71379995
vt 0.51639998 1.99000001
vt 0.99000001 1.71379995
vt 0.79269999 1.37170005
vt 0.51639998 1.09549999
vt 0.51639998 1.37170005
vt 0.79269999 1.09549999
vt 0.00999999 1.09549999
vt 0.48359999 1.37170005
vt 0.48359999 1.09549999
vt 0.00999999 1.37170005
vt 0.48359999 1.99000001
vt 0.00999999 1.71379995
vt 0.00999999 1.99000001
vt 0.48359999 1.71379995
vt 0.00999999 1.40460002
vt 0.48359999 1.68089998
vt 0.48359999 1.40460002
vt 0.00999999 1.68089998
vt 0.51639998 1.68089998
vt 0.79269999 1.40460002
vt 0.51639998 1.40460002
vt 0.79269999 1.68089998
vt 0.99000001 1.71379995
vt 0.51639998 1.99000001
vt 0.99000001 1.99000001
vt 0.51639998 1.71379995
vt 0.79269999 1.09549999
vt 0.51639998 1.37170005
vt 0.79269999 1.37170005
vt 0.51639998 1.09549999
vt 0.48359999 1.37170005
vt 0.00999999 1.09549999
vt 0.00999999 1.37170005
vt 0.48359999 1.09549999
vt 0.48359999 1.99000001
vt 0.00999999 1.71379995
vt 0.00999999 1.99000001
vt 0.48359999 1.71379995
vt 0.00999999 1.40460002
vt 0.48359999 1.68089998
vt 0.48359999 1.40460002
vt 0.00999999 1.68089998
vt 0.51639998 1.68089998
vt 0.79269999 1.40460002
vt 0.51639998 1.40460002
vt 0.79269999 1.68089998
vt 0.99000001 1.71379995
vt 0.51639998 1.99000001
vt 0.99000001 1.99000001
vt 0.51639998 1.71379995
vt 0.79269999 1.09549999
vt 0.51639998 1.37170005
vt 0.79269999 1.37170005
vt 0.51639998 1.09549999
vt 0.48359999 1.37170005
vt 0.00999999 1.09549999
vt 0.00999999 1.37170005
vt 0.48359999 1.09549999
vt 0.48359999 1.71379995
vt 0.00999999 1.99000001
vt 0.48359999 1.99000001
vt 0.00999999 1.71379995
vt 0.48359999 1.68089998
vt 0.00999999 1.40460002
vt 0.00999999 1.68089998
vt 0.48359999 1.40460002
vt 0.79269999 1.68089998
vt 0.51639998 1.40460002
vt 0.51639998 1.68089998
vt 0.79269999 1.40460002
vt 0.99000001 1.99000001
vt 0.51639998 1.71379995
vt 0.51639998 1.99000001
vt 0.99000001 1.71379995
vt 0.79269999 1.37170005
vt 0.51639998 1.09549999
vt 0.51639998 1.37170005
vt 0.79269999 1.09549999
vt 0.00999999 1.09549999
vt 0.48359999 1.37170005
vt 0.48359999 1.09549999
vt 0.00999999 1.37170005
f 1/1 2/2 3/3
f 2/2 1/1 4/4
f 5/5 6/6 7/7
f 6/6 5/5 8/8
f 9/9 10/10 11/11
f 10/10 9/9 12/12
f 13/13 14/14 15/15
f 14/14 13/13 16/16
f 17/17 18/18 19/19
f 18/18 17/17 20/20
f 21/21 22/22 23/23
f 22/22 21/21 24/24
f 25/25 26/26 27/27
f 26/26 25/25 28/28
f 29/29 30/30 31/31
f 30/30 29/29 32/32
f 33/33 34/34 35/35
f 34/34 33/33 36/36
f 37/37 38/38 39/39
f 38/38 37/37 40/40
f 41/41 42/42 43/43
f 42/42 41/41 44/44
f 45/45 46/46 47/47
f 46/46 45/45 48/48
f 49/49 50/50 51/51
f 50/50 49/49 52/52
f 53/53 54/54 55/55
f 54/54 53/53 56/56
f 57/57 58/58 59/59
f 58/58 57/57 60/60
f 61/61 62/62 63/63
f 62/62 61/61 64/64
f 65/65 66/66 67/67
f 66/66 65/65 68/68
f 69/69 70/70 71/71
f 70/70 69/69 72/72
f 73/73 74/74 75/75
f 74/74 73/73 76/76
f 77/77 78/78 79/79
f 78/78 77/77 80/80
f 81/81 82/82 83/83
f 82/82 81/81 84/84
f 85/85 86/86 87/87
f 86/86 85/85 88/88
f 89/89 90/90 91/91
f 90/90 89/89 92/92
f 93/93 94/94 95/95
f 94/94 93/93 96/96
f 97/97 98/98 99/99
f 98/98 97/97 100/100
f 101/101 102/102 103/103
f 102/102 101/101 104/104
f 105/105 106/106 107/107
f 106/106 105/105 108/108
f 109/109 110/110 111/111
f 110/110 109/109 112/112
f 113/113 114/114 115/115
f 114/114 113/113 116/116
f 117/117 118/118 119/119
f 118/118 117/117 120/120
f 121/121 122/122 123/123
f 122/122 121/121 124/124
f 125/125 126/126 127/127
f 126/126 125/125 128/128
f 129/129 130/130 131/131
f 130/130 129/129 132/132
f 133/133 134/134 135/135
f 134/134 133/133 136/136
f 137/137 138/138 139/139
f 138/138 137/137 140/140
f 141/141 142/142 143/143
f 142/142 141/141 144/144
f 145/145 146/146 147/147
f 146/146 145/145 148/148
f 149/149 150/150 151/151
f 150/150 149/149 152/152
f 153/153 154/154 155/155
f 154/154 153/153 156/156
f 157/157 158/158 159/159
f 158/158 157/157 160/160
f 161/161 162/162 163/163
f 162/162 161/161 164/164
f 165/165 166/166 167/167
f 166/166 165/165 168/168
f 169/169 170/170 171/171
f 170/170 169/169 172/172
f 173/173 174/174 175/175
f 174/174 173/173 176/176
f 177/177 178/178 179/179
f 178/178 177/177 180/180
f 181/181 182/182 183/183
f 182/182 181/181 184/184
f 185/185 186/186 187/187
f 186/186 185/185 188/188
f 189/189 190/190 191/191
f 190/190 189/189 192/192
f 193/193 194/194 195/195
f 194/194 193/193 196/196
f 197/197 198/198 199/199
f 198/198 197/197 200/200
f 201/201 202/202 203/203
f 202/202 201/201 204/204
f 205/205 206/206 207/207
f 206/206 205/205 208/208
f 209/209 210/210 211/211
f 210/210 209/209 212/212
f 213/213 214/214 215/215
f 214/214 213/213 216/216
f 217/217 218/218 219/219
f 218/218 217/217 220/220
f 221/221 222/222 223/223
f 222/222 221/221 224/224
f 225/225 226/226 227/227
f 226/226 225/225 228/228
f 229/229 230/230 231/231
f 230/230 229/229 232/232
f 233/233 234/234 235/235
f 234/234 233/233 236/236
f 237/237 238/238 239/239
f 238/238 237/237 240/240
f 241/241 242/242 243/243
f 242/242 241/241 244/244
f 245/245 246/246 247/247
f 246/246 245/245 248/248
f 249/249 250/250 251/251
f 250/250 249/249 252/252
f 253/253 254/254 255/255
f 254/254 253/253 256/256
f 257/257 258/258 259/259
f 258/258 257/257 260/260
f 261/261 262/262 263/263
f 262/262 261/261 264/264
f 265/265 266/266 267/267
f 266/266 265/265 268/268
f 269/269 270/270 271/271
f 270/270 269/269 272/272
f 273/273 274/274 275/275
f 274/274 273/273 276/276
f 277/277 278/278 279/279
f 278/278 277/277 280/280
f 281/281 282/282 283/283
f 282/282 281/281 284/284
f 285/285 286/286 287/287
f 286/286 285/285 288/288
f 289/289 290/290 291/291
f 290/290 289/289 292/292
f 293/293 294/294 295/295
f 294/294 293/293 296/296
f 297/297 298/298 299/299
f 298/298 297/297 300/300
f 301/301 302/302 303/303
f 302/302 301/301 304/304
f 305/305 306/306 307/307
f 306/306 305/305 308/308
f 309/309 310/310 311/311
f 310/310 309/309 312/312
f 313/313 314/314 315/315
f 314/314 313/313 316/316
f 317/317 318/318 319/319
f 318/318 317/317 320/320
f 321/321 322/322 323/323
f 322/322 321/321 324/324
f 325/325 326/326 327/327
f 326/326 325/325 328/328
f 329/329 330/330 331/331
f 330/330 329/329 332/332
f 333/333 334/334 335/335
f 334/334 333/333 336/336
f 337/337 338/338 339/339
f 338/338 337/337 340/340
f 341/341 342/342 343/343
f 342/342 341/341 344/344
f 345/345 346/346 347/347
f 346/346 345/345 348/348
f 349/349 350/350 351/351
f 350/350 349/349 352/352
f 353/353 354/354 355/355
f 354/354 353/353 356/356
f 357/357 358/358 359/359
f 358/358 357/357 360/360
f 361/361 362/362 363/363
f 362/362 361/361 364/364
f 365/365 366/366 367/367
f 366/366 365/365 368/368
f 369/369 370/370 371/371
f 370/370 369/369 372/372
f 373/373 374/374 375/375
f 374/374 373/373 376/376
f 377/377 378/378 379/379
f 378/378 377/377 380/380
f 381/381 382/382 383/383
f 382/382 381/381 384/384
f 385/385 386/386 387/387
f 386/386 385/385 388/388
f 389/389 390/390 391/391
f 390/390 389/389 392/392
f 393/393 394/394 395/395
f 394/394 393/393 396/396
f 397/397 398/398 399/399
f 398/398 397/397 400/400
f 401/401 402/402 403/403
f 402/402 401/401 404/404
f 405/405 406/406 407/407
f 406/406 405/405 408/408
f 409/409 410/410 411/411
f 410/410 409/409 412/412
f 413/413 414/414 415/415
f 414/414 413/413 416/416
f 417/417 418/418 419/419
f 418/418 417/417 420/420
f 421/421 422/422 423/423
f 422/422 421/421 424/424
f 425/425 426/426 427/427
f 426/426 425/425 428/428
f 429/429 430/430 431/431
f 430/430 429/429 432/432
f 433/433 434/434 435/435
f 434/434 433/433 436/436
f 437/437 438/438 439/439
f 438/438 437/437 440/440
f 441/441 442/442 443/443
f 442/442 441/441 444/444
f 445/445 446/446 447/447
f 446/446 445/445 448/448
f 449/449 450/450 451/451
f 450/450 449/449 452/452
f 453/453 454/454 455/455
f 454/454 453/453 456/456
f 457/457 458/458 459/459
f 458/458 457/457 460/460
f 461/461 462/462 463/463
f 462/462 461/461 464/464
f 465/465 466/466 467/467
f 466/466 465/465 468/468
f 469/469 470/470 471/471
f 470/470 469/469 472/472
f 473/473 474/474 475/475
f 474/474 473/473 476/476
f 477/477 478/478 479/479
f 478/478 477/477 480/480
f 481/481 482/482 483/483
f 482/482 481/481 484/484
f 485/485 486/486 487/487
f 486/486 485/485 488/488
f 489/489 490/490 491/491
f 490/490 489/489 492/492
f 493/493 494/494 495/495
f 494/494 493/493 496/496
f 497/497 498/498 499/499
f 498/498 497/497 500/500
f 501/501 502/502 503/503
f 502/502 501/501 504/504
f 505/505 506/506 507/507
f 506/506 505/505 508/508
f 509/509 510/510 511/511
f 510/510 509/509 512/512
f 513/513 514/514 515/515
f 514/514 513/513 516/516
f 517/517 518/518 519/519
f 518/518 517/517 520/520
f 521/521 522/522 523/523
f 522/522 521/521 524/524
f 525/525 526/526 527/527
f 526/526 525/525 528/528
f 529/529 530/530 531/531
f 530/530 529/529 532/532
f 533/533 534/534 535/535
f 534/534 533/533 536/536
f 537/537 538/538 539/539
f 538/538 537/537 540/540
f 541/541 542/542 543/543
f 542/542 541/541 544/544
f 545/545 546/546 547/547
f 546/546 545/545 548/548
f 549/549 550/550 551/551
f 550/550 549/549 552/552
f 553/553 554/554 555/555
f 554/554 553/553 556/556
f 557/557 558/558 559/559
f 558/558 557/557 560/560
f 561/561 562/562 563/563
f 562/562 561/561 564/564
f 565/565 566/566 567/567
f 566/566 565/565 568/568
f 569/569 570/570 571/571
f 570/570 569/569 572/572
f 573/573 574/574 575/575
f 574/574 573/573 576/576

