# https://github.com/mikedh/trimesh
v 3.40130213 -2.55009154 -1.31980930
v 3.40130199 -2.58020812 -1.61203471
v 3.40131017 -2.58019800 -1.31981848
v 3.40129263 -2.55009489 -1.61203690
v 3.40128540 -2.55009213 -1.31982218
v 3.21055897 -2.58020818 -1.31981583
v 3.21056678 -2.55008352 -1.31981455
v 3.40131060 -2.58020901 -1.31981127
v 3.40130744 -2.58020383 -1.61204226
v 3.21055767 -2.55009376 -1.61203568
v 3.21055707 -2.58020590 -1.61203827
v 3.40130496 -2.55008917 -1.61203476
v 3.21055950 -2.58020535 -1.31980832
v 3.40131147 -2.58021306 -1.61202685
v 3.21057315 -2.58019913 -1.61203538
v 3.40129913 -2.58019451 -1.31980029
v 3.21057626 -2.58019549 -1.61203474
v 3.21055572 -2.55009067 -1.31980919
v 3.21055517 -2.58020177 -1.31981074
v 3.21056872 -2.55009872 -1.61204170
v 3.40129829 -2.81505865 -1.34098138
v 3.21056058 -2.60958027 -1.34099502
v 3.21057478 -2.81504164 -1.34098893
v 3.40128623 -2.60958216 -1.34098858
v 3.40130812 -2.60958674 -1.26569105
v 3.21055495 -2.60958704 -1.34098687
v 3.40130160 -2.60956885 -1.34099196
v 3.21055964 -2.60958510 -1.26571094
v 3.21055524 -2.84622830 -1.34098928
v 3.21057280 -2.60958767 -1.26569196
v 3.21056200 -2.84622186 -1.26570652
v 3.21055894 -2.81504895 -1.34098621
v 3.21056506 -2.60958652 -1.34100241
v 3.21055440 -2.81504723 -1.21550378
v 3.40130015 -2.81505799 -1.34098729
v 3.21055522 -2.81505553 -1.34098901
v 3.40128591 -2.81504802 -1.21551451
v 3.40130202 -2.60958304 -1.26570211
v 3.40130601 -2.84623778 -1.34098355
v 3.40130623 -2.84622684 -1.26569561
v 3.40130665 -2.81504490 -1.34099274
v 3.40129153 -2.60958344 -1.34099851
v 3.21055425 -2.84623084 -1.26570745
v 3.40129424 -2.84623973 -1.34099142
v 3.21056641 -2.84622358 -1.34099335
v 3.40130838 -2.84622303 -1.26569571
v 3.21054782 -2.81504227 -1.21550822
v 3.21056686 -2.84623007 -1.34099064
v 3.21056615 -2.84623506 -1.21552352
v 3.21056322 -2.81505615 -1.34098588
v 3.40129930 -2.84623204 -1.34099905
v 3.40129778 -2.81505074 -1.21552068
v 3.40130332 -2.84623333 -1.21551864
v 3.40128490 -2.81504716 -1.34099528
v 3.40129765 -2.84623422 -1.21549814
v 3.21056362 -2.81505007 -1.21552069
v 3.21057521 -2.84622634 -1.21550326
v 3.40130160 -2.81504440 -1.21550801
v 3.40130546 -2.84623364 -1.21552060
v 3.21057099 -2.84624582 -1.34099489
v 3.40129987 -2.84623972 -1.34098907
v 3.21056260 -2.84623559 -1.21550699
v 3.40129802 -2.33927000 -1.31981127
v 3.40129803 -2.36940689 -1.61204607
v 3.40130869 -2.36939396 -1.31981560
v 3.40131249 -2.33928824 -1.61204114
v 3.40129804 -2.33927548 -1.31981820
v 3.21055978 -2.36940457 -1.31980869
v 3.21056947 -2.33928273 -1.31981256
v 3.40129244 -2.36939684 -1.31980426
v 3.40130220 -2.36937784 -1.61204252
v 3.21056793 -2.33928081 -1.61203328
v 3.21056392 -2.36939745 -1.61204307
v 3.40132220 -2.33928001 -1.61205091
v 3.21055954 -2.36938899 -1.31981708
v 3.40131056 -2.36938677 -1.61203818
v 3.21056074 -2.36940048 -1.61204192
v 3.40129121 -2.36938539 -1.31980281
v 3.21055539 -2.36940168 -1.61204922
v 3.21055738 -2.33930069 -1.31982147
v 3.21057282 -2.36939598 -1.31980784
v 3.21056063 -2.33926746 -1.61203578
v 3.40631819 -2.64041928 -1.61705878
v 3.40631246 -2.33927810 -1.26570375
v 3.40632808 -2.64044391 -1.26569799
v 3.40632662 -2.33928404 -1.61705537
v 3.40631513 -2.64042161 -1.26570829
v 3.20554622 -2.64044398 -1.61705892
v 3.40632076 -2.64043146 -1.61706073
v 3.20554805 -2.64044729 -1.26570914
v 3.40633962 -2.33927237 -1.61706182
v 3.20554019 -2.64044337 -1.61705671
v 3.20554955 -2.33928456 -1.61706527
v 3.40633051 -2.64043362 -1.61705912
v 3.20554781 -2.33928310 -1.61707653
v 3.21056475 -2.33928679 -1.61204399
v 3.40631643 -2.33927448 -1.61706448
v 3.20553952 -2.33927511 -1.26569834
v 3.21055742 -2.33927564 -1.31981566
v 3.40130333 -2.33928809 -1.31980798
v 3.40130948 -2.33927513 -1.61203333
v 3.40629505 -2.33927770 -1.26570366
v 3.20554831 -2.64044193 -1.26570311
v 3.21056678 -2.63542233 -1.26570665
v 3.20555771 -2.33928703 -1.26569645
v 3.40632201 -2.64044311 -1.26570547
v 3.40129499 -2.63541592 -1.26570111
v 3.40129747 -2.39877919 -1.26570143
v 3.21057050 -2.39877244 -1.26570063
v 3.40631823 -2.33927902 -1.26570548
v 3.20555132 -2.33928979 -1.26569909
v 3.20554775 -2.64043426 -1.61705888
v 3.20555150 -2.64044494 -1.26569537
v 3.20553769 -2.33928658 -1.61705488
v 3.40162864 -2.36701775 -1.61705818
v 3.40160892 -2.33690682 -1.43636070
v 3.40163019 -2.36701541 -1.43637101
v 3.40163249 -2.33690821 -1.61706249
v 3.40162872 -2.36701999 -1.43636308
v 3.21088284 -2.36701389 -1.61704970
v 3.40160926 -2.36700601 -1.61705002
v 3.21087876 -2.36702524 -1.43636718
v 3.40161949 -2.33690994 -1.61706171
v 3.21088689 -2.36701716 -1.61705918
v 3.21088636 -2.33689618 -1.61706396
v 3.40161453 -2.36701322 -1.61705158
v 3.21088290 -2.33689758 -1.43636800
v 3.40160855 -2.33691143 -1.61705565
v 3.21087591 -2.33690884 -1.61706314
v 3.40161442 -2.33691238 -1.43635806
v 3.40162408 -2.36702293 -1.43636198
v 3.21087738 -2.33690189 -1.43635996
v 3.21089223 -2.36702713 -1.43635809
v 3.40162168 -2.33690798 -1.43635659
v 3.21087153 -2.33689105 -1.43636973
v 3.21088763 -2.36702731 -1.61704863
v 3.21087872 -2.36701857 -1.43636020
v 3.21088886 -2.33690771 -1.61707674
v 3.40129608 -2.60423916 -1.34099626
v 3.21056922 -2.39876474 -1.34099418
v 3.21055379 -2.60423097 -1.34098586
v 3.40129923 -2.39875727 -1.34099556
v 3.40129351 -2.39877273 -1.26569613
v 3.21055756 -2.39875835 -1.34099930
v 3.40130779 -2.39876795 -1.34099423
v 3.21057134 -2.39878191 -1.26569422
v 3.21056353 -2.63542424 -1.34098814
v 3.21057120 -2.39876641 -1.26568984
v 3.21057134 -2.63541177 -1.26570717
v 3.21056469 -2.60423657 -1.34099337
v 3.21056602 -2.39876876 -1.34098741
v 3.21056327 -2.60424281 -1.21551620
v 3.40129518 -2.60423241 -1.34099383
v 3.21056934 -2.60424927 -1.34100648
v 3.40129411 -2.60423259 -1.21550325
v 3.40130354 -2.39877714 -1.26570438
v 3.40129924 -2.63542289 -1.34101036
v 3.40129541 -2.63542183 -1.26569313
v 3.40130237 -2.60423085 -1.34099594
v 3.40129954 -2.39879829 -1.34099001
v 3.21056770 -2.63540849 -1.26570681
v 3.40130191 -2.63542535 -1.34100128
v 3.21055910 -2.63542289 -1.34098400
v 3.40130128 -2.63542593 -1.26570252
v 3.21056545 -2.60424503 -1.21550273
v 3.21055107 -2.63542199 -1.34098871
v 3.21055483 -2.63541807 -1.21550171
v 3.21056706 -2.60425196 -1.34099822
v 3.40130968 -2.63541850 -1.34099332
v 3.40130428 -2.60423549 -1.21551538
v 3.40129929 -2.63541956 -1.21551425
v 3.40130036 -2.60423156 -1.34099986
v 3.40131442 -2.63540770 -1.21552224
v 3.21056300 -2.60423808 -1.21551573
v 3.21055891 -2.63542215 -1.21550549
v 3.40129778 -2.60422795 -1.21550856
v 3.40130057 -2.63541064 -1.21550626
v 3.21056649 -2.63542279 -1.34098087
v 3.40130681 -2.63542192 -1.34100402
v 3.21056651 -2.63542834 -1.21552226
v 3.40161675 -2.57783255 -1.61704777
v 3.40162058 -2.54771117 -1.43636894
v 3.40161850 -2.57783362 -1.43635468
v 3.40161944 -2.54771119 -1.61705996
v 3.40162110 -2.57783164 -1.43636910
v 3.21088255 -2.57783666 -1.61706952
v 3.40162520 -2.57783694 -1.61706234
v 3.21087877 -2.57783353 -1.43635027
v 3.40161752 -2.54771345 -1.61704714
v 3.21088499 -2.57782718 -1.61705978
v 3.21088661 -2.54771707 -1.61704919
v 3.40161180 -2.57783979 -1.61704786
v 3.21088001 -2.54771913 -1.43636004
v 3.40161395 -2.54770758 -1.61706505
v 3.21088032 -2.54771431 -1.61705724
v 3.40161318 -2.54772260 -1.43635766
v 3.40161162 -2.57783006 -1.43637097
v 3.21087756 -2.54771643 -1.43636912
v 3.21088580 -2.57783460 -1.43636764
v 3.40160828 -2.54772736 -1.43636022
v 3.21087345 -2.54772599 -1.43636215
v 3.21089690 -2.57783258 -1.61705131
v 3.21088280 -2.57782913 -1.43636974
v 3.21087841 -2.54771489 -1.61705664
v 3.40631949 -2.85125607 -1.61705832
v 3.40631552 -2.55010717 -1.26571164
v 3.40632405 -2.85124090 -1.26569118
v 3.40632146 -2.55008454 -1.61705032
v 3.40631607 -2.85126312 -1.26570335
v 3.20553729 -2.85125371 -1.61705241
v 3.40631111 -2.85125131 -1.61704809
v 3.20555178 -2.85124796 -1.26569737
v 3.40633263 -2.55008960 -1.61704813
v 3.20554888 -2.85125525 -1.61705441
v 3.20554518 -2.55009455 -1.61706067
v 3.40630513 -2.85125081 -1.61706519
v 3.20554858 -2.55008074 -1.61706008
v 3.21056026 -2.55008133 -1.61203345
v 3.40632747 -2.55009306 -1.61705142
v 3.20554463 -2.55009525 -1.26569942
v 3.21055988 -2.55008540 -1.31979734
v 3.40128976 -2.55009577 -1.31980602
v 3.40130028 -2.55008271 -1.61204408
v 3.40632306 -2.55009167 -1.26570253
v 3.20555158 -2.85125986 -1.26571090
v 3.21057352 -2.84623060 -1.26570284
v 3.20554902 -2.55008820 -1.26571138
v 3.40631398 -2.85124262 -1.26570253
v 3.40130707 -2.84623674 -1.26569416
v 3.40130363 -2.60957923 -1.26569974
v 3.21055852 -2.60959526 -1.26571083
v 3.40633193 -2.55008176 -1.26570586
v 3.20554726 -2.55008356 -1.26570464
v 3.20554045 -2.85124289 -1.61705330
v 3.20553214 -2.85125366 -1.26570258
v 3.20555260 -2.55008960 -1.61706086
vt 0.00050000 0.25999999
vt 0.10040000 0.98699999
vt 0.10040000 0.25999999
vt 0.00050000 0.98699999
vt 0.97450000 0.99949998
vt 0.02549999 0.89960003
vt 0.02549999 0.99949998
vt 0.97450000 0.89960003
vt 0.02549999 0.89960003
vt 0.97450000 0.99949998
vt 0.97450000 0.89960003
vt 0.02549999 0.99949998
vt 0.97450000 0.25999999
vt 0.02549999 0.98699999
vt 0.97450000 0.98699999
vt 0.02549999 0.25999999
vt 0.89960003 0.98699999
vt 0.99949998 0.25999999
vt 0.89960003 0.25999999
vt 0.99949998 0.98699999
vt 0.02549999 0.12059999
vt 0.97450000 0.80220002
vt 0.97450000 0.12059999
vt 0.02549999 0.80220002
vt 0.97450000 0.12540001
vt 0.02549999 0.31269997
vt 0.97450000 0.31269997
vt 0.02549999 0.12540001
vt 0.01716172 0.31269997
vt 0.80220002 0.12540001
vt 0.01716172 0.12540001
vt 0.12060000 0.31269997
vt 0.80220002 0.31269997
vt 0.97450000 0.00050002
vt 0.02549999 0.31269997
vt 0.97450000 0.31269997
vt 0.02549999 0.00050002
vt 0.19780000 0.12540001
vt 0.98290002 0.31269997
vt 0.98290002 0.12540001
vt 0.87945360 0.31269997
vt 0.19780000 0.31269997
vt 0.97450000 0.12540001
vt 0.02549999 0.31269997
vt 0.97450000 0.31269997
vt 0.02549999 0.12540001
vt 0.87940001 0.00050002
vt 0.98290002 0.31269997
vt 0.98290002 0.00050002
vt 0.87940001 0.31269997
vt 0.01709997 0.31269997
vt 0.12060000 0.00050002
vt 0.01709997 0.00050002
vt 0.12060000 0.31269997
vt 0.02549999 0.01709998
vt 0.97450000 0.12059999
vt 0.97450000 0.01709998
vt 0.02549999 0.12059999
vt 0.97450000 0.00050002
vt 0.02549999 0.31269997
vt 0.97450000 0.31269997
vt 0.02549999 0.00050002
vt 0.00050000 0.25999999
vt 0.10040000 0.98699999
vt 0.10040000 0.25999999
vt 0.00050000 0.98699999
vt 0.97450000 0.99949998
vt 0.02549999 0.89960003
vt 0.02549999 0.99949998
vt 0.97450000 0.89960003
vt 0.02549999 0.89960003
vt 0.97450000 0.99949998
vt 0.97450000 0.89960003
vt 0.02549999 0.99949998
vt 0.97450000 0.25999999
vt 0.02549999 0.98699999
vt 0.97450000 0.98699999
vt 0.02549999 0.25999999
vt 0.89960003 0.98699999
vt 0.99949998 0.25999999
vt 0.89960003 0.25999999
vt 0.99949998 0.98699999
vt 0.00050000 0.99949998
vt 0.99949491 0.12536061
vt 0.00050000 0.12536061
vt 0.99949491 0.99949998
vt 0.99949998 0.12536061
vt 0.00050000 0.99949998
vt 0.99949998 0.99949998
vt 0.00050000 0.12536061
vt 0.99949998 0.99949491
vt 0.00050000 0.00050002
vt 0.00050000 0.99949491
vt 0.99949998 0.00050002
vt 0.99949902 0.99949998
vt 0.97449911 0.98702955
vt -0.00050980 1.00019145
vt 0.99949902 0.12536138
vt 0.97449911 0.26000071
vt 0.02449213 0.26065761
vt 0.02449213 0.98768646
vt -0.00050980 0.12605292
vt 0.99949998 0.00047702
vt 0.97452521 0.01711690
vt 0.99949998 0.99949998
vt 0.00050000 0.00047702
vt 0.02547671 0.01711690
vt 0.02547671 0.80214828
vt 0.97452521 0.80214828
vt 0.00050000 0.99949998
vt 0.00050511 0.12536061
vt 0.99949998 0.99949998
vt 0.99949998 0.12536061
vt 0.00050511 0.99949998
vt 0.00050000 0.99949944
vt 0.99961758 0.00050002
vt 0.00050000 0.00050002
vt 0.99961758 0.99949944
vt 0.99949998 0.00050002
vt 0.00050000 0.99949944
vt 0.99949998 0.99949944
vt 0.00050000 0.00050002
vt 0.99949998 0.99949998
vt 0.00050000 0.00061762
vt 0.00050000 0.99949998
vt 0.99949998 0.00061762
vt 0.99949998 0.00050002
vt 0.00050000 0.99949944
vt 0.99949998 0.99949944
vt 0.00050000 0.00050002
vt 0.00050000 0.00050002
vt 0.99949998 0.99961758
vt 0.99949998 0.00050002
vt 0.00050000 0.99961758
vt 0.00050000 0.00050002
vt 0.99938250 0.99949944
vt 0.99938250 0.00050002
vt 0.00050000 0.99949944
vt 0.02549999 0.12059999
vt 0.97450000 0.80220002
vt 0.97450000 0.12059999
vt 0.02549999 0.80220002
vt 0.97450000 0.12540001
vt 0.02549999 0.31269997
vt 0.97450000 0.31269997
vt 0.02549999 0.12540001
vt 0.01709997 0.31269997
vt 0.80220002 0.12540001
vt 0.01709997 0.12540001
vt 0.12054390 0.31269997
vt 0.80220002 0.31269997
vt 0.97450000 0.00050002
vt 0.02549999 0.31269997
vt 0.97450000 0.31269997
vt 0.02549999 0.00050002
vt 0.19786450 0.12540001
vt 0.98283547 0.31269997
vt 0.98290002 0.12540001
vt 0.87940001 0.31269997
vt 0.19780000 0.31269997
vt 0.97450000 0.12540001
vt 0.02549999 0.31269997
vt 0.97450000 0.31269997
vt 0.02549999 0.12540001
vt 0.87940001 0.00050002
vt 0.98290002 0.31269997
vt 0.98290002 0.00050002
vt 0.87940001 0.31269997
vt 0.01709997 0.31269997
vt 0.12060000 0.00050002
vt 0.01709997 0.00050002
vt 0.12060000 0.31269997
vt 0.02549999 0.01709998
vt 0.97450000 0.12059999
vt 0.97450000 0.01709998
vt 0.02549999 0.12059999
vt 0.97450000 0.00050002
vt 0.02549999 0.31269997
vt 0.97450000 0.31269997
vt 0.02549999 0.00050002
vt 0.00050000 0.99949944
vt 0.99949998 0.00050002
vt 0.00050000 0.00050002
vt 0.99949998 0.99949944
vt 0.99949998 0.00050002
vt 0.00050000 0.99949944
vt 0.99949998 0.99949944
vt 0.00050000 0.00050002
vt 0.99949998 0.99949998
vt 0.00050000 0.00050002
vt 0.00050000 0.99949944
vt 0.99949998 0.00050002
vt 0.99949998 0.00050002
vt 0.00050000 0.99949944
vt 0.99949998 0.99949944
vt 0.00050000 0.00050002
vt 0.00050000 0.00050002
vt 0.99949998 0.99949998
vt 0.99949998 0.00050002
vt 0.00050000 0.99949998
vt 0.00050000 0.00050002
vt 0.99949998 0.99949944
vt 0.99949998 0.00050002
vt 0.00050000 0.99949944
vt 0.00050000 0.99949998
vt 0.99949229 0.12536061
vt 0.00050000 0.12536061
vt 0.99949229 0.99949998
vt 0.99949998 0.12536061
vt 0.00050000 0.99949998
vt 0.99949998 0.99949998
vt 0.00050000 0.12536061
vt 0.99949998 0.99949229
vt 0.00050000 0.00050002
vt 0.00050000 0.99949229
vt 0.99949998 0.00050002
vt 0.99949902 0.99949998
vt 0.97449911 0.98702955
vt -0.00050980 1.00019145
vt 0.99949902 0.12536138
vt 0.97449911 0.26000071
vt 0.02449213 0.26065761
vt 0.02449213 0.98768646
vt -0.00050980 0.12605292
vt 0.99949998 0.00046521
vt 0.97452521 0.01711690
vt 0.99949998 0.99949998
vt 0.00050000 0.00046521
vt 0.02547671 0.01711690
vt 0.02547671 0.80214959
vt 0.97452521 0.80214959
vt 0.00050000 0.99949998
vt 0.00050770 0.12536061
vt 0.99949998 0.99949998
vt 0.99949998 0.12536061
vt 0.00050770 0.99949998
f 1/1 2/2 3/3
f 2/2 1/1 4/4
f 5/5 6/6 7/7
f 6/6 5/5 8/8
f 9/9 10/10 11/11
f 10/10 9/9 12/12
f 13/13 14/14 15/15
f 14/14 13/13 16/16
f 17/17 18/18 19/19
f 18/18 17/17 20/20
f 21/21 22/22 23/23
f 22/22 21/21 24/24
f 25/25 26/26 27/27
f 26/26 25/25 28/28
f 29/29 30/30 31/31
f 30/30 29/29 32/32
f 30/30 32/32 33/33
f 34/34 35/35 36/36
f 35/35 34/34 37/37
f 38/38 39/39 40/40
f 39/39 38/38 41/41
f 41/41 38/38 42/42
f 43/43 44/44 45/45
f 44/44 43/43 46/46
f 47/47 48/48 49/49
f 48/48 47/47 50/50
f 51/51 52/52 53/53
f 52/52 51/51 54/54
f 55/55 56/56 57/57
f 56/56 55/55 58/58
f 59/59 60/60 61/61
f 60/60 59/59 62/62
f 63/63 64/64 65/65
f 64/64 63/63 66/66
f 67/67 68/68 69/69
f 68/68 67/67 70/70
f 71/71 72/72 73/73
f 72/72 71/71 74/74
f 75/75 76/76 77/77
f 76/76 75/75 78/78
f 79/79 80/80 81/81
f 80/80 79/79 82/82
f 83/83 84/84 85/85
f 84/84 83/83 86/86
f 87/87 88/88 89/89
f 88/88 87/87 90/90
f 91/91 92/92 93/93
f 92/92 91/91 94/94
f 95/95 96/96 97/97
f 96/96 95/95 98/98
f 96/96 98/98 99/99
f 99/99 98/98 100/100
f 97/97 101/101 102/102
f 101/101 97/97 96/96
f 102/102 101/101 100/100
f 102/102 100/100 98/98
f 103/103 104/104 105/105
f 104/104 103/103 106/106
f 104/104 106/106 107/107
f 107/107 106/106 108/108
f 105/105 109/109 110/110
f 109/109 105/105 104/104
f 110/110 109/109 108/108
f 110/110 108/108 106/106
f 111/111 112/112 113/113
f 112/112 111/111 114/114
f 115/115 116/116 117/117
f 116/116 115/115 118/118
f 119/119 120/120 121/121
f 120/120 119/119 122/122
f 123/123 124/124 125/125
f 124/124 123/123 126/126
f 127/127 128/128 129/129
f 128/128 127/127 130/130
f 131/131 132/132 133/133
f 132/132 131/131 134/134
f 135/135 136/136 137/137
f 136/136 135/135 138/138
f 139/139 140/140 141/141
f 140/140 139/139 142/142
f 143/143 144/144 145/145
f 144/144 143/143 146/146
f 147/147 148/148 149/149
f 148/148 147/147 150/150
f 148/148 150/150 151/151
f 152/152 153/153 154/154
f 153/153 152/152 155/155
f 156/156 157/157 158/158
f 157/157 156/156 159/159
f 159/159 156/156 160/160
f 161/161 162/162 163/163
f 162/162 161/161 164/164
f 165/165 166/166 167/167
f 166/166 165/165 168/168
f 169/169 170/170 171/171
f 170/170 169/169 172/172
f 173/173 174/174 175/175
f 174/174 173/173 176/176
f 177/177 178/178 179/179
f 178/178 177/177 180/180
f 181/181 182/182 183/183
f 182/182 181/181 184/184
f 185/185 186/186 187/187
f 186/186 185/185 188/188
f 189/189 190/190 191/191
f 190/190 189/189 192/192
f 193/193 194/194 195/195
f 194/194 193/193 196/196
f 197/197 198/198 199/199
f 198/198 197/197 200/200
f 201/201 202/202 203/203
f 202/202 201/201 204/204
f 205/205 206/206 207/207
f 206/206 205/205 208/208
f 209/209 210/210 211/211
f 210/210 209/209 212/212
f 213/213 214/214 215/215
f 214/214 213/213 216/216
f 217/217 218/218 219/219
f 218/218 217/217 220/220
f 218/218 220/220 221/221
f 221/221 220/220 222/222
f 219/219 223/223 224/224
f 223/223 219/219 218/218
f 224/224 223/223 222/222
f 224/224 222/222 220/220
f 225/225 226/226 227/227
f 226/226 225/225 228/228
f 226/226 228/228 229/229
f 229/229 228/228 230/230
f 227/227 231/231 232/232
f 231/231 227/227 226/226
f 232/232 231/231 230/230
f 232/232 230/230 228/228
f 233/233 234/234 235/235
f 234/234 233/233 236/236

