# https://github.com/mikedh/trimesh
v 3.44527764 0.35319929 -1.30759719
v 3.45078516 0.35777633 -1.30998926
v 3.45080200 0.35665934 -1.32583841
v 3.45076593 0.36575930 -1.29599885
v 3.45075105 0.35778078 -1.31001182
v 3.45830759 0.35865409 -1.32583297
v 3.45078947 0.35666068 -1.32583034
v 3.44529506 0.35112489 -1.32582360
v 3.45079637 0.36576937 -1.29600987
v 3.45830493 0.36718680 -1.29742273
v 3.45076952 0.35778092 -1.30999657
v 3.44528347 0.36186947 -1.29209834
v 3.45830869 0.35866002 -1.61704506
v 3.45080466 0.35662837 -1.61703481
v 3.45833676 0.35947981 -1.31086625
v 3.44527147 0.35115469 -1.61702855
v 3.45080898 0.35666450 -1.61705105
v 3.44525892 0.35320108 -1.30759697
v 3.44525779 0.35113977 -1.32582250
v 3.44326905 0.34693650 -1.30436504
v 3.45077756 0.37793272 -1.28560926
v 3.45831091 0.35947346 -1.31087359
v 3.44529811 0.36188499 -1.29209444
v 3.44524495 0.37510735 -1.28155960
v 3.45833196 0.35865317 -1.61703049
v 3.46582375 0.35663676 -1.32581541
v 3.46584297 0.35667415 -1.61705342
v 3.45830898 0.35865643 -1.32584385
v 3.46582435 0.35779270 -1.30998618
v 3.45833604 0.35945825 -1.31084625
v 3.44325524 0.34362485 -1.61706214
v 3.44324895 0.34360626 -1.32581405
v 3.44527814 0.35112600 -1.61707489
v 3.45076402 0.37795620 -1.28561979
v 3.45831556 0.37896556 -1.28709390
v 3.45829990 0.36718321 -1.29741711
v 3.46581070 0.35778928 -1.31000250
v 3.45831941 0.35946778 -1.31086712
v 3.44326902 0.35653301 -1.28675822
v 3.44528607 0.37511846 -1.28155284
v 3.44327033 0.37118147 -1.27595038
v 3.47133495 0.35113233 -1.61706687
v 3.46582231 0.35664967 -1.32583651
v 3.47134052 0.35111958 -1.32582477
v 3.46584732 0.35666461 -1.61705626
v 3.44327390 0.34362244 -1.32581239
v 3.44524268 0.33609250 -1.61705130
v 3.44528183 0.33608035 -1.32582316
v 3.44326376 0.34359771 -1.61708276
v 3.44325775 0.34694184 -1.30434059
v 3.44527183 0.34072593 -1.30112519
v 3.45077652 0.37794898 -1.28565453
v 3.44528010 0.37510513 -1.28158584
v 3.45075003 0.39059024 -1.28373943
v 3.45831043 0.37897732 -1.28708065
v 3.45078299 0.37795036 -1.28565455
v 3.45834100 0.39059592 -1.28573795
v 3.46584295 0.37796602 -1.28562847
v 3.45832648 0.37897850 -1.28712684
v 3.46585673 0.36574089 -1.29600280
v 3.44325641 0.35652902 -1.28676956
v 3.44527307 0.39057691 -1.27821694
v 3.47134829 0.35322064 -1.30760125
v 3.46583563 0.35775656 -1.31001269
v 3.47338684 0.34360204 -1.61706004
v 3.47137805 0.35111622 -1.32583675
v 3.47336495 0.34361098 -1.32583785
v 3.47134637 0.35111169 -1.61704583
v 3.44528720 0.33606845 -1.32582624
v 3.45076555 0.33055673 -1.61703672
v 3.45078560 0.33059579 -1.32583958
v 3.44528402 0.33607250 -1.61704812
v 3.45078359 0.39057516 -1.28374744
v 3.44531892 0.39058195 -1.27825255
v 3.46583318 0.37796267 -1.28564070
v 3.45833697 0.37899471 -1.28710829
v 3.45831124 0.39056893 -1.28576275
v 3.46582161 0.36578496 -1.29597710
v 3.44525825 0.35120423 -1.28148019
v 3.44324575 0.37112602 -1.27596748
v 3.44529408 0.36719627 -1.27026859
v 3.44325241 0.39060775 -1.27069237
v 3.47134962 0.35323697 -1.30761074
v 3.47335444 0.34695596 -1.30435630
v 3.47136995 0.33606231 -1.61704477
v 3.47338355 0.34359338 -1.32582624
v 3.47134332 0.33610806 -1.32583842
v 3.47336522 0.34358779 -1.61706092
v 3.45831779 0.32855833 -1.32583710
v 3.45078108 0.33054347 -1.61706768
v 3.45835656 0.32856225 -1.61706703
v 3.45076492 0.33054966 -1.32582884
v 3.45078418 0.33615918 -1.29876003
v 3.44529585 0.34073109 -1.30111852
v 3.45831477 1.59160710 -1.28579399
v 3.45078532 1.59159950 -1.28374910
v 3.45077470 1.59162481 -1.28375146
v 3.44525574 1.59162351 -1.27821350
v 3.46582882 0.39059093 -1.28373935
v 3.46584651 0.37793545 -1.28562199
v 3.47137187 0.37511556 -1.28156136
v 3.47130203 0.36187011 -1.29210369
v 3.44527381 0.35121197 -1.28145459
v 3.44326506 0.39057934 -1.27070168
v 3.44327654 1.59159902 -1.27068048
v 3.44527836 1.59160324 -1.27822816
v 3.47134207 0.36187593 -1.29209844
v 3.47336377 0.34693765 -1.30435152
v 3.47136842 0.34072316 -1.30110739
v 3.46583701 0.33056430 -1.61706015
v 3.47135911 0.33605394 -1.32581949
v 3.46583906 0.33056839 -1.32583331
v 3.47135948 0.33606019 -1.61703937
v 3.46581837 0.33054877 -1.61705276
v 3.45833841 0.32855146 -1.32583201
v 3.45829787 0.32854495 -1.61705634
v 3.46586602 0.33057209 -1.32585000
v 3.45834632 0.33449870 -1.29788701
v 3.45080439 0.33616893 -1.29874713
v 3.45078676 1.60430347 -1.28561951
v 3.46582298 1.59164259 -1.28372174
v 3.45831255 1.59160304 -1.28576638
v 3.44527761 1.60712904 -1.28157970
v 3.47136637 0.37511174 -1.28157473
v 3.46585259 0.37797234 -1.28564904
v 3.46583382 0.39059627 -1.28372516
v 3.45078687 0.34733947 -1.27757263
v 3.44525512 0.36718895 -1.27027887
v 3.44526470 0.35121398 -1.28146905
v 3.45077498 0.36426183 -1.26610223
v 3.44528704 0.39057629 -1.26316886
v 3.44325112 1.61107870 -1.27595004
v 3.44529826 1.59159915 -1.26316063
v 3.44326551 1.59160947 -1.27068675
v 3.47335139 0.35657340 -1.28679700
v 3.47338449 0.35652792 -1.28676201
v 3.46583688 0.33617185 -1.29874122
v 3.47137043 0.34072024 -1.30115491
v 3.45830720 0.33450682 -1.29788084
v 3.45079450 0.34733740 -1.27755943
v 3.45076278 1.60431104 -1.28561825
v 3.45831367 1.60328971 -1.28711082
v 3.46582632 1.60428942 -1.28561832
v 3.47134182 1.59164192 -1.27823667
v 3.46585568 1.59162218 -1.28373719
v 3.47137015 0.39056198 -1.27820518
v 3.44527498 1.60713052 -1.28155845
v 3.47136986 0.37511743 -1.28154113
v 3.47338675 0.37118764 -1.27595902
v 3.45078519 0.34733105 -1.27755760
v 3.44528011 0.39058902 -1.26315410
v 3.44527445 1.61503484 -1.27029199
v 3.44324676 1.61108770 -1.27595248
v 3.45079474 0.39056483 -1.25768214
v 3.44526115 1.59163063 -1.26315073
v 3.45078835 1.59160327 -1.25765662
v 3.47135080 0.35121597 -1.28149054
v 3.47134294 0.35121815 -1.28143408
v 3.46584454 0.33618929 -1.29874750
v 3.45831432 0.34584320 -1.27612568
v 3.45079137 1.61650150 -1.29600611
v 3.45078501 1.60428171 -1.28564996
v 3.44526587 1.60713329 -1.28154994
v 3.45831790 1.60324902 -1.28710393
v 3.45078675 1.60428212 -1.28561740
v 3.45829136 1.61504850 -1.29741633
v 3.45829908 1.60326519 -1.28708777
v 3.47136135 1.60711441 -1.28157919
v 3.46585958 1.60429580 -1.28563359
v 3.47136117 0.39059316 -1.27823418
v 3.47336751 1.59161654 -1.27070258
v 3.47336971 0.39060126 -1.27070876
v 3.47138203 1.59164091 -1.27824814
v 3.44527390 1.62037918 -1.29211386
v 3.45830747 0.36320170 -1.26456427
v 3.45077651 0.36430157 -1.26610332
v 3.45078225 0.34734349 -1.27754856
v 3.44326446 1.62569253 -1.28675247
v 3.45832927 0.39058018 -1.25565940
v 3.45078893 1.59159848 -1.25767887
v 3.45077977 0.39058699 -1.25763693
v 3.45832184 1.59162585 -1.25565424
v 3.45078338 1.61796668 -1.26609505
v 3.44527751 1.61505104 -1.27028744
v 3.47337661 0.37117545 -1.27596899
v 3.47135744 0.36719662 -1.27030732
v 3.46585574 0.34731807 -1.27756932
v 3.46583699 0.34732509 -1.27753619
v 3.45831554 0.34590457 -1.27611290
v 3.45832536 0.34591294 -1.27613887
v 3.45079452 1.61647593 -1.29598420
v 3.44526179 1.62036343 -1.29208537
v 3.46583953 1.60428657 -1.28563236
v 3.45830819 1.60327881 -1.28712346
v 3.45831576 1.61505637 -1.29742714
v 3.46583102 1.61646456 -1.29599331
v 3.47134051 1.60714721 -1.28159036
v 3.46583449 1.60429212 -1.28565103
v 3.47338073 1.61107098 -1.27596583
v 3.47133366 1.60711616 -1.28156825
v 3.47335534 0.39056388 -1.27069842
v 3.47138695 1.59161843 -1.26315501
v 3.47135797 0.39059403 -1.26318480
v 3.47336554 1.59161820 -1.27069519
v 3.44325658 1.62568783 -1.28678156
v 3.44526501 1.63098994 -1.28147190
v 3.45832455 1.61905758 -1.26454903
v 3.46584364 0.39059558 -1.25764219
v 3.45830815 1.59159070 -1.25563660
v 3.45829313 0.39057855 -1.25562873
v 3.46582235 1.59161499 -1.25763737
v 3.45078877 1.61797227 -1.26609443
v 3.44530021 1.63102607 -1.28143788
v 3.47135408 0.36719345 -1.27027617
v 3.46583378 0.36427178 -1.26611592
v 3.47132276 0.35122230 -1.28147311
v 3.46584078 0.34734350 -1.27756467
v 3.46583468 0.34734230 -1.27754969
v 3.45833158 0.36320004 -1.26456414
v 3.45830824 0.34588845 -1.27612381
v 3.45077529 1.62446778 -1.30996061
v 3.44525221 1.62903310 -1.30759023
v 3.46584025 1.61649304 -1.29601346
v 3.47135963 1.62037226 -1.29210121
v 3.47135963 1.62035725 -1.29211825
v 3.47137462 1.61504387 -1.27027887
v 3.47337096 1.61107625 -1.27596752
v 3.47134096 0.39060135 -1.26316383
v 3.46585422 1.59160603 -1.25763546
v 3.46584713 0.39058979 -1.25764723
v 3.47134379 1.59158834 -1.26318081
v 3.44328217 1.63530596 -1.30436040
v 3.44527164 1.64153059 -1.30111540
v 3.45829963 1.61905349 -1.26456779
v 3.45074837 1.63491321 -1.27755511
v 3.45079045 1.63491974 -1.27756605
v 3.46584066 0.36428396 -1.26611115
v 3.45077847 1.62447459 -1.31000747
v 3.45831297 1.62274744 -1.31086214
v 3.44528751 1.62905135 -1.30759307
v 3.46584847 1.62446182 -1.30998753
v 3.47135123 1.62906034 -1.30761085
v 3.47335105 1.62570910 -1.28675196
v 3.47335810 1.62569575 -1.28678756
v 3.47134964 1.61504040 -1.27029779
v 3.46583839 1.61794436 -1.26611514
v 3.44324263 1.63527284 -1.30437967
v 3.45080081 1.64607839 -1.29876866
v 3.44526750 1.64150663 -1.30112273
v 3.44525557 1.63103453 -1.28146069
v 3.46584886 1.61797233 -1.26608785
v 3.45829239 1.63637122 -1.27611414
v 3.45079174 1.63495106 -1.27755425
v 3.45079522 1.62558839 -1.32581246
v 3.45078605 1.62445068 -1.30996447
v 3.45831359 1.62357915 -1.32583115
v 3.45830726 1.62278341 -1.31085937
v 3.45832285 1.62274282 -1.31085558
v 3.44527096 1.63109346 -1.32581991
v 3.46585019 1.62444237 -1.30995948
v 3.47335460 1.63526338 -1.30437173
v 3.47137493 1.62904119 -1.30761118
v 3.47135411 1.63101557 -1.28146483
v 3.47134598 1.63103388 -1.28144081
v 3.44324447 1.63864151 -1.32581732
v 3.44526069 1.64615872 -1.32584295
v 3.46582416 1.63491903 -1.27756746
v 3.45832673 1.63634640 -1.27612616
v 3.45831377 1.63633790 -1.27613323
v 3.45831780 1.64772660 -1.29786844
v 3.45079417 1.63491982 -1.27753307
v 3.45077481 1.64607855 -1.29874748
v 3.45078699 1.62558710 -1.32581273
v 3.44527835 1.63112727 -1.32584615
v 3.46583536 1.62444449 -1.31000165
v 3.45830815 1.62277426 -1.31086997
v 3.45831730 1.62357123 -1.32582575
v 3.44327157 1.63862549 -1.32582837
v 3.46584125 1.62560533 -1.32582928
v 3.46584207 1.62558484 -1.32582808
v 3.47134204 1.63111777 -1.32582983
v 3.47135554 1.64150353 -1.30110175
v 3.47338130 1.63529980 -1.30432426
v 3.46584155 1.63493450 -1.27755886
v 3.44528141 1.64617090 -1.32582467
v 3.45079293 1.65167328 -1.32582781
v 3.45832539 1.63637135 -1.27614378
v 3.46581693 1.63491081 -1.27755586
v 3.45832033 1.64773781 -1.29785783
v 3.45079739 1.65167686 -1.32583497
v 3.45831301 1.62357410 -1.61705900
v 3.45076162 1.62558839 -1.61706180
v 3.46583963 1.62559519 -1.32581895
v 3.44526841 1.63110445 -1.61704823
v 3.44325597 1.63864119 -1.61704644
v 3.47136090 1.63111405 -1.32583114
v 3.47136455 1.63111300 -1.32583547
v 3.47336947 1.63862105 -1.32584188
v 3.47334515 1.63862861 -1.32580963
v 3.46583447 1.64608230 -1.29874179
v 3.47134515 1.63104273 -1.28144696
v 3.47133039 1.64153066 -1.30112812
v 3.46583979 1.63492698 -1.27756133
v 3.44327498 1.63864884 -1.61707797
v 3.44526925 1.64616973 -1.61706391
v 3.44527284 1.64617700 -1.61705139
v 3.45077077 1.65168000 -1.61706443
v 3.46582523 1.64605538 -1.29873771
v 3.45831748 1.65369728 -1.32584447
v 3.45831529 1.62356447 -1.32584138
v 3.45831555 1.62355968 -1.61704644
v 3.46587720 1.62560130 -1.61707048
v 3.45077988 1.62557692 -1.32583368
v 3.45079081 1.62560314 -1.61707032
v 3.45832207 1.62359533 -1.61703120
v 3.44526604 1.63109848 -1.61705507
v 3.45074259 1.62558741 -1.61705964
v 3.44526943 1.63108830 -1.32583183
v 3.46583138 1.62560550 -1.61706873
v 3.47135102 1.63110734 -1.61704787
v 3.46580655 1.62559008 -1.61704517
v 3.47134990 1.63108918 -1.61705125
v 3.47337631 1.63863436 -1.61707212
v 3.47134458 1.64616137 -1.32584067
v 3.47132803 1.64615497 -1.32582925
v 3.45831075 1.65369614 -1.61705466
v 3.45079628 1.65170849 -1.61704556
v 3.46582257 1.65164025 -1.32582971
v 3.45831887 1.65368089 -1.32582456
v 3.47336082 1.63864381 -1.61706041
v 3.47136056 1.64614130 -1.61706199
v 3.46584020 1.65165755 -1.32580196
v 3.45831028 1.65371672 -1.61706516
v 3.46583906 1.65169417 -1.61705157
v 3.47135768 1.64616950 -1.61707501
v 3.46583682 1.65166413 -1.61705306
v 3.43222625 1.00637572 -1.61705704
v 3.43223338 0.97626015 -1.61706511
v 3.42818589 0.99130921 -1.61704091
v 3.44326453 1.01740707 -1.61703658
v 3.44324272 0.96524609 -1.61707104
v 3.45831318 1.02144143 -1.61703329
v 3.45830689 0.96120221 -1.61703972
v 3.47335067 1.01740392 -1.61706028
v 3.47335921 0.96524099 -1.61704760
v 3.48438417 1.00638168 -1.61705352
v 3.48437954 0.97628244 -1.61704065
v 3.48841810 0.99131031 -1.61704513
v 3.45831092 0.96117771 -1.61403460
v 3.44325940 0.96526570 -1.61705093
v 3.45832055 0.96124389 -1.61705836
v 3.44324592 0.96524215 -1.61403338
v 3.44324292 0.96522618 -1.61404301
v 3.43218900 0.97624529 -1.61704478
v 3.44325104 0.96521610 -1.61702892
v 3.43221409 0.97625329 -1.61405455
v 3.42820185 0.99131335 -1.61405046
v 3.43223469 0.97625942 -1.61705464
v 3.43220049 0.97626682 -1.61406904
v 3.42817027 0.99133793 -1.61707400
v 3.43223641 1.00636550 -1.61405884
v 3.42820747 0.99130383 -1.61705072
v 3.42820603 0.99133489 -1.61405404
v 3.43224858 1.00640050 -1.61703368
v 3.43224211 1.00638265 -1.61400932
v 3.44329061 1.01738807 -1.61704298
v 3.43224234 1.00637736 -1.61705380
v 3.44326612 1.01741199 -1.61404625
v 3.44326405 1.01741838 -1.61404486
v 3.45832552 1.02144853 -1.61703302
v 3.44327650 1.01740413 -1.61705303
v 3.45830069 1.02143873 -1.61406388
v 3.45830350 1.02144376 -1.61705736
v 3.47337821 1.01739003 -1.61403246
v 3.47337360 1.01741551 -1.61704650
v 3.45832019 1.02142791 -1.61404888
v 3.47338321 1.01740863 -1.61707273
v 3.48441137 1.00637334 -1.61403788
v 3.48438718 1.00638530 -1.61706713
v 3.47337340 1.01739465 -1.61405333
v 3.48842222 0.99131638 -1.61708038
v 3.48440928 1.00638984 -1.61405554
v 3.48841081 0.99130946 -1.61403602
v 3.48440575 1.00637213 -1.61704335
v 3.48438235 0.97625203 -1.61704929
v 3.48842883 0.99131027 -1.61408458
v 3.48440639 0.97626518 -1.61407379
v 3.48843860 0.99131834 -1.61705204
v 3.48441024 0.97625025 -1.61704593
v 3.47338118 0.96524962 -1.61402636
v 3.47338083 0.96523105 -1.61703071
v 3.48438143 0.97625414 -1.61406286
v 3.47337014 0.96525413 -1.61703773
v 3.45832438 0.96119498 -1.61405709
v 3.45830940 0.96121691 -1.61706868
v 3.47338372 0.96523848 -1.61404691
v 3.45833909 0.97621376 -1.60699394
v 3.44323949 0.96522736 -1.61407148
v 3.45830739 0.96121172 -1.61403896
v 3.45076847 0.97824779 -1.60703374
v 3.45074553 0.97824830 -1.60699835
v 3.43222878 0.97624283 -1.61407084
v 3.44324972 0.96526111 -1.61405224
v 3.44522713 0.98376068 -1.60702406
v 3.44524543 0.98375997 -1.60702976
v 3.42819804 0.99132512 -1.61403925
v 3.43224161 0.97625421 -1.61407312
v 3.44320901 0.99132253 -1.60703599
v 3.44322376 0.99131026 -1.60702544
v 3.43224960 1.00637941 -1.61403009
v 3.42818750 0.99133441 -1.61403656
v 3.44519966 0.99886730 -1.60699562
v 3.44525262 0.99886235 -1.60702054
v 3.44324099 1.01740173 -1.61407449
v 3.43221963 1.00639205 -1.61404961
v 3.45831277 1.02143314 -1.61401083
v 3.44327381 1.01738795 -1.61402592
v 3.44325803 1.01740922 -1.61405756
v 3.45075099 1.00440499 -1.60702806
v 3.45075319 1.00440633 -1.60703358
v 3.47335166 1.01740649 -1.61407683
v 3.45830732 1.02142950 -1.61406821
v 3.45830219 1.00642588 -1.60701316
v 3.48438370 1.00638378 -1.61402799
v 3.47335358 1.01739969 -1.61402157
v 3.47338016 1.01741025 -1.61405213
v 3.46585061 1.00440978 -1.60700809
v 3.46586109 1.00438720 -1.60704180
v 3.48843236 0.99130883 -1.61405117
v 3.48440639 1.00638785 -1.61403923
v 3.48442863 1.00639270 -1.61405979
v 3.47137767 0.99890122 -1.60702658
v 3.47138854 0.99889304 -1.60699319
v 3.48842941 0.99132194 -1.61407227
v 3.48841742 0.99131341 -1.61404940
v 3.47341099 0.99132068 -1.60698649
v 3.47342205 0.99132287 -1.60701724
v 3.48439456 0.97627794 -1.61406324
v 3.48439521 0.97624525 -1.61404810
v 3.48439864 0.97627356 -1.61403251
v 3.47139847 0.98379201 -1.60699497
v 3.47139359 0.98377448 -1.60704445
v 3.47337608 0.96523886 -1.61407302
v 3.47336553 0.96525237 -1.61406671
v 3.46587997 0.97825070 -1.60702048
v 3.46585982 0.97825569 -1.60703736
v 3.45834652 0.96119212 -1.61406006
v 3.46587895 0.97825513 -1.60699866
v 3.45833255 0.97622572 -1.60703519
v 3.45075752 0.97824682 -1.60701751
v 3.44521288 0.98378390 -1.60699297
v 3.44324077 0.99130425 -1.60701115
v 3.44521185 0.99889227 -1.60704450
v 3.45076992 1.00441005 -1.60699914
v 3.45832270 1.00639652 -1.60701869
v 3.46585805 1.00439890 -1.60700340
v 3.47139845 0.99889832 -1.60700799
v 3.47341007 0.99134142 -1.60702168
v 3.47139312 0.98377177 -1.60704946
v 3.44524559 0.98377330 -1.60702021
v 3.44523972 0.99885051 -1.60701611
v 3.44324131 0.99131605 -1.60702460
v 3.45075563 0.97827235 -1.60703629
v 3.45077602 1.00439529 -1.60699030
v 3.45833628 0.97621920 -1.60703891
v 3.45833794 1.00643700 -1.60703278
v 3.46587228 0.97823280 -1.60702817
v 3.46583923 1.00440683 -1.60701346
v 3.47139610 0.98378962 -1.60700788
v 3.47139737 0.99887906 -1.60703221
v 3.47341504 0.99130161 -1.60702990
v 3.43223260 0.35884605 -1.61702717
v 3.43221865 0.32871535 -1.61705706
v 3.42820808 0.34378022 -1.61705098
v 3.44324570 0.36986028 -1.61704354
v 3.44325207 0.31771709 -1.61705936
v 3.45830897 0.37389038 -1.61705968
v 3.45829868 0.31365358 -1.61703366
v 3.47339969 0.36984678 -1.61704336
v 3.47337344 0.31769331 -1.61703827
v 3.48440893 0.35883330 -1.61706910
v 3.48438119 0.32871202 -1.61705152
v 3.48843724 0.34378303 -1.61704231
v 3.45828414 0.31366663 -1.61406414
v 3.44327492 0.31769405 -1.61704721
v 3.45831028 0.31365791 -1.61708228
v 3.44327465 0.31768468 -1.61408578
v 3.43224879 0.32873646 -1.61406173
v 3.44327630 0.31767880 -1.61708788
v 3.44325425 0.31769390 -1.61404756
v 3.43223534 0.32871708 -1.61705302
v 3.42819765 0.34376361 -1.61405317
v 3.43222895 0.32870867 -1.61707155
v 3.43222627 0.32871408 -1.61404509
v 3.42819978 0.34376947 -1.61704856
v 3.43224532 0.35884069 -1.61407400
v 3.42819429 0.34378195 -1.61704883
v 3.42821023 0.34377646 -1.61406142
v 3.43225105 0.35881205 -1.61704223
v 3.44325905 0.36983406 -1.61405496
v 3.43225078 0.35882288 -1.61707306
v 3.43222983 0.35881965 -1.61406699
v 3.44326542 0.36986594 -1.61706381
v 3.44326663 0.36984930 -1.61405080
v 3.45831960 0.37390719 -1.61704894
v 3.44324525 0.36986198 -1.61705917
v 3.45831132 0.37387443 -1.61404977
v 3.45831703 0.37388058 -1.61707559
v 3.47334762 0.36985653 -1.61404689
v 3.47340223 0.36985223 -1.61704173
v 3.45833465 0.37388537 -1.61404832
v 3.48439094 0.35885606 -1.61707724
v 3.47337103 0.36987417 -1.61405091
v 3.48438896 0.35883441 -1.61404204
v 3.47337955 0.36985869 -1.61704554
v 3.48844345 0.34375651 -1.61706138
v 3.48440918 0.35883800 -1.61404614
v 3.48843962 0.34378541 -1.61406148
v 3.48437975 0.35881494 -1.61702997
v 3.48438217 0.32870963 -1.61705867
v 3.48844465 0.34374765 -1.61404999
v 3.48441402 0.32872857 -1.61404369
v 3.48842651 0.34379672 -1.61707953
v 3.47338535 0.31769646 -1.61704777
v 3.48440070 0.32871580 -1.61403637
v 3.47335540 0.31767182 -1.61404715
v 3.48439770 0.32871522 -1.61703374
v 3.47336345 0.31769987 -1.61705067
v 3.45835109 0.31363426 -1.61405710
v 3.45831146 0.31367248 -1.61706757
v 3.47339486 0.31771176 -1.61403728
v 3.45832401 0.32865178 -1.60701483
v 3.44323919 0.31768423 -1.61404658
v 3.45831354 0.31366729 -1.61405125
v 3.45074242 0.33068237 -1.60703527
v 3.45075972 0.33071476 -1.60701028
v 3.43223865 0.32869488 -1.61401618
v 3.44325888 0.31772325 -1.61406161
v 3.44523373 0.33626132 -1.60703247
v 3.44524758 0.33622008 -1.60702880
v 3.42823102 0.34375795 -1.61403684
v 3.43224939 0.32869872 -1.61407607
v 3.44319522 0.34376082 -1.60701426
v 3.44322492 0.34376940 -1.60701886
v 3.43224756 0.35884192 -1.61404412
v 3.42819202 0.34378296 -1.61404689
v 3.44523120 0.35131514 -1.60700014
v 3.44526760 0.35131581 -1.60704655
v 3.44326752 0.36984206 -1.61403911
v 3.43222861 0.35886244 -1.61404786
v 3.45833054 0.37386917 -1.61408897
v 3.44326118 0.36985841 -1.61403929
v 3.44325150 0.36983660 -1.61407186
v 3.45077192 0.35685682 -1.60702968
v 3.45075675 0.35683663 -1.60704399
v 3.47337438 0.36986661 -1.61405253
v 3.45829790 0.37388344 -1.61403024
v 3.45834777 0.35887421 -1.60702846
v 3.48436910 0.35880944 -1.61405068
v 3.47337475 0.36985834 -1.61405309
v 3.47334992 0.36983261 -1.61404733
v 3.46585024 0.35686516 -1.60703786
v 3.46588550 0.35683749 -1.60701425
v 3.48843331 0.34376722 -1.61407770
v 3.48439020 0.35885251 -1.61406741
v 3.48437111 0.35882807 -1.61405522
v 3.47137101 0.35131268 -1.60702414
v 3.47138336 0.35132553 -1.60700746
v 3.48843561 0.34377685 -1.61402585
v 3.48844555 0.34373116 -1.61405453
v 3.47339340 0.34376238 -1.60700656
v 3.47341270 0.34376604 -1.60699890
v 3.48437586 0.32871160 -1.61404173
v 3.48439731 0.32869659 -1.61404975
v 3.48440831 0.32871794 -1.61404498
v 3.47139348 0.33622672 -1.60703481
v 3.47138482 0.33623087 -1.60706110
v 3.47338221 0.31769406 -1.61406465
v 3.47336111 0.31768646 -1.61404363
v 3.46585657 0.33071363 -1.60701158
v 3.46585077 0.33069064 -1.60701419
v 3.45832810 0.31366349 -1.61405080
v 3.46586391 0.33069690 -1.60700584
v 3.45830403 0.32868209 -1.60704339
v 3.45077049 0.33070085 -1.60701739
v 3.44521176 0.33624682 -1.60700477
v 3.44322057 0.34377849 -1.60703057
v 3.44524889 0.35134514 -1.60703392
v 3.45080196 0.35684071 -1.60700577
v 3.45830627 0.35887591 -1.60703527
v 3.46585257 0.35684364 -1.60702659
v 3.47138577 0.35133694 -1.60703531
v 3.47339874 0.34377271 -1.60702530
v 3.47137507 0.33622668 -1.60702531
v 3.44524642 0.33622426 -1.60702021
v 3.44524074 0.35133761 -1.60699894
v 3.44321797 0.34375759 -1.60703860
v 3.45073281 0.33068074 -1.60702935
v 3.45076342 0.35682045 -1.60699731
v 3.45833280 0.32869111 -1.60702458
v 3.45832130 0.35885713 -1.60699563
v 3.46584479 0.33069004 -1.60699740
v 3.46589677 0.35684556 -1.60702320
v 3.47135397 0.33624883 -1.60701306
v 3.47136271 0.35133547 -1.60700877
v 3.47341055 0.34376422 -1.60700713
v 3.44527916 0.98379617 -1.27082741
v 3.44529263 0.99885822 -1.27083642
v 3.44324133 0.99130278 -1.27083314
v 3.45079278 0.97828551 -1.27083283
v 3.45077591 1.00436767 -1.27085851
v 3.45831875 0.97627358 -1.27085413
v 3.45834529 1.00639226 -1.27082537
v 3.46583932 0.97825874 -1.27085444
v 3.46585003 1.00435582 -1.27083450
v 3.47135709 0.98378106 -1.27083152
v 3.47137396 0.99883726 -1.27083745
v 3.47337378 0.99132238 -1.27084609
v 3.45830029 1.00639613 -1.61707060
v 3.46583006 1.00436895 -1.27084211
v 3.46583111 1.00435061 -1.61705818
v 3.45831175 1.00638542 -1.27086097
v 3.45078879 1.00438123 -1.27084180
v 3.45830540 1.00636619 -1.61705534
v 3.45077493 1.00437717 -1.61708178
v 3.45834088 1.00634792 -1.27084521
v 3.45076849 1.00437125 -1.27085550
v 3.44525997 0.99884286 -1.61706172
v 3.44524872 0.99885392 -1.27087822
v 3.45080020 1.00435520 -1.61704257
v 3.44526745 0.99883641 -1.27083548
v 3.44325108 0.99129682 -1.61705717
v 3.44323995 0.99131825 -1.27082527
v 3.44528939 0.99884766 -1.61705828
v 3.44325483 0.99130949 -1.27083965
v 3.44527366 0.98378398 -1.61705216
v 3.44524755 0.98381680 -1.27083579
v 3.44323971 0.99132016 -1.61707180
v 3.45077612 0.97826567 -1.27082930
v 3.44524892 0.98378436 -1.61707910
v 3.45078340 0.97827387 -1.61707570
v 3.44529609 0.98381129 -1.27085255
v 3.45832520 0.97625845 -1.27084121
v 3.45080520 0.97827456 -1.61703079
v 3.45831383 0.97625932 -1.61702943
v 3.45078755 0.97824971 -1.27084148
v 3.46582429 0.97825499 -1.61706918
v 3.45832245 0.97624491 -1.27086430
v 3.45831254 0.97626631 -1.61706573
v 3.46582395 0.97824774 -1.27085553
v 3.47136683 0.98380341 -1.61704486
v 3.46583982 0.97828005 -1.27082684
v 3.46583009 0.97828344 -1.61708221
v 3.47136456 0.98378301 -1.27086085
v 3.47136583 0.98377374 -1.61706812
v 3.47339316 0.99130375 -1.27085384
v 3.47134539 0.98380036 -1.27087040
v 3.47338913 0.99131512 -1.61706040
v 3.47335899 0.99131650 -1.61703531
v 3.47135797 0.99883445 -1.27084951
v 3.47337908 0.99131963 -1.27084824
v 3.47136347 0.99885271 -1.61707108
v 3.47132810 0.99885466 -1.61702988
v 3.46583076 1.00435776 -1.27082562
v 3.47137940 0.99884846 -1.27082709
v 3.46585282 1.00435203 -1.61708429
v 3.44526311 0.99885282 -1.61705006
v 3.44526883 0.98377730 -1.61707841
v 3.44323569 0.99131683 -1.61707806
v 3.45078348 1.00434863 -1.61706193
v 3.45081353 0.97827901 -1.61706077
v 3.45831544 1.00635566 -1.61703715
v 3.45832977 0.97625317 -1.61705273
v 3.46583286 1.00436540 -1.61707480
v 3.46584604 0.97829941 -1.61704969
v 3.47134670 0.99886097 -1.61702857
v 3.47136524 0.98379070 -1.61706721
v 3.47337770 0.99134552 -1.61708426
v 3.43224761 1.65369928 -1.61703459
v 3.43223209 1.62354873 -1.61702788
v 3.42818441 1.63864939 -1.61705763
v 3.44325872 1.66471888 -1.61706350
v 3.44326190 1.61255986 -1.61704458
v 3.45831963 1.66876081 -1.61703719
v 3.45830521 1.60852500 -1.61704912
v 3.47338612 1.66471606 -1.61705444
v 3.47336674 1.61257295 -1.61706034
v 3.48440659 1.65369577 -1.61705540
v 3.48437980 1.62357990 -1.61705625
v 3.48840935 1.63862776 -1.61706221
v 3.45829641 1.60850693 -1.61402858
v 3.44324482 1.61254352 -1.61707543
v 3.45833510 1.60853691 -1.61705137
v 3.44326046 1.61254864 -1.61405320
v 3.43222442 1.62358834 -1.61403949
v 3.44327209 1.61258430 -1.61704591
v 3.44326818 1.61256963 -1.61407085
v 3.43223395 1.62355787 -1.61703369
v 3.42819376 1.63866304 -1.61403430
v 3.43222613 1.62355580 -1.61707161
v 3.43224847 1.62357459 -1.61407000
v 3.42819753 1.63866191 -1.61703325
v 3.43222725 1.65370153 -1.61404060
v 3.42817992 1.63863067 -1.61706153
v 3.42820636 1.63863099 -1.61406882
v 3.43223844 1.65368819 -1.61707307
v 3.43221669 1.65369407 -1.61402884
v 3.44325683 1.66473201 -1.61708737
v 3.43222211 1.65367955 -1.61705969
v 3.44327009 1.66470928 -1.61406668
v 3.44327258 1.66470625 -1.61404538
v 3.45830854 1.66876359 -1.61706122
v 3.44327044 1.66472567 -1.61702465
v 3.45831675 1.66874264 -1.61406551
v 3.45830949 1.66876160 -1.61706586
v 3.47339290 1.66471976 -1.61406292
v 3.47336508 1.66470799 -1.61705333
v 3.45830348 1.66877433 -1.61405421
v 3.47336825 1.66472991 -1.61706634
v 3.48439695 1.65372236 -1.61404343
v 3.48440110 1.65369052 -1.61706979
v 3.47339613 1.66471470 -1.61402256
v 3.48842058 1.63865577 -1.61705872
v 3.48440282 1.65371428 -1.61404301
v 3.48844144 1.63861621 -1.61405567
v 3.48442568 1.65369399 -1.61705136
v 3.48439468 1.62357038 -1.61707681
v 3.48841415 1.63866177 -1.61405032
v 3.48438028 1.62356641 -1.61403694
v 3.48841688 1.63862937 -1.61707151
v 3.47335391 1.61257869 -1.61705781
v 3.48439246 1.62357066 -1.61403920
v 3.47337244 1.61255965 -1.61404728
v 3.48439196 1.62357235 -1.61708019
v 3.47336468 1.61258591 -1.61707323
v 3.45831793 1.60852873 -1.61403244
v 3.45835519 1.60851845 -1.61706815
v 3.47338646 1.61255853 -1.61402104
v 3.45832805 1.62353035 -1.60701995
v 3.45832381 1.62354676 -1.60703311
v 3.44323227 1.61253303 -1.61404054
v 3.45831572 1.60849826 -1.61405694
v 3.45829068 1.60852032 -1.61406135
v 3.45075633 1.62555828 -1.60701463
v 3.45076500 1.62557760 -1.60698349
v 3.43224585 1.62357644 -1.61403865
v 3.44324907 1.61254395 -1.61406144
v 3.44326338 1.61257293 -1.61401798
v 3.44526029 1.63109683 -1.60702686
v 3.44524278 1.63109467 -1.60701891
v 3.42822683 1.63862664 -1.61405923
v 3.43223922 1.62360727 -1.61407465
v 3.43222201 1.62359718 -1.61405874
v 3.44324912 1.63862662 -1.60700214
v 3.44321898 1.63864460 -1.60703173
v 3.43221134 1.65370809 -1.61405664
v 3.42818779 1.63862264 -1.61406388
v 3.42821968 1.63862520 -1.61405682
v 3.44526931 1.64617939 -1.60701727
v 3.44524686 1.64618130 -1.60702685
v 3.44327723 1.66472144 -1.61405804
v 3.43221444 1.65368095 -1.61406359
v 3.43220362 1.65371368 -1.61404777
v 3.45832540 1.66873641 -1.61405602
v 3.44325591 1.66471801 -1.61405210
v 3.44324180 1.66473228 -1.61403924
v 3.45076521 1.65172744 -1.60700020
v 3.45078373 1.65171524 -1.60702157
v 3.47336485 1.66472946 -1.61405905
v 3.45830505 1.66876411 -1.61404186
v 3.45832681 1.66874441 -1.61404498
v 3.45833072 1.65372991 -1.60702092
v 3.45831369 1.65375797 -1.60700451
v 3.48437815 1.65367586 -1.61404008
v 3.47336859 1.66472443 -1.61404548
v 3.47338575 1.66469413 -1.61405690
v 3.46586534 1.65171624 -1.60703046
v 3.46585442 1.65170473 -1.60701653
v 3.48844001 1.63863429 -1.61405135
v 3.48436758 1.65368231 -1.61402319
v 3.48437290 1.65371636 -1.61405339
v 3.47136160 1.64620592 -1.60699917
v 3.47138210 1.64619763 -1.60702219
v 3.48843089 1.63864049 -1.61405245
v 3.48843754 1.63864357 -1.61405655
v 3.47341968 1.63863085 -1.60701531
v 3.47340855 1.63863952 -1.60699472
v 3.48438779 1.62355856 -1.61402683
v 3.48440108 1.62356997 -1.61405271
v 3.48438415 1.62359227 -1.61403919
v 3.47139798 1.63109013 -1.60704597
v 3.47137250 1.63109103 -1.60705446
v 3.47337047 1.61254115 -1.61404032
v 3.47336882 1.61257041 -1.61404447
v 3.47337318 1.61254188 -1.61404039
v 3.46589522 1.62553545 -1.60703156
v 3.46588518 1.62556665 -1.60702135
v 3.45832885 1.60852868 -1.61405837
v 3.46585244 1.62557147 -1.60701237
v 3.45833300 1.62354891 -1.60702581
v 3.45078556 1.62554650 -1.60702356
v 3.44523071 1.63106737 -1.60700845
v 3.44320544 1.63862855 -1.60700396
v 3.44525384 1.64617673 -1.60703555
v 3.45076270 1.65169052 -1.60703134
v 3.45831243 1.65373443 -1.60702495
v 3.46585978 1.65173235 -1.60700835
v 3.47140852 1.64619803 -1.60701394
v 3.47339849 1.63861940 -1.60701748
v 3.47138342 1.63107392 -1.60701144
v 3.44525888 1.63108608 -1.60701599
v 3.44523402 1.64617580 -1.60698949
v 3.44320258 1.63863589 -1.60702347
v 3.45076262 1.62557415 -1.60700324
v 3.45076219 1.65172872 -1.60702792
v 3.45832286 1.62356471 -1.60702530
v 3.45832075 1.65375769 -1.60702898
v 3.46586272 1.62555504 -1.60703287
v 3.46586749 1.65170110 -1.60699391
v 3.47138945 1.63108409 -1.60701662
v 3.47139060 1.64618266 -1.60701639
v 3.47340746 1.63863114 -1.60700979
v 3.45075370 1.63868995 -1.45752515
v 3.46584709 1.63869569 -1.45752336
v 3.45831297 1.63867505 -1.45952898
v 3.44527964 1.63868773 -1.45199237
v 3.47136449 1.63869239 -1.45199754
v 3.44326684 1.63871281 -1.44449272
v 3.47336377 1.63868963 -1.44449187
v 3.44524341 1.63871639 -1.43697174
v 3.47136298 1.63868295 -1.43695353
v 3.45076695 1.63870089 -1.43146733
v 3.46583398 1.63871043 -1.43144187
v 3.45832027 1.63868912 -1.42945682
v 3.45077116 0.34358765 -1.43142441
v 3.44528387 1.63870561 -1.43696333
v 3.44526564 0.34360381 -1.43696058
v 3.45077896 1.63872809 -1.43145866
v 3.45831392 0.34359131 -1.42943539
v 3.45076388 1.63871903 -1.43146470
v 3.45077095 0.34359842 -1.43146264
v 3.45831568 1.63869757 -1.42942931
v 3.46584032 0.34357505 -1.43145289
v 3.45833590 1.63871751 -1.42943414
v 3.45833310 0.34358162 -1.42944540
v 3.46581397 1.63868555 -1.43143842
v 3.47135041 0.34361814 -1.43694357
v 3.46583731 1.63869804 -1.43144790
v 3.46585631 0.34358942 -1.43144538
v 3.47134466 1.63871940 -1.43696007
v 3.47336250 0.34357348 -1.44447090
v 3.47134667 1.63870018 -1.43696093
v 3.47135236 0.34356699 -1.43696637
v 3.47335637 1.63873175 -1.44446537
v 3.47136113 0.34362973 -1.45199533
v 3.47335271 1.63868313 -1.44448051
v 3.47337061 0.34359779 -1.44449604
v 3.47138089 1.63869624 -1.45199735
v 3.46586277 0.34358660 -1.45751737
v 3.47137734 1.63872164 -1.45200252
v 3.47136115 0.34359592 -1.45199545
v 3.46585047 1.63870292 -1.45753191
v 3.46582330 1.63869874 -1.45749910
v 3.45831108 0.34358582 -1.45954575
v 3.45831488 1.63869332 -1.45953315
v 3.46584686 0.34361142 -1.45751702
v 3.45832049 1.63867165 -1.45953941
v 3.45077452 0.34360995 -1.45752443
v 3.45077299 1.63869355 -1.45754214
v 3.45831018 0.34359924 -1.45952582
v 3.44528318 1.63871254 -1.45200056
v 3.45077915 0.34361522 -1.45754444
v 3.44527761 0.34358744 -1.45204085
v 3.45080698 1.63867313 -1.45751560
v 3.44328445 1.63869832 -1.44448589
v 3.44524922 0.34359131 -1.45199290
v 3.44325195 0.34358114 -1.44451697
v 3.44529393 1.63870695 -1.45201731
v 3.44529052 1.63869372 -1.43695985
v 3.44328909 0.34358224 -1.44448039
v 3.44527902 0.34359619 -1.43695527
v 3.44324093 1.63869924 -1.44448768
v 3.46583290 0.34358312 -1.45753952
v 3.45077233 0.34360056 -1.45752495
v 3.45834111 0.34360329 -1.45955072
v 3.47134741 0.34359239 -1.45201818
v 3.44527593 0.34362207 -1.45201540
v 3.47337343 0.34357809 -1.44450553
v 3.44325737 0.34358896 -1.44448163
v 3.47137403 0.34358765 -1.43696497
v 3.44528961 0.34358870 -1.43695455
v 3.46584080 0.34362120 -1.43146881
v 3.45077217 0.34360395 -1.43142889
v 3.45830343 0.34361137 -1.42943286
vt 0.98089999 0.14420003
vt 0.97750002 0.15069997
vt 0.97829998 0.19450003
vt 0.97140002 0.11210001
vt 0.97750002 0.15069997
vt 0.97680002 0.19450003
vt 0.97829998 0.19450003
vt 0.98250002 0.19450003
vt 0.97140002 0.11210001
vt 0.97039998 0.11600000
vt 0.97750002 0.15069997
vt 0.97439998 0.10130000
vt 0.97680002 0.99949998
vt 0.97829998 0.99949998
vt 0.97619998 0.15319997
vt 0.98250002 0.99949998
vt 0.97829998 0.99949998
vt 0.98089999 0.14420003
vt 0.98250002 0.19450003
vt 0.98559999 0.13520002
vt 0.96230000 0.08340001
vt 0.97619998 0.15319997
vt 0.97439998 0.10130000
vt 0.96439999 0.07220000
vt 0.02319997 0.99949998
vt 0.02169996 0.19450003
vt 0.02169996 0.99949998
vt 0.02319997 0.19450003
vt 0.02249997 0.15069997
vt 0.02379995 0.15319997
vt 0.98809999 0.99949998
vt 0.98809999 0.19450003
vt 0.98250002 0.99949998
vt 0.96230000 0.08340001
vt 0.96149999 0.08749998
vt 0.02959996 0.11600000
vt 0.02249997 0.15069997
vt 0.02379995 0.15319997
vt 0.97839999 0.08660001
vt 0.96439999 0.07220000
vt 0.96740001 0.05669999
vt 0.01749998 0.99949998
vt 0.02169996 0.19450003
vt 0.01749998 0.19450003
vt 0.02169996 0.99949998
vt 0.98809999 0.19450003
vt 0.99379998 0.99949998
vt 0.99379998 0.19450003
vt 0.98809999 0.99949998
vt 0.98559999 0.13520002
vt 0.99030000 0.12620002
vt 0.96230000 0.08340001
vt 0.96439999 0.07220000
vt 0.95270002 0.07819998
vt 0.96149999 0.08749998
vt 0.96230000 0.08340001
vt 0.95270002 0.08370000
vt 0.03769999 0.08340001
vt 0.03849995 0.08749998
vt 0.02859997 0.11210001
vt 0.97839999 0.08660001
vt 0.95270002 0.06290001
vt 0.01909995 0.14420003
vt 0.02249997 0.15069997
vt 0.01189994 0.99949998
vt 0.01749998 0.19450003
vt 0.01189994 0.19450003
vt 0.01749998 0.99949998
vt 0.99379998 0.19450003
vt 0.99800003 0.99949998
vt 0.99800003 0.19450003
vt 0.99379998 0.99949998
vt 0.95270002 0.07819998
vt 0.95270002 0.06290001
vt 0.03769999 0.08340001
vt 0.03849995 0.08749998
vt 0.04729998 0.08370000
vt 0.02859997 0.11210001
vt 0.98240000 0.07190001
vt 0.96740001 0.05669999
vt 0.97039998 0.04100001
vt 0.95270002 0.04210001
vt 0.01909995 0.14420003
vt 0.01439994 0.13520002
vt 0.00619996 0.99949998
vt 0.01189994 0.19450003
vt 0.00619996 0.19450003
vt 0.01189994 0.99949998
vt 0.99949998 0.19450003
vt 0.99800003 0.99949998
vt 0.99949998 0.99949998
vt 0.99800003 0.19450003
vt 0.99379998 0.11960000
vt 0.99030000 0.12620002
vt 0.04729998 0.08370000
vt 0.04729998 0.07819998
vt 0.04729998 0.07819998
vt 0.04729998 0.06290001
vt 0.04729998 0.07819998
vt 0.03769999 0.08340001
vt 0.03559994 0.07220000
vt 0.02559995 0.10130000
vt 0.98240000 0.07190001
vt 0.95270002 0.04210001
vt 0.04729998 0.04210001
vt 0.04729998 0.06290001
vt 0.02559995 0.10130000
vt 0.01439994 0.13520002
vt 0.00970000 0.12620002
vt 0.00199997 0.99949998
vt 0.00619996 0.19450003
vt 0.00199997 0.19450003
vt 0.00619996 0.99949998
vt 0.00199997 0.99949998
vt 0.00050000 0.19450003
vt 0.00050000 0.99949998
vt 0.00199997 0.19450003
vt 0.99500000 0.11729997
vt 0.99379998 0.11960000
vt 0.03769999 0.08340001
vt 0.95270002 0.07819998
vt 0.95270002 0.08370000
vt 0.03559994 0.07220000
vt 0.03559994 0.07220000
vt 0.03769999 0.08340001
vt 0.04729998 0.07819998
vt 0.98530000 0.06110001
vt 0.97039998 0.04100001
vt 0.98240000 0.07190001
vt 0.97259998 0.02939999
vt 0.95270002 0.02130002
vt 0.03259998 0.05669999
vt 0.04729998 0.02130002
vt 0.04729998 0.04210001
vt 0.02159994 0.08660001
vt 0.02159994 0.08660001
vt 0.00619996 0.11960000
vt 0.00970000 0.12620002
vt 0.00500000 0.11729997
vt 0.98530000 0.06110001
vt 0.03769999 0.08340001
vt 0.03849995 0.08749998
vt 0.96230000 0.08340001
vt 0.95270002 0.06290001
vt 0.95270002 0.07819998
vt 0.04729998 0.06290001
vt 0.03559994 0.07220000
vt 0.03559994 0.07220000
vt 0.03259998 0.05669999
vt 0.98530000 0.06110001
vt 0.95270002 0.02130002
vt 0.02959996 0.04100001
vt 0.03259998 0.05669999
vt 0.95270002 0.00610000
vt 0.04729998 0.02130002
vt 0.04729998 0.00610000
vt 0.01759999 0.07190001
vt 0.01759999 0.07190001
vt 0.00619996 0.11960000
vt 0.98640001 0.05710000
vt 0.02859997 0.11210001
vt 0.03769999 0.08340001
vt 0.03559994 0.07220000
vt 0.03849995 0.08749998
vt 0.03769999 0.08340001
vt 0.02959996 0.11600000
vt 0.96149999 0.08749998
vt 0.96439999 0.07220000
vt 0.96230000 0.08340001
vt 0.04729998 0.06290001
vt 0.95270002 0.04210001
vt 0.04729998 0.04210001
vt 0.95270002 0.06290001
vt 0.02559995 0.10130000
vt 0.97340000 0.02520001
vt 0.97259998 0.02939999
vt 0.98530000 0.06110001
vt 0.02159994 0.08660001
vt 0.95270002 0.00050002
vt 0.04729998 0.00610000
vt 0.95270002 0.00610000
vt 0.04729998 0.00050002
vt 0.02739995 0.02939999
vt 0.02959996 0.04100001
vt 0.03259998 0.05669999
vt 0.02959996 0.04100001
vt 0.01469999 0.06110001
vt 0.01469999 0.06110001
vt 0.01359999 0.05710000
vt 0.98640001 0.05710000
vt 0.02859997 0.11210001
vt 0.02559995 0.10130000
vt 0.96230000 0.08340001
vt 0.96149999 0.08749998
vt 0.97039998 0.11600000
vt 0.97140002 0.11210001
vt 0.96439999 0.07220000
vt 0.96230000 0.08340001
vt 0.96740001 0.05669999
vt 0.96439999 0.07220000
vt 0.04729998 0.04210001
vt 0.95270002 0.02130002
vt 0.04729998 0.02130002
vt 0.95270002 0.04210001
vt 0.02159994 0.08660001
vt 0.01759999 0.07190001
vt 0.02660000 0.02520001
vt 0.04729998 0.00610000
vt 0.95270002 0.00050002
vt 0.04729998 0.00050002
vt 0.95270002 0.00610000
vt 0.02739995 0.02939999
vt 0.01759999 0.07190001
vt 0.02959996 0.04100001
vt 0.02739995 0.02939999
vt 0.01759999 0.07190001
vt 0.01469999 0.06110001
vt 0.01469999 0.06110001
vt 0.02660000 0.02520001
vt 0.01359999 0.05710000
vt 0.02249997 0.15069997
vt 0.01909995 0.14420003
vt 0.97140002 0.11210001
vt 0.97439998 0.10130000
vt 0.97439998 0.10130000
vt 0.97039998 0.04100001
vt 0.96740001 0.05669999
vt 0.04729998 0.02130002
vt 0.95270002 0.00610000
vt 0.04729998 0.00610000
vt 0.95270002 0.02130002
vt 0.01439994 0.13520002
vt 0.00970000 0.12620002
vt 0.97340000 0.02520001
vt 0.01469999 0.06110001
vt 0.01469999 0.06110001
vt 0.02739995 0.02939999
vt 0.02249997 0.15069997
vt 0.02379995 0.15319997
vt 0.01909995 0.14420003
vt 0.97750002 0.15069997
vt 0.98089999 0.14420003
vt 0.97839999 0.08660001
vt 0.97839999 0.08660001
vt 0.97039998 0.04100001
vt 0.97259998 0.02939999
vt 0.01439994 0.13520002
vt 0.00619996 0.11960000
vt 0.00970000 0.12620002
vt 0.01759999 0.07190001
vt 0.97259998 0.02939999
vt 0.01359999 0.05710000
vt 0.01469999 0.06110001
vt 0.02169996 0.19450003
vt 0.02249997 0.15069997
vt 0.02319997 0.19450003
vt 0.02379995 0.15319997
vt 0.97619998 0.15319997
vt 0.01749998 0.19450003
vt 0.97750002 0.15069997
vt 0.98559999 0.13520002
vt 0.98089999 0.14420003
vt 0.98240000 0.07190001
vt 0.98240000 0.07190001
vt 0.01189994 0.19450003
vt 0.00619996 0.19450003
vt 0.98530000 0.06110001
vt 0.98640001 0.05710000
vt 0.01359999 0.05710000
vt 0.00500000 0.11729997
vt 0.01469999 0.06110001
vt 0.00619996 0.11960000
vt 0.02169996 0.19450003
vt 0.01749998 0.19450003
vt 0.97750002 0.15069997
vt 0.97619998 0.15319997
vt 0.97680002 0.19450003
vt 0.01189994 0.19450003
vt 0.97829998 0.19450003
vt 0.97828138 0.19450247
vt 0.98250002 0.19450003
vt 0.99030000 0.12620002
vt 0.98559999 0.13520002
vt 0.98530000 0.06110001
vt 0.00619996 0.19450003
vt 0.00199997 0.19450003
vt 0.98640001 0.05710000
vt 0.98530000 0.06110001
vt 0.99500000 0.11729997
vt 0.00199997 0.19450003
vt 0.02319997 0.99949998
vt 0.02169996 0.99949998
vt 0.97829998 0.19450003
vt 0.01749998 0.99949998
vt 0.01189994 0.99949998
vt 0.98250002 0.19450003
vt 0.98247987 0.19450247
vt 0.98809999 0.19450003
vt 0.98809999 0.19450003
vt 0.99379998 0.11960000
vt 0.98240000 0.07190001
vt 0.99030000 0.12620002
vt 0.98530000 0.06110001
vt 0.01189994 0.99949998
vt 0.00619996 0.99949998
vt 0.00619996 0.99949998
vt 0.00199997 0.99949998
vt 0.99379998 0.11960000
vt 0.00050000 0.19450003
vt 0.97680002 0.19450003
vt 0.97680002 0.99949998
vt 0.97829998 0.99949998
vt 0.02169996 0.19450003
vt 0.02169996 0.99949998
vt 0.02319997 0.99949998
vt 0.01749998 0.99949998
vt 0.02169996 0.99949998
vt 0.01749998 0.19450003
vt 0.97829998 0.99949998
vt 0.98248142 0.99950254
vt 0.97828138 0.99950254
vt 0.98250002 0.99949998
vt 0.98809999 0.99949998
vt 0.99379998 0.19450003
vt 0.99379998 0.19450003
vt 0.00050000 0.99949998
vt 0.00199997 0.99949998
vt 0.99800003 0.19450003
vt 0.99949998 0.19450003
vt 0.98809999 0.99949998
vt 0.99379998 0.99949998
vt 0.99800003 0.19450003
vt 0.99949998 0.99949998
vt 0.99800003 0.99949998
vt 0.99379998 0.99949998
vt 0.99800003 0.99949998
vt -47.96181107 -15.77539062
vt -47.96181107 -12.76381969
vt -47.55826950 -14.26961040
vt -49.06417084 -16.87763977
vt -49.06417084 -11.66164970
vt -50.57007980 -17.28121948
vt -50.57007980 -11.25811005
vt -52.07558823 -16.87763977
vt -52.07558823 -11.66164970
vt -53.17795181 -15.77539062
vt -53.17795181 -12.76381969
vt -53.58150101 -14.26961040
vt 0.50000000 0.70039999
vt 0.41670001 0.99949998
vt 0.50000000 0.99949998
vt 0.41670001 0.70039999
vt 0.41670001 0.70039999
vt 0.33329999 0.99949998
vt 0.41670001 0.99949998
vt 0.33329999 0.70039999
vt 0.25000000 0.70039999
vt 0.33329999 0.99949998
vt 0.33329999 0.70039999
vt 0.25000000 0.99949998
vt 0.16670001 0.70039999
vt 0.25000000 0.99949998
vt 0.25000000 0.70039999
vt 0.16670001 0.99949998
vt 0.16670001 0.70039999
vt 0.08329999 0.99949998
vt 0.16670001 0.99949998
vt 0.08329999 0.70039999
vt 1.08329999 0.70039999
vt 1.00000000 0.99949998
vt 1.08329999 0.99949998
vt 1.00000000 0.70039999
vt 1.00000000 0.99949998
vt 0.91670001 0.70039999
vt 0.91670001 0.99949998
vt 1.00000000 0.70039999
vt 0.91670001 0.99949998
vt 0.83329999 0.70039999
vt 0.83329999 0.99949998
vt 0.91670001 0.70039999
vt 0.75000000 0.99949998
vt 0.83329999 0.70039999
vt 0.75000000 0.70039999
vt 0.83329999 0.99949998
vt 0.66670001 0.99949998
vt 0.75000000 0.70039999
vt 0.66670001 0.70039999
vt 0.75000000 0.99949998
vt 0.66670001 0.99949998
vt 0.58329999 0.70039999
vt 0.58329999 0.99949998
vt 0.66670001 0.70039999
vt 0.58329999 0.99949998
vt 0.50000000 0.70039999
vt 0.50000000 0.99949998
vt 0.58329999 0.70039999
vt 0.50000000 0.00050002
vt 0.41670001 0.70039999
vt 0.50000000 0.70039999
vt 0.41670001 0.00050008
vt 0.41670001 0.00050002
vt 0.33329999 0.70039999
vt 0.41670001 0.70039999
vt 0.33329999 0.00050008
vt 0.33329999 0.00049990
vt 0.25000000 0.70039999
vt 0.33329999 0.70039999
vt 0.25000000 0.00050008
vt 0.25000000 0.00049990
vt 0.16670001 0.70039999
vt 0.25000000 0.70039999
vt 0.16670001 0.00050008
vt 0.16670001 0.00049990
vt 0.08329998 0.70039999
vt 0.16670001 0.70039999
vt 1.00000000 0.70039999
vt 1.08329999 0.70039999
vt 0.08330000 0.70039999
vt 1.08329999 0.00050002
vt 0.08330000 0.00049990
vt 0.91670001 0.70039999
vt 1.00000000 0.70039999
vt 1.00000000 0.00050002
vt 0.83330011 0.70039999
vt 0.91670012 0.70039999
vt 0.91670001 0.70039999
vt 0.91670012 0.00049990
vt 0.91670001 0.00050002
vt 0.75000012 0.70039999
vt 0.83330011 0.70039999
vt 0.83329988 0.70039999
vt 0.83330011 0.00049990
vt 0.83329988 0.00050008
vt 0.75000012 0.70039999
vt 0.74999988 0.70039999
vt 0.75000012 0.00049990
vt 0.74999988 0.00050008
vt 0.66670012 0.70039999
vt 0.66670001 0.70039999
vt 0.66669989 0.70039999
vt 0.66670001 0.00049990
vt 0.66669989 0.00050008
vt 0.58329999 0.70039999
vt 0.58329999 0.70039999
vt 0.58329999 0.00050002
vt 0.58329999 0.00050008
vt 0.50000000 0.70039999
vt 0.58329999 0.00050002
vt 0.50000000 0.00050002
vt 0.41670001 0.00049990
vt 0.33329999 0.00049990
vt 0.25000000 0.00049990
vt 0.16670001 0.00049990
vt 1.08329999 0.00050002
vt 1.00000000 0.00050002
vt 0.91669989 0.00050008
vt 0.83329988 0.00050008
vt 0.74999988 0.00050008
vt 0.66670001 0.00050008
vt 49.26259995 -13.51469040
vt 49.26259995 -15.02461052
vt 49.06024170 -14.26961040
vt 49.81496048 -12.96216965
vt 49.81496048 -15.57712936
vt 50.57007980 -12.75979996
vt 50.57007980 -15.77940941
vt 51.32479858 -12.96216965
vt 51.32479858 -15.57712936
vt 51.87755966 -13.51469040
vt 51.87755966 -15.02461052
vt 52.07992172 -14.26961040
vt -47.96181107 -15.77539062
vt -47.96181107 -12.76381969
vt -47.55826950 -14.26961040
vt -49.06417084 -16.87763977
vt -49.06417084 -11.66164970
vt -50.57007980 -17.28121948
vt -50.57007980 -11.25811005
vt -52.07558823 -16.87763977
vt -52.07558823 -11.66164970
vt -53.17795181 -15.77539062
vt -53.17795181 -12.76381969
vt -53.58150101 -14.26961040
vt 0.50000000 0.70039999
vt 0.41670001 0.99949998
vt 0.50000000 0.99949998
vt 0.41670001 0.70039999
vt 0.41670001 0.70039999
vt 0.33329999 0.99949998
vt 0.41670001 0.99949998
vt 0.33329999 0.70039999
vt 0.25000000 0.70039999
vt 0.33329999 0.99949998
vt 0.33329999 0.70039999
vt 0.25000000 0.99949998
vt 0.16670001 0.70039999
vt 0.25000000 0.99949998
vt 0.25000000 0.70039999
vt 0.16670001 0.99949998
vt 0.16670001 0.70039999
vt 0.08329999 0.99949998
vt 0.16670001 0.99949998
vt 0.08329999 0.70039999
vt 1.08329999 0.70039999
vt 1.00000000 0.99949998
vt 1.08329999 0.99949998
vt 1.00000000 0.70039999
vt 1.00000000 0.99949998
vt 0.91670001 0.70039999
vt 0.91670001 0.99949998
vt 1.00000000 0.70039999
vt 0.91670001 0.99949998
vt 0.83329999 0.70039999
vt 0.83329999 0.99949998
vt 0.91670001 0.70039999
vt 0.75000000 0.99949998
vt 0.83329999 0.70039999
vt 0.75000000 0.70039999
vt 0.83329999 0.99949998
vt 0.66670001 0.99949998
vt 0.75000000 0.70039999
vt 0.66670001 0.70039999
vt 0.75000000 0.99949998
vt 0.66670001 0.99949998
vt 0.58329999 0.70039999
vt 0.58329999 0.99949998
vt 0.66670001 0.70039999
vt 0.58329999 0.99949998
vt 0.50000000 0.70039999
vt 0.50000000 0.99949998
vt 0.58329999 0.70039999
vt 0.50000000 0.00050002
vt 0.41670001 0.70039999
vt 0.50000000 0.70039999
vt 0.41670001 0.00050008
vt 0.41670001 0.00050002
vt 0.33329999 0.70039999
vt 0.41670001 0.70039999
vt 0.33329999 0.00050008
vt 0.33329999 0.00049990
vt 0.25000000 0.70039999
vt 0.33329999 0.70039999
vt 0.25000000 0.00050008
vt 0.25000000 0.00049990
vt 0.16670001 0.70039999
vt 0.25000000 0.70039999
vt 0.16670001 0.00050008
vt 0.16670001 0.00049990
vt 0.08329998 0.70039999
vt 0.16670001 0.70039999
vt 1.00000000 0.70039999
vt 1.08329999 0.70039999
vt 0.08330000 0.70039999
vt 1.08329999 0.00050002
vt 0.08330000 0.00049990
vt 0.91670001 0.70039999
vt 1.00000000 0.70039999
vt 1.00000000 0.00050002
vt 0.83330011 0.70039999
vt 0.91670012 0.70039999
vt 0.91670001 0.70039999
vt 0.91670012 0.00049990
vt 0.91670001 0.00050002
vt 0.75000012 0.70039999
vt 0.83330011 0.70039999
vt 0.83329988 0.70039999
vt 0.83330011 0.00049990
vt 0.83329988 0.00050008
vt 0.75000012 0.70039999
vt 0.74999988 0.70039999
vt 0.75000012 0.00049990
vt 0.74999988 0.00050008
vt 0.66670012 0.70039999
vt 0.66670001 0.70039999
vt 0.66669989 0.70039999
vt 0.66670001 0.00049990
vt 0.66669989 0.00050008
vt 0.58329999 0.70039999
vt 0.58329999 0.70039999
vt 0.58329999 0.00050002
vt 0.58329999 0.00050008
vt 0.50000000 0.70039999
vt 0.58329999 0.00050002
vt 0.50000000 0.00050002
vt 0.41670001 0.00049990
vt 0.33329999 0.00049990
vt 0.25000000 0.00049990
vt 0.16670001 0.00049990
vt 1.08329999 0.00050002
vt 1.00000000 0.00050002
vt 0.91669989 0.00050008
vt 0.83329988 0.00050008
vt 0.74999988 0.00050008
vt 0.66670001 0.00050008
vt 49.26259995 -13.51469040
vt 49.26259995 -15.02461052
vt 49.06024170 -14.26961040
vt 49.81496048 -12.96216965
vt 49.81496048 -15.57712936
vt 50.57007980 -12.75979996
vt 50.57007980 -15.77940941
vt 51.32479858 -12.96216965
vt 51.32479858 -15.57712936
vt 51.87755966 -13.51469040
vt 51.87755966 -15.02461052
vt 52.07992172 -14.26961040
vt -47.96181107 48.97912979
vt -47.96181107 51.99094009
vt -47.55826950 50.48503876
vt -49.06417084 47.87677002
vt -49.06417084 53.09331131
vt -50.57007980 47.47362137
vt -50.57007980 53.49684906
vt -52.07558823 47.87677002
vt -52.07558823 53.09331131
vt -53.17795181 48.97912979
vt -53.17795181 51.99094009
vt -53.58150101 50.48503876
vt 0.50000000 0.70039999
vt 0.41670001 0.99949998
vt 0.50000000 0.99949998
vt 0.41670001 0.70039999
vt 0.33329999 0.70039999
vt 0.41670001 0.99949998
vt 0.41670001 0.70039999
vt 0.33329999 0.99949998
vt 0.25000000 0.70039999
vt 0.33329999 0.99949998
vt 0.33329999 0.70039999
vt 0.25000000 0.99949998
vt 0.16670001 0.70039999
vt 0.25000000 0.99949998
vt 0.25000000 0.70039999
vt 0.16670001 0.99949998
vt 0.08329999 0.70039999
vt 0.16670001 0.99949998
vt 0.16670001 0.70039999
vt 0.08329999 0.99949998
vt 1.08329999 0.70039999
vt 1.00000000 0.99949998
vt 1.08329999 0.99949998
vt 1.00000000 0.70039999
vt 1.00000000 0.99949998
vt 0.91670001 0.70039999
vt 0.91670001 0.99949998
vt 1.00000000 0.70039999
vt 0.83329999 0.99949998
vt 0.91670001 0.70039999
vt 0.83329999 0.70039999
vt 0.91670001 0.99949998
vt 0.75000000 0.99949998
vt 0.83329999 0.70039999
vt 0.75000000 0.70039999
vt 0.83329999 0.99949998
vt 0.66670001 0.99949998
vt 0.75000000 0.70039999
vt 0.66670001 0.70039999
vt 0.75000000 0.99949998
vt 0.58329999 0.99949998
vt 0.66670001 0.70039999
vt 0.58329999 0.70039999
vt 0.66670001 0.99949998
vt 0.58329999 0.99949998
vt 0.50000000 0.70039999
vt 0.50000000 0.99949998
vt 0.58329999 0.70039999
vt 0.50000000 0.00050002
vt 0.50000000 0.00050002
vt 0.41670001 0.70039999
vt 0.50000000 0.70039999
vt 0.50000000 0.70039999
vt 0.41670001 0.00050008
vt 0.41670001 0.00050002
vt 0.33329999 0.70039999
vt 0.41670001 0.70039999
vt 0.41670001 0.70039999
vt 0.33329999 0.00050008
vt 0.33329999 0.00049990
vt 0.25000000 0.70039999
vt 0.33329999 0.70039999
vt 0.33329999 0.70039999
vt 0.25000000 0.00050008
vt 0.25000000 0.00049990
vt 0.16670001 0.70039999
vt 0.25000000 0.70039999
vt 0.25000000 0.70039999
vt 0.16670001 0.00050008
vt 0.16670001 0.00049990
vt 0.08329998 0.70039999
vt 0.16670001 0.70039999
vt 0.16670001 0.70039999
vt 1.00000000 0.70039999
vt 1.08329999 0.70039999
vt 0.08330000 0.70039999
vt 1.08329999 0.00050002
vt 0.08330000 0.00049990
vt 0.91670001 0.70039999
vt 1.00000000 0.70039999
vt 1.00000000 0.70039999
vt 1.00000000 0.00050002
vt 1.00000000 0.00050002
vt 0.83330011 0.70039999
vt 0.91670012 0.70039999
vt 0.91670001 0.70039999
vt 0.91670012 0.00049990
vt 0.91670001 0.00050002
vt 0.75000012 0.70039999
vt 0.83330011 0.70039999
vt 0.83329988 0.70039999
vt 0.83330011 0.00049990
vt 0.83329988 0.00050008
vt 0.75000012 0.70039999
vt 0.74999988 0.70039999
vt 0.75000012 0.00049990
vt 0.74999988 0.00050008
vt 0.66670012 0.70039999
vt 0.66670001 0.70039999
vt 0.66669989 0.70039999
vt 0.66670001 0.00049990
vt 0.66669989 0.00050008
vt 0.58329999 0.70039999
vt 0.58329999 0.70039999
vt 0.58329999 0.70039999
vt 0.58329999 0.00050002
vt 0.58329999 0.00050008
vt 0.50000000 0.70039999
vt 0.58329999 0.00050002
vt 0.50000000 0.00050002
vt 0.41670001 0.00049990
vt 0.33329999 0.00049990
vt 0.25000000 0.00049990
vt 0.16670001 0.00049990
vt 1.08329999 0.00050002
vt 1.00000000 0.00050002
vt 0.91669989 0.00050008
vt 0.83329988 0.00050008
vt 0.74999988 0.00050008
vt 0.66670001 0.00050008
vt 49.26259995 51.23976135
vt 49.26259995 49.72991943
vt 49.06024170 50.48503876
vt 49.81496048 51.79251862
vt 49.81496048 49.17755890
vt 50.57007980 51.99488068
vt 50.57007980 48.97520065
vt 51.32479858 51.79251862
vt 51.32479858 49.17755890
vt 51.87755966 51.23976135
vt 51.87755966 49.72991943
vt 52.07992172 50.48503876
vt -47.96181107 48.97912979
vt -47.96181107 51.99094009
vt -47.55826950 50.48503876
vt -49.06417084 47.87677002
vt -49.06417084 53.09331131
vt -50.57007980 47.47362137
vt -50.57007980 53.49684906
vt -52.07558823 47.87677002
vt -52.07558823 53.09331131
vt -53.17795181 48.97912979
vt -53.17795181 51.99094009
vt -53.58150101 50.48503876
vt 0.50000000 0.70039999
vt 0.41670001 0.99949998
vt 0.50000000 0.99949998
vt 0.41670001 0.70039999
vt 0.33329999 0.70039999
vt 0.41670001 0.99949998
vt 0.41670001 0.70039999
vt 0.33329999 0.99949998
vt 0.25000000 0.70039999
vt 0.33329999 0.99949998
vt 0.33329999 0.70039999
vt 0.25000000 0.99949998
vt 0.16670001 0.70039999
vt 0.25000000 0.99949998
vt 0.25000000 0.70039999
vt 0.16670001 0.99949998
vt 0.08329999 0.70039999
vt 0.16670001 0.99949998
vt 0.16670001 0.70039999
vt 0.08329999 0.99949998
vt 1.08329999 0.70039999
vt 1.00000000 0.99949998
vt 1.08329999 0.99949998
vt 1.00000000 0.70039999
vt 1.00000000 0.99949998
vt 0.91670001 0.70039999
vt 0.91670001 0.99949998
vt 1.00000000 0.70039999
vt 0.83329999 0.99949998
vt 0.91670001 0.70039999
vt 0.83329999 0.70039999
vt 0.91670001 0.99949998
vt 0.75000000 0.99949998
vt 0.83329999 0.70039999
vt 0.75000000 0.70039999
vt 0.83329999 0.99949998
vt 0.66670001 0.99949998
vt 0.75000000 0.70039999
vt 0.66670001 0.70039999
vt 0.75000000 0.99949998
vt 0.58329999 0.99949998
vt 0.66670001 0.70039999
vt 0.58329999 0.70039999
vt 0.66670001 0.99949998
vt 0.58329999 0.99949998
vt 0.50000000 0.70039999
vt 0.50000000 0.99949998
vt 0.58329999 0.70039999
vt 0.50000000 0.00050002
vt 0.50000000 0.00050002
vt 0.41670001 0.70039999
vt 0.50000000 0.70039999
vt 0.50000000 0.70039999
vt 0.41670001 0.00050008
vt 0.41670001 0.00050002
vt 0.33329999 0.70039999
vt 0.41670001 0.70039999
vt 0.41670001 0.70039999
vt 0.33329999 0.00050008
vt 0.33329999 0.00049990
vt 0.25000000 0.70039999
vt 0.33329999 0.70039999
vt 0.33329999 0.70039999
vt 0.25000000 0.00050008
vt 0.25000000 0.00049990
vt 0.16670001 0.70039999
vt 0.25000000 0.70039999
vt 0.25000000 0.70039999
vt 0.16670001 0.00050008
vt 0.16670001 0.00049990
vt 0.08329998 0.70039999
vt 0.16670001 0.70039999
vt 0.16670001 0.70039999
vt 1.00000000 0.70039999
vt 1.08329999 0.70039999
vt 0.08330000 0.70039999
vt 1.08329999 0.00050002
vt 0.08330000 0.00049990
vt 0.91670001 0.70039999
vt 1.00000000 0.70039999
vt 1.00000000 0.70039999
vt 1.00000000 0.00050002
vt 1.00000000 0.00050002
vt 0.83330011 0.70039999
vt 0.91670012 0.70039999
vt 0.91670001 0.70039999
vt 0.91670012 0.00049990
vt 0.91670001 0.00050002
vt 0.75000012 0.70039999
vt 0.83330011 0.70039999
vt 0.83329988 0.70039999
vt 0.83330011 0.00049990
vt 0.83329988 0.00050008
vt 0.75000012 0.70039999
vt 0.74999988 0.70039999
vt 0.75000012 0.00049990
vt 0.74999988 0.00050008
vt 0.66670012 0.70039999
vt 0.66670001 0.70039999
vt 0.66669989 0.70039999
vt 0.66670001 0.00049990
vt 0.66669989 0.00050008
vt 0.58329999 0.70039999
vt 0.58329999 0.70039999
vt 0.58329999 0.70039999
vt 0.58329999 0.00050002
vt 0.58329999 0.00050008
vt 0.50000000 0.70039999
vt 0.58329999 0.00050002
vt 0.50000000 0.00050002
vt 0.41670001 0.00049990
vt 0.33329999 0.00049990
vt 0.25000000 0.00049990
vt 0.16670001 0.00049990
vt 1.08329999 0.00050002
vt 1.00000000 0.00050002
vt 0.91669989 0.00050008
vt 0.83329988 0.00050008
vt 0.74999988 0.00050008
vt 0.66670001 0.00050008
vt 49.26259995 51.23976135
vt 49.26259995 49.72991943
vt 49.06024170 50.48503876
vt 49.81496048 51.79251862
vt 49.81496048 49.17755890
vt 50.57007980 51.99488068
vt 50.57007980 48.97520065
vt 51.32479858 51.79251862
vt 51.32479858 49.17755890
vt 51.87755966 51.23976135
vt 51.87755966 49.72991943
vt 52.07992172 50.48503876
f 1/1 2/2 3/3
f 4/4 2/2 1/1
f 5/5 6/6 7/7
f 1/1 3/3 8/8
f 9/9 10/10 11/11
f 4/4 1/1 12/12
f 7/7 13/13 14/14
f 13/13 7/7 6/6
f 5/5 15/15 6/6
f 3/3 16/16 8/8
f 16/16 3/3 17/17
f 18/18 19/19 20/20
f 10/10 9/9 21/21
f 10/10 22/22 11/11
f 23/23 18/18 20/20
f 24/24 4/4 12/12
f 25/25 26/26 27/27
f 26/26 25/25 28/28
f 29/29 28/28 30/30
f 19/19 31/31 32/32
f 31/31 19/19 33/33
f 19/19 32/32 20/20
f 34/34 4/4 24/24
f 10/10 21/21 35/35
f 36/36 37/37 38/38
f 23/23 20/20 39/39
f 40/40 23/23 41/41
f 29/29 26/26 28/28
f 42/42 43/43 44/44
f 43/43 42/42 45/45
f 46/46 47/47 48/48
f 47/47 46/46 49/49
f 50/50 46/46 51/51
f 52/52 53/53 54/54
f 55/55 56/56 57/57
f 58/58 36/36 59/59
f 60/60 37/37 36/36
f 61/61 50/50 51/51
f 41/41 23/23 39/39
f 62/62 40/40 41/41
f 63/63 43/43 64/64
f 63/63 44/44 43/43
f 65/65 66/66 67/67
f 66/66 65/65 68/68
f 69/69 70/70 71/71
f 70/70 69/69 72/72
f 46/46 48/48 51/51
f 57/57 56/56 73/73
f 54/54 53/53 74/74
f 75/75 76/76 77/77
f 60/60 36/36 58/58
f 78/78 63/63 64/64
f 61/61 51/51 79/79
f 80/80 61/61 81/81
f 62/62 41/41 82/82
f 83/83 84/84 66/66
f 66/66 84/84 67/67
f 85/85 86/86 87/87
f 86/86 85/85 88/88
f 89/89 90/90 91/91
f 90/90 89/89 92/92
f 93/93 69/69 71/71
f 93/93 94/94 69/69
f 95/95 73/73 96/96
f 73/73 95/95 57/57
f 97/97 74/74 98/98
f 74/74 97/97 54/54
f 75/75 77/77 99/99
f 100/100 101/101 78/78
f 78/78 102/102 63/63
f 103/103 94/94 93/93
f 81/81 61/61 79/79
f 104/104 80/80 81/81
f 105/105 62/62 82/82
f 62/62 105/105 106/106
f 107/107 84/84 83/83
f 108/108 109/109 86/86
f 86/86 109/109 87/87
f 110/110 111/111 112/112
f 111/111 110/110 113/113
f 114/114 115/115 116/116
f 115/115 114/114 117/117
f 118/118 92/92 89/89
f 118/118 119/119 92/92
f 95/95 96/96 120/120
f 121/121 77/77 122/122
f 77/77 121/121 99/99
f 97/97 98/98 123/123
f 124/124 125/125 126/126
f 101/101 102/102 78/78
f 103/103 93/93 127/127
f 128/128 129/129 130/130
f 104/104 81/81 131/131
f 132/132 106/106 105/105
f 133/133 104/104 131/131
f 104/104 133/133 134/134
f 107/107 135/135 84/84
f 136/136 109/109 108/108
f 137/137 111/111 138/138
f 137/137 112/112 111/111
f 139/139 115/115 117/117
f 140/140 119/119 118/118
f 97/97 123/123 141/141
f 95/95 120/120 142/142
f 121/121 122/122 143/143
f 144/144 126/126 145/145
f 126/126 144/144 146/146
f 132/132 147/147 106/106
f 124/124 126/126 146/146
f 148/148 149/149 107/107
f 130/130 129/129 150/150
f 130/130 151/151 128/128
f 152/152 153/153 134/134
f 154/154 155/155 151/151
f 155/155 154/154 156/156
f 152/152 134/134 133/133
f 149/149 135/135 107/107
f 136/136 157/157 109/109
f 158/158 137/137 138/138
f 139/139 117/117 159/159
f 160/160 140/140 118/118
f 161/161 162/162 163/163
f 164/164 165/165 166/166
f 143/143 122/122 167/167
f 168/168 145/145 169/169
f 144/144 145/145 168/168
f 170/170 171/171 172/172
f 171/171 170/170 173/173
f 174/174 147/147 132/132
f 170/170 149/149 148/148
f 175/175 176/176 177/177
f 154/154 151/151 130/130
f 178/178 153/153 152/152
f 179/179 180/180 181/181
f 180/180 179/179 182/182
f 183/183 155/155 156/156
f 183/183 184/184 155/155
f 185/185 186/186 136/136
f 186/186 157/157 136/136
f 158/158 187/187 137/137
f 188/188 139/139 159/159
f 189/189 139/139 188/188
f 175/175 177/177 190/190
f 166/166 165/165 191/191
f 192/192 161/161 163/163
f 193/193 194/194 195/195
f 196/196 197/197 198/198
f 199/199 173/173 200/200
f 170/170 172/172 149/149
f 199/199 171/171 173/173
f 201/201 202/202 203/203
f 202/202 201/201 204/204
f 205/205 174/174 132/132
f 175/175 181/181 176/176
f 206/206 178/178 152/152
f 207/207 180/180 182/182
f 179/179 181/181 175/175
f 208/208 209/209 210/210
f 209/209 208/208 211/211
f 207/207 212/212 180/180
f 213/213 184/184 183/183
f 201/201 186/186 185/185
f 214/214 215/215 216/216
f 215/215 217/217 216/216
f 218/218 219/219 220/220
f 191/191 221/221 166/166
f 222/222 161/161 192/192
f 193/193 195/195 223/223
f 224/224 197/197 196/196
f 225/225 199/199 200/200
f 226/226 204/204 227/227
f 201/201 203/203 186/186
f 226/226 202/202 204/204
f 228/228 229/229 230/230
f 229/229 228/228 231/231
f 232/232 174/174 205/205
f 233/233 178/178 206/206
f 211/211 234/234 209/209
f 208/208 210/210 219/219
f 207/207 235/235 212/212
f 236/236 213/213 183/183
f 228/228 215/215 214/214
f 237/237 219/219 218/218
f 222/222 238/238 161/161
f 166/166 221/221 239/239
f 232/232 240/240 174/174
f 223/223 195/195 241/241
f 242/242 224/224 196/196
f 243/243 199/199 225/225
f 244/244 226/226 227/227
f 245/245 246/246 231/231
f 228/228 230/230 215/215
f 231/231 246/246 229/229
f 233/233 247/247 178/178
f 248/248 249/249 250/250
f 251/251 234/234 211/211
f 208/208 219/219 237/237
f 252/252 235/235 207/207
f 248/248 250/250 253/253
f 222/222 254/254 238/238
f 255/255 256/256 257/257
f 195/195 258/258 241/241
f 232/232 259/259 240/240
f 242/242 196/196 260/260
f 261/261 225/225 262/262
f 261/261 243/243 225/225
f 263/263 226/226 244/244
f 264/264 246/246 245/245
f 233/233 265/265 247/247
f 248/248 266/266 249/249
f 267/267 234/234 251/251
f 267/267 268/268 234/234
f 269/269 270/270 271/271
f 271/271 270/270 272/272
f 255/255 273/273 256/256
f 274/274 254/254 222/222
f 275/275 276/276 277/277
f 278/278 259/259 232/232
f 242/242 260/260 279/279
f 261/261 262/262 281/281
f 282/282 244/244 283/283
f 282/282 263/263 244/244
f 284/284 246/246 264/264
f 285/285 265/265 233/233
f 286/286 266/266 248/248
f 287/287 288/288 289/289
f 270/270 290/290 272/272
f 273/273 291/291 256/256
f 274/274 292/292 254/254
f 275/275 277/277 293/293
f 278/278 294/294 259/259
f 294/294 278/278 295/295
f 296/296 242/242 279/279
f 298/298 261/261 281/281
f 282/282 283/283 299/299
f 300/300 301/301 302/302
f 300/300 303/303 301/301
f 285/285 304/304 265/265
f 304/304 285/285 305/305
f 286/286 306/306 266/266
f 306/306 286/286 307/307
f 288/288 308/308 289/289
f 270/270 309/309 290/290
f 310/310 311/311 312/312
f 313/313 314/314 315/315
f 316/316 317/317 318/318
f 293/293 277/277 319/319
f 320/320 280/280 321/321
f 280/280 320/320 297/297
f 322/322 298/298 281/281
f 298/298 322/322 323/323
f 324/324 282/282 299/299
f 300/300 302/302 325/325
f 290/290 326/326 327/327
f 326/326 290/290 309/309
f 289/289 308/308 328/328
f 289/289 328/328 329/329
f 330/330 324/324 299/299
f 324/324 330/330 331/331
f 332/332 300/300 325/325
f 333/333 328/328 334/334
f 328/328 333/333 329/329
f 335/335 332/332 325/325
f 332/332 335/335 336/336
f 337/337 338/338 339/339
f 338/338 337/337 340/340
f 338/338 340/340 341/341
f 341/341 340/340 342/342
f 341/341 342/342 343/343
f 343/343 342/342 344/344
f 343/343 344/344 345/345
f 345/345 344/344 346/346
f 345/345 346/346 347/347
f 347/347 346/346 348/348
f 349/349 350/350 351/351
f 350/350 349/349 352/352
f 353/353 354/354 355/355
f 354/354 353/353 356/356
f 357/357 358/358 359/359
f 358/358 357/357 360/360
f 361/361 362/362 363/363
f 362/362 361/361 364/364
f 365/365 366/366 367/367
f 366/366 365/365 368/368
f 369/369 370/370 371/371
f 370/370 369/369 372/372
f 373/373 374/374 375/375
f 374/374 373/373 376/376
f 377/377 378/378 379/379
f 378/378 377/377 380/380
f 381/381 382/382 383/383
f 382/382 381/381 384/384
f 385/385 386/386 387/387
f 386/386 385/385 388/388
f 389/389 390/390 391/391
f 390/390 389/389 392/392
f 393/393 394/394 395/395
f 394/394 393/393 396/396
f 397/397 398/398 399/399
f 400/400 402/402 403/403
f 404/404 406/406 407/407
f 408/408 410/410 411/411
f 412/412 414/414 415/415
f 416/416 417/417 419/419
f 421/421 422/422 423/423
f 424/424 425/425 427/427
f 429/429 430/430 432/432
f 434/434 436/436 438/438
f 439/439 441/441 443/443
f 444/444 445/445 447/447
f 448/448 397/397 399/399
f 449/449 401/401 403/403
f 450/450 405/405 407/407
f 451/451 409/409 411/411
f 413/413 415/415 452/452
f 420/420 418/418 453/453
f 422/422 454/454 423/423
f 426/426 455/455 428/428
f 431/431 456/456 433/433
f 435/435 457/457 437/437
f 440/440 458/458 442/442
f 444/444 459/459 446/446
f 460/460 461/461 462/462
f 461/461 460/460 463/463
f 461/461 463/463 464/464
f 464/464 463/463 465/465
f 464/464 465/465 466/466
f 466/466 465/465 467/467
f 466/466 467/467 468/468
f 468/468 467/467 469/469
f 468/468 469/469 470/470
f 470/470 469/469 471/471
f 472/472 473/473 474/474
f 473/473 472/472 475/475
f 473/473 475/475 476/476
f 476/476 475/475 477/477
f 476/476 477/477 478/478
f 478/478 477/477 479/479
f 478/478 479/479 480/480
f 480/480 479/479 481/481
f 480/480 481/481 482/482
f 482/482 481/481 483/483
f 484/484 485/485 486/486
f 485/485 484/484 487/487
f 488/488 489/489 490/490
f 489/489 488/488 491/491
f 492/492 493/493 494/494
f 493/493 492/492 495/495
f 496/496 497/497 498/498
f 497/497 496/496 499/499
f 500/500 501/501 502/502
f 501/501 500/500 503/503
f 504/504 505/505 506/506
f 505/505 504/504 507/507
f 508/508 509/509 510/510
f 509/509 508/508 511/511
f 512/512 513/513 514/514
f 513/513 512/512 515/515
f 516/516 517/517 518/518
f 517/517 516/516 519/519
f 520/520 521/521 522/522
f 521/521 520/520 523/523
f 524/524 525/525 526/526
f 525/525 524/524 527/527
f 528/528 529/529 530/530
f 529/529 528/528 531/531
f 532/532 533/533 534/534
f 535/535 537/537 538/538
f 539/539 541/541 542/542
f 543/543 545/545 546/546
f 547/547 549/549 550/550
f 551/551 552/552 554/554
f 556/556 557/557 558/558
f 559/559 560/560 562/562
f 564/564 565/565 567/567
f 569/569 571/571 573/573
f 574/574 576/576 578/578
f 579/579 580/580 582/582
f 583/583 532/532 534/534
f 584/584 536/536 538/538
f 585/585 540/540 542/542
f 586/586 544/544 546/546
f 548/548 550/550 587/587
f 555/555 553/553 588/588
f 557/557 589/589 558/558
f 561/561 590/590 563/563
f 566/566 591/591 568/568
f 570/570 592/592 572/572
f 575/575 593/593 577/577
f 579/579 594/594 581/581
f 595/595 596/596 597/597
f 596/596 595/595 598/598
f 596/596 598/598 599/599
f 599/599 598/598 600/600
f 599/599 600/600 601/601
f 601/601 600/600 602/602
f 601/601 602/602 603/603
f 603/603 602/602 604/604
f 603/603 604/604 605/605
f 605/605 604/604 606/606
f 607/607 608/608 609/609
f 608/608 607/607 610/610
f 608/608 610/610 611/611
f 611/611 610/610 612/612
f 611/611 612/612 613/613
f 613/613 612/612 614/614
f 613/613 614/614 615/615
f 615/615 614/614 616/616
f 615/615 616/616 617/617
f 617/617 616/616 618/618
f 619/619 620/620 621/621
f 620/620 619/619 622/622
f 623/623 624/624 625/625
f 624/624 623/623 626/626
f 627/627 628/628 629/629
f 628/628 627/627 630/630
f 631/631 632/632 633/633
f 632/632 631/631 634/634
f 635/635 636/636 637/637
f 636/636 635/635 638/638
f 639/639 640/640 641/641
f 640/640 639/639 642/642
f 643/643 644/644 645/645
f 644/644 643/643 646/646
f 647/647 648/648 649/649
f 648/648 647/647 650/650
f 651/651 652/652 653/653
f 652/652 651/651 654/654
f 655/655 656/656 657/657
f 656/656 655/655 658/658
f 659/659 660/660 661/661
f 660/660 659/659 662/662
f 663/663 664/664 665/665
f 664/664 663/663 666/666
f 667/667 668/668 669/669
f 668/668 667/667 670/670
f 668/668 670/670 671/671
f 671/671 670/670 672/672
f 671/671 672/672 673/673
f 673/673 672/672 674/674
f 673/673 674/674 675/675
f 675/675 674/674 676/676
f 675/675 676/676 677/677
f 677/677 676/676 678/678
f 679/679 680/680 681/681
f 680/680 679/679 682/682
f 680/680 682/682 683/683
f 683/683 682/682 684/684
f 683/683 684/684 685/685
f 685/685 684/684 686/686
f 685/685 686/686 687/687
f 687/687 686/686 688/688
f 687/687 688/688 689/689
f 689/689 688/688 690/690
f 691/691 692/692 693/693
f 692/692 691/691 694/694
f 695/695 696/696 697/697
f 696/696 695/695 698/698
f 699/699 700/700 701/701
f 700/700 699/699 702/702
f 703/703 704/704 705/705
f 704/704 703/703 706/706
f 707/707 708/708 709/709
f 708/708 707/707 710/710
f 711/711 712/712 713/713
f 712/712 711/711 714/714
f 715/715 716/716 717/717
f 716/716 715/715 718/718
f 719/719 720/720 721/721
f 720/720 719/719 722/722
f 723/723 724/724 725/725
f 724/724 723/723 726/726
f 727/727 728/728 729/729
f 728/728 727/727 730/730
f 731/731 732/732 733/733
f 732/732 731/731 734/734
f 735/735 736/736 737/737
f 736/736 735/735 738/738
f 739/739 741/741 742/742
f 744/744 746/746 747/747
f 749/749 751/751 752/752
f 754/754 756/756 757/757
f 759/759 761/761 762/762
f 764/764 765/765 767/767
f 769/769 770/770 772/772
f 774/774 775/775 777/777
f 779/779 780/780 782/782
f 784/784 786/786 788/788
f 789/789 791/791 793/793
f 794/794 796/796 798/798
f 799/799 740/740 743/743
f 800/800 745/745 748/748
f 801/801 750/750 753/753
f 802/802 755/755 758/758
f 760/760 763/763 803/803
f 768/768 766/766 804/804
f 771/771 805/805 773/773
f 776/776 806/806 778/778
f 781/781 807/807 783/783
f 785/785 808/808 787/787
f 790/790 809/809 792/792
f 795/795 810/810 797/797
f 811/811 812/812 813/813
f 812/812 811/811 814/814
f 812/812 814/814 815/815
f 815/815 814/814 816/816
f 815/815 816/816 817/817
f 817/817 816/816 818/818
f 817/817 818/818 819/819
f 819/819 818/818 820/820
f 819/819 820/820 821/821
f 821/821 820/820 822/822
f 823/823 824/824 825/825
f 824/824 823/823 826/826
f 824/824 826/826 827/827
f 827/827 826/826 828/828
f 827/827 828/828 829/829
f 829/829 828/828 830/830
f 829/829 830/830 831/831
f 831/831 830/830 832/832
f 831/831 832/832 833/833
f 833/833 832/832 834/834
f 835/835 836/836 837/837
f 836/836 835/835 838/838
f 839/839 840/840 841/841
f 840/840 839/839 842/842
f 843/843 844/844 845/845
f 844/844 843/843 846/846
f 847/847 848/848 849/849
f 848/848 847/847 850/850
f 851/851 852/852 853/853
f 852/852 851/851 854/854
f 855/855 856/856 857/857
f 856/856 855/855 858/858
f 859/859 860/860 861/861
f 860/860 859/859 862/862
f 863/863 864/864 865/865
f 864/864 863/863 866/866
f 867/867 868/868 869/869
f 868/868 867/867 870/870
f 871/871 872/872 873/873
f 872/872 871/871 874/874
f 875/875 876/876 877/877
f 876/876 875/875 878/878
f 879/879 880/880 881/881
f 880/880 879/879 882/882
f 883/883 884/884 885/885
f 884/884 883/883 886/886
f 884/884 886/886 887/887
f 887/887 886/886 888/888
f 887/887 888/888 889/889
f 889/889 888/888 890/890
f 889/889 890/890 891/891
f 891/891 890/890 892/892
f 891/891 892/892 893/893
f 893/893 892/892 894/894

