# https://github.com/mikedh/trimesh
v 1.97260838 5.06698939 -0.44244145
v 0.64750285 4.98661651 -0.44248148
v 0.64767501 5.06714434 -0.44263444
v 1.97240865 4.98660393 -0.44252746
v 0.64715398 4.98666201 -1.46665435
v 0.64738266 5.06693022 -0.44257881
v 0.64754689 4.98684310 -0.44255185
v 0.64768398 5.06691286 -1.46642500
v 1.97272005 4.98670692 -1.46658221
v 0.64735546 5.06694264 -1.46644385
v 0.64734284 4.98666339 -1.46649833
v 1.97266798 5.06703918 -1.46642445
v -1.07925159 4.98667481 -0.34203479
v -1.48047650 5.06682759 -0.34192999
v -1.48049769 4.98680560 -0.34210938
v -1.07920279 5.06721770 -0.34186591
v -1.48043225 4.98688224 -0.34209604
v -2.80598159 5.06700772 -0.34205310
v -2.80599308 4.98675015 -0.34208563
v -1.48059098 5.06683835 -0.34224235
v 0.24588216 4.98652547 -0.34189762
v -1.07922891 5.06705559 -0.34218447
v -1.07893037 4.98688299 -0.34205642
v 0.24562846 5.06701583 -0.34204919
v -3.12688467 4.98660470 -0.34188576
v -3.20753577 5.06691338 -0.34201310
v -3.20733915 4.98698091 -0.34212028
v -2.80589902 5.06695415 -0.34230401
v -2.80599155 4.98678393 -0.34206391
v 0.64767366 4.98658508 -0.34190484
v 0.24590356 5.06723441 -0.34220949
v 0.24583923 4.98672928 -0.34199926
v 0.64751091 5.06692430 -0.34233991
v -3.12723003 3.94275772 -0.34200525
v -3.20736978 4.98653917 -0.34202200
v -3.20753002 3.94258317 -0.34205819
v -3.12735187 4.98674889 -0.34223086
v 1.97260602 4.98668255 -0.34211833
v 0.64758746 5.06689948 -0.34194333
v 0.64759204 4.98681456 -0.34198011
v 1.97270341 5.06712955 -0.34213650
v -3.12723366 2.79825606 -0.34225783
v -3.20755046 3.94272265 -0.34222898
v -3.20749404 2.79812570 -0.34210881
v -3.12697731 3.94287542 -0.34214935
v 2.29398015 4.98689475 -0.34198222
v 1.97225074 5.06718477 -0.34209859
v 1.97265117 4.98674672 -0.34209240
v 2.37418404 5.06695683 -0.34242038
v 2.37412255 4.98657803 -0.34199227
v -3.12707027 1.54345704 -0.34226933
v -3.20741950 2.79827380 -0.34236061
v -3.20730302 1.54342982 -0.34231759
v -3.12737313 2.79834911 -0.34219008
v 2.37406209 3.94265164 -0.34188655
v 2.29382342 4.98670586 -0.34236086
v 2.29406708 3.94281727 -0.34199417
v 2.37414503 4.98682503 -0.34209409
v -3.12694077 -0.26353740 -0.34236003
v -3.20719847 1.54316724 -0.34218180
v -3.20737556 -0.26366528 -0.34206039
v -3.12705757 1.54338233 -0.34207271
v 2.37406976 2.79847487 -0.34209689
v 2.29376246 3.94240640 -0.34233511
v 2.29398661 2.79826819 -0.34218800
v 2.37437411 3.94250139 -0.34223144
v -3.12709666 -0.90590337 -0.34224368
v -3.20743426 -0.26374601 -0.34204370
v -3.20723045 -0.90605594 -0.34212497
v -3.12721440 -0.26358329 -0.34195058
v -3.12700932 -0.26318384 -0.44264642
v -3.12694549 1.54341698 -0.34206611
v -3.12702984 -0.26359612 -0.34227299
v -3.12658861 1.54343395 -0.44282294
v 2.37404506 1.32269199 -0.34221914
v 2.29402589 2.79841937 -0.34216922
v 2.29376277 1.32245038 -0.34224785
v 2.37392668 2.79844837 -0.34191897
v -3.12720916 -2.05056730 -0.34240233
v -3.20748458 -0.90643354 -0.34231242
v -3.20715999 -2.05044727 -0.34202572
v -3.12709901 -0.90573476 -0.34211982
v -3.12708365 1.54381152 -0.44257998
v -3.20752153 -0.26348656 -0.44253897
v -3.20719309 1.54331273 -0.44241786
v -3.12690638 -0.26361141 -0.44250996
v 2.37401891 0.41945114 -0.34224951
v 2.29376552 1.32244162 -0.34219704
v 2.29382972 0.41922458 -0.34223607
v 2.37411151 1.32239127 -0.34226614
v -3.12663315 -2.69272007 -0.34226061
v -3.20753821 -2.05053771 -0.34215153
v -3.20734121 -2.69297644 -0.34233314
v -3.12682459 -2.05033279 -0.34220220
v -3.20737787 -0.26359158 -0.44295494
v -3.12701220 -0.26366925 -1.62723874
v -3.20743812 -0.26341041 -1.62726284
v -3.12723473 -0.26342368 -0.44242509
v -3.12716649 1.54352580 -0.44257527
v -3.20730293 1.54326416 -1.62697493
v -3.12685605 1.54353667 -1.62701435
v -3.20788779 1.54348247 -0.44253705
v 2.37411707 0.29855922 -0.34214047
v 2.29388974 0.41907647 -0.34221494
v 2.29400713 0.29849105 -0.34200051
v 2.37416357 0.41899886 -0.34219005
v -3.12716090 -3.83718671 -0.34209847
v -3.20742613 -2.69302782 -0.34210510
v -3.20720874 -3.83729997 -0.34208835
v -3.12708280 -2.69285987 -0.34219024
v -3.12698659 -0.26373231 -1.62700229
v -3.20737920 -0.90593606 -1.62714376
v -3.20730020 -0.26366954 -1.62692405
v -3.12727339 -0.90613676 -1.62706106
v -3.12681878 2.79831630 -1.62712988
v -3.20755080 1.54341774 -1.62709737
v -3.20710347 2.79836569 -1.62731383
v -3.12673782 1.54338849 -1.62722078
v -3.12681706 -7.46122785 -0.34219812
v -3.20731478 -3.83716233 -0.34200580
v -3.20754363 -7.46093377 -0.34200942
v -3.12708325 -3.83740117 -0.34228754
v -3.12701109 -0.90608059 -1.62720471
v -3.20722972 -2.05034530 -1.62715174
v -3.20724077 -0.90579123 -1.62725204
v -3.12711543 -2.05026231 -1.62699187
v -3.12699626 3.94285244 -1.62725034
v -3.20755856 2.79815196 -1.62707669
v -3.20746049 3.94261559 -1.62723408
v -3.12711789 2.79813211 -1.62704153
v -3.02656312 -7.54160462 -0.34217512
v -3.20742961 -7.46114443 -0.34213258
v -3.20715637 -7.54169293 -0.34209332
v -3.12696506 -7.46127245 -0.34206159
v -3.02688378 -7.46091650 -0.34233805
v -3.12689675 -2.05055861 -1.62692985
v -3.20740143 -2.69284682 -1.62708754
v -3.20718815 -2.05044381 -1.62752110
v -3.12713793 -2.69284319 -1.62715844
v -3.12691828 4.98683920 -1.62711516
v -3.20756007 3.94288428 -1.62693860
v -3.20738915 4.98699612 -1.62714403
v -3.12719207 3.94266317 -1.62693935
v -2.49476106 -7.54125550 -0.34227408
v -3.02654022 -7.46114253 -0.34216749
v -3.02652211 -7.54175098 -0.34195045
v -2.49463561 -7.46129858 -0.34203780
v -3.12687663 -2.69275905 -1.62680813
v -3.20719103 -3.83709935 -1.62717290
v -3.20733090 -2.69278874 -1.62709775
v -3.12698550 -3.83722245 -1.62697418
v -2.80582269 5.06695814 -1.62721283
v -3.20747422 4.98686175 -1.62710608
v -3.20723321 5.06682209 -1.62737218
v -3.12717943 4.98685805 -1.62694060
v -2.80576043 4.98657825 -1.62711272
v 1.04899289 -7.54158517 -0.34250517
v -2.49474964 -7.46124800 -0.34192765
v -2.49460339 -7.54133451 -0.34220189
v 0.96869175 -7.46178056 -0.34207884
v 1.04911419 -7.46096747 -0.34221525
v -3.12701529 -3.83738493 -1.62726427
v -3.20744858 -7.46127024 -1.62690037
v -3.20734587 -3.83739713 -1.62707502
v -3.12699757 -7.46131779 -1.62693084
v -1.48096204 5.06697770 -1.62699842
v -2.80600027 4.98674529 -1.62690832
v -2.80574297 5.06676570 -1.62719846
v -1.48051399 4.98673625 -1.62709536
v 1.04909899 -7.46111718 -0.34224708
v 0.96868633 -5.86505822 -0.34222346
v 0.96870887 -7.46103436 -0.34228432
v 1.04931226 -5.86480891 -0.34239137
v -3.12704906 -7.46117150 -1.62720422
v -3.20745259 -7.54156851 -1.62698885
v -3.20741961 -7.46095844 -1.62705334
v -3.12704354 -7.54132635 -1.62700506
v -1.07910469 5.06696082 -1.62683347
v -1.48057436 4.98666422 -1.62732039
v -1.48063737 5.06684415 -1.62734027
v -1.07919779 4.98673383 -1.62690981
v 0.24598538 5.06712409 -1.62726991
v -1.07916095 4.98671125 -1.62697015
v -1.07914105 5.06712381 -1.62716630
v 0.24599622 4.98675298 -1.62727338
v 0.64751300 5.06696237 -1.62736728
v 0.24608243 4.98664147 -1.62721633
v 0.24589065 5.06702820 -1.62687741
v 0.64746397 4.98676125 -1.62689673
v 1.97266694 5.06716178 -1.62716232
v 0.64759850 4.98668510 -1.62693969
v 0.64734371 5.06689644 -1.62691175
v 1.97256218 4.98664188 -1.62708281
v 2.37403919 5.06719959 -1.62727325
v 1.97256871 4.98674323 -1.62710894
v 1.97247514 5.06688368 -1.62703283
v 2.29368262 4.98678620 -1.62731277
v 2.37405850 4.98669863 -1.62727372
v 2.37423180 4.98669076 -1.62724270
v 2.29361249 3.94246077 -1.62708677
v 2.29366448 4.98649746 -1.62712714
v 2.37446517 3.94272539 -1.62698456
v 2.37416872 3.94279796 -1.46666849
v 2.29376876 3.94272307 -1.62709667
v 2.37411062 3.94258994 -1.62713119
v 2.29371941 3.94233783 -1.58711091
v 2.37420648 3.94290910 -1.62683371
v 2.29384446 2.79840463 -1.62696393
v 2.29373118 3.94244177 -1.62708966
v 2.37388518 2.79823043 -1.62700698
v 2.29362668 3.94269018 -1.58676138
v 2.37419009 3.94276054 -1.62696391
v 2.29407937 3.94270729 -1.62691757
v 2.37412897 3.94260713 -1.46643046
v 2.37405120 2.79819408 -1.62718154
v 2.29350100 1.32260998 -1.62727597
v 2.29381517 2.79848455 -1.62716909
v 2.37406037 1.32279066 -1.62701608
v 2.37427839 1.32254363 -0.44242599
v 2.29373205 1.32249778 -1.62700891
v 2.37405227 1.32270497 -1.62675113
v 2.29358848 1.32248665 -0.44237257
v 2.37411735 1.32276135 -0.44267842
v 2.29387814 0.41909273 -0.44251324
v 2.29387811 1.32241948 -0.44268762
v 2.37433908 0.41915644 -0.44251813
v 2.34401955 0.41916553 -0.47281426
v 2.35391662 0.41930171 -0.59309060
v 2.34414796 0.41902746 -0.59291465
v 2.29388014 0.41918344 -0.46252954
v 2.37402375 0.41884666 -1.62724898
v 2.29406467 0.41930128 -1.62714448
v 2.31386538 0.41926325 -0.63329015
v 2.31372215 0.41929612 -0.59304381
v 2.33362554 0.41906945 -0.59309169
v 2.33405591 0.41913619 -0.47273957
v 2.35404344 0.41915674 -0.63330445
v 2.37408479 0.41929411 -0.44266931
v 2.29378039 0.41882270 -0.44245573
v 2.37425710 0.41919328 -1.62696292
v 2.29389384 0.29869923 -1.62702666
v 2.29379219 0.41928515 -1.62714472
v 2.37392823 0.29877206 -1.62682899
v 2.29369271 0.29863523 -0.46270673
v 2.29377592 0.29865637 -0.34232671
v 2.29379070 0.21813227 -0.34223000
v 2.29366028 0.41896229 -0.34239535
v 2.29400563 0.41918743 -0.46288362
v 2.29374488 0.29855357 -0.46270752
v 2.29362283 0.21845105 -0.34220525
v 2.29389778 0.29872538 -0.34195094
v 1.97232976 -0.90573793 -0.34196625
v -1.04895825 -0.90564533 -0.50273697
v 1.97270828 -0.90609357 -0.50260354
v -1.04901643 -0.90605233 -0.34184448
v 1.97254657 -0.46428629 -0.50279472
v -1.04914902 -0.90591127 -0.50266038
v -1.04898965 -0.46462648 -0.50262168
v 1.97254005 -0.90616218 -0.50267978
v -1.04895972 -0.46443733 -0.34179344
v 1.97241666 -0.46453638 -0.50293211
v -1.04883654 -0.46431282 -0.50281982
v 1.97258141 -0.46437323 -0.34224752
v 1.16943186 1.43312147 -0.36207576
v 1.12467518 1.44476697 -1.12504627
v 1.16936861 1.43294786 -1.12530847
v 1.12464130 1.44474706 -0.36232796
v 1.21430204 1.44471261 -1.12510019
v 1.16948196 1.43292866 -0.36223529
v 1.16952321 1.43291868 -1.12509819
v 1.21431862 1.44473942 -0.36197626
v 1.09914017 1.47998441 -0.36228095
v 1.12486035 1.44461347 -1.12499933
v 1.12485193 1.44490361 -0.36240405
v 1.09916010 1.47978159 -1.12523581
v 1.21411198 1.44469953 -1.12516191
v 1.23976218 1.47979451 -0.36219536
v 1.21433714 1.44458718 -0.36222214
v 1.23975743 1.47994159 -1.12516860
v 1.09922871 1.52656265 -0.36221915
v 1.09909860 1.47998379 -1.12517425
v 1.09923668 1.47978172 -0.36210687
v 1.09933036 1.52682871 -1.12483964
v 1.23976053 1.48004712 -1.12517721
v 1.23982465 1.52679279 -0.36218428
v 1.23986257 1.47983063 -0.36221639
v 1.23984492 1.52699136 -1.12528038
v 1.12455270 1.56179291 -0.36220936
v 1.09925608 1.52671826 -1.12498962
v 1.09937109 1.52669787 -0.36228969
v 1.12476233 1.56181141 -1.12519183
v 1.23954227 1.52667422 -1.12522044
v 1.21416966 1.56182193 -0.36212579
v 1.23969169 1.52667737 -0.36214446
v 1.21416299 1.56188960 -1.12506334
v 1.12487260 1.56189833 -0.36225047
v 1.16961206 1.57358455 -1.12523192
v 1.12479036 1.56168767 -1.12529749
v 1.16924382 1.57346164 -0.36203052
v 1.16943426 1.57367241 -1.12515993
v 1.21409620 1.56205059 -0.36213868
v 1.21394526 1.56200804 -1.12531375
v 1.16948862 1.57365519 -0.36226532
v 2.29399122 3.94279484 -0.34237375
v 2.37407035 3.94272605 -0.44261595
v 2.37410713 3.94280038 -0.34210187
v 2.37400601 3.94271062 -0.34223526
v 2.37396371 3.94252330 -0.44249220
v 2.29382653 3.94268633 -0.34231192
v 3.37797896 0.21819391 -1.22568246
v 3.13705393 0.23821901 -1.22545336
v 3.13743469 0.21840869 -1.22569918
v 3.37796644 0.23819430 -1.22560367
v 3.13715047 0.21842744 -1.22569758
v 3.13712059 0.23858358 -0.58282142
v 3.13697702 0.21821867 -0.58306559
v 3.13665724 0.23834138 -1.22558835
v 3.37793942 0.23819015 -0.58310866
v 3.37789387 0.21845157 -1.22568132
v 3.37796483 0.21830930 -0.58299192
v 3.37763985 0.23836872 -1.22544039
v 3.37795344 0.23819832 -0.58302652
v 3.13712598 0.21830391 -0.58323992
v 3.13697129 0.23837250 -0.58319911
v 3.37772968 0.21823229 -0.58308227
v -2.49469927 -7.46123155 -1.09503474
v -3.02654852 -7.54121923 -1.09494168
v -3.02687887 -7.46160217 -1.09506031
v -2.49461622 -7.54170246 -1.09500769
v -3.12713892 -0.90592974 -0.44258105
v -3.20728913 -0.90623783 -1.46653941
v -3.12705014 -0.90619212 -1.46620620
v -3.20742383 -0.90578798 -0.44262970
v -3.12706183 -2.05022767 -1.46643303
v -3.20731862 -0.90594937 -1.46667260
v -3.20740212 -2.05053496 -1.46644831
v -3.12710691 -0.90599387 -1.46648756
v -3.12703403 -0.90599254 -0.44262798
v -3.20749752 -2.05049303 -0.44238047
v -3.20729247 -0.90590328 -0.44233619
v -3.12719814 -2.05032443 -0.44268867
v -3.20739419 -2.05032812 -0.44230254
v -3.12714111 -2.05041125 -1.46631064
v -3.20756009 -2.05034565 -1.46652091
v -3.12715540 -2.05037659 -0.44244890
v 2.37400723 3.94274010 -0.44250851
v 2.29365227 3.94290858 -1.46631918
v 2.37401472 3.94260132 -1.46636499
v 2.29375943 3.94242141 -0.44238281
v 2.29383183 3.94295935 -0.34209603
v 2.37416561 2.79868907 -1.46650052
v 2.29369391 3.94271845 -1.46631259
v 2.29366329 2.79814596 -1.46641127
v 2.37367913 3.94252867 -1.46636145
v 2.29374633 3.94245203 -0.34187089
v 2.37393567 3.94261041 -0.44258691
v 2.29384250 3.94263250 -0.44254502
v 2.29383882 2.79826301 -0.44252001
v 2.37379663 2.79833969 -1.46667749
v 2.29351949 2.79847469 -1.46666042
v 2.37416401 2.79816453 -0.44263081
v 2.37420762 3.94253505 -0.44247989
v 2.29388522 2.79844264 -0.44258167
v 2.29398083 3.94293259 -0.44230559
v 2.37422233 2.79833994 -0.44212429
v 3.53894597 -3.19491262 -1.62696267
v 3.45840430 -3.99790222 -1.62707338
v 3.45838790 -3.19466797 -1.62706387
v 3.53867427 -3.99771272 -1.62704978
v 3.53870374 -3.99777043 -1.62686090
v 3.45849404 -5.86502458 -1.62706586
v 3.45814219 -3.99787067 -1.62724430
v 3.53847846 -5.86498534 -1.62711014
v 3.53869329 -0.94623153 -1.62692244
v 3.45833851 -3.19463202 -1.62699859
v 3.45834160 -0.94621021 -1.62709037
v 3.53874437 -3.19470239 -1.62726693
v 3.53877275 0.29861934 -1.62697766
v 3.45821773 -0.94604993 -1.62720927
v 3.45833644 0.29860727 -1.62713571
v 3.53854414 -0.94616356 -1.62734481
v -3.12690295 -2.69273149 -0.44259788
v -3.20754429 -3.83737648 -0.44239826
v -3.20725638 -2.69291269 -0.44240549
v -3.12717834 -3.83737159 -0.44246617
v -3.20735996 -3.83736823 -0.44289499
v -3.12693244 -3.83723715 -1.46672712
v -3.20726000 -3.83728569 -1.46643685
v -3.12689310 -3.83738986 -0.44243186
v -3.12693062 -3.83717430 -1.46624200
v -3.20725161 -2.69295019 -1.46621856
v -3.20750517 -3.83735007 -1.46661535
v -3.12704356 -2.69271419 -1.46629044
v 2.29389712 -0.02267393 -0.46268780
v 2.29374396 -0.02244964 -0.34227857
v 2.29395469 0.21833806 -0.46258362
v 0.74809058 -5.37325672 -0.66314641
v 0.82798367 -5.37330689 -1.62732224
v 0.74776632 -5.37310479 -1.62698970
v 0.82823008 -5.37315013 -0.66355345
v 0.82799554 -4.88125520 -0.66319148
v 0.74782125 -5.37337061 -0.66360513
v 0.74777581 -4.88107205 -0.66341482
v 0.82803701 -5.37327598 -0.66345442
v 0.82822417 -4.88139359 -0.66351276
v 0.74784654 -4.88123154 -1.62699260
v 0.82826508 -4.88136451 -1.62733892
v 0.74775889 -4.88125804 -0.66357647
v 3.53866176 -3.19488726 -0.34223200
v 3.45847860 -0.94611011 -0.34195169
v 3.45818302 -3.19464021 -0.34201790
v 3.53819548 -0.94615418 -0.34192699
v 3.53873720 -3.99797688 -0.34218184
v 3.45813079 -3.19477293 -0.34240587
v 3.45817210 -3.99775283 -0.34215137
v 3.53857331 -3.19481776 -0.34175475
v 3.53877411 -0.94625287 -0.34190912
v 3.45830512 0.29875595 -0.34223264
v 3.45818322 -0.94602638 -0.34225881
v 3.53851331 0.29877866 -0.34231526
v 3.53842172 -5.86500048 -0.34242675
v 3.45820994 -3.99796601 -0.34234157
v 3.45815744 -5.86498313 -0.34210338
v 3.53848971 -3.99783749 -0.34193029
v 2.48437887 -5.86506994 -1.62681190
v 2.48465073 -5.78464701 -0.66340991
v 2.48444842 -5.86491458 -0.66328732
v 2.48455559 -5.78483060 -1.62734663
v 2.97647990 -5.78486311 -0.66340011
v 2.48465932 -5.86496100 -0.66327795
v 2.48488676 -5.78459651 -0.66348829
v 2.97634003 -5.86474447 -0.66347641
v 2.97645118 -5.78451328 -0.66313490
v 2.97644968 -5.86504400 -1.62733046
v 2.97632710 -5.86513118 -0.66338199
v 2.97641110 -5.78474193 -1.62678088
v -3.20727952 2.79831977 -0.44253314
v -3.12705349 2.79845339 -1.46661817
v -3.20736422 2.79811904 -1.46646334
v -3.12701172 2.79840761 -0.44236144
v -3.12693361 2.79850928 -1.46624778
v -3.20730091 3.94273915 -1.46675366
v -3.20730021 2.79827564 -1.46671827
v -3.12709074 3.94282301 -1.46665351
v -3.12684317 3.94275372 -0.44256619
v -3.20736663 2.79839461 -0.44273891
v -3.20705319 3.94256876 -0.44264327
v -3.12685354 2.79838888 -0.44234311
v -3.12687863 3.94273959 -0.44271665
v -3.20741408 3.94271404 -1.46647813
v -3.12732353 3.94283550 -1.46622711
v -3.20713599 3.94253941 -0.44247080
v -1.48099623 1.43326247 -0.36250079
v -1.52539760 1.44490344 -1.12497403
v -1.48064153 1.43281533 -1.12517396
v -1.52549507 1.44478933 -0.36208046
v -1.43587419 1.44505295 -1.12506453
v -1.48074674 1.43325385 -0.36226743
v -1.48065045 1.43304597 -1.12548868
v -1.43592949 1.44478979 -0.36225238
v -1.55098952 1.47965431 -0.36221043
v -1.52524076 1.44471107 -1.12523440
v -1.52554380 1.44502604 -0.36241685
v -1.55084793 1.47985494 -1.12488364
v -1.43578097 1.44473566 -1.12538075
v -1.41021222 1.48005210 -0.36238091
v -1.43586224 1.44463326 -0.36233371
v -1.41064854 1.47997678 -1.12512051
v -1.55089824 1.52688586 -0.36212627
v -1.55088531 1.47994652 -1.12531228
v -1.55097419 1.47966553 -0.36235148
v -1.55098242 1.52682986 -1.12486393
v -1.41057329 1.47986772 -1.12516962
v -1.41034178 1.52697357 -0.36217024
v -1.41055634 1.47989942 -0.36209416
v -1.41049119 1.52717404 -1.12519316
v -1.52550849 1.56189711 -0.36225925
v -1.55116553 1.52667364 -1.12493033
v -1.55068173 1.52659591 -0.36209230
v -1.52539845 1.56189539 -1.12497747
v -1.41029515 1.52691219 -1.12529278
v -1.43600854 1.56179028 -0.36217581
v -1.41034524 1.52700222 -0.36208163
v -1.43619219 1.56192926 -1.12530982
v -1.52525753 1.56190289 -0.36213174
v -1.48080764 1.57359992 -1.12542752
v -1.52526023 1.56180713 -1.12553116
v -1.48057758 1.57380001 -0.36234806
v -1.48055587 1.57345170 -1.12548485
v -1.43589855 1.56184629 -0.36220310
v -1.43583229 1.56184210 -1.12512834
v -1.48076100 1.57347292 -0.36226043
v 3.37795488 0.27853164 -1.22570781
v 3.13699973 0.29866175 -1.22550503
v 3.13706844 0.27854877 -1.22547272
v 3.37812231 0.29874758 -1.22580069
v 3.13701225 0.27867645 -1.22547545
v 3.13717524 0.29869496 -0.58319595
v 3.13725317 0.27837982 -0.58293188
v 3.13707529 0.29843851 -1.22560633
v 3.37817820 0.29856535 -0.58324722
v 3.37796391 0.27845768 -1.22572900
v 3.37806819 0.27868962 -0.58315262
v 3.37808055 0.29859437 -1.22556377
v 3.37802309 0.29886422 -0.58300053
v 3.13693419 0.27864908 -0.58310516
v 3.13701068 0.29852926 -0.58307718
v 3.37799674 0.27851728 -0.58327314
v 2.29358546 3.94270392 -1.46645007
v 2.29414401 3.94265990 -1.58679276
v 2.37430978 3.94267678 -1.46646463
v 2.37407647 3.94294041 -1.46669223
v 2.29382487 3.94288427 -1.58695487
v 2.29374859 3.94271898 -1.46640000
v -0.40648835 -4.54999924 -0.34204072
v -1.17941256 -4.55019737 -1.62714991
v -0.40644496 -4.54996830 -1.62706183
v -1.17945179 -4.54990297 -0.34227161
v -1.48086708 5.06684272 -0.44226654
v -2.80595949 4.98665974 -0.44256003
v -2.80566007 5.06675878 -0.44253904
v -1.48051656 4.98685349 -0.44247463
v -2.80584557 4.98694578 -1.46671552
v -2.80566726 5.06708132 -0.44244854
v -2.80576994 4.98672288 -0.44239976
v -2.80597365 5.06682939 -1.46645214
v -1.48068343 4.98671692 -1.46624712
v -2.80589128 5.06711623 -1.46642027
v -2.80546833 4.98649210 -1.46655386
v -1.48075650 5.06719797 -1.46659319
v 0.24618286 5.06723781 -0.44240912
v -1.07909492 4.98646999 -0.44250725
v -1.07936312 5.06695630 -0.44250424
v 0.24590048 4.98682993 -0.44255194
v -1.07938005 4.98654122 -1.46665837
v -1.07920315 5.06718748 -0.44246079
v -1.07910897 4.98650887 -0.44219325
v -1.07916177 5.06735537 -1.46660001
v 0.24586330 4.98706666 -1.46662981
v -1.07909760 5.06695980 -1.46659225
v -1.07884744 4.98654925 -1.46634662
v 0.24610337 5.06686309 -1.46674786
v 2.29357491 0.21822794 -0.46257635
v 2.29387873 0.21831560 -0.34216354
v 2.29397041 0.29876011 -0.46255394
vt 2.18750095 2.81250000
vt 3.21880007 2.78130007
vt 3.21880102 2.81250000
vt 2.18750000 2.78130007
vt -5.56250095 -0.09377503
vt -5.62500095 -0.49221802
vt -5.56250095 -0.49220002
vt -5.62500095 -0.09379303
vt 2.18750000 2.78130007
vt 3.21880102 2.81250000
vt 3.21880007 2.78130007
vt 2.18750095 2.81250000
vt 4.78130007 2.78130007
vt 5.09380007 2.81250000
vt 5.09380007 2.78130007
vt 4.78130007 2.81250000
vt 5.18750000 2.78130007
vt 6.21872187 2.81250000
vt 6.21872187 2.78130007
vt 5.18750000 2.81250000
vt 3.18750000 2.78130007
vt 4.21879911 2.81250000
vt 4.21880007 2.78130007
vt 3.18749905 2.81250000
vt 6.03130007 2.78130007
vt 6.09380817 2.81250000
vt 6.09380817 2.78130007
vt 5.78130007 2.81250000
vt 5.78130007 2.78130007
vt 3.78130007 2.78130007
vt 4.09380007 2.81250000
vt 4.09380007 2.78130007
vt 3.78130007 2.81250000
vt 5.37500000 2.71479988
vt 5.43750000 3.12109995
vt 5.43750000 2.71479988
vt 5.37500000 3.12109995
vt 2.18750000 2.78130007
vt 3.21880007 2.81250000
vt 3.21880007 2.78130007
vt 2.18750000 2.81250000
vt -3.78130007 2.78130007
vt -4.67189980 2.81250000
vt -3.78130007 2.81250000
vt -4.67189980 2.78130007
vt 1.84379995 2.78130007
vt 2.09380007 2.81250000
vt 2.09380007 2.78130007
vt 1.78130198 2.81250000
vt 1.78130198 2.78130007
vt 5.37500000 1.78128481
vt 5.43750000 2.26950002
vt 5.43750000 1.78120267
vt 5.37500000 2.26958203
vt 1.37500000 2.71479988
vt 1.43750000 3.12109995
vt 1.43750000 2.71479988
vt 1.37500000 3.12109995
vt -1.51566505 2.78130007
vt -2.92190003 2.81250000
vt -1.51566505 2.81250000
vt -2.92190099 2.78130007
vt -3.78130007 -0.21879995
vt -4.67187786 -0.18750000
vt -3.78127789 -0.18750000
vt -4.67189980 -0.21879995
vt 5.37500000 0.82809997
vt 5.43750000 1.07809997
vt 5.43750000 0.82809997
vt 5.37500000 1.07809997
vt -1.51559997 -0.49220002
vt -2.92195606 -0.53129995
vt -1.51565599 -0.53129995
vt -2.92190003 -0.49220002
vt 1.37500000 1.69529998
vt 1.43750000 2.26950002
vt 1.43750000 1.69529998
vt 1.37500000 2.26950002
vt -0.78130001 2.78130007
vt -1.67190003 2.81250000
vt -0.78130001 2.81250000
vt -1.67190003 2.78130007
vt -2.92190003 2.78130007
vt -1.51559997 2.81250000
vt -2.92190003 2.81250000
vt -1.51559997 2.78130007
vt 2.70309997 0.18750000
vt 3.40630007 0.15630001
vt 2.70309997 0.15630001
vt 3.40630007 0.18750000
vt 5.37500000 -0.18359995
vt 5.43750000 0.06639999
vt 5.43750000 -0.18359995
vt 5.37500000 0.06639999
vt 5.43749905 -0.49223697
vt 5.37499905 -0.03128099
vt 5.43749905 -0.03129995
vt 5.37499905 -0.49221802
vt 5.37500095 -0.49223697
vt 5.43750095 -0.03128099
vt 5.37500095 -0.03129995
vt 5.43750095 -0.49221802
vt 1.37500000 1.29690003
vt 1.43750000 1.34379983
vt 1.43750000 1.29690003
vt 1.37500000 1.34379983
vt 1.21890604 2.78130007
vt 0.32810000 2.81250000
vt 1.21890604 2.81250000
vt 0.32810000 2.78130007
vt 5.37500000 1.07815576
vt 5.43750000 0.82809997
vt 5.43750000 1.07809997
vt 5.37500000 0.82815582
vt 5.37500000 2.26954412
vt 5.43750000 1.78129983
vt 5.43750000 2.26960516
vt 5.37500000 1.78123879
vt 5.37499285 -1.72267294
vt 5.43749285 -0.31250095
vt 5.43749285 -1.72267294
vt 5.37499285 -0.31250095
vt -1.67183006 2.78130007
vt -0.78130001 2.81250000
vt -1.67190003 2.81250000
vt -0.78123027 2.78130007
vt -4.67189980 2.78130007
vt -3.78130007 2.81250000
vt -4.67189980 2.81250000
vt -3.78130007 2.78130007
vt 5.48439980 -2.46479988
vt 5.62496901 -2.43359995
vt 5.62500000 -2.46479988
vt 5.56247997 -2.43359995
vt 5.48439980 -2.43359995
vt 5.37500000 0.06639999
vt 5.43750000 -0.18359995
vt 5.43750000 0.06639999
vt 5.37500000 -0.18359995
vt 5.37500000 3.12116003
vt 5.43750000 2.71479988
vt 5.43750000 3.12109995
vt 5.37500000 2.71485996
vt 5.21089983 -2.46479988
vt 5.62500000 -2.43359995
vt 5.62500000 -2.46479988
vt 5.21089983 -2.43359995
vt 0.32816389 2.78130007
vt 1.21879995 2.81250000
vt 0.32816389 2.81250000
vt 1.21879995 2.78130007
vt 5.78130007 2.81250000
vt 6.09380817 2.78130007
vt 6.09380817 2.81250000
vt 6.03130007 2.78130007
vt 5.78130007 2.78130007
vt 1.62550902 -2.46479988
vt 4.38275385 -2.43359995
vt 4.38280010 -2.46479988
vt 1.68795204 -2.43359995
vt 1.62546206 -2.43359995
vt 5.37500000 -0.31254900
vt 5.43750000 -1.72270012
vt 5.43750000 -0.31256199
vt 5.37500000 -1.72268701
vt 5.18749285 2.81250000
vt 6.21876097 2.78130007
vt 6.21880007 2.81250000
vt 5.18745422 2.78130007
vt -1.56250000 2.35160017
vt -1.62500000 1.73049998
vt -1.62500000 2.35170698
vt -1.56250000 1.73039341
vt 5.56250000 -2.43359995
vt 5.62500000 -2.46479988
vt 5.62500000 -2.43359995
vt 5.56250000 -2.46479988
vt 4.78138590 2.81250000
vt 5.09371424 2.78130007
vt 5.09380007 2.81250000
vt 4.78130007 2.78130007
vt 3.18771505 2.81250000
vt 4.21868610 2.78130007
vt 4.21880007 2.81250000
vt 3.18760109 2.78130007
vt 3.78130007 2.81250000
vt 4.09380007 2.78130007
vt 4.09380007 2.81250000
vt 3.78130007 2.78130007
vt 2.18749905 2.81250000
vt 3.21881604 2.78130007
vt 3.21880007 2.81250000
vt 2.18751502 2.78130007
vt 1.78129995 2.81250000
vt 2.09380198 2.78130007
vt 2.09380007 2.81250000
vt 1.84379995 2.78130007
vt 1.78130198 2.78130007
vt 1.37500000 3.12109995
vt 1.43750000 2.71495914
vt 1.43750000 3.12109995
vt 1.37500000 2.71495914
vt 1.37500000 -0.09379995
vt 1.43750000 -0.03127503
vt 1.37500000 -0.03129995
vt 1.43750000 -0.04690003
vt -4.67181015 -0.21879995
vt -3.78130007 -0.18750000
vt -4.67181015 -0.18750000
vt -3.78130007 -0.21879995
vt -0.62500000 -0.04692495
vt -0.56250000 -0.03129995
vt -0.62500000 -0.03129995
vt -0.56250000 -0.09379995
vt 1.37500000 2.26940393
vt 1.43750000 1.69529998
vt 1.43750000 2.26931000
vt 1.37500000 1.69539356
vt 0.59380001 -0.49221802
vt 0.65630001 -0.03128099
vt 0.59380001 -0.03128099
vt 0.65630001 -0.49221802
vt 3.40630007 0.18750000
vt 2.70309997 0.15630001
vt 3.40630007 0.15630001
vt 2.70309997 0.18750000
vt 1.39843702 -0.48049998
vt 1.39062703 -0.43369699
vt 1.39843702 -0.43369699
vt 1.43750000 -0.48440099
vt 1.37500000 -0.03197300
vt 1.43750000 -0.03197300
vt 1.42187703 -0.41809595
vt 1.42187703 -0.43369699
vt 1.40625000 -0.43369699
vt 1.40625000 -0.48049998
vt 1.39062703 -0.41809595
vt 1.37500000 -0.49220002
vt 1.43750000 -0.49220002
vt 1.37500000 1.34379983
vt 1.43750000 1.29690003
vt 1.43750000 1.34379983
vt 1.37500000 1.29690003
vt -2.59380007 -0.48440003
vt -2.59376788 -0.53129005
vt -2.53130007 -0.53129995
vt -2.68747306 -0.53127599
vt -2.68750501 -0.48438597
vt -2.62500000 -0.48440003
vt -2.56250000 -0.53129995
vt -2.62500000 -0.53129995
vt 0.90630001 -0.53129995
vt 3.25780010 -0.46879995
vt 0.90630001 -0.46879995
vt 3.25780010 -0.53129995
vt 0.90630001 0.34380001
vt 3.25780010 0.17189997
vt 3.25780010 0.34380001
vt 0.90630001 0.17189997
vt 3.25780010 -0.53129995
vt 0.90630001 -0.46879995
vt 3.25780010 -0.46879995
vt 0.90630001 -0.53129995
vt 1.57029998 -0.39059997
vt 1.60510004 -0.09370995
vt 1.57029998 -0.09370995
vt 1.60510004 -0.39059997
vt 1.53550005 -0.09370995
vt 1.57029998 -0.39059997
vt 1.57029998 -0.09370995
vt 1.53550005 -0.39059997
vt -2.72399998 -0.39059997
vt -2.69659996 -0.09370995
vt -2.69659996 -0.39059997
vt -2.72399998 -0.09370995
vt -2.69659996 -0.09370995
vt -2.72399998 -0.39059997
vt -2.69659996 -0.39059997
vt -2.72399998 -0.09370995
vt -2.76040006 -0.39059997
vt -2.72399998 -0.09370995
vt -2.72399998 -0.39059997
vt -2.76040006 -0.09370995
vt -2.72399998 -0.09370995
vt -2.76040006 -0.39059997
vt -2.72399998 -0.39059997
vt -2.76040006 -0.09370995
vt -2.78780007 -0.39059997
vt -2.76040006 -0.09370995
vt -2.76040006 -0.39059997
vt -2.78780007 -0.09370995
vt -2.76040006 -0.09370995
vt -2.78780007 -0.39059997
vt -2.76040006 -0.39059997
vt -2.78780007 -0.09370995
vt 1.60510004 -0.39059997
vt 1.57029998 -0.09370995
vt 1.60510004 -0.09370995
vt 1.57029998 -0.39059997
vt 1.57029998 -0.09370995
vt 1.53550005 -0.39059997
vt 1.53550005 -0.09370995
vt 1.57029998 -0.39059997
vt 1.43750000 -0.53129995
vt 1.37500000 -0.49220002
vt 1.37500000 -0.53129995
vt -0.56250000 -0.53129995
vt -0.56250000 -0.49220002
vt -0.62500000 -0.53129995
vt -2.56250000 -0.37890005
vt -2.57809997 -0.28520000
vt -2.56250000 -0.28520000
vt -2.57809997 -0.37890005
vt -2.56250000 -0.18750000
vt -2.57809997 -0.43747401
vt -2.56250000 -0.43750000
vt -2.57809997 -0.18747401
vt -2.57809997 -0.43747401
vt -2.56250000 -0.18750000
vt -2.56250000 -0.43750000
vt -2.57809997 -0.18747401
vt -2.57809997 -0.37890005
vt -2.56250000 -0.28520000
vt -2.57809997 -0.28520000
vt -2.56250000 -0.37890005
vt 5.21089983 -2.43359995
vt 5.62500000 -2.46479988
vt 5.62500000 -2.43359995
vt 5.21089983 -2.46479988
vt 5.65630102 -0.49223697
vt 5.71880102 -0.09378099
vt 5.65630102 -0.09379995
vt 5.71880102 -0.49221802
vt -0.78130001 2.78130007
vt -1.67190003 2.81250000
vt -0.78130001 2.81250000
vt -1.67190003 2.78130007
vt -1.67190003 2.78130007
vt -0.78130001 2.81250000
vt -1.67190003 2.81250000
vt -0.78130001 2.78130007
vt 5.43749905 -0.49223697
vt 5.37499905 -0.09378099
vt 5.43749905 -0.09379995
vt 5.37499905 -0.49221802
vt 1.37500000 -0.49221802
vt 1.43750000 -0.09380102
vt 1.37500000 -0.09378099
vt 1.43750000 -0.49223804
vt 1.43750000 -0.53129995
vt -3.78130007 -0.21879995
vt -4.67186117 -0.18750000
vt -3.78126097 -0.18750000
vt -4.67189980 -0.21879995
vt -0.62500000 -0.53129995
vt -0.56250000 -0.49220002
vt -0.62500000 -0.49220002
vt 1.43750000 -0.49221694
vt 1.37500000 -0.09377503
vt 1.43750000 -0.09379303
vt 1.37500000 -0.49220002
vt -4.67189980 -0.21879995
vt -3.78130007 -0.18750000
vt -4.67189980 -0.18750000
vt -3.78130007 -0.21879995
vt 0.37500000 -0.29690194
vt 0.43750000 -0.60932004
vt 0.43750000 -0.29690003
vt 0.37500000 -0.60932195
vt 0.37500000 -0.37500000
vt 0.43750000 -1.10163093
vt 0.43750000 -0.37500000
vt 0.37500000 -1.10163093
vt 0.37500000 0.81250000
vt 0.43750000 -0.06229997
vt 0.43750000 0.81250000
vt 0.37500000 -0.06229997
vt 0.37500000 0.87506121
vt 0.43750000 0.39065301
vt 0.43750000 0.87505150
vt 0.37500000 0.39066273
vt 0.32816389 2.78130007
vt 1.21879995 2.81250000
vt 0.32816389 2.81250000
vt 1.21879995 2.78130007
vt 5.43749905 -0.49223697
vt 5.37499905 -0.09378099
vt 5.43749905 -0.09379995
vt 5.37499905 -0.49221802
vt 1.21879995 2.78130007
vt 0.32816389 2.81250000
vt 1.21879995 2.81250000
vt 0.32816389 2.78130007
vt -2.34380007 -0.48440003
vt -2.34380007 -0.53129995
vt -2.53130007 -0.48440003
vt 2.43750000 -0.40629995
vt 2.37500000 -0.03129995
vt 2.43750000 -0.03129995
vt 2.37500000 -0.40629995
vt 2.37500000 -0.07809997
vt 2.43750000 -0.26950002
vt 2.43750000 -0.07809997
vt 2.37500000 -0.26950002
vt 2.37500000 -0.40629995
vt 2.43750000 -0.03129995
vt 2.37500000 -0.03129995
vt 2.43750000 -0.40629995
vt 0.37500000 -0.06254697
vt 0.43750000 0.81250131
vt 0.43750000 -0.06254601
vt 0.37500000 0.81250000
vt 0.37500000 -0.60940003
vt 0.43750000 -0.29690003
vt 0.43750000 -0.60940003
vt 0.37500000 -0.29690003
vt 0.37500000 0.39055520
vt 0.43750000 0.87505370
vt 0.43750000 0.39060903
vt 0.37500000 0.87500000
vt 0.37499851 -1.10159993
vt 0.43749851 -0.37495399
vt 0.43749851 -1.10155392
vt 0.37499851 -0.37500000
vt 2.43750000 -0.03129995
vt 2.37500000 -0.40629995
vt 2.43750000 -0.40629995
vt 2.37500000 -0.03129995
vt 2.37500000 -0.26950002
vt 2.43750000 -0.07809997
vt 2.37500000 -0.07809997
vt 2.43750000 -0.26950002
vt 2.37500000 -0.40629995
vt 2.43750000 -0.03129995
vt 2.43750000 -0.40629995
vt 2.37500000 -0.03129995
vt 5.43749905 -0.49223697
vt 5.37499905 -0.09378099
vt 5.43749905 -0.09379995
vt 5.37499905 -0.49221802
vt -3.78130007 2.78130007
vt -4.67189980 2.81250000
vt -3.78130007 2.81250000
vt -4.67189980 2.78130007
vt -4.67189980 2.78130007
vt -3.78130007 2.81250000
vt -4.67189980 2.81250000
vt -3.78130007 2.78130007
vt 5.37500095 -0.49223697
vt 5.43750095 -0.09378099
vt 5.37500095 -0.09379995
vt 5.43750095 -0.49221802
vt 3.57030010 -0.39059997
vt 3.60509992 -0.09370995
vt 3.57030010 -0.09370995
vt 3.60509992 -0.39059997
vt 3.53550005 -0.09370995
vt 3.57030010 -0.39059997
vt 3.57030010 -0.09370995
vt 3.53550005 -0.39059997
vt -2.72390008 -0.39059997
vt -2.69659996 -0.09370995
vt -2.69659996 -0.39059997
vt -2.72390008 -0.09370995
vt -2.69659996 -0.09370995
vt -2.72390008 -0.39059997
vt -2.69659996 -0.39059997
vt -2.72390008 -0.09370995
vt -2.76040006 -0.39059997
vt -2.72390008 -0.09370995
vt -2.72390008 -0.39059997
vt -2.76040006 -0.09370995
vt -2.72390008 -0.09370995
vt -2.76060009 -0.39059997
vt -2.72390008 -0.39059997
vt -2.76060009 -0.09370995
vt -2.78780007 -0.39059997
vt -2.76040006 -0.09370995
vt -2.76040006 -0.39059997
vt -2.78780007 -0.09370995
vt -2.76060009 -0.09370995
vt -2.78769994 -0.39059997
vt -2.76060009 -0.39059997
vt -2.78769994 -0.09370995
vt 3.60509992 -0.39059997
vt 3.57030010 -0.09370995
vt 3.60509992 -0.09370995
vt 3.57030010 -0.39059997
vt 3.57030010 -0.09370995
vt 3.53539991 -0.39059997
vt 3.53539991 -0.09370995
vt 3.57030010 -0.39059997
vt -2.60940003 -0.37890005
vt -2.62500000 -0.28520000
vt -2.60940003 -0.28520000
vt -2.62500000 -0.37890005
vt -2.60940003 -0.18747401
vt -2.62500000 -0.43750000
vt -2.60940003 -0.43747401
vt -2.62500000 -0.18750000
vt -2.62500000 -0.43750000
vt -2.60940003 -0.18747401
vt -2.60940003 -0.43747401
vt -2.62500000 -0.18750000
vt -2.62500000 -0.37890005
vt -2.60940003 -0.28520000
vt -2.62500000 -0.28520000
vt -2.60940003 -0.37890005
vt 1.43750000 -0.09379995
vt 1.43750000 -0.04690003
vt 1.37500000 -0.09379995
vt -0.56250000 -0.09379995
vt -0.62500000 -0.04690003
vt -0.62500000 -0.09379995
vt -3.25000000 -0.53129995
vt -3.85160303 -0.03129995
vt -3.25000000 -0.03129995
vt -3.85160303 -0.53129995
vt 5.18750286 2.81250000
vt 6.21880007 2.78130007
vt 6.21880293 2.81250000
vt 5.18750000 2.78130007
vt -5.56250095 -0.09377503
vt -5.62500095 -0.49221802
vt -5.56250095 -0.49220002
vt -5.62500095 -0.09379303
vt 5.18750000 2.78130007
vt 6.21880722 2.81250000
vt 6.21880007 2.78130007
vt 5.18750715 2.81250000
vt 3.18749905 2.81250000
vt 4.21880007 2.78130007
vt 4.21879911 2.81250000
vt 3.18750000 2.78130007
vt -5.56250095 -0.09377503
vt -5.62500095 -0.49221802
vt -5.56250095 -0.49220002
vt -5.62500095 -0.09379303
vt 3.18750000 2.78130007
vt 4.21880817 2.81250000
vt 4.21880007 2.78130007
vt 3.18750811 2.81250000
vt -2.56250000 -0.48440003
vt -2.56250000 -0.53129995
vt -2.62500000 -0.48440003
f 1/1 2/2 3/3
f 2/2 1/1 4/4
f 5/5 6/6 7/7
f 6/6 5/5 8/8
f 9/9 10/10 11/11
f 10/10 9/9 12/12
f 13/13 14/14 15/15
f 14/14 13/13 16/16
f 17/17 18/18 19/19
f 18/18 17/17 20/20
f 21/21 22/22 23/23
f 22/22 21/21 24/24
f 25/25 26/26 27/27
f 26/26 25/25 28/28
f 28/28 25/25 29/29
f 30/30 31/31 32/32
f 31/31 30/30 33/33
f 34/34 35/35 36/36
f 35/35 34/34 37/37
f 38/38 39/39 40/40
f 39/39 38/38 41/41
f 42/42 43/43 44/44
f 43/43 42/42 45/45
f 46/46 47/47 48/48
f 47/47 46/46 49/49
f 49/49 46/46 50/50
f 51/51 52/52 53/53
f 52/52 51/51 54/54
f 55/55 56/56 57/57
f 56/56 55/55 58/58
f 59/59 60/60 61/61
f 60/60 59/59 62/62
f 63/63 64/64 65/65
f 64/64 63/63 66/66
f 67/67 68/68 69/69
f 68/68 67/67 70/70
f 71/71 72/72 73/73
f 72/72 71/71 74/74
f 75/75 76/76 77/77
f 76/76 75/75 78/78
f 79/79 80/80 81/81
f 80/80 79/79 82/82
f 83/83 84/84 85/85
f 84/84 83/83 86/86
f 87/87 88/88 89/89
f 88/88 87/87 90/90
f 91/91 92/92 93/93
f 92/92 91/91 94/94
f 95/95 96/96 97/97
f 96/96 95/95 98/98
f 99/99 100/100 101/101
f 100/100 99/99 102/102
f 103/103 104/104 105/105
f 104/104 103/103 106/106
f 107/107 108/108 109/109
f 108/108 107/107 110/110
f 111/111 112/112 113/113
f 112/112 111/111 114/114
f 115/115 116/116 117/117
f 116/116 115/115 118/118
f 119/119 120/120 121/121
f 120/120 119/119 122/122
f 123/123 124/124 125/125
f 124/124 123/123 126/126
f 127/127 128/128 129/129
f 128/128 127/127 130/130
f 131/131 132/132 133/133
f 132/132 131/131 134/134
f 134/134 131/131 135/135
f 136/136 137/137 138/138
f 137/137 136/136 139/139
f 140/140 141/141 142/142
f 141/141 140/140 143/143
f 144/144 145/145 146/146
f 145/145 144/144 147/147
f 148/148 149/149 150/150
f 149/149 148/148 151/151
f 152/152 153/153 154/154
f 153/153 152/152 155/155
f 155/155 152/152 156/156
f 157/157 158/158 159/159
f 158/158 157/157 160/160
f 160/160 157/157 161/161
f 162/162 163/163 164/164
f 163/163 162/162 165/165
f 166/166 167/167 168/168
f 167/167 166/166 169/169
f 170/170 171/171 172/172
f 171/171 170/170 173/173
f 174/174 175/175 176/176
f 175/175 174/174 177/177
f 178/178 179/179 180/180
f 179/179 178/178 181/181
f 182/182 183/183 184/184
f 183/183 182/182 185/185
f 186/186 187/187 188/188
f 187/187 186/186 189/189
f 190/190 191/191 192/192
f 191/191 190/190 193/193
f 194/194 195/195 196/196
f 195/195 194/194 197/197
f 197/197 194/194 198/198
f 199/199 200/200 201/201
f 200/200 199/199 202/202
f 203/203 204/204 205/205
f 204/204 203/203 206/206
f 207/207 208/208 209/209
f 208/208 207/207 210/210
f 211/211 212/212 213/213
f 212/212 211/211 214/214
f 215/215 216/216 217/217
f 216/216 215/215 218/218
f 219/219 220/220 221/221
f 220/220 219/219 222/222
f 223/223 224/224 225/225
f 224/224 223/223 226/226
f 227/227 228/228 229/229
f 230/230 231/231 232/232
f 231/231 230/230 233/233
f 233/233 230/230 234/234
f 234/234 230/230 235/235
f 235/235 230/230 236/236
f 236/236 230/230 227/227
f 231/231 237/237 238/238
f 237/237 231/231 233/233
f 238/238 237/237 228/228
f 238/238 228/228 227/227
f 238/238 227/227 230/230
f 238/238 230/230 239/239
f 240/240 241/241 242/242
f 241/241 240/240 243/243
f 244/244 245/245 246/246
f 245/245 244/244 247/247
f 247/247 244/244 248/248
f 249/249 250/250 251/251
f 252/252 253/253 254/254
f 253/253 252/252 255/255
f 256/256 257/257 258/258
f 257/257 256/256 259/259
f 260/260 261/261 262/262
f 261/261 260/260 263/263
f 264/264 265/265 266/266
f 265/265 264/264 267/267
f 268/268 269/269 270/270
f 269/269 268/268 271/271
f 272/272 273/273 274/274
f 273/273 272/272 275/275
f 276/276 277/277 278/278
f 277/277 276/276 279/279
f 280/280 281/281 282/282
f 281/281 280/280 283/283
f 284/284 285/285 286/286
f 285/285 284/284 287/287
f 288/288 289/289 290/290
f 289/289 288/288 291/291
f 292/292 293/293 294/294
f 293/293 292/292 295/295
f 296/296 297/297 298/298
f 297/297 296/296 299/299
f 300/300 301/301 302/302
f 301/301 300/300 303/303
f 304/304 305/305 306/306
f 307/307 308/308 309/309
f 310/310 311/311 312/312
f 311/311 310/310 313/313
f 314/314 315/315 316/316
f 315/315 314/314 317/317
f 318/318 319/319 320/320
f 319/319 318/318 321/321
f 322/322 323/323 324/324
f 323/323 322/322 325/325
f 326/326 327/327 328/328
f 327/327 326/326 329/329
f 330/330 331/331 332/332
f 331/331 330/330 333/333
f 334/334 335/335 336/336
f 335/335 334/334 337/337
f 338/338 339/339 340/340
f 339/339 338/338 341/341
f 342/342 343/343 344/344
f 343/343 342/342 345/345
f 346/346 347/347 348/348
f 347/347 346/346 349/349
f 349/349 346/346 350/350
f 351/351 352/352 353/353
f 352/352 351/351 354/354
f 355/355 356/356 357/357
f 358/358 359/359 360/360
f 359/359 358/358 361/361
f 362/362 363/363 364/364
f 363/363 362/362 365/365
f 366/366 367/367 368/368
f 367/367 366/366 369/369
f 370/370 371/371 372/372
f 371/371 370/370 373/373
f 374/374 375/375 376/376
f 375/375 374/374 377/377
f 378/378 379/379 380/380
f 379/379 378/378 381/381
f 382/382 383/383 384/384
f 383/383 382/382 385/385
f 386/386 387/387 388/388
f 387/387 386/386 389/389
f 390/390 391/391 392/392
f 391/391 390/390 393/393
f 394/394 246/246 395/395
f 246/246 394/394 396/396
f 397/397 398/398 399/399
f 398/398 397/397 400/400
f 401/401 402/402 403/403
f 402/402 401/401 404/404
f 405/405 406/406 407/407
f 406/406 405/405 408/408
f 409/409 410/410 411/411
f 410/410 409/409 412/412
f 413/413 414/414 415/415
f 414/414 413/413 416/416
f 417/417 418/418 419/419
f 418/418 417/417 420/420
f 421/421 422/422 423/423
f 422/422 421/421 424/424
f 425/425 426/426 427/427
f 426/426 425/425 428/428
f 429/429 430/430 431/431
f 430/430 429/429 432/432
f 433/433 434/434 435/435
f 434/434 433/433 436/436
f 437/437 438/438 439/439
f 438/438 437/437 440/440
f 441/441 442/442 443/443
f 442/442 441/441 444/444
f 445/445 446/446 447/447
f 446/446 445/445 448/448
f 449/449 450/450 451/451
f 450/450 449/449 452/452
f 453/453 454/454 455/455
f 454/454 453/453 456/456
f 457/457 458/458 459/459
f 458/458 457/457 460/460
f 461/461 462/462 463/463
f 462/462 461/461 464/464
f 465/465 466/466 467/467
f 466/466 465/465 468/468
f 469/469 470/470 471/471
f 470/470 469/469 472/472
f 473/473 474/474 475/475
f 474/474 473/473 476/476
f 477/477 478/478 479/479
f 478/478 477/477 480/480
f 481/481 482/482 483/483
f 482/482 481/481 484/484
f 485/485 486/486 487/487
f 486/486 485/485 488/488
f 489/489 490/490 491/491
f 490/490 489/489 492/492
f 493/493 494/494 495/495
f 494/494 493/493 496/496
f 497/497 498/498 499/499
f 498/498 497/497 500/500
f 501/501 502/502 503/503
f 502/502 501/501 504/504
f 505/505 506/506 507/507
f 506/506 505/505 508/508
f 509/509 510/510 511/511
f 512/512 513/513 514/514
f 515/515 516/516 517/517
f 516/516 515/515 518/518
f 519/519 520/520 521/521
f 520/520 519/519 522/522
f 523/523 524/524 525/525
f 524/524 523/523 526/526
f 527/527 528/528 529/529
f 528/528 527/527 530/530
f 531/531 532/532 533/533
f 532/532 531/531 534/534
f 535/535 536/536 537/537
f 536/536 535/535 538/538
f 539/539 540/540 541/541
f 540/540 539/539 542/542
f 244/244 246/246 396/396
f 543/543 544/544 545/545

