# https://github.com/mikedh/trimesh
v -1.86380040 -5.76633942 -1.25566060
v -1.85718433 -5.75968816 -1.26570144
v -1.87138989 -5.75263076 -1.26570882
v -1.85719383 -5.75968877 -1.26570366
v -1.86381739 -5.76634002 -1.25567367
v -1.85715107 -5.77976757 -1.25566723
v -1.87722615 -5.75967722 -1.25566585
v -1.86379180 -5.76634311 -1.25566260
v -1.87139266 -5.75263668 -1.26570910
v -2.08140532 -5.98390088 -1.25566351
v -2.08806120 -5.77976524 -1.25566614
v -2.08805045 -5.97050999 -1.25566257
v -2.08140346 -5.76633940 -1.25565960
v -2.07800478 -5.96815814 -1.25565454
v -2.06796674 -5.99054512 -1.25566320
v -2.07388157 -5.97640652 -1.25565145
v -2.06560030 -5.98054142 -1.25566256
v -1.87723738 -5.99055057 -1.25566048
v -1.87959633 -5.98054780 -1.25566206
v -1.87131598 -5.97642483 -1.25566962
v -1.86380429 -5.98390581 -1.25565298
v -1.86718850 -5.96814713 -1.25566683
v -1.86717408 -5.78211670 -1.25566064
v -2.07803041 -5.78212549 -1.25566030
v -2.06796911 -5.75968873 -1.25565233
v -2.07388855 -5.77382295 -1.25565855
v -2.06561245 -5.76971085 -1.25566373
v -1.87723339 -5.75968707 -1.25567252
v -1.87959626 -5.76972036 -1.25566101
v -1.87131183 -5.77382359 -1.25565333
v -1.86380326 -5.76632759 -1.25566804
v -1.85715109 -5.97050974 -1.25565789
v -1.85714488 -5.77976785 -1.25567433
v -1.85010981 -5.77393328 -1.26569708
v -2.06797721 -5.75969190 -1.25565891
v -1.87140780 -5.75264227 -1.26569964
v -2.07381687 -5.75263465 -1.26570798
v -1.87722825 -5.75968497 -1.25566356
v -2.06797126 -5.75968971 -1.25565511
v -2.08801010 -5.75967860 -1.26569587
v -2.08139347 -5.76633265 -1.25566451
v -2.08140882 -5.76633944 -1.25567037
v -2.09510996 -5.77393498 -1.26570789
v -2.08806134 -5.77977102 -1.25566317
v -2.08805171 -5.97050231 -1.25566513
v -2.09509288 -5.77392705 -1.26569597
v -2.09511649 -5.97632998 -1.26570167
v -2.08805126 -5.77976122 -1.25566238
v -2.08805198 -5.97051396 -1.25567822
v -2.08801589 -5.99055611 -1.26569653
v -2.08140093 -5.98389713 -1.25567092
v -2.08140247 -5.98389779 -1.25567533
v -2.07379919 -5.99763806 -1.26571224
v -2.06799270 -5.99054698 -1.25566710
v -1.87723268 -5.99055217 -1.25565244
v -2.07380161 -5.99763673 -1.26571433
v -1.87138751 -5.99763097 -1.26569663
v -2.06797574 -5.99054418 -1.25566246
v -1.86379702 -5.98389876 -1.25567525
v -1.87722187 -5.99056395 -1.25566670
v -1.85718648 -5.99055777 -1.26569977
v -1.85714738 -5.97051450 -1.25566143
v -1.86380457 -5.98388808 -1.25566260
v -1.85010339 -5.97631231 -1.26571309
v -1.85009256 -5.77393712 -1.26570591
v -1.85713460 -5.97052037 -1.25566910
v -1.85010337 -5.97629476 -1.26570862
v -1.85715025 -5.77977492 -1.25565998
v -2.06797049 -5.75968775 -1.25566383
v -2.07381023 -5.75264060 -1.26569439
v -2.08801420 -5.75966843 -1.26570940
v -2.08801111 -5.75968580 -1.26570002
v -2.09510015 -5.97634239 -1.26571004
v -2.08799388 -5.99055107 -1.26571800
v -1.87140342 -5.99763263 -1.26570749
v -1.85009067 -5.97629188 -1.26570508
v -1.86380454 -5.98390467 -1.25566989
v -1.85719527 -5.99054219 -1.26569299
v -1.48440080 -5.96178004 -1.30587062
v -1.65770444 -5.78848589 -1.30586628
v -1.65768876 -5.96177425 -1.30585244
v -1.48439548 -5.78845215 -1.30585698
v -1.66171896 -5.97049378 -1.26401453
v -1.48440056 -5.96177045 -1.30585863
v -1.65769036 -5.96177824 -1.30585279
v -1.48037251 -5.97051610 -1.26401115
v -1.47569668 -5.78443259 -1.26401716
v -1.48439523 -5.96177924 -1.30586076
v -1.47569096 -5.96578203 -1.26401651
v -1.48439338 -5.78847417 -1.30586410
v -1.48035931 -5.77975658 -1.26401770
v -1.65770702 -5.78847112 -1.30585851
v -1.48439185 -5.78846952 -1.30586728
v -1.66170645 -5.77976066 -1.26401488
v -1.65769928 -5.96177552 -1.30587872
v -1.66643719 -5.78445627 -1.26401923
v -1.66644243 -5.96578228 -1.26402039
v -1.65770770 -5.78845992 -1.30585313
v -1.66487237 -5.96893287 -1.26401430
v -1.66171422 -5.97052022 -1.26400651
v -1.65768941 -5.96176743 -1.30585449
v -1.47808035 -5.98054873 -1.25566521
v -1.66171733 -5.97051585 -1.26401190
v -1.66171345 -5.97051330 -1.26401549
v -1.66407106 -5.98055820 -1.25565789
v -1.48037719 -5.97051705 -1.26401429
v -1.47727444 -5.96893209 -1.26400987
v -1.48439595 -5.96177949 -1.30585627
v -1.48037178 -5.97051226 -1.26400938
v -1.48439470 -5.96177138 -1.30586038
v -1.47726603 -5.96894723 -1.26400781
v -1.47569251 -5.96578487 -1.26401464
v -1.46564963 -5.96815685 -1.25565679
v -1.47570273 -5.78445606 -1.26401065
v -1.47568078 -5.96578543 -1.26401400
v -1.47570080 -5.96578868 -1.26401242
v -1.46564014 -5.78212154 -1.25567564
v -1.47725402 -5.78130157 -1.26401838
v -1.48438187 -5.78846470 -1.30586091
v -1.47568940 -5.78444300 -1.26400539
v -1.48038795 -5.77974994 -1.26400572
v -1.48439472 -5.78847003 -1.30586508
v -1.47726721 -5.78130332 -1.26401758
v -1.66171068 -5.77976127 -1.26401501
v -1.47804911 -5.76971525 -1.25567262
v -1.66408377 -5.76971820 -1.25566005
v -1.48037685 -5.77975574 -1.26401982
v -1.48038867 -5.77976980 -1.26401143
v -1.66172183 -5.77976717 -1.26401904
v -1.66487002 -5.78130579 -1.26400973
v -1.65769224 -5.78846769 -1.30585980
v -1.66486975 -5.78129515 -1.26401166
v -1.66642694 -5.78445645 -1.26400977
v -1.65769468 -5.78846685 -1.30585432
v -1.66644796 -5.96577267 -1.26402158
v -1.66643161 -5.96579513 -1.26400430
v -1.67647972 -5.78212476 -1.25566467
v -1.67646942 -5.96815164 -1.25568560
v -1.66644326 -5.78444758 -1.26401533
v -1.66643265 -5.78444181 -1.26401330
v -1.65770808 -5.96176226 -1.30585086
v -1.66644006 -5.96577274 -1.26401470
v -1.66487361 -5.96893785 -1.26400481
v -1.66487222 -5.96892324 -1.26401849
v -1.67233958 -5.97641285 -1.25566610
v -1.47726058 -5.96894716 -1.26400287
v -1.46974898 -5.97642039 -1.25565984
v -1.47726072 -5.96893143 -1.26399842
v -1.47726057 -5.78128993 -1.26401602
v -1.46974780 -5.77381446 -1.25566516
v -1.48037633 -5.77976084 -1.26400643
v -1.47726877 -5.78130125 -1.26401802
v -1.46975472 -5.77381023 -1.25566562
v -1.66486027 -5.78130782 -1.26402572
v -1.66487300 -5.78129088 -1.26400488
v -1.67234389 -5.77382392 -1.25566594
v -1.66644005 -5.78445124 -1.26402965
v -1.67235214 -5.97641794 -1.25565452
v -1.66486461 -5.96892706 -1.26401501
v -1.67234794 -5.77384539 -1.25566182
v -1.46974474 -5.97640440 -1.25566841
v -1.46974788 -5.77382325 -1.25567319
v -1.67235113 -5.77382075 -1.25565564
v -1.67982664 -5.98390319 -1.25566405
v -1.68647554 -5.99055522 -1.26569610
v -1.67228116 -5.99763881 -1.26569941
v -1.68648633 -5.97050897 -1.25565607
v -1.68647391 -5.99056225 -1.26570907
v -1.67981812 -5.98389564 -1.25566510
v -1.66643493 -5.99054554 -1.25566995
v -1.67982867 -5.98389671 -1.25566881
v -1.68647798 -5.77975480 -1.25567174
v -1.68646369 -5.97049845 -1.25567691
v -1.67982764 -5.76633613 -1.25567031
v -1.67648219 -5.96815106 -1.25565991
v -1.66644153 -5.99053787 -1.25566303
v -1.67234690 -5.97640658 -1.25566069
v -1.66407703 -5.98055283 -1.25565246
v -1.47568529 -5.99055195 -1.25567597
v -1.47805161 -5.98055847 -1.25567693
v -1.46975047 -5.97641467 -1.25565614
v -1.46226611 -5.98389212 -1.25567353
v -1.46565201 -5.96814855 -1.25565906
v -1.46565105 -5.78212028 -1.25566853
v -1.67647457 -5.78212298 -1.25567370
v -1.66643677 -5.75968667 -1.25567816
v -1.67233955 -5.77382087 -1.25567094
v -1.66408221 -5.76972377 -1.25565458
v -1.47569207 -5.75968117 -1.25565544
v -1.47805050 -5.76971732 -1.25566834
v -1.46974319 -5.77381876 -1.25565759
v -1.46227502 -5.76634391 -1.25565624
v -1.45561415 -5.97051396 -1.25566450
v -1.45561757 -5.77975456 -1.25567369
v -1.69356794 -5.97633610 -1.26570475
v -1.47569648 -5.99055656 -1.25566209
v -1.67227521 -5.99763285 -1.26571459
v -1.46986957 -5.99763708 -1.26571270
v -1.66643347 -5.99055067 -1.25567222
v -1.46227860 -5.98390856 -1.25566468
v -1.47569894 -5.99056000 -1.25566664
v -1.45559700 -5.99054861 -1.26569873
v -1.45561132 -5.97050605 -1.25567435
v -1.46227105 -5.98389589 -1.25566516
v -1.44856823 -5.97634312 -1.26570581
v -1.44857226 -5.77395356 -1.26571223
v -1.45560950 -5.97050068 -1.25565246
v -1.44856622 -5.97633231 -1.26569773
v -1.45561759 -5.77977556 -1.25566482
v -1.45562501 -5.75968667 -1.26569973
v -1.46227791 -5.76633828 -1.25565644
v -1.45561029 -5.77976017 -1.25565875
v -1.47567890 -5.75968340 -1.25565644
v -1.46226851 -5.76634229 -1.25566285
v -1.46986992 -5.75264130 -1.26570816
v -1.66645390 -5.75968372 -1.25567372
v -1.46986647 -5.75262728 -1.26570756
v -1.67227182 -5.75262787 -1.26570016
v -1.47568415 -5.75968691 -1.25565977
v -1.66644274 -5.75968913 -1.25566083
v -1.68648120 -5.75967913 -1.26568737
v -1.67983835 -5.76634372 -1.25565727
v -1.67982767 -5.76633045 -1.25567204
v -1.69356460 -5.77393781 -1.26570297
v -1.68647476 -5.77977225 -1.25567248
v -1.68646735 -5.97050944 -1.25566430
v -1.69356720 -5.77393430 -1.26571196
v -1.69357382 -5.97632946 -1.26570297
v -1.68647116 -5.77976799 -1.25565549
v -1.46986333 -5.99763399 -1.26570022
v -1.44857242 -5.97635143 -1.26571147
v -1.46225676 -5.98388869 -1.25566744
v -1.45561488 -5.99054335 -1.26570519
v -1.45562180 -5.75967568 -1.26570064
v -1.45563024 -5.77976597 -1.25566404
v -1.44856356 -5.77393571 -1.26570835
v -1.46226887 -5.76633646 -1.25566689
v -1.45561537 -5.75967577 -1.26571051
v -1.46986815 -5.75265141 -1.26570020
v -1.66643225 -5.75968065 -1.25565860
v -1.67226501 -5.75263495 -1.26570066
v -1.68647890 -5.75967621 -1.26570636
v -1.68648719 -5.75967856 -1.26569112
v -1.88597589 -5.96177256 -1.30586312
v -2.05923848 -5.78846404 -1.30586697
v -2.05923776 -5.96178201 -1.30586230
v -1.88597746 -5.78847170 -1.30587029
v -1.88194223 -5.77976027 -1.26402557
v -2.05923998 -5.78846900 -1.30586315
v -1.88597927 -5.78845913 -1.30586111
v -2.06324627 -5.77976014 -1.26400274
v -2.05924842 -5.96175980 -1.30584957
v -2.06797210 -5.78443233 -1.26401086
v -2.06797038 -5.96579247 -1.26400442
v -2.05923468 -5.78846748 -1.30584369
v -2.06325162 -5.97051141 -1.26401365
v -1.88597448 -5.96176817 -1.30585325
v -2.05923338 -5.96178821 -1.30585138
v -1.88195311 -5.97051991 -1.26400810
v -1.87722510 -5.78445608 -1.26399514
v -1.88597762 -5.96178386 -1.30586637
v -1.87721915 -5.96578857 -1.26401486
v -1.88596967 -5.78846849 -1.30586315
v -1.88195513 -5.77975889 -1.26400521
v -1.88597655 -5.78846270 -1.30585290
v -1.87880877 -5.78130231 -1.26401948
v -2.06325846 -5.77976309 -1.26401738
v -1.87958303 -5.76972494 -1.25566217
v -2.06561482 -5.76972913 -1.25566566
v -1.88195072 -5.77976869 -1.26400932
v -1.88194551 -5.77976270 -1.26400040
v -2.06325390 -5.77976019 -1.26401511
v -2.06639730 -5.78130458 -1.26400455
v -2.05923462 -5.78845609 -1.30586714
v -2.06640235 -5.78130502 -1.26401597
v -2.06798088 -5.78444969 -1.26401240
v -2.05923612 -5.78846821 -1.30585706
v -2.06797000 -5.96579361 -1.26401227
v -2.06797659 -5.96578411 -1.26401272
v -2.07801525 -5.78213272 -1.25566488
v -2.07802153 -5.96814584 -1.25566575
v -2.06797580 -5.78445503 -1.26400671
v -2.06797127 -5.78444288 -1.26399684
v -2.05923620 -5.96176351 -1.30585922
v -2.06797334 -5.96578482 -1.26401045
v -2.06639436 -5.96893887 -1.26401200
v -2.06639521 -5.96892465 -1.26401812
v -2.06326203 -5.97051483 -1.26401166
v -2.05923463 -5.96177121 -1.30585016
v -1.87958064 -5.98055088 -1.25566829
v -2.06325191 -5.97051394 -1.26401384
v -2.06326041 -5.97051467 -1.26401522
v -2.06561410 -5.98055230 -1.25566038
v -1.88195437 -5.97051451 -1.26400852
v -1.88195231 -5.97050997 -1.26400764
v -1.87879834 -5.96893503 -1.26401364
v -1.88596451 -5.96177063 -1.30586186
v -1.88195173 -5.97051992 -1.26401895
v -1.88598229 -5.96177656 -1.30584911
v -1.87880513 -5.96893131 -1.26401230
v -1.87723386 -5.96577808 -1.26400824
v -1.86719720 -5.96814219 -1.25567249
v -1.87723024 -5.78444422 -1.26401436
v -1.87722125 -5.96578208 -1.26402321
v -1.87723228 -5.96578540 -1.26401627
v -1.86718656 -5.78212031 -1.25566284
v -1.87880765 -5.78129762 -1.26401652
v -1.88597766 -5.78847219 -1.30585637
v -1.87722920 -5.78444881 -1.26402023
v -1.87132208 -5.77382555 -1.25567146
v -1.87880241 -5.78130842 -1.26400764
v -2.06638169 -5.78129565 -1.26401951
v -2.06640081 -5.78130961 -1.26401490
v -2.07387588 -5.77381427 -1.25567219
v -2.06797400 -5.78444084 -1.26400011
v -2.07388425 -5.77382435 -1.25566466
v -2.07389969 -5.97642031 -1.25566691
v -2.06640211 -5.96894775 -1.26401398
v -2.06640431 -5.96893152 -1.26401865
v -2.07388135 -5.97641824 -1.25566110
v -1.87881892 -5.96893913 -1.26400701
v -1.87132331 -5.97642721 -1.25566277
v -1.87131847 -5.97641850 -1.25567308
v -1.87880640 -5.96893894 -1.26401835
v -1.87881458 -5.78130416 -1.26401271
v -1.87132432 -5.77381888 -1.25566446
v -2.07387318 -5.77380308 -1.25565996
vt 0.52090001 0.38599998
vt 0.50669998 0.40740001
vt 0.53710002 0.40740001
vt 0.99999988 0.91420001
vt 0.98579991 0.89279997
vt 0.95709991 0.89279997
vt 0.54960001 0.38599998
vt 0.52090001 0.38599998
vt 0.53710002 0.40740001
vt 0.47793269 0.98681772
vt 0.04279994 1.00008762
vt 0.44939941 1.00096989
vt 0.01418273 0.98581135
vt 0.44436410 0.97951168
vt 0.49211541 0.95816791
vt 0.46198761 0.97071862
vt 0.47079930 0.95307523
vt 0.49211541 0.55066788
vt 0.47079930 0.55566812
vt 0.46198761 0.53798640
vt 0.47793269 0.52195650
vt 0.44436410 0.52911687
vt 0.04783523 0.52825642
vt 0.04783523 0.97865117
vt -0.00000000 0.95709997
vt 0.03012780 0.96978146
vt 0.02139997 0.95209998
vt -0.00000000 0.54960001
vt 0.02139997 0.55469286
vt 0.03012780 0.53704929
vt 0.01418273 0.52095020
vt 0.44939941 0.50768054
vt 0.04279994 0.50679809
vt 0.96959990 0.91420001
vt 0.95709997 0.38599998
vt 0.53710002 0.40740001
vt 0.96950001 0.40740001
vt 0.54959601 0.38599998
vt 0.95709997 0.38599998
vt 0.99989998 0.40740001
vt 0.98570001 0.38599998
vt 0.01419997 0.38599998
vt 0.03039997 0.40740001
vt 0.04289996 0.38599998
vt 0.45039999 0.38599998
vt 0.03039997 0.40740001
vt 0.46280000 0.40740001
vt 0.04289598 0.38599998
vt 0.45039999 0.38599998
vt 0.49320000 0.40740001
vt 0.47900000 0.38599998
vt 0.01419997 0.14450002
vt 0.03039997 0.16600001
vt 0.04289996 0.14450002
vt 0.45039999 0.14450002
vt 0.03039997 0.16600001
vt 0.46280000 0.16600001
vt 0.04289598 0.14450002
vt 0.47900000 0.14450002
vt 0.45039999 0.14450002
vt 0.49320000 0.16600001
vt 0.54960001 0.89279997
vt 0.52100003 0.89279997
vt 0.53719997 0.91420001
vt 0.96960002 0.91420001
vt 0.54951668 0.89279997
vt 0.53719997 0.91420001
vt 0.95709997 0.89279997
vt 0.95709997 0.38599998
vt 0.96950001 0.40740001
vt 0.99989998 0.40740001
vt 0.00000000 0.40740001
vt 0.46280000 0.40740001
vt 0.00000000 0.16600001
vt 0.46280000 0.16600001
vt 0.53719997 0.91420001
vt 0.52100003 0.89279997
vt 0.50680000 0.91420001
vt 0.06149996 0.93849999
vt 0.43180010 0.56819987
vt 0.06149996 0.56819987
vt 0.43180010 0.93849999
vt 0.44029999 0.16240001
vt 0.06149995 0.25180000
vt 0.43174201 0.25180000
vt 0.05289995 0.16240001
vt 0.55970001 0.91060001
vt 0.93854201 1.00000000
vt 0.94709998 0.91060001
vt 0.56830001 1.00000000
vt 0.94700003 0.40380001
vt 0.56819999 0.49320000
vt 0.93844199 0.49320000
vt 0.55960000 0.40380001
vt 0.06149995 0.49320000
vt 0.44029999 0.40380001
vt 0.05289995 0.40380001
vt 0.43174201 0.49320000
vt 0.44700000 0.16240001
vt 0.44029999 0.16240001
vt 0.43169999 0.25180000
vt 0.02139997 0.95209998
vt 0.04289996 0.55951118
vt 0.04289996 0.55970001
vt 0.02139997 0.55460000
vt 0.04289996 0.94700003
vt 0.04619997 0.16240001
vt 0.06149995 0.25180000
vt 0.05289995 0.16240001
vt 0.93849999 1.00000000
vt 0.95380002 0.91060001
vt 0.94709998 0.91060001
vt 0.04789996 0.97860003
vt 0.44029999 0.95709997
vt 0.05281107 0.95709997
vt 0.05299997 0.95709997
vt 0.44540000 0.97860003
vt 0.55299997 0.91060001
vt 0.56830001 1.00000000
vt 0.55970001 0.91060001
vt 0.94700003 0.40380001
vt 0.93849999 0.49320000
vt 0.95370001 0.40380001
vt 0.45039999 0.55970001
vt 0.47180000 0.95209998
vt 0.47180000 0.55460000
vt 0.45039999 0.94718885
vt 0.45039999 0.94700003
vt 0.55960000 0.40380001
vt 0.55290002 0.40380001
vt 0.56819999 0.49320000
vt 0.44700000 0.40380001
vt 0.44029999 0.40380001
vt 0.43169999 0.49320000
vt 0.05299997 0.54960001
vt 0.05294281 0.54958570
vt 0.44540000 0.52820003
vt 0.04789996 0.52820003
vt 0.44048890 0.54960001
vt 0.44029999 0.54960001
vt 0.06149995 0.49320000
vt 0.05289995 0.40380001
vt 0.04619997 0.40380001
vt 0.04625235 0.55295706
vt 0.03020000 0.53690004
vt 0.04619997 0.95380002
vt 0.03020000 0.96980000
vt 0.04619997 0.95380002
vt 0.44710001 0.95380002
vt 0.46309999 0.96980000
vt 0.45039999 0.94700003
vt 0.44710001 0.95380002
vt 0.46309999 0.96980000
vt 0.44710001 0.55289996
vt 0.44710001 0.55289996
vt 0.46309999 0.53690004
vt 0.44029999 0.54960001
vt 0.03020000 0.53690004
vt 0.04619997 0.55289996
vt 0.46309999 0.53690004
vt 0.03020000 0.96980000
vt 0.46309999 0.96980000
vt 0.46309999 0.53690004
vt 0.52090001 0.38599998
vt 0.50669998 0.40740001
vt 0.53710002 0.40740001
vt 0.95710009 0.89279997
vt 1.00000000 0.91420001
vt 0.98580009 0.89279997
vt 0.54960001 0.38599998
vt 0.01423856 0.52103436
vt 0.45108441 0.50776827
vt 0.04288419 0.50688243
vt 0.47981429 0.52204466
vt 0.04793930 0.52825671
vt 0.00000000 0.54960001
vt 0.03024641 0.53704953
vt 0.02139997 0.55469286
vt 0.00000000 0.95709997
vt 0.02139997 0.95209998
vt 0.03024641 0.96986580
vt 0.01423856 0.98581147
vt 0.04793930 0.97865140
vt 0.44602931 0.97951525
vt 0.44602931 0.52912050
vt 0.49405289 0.55067211
vt 0.46380639 0.53799039
vt 0.47256860 0.55567193
vt 0.49405289 0.95817208
vt 0.47256860 0.95307904
vt 0.46380639 0.97080666
vt 0.47981429 0.98682183
vt 0.04288419 1.00008774
vt 0.45108441 1.00097358
vt 0.96960008 0.91420001
vt 0.95709997 0.38599998
vt 0.53710002 0.40740001
vt 0.96950001 0.40740001
vt 0.54959601 0.38599998
vt 0.98570001 0.38599998
vt 0.95709997 0.38599998
vt 0.99989998 0.40740001
vt 0.04289996 0.38599998
vt 0.01419997 0.38599998
vt 0.03039997 0.40740001
vt 0.46280000 0.40740001
vt 0.04289598 0.38599998
vt 0.03039997 0.40740001
vt 0.45039999 0.38599998
vt 0.49320000 0.40740001
vt 0.47900000 0.38599998
vt 0.45039999 0.38599998
vt 0.04289996 0.14450002
vt 0.01419997 0.14450002
vt 0.03039997 0.16600001
vt 0.45039999 0.14450002
vt 0.03039997 0.16600001
vt 0.46280000 0.16600001
vt 0.04289598 0.14450002
vt 0.45039999 0.14450002
vt 0.49320000 0.16600001
vt 0.47900000 0.14450002
vt 0.52100003 0.89279997
vt 0.53719997 0.91420001
vt 0.54960001 0.89279997
vt 0.95709997 0.89279997
vt 0.53719997 0.91420001
vt 0.96960002 0.91420001
vt 0.54959601 0.89279997
vt 0.96950001 0.40740001
vt 0.03039997 0.40740001
vt 0.01419997 0.38599998
vt -0.00000000 0.40740001
vt 0.49320000 0.40740001
vt 0.45039999 0.38599998
vt 0.46280000 0.40740001
vt 0.01419997 0.14450002
vt 0.00000000 0.16600001
vt 0.03039997 0.16600001
vt 0.45039999 0.14450002
vt 0.46280000 0.16600001
vt 0.49320000 0.16600001
vt 0.50680000 0.91420001
vt 0.43180001 0.56819999
vt 0.06149995 0.93849999
vt 0.43180001 0.93849999
vt 0.06149995 0.56819999
vt 0.44029999 0.16240001
vt 0.06149995 0.25180000
vt 0.43173829 0.25180000
vt 0.05289995 0.16240001
vt 0.56830001 1.00000000
vt 0.94709998 0.91060001
vt 0.55970001 0.91060001
vt 0.93854201 1.00000000
vt 0.94700003 0.40380001
vt 0.56819999 0.49320000
vt 0.93843830 0.49320000
vt 0.55960000 0.40380001
vt 0.05289995 0.40380001
vt 0.43174201 0.49320000
vt 0.44029999 0.40380001
vt 0.06149995 0.49320000
vt 0.44029999 0.16240001
vt 0.43169999 0.25180000
vt 0.44700000 0.16240001
vt 0.04289996 0.94700003
vt 0.02139997 0.55460000
vt 0.02139997 0.95209998
vt 0.04289996 0.55959529
vt 0.04289996 0.55970001
vt 0.05289995 0.16240001
vt 0.04619997 0.16240001
vt 0.06149995 0.25180000
vt 0.95380002 0.91060001
vt 0.94709998 0.91060001
vt 0.93849999 1.00000000
vt 0.44029999 0.95709997
vt 0.44035709 0.95715243
vt 0.04789996 0.97860003
vt 0.44540000 0.97860003
vt 0.05281107 0.95709997
vt 0.05299997 0.95709997
vt 0.56830001 1.00000000
vt 0.55970001 0.91060001
vt 0.55299997 0.91060001
vt 0.95370001 0.40380001
vt 0.94700003 0.40380001
vt 0.93849999 0.49320000
vt 0.47180000 0.55460000
vt 0.45039999 0.94710475
vt 0.45039999 0.94700003
vt 0.47180000 0.95209998
vt 0.45039999 0.55970001
vt 0.45041430 0.55964291
vt 0.55290002 0.40380001
vt 0.56819999 0.49320000
vt 0.55960000 0.40380001
vt 0.43169999 0.49320000
vt 0.44700000 0.40380001
vt 0.44029999 0.40380001
vt 0.44540000 0.52820003
vt 0.05299997 0.54960001
vt 0.44048890 0.54960001
vt 0.44029999 0.54960001
vt 0.04789996 0.52820003
vt 0.04619997 0.40380001
vt 0.06149995 0.49320000
vt 0.05289995 0.40380001
vt 0.03020000 0.53690004
vt 0.04619997 0.55289996
vt 0.04619997 0.95380002
vt 0.04619997 0.95380002
vt 0.03020000 0.96980000
vt 0.05299997 0.95709997
vt 0.03020000 0.96980000
vt 0.46309999 0.96980000
vt 0.44710001 0.95380002
vt 0.44708571 0.95374286
vt 0.46309999 0.96980000
vt 0.44710001 0.55289996
vt 0.46309999 0.53690004
vt 0.46309999 0.53690004
vt 0.44704291 0.55291426
vt 0.04619997 0.55289996
vt 0.03020000 0.53690004
vt 0.03020000 0.96980000
f 1/1 2/2 3/3
f 4/4 5/5 6/6
f 7/7 8/8 9/9
f 10/10 11/11 12/12
f 11/11 10/10 13/13
f 13/13 10/10 14/14
f 14/14 10/10 15/15
f 14/14 15/15 16/16
f 16/16 15/15 17/17
f 17/17 15/15 18/18
f 17/17 18/18 19/19
f 19/19 18/18 20/20
f 20/20 18/18 21/21
f 20/20 21/21 22/22
f 22/22 21/21 23/23
f 13/13 24/24 25/25
f 24/24 13/13 14/14
f 25/25 24/24 26/26
f 25/25 26/26 27/27
f 25/25 27/27 28/28
f 28/28 27/27 29/29
f 28/28 29/29 30/30
f 28/28 30/30 31/31
f 31/31 30/30 23/23
f 31/31 23/23 21/21
f 31/31 21/21 32/32
f 31/31 32/32 33/33
f 4/4 6/6 34/34
f 35/35 36/36 37/37
f 36/36 35/35 38/38
f 39/39 40/40 41/41
f 42/42 43/43 44/44
f 45/45 46/46 47/47
f 46/46 45/45 48/48
f 49/49 50/50 51/51
f 52/52 53/53 54/54
f 55/55 56/56 57/57
f 56/56 55/55 58/58
f 59/59 60/60 61/61
f 62/62 63/63 64/64
f 65/65 66/66 67/67
f 66/66 65/65 68/68
f 69/69 70/70 71/71
f 72/72 43/43 42/42
f 49/49 73/73 50/50
f 52/52 74/74 53/53
f 60/60 75/75 61/61
f 76/76 77/77 78/78
f 79/79 80/80 81/81
f 80/80 79/79 82/82
f 83/83 84/84 85/85
f 84/84 83/83 86/86
f 87/87 88/88 89/89
f 88/88 87/87 90/90
f 91/91 92/92 93/93
f 92/92 91/91 94/94
f 95/95 96/96 97/97
f 96/96 95/95 98/98
f 99/99 100/100 101/101
f 102/102 103/103 105/105
f 103/103 102/102 106/106
f 107/107 108/108 109/109
f 110/110 111/111 112/112
f 113/113 114/114 115/115
f 114/114 113/113 117/117
f 118/118 119/119 120/120
f 121/121 122/122 123/123
f 124/124 125/125 126/126
f 125/125 124/124 127/127
f 129/129 130/130 131/131
f 132/132 133/133 134/134
f 135/135 137/137 138/138
f 137/137 135/135 139/139
f 141/141 142/142 143/143
f 105/105 144/144 145/145
f 144/144 105/105 104/104
f 146/146 106/106 102/102
f 147/147 116/116 148/148
f 113/113 116/116 147/147
f 117/117 149/149 114/114
f 150/150 151/151 152/152
f 153/153 125/125 128/128
f 124/124 126/126 154/154
f 155/155 156/156 157/157
f 158/158 136/136 138/138
f 136/136 158/158 159/159
f 140/140 160/160 137/137
f 161/161 146/146 102/102
f 117/117 162/162 149/149
f 126/126 163/163 154/154
f 164/164 165/165 166/166
f 167/167 168/168 169/169
f 164/164 166/166 170/170
f 171/171 172/172 173/173
f 172/172 171/171 174/174
f 174/174 171/171 175/175
f 175/175 171/171 176/176
f 175/175 176/176 177/177
f 177/177 176/176 178/178
f 178/178 176/176 179/179
f 178/178 179/179 180/180
f 180/180 179/179 181/181
f 181/181 179/179 182/182
f 181/181 182/182 183/183
f 183/183 182/182 184/184
f 174/174 185/185 186/186
f 185/185 174/174 175/175
f 186/186 185/185 187/187
f 186/186 187/187 188/188
f 186/186 188/188 189/189
f 189/189 188/188 190/190
f 189/189 190/190 191/191
f 189/189 191/191 192/192
f 192/192 191/191 184/184
f 192/192 184/184 182/182
f 192/192 182/182 193/193
f 192/192 193/193 194/194
f 167/167 195/195 168/168
f 196/196 197/197 198/198
f 197/197 196/196 199/199
f 200/200 201/201 202/202
f 203/203 204/204 205/205
f 206/206 207/207 208/208
f 207/207 206/206 209/209
f 210/210 211/211 212/212
f 213/213 214/214 215/215
f 216/216 217/217 218/218
f 217/217 216/216 219/219
f 220/220 221/221 222/222
f 223/223 224/224 225/225
f 226/226 227/227 228/228
f 227/227 226/226 229/229
f 201/201 230/230 202/202
f 231/231 232/232 233/233
f 234/234 235/235 236/236
f 237/237 238/238 239/239
f 240/240 241/241 242/242
f 243/243 224/224 223/223
f 244/244 245/245 246/246
f 245/245 244/244 247/247
f 248/248 249/249 250/250
f 249/249 248/248 251/251
f 252/252 253/253 254/254
f 253/253 252/252 255/255
f 256/256 257/257 258/258
f 257/257 256/256 259/259
f 260/260 261/261 262/262
f 261/261 260/260 263/263
f 264/264 265/265 266/266
f 267/267 268/268 269/269
f 268/268 267/267 270/270
f 272/272 273/273 274/274
f 275/275 276/276 277/277
f 278/278 280/280 281/281
f 280/280 278/278 282/282
f 284/284 285/285 286/286
f 287/287 288/288 289/289
f 290/290 291/291 293/293
f 291/291 290/290 294/294
f 296/296 297/297 298/298
f 299/299 300/300 301/301
f 302/302 303/303 304/304
f 303/303 302/302 306/306
f 307/307 308/308 309/309
f 310/310 271/271 311/311
f 310/310 268/268 271/271
f 267/267 269/269 312/312
f 313/313 314/314 315/315
f 283/283 316/316 280/280
f 317/317 279/279 281/281
f 279/279 317/317 318/318
f 293/293 319/319 320/320
f 319/319 293/293 292/292
f 290/290 321/321 295/295
f 321/321 290/290 322/322
f 323/323 305/305 324/324
f 305/305 323/323 302/302
f 306/306 325/325 303/303
f 306/306 326/326 325/325
f 269/269 327/327 312/312

