# https://github.com/mikedh/trimesh
v 3.43824064 -1.81950839 -0.97457672
v 3.09692702 -1.81951126 -1.28577789
v 3.43824903 -1.81950070 -1.28578548
v 3.09691726 -1.81951189 -0.97458099
v 3.09690971 -1.27742206 -0.97459008
v 3.43823453 -1.27742438 -1.28578272
v 3.09692920 -1.27741308 -1.28578138
v 3.43824948 -1.27742524 -0.97457870
vt -0.49610001 -0.49020004
vt -0.76169997 -0.24800003
vt -0.49610001 -0.24800003
vt -0.76169997 -0.49020004
vt 0.50389999 -0.49020004
vt 0.23830000 -0.24800003
vt 0.50389999 -0.24800003
vt 0.23830000 -0.49020004
f 1/1 2/2 3/3
f 2/2 1/1 4/4
f 5/5 6/6 7/7
f 6/6 5/5 8/8

