# https://github.com/mikedh/trimesh
v -0.10588893 -0.54087306 -1.15219077
v -0.16371236 -0.53969168 -1.15341509
v -0.10582268 -0.53960831 -1.15347499
v -0.16378941 -0.54090067 -1.15222445
v -0.10602672 -0.51698892 -1.15350547
v -0.16375943 -0.53969216 -1.15345320
v -0.16369512 -0.51691801 -1.15344265
v -0.10581917 -0.53969896 -1.15341566
v -0.10584520 -0.53965627 -1.15347722
v -0.10474176 -0.53968729 -1.15221439
v -0.10595276 -0.54087739 -1.15223572
v -0.10586559 -0.54085356 -1.12450210
v -0.16375502 -0.54087292 -1.15218269
v -0.10581203 -0.54093642 -1.15214165
v -0.16364259 -0.54082170 -1.12450721
v -0.16373591 -0.53957959 -1.15332521
v -0.16361697 -0.54079169 -1.15220668
v -0.16499225 -0.53966181 -1.15218986
v -0.10596843 -0.53963934 -1.15341125
v -0.10465081 -0.51704320 -1.15226398
v -0.10471448 -0.53972733 -1.15212898
v -0.10592388 -0.51695813 -1.15344996
v -0.16483529 -0.51690239 -1.15219116
v -0.16384215 -0.53965863 -1.15339698
v -0.16486787 -0.53969630 -1.15212433
v -0.16379250 -0.51701382 -1.15338285
v -0.16371550 -0.51565906 -1.15221617
v -0.10593160 -0.51699785 -1.15349677
v -0.16379010 -0.51694118 -1.15340275
v -0.10582321 -0.51581406 -1.15213180
v -0.10591215 -0.54077711 -1.15225111
v -0.10473129 -0.53964752 -1.12446408
v -0.10588694 -0.54089855 -1.12459748
v -0.10476874 -0.53963330 -1.15217113
v -0.16493355 -0.53972196 -1.12447299
v -0.16379025 -0.54090572 -1.15219186
v -0.16384477 -0.54084391 -1.12455478
v -0.16491817 -0.53966582 -1.15221541
v -0.10585697 -0.53970420 -1.12323735
v -0.16367744 -0.54081819 -1.12445658
v -0.10585172 -0.54081817 -1.12451783
v -0.16379848 -0.53966915 -1.12336051
v -0.10597599 -0.51575711 -1.15225874
v -0.10474784 -0.51703526 -1.15221168
v -0.10587583 -0.51690227 -1.15343620
v -0.10463137 -0.53958272 -1.15216211
v -0.10482293 -0.51690754 -1.12450298
v -0.10466612 -0.53964069 -1.12450056
v -0.10467198 -0.51699680 -1.15233369
v -0.16493044 -0.51702181 -1.12446135
v -0.16494055 -0.53965687 -1.15227454
v -0.16495303 -0.53966221 -1.12460559
v -0.16490741 -0.51698259 -1.15229344
v -0.16385310 -0.51574279 -1.15224350
v -0.16374806 -0.51698990 -1.15333329
v -0.16492712 -0.51697175 -1.15231038
v -0.16362564 -0.51572005 -1.15216679
v -0.16121070 -0.51572010 -1.14969798
v -0.10586152 -0.51578019 -1.15230964
v -0.16366042 -0.51588043 -1.12453557
v -0.16122488 -0.51583027 -1.12699935
v -0.10841702 -0.51579620 -1.12700460
v -0.10843256 -0.51569354 -1.14969908
v -0.10592266 -0.51588095 -1.12459560
v -0.10583489 -0.53966441 -1.12333316
v -0.10580361 -0.54093775 -1.12455500
v -0.10471651 -0.53962859 -1.12455938
v -0.16375275 -0.53975181 -1.12327624
v -0.16487899 -0.53968834 -1.12451289
v -0.16379094 -0.54089216 -1.12444460
v -0.10588836 -0.53953166 -1.12336150
v -0.16368564 -0.51698762 -1.12328543
v -0.16371867 -0.53969311 -1.12336602
v -0.10572361 -0.51698097 -1.12343063
v -0.10472641 -0.51693850 -1.15225488
v -0.10581951 -0.51571528 -1.12453064
v -0.10471649 -0.51703312 -1.12456143
v -0.10597882 -0.51570392 -1.15213734
v -0.10476057 -0.53972800 -1.12462151
v -0.10595019 -0.51715127 -1.12338146
v -0.10582308 -0.53968099 -1.12326919
v -0.10471743 -0.51687763 -1.12451087
v -0.16373974 -0.51562813 -1.12454032
v -0.16499298 -0.51696527 -1.15222896
v -0.16486436 -0.51702844 -1.12447683
v -0.16367032 -0.51580918 -1.15221759
v -0.16376497 -0.51684473 -1.12335683
v -0.16494979 -0.53972149 -1.12454154
v -0.16371859 -0.53961839 -1.12335157
v -0.16493476 -0.51705626 -1.12456860
v -0.10574106 -0.51691808 -1.12336118
v -0.16379345 -0.51582649 -1.12452330
v -0.16371631 -0.51701847 -1.12338958
v -0.10581603 -0.51574624 -1.12454314
v -0.10470235 -0.51700640 -1.12468715
v -0.10588949 -0.51583183 -1.12457845
v -0.10593199 -0.51693545 -1.12338305
v -0.16379890 -0.51573566 -1.12447966
v -0.16497823 -0.51694500 -1.12453847
v -0.16370132 -0.51704752 -1.12327041
v -0.80428049 -0.67129872 -1.22532137
v -0.80456023 -0.67382797 -1.22284626
v -0.80686618 -0.67136999 -1.22284172
v -0.80683474 -0.67134936 -1.22287088
v -0.80427900 -0.67390477 -1.22278691
v -0.80433820 -0.67388784 -1.21664859
v -0.80690964 -0.52620167 -1.22282527
v -0.80437945 -0.67139650 -1.22533580
v -0.80680408 -0.67134093 -1.22282131
v -0.80436929 -0.51824373 -1.22536914
v -0.80684138 -0.51833241 -1.22280861
v -0.67135326 -0.67131437 -1.22537190
v -0.80433013 -0.67390292 -1.22277797
v -0.80444392 -0.67139296 -1.22533951
v -0.67125809 -0.67382698 -1.22285877
v -0.67142046 -0.67385338 -1.21663341
v -0.80425309 -0.67380764 -1.22293080
v -0.67122638 -0.67386483 -1.22289428
v -0.80426522 -0.67384542 -1.21665295
v -0.80684561 -0.67128306 -1.21613943
v -0.80693523 -0.67122217 -1.22279159
v -0.80436946 -0.67388865 -1.21668677
v -0.74616738 -0.51828396 -1.22539577
v -0.80430253 -0.67131404 -1.22537495
v -0.80430686 -0.51817065 -1.22541430
v -0.67137425 -0.67128154 -1.22531234
v -0.67132759 -0.51818217 -1.22541395
v -0.80694107 -0.67137928 -1.21618839
v -0.80690267 -0.52626702 -1.22289965
v -0.80689279 -0.67139103 -1.22282417
v -0.80681322 -0.58837357 -1.20015972
v -0.80689058 -0.58245762 -1.20021783
v -0.80677316 -0.52629710 -1.17725758
v -0.80683295 -0.51826779 -1.22281202
v -0.80693879 -0.52612050 -1.22292028
v -0.80681108 -0.51830659 -1.17845738
v -0.80436978 -0.51572672 -1.22284183
v -0.80428626 -0.51826561 -1.22551959
v -0.80690064 -0.51823720 -1.22286959
v -0.66879217 -0.67127745 -1.22285314
v -0.67142409 -0.67376480 -1.22278394
v -0.67135715 -0.67121600 -1.22537238
v -0.66889938 -0.67133933 -1.21613468
v -0.67139304 -0.67373292 -1.21668270
v -0.67128667 -0.67381201 -1.22285349
v -0.67127958 -0.67146189 -1.21357172
v -0.80435173 -0.67387312 -1.21659017
v -0.67128074 -0.67379934 -1.21651987
v -0.80428738 -0.67130540 -1.21367841
v -0.80434216 -0.67134591 -1.21364905
v -0.80684095 -0.67130661 -1.21614781
v -0.80435386 -0.67386229 -1.21667886
v -0.74622445 -0.51566971 -1.22284958
v -0.80430390 -0.51832047 -1.22546173
v -0.80440713 -0.51567116 -1.22278478
v -0.74615565 -0.51829263 -1.22536012
v -0.67135707 -0.51575502 -1.22298573
v -0.74622255 -0.51825822 -1.22526751
v -0.74616528 -0.51565686 -1.22286697
v -0.67135454 -0.51846677 -1.22532671
v -0.66880469 -0.51814836 -1.22287220
v -0.67133504 -0.67137420 -1.22541890
v -0.67138043 -0.51826693 -1.22527656
v -0.66883532 -0.67137898 -1.22283685
v -0.80685056 -0.52627352 -1.17721369
v -0.80696408 -0.52625163 -1.22280744
v -0.80693316 -0.58246718 -1.20015014
v -0.80683240 -0.58844158 -1.20018901
v -0.80678863 -0.67131379 -1.21619583
v -0.80432334 -0.58830602 -1.19765639
v -0.80687424 -0.58247945 -1.20025342
v -0.80435565 -0.58241452 -1.19767097
v -0.80423982 -0.51562996 -1.22294117
v -0.80686584 -0.51822826 -1.22288761
v -0.80690446 -0.51825691 -1.17848053
v -0.80438178 -0.51810988 -1.17596634
v -0.80686856 -0.51816208 -1.17848688
v -0.80684203 -0.52625412 -1.17717598
v -0.66878981 -0.67134200 -1.21628395
v -0.67131936 -0.67390693 -1.22294131
v -0.66885114 -0.67131871 -1.22277272
v -0.67132445 -0.67133225 -1.21371698
v -0.67134160 -0.67383564 -1.21658381
v -0.66882892 -0.67128536 -1.21622363
v -0.67132021 -0.67135424 -1.21371832
v -0.80433828 -0.58836457 -1.19772361
v -0.80429426 -0.67139791 -1.21369598
v -0.74619553 -0.58833879 -1.19753178
v -0.67134966 -0.58832000 -1.19753933
v -0.80431815 -0.67131749 -1.21367484
v -0.74613097 -0.51574285 -1.17883957
v -0.74623074 -0.51577946 -1.22277350
v -0.80435917 -0.51575581 -1.22284047
v -0.67137422 -0.51566074 -1.17897021
v -0.67134392 -0.51571612 -1.17890585
v -0.67138544 -0.51578445 -1.22282091
v -0.74623225 -0.51569929 -1.22293052
v -0.66886665 -0.51824549 -1.22291523
v -0.67130367 -0.51824857 -1.22541102
v -0.67142573 -0.51582365 -1.22284196
v -0.66890049 -0.51832427 -1.22285783
v -0.66870252 -0.52621990 -1.17723507
v -0.66882349 -0.52619560 -1.22292034
v -0.66885477 -0.51822887 -1.17852310
v -0.66884624 -0.52627706 -1.22285936
v -0.66887898 -0.67146673 -1.21626244
v -0.66880871 -0.67124699 -1.22274286
v -0.66883001 -0.58829633 -1.20009702
v -0.66887437 -0.58258295 -1.20022110
v -0.80696187 -0.52625349 -1.17724378
v -0.80693775 -0.58248567 -1.20015312
v -0.80433270 -0.52620614 -1.17460492
v -0.80425071 -0.57242008 -1.18507490
v -0.80686152 -0.58251820 -1.20020514
v -0.80438221 -0.58251971 -1.19765073
v -0.80699185 -0.51823763 -1.17859315
v -0.80435906 -0.51565410 -1.17892927
v -0.80437862 -0.51565894 -1.22281411
v -0.80429812 -0.51823256 -1.17594059
v -0.80439161 -0.51577363 -1.17886645
v -0.80689644 -0.51820043 -1.17838762
v -0.80444783 -0.51825488 -1.17591967
v -0.80687095 -0.52617022 -1.17733475
v -0.80433440 -0.52624397 -1.17464800
v -0.66881683 -0.58841515 -1.20020846
v -0.67126166 -0.67136108 -1.21364207
v -0.66883793 -0.67131052 -1.21626027
v -0.67139650 -0.58827321 -1.19760805
v -0.74612651 -0.58255358 -1.19739732
v -0.80432873 -0.58246043 -1.19758571
v -0.80439296 -0.58845145 -1.19767699
v -0.80426135 -0.51566250 -1.17891948
v -0.74619128 -0.51568131 -1.17890944
v -0.80442119 -0.51566447 -1.22281800
v -0.74631579 -0.51823019 -1.17597457
v -0.67130839 -0.51572707 -1.17893572
v -0.74618082 -0.51572302 -1.17891504
v -0.67136124 -0.51566523 -1.22289805
v -0.67135510 -0.51584983 -1.17886956
v -0.66878888 -0.51821669 -1.22279323
v -0.67131067 -0.51571637 -1.17887333
v -0.66884560 -0.51817675 -1.17854169
v -0.66891767 -0.51819975 -1.22274078
v -0.66888455 -0.51824927 -1.17856063
v -0.67031681 -0.52623291 -1.17581229
v -0.66884618 -0.52631793 -1.17730991
v -0.66889725 -0.52629505 -1.17737466
v -0.66876689 -0.58245887 -1.20033064
v -0.66886900 -0.52627732 -1.22288368
v -0.66891680 -0.58244507 -1.20024509
v -0.67131401 -0.58831694 -1.19753923
v -0.66893749 -0.58824881 -1.20007673
v -0.80432081 -0.52610149 -1.17464437
v -0.80681172 -0.58252900 -1.20015906
v -0.80434359 -0.53835590 -1.17198171
v -0.74619145 -0.57116100 -1.18476548
v -0.80439063 -0.57239872 -1.18510251
v -0.80432822 -0.58262021 -1.19755989
v -0.80436784 -0.56132800 -1.17826761
v -0.80682626 -0.58254613 -1.20008383
v -0.80441615 -0.57252602 -1.18520892
v -0.74609443 -0.51822247 -1.17600357
v -0.80435652 -0.51576917 -1.17893878
v -0.80438908 -0.51817278 -1.17592527
v -0.74623364 -0.52620313 -1.17481231
v -0.80441385 -0.51824084 -1.17604101
v -0.80442561 -0.52622978 -1.17469728
v -0.67142204 -0.58252119 -1.19772329
v -0.74619075 -0.51824829 -1.17598774
v -0.74617460 -0.51577928 -1.17887599
v -0.80431105 -0.51572674 -1.17880364
v -0.67137100 -0.51818332 -1.17600563
v -0.67132226 -0.51578229 -1.17883728
v -0.74616442 -0.51814555 -1.17605383
v -0.67136320 -0.51826277 -1.17601255
v -0.66886951 -0.51825034 -1.17852306
v -0.67133775 -0.51576686 -1.17888944
v -0.66878134 -0.52628623 -1.17727792
v -0.67029957 -0.52620917 -1.17574606
v -0.67133633 -0.52768527 -1.17522162
v -0.67138728 -0.51818359 -1.17598845
v -0.67145528 -0.58256964 -1.19770130
v -0.80431410 -0.53828210 -1.17197550
v -0.80686086 -0.58241983 -1.20022980
v -0.80433087 -0.54986899 -1.17394018
v -0.80431602 -0.53834762 -1.17209843
v -0.74614422 -0.56073623 -1.17821903
v -0.80444969 -0.57245581 -1.18513897
v -0.74616448 -0.57115631 -1.18468789
v -0.74611944 -0.57116427 -1.18478079
v -0.80436760 -0.58250752 -1.19762924
v -0.74626274 -0.58254545 -1.19749862
v -0.80435876 -0.56127391 -1.17826374
v -0.80438294 -0.54991418 -1.17392459
v -0.74618755 -0.51820042 -1.17594501
v -0.80432930 -0.51819852 -1.17599369
v -0.67129711 -0.51820272 -1.17601103
v -0.67146600 -0.58258802 -1.19780055
v -0.67295010 -0.52627373 -1.17458081
v -0.74620560 -0.58247525 -1.19747492
v -0.67137484 -0.52467634 -1.17486723
v -0.67143394 -0.52469304 -1.17496039
v -0.74618432 -0.53956098 -1.17251135
v -0.80429012 -0.54984673 -1.17404372
v -0.74620088 -0.52620072 -1.17488895
v -0.74618648 -0.57111653 -1.18473658
v -0.74622608 -0.58250971 -1.19750915
v -0.74624264 -0.56089804 -1.17815554
v -0.74617590 -0.55031433 -1.17414951
v -0.74618466 -0.53965685 -1.17254657
v -0.74618360 -0.55039242 -1.17404744
v -0.80420832 -0.56123382 -1.17836016
v -0.74618956 -0.56092196 -1.17819290
v -0.74614579 -0.55028150 -1.17414307
v -0.80433621 -0.54982451 -1.17385638
v -0.80438755 -0.56130820 -1.17829847
v -0.67150008 -0.52478144 -1.17491519
v -0.67136128 -0.52771860 -1.17523664
v -0.74621798 -0.52617399 -1.17490826
v -0.67286011 -0.52624860 -1.17462398
v -0.74631746 -0.53961769 -1.17245178
v -0.80437336 -0.54997538 -1.17393670
v -0.74615539 -0.55032984 -1.17415027
v -0.67288588 -0.52625314 -1.17470512
v -0.10851372 -0.51832282 -1.14972231
v -0.16124189 -0.51577589 -1.14971413
v -0.16116297 -0.51815566 -1.14967769
v -0.10848472 -0.51592102 -1.14972415
v -0.10840175 -0.51583696 -1.12701853
v -0.10844888 -0.51825693 -1.14973714
v -0.10838341 -0.51837758 -1.12705848
v -0.10841412 -0.51585175 -1.14961301
v -0.16124378 -0.51820142 -1.14975619
v -0.16122631 -0.51570507 -1.12701674
v -0.16120258 -0.51826462 -1.12711064
v -0.16123528 -0.51582541 -1.14970774
v -0.10843635 -0.51577411 -1.12703817
v -0.16121542 -0.51828153 -1.12707050
v -0.16127264 -0.51580899 -1.12697358
v -0.10838473 -0.51824657 -1.12695624
v -0.74835000 -0.51825090 -1.14977928
v -0.80110522 -0.51574441 -1.14962807
v -0.80113040 -0.51828490 -1.14965383
v -0.74836745 -0.51575128 -1.14973617
v -0.74833326 -0.51576339 -1.12700038
v -0.74833497 -0.51825821 -1.14970909
v -0.74835351 -0.51819223 -1.12697255
v -0.74833204 -0.51580462 -1.14967550
v -0.80111428 -0.51838301 -1.14965987
v -0.80108593 -0.51566442 -1.12701373
v -0.80107569 -0.51811796 -1.12704349
v -0.80113994 -0.51575875 -1.14965498
v -0.74834920 -0.51582270 -1.12700854
v -0.80126619 -0.51834101 -1.12698910
v -0.80111941 -0.51586308 -1.12692556
v -0.74836300 -0.51830900 -1.12705478
v -0.74576437 -0.54088641 -1.15223132
v -0.80358808 -0.53966643 -1.15343018
v -0.74590279 -0.53963676 -1.15351438
v -0.80371312 -0.54078797 -1.15229905
v -0.74575893 -0.51702006 -1.15347357
v -0.80356412 -0.53972049 -1.15341447
v -0.80356990 -0.51691115 -1.15345432
v -0.74571020 -0.53956482 -1.15334621
v -0.74573609 -0.53963631 -1.15327521
v -0.74443749 -0.53970466 -1.15217484
v -0.74573520 -0.54086157 -1.15221815
v -0.74574162 -0.54081293 -1.12450978
v -0.80357220 -0.54078736 -1.15220891
v -0.74573840 -0.54080996 -1.15213494
v -0.80352232 -0.54084442 -1.12451039
v -0.80366010 -0.53964514 -1.15349373
v -0.80364888 -0.54082906 -1.15223243
v -0.80477081 -0.53969681 -1.15215924
v -0.74576096 -0.53959478 -1.15339756
v -0.74455370 -0.51700353 -1.15222500
v -0.74451643 -0.53962234 -1.15229399
v -0.74571138 -0.51698865 -1.15338958
v -0.80483658 -0.51694076 -1.15227156
v -0.80358404 -0.53967832 -1.15345148
v -0.80482922 -0.53967019 -1.15232464
v -0.80354202 -0.51692255 -1.15346032
v -0.80366888 -0.51580800 -1.15217349
v -0.74573387 -0.51699351 -1.15338497
v -0.80364986 -0.51701107 -1.15340874
v -0.74577444 -0.51580477 -1.15236801
v -0.74573130 -0.54084743 -1.15232477
v -0.74452924 -0.53966237 -1.12450640
v -0.74571590 -0.54090723 -1.12448196
v -0.74452454 -0.53961875 -1.15213479
v -0.80476033 -0.53969313 -1.12442096
v -0.80365357 -0.54089165 -1.15228100
v -0.80359709 -0.54080478 -1.12444911
v -0.80477130 -0.53969582 -1.15225790
v -0.74580296 -0.53960799 -1.12336821
v -0.80354270 -0.54086746 -1.12451240
v -0.74568405 -0.54089236 -1.12442865
v -0.80367055 -0.53970793 -1.12340598
v -0.74581103 -0.51573887 -1.15218529
v -0.74454574 -0.51696161 -1.15229274
v -0.74584364 -0.51695954 -1.15335964
v -0.74458346 -0.53973288 -1.15231298
v -0.74460126 -0.51688782 -1.12453376
v -0.74462135 -0.53969583 -1.12454926
v -0.74454805 -0.51701373 -1.15227681
v -0.80480793 -0.51695027 -1.12448176
v -0.80476641 -0.53968728 -1.15232208
v -0.80484226 -0.53964559 -1.12459706
v -0.80478316 -0.51700979 -1.15225950
v -0.80352837 -0.51575934 -1.15214973
v -0.80364412 -0.51691305 -1.15338431
v -0.80496575 -0.51698159 -1.15214006
v -0.80354756 -0.51579645 -1.15223986
v -0.80115969 -0.51576004 -1.14981966
v -0.74582613 -0.51570871 -1.15222793
v -0.80361174 -0.51577759 -1.12436792
v -0.80102822 -0.51581525 -1.12694011
v -0.74828868 -0.51573005 -1.12706681
v -0.74833642 -0.51572655 -1.14976207
v -0.74581297 -0.51572116 -1.12458741
v -0.74584884 -0.53963092 -1.12342743
v -0.74581131 -0.54088619 -1.12459771
v -0.74462581 -0.53962412 -1.12450563
v -0.80364448 -0.53963179 -1.12323182
v -0.80486947 -0.53965812 -1.12441094
v -0.80355695 -0.54081990 -1.12453333
v -0.74581391 -0.53959728 -1.12328049
v -0.80359421 -0.51700279 -1.12341550
v -0.80358254 -0.53970045 -1.12332465
v -0.74573132 -0.51693052 -1.12327682
v -0.74443620 -0.51691112 -1.15226872
v -0.74581505 -0.51564074 -1.12455937
v -0.74456547 -0.51687852 -1.12442563
v -0.74577211 -0.51575803 -1.15231870
v -0.74461406 -0.53968210 -1.12452239
v -0.74578722 -0.51696806 -1.12319396
v -0.74574294 -0.53964420 -1.12331714
v -0.74457265 -0.51690730 -1.12457781
v -0.80359837 -0.51583325 -1.12451718
v -0.80479067 -0.51692487 -1.15215944
v -0.80476008 -0.51688541 -1.12443276
v -0.80357358 -0.51575065 -1.15233564
v -0.80357330 -0.51697691 -1.12341217
v -0.80482162 -0.53960773 -1.12459172
v -0.80351861 -0.53963487 -1.12333008
v -0.80480537 -0.51692996 -1.12460255
v -0.74565430 -0.51702236 -1.12336027
v -0.80352267 -0.51572722 -1.12444756
v -0.80353250 -0.51695546 -1.12338900
v -0.74579563 -0.51576048 -1.12452304
v -0.74467840 -0.51691790 -1.12442474
v -0.74568673 -0.51582886 -1.12449756
v -0.74588860 -0.51688160 -1.12342631
v -0.80356823 -0.51570627 -1.12444947
v -0.80477802 -0.51705678 -1.12452776
v -0.80360639 -0.51695591 -1.12326171
v 3.29647521 -4.20232121 -1.22280827
v 3.29390636 -4.20234885 -1.22537106
v 3.29394407 -4.19991049 -1.22297437
v 3.29645355 -4.20242422 -1.22285723
v 3.29392028 -4.19999287 -1.21662819
v 3.29652249 -4.20245046 -1.21622524
v 3.29389405 -4.19980725 -1.22292164
v 3.29648549 -4.20243423 -1.22273744
v 3.29400195 -4.28543770 -1.22544004
v 3.29400860 -4.20235851 -1.22541550
v 3.29397012 -4.35555650 -1.22539701
v 3.29634751 -4.35545902 -1.22283020
v 3.29395603 -4.19983899 -1.22280785
v 3.16095328 -4.20239836 -1.22541323
v 3.16091847 -4.19998847 -1.22289604
v 3.29392306 -4.20238079 -1.22523765
v 3.16085940 -4.19991091 -1.21663681
v 3.29395787 -4.19988791 -1.22282506
v 3.16086603 -4.19989846 -1.22279527
v 3.29389936 -4.19980944 -1.21664603
v 3.29389258 -4.20238476 -1.21366315
v 3.29636112 -4.20244196 -1.21610617
v 3.29404081 -4.19995254 -1.21658193
v 3.29644544 -4.35549551 -1.22277418
v 3.29649078 -4.34751085 -1.17733079
v 3.29637968 -4.35551507 -1.17850443
v 3.29646628 -4.29125486 -1.20016837
v 3.29630288 -4.20238970 -1.22290433
v 3.29650063 -4.28541381 -1.20011323
v 3.29640758 -4.20242460 -1.21630087
v 3.29398980 -4.20245909 -1.22549894
v 3.16098009 -4.35541720 -1.22540263
v 3.16098859 -4.20248264 -1.22548081
v 3.23572939 -4.35549314 -1.22534587
v 3.29393405 -4.35549481 -1.22534120
v 3.29642584 -4.35554529 -1.22286038
v 3.29390845 -4.35804865 -1.22290745
v 3.29389772 -4.35550685 -1.22533598
v 3.16091681 -4.20245082 -1.22532333
v 3.15845644 -4.20240225 -1.22294383
v 3.16089481 -4.19988098 -1.22281646
v 3.16095863 -4.19990298 -1.21668081
v 3.15847938 -4.20251693 -1.22279002
v 3.15840972 -4.20252329 -1.21621816
v 3.16098809 -4.19995374 -1.22291350
v 3.16090417 -4.20244742 -1.21371898
v 3.29395282 -4.19987578 -1.21666384
v 3.16094985 -4.19994241 -1.21663843
v 3.29393516 -4.20231747 -1.21362013
v 3.29387205 -4.20237243 -1.21366110
v 3.29390200 -4.28547995 -1.19761864
v 3.29643461 -4.20246310 -1.21627410
v 3.29634201 -4.28542554 -1.20013866
v 3.29405097 -4.29130887 -1.19755974
v 3.29650519 -4.29130226 -1.20021913
v 3.29641382 -4.29119902 -1.20030826
v 3.29393088 -4.34744171 -1.17466264
v 3.29641077 -4.34750644 -1.17724895
v 3.29647477 -4.34750370 -1.17723640
v 3.29398628 -4.35561277 -1.17600456
v 3.29649177 -4.35548400 -1.17850943
v 3.29396603 -4.35797808 -1.22289368
v 3.29637389 -4.35557634 -1.17841812
v 3.29387382 -4.35804481 -1.17891101
v 3.29649596 -4.35560921 -1.22284765
v 3.29399650 -4.35544879 -1.22533036
v 3.23573484 -4.35793279 -1.22293944
v 3.23580467 -4.35548290 -1.22532014
v 3.29394317 -4.35802008 -1.22279311
v 3.23568468 -4.35558156 -1.22534424
v 3.16092334 -4.35802241 -1.22275602
v 3.16088784 -4.35546923 -1.22533176
v 3.23588257 -4.35811045 -1.22287614
v 3.16089473 -4.20236624 -1.22539947
v 3.15850386 -4.35542162 -1.22279677
v 3.15843524 -4.20252798 -1.22283520
v 3.16083997 -4.35553186 -1.22534196
v 3.15839328 -4.34746607 -1.17728584
v 3.15832358 -4.35557107 -1.22291706
v 3.15839285 -4.35544133 -1.17849419
v 3.15842973 -4.29137110 -1.20009024
v 3.15840906 -4.20230460 -1.22289421
v 3.15837872 -4.28528658 -1.20020912
v 3.15843419 -4.20245951 -1.21624162
v 3.16104191 -4.20245788 -1.21359821
v 3.16098250 -4.19997754 -1.21673949
v 3.15831053 -4.20248545 -1.21618337
v 3.23576837 -4.28544337 -1.19762309
v 3.16097517 -4.20235824 -1.21362737
v 3.16088572 -4.28538902 -1.19760698
v 3.29388618 -4.20243386 -1.21357958
v 3.29403198 -4.28546252 -1.19773400
v 3.29396125 -4.30138929 -1.18510345
v 3.29641685 -4.29117347 -1.20021714
v 3.29397898 -4.29136714 -1.19777568
v 3.29645048 -4.34750480 -1.17723808
v 3.29390197 -4.34759216 -1.17474657
v 3.29396420 -4.35551060 -1.17603250
v 3.29640830 -4.29133977 -1.20033000
v 3.29394430 -4.33538517 -1.17211390
v 3.29385313 -4.34753068 -1.17457987
v 3.29405286 -4.35553541 -1.17602761
v 3.29382147 -4.35811853 -1.17890558
v 3.29645556 -4.35549705 -1.17853741
v 3.29384634 -4.35812025 -1.17889230
v 3.23570315 -4.35795825 -1.22292747
v 3.29402308 -4.35806909 -1.22283289
v 3.16093296 -4.35805096 -1.22295864
v 3.16089329 -4.35794602 -1.17897260
v 3.16081684 -4.35804392 -1.22286863
v 3.15833796 -4.35555379 -1.22287249
v 3.16089720 -4.35550232 -1.22531364
v 3.15843241 -4.35549226 -1.17842816
v 3.16098199 -4.35819539 -1.22286586
v 3.16083177 -4.35807036 -1.17885723
v 3.15839933 -4.35553556 -1.22277140
v 3.15832610 -4.34752481 -1.17724772
v 3.15841200 -4.35557688 -1.17852389
v 3.15992577 -4.34749945 -1.17572530
v 3.16105488 -4.29125216 -1.19781681
v 3.15839327 -4.29127460 -1.20039855
v 3.15845322 -4.34750056 -1.17733953
v 3.15836868 -4.28544420 -1.20012543
v 3.16089938 -4.28536713 -1.19759394
v 3.16087619 -4.20242792 -1.21363587
v 3.15845160 -4.20240226 -1.21620138
v 3.15841905 -4.28543415 -1.20010246
v 3.16086496 -4.28539885 -1.19772132
v 3.23577487 -4.29124536 -1.19747536
v 3.29380832 -4.28534465 -1.19756666
v 3.29392965 -4.29127304 -1.19766998
v 3.23577831 -4.30251055 -1.18482116
v 3.29407962 -4.30136307 -1.18509811
v 3.29388178 -4.29127688 -1.19768879
v 3.29640094 -4.29131168 -1.20026032
v 3.29391465 -4.30128363 -1.18521644
v 3.29386099 -4.31251689 -1.17833386
v 3.29387667 -4.34751211 -1.17468831
v 3.23576841 -4.34756083 -1.17486855
v 3.29392927 -4.35549301 -1.17590937
v 3.29642901 -4.29135674 -1.20030842
v 3.29380753 -4.32396382 -1.17400367
v 3.29393015 -4.33553847 -1.17202096
v 3.29399290 -4.33536273 -1.17213018
v 3.29394682 -4.35560380 -1.17589612
v 3.16085221 -4.35806049 -1.17882056
v 3.29407309 -4.35803677 -1.17892387
v 3.16077945 -4.35545437 -1.17596593
v 3.16081449 -4.35550155 -1.17594874
v 3.15839072 -4.35554284 -1.17848157
v 3.16093356 -4.35800424 -1.17883163
v 3.16098750 -4.34609860 -1.17519054
v 3.15833878 -4.34758225 -1.17723256
v 3.15991676 -4.34749040 -1.17569591
v 3.16088926 -4.35551878 -1.17603886
v 3.16092392 -4.34608911 -1.17526150
v 3.16114740 -4.29119600 -1.19766988
v 3.29391635 -4.30141659 -1.18518391
v 3.23578053 -4.30261395 -1.18471437
v 3.23575797 -4.31298543 -1.17811976
v 3.23582551 -4.30263943 -1.18472614
v 3.29393703 -4.29128304 -1.19762302
v 3.23567908 -4.29118052 -1.19753401
v 3.29387927 -4.31248263 -1.17829202
v 3.29388835 -4.32393467 -1.17396467
v 3.29390859 -4.35551419 -1.17604871
v 3.16094084 -4.35546449 -1.17597194
v 3.29388316 -4.32393836 -1.17395329
v 3.23571442 -4.33410295 -1.17259849
v 3.16101256 -4.34912935 -1.17490288
v 3.16085952 -4.34896939 -1.17494409
v 3.16236061 -4.34753865 -1.17467969
v 3.16092880 -4.29123421 -1.19788154
v 3.16098655 -4.34615991 -1.17516986
v 3.23571575 -4.29130436 -1.19743869
v 3.23571667 -4.29134678 -1.19748023
v 3.23567209 -4.31295300 -1.17809475
v 3.23580364 -4.30259816 -1.18476424
v 3.29391041 -4.31255538 -1.17828217
v 3.23574063 -4.31297373 -1.17815710
v 3.23563603 -4.32335436 -1.17405025
v 3.29385474 -4.32389124 -1.17401923
v 3.29389790 -4.31256986 -1.17824075
v 3.23564152 -4.32348428 -1.17417839
v 3.16091926 -4.34903337 -1.17497966
v 3.23583046 -4.32337645 -1.17411739
v 3.23577886 -4.33418073 -1.17248133
v 3.23583565 -4.34757370 -1.17475647
v 3.23573331 -4.32346962 -1.17397945
v 3.23576499 -4.31306651 -1.17815964
v 3.16235225 -4.34761301 -1.17470958
v 3.23576785 -4.34762119 -1.17493602
v 3.23572816 -4.34753585 -1.17489639
v 3.16235086 -4.34764169 -1.17470022
v 3.16096788 -4.34895916 -1.17485616
v 3.23534415 -4.33290655 -1.15215611
v 3.29312743 -4.33407438 -1.15354122
v 3.23539237 -4.33412021 -1.15350100
v 3.29321972 -4.33297630 -1.15227614
v 3.29326267 -4.33415366 -1.15347291
v 3.23531559 -4.35676618 -1.15353925
v 3.23542431 -4.33410853 -1.15345385
v 3.29312586 -4.35681848 -1.15335336
v 3.23536597 -4.33296625 -1.15224691
v 3.23538405 -4.33409005 -1.15345050
v 3.23418194 -4.33407455 -1.15228798
v 3.23524634 -4.33288568 -1.12441825
v 3.29313013 -4.33292175 -1.15215125
v 3.23545181 -4.33291015 -1.15215712
v 3.29321847 -4.33294507 -1.12463619
v 3.29312514 -4.33289306 -1.15220381
v 3.29435409 -4.33414307 -1.15231736
v 3.29308180 -4.33410171 -1.15352457
v 3.23414710 -4.33413971 -1.15225134
v 3.23547350 -4.35680759 -1.15345535
v 3.23413820 -4.35689316 -1.15215209
v 3.23540167 -4.33412476 -1.15342314
v 3.29313851 -4.35678802 -1.15351154
v 3.29439736 -4.33401044 -1.15220229
v 3.29434915 -4.35675690 -1.15211772
v 3.29321737 -4.33408938 -1.15348113
v 3.29320076 -4.35788326 -1.15234078
v 3.23540895 -4.35680199 -1.15335095
v 3.29316908 -4.35693195 -1.15332407
v 3.23528882 -4.35794634 -1.15223456
v 3.23414572 -4.33408711 -1.12455338
v 3.23536449 -4.33289652 -1.15218231
v 3.23415498 -4.33407693 -1.15215271
v 3.23530329 -4.33290987 -1.12449579
v 3.29323449 -4.33291739 -1.15222180
v 3.29436293 -4.33402512 -1.12454074
v 3.29442085 -4.33410058 -1.15222565
v 3.29310750 -4.33291063 -1.12452435
v 3.23527059 -4.33413648 -1.12334345
v 3.29309032 -4.33298225 -1.12444006
v 3.23529609 -4.33296198 -1.12460116
v 3.29324528 -4.33404322 -1.12330004
v 3.23415269 -4.35683796 -1.15224337
v 3.23531610 -4.35677329 -1.15339711
v 3.23540532 -4.35787614 -1.15218762
v 3.23418362 -4.33403842 -1.12460938
v 3.23414822 -4.35689534 -1.15213870
v 3.23412023 -4.35671061 -1.12446300
v 3.23411690 -4.33418817 -1.15229058
v 3.29444072 -4.35682837 -1.15231067
v 3.29436969 -4.33399968 -1.12443221
v 3.29435573 -4.35679298 -1.12448824
v 3.29429916 -4.33412481 -1.15225018
v 3.29440504 -4.35683899 -1.15230595
v 3.29319450 -4.35802743 -1.15229642
v 3.29310737 -4.35682284 -1.15335445
v 3.29316646 -4.35793100 -1.15235367
v 3.29061935 -4.35806206 -1.14973488
v 3.23539731 -4.35802206 -1.15229735
v 3.29322955 -4.35803418 -1.12450736
v 3.29062912 -4.35796226 -1.12705600
v 3.23790848 -4.35795642 -1.12690955
v 3.23785926 -4.35804617 -1.14978473
v 3.23532042 -4.35797023 -1.12456282
v 3.23543941 -4.33408359 -1.12337286
v 3.23532798 -4.33294971 -1.12451266
v 3.23409030 -4.33402277 -1.12454272
v 3.29316293 -4.33404295 -1.12336001
v 3.29438225 -4.33399408 -1.12449957
v 3.29319279 -4.33294060 -1.12457859
v 3.29327459 -4.35681930 -1.12321122
v 3.23531555 -4.33402429 -1.12332947
v 3.23537744 -4.35674190 -1.12329310
v 3.29322139 -4.33418272 -1.12334383
v 3.23546896 -4.35800422 -1.12450477
v 3.23413878 -4.35684525 -1.15231138
v 3.23528981 -4.35789673 -1.15223183
v 3.23408111 -4.35686113 -1.12447358
v 3.23530075 -4.33413001 -1.12338071
v 3.23407716 -4.35671759 -1.12453061
v 3.23533593 -4.35684412 -1.12327787
v 3.23415141 -4.33407841 -1.12451499
v 3.29436223 -4.35683734 -1.15232492
v 3.29314862 -4.35786969 -1.12459237
v 3.29317652 -4.35797246 -1.15216025
v 3.29453178 -4.35683261 -1.12457200
v 3.29444193 -4.35679833 -1.12440988
v 3.29321705 -4.33413245 -1.12332898
v 3.29320005 -4.35678215 -1.12338169
v 3.29427414 -4.33418502 -1.12448799
v 3.29316765 -4.35691346 -1.12334890
v 3.23524510 -4.35800613 -1.12457134
v 3.29314490 -4.35799608 -1.12451242
v 3.23535735 -4.35673768 -1.12318293
v 3.23540190 -4.35682096 -1.12327565
v 3.23410706 -4.35685673 -1.12457167
v 3.23537044 -4.35792170 -1.12439764
v 3.29325072 -4.35677108 -1.12335663
v 3.29318058 -4.35796078 -1.12452956
v 3.29448706 -4.35685640 -1.12456284
v 3.29068787 -4.35787850 -1.14982137
v 3.23781620 -4.35540000 -1.14975762
v 3.23797954 -4.35803752 -1.14965916
v 3.29066155 -4.35544657 -1.14977769
v 3.23777346 -4.35794773 -1.14974921
v 3.23781212 -4.35553456 -1.12709319
v 3.23793985 -4.35804321 -1.12706493
v 3.23797434 -4.35549672 -1.14971977
v 3.29068717 -4.35548905 -1.12707312
v 3.29073841 -4.35797335 -1.14975484
v 3.29058862 -4.35805642 -1.12709204
v 3.29054529 -4.35540641 -1.14971371
v 3.29069668 -4.35555219 -1.12706171
v 3.23785027 -4.35798708 -1.12704603
v 3.23779378 -4.35541102 -1.12699450
v 3.29067071 -4.35793330 -1.12696651
v 3.25949487 -4.34223449 -1.18588674
v 3.25938953 -4.34845331 -1.18590856
v 3.25852530 -4.34536251 -1.18583972
v 3.26175210 -4.34000807 -1.18585214
v 3.26176777 -4.35085339 -1.18588420
v 3.26483432 -4.33900943 -1.18581840
v 3.26477570 -4.35173894 -1.18583257
v 3.26797874 -4.33993038 -1.18585411
v 3.26804749 -4.35091782 -1.18589992
v 3.27029976 -4.34223047 -1.18592235
v 3.27025601 -4.34853636 -1.18586661
v 3.27116488 -4.34540916 -1.18587773
v 3.25845892 -4.34545334 -1.18576494
v 3.25932010 -4.34842671 -1.18588587
v 3.25931101 -4.34842146 -1.14564335
v 3.25938821 -4.34219489 -1.18588905
v 3.25857952 -4.34538433 -1.18588211
v 3.25861103 -4.34537199 -1.14574494
v 3.25943803 -4.34227292 -1.14570802
v 3.26168837 -4.33995486 -1.18577905
v 3.25937974 -4.34232591 -1.18577942
v 3.26173275 -4.33999691 -1.14572958
v 3.26166493 -4.33990760 -1.14567544
v 3.26488641 -4.33908247 -1.18598431
v 3.26164957 -4.33994434 -1.18601832
v 3.26484662 -4.33915250 -1.14567994
v 3.26484002 -4.33903531 -1.18585006
v 3.26799712 -4.34001505 -1.14568025
v 3.26812449 -4.34005649 -1.18592660
v 3.26494464 -4.33906607 -1.14573218
v 3.26803469 -4.33994163 -1.14575223
v 3.27024807 -4.34219557 -1.18584974
v 3.26805131 -4.33992357 -1.18590357
v 3.27037134 -4.34229556 -1.18589453
v 3.27024163 -4.34232243 -1.14568054
v 3.27106629 -4.34543215 -1.18581612
v 3.27117413 -4.34542862 -1.18594266
v 3.27111963 -4.34548351 -1.14577235
v 3.27026384 -4.34851231 -1.18590034
v 3.27027747 -4.34842571 -1.18583386
v 3.27036319 -4.34845304 -1.14570250
v 3.26792248 -4.35090154 -1.18587028
v 3.26796775 -4.35087896 -1.18584609
v 3.26491990 -4.35165727 -1.14571072
v 3.26482032 -4.35169212 -1.18575816
v 3.26792008 -4.35083548 -1.14574068
v 3.26484490 -4.35159461 -1.14565967
v 3.26170843 -4.35076325 -1.18591222
v 3.26487107 -4.35155339 -1.18590160
v 3.26172784 -4.35074216 -1.14576291
v 3.25942500 -4.34852112 -1.14577834
v 3.26173904 -4.35087388 -1.18577603
v 3.26171747 -4.35083823 -1.14571324
v 3.25942228 -4.34851462 -1.18586590
v 3.25854434 -4.34542176 -1.18583949
v 3.25930127 -4.34854837 -1.14571506
v 3.25860079 -4.34541563 -1.14570788
v 3.25939686 -4.34234827 -1.18581617
v 3.25859661 -4.34544750 -1.14563261
v 3.25945948 -4.34227882 -1.14565333
v 3.25945169 -4.34845682 -1.14574938
v 3.25939009 -4.34228989 -1.14574596
v 3.25845149 -4.34533274 -1.14578191
v 3.26174834 -4.35089941 -1.14570897
v 3.26164927 -4.33996144 -1.14580548
v 3.26481779 -4.35161636 -1.14570352
v 3.26486069 -4.33914311 -1.14583904
v 3.26794051 -4.35085514 -1.14563237
v 3.26802274 -4.33994253 -1.14574826
v 3.27024464 -4.34846740 -1.14573646
v 3.27026670 -4.34213582 -1.14577074
v 3.27110966 -4.34540772 -1.14575216
v 3.26791136 -4.33988879 -1.14579495
v 3.27023462 -4.34222924 -1.14578547
v 3.27027688 -4.34225808 -1.18588236
v 3.27027777 -4.34232284 -1.14574644
v 3.27119771 -4.34532824 -1.14574820
v 3.27118648 -4.34544652 -1.18594581
v 3.27101207 -4.34545625 -1.14568969
v 3.27026734 -4.34841000 -1.14566835
v 3.27026573 -4.34851597 -1.18588126
v 3.27034182 -4.34852502 -1.14571636
v 3.26794937 -4.35075340 -1.14573517
v 3.26795436 -4.35091188 -1.18581480
v -0.16450837 -0.67384658 -1.22286791
v -0.16699047 -0.67144600 -1.22288894
v -0.16453602 -0.67121206 -1.22527704
v -0.16695535 -0.67119472 -1.22277301
v -0.16455070 -0.67391488 -1.22282977
v -0.16447900 -0.67383073 -1.21667867
v -0.16687622 -0.52625936 -1.22278185
v -0.16439305 -0.67136744 -1.22532036
v -0.16689042 -0.67125255 -1.22280256
v -0.16445038 -0.51824309 -1.22528143
v -0.16694720 -0.51824054 -1.22287141
v -0.03154334 -0.67134429 -1.22524794
v -0.16450229 -0.67387867 -1.22285836
v -0.16448707 -0.67136597 -1.22531660
v -0.03144897 -0.67377612 -1.22281101
v -0.03145680 -0.67396086 -1.21662121
v -0.16451182 -0.67378203 -1.22284070
v -0.03151016 -0.67387316 -1.22291238
v -0.16450588 -0.67382490 -1.21656601
v -0.16695075 -0.67128504 -1.21614518
v -0.16699818 -0.67125283 -1.22292083
v -0.16446816 -0.67387218 -1.21674279
v -0.10619823 -0.51835985 -1.22531401
v -0.16437428 -0.67134595 -1.22535925
v -0.16458185 -0.51826157 -1.22527119
v -0.03149664 -0.67138932 -1.22548296
v -0.03139500 -0.51822438 -1.22536974
v -0.16692135 -0.67136040 -1.21621406
v -0.16686056 -0.52629002 -1.22282851
v -0.16696741 -0.67132906 -1.22284448
v -0.16705345 -0.58835429 -1.20016170
v -0.16701759 -0.58253435 -1.20027916
v -0.16703037 -0.52621250 -1.17727592
v -0.16688690 -0.52620570 -1.22287829
v -0.16701029 -0.58249721 -1.20024251
v -0.16697977 -0.51813839 -1.22285337
v -0.16697744 -0.51831056 -1.17860646
v -0.16448272 -0.51575909 -1.22283349
v -0.16439880 -0.51827623 -1.22539125
v -0.16692497 -0.51827202 -1.22284160
v -0.02896346 -0.67122888 -1.22293946
v -0.03151344 -0.67380603 -1.22277960
v -0.03152514 -0.67126826 -1.22537925
v -0.02899835 -0.67136599 -1.21617538
v -0.03144004 -0.67389180 -1.21662071
v -0.03148877 -0.67390968 -1.22274971
v -0.03152168 -0.67137180 -1.21371354
v -0.16449935 -0.67383751 -1.21662322
v -0.03152484 -0.67384936 -1.21661261
v -0.16439165 -0.67133269 -1.21358773
v -0.16443951 -0.67141507 -1.21366651
v -0.16692901 -0.67136922 -1.21625832
v -0.16447756 -0.67394483 -1.21667628
v -0.10635557 -0.51575882 -1.22277105
v -0.16434471 -0.51821418 -1.22540677
v -0.16443399 -0.51571198 -1.22287870
v -0.10624197 -0.51827472 -1.22538534
v -0.03146406 -0.51569709 -1.22286554
v -0.10627153 -0.51835038 -1.22533633
v -0.10631840 -0.51576503 -1.22298684
v -0.03154876 -0.51834567 -1.22531872
v -0.02900935 -0.51823216 -1.22280778
v -0.03149801 -0.67139230 -1.22528471
v -0.03145256 -0.51831683 -1.22532575
v -0.02899484 -0.67130840 -1.22279838
v -0.16702591 -0.58831892 -1.20031738
v -0.16694922 -0.67144077 -1.21605328
v -0.16445519 -0.58838105 -1.19755284
v -0.16702408 -0.58248079 -1.20023885
v -0.16447503 -0.58251895 -1.19759192
v -0.16702646 -0.52622918 -1.17724263
v -0.16701346 -0.58244051 -1.20019553
v -0.16449660 -0.52626440 -1.17465864
v -0.16450544 -0.51824147 -1.17599011
v -0.16699680 -0.51823756 -1.17844227
v -0.16693360 -0.52618774 -1.17724888
v -0.16450904 -0.51579526 -1.22285762
v -0.16691329 -0.51818011 -1.22292680
v -0.16708461 -0.51814939 -1.17844197
v -0.02899275 -0.67133491 -1.21619247
v -0.03140526 -0.67387006 -1.22281156
v -0.02894213 -0.67131763 -1.22278557
v -0.03145904 -0.67144960 -1.21359732
v -0.03149467 -0.67379214 -1.21661740
v -0.02901251 -0.67131623 -1.21623098
v -0.03145209 -0.67140029 -1.21359126
v -0.16451511 -0.58836723 -1.19765591
v -0.16451973 -0.67139273 -1.21363601
v -0.10625998 -0.58834369 -1.19764214
v -0.03155494 -0.58829359 -1.19764510
v -0.16445257 -0.67143745 -1.21356292
v -0.10625262 -0.51578956 -1.17888041
v -0.10621601 -0.51574556 -1.22294048
v -0.16444941 -0.51563176 -1.22293463
v -0.03140478 -0.51574872 -1.17890510
v -0.03145162 -0.51573493 -1.17885147
v -0.03153276 -0.51574046 -1.22289743
v -0.10632022 -0.51556850 -1.22289239
v -0.02893228 -0.51823031 -1.22295278
v -0.03153179 -0.51834964 -1.22536136
v -0.03154120 -0.51578607 -1.22293114
v -0.02891967 -0.51821397 -1.22276126
v -0.02896741 -0.67128907 -1.21613177
v -0.02883990 -0.67140479 -1.22289039
v -0.02901267 -0.58842452 -1.20010790
v -0.02891658 -0.58256608 -1.20028388
v -0.02893988 -0.52626315 -1.17726509
v -0.02896703 -0.51818396 -1.17845874
v -0.16457798 -0.57235233 -1.18517111
v -0.16704374 -0.58245359 -1.20027792
v -0.16454578 -0.58250688 -1.19754003
v -0.16458219 -0.51827113 -1.17607775
v -0.16705260 -0.52624386 -1.17735217
v -0.16446253 -0.52622955 -1.17461529
v -0.16437203 -0.52629108 -1.17468294
v -0.16701396 -0.58251291 -1.20020016
v -0.16444626 -0.53835898 -1.17202586
v -0.16449525 -0.51821910 -1.17603268
v -0.16444242 -0.51569370 -1.17889982
v -0.16710591 -0.51825727 -1.17848873
v -0.16449856 -0.51574106 -1.22281601
v -0.16708716 -0.51819888 -1.17862856
v -0.16447461 -0.51570330 -1.17892820
v -0.02893125 -0.58831879 -1.20017796
v -0.03149115 -0.67133237 -1.21363082
v -0.02892376 -0.67130747 -1.21622729
v -0.03152671 -0.58840398 -1.19769167
v -0.10640445 -0.58255270 -1.19752537
v -0.16447148 -0.58250032 -1.19759558
v -0.16441180 -0.58840171 -1.19763063
v -0.16450139 -0.51578474 -1.17896705
v -0.10628815 -0.51572478 -1.17891556
v -0.16444348 -0.51571810 -1.22278795
v -0.10628907 -0.51820397 -1.17591963
v -0.03148667 -0.51570965 -1.17884401
v -0.10624075 -0.51569282 -1.17886483
v -0.03148315 -0.51568028 -1.22287310
v -0.02898114 -0.51825550 -1.17849161
v -0.02886703 -0.51817324 -1.22277318
v -0.03142351 -0.51572688 -1.17894875
v -0.02899031 -0.51823570 -1.17842611
v -0.03038983 -0.52621454 -1.17570977
v -0.02903287 -0.52627262 -1.17724893
v -0.02889997 -0.52626885 -1.17724654
v -0.03168542 -0.58249117 -1.19766622
v -0.02896877 -0.58252207 -1.20007241
v -0.03146449 -0.58826877 -1.19765307
v -0.02902433 -0.58843255 -1.20009206
v -0.10638470 -0.57127369 -1.18478888
v -0.16449694 -0.57244407 -1.18521375
v -0.16452048 -0.58248428 -1.19772522
v -0.16446959 -0.56122554 -1.17822432
v -0.16695436 -0.58242241 -1.20020590
v -0.16439107 -0.57242141 -1.18502667
v -0.10625778 -0.52624792 -1.17484624
v -0.16457790 -0.51814449 -1.17599802
v -0.16441067 -0.52611129 -1.17465531
v -0.16447783 -0.53833903 -1.17207976
v -0.16685536 -0.58241529 -1.20020926
v -0.16442036 -0.55000523 -1.17394809
v -0.16463907 -0.53826732 -1.17222267
v -0.10626071 -0.51826335 -1.17583876
v -0.16455108 -0.51575411 -1.17880481
v -0.16445504 -0.51820093 -1.17599557
v -0.10628619 -0.58256167 -1.19748404
v -0.16447755 -0.58244639 -1.19761199
v -0.10624390 -0.58843016 -1.19753724
v -0.03155385 -0.58242735 -1.19771657
v -0.10629721 -0.51820465 -1.17604750
v -0.10630422 -0.51572912 -1.17889240
v -0.16457198 -0.51570803 -1.17895638
v -0.03147447 -0.51816472 -1.17602236
v -0.03146944 -0.51576037 -1.17886960
v -0.10635629 -0.51829980 -1.17609927
v -0.03134006 -0.51817447 -1.17589166
v -0.02897855 -0.51818045 -1.17854712
v -0.03153340 -0.51568801 -1.17891653
v -0.03040775 -0.52621195 -1.17570922
v -0.03147436 -0.52775939 -1.17528963
v -0.03143061 -0.51810312 -1.17598462
v -0.10621393 -0.56096813 -1.17808789
v -0.16453894 -0.57248557 -1.18516088
v -0.10627482 -0.57122884 -1.18469839
v -0.10637259 -0.57115385 -1.18480408
v -0.16446310 -0.58260092 -1.19767162
v -0.10636173 -0.58246839 -1.19760065
v -0.16437778 -0.56128847 -1.17829085
v -0.16462321 -0.54993434 -1.17390797
v -0.10620715 -0.51826830 -1.17591896
v -0.16447014 -0.51817649 -1.17599459
v -0.03137722 -0.51830859 -1.17594653
v -0.10620505 -0.53955530 -1.17251060
v -0.16445088 -0.54987483 -1.17397054
v -0.03151945 -0.58244403 -1.19782299
v -0.03286670 -0.52623260 -1.17466549
v -0.10623942 -0.58256267 -1.19744841
v -0.03148081 -0.52475355 -1.17487818
v -0.03146121 -0.52477004 -1.17483220
v -0.03143015 -0.52760148 -1.17517308
v -0.10640897 -0.52616546 -1.17472692
v -0.10634965 -0.57101992 -1.18485503
v -0.10633072 -0.58248162 -1.19750833
v -0.10634155 -0.56082590 -1.17814709
v -0.10624234 -0.55032994 -1.17419912
v -0.10625931 -0.53952571 -1.17252042
v -0.10624727 -0.55039128 -1.17412568
v -0.16454180 -0.56125421 -1.17836739
v -0.10619838 -0.56080569 -1.17816922
v -0.10625126 -0.55024281 -1.17406321
v -0.16452701 -0.54988462 -1.17397959
v -0.16444482 -0.56128138 -1.17829754
v -0.03140336 -0.52479649 -1.17490826
v -0.10630463 -0.53963281 -1.17235062
v -0.16441423 -0.54992656 -1.17399117
v -0.10627231 -0.55024343 -1.17409082
v -0.10624357 -0.52631481 -1.17483389
v -0.03289668 -0.52622638 -1.17469162
v -0.03290871 -0.52629079 -1.17467176
v -0.14079311 -0.52530663 -1.18571938
v -0.14083829 -0.53164467 -1.18580636
v -0.14165199 -0.52839562 -1.18584073
v -0.13849655 -0.52296620 -1.18582938
v -0.13851033 -0.53377258 -1.18589518
v -0.13541916 -0.52208184 -1.18582856
v -0.13539884 -0.53465877 -1.18581438
v -0.13230577 -0.52302765 -1.18582339
v -0.13223624 -0.53386586 -1.18588422
v -0.13000580 -0.52528469 -1.18579385
v -0.12996035 -0.53159387 -1.18583879
v -0.12909374 -0.52839692 -1.18587222
v -0.12993495 -0.52521222 -1.18587387
v -0.12915524 -0.52840236 -1.14565980
v -0.12908003 -0.52841721 -1.18570870
v -0.12982219 -0.52531078 -1.14565702
v -0.12917955 -0.52839107 -1.18578107
v -0.12991986 -0.53159468 -1.14568582
v -0.13010129 -0.53162070 -1.18586645
v -0.12916996 -0.52830090 -1.14570743
v -0.12989155 -0.53152095 -1.14570540
v -0.13224858 -0.53371603 -1.18577749
v -0.13002627 -0.53154614 -1.18577364
v -0.13234785 -0.53371924 -1.14567926
v -0.13545533 -0.53478953 -1.18586506
v -0.13216029 -0.53381341 -1.18583727
v -0.13537058 -0.53467843 -1.14569260
v -0.13856801 -0.53385883 -1.18592037
v -0.13541898 -0.53468567 -1.18585794
v -0.13855214 -0.53391582 -1.14577709
v -0.14084270 -0.53150177 -1.18588471
v -0.13851074 -0.53391311 -1.18580157
v -0.14169830 -0.52843886 -1.18586626
v -0.14080230 -0.53154423 -1.18583133
v -0.14093182 -0.53153318 -1.14566652
v -0.14080067 -0.52527153 -1.18585014
v -0.14157359 -0.52845705 -1.18585371
v -0.14166527 -0.52835034 -1.14577909
v -0.14074246 -0.52520261 -1.14558456
v -0.13852818 -0.52299435 -1.18596946
v -0.14085418 -0.52532693 -1.18598151
v -0.13858141 -0.52297125 -1.14572432
v -0.13525262 -0.52202995 -1.18585741
v -0.13849220 -0.52298170 -1.18589170
v -0.13536992 -0.52211976 -1.14562491
v -0.13535565 -0.52217168 -1.14579872
v -0.13224935 -0.52289280 -1.18592722
v -0.13545020 -0.52198253 -1.18586674
v -0.13228181 -0.52281663 -1.14573145
v -0.13002685 -0.52525088 -1.18593864
v -0.13234742 -0.52290623 -1.18589975
v -0.13223557 -0.52301880 -1.14572844
v -0.13003250 -0.52530466 -1.14561646
v -0.12992118 -0.52521721 -1.18586959
v -0.14085203 -0.53152901 -1.14573910
v -0.14080350 -0.52525686 -1.14570378
v -0.14152183 -0.52838971 -1.14577605
v -0.13844309 -0.53388057 -1.14577311
v -0.13843081 -0.52293141 -1.14577163
v -0.13539226 -0.53458489 -1.14576576
v -0.13538577 -0.52197602 -1.14572200
v -0.13235691 -0.53384390 -1.14573058
v -0.13229233 -0.52285796 -1.14570296
v -0.12996100 -0.53149597 -1.14570592
v -0.13007168 -0.52521330 -1.14568380
v -0.12910133 -0.52834798 -1.14565190
v -0.12988505 -0.53161732 -1.14575742
v -0.13232035 -0.53384821 -1.14569421
v -0.13235868 -0.53378899 -1.18595357
v -0.13545381 -0.53473319 -1.14574266
v -0.13851466 -0.53393832 -1.14562714
v -0.14088679 -0.53140590 -1.14580146
v -0.14077908 -0.53149950 -1.18588153
v -0.13861322 -0.53384896 -1.14564243
v -0.14162411 -0.52834122 -1.14563103
v -0.14080516 -0.52525510 -1.14566585
v -0.13849351 -0.52287908 -1.14568807
v -0.13849834 -0.52290359 -1.18586842
v -0.14089348 -0.52525358 -1.14570934
v -0.13533455 -0.52207677 -1.14574307
v -0.13225018 -0.52297331 -1.14574270
v -0.13221252 -0.52301924 -1.18580862
v -0.78072485 -0.52523129 -1.18589092
v -0.78074280 -0.53156694 -1.18582092
v -0.78164086 -0.52838693 -1.18590462
v -0.77843427 -0.52285799 -1.18590785
v -0.77844721 -0.53391356 -1.18597358
v -0.77528457 -0.52215615 -1.18582959
v -0.77525961 -0.53471579 -1.18578587
v -0.77207441 -0.52295944 -1.18582438
v -0.77203992 -0.53380447 -1.18589919
v -0.76982984 -0.52524582 -1.18585283
v -0.76977200 -0.53151366 -1.18596132
v -0.76904159 -0.52845352 -1.18584850
v -0.76985153 -0.52523576 -1.18589623
v -0.76903753 -0.52833239 -1.14569227
v -0.76901004 -0.52848705 -1.18594077
v -0.76990302 -0.52525506 -1.14576883
v -0.76893642 -0.52835181 -1.18587771
v -0.76988431 -0.53155582 -1.14569857
v -0.76983524 -0.53154346 -1.18580249
v -0.76901624 -0.52839735 -1.14568379
v -0.76982120 -0.53147076 -1.18589611
v -0.77218001 -0.53378564 -1.14570776
v -0.77209171 -0.53378602 -1.18582868
v -0.76989125 -0.53153300 -1.14574527
v -0.77216248 -0.53381570 -1.14562970
v -0.77515357 -0.53471088 -1.18587073
v -0.77218149 -0.53387044 -1.18588363
v -0.77536706 -0.53464440 -1.14577833
v -0.77841559 -0.53387149 -1.18583023
v -0.77522600 -0.53463062 -1.18587182
v -0.77849626 -0.53388221 -1.14569006
v -0.78073986 -0.53154956 -1.18583953
v -0.77828697 -0.53386851 -1.18584417
v -0.78073767 -0.53159088 -1.14573432
v -0.78071979 -0.53155207 -1.14568634
v -0.78156169 -0.52850951 -1.18583878
v -0.78067854 -0.53161222 -1.18590646
v -0.78157252 -0.52835148 -1.14572903
v -0.78149196 -0.52843219 -1.14566702
v -0.78070547 -0.52527645 -1.18582159
v -0.78150065 -0.52836121 -1.18587565
v -0.78064672 -0.52518450 -1.14573242
v -0.78069952 -0.52533687 -1.14575326
v -0.77835102 -0.52301423 -1.18584966
v -0.78070771 -0.52516318 -1.18586060
v -0.77851130 -0.52298031 -1.14569119
v -0.77837161 -0.52293044 -1.14564351
v -0.77525679 -0.52222409 -1.18590439
v -0.77839388 -0.52299898 -1.18584887
v -0.77525993 -0.52202283 -1.14575460
v -0.77534346 -0.52218404 -1.14574168
v -0.77210810 -0.52296931 -1.18590719
v -0.77533332 -0.52213084 -1.18583358
v -0.77207352 -0.52289031 -1.18582850
v -0.76981933 -0.52528668 -1.14569744
v -0.76975300 -0.52524951 -1.18582653
v -0.77213609 -0.52292991 -1.14576699
v -0.78077758 -0.53158285 -1.14582444
v -0.78065722 -0.52511760 -1.14572667
v -0.78159005 -0.52836959 -1.14562528
v -0.77840067 -0.53375043 -1.14571547
v -0.77839268 -0.52304180 -1.14569527
v -0.77532819 -0.53472350 -1.14580301
v -0.77524210 -0.52198501 -1.14575546
v -0.77215139 -0.53384291 -1.14569013
v -0.77208094 -0.52295861 -1.14573743
v -0.76993748 -0.53149198 -1.14571048
v -0.76993806 -0.52531763 -1.14577038
v -0.76902165 -0.52844005 -1.14567121
v -0.77218971 -0.53385103 -1.14577377
v -0.77523704 -0.53468885 -1.14571463
v -0.77523992 -0.53466519 -1.18587641
v -0.77836348 -0.53380157 -1.14570842
v -0.77529751 -0.52210433 -1.14575536
v -0.77205214 -0.52294059 -1.14568961
v -0.77217229 -0.52297306 -1.18582963
vt 5.38000011 -0.12000000
vt -0.38000000 0.00000000
vt 5.38000011 0.00000000
vt -0.38000000 -0.12000000
vt 1.37000000 1.38000000
vt 3.63000011 -4.38000011
vt 1.37000000 -4.38000011
vt 3.63000011 1.38000000
vt 1.37000000 0.00000012
vt 1.37000000 -0.12000000
vt 1.25000000 -0.12000000
vt 5.38000011 -2.88000011
vt -0.38000000 -0.12000000
vt 5.38000011 -0.12000000
vt -0.38000000 -2.88000011
vt 3.63000011 0.00000012
vt 3.75000000 -0.12000000
vt 3.63000011 -0.12000000
vt 1.37000000 0.00000000
vt 3.63000011 -0.12000000
vt 1.37000000 -0.12000000
vt 3.63000011 0.00000000
vt 1.37000000 -0.12000000
vt 3.63000011 0.00000000
vt 3.63000011 -0.12000000
vt 1.37000000 0.00000000
vt 5.38000011 -0.12000000
vt -0.38000000 0.00000000
vt 5.38000011 0.00000000
vt -0.38000000 -0.12000000
vt 1.25000000 -0.12000000
vt 1.37000000 -2.88000011
vt 1.25000000 -2.88000011
vt 1.37000000 -0.12000000
vt 3.63000011 -2.88000011
vt 3.75000000 -0.12000000
vt 3.75000000 -2.88000011
vt 3.63000011 -0.12000000
vt 1.37000000 1.38000000
vt 1.25000000 -4.38000011
vt 1.25000000 1.38000000
vt 1.37000000 -4.38000011
vt 3.75000000 -0.12000000
vt 3.63000011 -0.12000000
vt 3.63000011 0.00000000
vt 1.37000000 -0.12000000
vt 3.63000011 -2.88000011
vt 1.37000000 -2.88000011
vt 3.63000011 -0.12000000
vt 1.37000000 -2.88000011
vt 3.63000011 -0.12000000
vt 3.63000011 -2.88000011
vt 1.37000000 -0.12000000
vt 1.25000000 -0.12000000
vt 1.37000000 0.00000000
vt 1.37000000 -0.12000000
vt 5.38000011 -0.12000000
vt 5.13000011 -0.37000000
vt -0.38000000 -0.12000000
vt 5.37802219 -2.88177395
vt 5.12837982 -2.63138103
vt -0.13158570 -2.63138103
vt -0.12996601 -0.37000000
vt -0.38197821 -2.88177395
vt 1.37000000 1.38000000
vt 1.25000000 1.38000000
vt 1.37000000 1.50000000
vt 3.63000011 -3.00000000
vt 3.63000011 -2.88000011
vt 3.75000000 -2.88000011
vt 1.37000000 1.38000000
vt 3.63000011 -4.38000011
vt 1.37000000 -4.38000011
vt 3.63000011 1.38000000
vt 3.63000011 -0.12000000
vt 3.75000000 -2.88000011
vt 3.63000011 -2.88000011
vt 3.75000000 -0.12000000
vt 1.37000000 -2.88000011
vt 3.63000011 -3.00000000
vt 1.37000000 -3.00000000
vt 3.63000011 -2.88000011
vt 1.25000000 -2.88000011
vt 1.37000000 -0.12000000
vt 1.37000000 -2.88000011
vt 1.25000000 -0.12000000
vt 1.37000000 -3.00000000
vt 3.63000011 -2.88000011
vt 3.63000011 -3.00000000
vt 1.37000000 -2.88000011
vt 3.63000011 1.38000000
vt 3.75000000 -4.38000011
vt 3.63000011 -4.38000011
vt 3.75000000 1.38000000
vt 3.63000011 -2.88000011
vt 3.75000000 -2.88000011
vt 3.63000011 -3.00000000
vt 3.75000000 -4.38000011
vt 3.63000011 -4.50000000
vt 3.63000011 -4.38000011
vt 10.08329964 -2.23180008
vt 10.25000000 -2.39849997
vt 10.08329964 -2.39849997
vt 10.08329964 -2.39849997
vt 10.25000000 -2.39849997
vt 10.25000000 -2.81089997
vt 0.44729999 -2.39849997
vt 10.08397007 -2.23180008
vt 10.08397007 -2.39849997
vt -0.08350941 -2.23180008
vt -0.08350941 -2.39849997
vt 9.41670132 -2.23180008
vt 0.58348173 -2.39849997
vt 0.58348173 -2.23180008
vt 9.41670132 -2.39849997
vt 9.41693497 -2.81089997
vt 0.58329999 -2.39849997
vt 9.41693497 -2.39849997
vt 0.58329999 -2.81089997
vt 10.08329964 -2.83999991
vt 10.08329964 -2.39849997
vt 10.25000000 -2.81089997
vt 5.55289984 -9.08351040
vt 9.41670132 1.08397484
vt 9.41670132 -9.08351040
vt 0.58306408 1.08397484
vt 0.58306408 -9.08351040
vt 10.08329964 -2.83999991
vt 0.44728431 -2.39855409
vt 10.08355999 -2.39842796
vt 4.57200003 -3.90570021
vt 4.18292999 -3.90073776
vt 0.44542849 -5.42482424
vt -0.08517146 -2.39882398
vt 0.44542849 -2.39882398
vt -0.08517860 -5.34220600
vt 9.41670036 -2.39849997
vt 9.41670036 -2.23180008
vt 9.58329868 -2.39849997
vt 9.58330059 -2.39849997
vt 9.41670227 -2.39849997
vt 9.41670227 -2.23180008
vt 9.58329773 -2.83999896
vt 9.41669941 -2.81089902
vt 9.41669941 -2.39849901
vt 9.41693497 -3.00920010
vt 0.58329999 -2.81089997
vt 9.41693497 -2.81089997
vt 0.58329999 -3.00920010
vt 0.58329999 -3.00920010
vt 0.41670001 -2.83999991
vt 0.58329999 -2.81089997
vt 5.55289984 -9.25000000
vt 9.41670132 -9.08329964
vt 9.41670132 -9.25000000
vt 5.55289984 -9.08329964
vt 0.58329999 -2.39849997
vt 5.55289984 -2.23180008
vt 5.55289984 -2.39849997
vt 0.58329999 -2.23180008
vt 10.08327961 -2.39849997
vt -0.08329999 -2.23180008
vt 10.08327961 -2.23180008
vt -0.08329999 -2.39849997
vt 0.44729999 -5.42449999
vt 0.44729999 -2.39849997
vt 4.18310022 -3.90080023
vt 4.57200003 -3.90570021
vt 10.08329964 -2.83999991
vt 4.57200003 -4.07390022
vt 4.18310022 -3.90080023
vt 4.18310022 -4.07390022
vt 9.41670132 -2.39849997
vt 9.58329964 -2.39849997
vt 9.58329964 -5.34200001
vt -0.08559995 -5.51060009
vt -0.08329999 -5.34200001
vt 0.44729999 -5.42449999
vt 9.58329964 -2.83999991
vt 9.41670132 -2.39849997
vt 9.58329964 -2.39849997
vt 9.41670132 -3.00920010
vt 9.41670132 -2.81089997
vt 9.58329964 -2.83999991
vt 9.41670132 1.08640003
vt 0.58348173 -4.42799997
vt 0.58348173 1.08640003
vt 4.44710016 -4.42799997
vt 9.41670132 -4.42799997
vt 10.08640003 -3.00920010
vt 5.55111790 -5.31713486
vt 5.55111790 -2.39893508
vt 9.41451168 -2.39893508
vt 0.58151782 -5.31713486
vt 0.58329999 -5.31669998
vt 0.58329999 -2.39849997
vt 5.55289984 -2.39849997
vt 10.08329964 -2.39849997
vt 10.08329964 -2.23180008
vt 10.25000000 -2.39849997
vt 10.08183002 -2.39824510
vt 9.55122471 -5.42424488
vt 9.55122471 -2.39824510
vt 10.08183002 -5.34162712
vt 9.55251980 -2.39849997
vt -0.08303853 -2.84007192
vt -0.08329999 -2.39849997
vt 5.42799997 -3.90570021
vt 5.81705093 -3.90073299
vt 0.44729999 -5.42449999
vt 4.18310022 -3.90080023
vt 0.44729999 -5.59880018
vt 3.51489997 -4.90229988
vt 4.18310022 -3.90080023
vt 4.18310022 -4.07390022
vt 9.58329105 -5.34199381
vt 9.41669178 -5.31669378
vt 9.41669178 -2.39849710
vt 9.41670132 -5.51060009
vt 9.41670132 -5.31669998
vt 9.58329964 -5.34200001
vt -0.08559987 -5.51059389
vt 0.44729960 -5.42449379
vt 0.44729960 -5.59879398
vt 5.42799997 -3.90570021
vt -0.08639997 -3.00920010
vt -0.08329999 -2.83999991
vt 5.42799997 -4.07390022
vt 4.44710016 -4.81500006
vt 0.58329999 -4.81689978
vt 0.58329999 -4.42799997
vt 9.41670132 -5.31669998
vt 5.55289984 -5.31669998
vt 9.41670132 -2.39849997
vt 5.55289984 -5.51060009
vt 0.58329999 -5.31669998
vt 5.55289984 -5.31669998
vt 10.25000000 -2.39849997
vt 10.25000000 -5.31669998
vt 10.08329964 -2.39849997
vt 10.25000000 -5.31669998
vt 10.08329964 -5.34200001
vt 10.08329964 -2.39849997
vt 10.08329964 -5.34200001
vt 9.55270004 -5.52659988
vt 9.55270004 -5.42449999
vt 9.55270004 -5.42449999
vt 5.81689978 -3.90080023
vt 9.55270004 -2.39849997
vt 9.58329964 -4.81689978
vt 9.41670132 -4.42799997
vt 9.58329964 -4.42799997
vt 0.44730011 -5.59880114
vt 4.18310022 -3.90080118
vt 1.25039995 -5.76820087
vt 4.44709921 -4.92809820
vt 0.58329982 -4.90229797
vt 0.58329982 -4.07389784
vt 2.77309990 -5.35659981
vt 4.18310022 -3.90080023
vt 3.51489997 -4.90229988
vt 5.55289984 -5.51060009
vt 9.41670132 -5.31669998
vt 9.41670132 -5.51060009
vt 4.44710016 -8.55420113
vt 0.58329999 -9.08559990
vt 0.58329999 -8.55270004
vt 9.40900135 -4.81500006
vt 5.55289984 -5.51060009
vt 5.55289984 -5.31669998
vt 9.41670132 -5.31669998
vt 0.58329999 -5.51060009
vt 0.58329999 -5.31669998
vt 5.55289984 -5.51060009
vt 0.58329999 -5.51060009
vt 0.41670001 -5.34200001
vt 0.58329999 -5.31669998
vt 9.58329964 -8.55270004
vt 9.48579979 -8.55270004
vt 9.41670132 -8.46010113
vt 10.08559990 -5.51060009
vt 9.40900135 -4.81500006
vt 1.25040102 -5.76820421
vt 4.18310308 -3.90080309
vt 2.01820111 -5.64530420
vt 0.58329999 -7.74960041
vt 4.44710016 -6.25500011
vt 0.58329999 -5.48509979
vt 4.44710016 -5.56930017
vt 4.44710016 -4.92810011
vt 0.58329999 -4.07390022
vt 4.44710016 -4.08330011
vt 0.58329999 -6.22690010
vt 2.01819992 -5.64529991
vt 4.44710016 -9.08559990
vt 0.58346993 -9.08559990
vt 9.41670132 -9.08559990
vt 9.40900135 -4.81500006
vt 9.31669998 -8.55270004
vt 4.44710016 -4.81500006
vt 9.41670132 -8.65130138
vt 9.65130138 -5.58249998
vt 4.44710016 -7.66539955
vt 0.58329999 -6.98180008
vt 9.55420017 -5.58529997
vt 6.56923580 -4.92827320
vt 5.81500006 -4.08330011
vt 7.25503016 -5.36548185
vt 7.95366383 -5.63685799
vt 8.66539860 -5.74240017
vt 4.44709921 -6.95369911
vt 0.58329988 -6.22689915
vt 4.44709921 -6.25499916
vt 4.44710207 -6.95370293
vt 0.58330017 -6.98180294
vt 0.58330017 -6.22690296
vt 9.41670132 -8.65130138
vt 9.41670132 -8.46010113
vt 4.44710016 -8.55420113
vt 9.31669998 -8.55270004
vt 4.44709587 -7.66539192
vt 0.58329952 -6.98179197
vt 4.44709587 -6.95369291
vt 9.31669998 -8.55270004
vt 3.50000000 1.12999988
vt 3.75000000 -4.13000011
vt 3.50000000 -4.13000011
vt 3.75000000 1.12999988
vt 1.25000000 -2.63000011
vt 1.50000000 -0.37000000
vt 1.50000000 -2.63000011
vt 1.25000000 -0.37000000
vt 3.50000000 -0.37000000
vt 3.75000000 -2.63000011
vt 3.50000000 -2.63000011
vt 3.75000000 -0.37000000
vt 1.25000000 1.12999988
vt 1.50000000 -4.13000011
vt 1.25000000 -4.13000011
vt 1.50000000 1.12999988
vt 3.50000000 1.12999988
vt 3.75000000 -4.13000011
vt 3.50000000 -4.13000011
vt 3.75000000 1.12999988
vt 1.25000000 -2.63000011
vt 1.50000000 -0.37000000
vt 1.50000000 -2.63000011
vt 1.25000000 -0.37000000
vt 3.50000000 -0.37000000
vt 3.75000000 -2.63000011
vt 3.50000000 -2.63000011
vt 3.75000000 -0.37000000
vt 1.25000000 1.12999988
vt 1.50000000 -4.13000011
vt 1.25000000 -4.13000011
vt 1.50000000 1.12999988
vt 5.38000011 -0.12000000
vt -0.38000000 0.00000000
vt 5.38000011 0.00000000
vt -0.38000000 -0.12000000
vt 1.37000000 1.38000000
vt 3.63000011 -4.38000011
vt 1.37000000 -4.38000011
vt 3.63000011 1.38000000
vt 1.37000000 0.00000012
vt 1.37000000 -0.12000000
vt 1.25000000 -0.12000000
vt 5.38000011 -2.88000011
vt -0.38000000 -0.12000000
vt 5.38000011 -0.12000000
vt -0.38000000 -2.88000011
vt 3.63000011 0.00000012
vt 3.75000000 -0.12000000
vt 3.63000011 -0.12000000
vt 1.37000000 0.00000012
vt 3.63000011 -0.12000000
vt 1.37000000 -0.12000000
vt 3.63000011 0.00000000
vt 1.37000000 -0.12000000
vt 3.63000011 0.00000000
vt 3.63000011 -0.12000000
vt 1.37000000 0.00000000
vt 5.38000011 -0.12000000
vt -0.38000000 0.00000000
vt 5.38000011 0.00000000
vt -0.38000000 -0.12000000
vt 1.25000000 -0.12000000
vt 1.37000000 -2.88000011
vt 1.25000000 -2.88000011
vt 1.37000000 -0.12000000
vt 3.63000011 -2.88000011
vt 3.75000000 -0.12000000
vt 3.75000000 -2.88000011
vt 3.63000011 -0.12000000
vt 1.37000000 1.38000000
vt 1.25000000 -4.38000011
vt 1.25000000 1.38000000
vt 1.37000000 -4.38000011
vt 3.75000000 -0.12000000
vt 3.63000011 -0.12000000
vt 3.63000011 0.00000000
vt 1.37000000 -0.12000000
vt 3.63000011 -2.88000011
vt 1.37000000 -2.88000011
vt 3.63000011 -0.12000000
vt 1.37000000 -2.88000011
vt 3.63000011 -0.12000000
vt 3.63000011 -2.88000011
vt 1.37000000 -0.12000000
vt 1.25000000 -0.12000000
vt 1.37000000 0.00000000
vt 1.37000000 -0.12000000
vt 5.38000011 -0.12000000
vt 5.13000011 -0.37000000
vt -0.38000000 -0.12000000
vt 5.37802219 -2.88177395
vt 5.12837982 -2.63138103
vt -0.13158570 -2.63138103
vt -0.12996601 -0.37000000
vt -0.38197821 -2.88177395
vt 1.37000000 1.38000000
vt 1.25000000 1.38000000
vt 1.37000000 1.50000000
vt 3.63000011 -3.00000000
vt 3.63000011 -2.88000011
vt 3.75000000 -2.88000011
vt 1.37000000 1.38000000
vt 3.63000011 -4.38000011
vt 1.37000000 -4.38000011
vt 3.63000011 1.38000000
vt 3.63000011 -0.12000000
vt 3.75000000 -2.88000011
vt 3.63000011 -2.88000011
vt 3.75000000 -0.12000000
vt 1.37000000 -2.88000011
vt 3.63000011 -3.00000000
vt 1.37000000 -3.00000000
vt 3.63000011 -2.88000011
vt 1.25000000 -2.88000011
vt 1.37000000 -0.12000000
vt 1.37000000 -2.88000011
vt 1.25000000 -0.12000000
vt 1.37000000 -3.00000000
vt 3.63000011 -2.88000011
vt 3.63000011 -3.00000000
vt 1.37000000 -2.88000011
vt 3.63000011 1.38000000
vt 3.75000000 -4.38000011
vt 3.63000011 -4.38000011
vt 3.75000000 1.38000000
vt 3.63000011 -2.88000011
vt 3.75000000 -2.88000011
vt 3.63000011 -3.00000000
vt 3.75000000 -4.38000011
vt 3.63000011 -4.50000000
vt 3.63000011 -4.38000011
vt 10.08329964 -2.39849997
vt 10.08329964 -2.23180008
vt 10.25000000 -2.39849997
vt 10.08329964 -2.39849901
vt 10.25000000 -2.81089902
vt 10.08329964 -2.83999896
vt 10.25000000 -2.39841390
vt 10.08765030 -2.39849997
vt 4.57289982 -2.23180008
vt 10.08765030 -2.23180008
vt -0.08376961 -2.23180008
vt -0.08376961 -2.39849997
vt 0.58326960 -2.39849997
vt 9.41670132 -2.23180008
vt 9.41670132 -2.39849997
vt 0.58326960 -2.23180008
vt 9.41666222 -2.81089997
vt 0.58329999 -2.39849997
vt 9.41666222 -2.39849997
vt 0.58329999 -2.81089997
vt 0.58329999 -3.00920010
vt 0.41670001 -2.83999991
vt 0.58329999 -2.81089997
vt -0.08342921 -2.39833093
vt 0.44764039 -5.42433405
vt -0.08342921 -5.34171295
vt 4.18344021 -3.90063381
vt 10.08798981 -2.39838409
vt 4.57323980 -3.90560293
vt 10.08798981 -2.83996892
vt 9.41670132 1.08765221
vt 0.58333677 -9.08376980
vt 0.58333677 1.08765221
vt 5.55289984 -9.08376980
vt 9.41670132 -9.08376980
vt 9.58330059 -2.39849997
vt 9.41670227 -2.39849997
vt 9.41670227 -2.23180008
vt 9.41670036 -2.23180008
vt 9.58329868 -2.39849997
vt 9.41670036 -2.39849997
vt 9.41670132 -2.81098509
vt 9.58329964 -2.39849997
vt 9.58329964 -2.83999991
vt 9.41670132 -2.39849997
vt 9.41666222 -3.00920010
vt 0.58329999 -2.81089997
vt 9.41666222 -2.81089997
vt 0.58329999 -3.00920010
vt 10.08640003 -3.00920010
vt 4.57200003 -4.07390022
vt 10.08329964 -2.83999991
vt 4.57200003 -3.90570021
vt 4.18310022 -4.07390022
vt 4.18310022 -3.90080023
vt 4.18310022 -3.90080023
vt 0.44729999 -5.59880018
vt 0.44729999 -5.42449999
vt 0.44729999 -5.42449999
vt -0.08559995 -5.51060009
vt -0.08329999 -5.34200001
vt 9.41639328 -2.39853501
vt 9.58299160 -5.34203482
vt 9.41639423 -5.31693506
vt 9.58299160 -2.39853501
vt 9.41670132 -9.08329964
vt 5.55289984 -9.25000000
vt 5.55289984 -9.08329964
vt 9.41670132 -9.25000000
vt 5.55289984 -2.23180008
vt 0.58329999 -2.39849997
vt 0.58329999 -2.23180008
vt 5.55289984 -2.39849997
vt -0.08329999 -2.23180008
vt 10.08174992 -2.39849997
vt -0.08329999 -2.39849997
vt 10.08174992 -2.23180008
vt 9.55098343 -5.42391300
vt 10.08172035 -2.39800906
vt 10.08172035 -5.34129810
vt 5.81752205 -3.90024185
vt -0.08333390 -2.39800906
vt 5.42796612 -3.90520906
vt -0.08333390 -2.83958101
vt 9.41670132 -3.00920010
vt 9.41670132 -2.81089997
vt 9.58329964 -2.83999991
vt 4.44710016 -4.42799997
vt 9.41670132 1.08640003
vt 9.41670132 -4.42799997
vt 0.58326960 1.08640003
vt 0.58326960 -4.42799997
vt 3.51489997 -4.90229988
vt 4.18310022 -3.90080023
vt 4.18310022 -4.07390022
vt 0.44729960 -5.42449522
vt 0.44729960 -5.59879398
vt -0.08559988 -5.51059389
vt 4.18310118 -3.90080118
vt 1.25039995 -5.76820087
vt 0.44730011 -5.59880114
vt 9.41670132 -5.51060009
vt 9.41670132 -5.31669998
vt 9.58329964 -5.34200001
vt 9.41675854 -5.31669998
vt 5.55289984 -2.39849997
vt 9.41662788 -2.39849997
vt 0.58343071 -2.39849997
vt 0.58329999 -5.31669998
vt 10.25000000 -2.39849997
vt 10.08329964 -2.39849997
vt 10.08329964 -2.23180008
vt 10.08302021 -5.34202480
vt 10.24971962 -2.39832807
vt 10.24971962 -5.31672478
vt 10.08302021 -2.39852810
vt 9.55270004 -5.42449999
vt 10.08329964 -5.34200001
vt 9.55270004 -5.52659988
vt 9.40900135 -4.81500006
vt 9.58329964 -4.81689978
vt 9.58329964 -8.55270004
vt 9.58329964 -4.42799997
vt 9.41670132 -4.42799997
vt -0.08639997 -3.00920010
vt -0.08329999 -2.83999991
vt 5.42799997 -3.90570021
vt 5.42799997 -4.07390022
vt 4.44710016 -4.81500006
vt 0.58329999 -4.42799997
vt 0.58329999 -4.81689978
vt 4.44709921 -4.92809820
vt 0.58329982 -4.90229797
vt 0.58329982 -4.07389784
vt 4.18310022 -3.90080023
vt 3.51489997 -4.90229988
vt 2.77309990 -5.35659981
vt 0.58329999 -8.55270004
vt 4.44710016 -8.55420113
vt 0.58329999 -9.08559990
vt 4.18309689 -3.90079689
vt 2.01819897 -5.64529610
vt 1.25039899 -5.76819611
vt 0.58329999 -7.74960041
vt 9.41675854 -5.51060009
vt 0.58329999 -5.31669998
vt 9.41675854 -5.31669998
vt 0.58329999 -5.51060009
vt 0.58329999 -5.51060009
vt 0.41670001 -5.34200001
vt 0.58329999 -5.31669998
vt 9.41670132 -8.46010113
vt 9.58329964 -8.55270004
vt 9.48579979 -8.55270004
vt 10.08559990 -5.51060009
vt 9.41670132 -8.46010113
vt 9.40900135 -4.81500006
vt 0.58329999 -5.48509979
vt 4.44710016 -5.56930017
vt 4.44710016 -6.25500011
vt 4.44710016 -4.92810011
vt 0.58329999 -4.07390022
vt 4.44710016 -4.08330011
vt 0.58329999 -6.22690010
vt 2.01819992 -5.64529991
vt 0.58324051 -9.08559990
vt 9.41670132 -9.08559990
vt 0.58329999 -6.98180008
vt 4.44710016 -7.66539955
vt 9.41670132 -8.65130138
vt 9.65130138 -5.58249998
vt 9.31669998 -8.55270004
vt 9.40900135 -4.81500006
vt 9.41670132 -8.46010113
vt 4.44710016 -4.81500006
vt 5.81500006 -4.08330011
vt 7.25500011 -5.36520004
vt 6.56930017 -4.92810011
vt 0.58330011 -6.22690105
vt 4.44710016 -6.25500107
vt 4.44710016 -6.95370102
vt 0.58330017 -6.98180294
vt 0.58330017 -6.22690201
vt 4.44710207 -6.95370293
vt 9.41670132 -8.65130138
vt 4.44710016 -6.95370007
vt 8.66539955 -5.74240017
vt 9.55420113 -5.58529997
vt 7.95425177 -5.63685799
vt 7.25609684 -5.36548281
vt 9.31669998 -8.55270004
vt 4.44710016 -8.55420113
vt 4.44710016 -8.55420113
vt 9.31669998 -8.55270004
vt 9.41670132 -8.65130138
vt 5.38000011 -0.12000000
vt -0.38000000 0.00000000
vt 5.38000011 0.00000000
vt -0.38000000 -0.12000000
vt 3.63000011 -4.38000011
vt 1.37000000 1.38000000
vt 3.63000011 1.38000000
vt 1.37000000 -4.38000011
vt 1.25000000 -0.12000000
vt 1.37000000 0.00000000
vt 1.37000000 -0.12000000
vt 5.38000011 -2.88000011
vt -0.38000000 -0.12000000
vt 5.38000011 -0.12000000
vt -0.38000000 -2.88000011
vt 3.75000000 -0.12000000
vt 3.63000011 -0.12000000
vt 3.63000011 0.00000000
vt 1.37000000 -0.12000000
vt 3.63000011 0.00000000
vt 3.63000011 -0.12000000
vt 1.37000000 0.00000000
vt 1.37000000 0.00000000
vt 3.63000011 -0.12000000
vt 1.37000000 -0.12000000
vt 3.63000011 0.00000000
vt 5.38000011 -0.12000000
vt -0.38000000 0.00000000
vt 5.38000011 0.00000000
vt -0.38000000 -0.12000000
vt 1.37000000 -2.88000011
vt 1.25000000 -0.12000000
vt 1.37000000 -0.12000000
vt 1.25000000 -2.88000011
vt 3.75000000 -0.12000000
vt 3.63000011 -2.88000011
vt 3.63000011 -0.12000000
vt 3.75000000 -2.88000011
vt 1.37000000 1.38000000
vt 1.25000000 -4.38000011
vt 1.25000000 1.38000000
vt 1.37000000 -4.38000011
vt 3.63000011 -0.12000000
vt 3.63000011 0.00000012
vt 3.75000000 -0.12000000
vt 1.37000000 -2.88000011
vt 3.63000011 -0.12000000
vt 3.63000011 -2.88000011
vt 1.37000000 -0.12000000
vt 1.37000000 -0.12000000
vt 3.63000011 -2.88000011
vt 1.37000000 -2.88000011
vt 3.63000011 -0.12000000
vt 1.37000000 -0.12000000
vt 1.25000000 -0.12000000
vt 1.37000000 0.00000012
vt 5.38000011 -0.12000000
vt 5.13000011 -0.37000000
vt -0.38000000 -0.12000000
vt 5.37977409 -2.88177395
vt 5.12981510 -2.63138103
vt -0.13022640 -2.63138103
vt -0.13004100 -0.37000000
vt -0.38022640 -2.88177395
vt 1.37000000 1.38000000
vt 1.25000000 1.38000000
vt 1.37000000 1.50000000
vt 3.63000011 -3.00000000
vt 3.63000011 -2.88000011
vt 3.75000000 -2.88000011
vt 3.63000011 -4.38000011
vt 1.37000000 1.38000000
vt 3.63000011 1.38000000
vt 1.37000000 -4.38000011
vt 3.75000000 -2.88000011
vt 3.63000011 -0.12000000
vt 3.75000000 -0.12000000
vt 3.63000011 -2.88000011
vt 1.37000000 -3.00000000
vt 3.63000011 -2.88000011
vt 3.63000011 -3.00000000
vt 1.37000000 -2.88000011
vt 1.37000000 -0.12000000
vt 1.25000000 -2.88000011
vt 1.25000000 -0.12000000
vt 1.37000000 -2.88000011
vt 1.37000000 -2.88000011
vt 3.63000011 -3.00000000
vt 1.37000000 -3.00000000
vt 3.63000011 -2.88000011
vt 3.63000011 -4.38000011
vt 3.75000000 1.38000000
vt 3.75000000 -4.38000011
vt 3.63000011 1.38000000
vt 3.63000011 -3.00000000
vt 3.63000011 -2.88000011
vt 3.75000000 -2.88000011
vt 3.63000011 -4.38000011
vt 3.75000000 -4.38000011
vt 3.63000011 -4.50000000
vt 3.75000000 -4.13000011
vt 3.50000000 1.12999988
vt 3.75000000 1.12999988
vt 3.50000000 -4.13000011
vt 1.25000000 -0.37000000
vt 1.50000000 -2.63000011
vt 1.25000000 -2.63000011
vt 1.50000000 -0.37000000
vt 3.50000000 -2.63000011
vt 3.75000000 -0.37000000
vt 3.75000000 -2.63000011
vt 3.50000000 -0.37000000
vt 1.50000000 -4.13000011
vt 1.25000000 1.12999988
vt 1.50000000 1.12999988
vt 1.25000000 -4.13000011
vt -30.68028069 519.08660889
vt -30.68028069 519.71258545
vt -30.59622002 519.40161133
vt -30.90995979 518.85827637
vt -30.90995979 519.94488525
vt -31.22365952 518.77172852
vt -31.22365952 520.02758789
vt -31.53735924 518.85827637
vt -31.53735924 519.94488525
vt -31.76692963 519.08660889
vt -31.76692963 519.71258545
vt -31.85106087 519.40161133
vt 3.75000000 0.50000000
vt 4.16669989 0.50000000
vt 4.16669989 -3.50000000
vt 3.33330011 0.50000000
vt 3.75000000 0.50000000
vt 3.75000000 -3.50000000
vt 3.33330011 -3.50000000
vt 2.91669989 0.50000000
vt 3.33330011 0.50000000
vt 2.91669989 -3.50000000
vt 2.91669989 -3.50000000
vt 2.50000000 0.50000000
vt 2.91669989 0.50000000
vt 2.50000000 -3.50000000
vt 2.50000000 0.50000000
vt 2.08330011 -3.50000000
vt 2.08330011 0.50000000
vt 2.50000000 -3.50000000
vt 2.08330011 -3.50000000
vt 1.66670001 0.50000000
vt 2.08330011 0.50000000
vt 1.66670001 0.50000000
vt 1.66670001 -3.50000000
vt 1.25000000 0.50000000
vt 1.25000000 0.50000000
vt 1.25000000 -3.50000000
vt 0.83329999 0.50000000
vt 0.83329999 0.50000000
vt 0.83329999 -3.50000000
vt 0.41670001 0.50000000
vt 5.41669989 0.50000000
vt 5.00000000 -3.50000000
vt 5.00000000 0.50000000
vt 5.41669989 -3.50000000
vt 5.00000000 -3.50000000
vt 4.58330011 0.50000000
vt 5.00000000 0.50000000
vt 4.58330011 -3.50000000
vt 4.16669989 -3.50000000
vt 4.58330011 0.50000000
vt 4.58330011 -3.50000000
vt 4.16669989 0.50000000
vt 3.75000000 0.50000000
vt 4.16669989 -3.50000000
vt 3.75000000 -3.50000000
vt 3.33330011 0.50000000
vt 3.75000000 -3.50000000
vt 3.33330011 -3.50000000
vt 30.68034935 519.71258545
vt 30.68034935 519.08660889
vt 30.59634018 519.40161133
vt 30.91003990 519.94488525
vt 30.91003990 518.85827637
vt 31.22373962 520.02758789
vt 31.22373962 518.77172852
vt 31.53743935 519.94488525
vt 31.53743935 518.85827637
vt 31.76712990 519.71258545
vt 31.76712990 519.08660889
vt 31.85117912 519.40161133
vt 2.08330011 -3.50000000
vt 1.66670001 -3.50000000
vt 1.66670001 0.50000000
vt 1.66670001 -3.50000000
vt 1.25000000 -3.50000000
vt 1.25000000 0.50000000
vt 1.25000000 -3.50000000
vt 0.83329999 -3.50000000
vt 0.83329999 0.50000000
vt 0.83329999 -3.50000000
vt 0.41670001 -3.50000000
vt 0.41670001 0.50000000
vt 10.25000000 -2.39849997
vt 10.08329964 -2.39849997
vt 10.08329964 -2.23180008
vt 10.08329964 -2.39849997
vt 10.25000000 -2.39849997
vt 10.25000000 -2.81089997
vt 0.44729999 -2.39849997
vt 10.08397007 -2.23180008
vt 10.08397007 -2.39849997
vt -0.08350941 -2.23180008
vt -0.08350941 -2.39849997
vt 9.41670132 -2.23180008
vt 0.58301687 -2.39849997
vt 0.58301687 -2.23180008
vt 9.41670132 -2.39849997
vt 9.41633701 -2.81089997
vt 0.58329999 -2.39849997
vt 9.41633701 -2.39849997
vt 0.58329999 -2.81089997
vt 10.08329964 -2.83999991
vt 10.08329964 -2.39849997
vt 10.25000000 -2.81089997
vt 5.55289984 -9.08351040
vt 9.41670132 1.08397484
vt 9.41670132 -9.08351040
vt 0.58366179 1.08397484
vt 0.58366179 -9.08351040
vt 10.08329964 -2.83999991
vt 0.44728431 -2.39855409
vt 10.08355999 -2.39842796
vt 4.57200003 -3.90570021
vt 4.18292999 -3.90073776
vt 0.44780079 -5.42475700
vt 0.44780079 -2.39875698
vt 4.18360090 -3.90105677
vt -0.08299020 -2.39875388
vt -0.08299734 -5.34213686
vt 9.41670036 -2.39849997
vt 9.41670036 -2.23180008
vt 9.58329868 -2.39849997
vt 9.58330059 -2.39849997
vt 9.41670227 -2.39849997
vt 9.41670227 -2.23180008
vt 9.58329773 -2.83999896
vt 9.41669941 -2.81089902
vt 9.41669941 -2.39849901
vt 9.41633701 -3.00920010
vt 0.58329999 -2.81089997
vt 9.41633701 -2.81089997
vt 0.58329999 -3.00920010
vt 0.58329999 -3.00920010
vt 0.41670001 -2.83999991
vt 0.58329999 -2.81089997
vt 5.55289984 -9.25000000
vt 9.41670132 -9.08329964
vt 9.41670132 -9.25000000
vt 5.55289984 -9.08329964
vt 0.58329999 -2.39849997
vt 5.55289984 -2.23180008
vt 5.55289984 -2.39849997
vt 0.58329999 -2.23180008
vt 10.08327961 -2.39849997
vt -0.08329999 -2.23180008
vt 10.08327961 -2.23180008
vt -0.08329999 -2.39849997
vt 4.57200003 -3.90570021
vt 10.08329964 -2.83999991
vt 4.57200003 -4.07390022
vt 4.18310022 -3.90080023
vt 4.18310022 -4.07390022
vt 0.44729999 -5.42449999
vt 4.18310022 -3.90080023
vt 0.44729999 -5.59880018
vt -0.08559995 -5.51060009
vt -0.08329999 -5.34200001
vt 0.44729999 -5.42449999
vt 9.41670132 -2.39849997
vt 9.58329964 -2.39849997
vt 9.58329964 -5.34200001
vt 9.58329964 -2.83999991
vt 9.41670132 -2.39849997
vt 9.58329964 -2.39849997
vt 9.41670132 -3.00920010
vt 9.41670132 -2.81089997
vt 9.58329964 -2.83999991
vt 9.41670132 1.08640003
vt 0.58301687 -4.42799997
vt 0.58301687 1.08640003
vt 4.44710016 -4.42799997
vt 9.41670132 -4.42799997
vt 10.08640003 -3.00920010
vt 5.55111694 -5.31713486
vt 5.55111694 -2.39893508
vt 9.41499615 -2.39893508
vt 0.58151728 -5.31713486
vt 0.58329999 -5.31669998
vt 0.58329999 -2.39849997
vt 5.55289984 -2.39849997
vt 10.08329964 -2.39849997
vt 10.08329964 -2.23180008
vt 10.25000000 -2.39849997
vt 10.08327961 -2.39849997
vt -0.08303853 -2.84007192
vt -0.08329999 -2.39849997
vt 5.42799997 -3.90570021
vt 5.81705093 -3.90073299
vt 9.55278111 -5.42440319
vt 10.08353996 -5.34178782
vt 3.51489997 -4.90229988
vt 4.18310022 -3.90080023
vt 4.18310022 -4.07390022
vt -0.08559987 -5.51059389
vt 0.44729960 -5.42449379
vt 0.44729960 -5.59879398
vt 0.44730011 -5.59880114
vt 4.18310022 -3.90080118
vt 1.25039995 -5.76820087
vt 9.41670132 -5.51060009
vt 9.41670132 -5.31669998
vt 9.58329964 -5.34200001
vt 9.41669178 -2.39849710
vt 9.58329105 -5.34199381
vt 9.41669178 -5.31669378
vt 5.42799997 -3.90570021
vt -0.08639997 -3.00920010
vt -0.08329999 -2.83999991
vt 5.42799997 -4.07390022
vt 4.44710016 -4.81500006
vt 0.58329999 -4.81689978
vt 0.58329999 -4.42799997
vt 9.41670132 -5.31669998
vt 5.55289984 -5.31669998
vt 9.41670132 -2.39849997
vt 5.55289984 -5.51060009
vt 0.58329999 -5.31669998
vt 5.55289984 -5.31669998
vt 10.25074005 -2.39824510
vt 10.08378029 -5.34194517
vt 10.08378029 -2.39844489
vt 10.25047970 -5.31664515
vt 10.08329964 -5.34200001
vt 9.55270004 -5.52659988
vt 9.55270004 -5.42449999
vt 9.58329964 -8.55270004
vt 9.40900135 -4.81500006
vt 9.58329964 -4.81689978
vt 9.41670132 -4.42799997
vt 9.58329964 -4.42799997
vt 4.44709921 -4.92809820
vt 0.58329982 -4.90229797
vt 0.58329982 -4.07389784
vt 2.77309990 -5.35659981
vt 4.18310022 -3.90080023
vt 3.51489997 -4.90229988
vt 4.44710016 -8.55420113
vt 0.58329999 -9.08559990
vt 0.58329999 -8.55270004
vt 1.25040102 -5.76820421
vt 4.18310308 -3.90080309
vt 2.01820111 -5.64530420
vt 0.58329999 -7.74960041
vt 5.55289984 -5.51060009
vt 9.41670132 -5.31669998
vt 9.41670132 -5.51060009
vt 4.44710398 -4.81500483
vt 0.58330047 -4.81690502
vt 4.44710398 -4.42800379
vt 9.40900135 -4.81500006
vt 5.55289984 -5.51060009
vt 5.55289984 -5.31669998
vt 9.41670132 -5.31669998
vt 0.58329999 -5.51060009
vt 0.58329999 -5.31669998
vt 5.55289984 -5.51060009
vt 0.58329999 -5.51060009
vt 0.41670001 -5.34200001
vt 0.58329999 -5.31669998
vt 9.48579979 -8.55270004
vt 9.41670132 -8.46010113
vt 10.08559990 -5.51060009
vt 4.44710016 -6.25500011
vt 0.58329999 -5.48509979
vt 4.44710016 -5.56930017
vt 4.44710016 -4.92810011
vt 0.58329999 -4.07390022
vt 4.44710016 -4.08330011
vt 0.58329999 -6.22690010
vt 2.01819992 -5.64529991
vt 4.44710016 -9.08559990
vt 0.58295870 -9.08559990
vt 9.41670132 -9.08559990
vt 4.44710016 -7.66539955
vt 0.58329999 -6.98180008
vt 9.40900135 -4.81500006
vt 9.31669998 -8.55270004
vt 4.44710016 -4.81500006
vt 9.41670132 -8.65130138
vt 9.65130138 -5.58249998
vt 9.41670132 -8.46010113
vt 9.55420017 -5.58529997
vt 6.56923580 -4.92827320
vt 5.81500006 -4.08330011
vt 7.25503016 -5.36548185
vt 7.95366383 -5.63685799
vt 8.66539860 -5.74240017
vt 4.44709921 -6.95369911
vt 0.58329988 -6.22689915
vt 4.44709921 -6.25499916
vt 4.44710207 -6.95370293
vt 0.58330017 -6.98180294
vt 0.58330017 -6.22690296
vt 9.41670132 -8.65130138
vt 4.44709587 -7.66539192
vt 0.58329940 -6.98179197
vt 4.44709587 -6.95369196
vt 4.44710016 -8.55420113
vt 9.31669998 -8.55270004
vt 9.31669998 -8.55270004
vt 309.34451294 137.38780212
vt 309.34451294 138.01539612
vt 309.42871094 137.70159912
vt 309.11499023 137.15829468
vt 309.11499023 138.24490356
vt 308.80120850 137.07400513
vt 308.80120850 138.32870483
vt 308.48739624 137.15829468
vt 308.48739624 138.24490356
vt 308.25790405 137.38780212
vt 308.25790405 138.01539612
vt 308.17401123 137.70159912
vt 4.16669989 0.50000000
vt 3.75000000 -3.50000000
vt 3.75000000 0.50000000
vt 4.16669989 -3.50000000
vt 3.75000000 0.50000000
vt 3.33330011 -3.50000000
vt 3.33330011 0.50000000
vt 3.75000000 -3.50000000
vt 3.33330011 -3.50000000
vt 2.91669989 0.50000000
vt 3.33330011 0.50000000
vt 2.91669989 -3.50000000
vt 2.50000000 0.50000000
vt 2.91669989 0.50000000
vt 2.50000000 -3.50000000
vt 2.08330011 0.50000000
vt 2.50000000 0.50000000
vt 2.08330011 -3.50000000
vt 1.66670001 0.50000000
vt 2.08330011 0.50000000
vt 1.25000000 0.50000000
vt 1.66670001 0.50000000
vt 1.66670001 -3.50000000
vt 0.83329999 0.50000000
vt 1.25000000 0.50000000
vt 1.25000000 -3.50000000
vt 0.83329999 -3.50000000
vt 0.41670001 0.50000000
vt 0.83329999 0.50000000
vt 5.41669989 -3.50000000
vt 5.00000000 0.50000000
vt 5.41669989 0.50000000
vt 5.00000000 -3.50000000
vt 5.00000000 -3.50000000
vt 4.58330011 0.50000000
vt 5.00000000 0.50000000
vt 4.58330011 -3.50000000
vt 4.16669989 0.50000000
vt 4.58330011 0.50000000
vt 4.58330011 -3.50000000
vt 4.16669989 -3.50000000
vt 4.16669989 0.50000000
vt -309.34490967 138.01499939
vt -309.34490967 137.38740540
vt -309.42871094 137.70120239
vt -309.11499023 138.24450684
vt -309.11499023 137.15789795
vt -308.80120850 138.32870483
vt -308.80120850 137.07359314
vt -308.48779297 138.24450684
vt -308.48779297 137.15789795
vt -308.25790405 138.01499939
vt -308.25790405 137.38740540
vt -308.17401123 137.70120239
vt 3.33330011 -3.50000000
vt 2.91669989 -3.50000000
vt 2.91669989 0.50000000
vt 2.50000000 -3.50000000
vt 2.08330011 -3.50000000
vt 1.66670001 -3.50000000
vt 1.66670001 0.50000000
vt 2.08330011 -3.50000000
vt 1.25000000 -3.50000000
vt 0.83329999 -3.50000000
vt 0.41670001 -3.50000000
vt 0.41670001 0.50000000
vt 0.83329999 -3.50000000
vt 5.00000000 -3.50000000
vt 4.58330011 -3.50000000
vt 4.58330011 0.50000000
vt 373.33190918 137.38780212
vt 373.33190918 138.01539612
vt 373.41610718 137.70159912
vt 373.10238647 137.15829468
vt 373.10238647 138.24490356
vt 372.78860474 137.07400513
vt 372.78860474 138.32870483
vt 372.47518921 137.15829468
vt 372.47518921 138.24490356
vt 372.24530029 137.38780212
vt 372.24530029 138.01539612
vt 372.16140747 137.70159912
vt 4.16669989 0.50000000
vt 3.75000000 -3.50000000
vt 3.75000000 0.50000000
vt 4.16669989 -3.50000000
vt 3.75000000 0.50000000
vt 3.33330011 -3.50000000
vt 3.33330011 0.50000000
vt 3.75000000 -3.50000000
vt 3.33330011 0.50000000
vt 2.91669989 -3.50000000
vt 2.91669989 0.50000000
vt 3.33330011 -3.50000000
vt 2.91669989 -3.50000000
vt 2.50000000 0.50000000
vt 2.91669989 0.50000000
vt 2.50000000 -3.50000000
vt 2.08330011 0.50000000
vt 2.50000000 0.50000000
vt 2.08330011 -3.50000000
vt 1.66670001 0.50000000
vt 2.08330011 0.50000000
vt 1.66670001 -3.50000000
vt 1.66670001 -3.50000000
vt 1.25000000 0.50000000
vt 1.66670001 0.50000000
vt 1.25000000 -3.50000000
vt 1.25000000 -3.50000000
vt 0.83329999 0.50000000
vt 1.25000000 0.50000000
vt 0.83329999 -3.50000000
vt 0.83329999 -3.50000000
vt 0.41670001 0.50000000
vt 0.83329999 0.50000000
vt 0.41670001 -3.50000000
vt 5.42299700 -3.49960995
vt 5.00629711 0.50039017
vt 5.42299700 0.50039017
vt 5.00673485 -3.49960995
vt 5.00000000 -3.50000000
vt 4.58330011 0.50000000
vt 5.00000000 0.50000000
vt 4.58330011 0.50000000
vt 4.16669989 -3.50000000
vt 4.16669989 0.50000000
vt 4.58330011 -3.50000000
vt -373.33190918 138.01499939
vt -373.33190918 137.38740540
vt -373.41610718 137.70120239
vt -373.10238647 138.24450684
vt -373.10238647 137.15789795
vt -372.78900146 138.32870483
vt -372.78900146 137.07359314
vt -372.47518921 138.24450684
vt -372.47518921 137.15789795
vt -372.24530029 138.01499939
vt -372.24530029 137.38740540
vt -372.16140747 137.70120239
vt 2.91669989 -3.50000000
vt 2.50000000 -3.50000000
vt 2.50000000 0.50000000
vt 2.08330011 -3.50000000
vt 5.00000000 -3.50000000
vt 4.58330011 -3.50000000
vt 4.58330011 0.50000000
f 1/1 2/2 3/3
f 2/2 1/1 4/4
f 5/5 6/6 7/7
f 6/6 5/5 8/8
f 9/9 10/10 11/11
f 12/12 13/13 14/14
f 13/13 12/12 15/15
f 16/16 17/17 18/18
f 19/19 20/20 21/21
f 20/20 19/19 22/22
f 23/23 24/24 25/25
f 24/24 23/23 26/26
f 27/27 28/28 29/29
f 28/28 27/27 30/30
f 31/31 32/32 33/33
f 32/32 31/31 34/34
f 35/35 36/36 37/37
f 36/36 35/35 38/38
f 39/39 40/40 41/41
f 40/40 39/39 42/42
f 43/43 44/44 45/45
f 46/46 47/47 48/48
f 47/47 46/46 49/49
f 50/50 51/51 52/52
f 51/51 50/50 53/53
f 54/54 55/55 56/56
f 57/57 58/58 59/59
f 58/58 57/57 60/60
f 58/58 60/60 61/61
f 61/61 60/60 62/62
f 59/59 63/63 64/64
f 63/63 59/59 58/58
f 64/64 63/63 62/62
f 64/64 62/62 60/60
f 65/65 66/66 67/67
f 68/68 69/69 70/70
f 71/71 72/72 73/73
f 72/72 71/71 74/74
f 75/75 76/76 77/77
f 76/76 75/75 78/78
f 79/79 80/80 81/81
f 80/80 79/79 82/82
f 83/83 84/84 85/85
f 84/84 83/83 86/86
f 87/87 88/88 89/89
f 88/88 87/87 90/90
f 91/91 92/92 93/93
f 92/92 91/91 94/94
f 95/95 96/96 97/97
f 98/98 99/99 100/100
f 101/101 102/102 103/103
f 104/104 105/105 106/106
f 107/107 108/108 109/109
f 108/108 107/107 110/110
f 110/110 107/107 111/111
f 112/112 113/113 114/114
f 113/113 112/112 115/115
f 116/116 117/117 118/118
f 117/117 116/116 119/119
f 120/120 121/121 122/122
f 123/123 124/124 125/125
f 124/124 123/123 126/126
f 126/126 123/123 127/127
f 128/128 129/129 130/130
f 129/129 128/128 131/131
f 129/129 131/131 132/132
f 133/133 134/134 135/135
f 134/134 133/133 136/136
f 137/137 138/138 139/139
f 140/140 141/141 142/142
f 143/143 144/144 145/145
f 146/146 147/147 148/148
f 147/147 146/146 149/149
f 150/150 151/151 152/152
f 153/153 154/154 155/155
f 154/154 153/153 156/156
f 157/157 158/158 159/159
f 158/158 157/157 160/160
f 161/161 162/162 163/163
f 162/162 161/161 164/164
f 165/165 166/166 167/167
f 168/168 169/169 170/170
f 171/171 168/168 172/172
f 173/173 174/174 175/175
f 176/176 177/177 178/178
f 179/179 180/180 181/181
f 182/182 183/183 184/184
f 185/185 186/186 187/187
f 186/186 185/185 188/188
f 188/188 185/185 189/189
f 170/170 169/169 190/190
f 191/191 192/192 193/193
f 192/192 191/191 194/194
f 195/195 196/196 197/197
f 198/198 199/199 200/200
f 201/201 202/202 203/203
f 202/202 201/201 204/204
f 205/205 206/206 207/207
f 206/206 205/205 208/208
f 208/208 205/205 209/209
f 210/210 211/211 212/212
f 172/172 168/168 170/170
f 213/213 214/214 215/215
f 216/216 217/217 218/218
f 219/219 220/220 221/221
f 222/222 223/223 224/224
f 225/225 226/226 227/227
f 225/225 228/228 226/226
f 189/189 229/229 188/188
f 188/188 230/230 231/231
f 232/232 233/233 234/234
f 235/235 236/236 237/237
f 238/238 239/239 240/240
f 241/241 242/242 243/243
f 244/244 245/245 246/246
f 247/247 248/248 249/249
f 250/250 251/251 252/252
f 253/253 254/254 255/255
f 256/256 257/257 258/258
f 259/259 260/260 261/261
f 262/262 263/263 264/264
f 265/265 266/266 267/267
f 229/229 230/230 188/188
f 189/189 268/268 229/229
f 269/269 270/270 271/271
f 272/272 273/273 274/274
f 275/275 276/276 277/277
f 278/278 279/279 280/280
f 281/281 245/245 244/244
f 278/278 282/282 250/250
f 250/250 282/282 251/251
f 283/283 284/284 285/285
f 265/265 267/267 286/286
f 287/287 288/288 289/289
f 290/290 291/291 292/292
f 287/287 293/293 288/288
f 294/294 260/260 259/259
f 265/265 295/295 296/296
f 295/295 265/265 297/297
f 298/298 299/299 300/300
f 279/279 301/301 280/280
f 278/278 280/280 282/282
f 281/281 302/302 245/245
f 303/303 286/286 304/304
f 265/265 286/286 303/303
f 305/305 306/306 307/307
f 306/306 305/305 308/308
f 308/308 305/305 309/309
f 309/309 305/305 310/310
f 311/311 312/312 313/313
f 314/314 315/315 316/316
f 297/297 265/265 317/317
f 318/318 299/299 298/298
f 299/299 319/319 300/300
f 301/301 320/320 280/280
f 321/321 322/322 323/323
f 317/317 265/265 324/324
f 325/325 326/326 327/327
f 326/326 325/325 328/328
f 329/329 330/330 331/331
f 330/330 329/329 332/332
f 333/333 334/334 335/335
f 334/334 333/333 336/336
f 337/337 338/338 339/339
f 338/338 337/337 340/340
f 341/341 342/342 343/343
f 342/342 341/341 344/344
f 345/345 346/346 347/347
f 346/346 345/345 348/348
f 349/349 350/350 351/351
f 350/350 349/349 352/352
f 353/353 354/354 355/355
f 354/354 353/353 356/356
f 357/357 358/358 359/359
f 358/358 357/357 360/360
f 361/361 362/362 363/363
f 362/362 361/361 364/364
f 365/365 366/366 367/367
f 368/368 369/369 370/370
f 369/369 368/368 371/371
f 372/372 373/373 374/374
f 375/375 376/376 377/377
f 376/376 375/375 378/378
f 379/379 380/380 381/381
f 380/380 379/379 382/382
f 383/383 384/384 385/385
f 384/384 383/383 386/386
f 387/387 388/388 389/389
f 388/388 387/387 390/390
f 391/391 392/392 393/393
f 392/392 391/391 394/394
f 395/395 396/396 397/397
f 396/396 395/395 398/398
f 399/399 400/400 401/401
f 402/402 403/403 404/404
f 403/403 402/402 405/405
f 406/406 407/407 408/408
f 407/407 406/406 409/409
f 410/410 411/411 412/412
f 413/413 414/414 415/415
f 414/414 413/413 416/416
f 414/414 416/416 417/417
f 417/417 416/416 418/418
f 415/415 419/419 420/420
f 419/419 415/415 414/414
f 420/420 419/419 418/418
f 420/420 418/418 416/416
f 421/421 422/422 423/423
f 424/424 425/425 426/426
f 427/427 428/428 429/429
f 428/428 427/427 430/430
f 431/431 432/432 433/433
f 432/432 431/431 434/434
f 435/435 436/436 437/437
f 436/436 435/435 438/438
f 439/439 440/440 441/441
f 440/440 439/439 442/442
f 443/443 444/444 445/445
f 444/444 443/443 446/446
f 447/447 448/448 449/449
f 448/448 447/447 450/450
f 451/451 452/452 453/453
f 454/454 455/455 456/456
f 457/457 458/458 459/459
f 460/460 461/461 462/462
f 461/461 460/460 463/463
f 464/464 465/465 466/466
f 465/465 464/464 467/467
f 467/467 464/464 468/468
f 469/469 470/470 471/471
f 470/470 469/469 472/472
f 473/473 474/474 475/475
f 474/474 473/473 476/476
f 477/477 478/478 479/479
f 480/480 481/481 482/482
f 481/481 480/480 483/483
f 483/483 480/480 484/484
f 483/483 484/484 485/485
f 485/485 484/484 486/486
f 487/487 488/488 489/489
f 488/488 487/487 490/490
f 490/490 487/487 491/491
f 492/492 493/493 494/494
f 495/495 496/496 497/497
f 498/498 499/499 500/500
f 499/499 498/498 501/501
f 502/502 503/503 504/504
f 503/503 502/502 505/505
f 506/506 507/507 508/508
f 508/508 507/507 509/509
f 509/509 510/510 511/511
f 512/512 513/513 514/514
f 515/515 516/516 517/517
f 518/518 519/519 520/520
f 519/519 518/518 521/521
f 522/522 523/523 524/524
f 523/523 522/522 525/525
f 526/526 527/527 528/528
f 527/527 526/526 529/529
f 530/530 531/531 532/532
f 531/531 530/530 533/533
f 534/534 535/535 536/536
f 535/535 534/534 537/537
f 535/535 537/537 538/538
f 538/538 537/537 539/539
f 538/538 539/539 540/540
f 541/541 542/542 543/543
f 544/544 545/545 546/546
f 545/545 544/544 547/547
f 547/547 544/544 548/548
f 509/509 507/507 510/510
f 549/549 550/550 551/551
f 552/552 553/553 554/554
f 555/555 556/556 557/557
f 558/558 559/559 560/560
f 561/561 562/562 563/563
f 562/562 561/561 564/564
f 564/564 561/561 565/565
f 566/566 567/567 568/568
f 569/569 570/570 571/571
f 570/570 569/569 572/572
f 573/573 574/574 575/575
f 576/576 577/577 578/578
f 579/579 577/577 580/580
f 581/581 582/582 583/583
f 581/581 583/583 584/584
f 544/544 546/546 585/585
f 586/586 544/544 587/587
f 588/588 589/589 590/590
f 591/591 592/592 593/593
f 594/594 595/595 596/596
f 597/597 598/598 599/599
f 600/600 595/595 594/594
f 601/601 602/602 603/603
f 602/602 601/601 604/604
f 605/605 606/606 607/607
f 608/608 609/609 610/610
f 575/575 574/574 611/611
f 576/576 580/580 577/577
f 576/576 578/578 612/612
f 587/587 544/544 585/585
f 585/585 546/546 613/613
f 614/614 615/615 616/616
f 617/617 618/618 619/619
f 614/614 616/616 620/620
f 591/591 593/593 621/621
f 622/622 595/595 623/623
f 624/624 625/625 600/600
f 600/600 625/625 595/595
f 608/608 610/610 626/626
f 575/575 611/611 627/627
f 628/628 629/629 630/630
f 631/631 629/629 628/628
f 632/632 633/633 634/634
f 635/635 636/636 637/637
f 638/638 639/639 640/640
f 595/595 641/641 623/623
f 624/624 642/642 625/625
f 643/643 632/632 644/644
f 632/632 643/643 645/645
f 632/632 645/645 646/646
f 647/647 608/608 626/626
f 631/631 628/628 648/648
f 649/649 650/650 651/651
f 652/652 653/653 654/654
f 653/653 652/652 655/655
f 656/656 657/657 658/658
f 657/657 656/656 659/659
f 660/660 661/661 662/662
f 663/663 664/664 665/665
f 664/664 663/663 666/666
f 667/667 668/668 669/669
f 670/670 671/671 672/672
f 671/671 670/670 673/673
f 674/674 675/675 676/676
f 675/675 674/674 677/677
f 678/678 679/679 680/680
f 679/679 678/678 681/681
f 682/682 683/683 684/684
f 683/683 682/682 685/685
f 686/686 687/687 688/688
f 687/687 686/686 689/689
f 690/690 691/691 692/692
f 691/691 690/690 693/693
f 694/694 695/695 696/696
f 697/697 698/698 699/699
f 698/698 697/697 700/700
f 701/701 702/702 703/703
f 702/702 701/701 704/704
f 705/705 706/706 707/707
f 708/708 709/709 710/710
f 709/709 708/708 711/711
f 709/709 711/711 712/712
f 712/712 711/711 713/713
f 710/710 714/714 715/715
f 714/714 710/710 709/709
f 715/715 714/714 713/713
f 715/715 713/713 711/711
f 716/716 717/717 718/718
f 719/719 720/720 721/721
f 722/722 723/723 724/724
f 723/723 722/722 725/725
f 726/726 727/727 728/728
f 727/727 726/726 729/729
f 730/730 731/731 732/732
f 731/731 730/730 733/733
f 734/734 735/735 736/736
f 735/735 734/734 737/737
f 738/738 739/739 740/740
f 739/739 738/738 741/741
f 742/742 743/743 744/744
f 743/743 742/742 745/745
f 746/746 747/747 748/748
f 749/749 750/750 751/751
f 752/752 753/753 754/754
f 753/753 752/752 755/755
f 756/756 757/757 758/758
f 757/757 756/756 759/759
f 760/760 761/761 762/762
f 761/761 760/760 763/763
f 764/764 765/765 766/766
f 765/765 764/764 767/767
f 768/768 769/769 770/770
f 769/769 768/768 771/771
f 769/769 771/771 772/772
f 772/772 771/771 773/773
f 772/772 773/773 774/774
f 774/774 773/773 775/775
f 774/774 775/775 776/776
f 776/776 775/775 777/777
f 776/776 777/777 778/778
f 778/778 777/777 779/779
f 780/780 781/781 782/782
f 783/783 784/784 785/785
f 786/786 787/787 788/788
f 787/787 786/786 789/789
f 790/790 791/791 792/792
f 791/791 790/790 793/793
f 794/794 795/795 796/796
f 795/795 794/794 797/797
f 798/798 799/799 800/800
f 801/801 802/802 803/803
f 804/804 805/805 806/806
f 807/807 808/808 809/809
f 810/810 811/811 812/812
f 811/811 810/810 813/813
f 814/814 815/815 816/816
f 815/815 814/814 817/817
f 818/818 819/819 820/820
f 819/819 818/818 821/821
f 822/822 823/823 824/824
f 825/825 826/826 827/827
f 828/828 829/829 830/830
f 829/829 828/828 831/831
f 829/829 831/831 832/832
f 832/832 831/831 833/833
f 832/832 833/833 834/834
f 834/834 833/833 835/835
f 834/834 835/835 836/836
f 836/836 835/835 837/837
f 836/836 837/837 838/838
f 838/838 837/837 839/839
f 840/840 841/841 842/842
f 843/843 844/844 845/845
f 846/846 847/847 848/848
f 849/849 850/850 851/851
f 852/852 853/853 854/854
f 855/855 856/856 857/857
f 858/858 859/859 860/860
f 859/859 858/858 861/861
f 861/861 858/858 862/862
f 863/863 864/864 865/865
f 864/864 863/863 866/866
f 867/867 868/868 869/869
f 868/868 867/867 870/870
f 871/871 872/872 873/873
f 874/874 875/875 876/876
f 875/875 874/874 877/877
f 877/877 874/874 878/878
f 879/879 880/880 881/881
f 880/880 879/879 882/882
f 880/880 882/882 883/883
f 884/884 885/885 886/886
f 885/885 884/884 887/887
f 887/887 884/884 888/888
f 889/889 890/890 891/891
f 892/892 893/893 894/894
f 895/895 896/896 897/897
f 898/898 899/899 900/900
f 899/899 898/898 901/901
f 902/902 903/903 904/904
f 905/905 906/906 907/907
f 906/906 905/905 908/908
f 909/909 910/910 911/911
f 910/910 909/909 912/912
f 913/913 914/914 915/915
f 914/914 913/913 916/916
f 917/917 918/918 919/919
f 920/920 917/917 921/921
f 922/922 923/923 924/924
f 925/925 926/926 927/927
f 928/928 929/929 930/930
f 931/931 932/932 933/933
f 934/934 935/935 936/936
f 937/937 938/938 939/939
f 938/938 937/937 940/940
f 940/940 937/937 941/941
f 919/919 918/918 942/942
f 943/943 944/944 945/945
f 944/944 943/943 946/946
f 947/947 948/948 949/949
f 950/950 951/951 952/952
f 953/953 954/954 955/955
f 954/954 953/953 956/956
f 956/956 953/953 957/957
f 957/957 953/953 958/958
f 958/958 953/953 959/959
f 921/921 917/917 919/919
f 960/960 961/961 962/962
f 963/963 964/964 965/965
f 966/966 967/967 968/968
f 969/969 970/970 971/971
f 972/972 973/973 974/974
f 975/975 976/976 977/977
f 975/975 978/978 976/976
f 941/941 979/979 940/940
f 940/940 980/980 981/981
f 982/982 983/983 984/984
f 985/985 986/986 987/987
f 988/988 989/989 990/990
f 989/989 988/988 991/991
f 992/992 993/993 994/994
f 995/995 996/996 997/997
f 997/997 998/998 999/999
f 1000/1000 1001/1001 1002/1002
f 1003/1003 1004/1004 1005/1005
f 1006/1006 1007/1007 1008/1008
f 1009/1009 1010/1010 1011/1011
f 1006/1006 1008/1008 1012/1012
f 1013/1013 1014/1014 1015/1015
f 1016/1016 1017/1017 1018/1018
f 941/941 1019/1019 979/979
f 1020/1020 1021/1021 1022/1022
f 1023/1023 1024/1024 1025/1025
f 1026/1026 1027/1027 1028/1028
f 995/995 1029/1029 1030/1030
f 1031/1031 993/993 992/992
f 997/997 996/996 998/998
f 995/995 1030/1030 996/996
f 1032/1032 1033/1033 1034/1034
f 1035/1035 1036/1036 1037/1037
f 1032/1032 1038/1038 1033/1033
f 1039/1039 1004/1004 1003/1003
f 1006/1006 1040/1040 1041/1041
f 1040/1040 1006/1006 1042/1042
f 1043/1043 1012/1012 1044/1044
f 1006/1006 1012/1012 1043/1043
f 1045/1045 1046/1046 1047/1047
f 1029/1029 1048/1048 1030/1030
f 1031/1031 1049/1049 993/993
f 1050/1050 1046/1046 1045/1045
f 1051/1051 1052/1052 1053/1053
f 1052/1052 1051/1051 1054/1054
f 1054/1054 1051/1051 1055/1055
f 1055/1055 1051/1051 1056/1056
f 1057/1057 1058/1058 1059/1059
f 1060/1060 1061/1061 1062/1062
f 1042/1042 1006/1006 1063/1063
f 1064/1064 1065/1065 1066/1066
f 1046/1046 1067/1067 1047/1047
f 1048/1048 1068/1068 1030/1030
f 1063/1063 1006/1006 1069/1069
f 1070/1070 1071/1071 1072/1072
f 1071/1071 1070/1070 1073/1073
f 1071/1071 1073/1073 1074/1074
f 1074/1074 1073/1073 1075/1075
f 1074/1074 1075/1075 1076/1076
f 1076/1076 1075/1075 1077/1077
f 1076/1076 1077/1077 1078/1078
f 1078/1078 1077/1077 1079/1079
f 1078/1078 1079/1079 1080/1080
f 1080/1080 1079/1079 1081/1081
f 1082/1082 1083/1083 1084/1084
f 1083/1083 1082/1082 1085/1085
f 1086/1086 1087/1087 1088/1088
f 1087/1087 1086/1086 1089/1089
f 1090/1090 1091/1091 1092/1092
f 1093/1093 1094/1094 1095/1095
f 1096/1096 1097/1097 1098/1098
f 1099/1099 1100/1100 1101/1101
f 1102/1102 1103/1103 1104/1104
f 1105/1105 1106/1106 1107/1107
f 1108/1108 1109/1109 1110/1110
f 1111/1111 1112/1112 1113/1113
f 1112/1112 1111/1111 1114/1114
f 1115/1115 1116/1116 1117/1117
f 1118/1118 1119/1119 1120/1120
f 1121/1121 1122/1122 1123/1123
f 1124/1124 1125/1125 1126/1126
f 1125/1125 1124/1124 1127/1127
f 1125/1125 1127/1127 1128/1128
f 1128/1128 1127/1127 1129/1129
f 1128/1128 1129/1129 1130/1130
f 1130/1130 1129/1129 1131/1131
f 1130/1130 1131/1131 1132/1132
f 1132/1132 1131/1131 1133/1133
f 1132/1132 1133/1133 1134/1134
f 1134/1134 1133/1133 1135/1135
f 1136/1136 1137/1137 1138/1138
f 1093/1093 1139/1139 1094/1094
f 1140/1140 1097/1097 1096/1096
f 1141/1141 1142/1142 1143/1143
f 1144/1144 1102/1102 1104/1104
f 1145/1145 1105/1105 1107/1107
f 1146/1146 1147/1147 1148/1148
f 1149/1149 1150/1150 1151/1151
f 1152/1152 1153/1153 1154/1154
f 1153/1153 1152/1152 1155/1155
f 1153/1153 1155/1155 1156/1156
f 1156/1156 1155/1155 1157/1157
f 1156/1156 1157/1157 1158/1158
f 1158/1158 1157/1157 1159/1159
f 1158/1158 1159/1159 1160/1160
f 1160/1160 1159/1159 1161/1161
f 1160/1160 1161/1161 1162/1162
f 1162/1162 1161/1161 1163/1163
f 1164/1164 1165/1165 1166/1166
f 1165/1165 1164/1164 1167/1167
f 1168/1168 1169/1169 1170/1170
f 1169/1169 1168/1168 1171/1171
f 1172/1172 1173/1173 1174/1174
f 1173/1173 1172/1172 1175/1175
f 1176/1176 1177/1177 1178/1178
f 1179/1179 1180/1180 1181/1181
f 1182/1182 1183/1183 1184/1184
f 1183/1183 1182/1182 1185/1185
f 1186/1186 1187/1187 1188/1188
f 1187/1187 1186/1186 1189/1189
f 1190/1190 1191/1191 1192/1192
f 1191/1191 1190/1190 1193/1193
f 1194/1194 1195/1195 1196/1196
f 1195/1195 1194/1194 1197/1197
f 1198/1198 1199/1199 1200/1200
f 1199/1199 1198/1198 1201/1201
f 1202/1202 1203/1203 1204/1204
f 1205/1205 1206/1206 1207/1207
f 1206/1206 1205/1205 1208/1208
f 1209/1209 1210/1210 1211/1211
f 1210/1210 1209/1209 1212/1212
f 1210/1210 1212/1212 1213/1213
f 1213/1213 1212/1212 1214/1214
f 1213/1213 1214/1214 1215/1215
f 1215/1215 1214/1214 1216/1216
f 1215/1215 1216/1216 1217/1217
f 1217/1217 1216/1216 1218/1218
f 1217/1217 1218/1218 1219/1219
f 1219/1219 1218/1218 1220/1220
f 1221/1221 1222/1222 1223/1223
f 1224/1224 1180/1180 1179/1179
f 1225/1225 1226/1226 1227/1227

