# https://github.com/mikedh/trimesh
v -0.92173039 -8.20913389 -1.45923581
v -0.92173049 -8.19921505 -1.20625393
v -0.92172510 -8.20912905 -1.22251069
v -0.92173664 -8.19921544 -1.47548888
v -0.92174139 -8.17807166 -1.19632416
v -0.92173424 -8.17807312 -1.48543097
v -0.92172911 -8.12239705 -1.19631915
v -0.92172482 -7.95114434 -1.48542798
v -0.92172690 -8.10452717 -1.15549900
v -0.92173509 -8.08228538 -1.14812857
v -0.92173549 -8.04692965 -1.14813027
v -0.92172853 -8.02464442 -1.15549407
v -0.92173389 -8.00681088 -1.19631505
v -0.92172425 -7.95114701 -1.19631177
v -0.92172492 -7.92995682 -1.20625436
v -0.92173237 -7.92995378 -1.47548019
v -0.92172287 -7.92003255 -1.22250585
v -0.92173638 -7.92003847 -1.45923562
v -0.92173674 -8.17806890 -1.19631664
v -0.98643486 -8.12240705 -1.19632154
v -0.98643995 -8.17807593 -1.19631076
v -0.92173318 -8.12240026 -1.19631973
v -0.92172385 -8.19920672 -1.20625271
v -0.98644788 -8.17807045 -1.19631550
v -0.98643348 -8.19921542 -1.20624737
v -0.92173688 -8.17807365 -1.19631437
v -0.92173074 -8.19920366 -1.20625470
v -0.98644083 -8.20913500 -1.22251243
v -0.92173669 -8.20913047 -1.22250493
v -0.98643218 -8.19921603 -1.20624797
v -0.92173225 -8.20912623 -1.22250948
v -0.98644129 -8.20913218 -1.45923405
v -0.92173023 -8.20913593 -1.45924470
v -0.98644428 -8.20913104 -1.22250309
v -0.92173169 -8.20913812 -1.45923476
v -0.98644374 -8.19921585 -1.47548628
v -0.92174106 -8.19921091 -1.47549167
v -0.98643750 -8.20913364 -1.45923777
v -0.92172784 -8.17807408 -1.48542317
v -0.98643473 -8.19920886 -1.47548383
v -0.98643445 -8.17806689 -1.48542921
v -0.92173736 -8.19921325 -1.47549252
v -0.92173734 -7.95114020 -1.48543211
v -0.98644261 -8.17807536 -1.48542835
v -0.98643638 -7.95113542 -1.48542962
v -0.92172628 -8.17806438 -1.48542439
v -0.92174158 -7.92995481 -1.47548746
v -0.98643609 -7.95113969 -1.48542784
v -0.98643655 -7.92996194 -1.47549752
v -0.92173145 -7.95114497 -1.48542470
v -0.98643928 -7.92003808 -1.45924238
v -0.92173325 -7.92996038 -1.47549566
v -0.98643664 -7.92996080 -1.47549431
v -0.92174172 -7.92003615 -1.45923990
v -0.98644037 -7.92003951 -1.22249930
v -0.92173118 -7.92003806 -1.45924524
v -0.98643059 -7.92003433 -1.45923378
v -0.92173074 -7.92003434 -1.22250579
v -0.98643524 -7.92996101 -1.20626217
v -0.92172634 -7.92004714 -1.22250853
v -0.98643891 -7.92004313 -1.22250471
v -0.92173186 -7.92996229 -1.20625322
v -0.92173310 -7.95113512 -1.19631699
v -0.98644012 -7.92996906 -1.20626142
v -0.98643311 -7.95114158 -1.19631984
v -0.92172358 -7.92996609 -1.20625818
v -0.92173308 -8.00680767 -1.19632155
v -0.98644074 -7.95114856 -1.19631529
v -0.98643437 -8.00681244 -1.19631784
v -0.92173676 -7.95114348 -1.19631238
v -0.98643738 -8.02463501 -1.15549920
v -0.92172835 -8.00681118 -1.19631603
v -0.98643802 -8.00681282 -1.19632246
v -0.92171719 -8.02464573 -1.15550472
v -0.92173387 -8.04692567 -1.14813180
v -0.98643188 -8.02464089 -1.15549635
v -0.98644011 -8.04693322 -1.14813270
v -0.92173757 -8.02463998 -1.15548852
v -0.92173660 -8.08228863 -1.14813750
v -0.98644232 -8.08229727 -1.14813469
v -0.92172513 -8.10452914 -1.15549183
v -0.98644018 -8.10451968 -1.15549477
v -0.92173267 -8.10451613 -1.15549712
v -0.98644347 -8.12240083 -1.19631874
v -0.92172617 -8.12240587 -1.19631496
v -0.98643416 -8.10453059 -1.15549493
v -0.98644172 -8.19920212 -1.20625871
v -0.98644002 -8.20913809 -1.45924024
v -0.98643801 -8.20912985 -1.22251027
v -0.98643882 -8.19921901 -1.47549278
v -0.98642562 -8.17806600 -1.19632208
v -0.98644399 -8.17807506 -1.48542965
v -0.98643783 -8.16602690 -1.23456051
v -0.98643160 -8.12239971 -1.19632025
v -0.98643898 -7.96319085 -1.23456791
v -0.98643747 -8.10453239 -1.15550016
v -0.98644086 -8.08228004 -1.14813481
v -0.98644443 -8.00680743 -1.19631518
v -0.98644229 -8.04692619 -1.14813087
v -0.98643664 -8.02465105 -1.15549192
v -0.98643259 -7.95113850 -1.19631606
v -0.98645492 -7.96318731 -1.38347177
v -0.98643865 -8.16602639 -1.38347141
v -0.98643614 -7.95114254 -1.48543163
v -0.98643247 -7.92996529 -1.20625093
v -0.98643719 -7.92996394 -1.47549029
v -0.98644212 -7.92003542 -1.22250590
v -0.98644049 -7.92004340 -1.45923721
v -0.97833799 -7.96318899 -1.23455285
v -0.97834397 -8.16602326 -1.38347297
v -0.97834097 -8.16603034 -1.23455184
v -0.97834332 -7.96318687 -1.38347319
v -0.97834085 -7.96319329 -1.23454939
v -0.98644564 -7.96319314 -1.38347060
v -0.97833572 -7.96318723 -1.38347277
v -0.98644439 -7.96318934 -1.23455482
v -0.97833470 -8.16602077 -1.38347853
v -0.98642889 -7.96319025 -1.38347561
v -0.98643137 -8.16602378 -1.38347331
v -0.97834130 -7.96318468 -1.38346720
v -0.98644416 -8.16601459 -1.23455048
v -0.97834399 -8.16602723 -1.38347601
v -0.98643743 -8.16602647 -1.38347509
v -0.97833864 -8.16602192 -1.23455650
v -0.97833899 -7.96318234 -1.23455964
v -0.98644070 -8.16601933 -1.23455150
v -0.98643697 -7.96318326 -1.23455961
v -0.97834893 -8.16602745 -1.23455418
vt 0.04759997 0.12714422
vt 0.41040719 0.14137501
vt 0.38710001 0.12714422
vt 0.02429501 0.14137501
vt 0.42465800 0.17170000
vt 0.01003910 0.17170000
vt 0.42465800 0.25155032
vt 0.01003910 0.49720001
vt 0.48320279 0.27718818
vt 0.49376670 0.30909443
vt 0.49376670 0.35980558
vt 0.48320279 0.39176828
vt 0.42465800 0.41734970
vt 0.42465800 0.49720001
vt 0.41040719 0.52758151
vt 0.02429501 0.52758151
vt 0.38710001 0.54181218
vt 0.04759997 0.54181218
vt 0.98159999 0.95969999
vt 0.84340000 0.87980002
vt 0.84340000 0.95969999
vt 0.98159999 0.87980002
vt 0.98159999 0.99000001
vt 0.84340000 0.95969999
vt 0.84340000 0.99000001
vt 0.98159999 0.95969999
vt 0.91350001 0.75129998
vt 0.89020002 0.61300004
vt 0.89020002 0.75129998
vt 0.91350001 0.61300004
vt 0.89020002 0.75129998
vt 0.55059999 0.61300004
vt 0.55059999 0.75129998
vt 0.89020002 0.61300004
vt 0.55059999 0.75129998
vt 0.52730000 0.61300004
vt 0.52730000 0.75129998
vt 0.55059999 0.61300004
vt 0.55769998 0.23180002
vt 0.52730000 0.37000000
vt 0.55769998 0.37000000
vt 0.52730000 0.23180002
vt 0.88309997 0.23180002
vt 0.55769998 0.37000000
vt 0.88309997 0.37000000
vt 0.55769998 0.23180002
vt 0.91350001 0.23180002
vt 0.88309997 0.37000000
vt 0.91350001 0.37000000
vt 0.88309997 0.23180002
vt 0.55059999 0.54180002
vt 0.52730000 0.40359998
vt 0.52730000 0.54180002
vt 0.55059999 0.40359998
vt 0.89020002 0.54180002
vt 0.55059999 0.40359998
vt 0.55059999 0.54180002
vt 0.89020002 0.40359998
vt 0.91350001 0.54180002
vt 0.89020002 0.40359998
vt 0.89020002 0.54180002
vt 0.91350001 0.40359998
vt 0.66549999 0.12680000
vt 0.52730000 0.09649998
vt 0.52730000 0.12680000
vt 0.66549999 0.09649998
vt 0.66549999 0.20660001
vt 0.52730000 0.12680000
vt 0.52730000 0.20660001
vt 0.66549999 0.12680000
vt 0.84340000 0.84630013
vt 0.98159999 0.78770000
vt 0.84340000 0.78770000
vt 0.98159999 0.84630013
vt 0.19939999 0.71070004
vt 0.16750000 0.84890002
vt 0.19939999 0.84890002
vt 0.16750000 0.71070004
vt 0.25009999 0.71070004
vt 0.25009999 0.84890002
vt 0.28209999 0.71070004
vt 0.28209999 0.84890002
vt 0.00999999 0.09359998
vt 0.14820001 0.03500003
vt 0.00999999 0.03500003
vt 0.14820001 0.09359998
vt 0.41040719 0.97562736
vt 0.04759997 0.98985416
vt 0.38710001 0.98985416
vt 0.02429501 0.97562736
vt 0.42465800 0.94531065
vt 0.01003910 0.94531065
vt 0.36982280 0.92803520
vt 0.42465800 0.86548233
vt 0.36982280 0.63717544
vt 0.48320279 0.83985138
vt 0.49376670 0.80795389
vt 0.42465800 0.69972837
vt 0.49376670 0.75725669
vt 0.48320279 0.72530282
vt 0.42465800 0.61989999
vt 0.15625860 0.63717544
vt 0.15625860 0.92803520
vt 0.01003910 0.61989999
vt 0.41040719 0.58952677
vt 0.02429501 0.58952677
vt 0.38710001 0.57529998
vt 0.04759997 0.57529998
vt 0.81819999 0.99000001
vt 0.52730000 0.77639997
vt 0.52730000 0.99000001
vt 0.81819999 0.77639997
vt 0.38699999 0.05110002
vt 0.17340000 0.03390002
vt 0.17340000 0.05110002
vt 0.38699999 0.03390002
vt 0.17340000 0.09359998
vt 0.46430001 0.07630002
vt 0.17340000 0.07630002
vt 0.46430001 0.09359998
vt 0.91270000 0.16420001
vt 0.69910002 0.14690000
vt 0.69910002 0.16420001
vt 0.91270000 0.14690000
vt 0.99000001 0.18940002
vt 0.69910002 0.20660001
vt 0.99000001 0.20660001
vt 0.69910002 0.18940002
f 1/1 2/2 3/3
f 2/2 1/1 4/4
f 2/2 4/4 5/5
f 5/5 4/4 6/6
f 5/5 6/6 7/7
f 7/7 6/6 8/8
f 7/7 8/8 9/9
f 9/9 8/8 10/10
f 10/10 8/8 11/11
f 11/11 8/8 12/12
f 12/12 8/8 13/13
f 13/13 8/8 14/14
f 14/14 8/8 15/15
f 15/15 8/8 16/16
f 15/15 16/16 17/17
f 17/17 16/16 18/18
f 19/19 20/20 21/21
f 20/20 19/19 22/22
f 23/23 24/24 25/25
f 24/24 23/23 26/26
f 27/27 28/28 29/29
f 28/28 27/27 30/30
f 31/31 32/32 33/33
f 32/32 31/31 34/34
f 35/35 36/36 37/37
f 36/36 35/35 38/38
f 39/39 40/40 41/41
f 40/40 39/39 42/42
f 43/43 44/44 45/45
f 44/44 43/43 46/46
f 47/47 48/48 49/49
f 48/48 47/47 50/50
f 51/51 52/52 53/53
f 52/52 51/51 54/54
f 55/55 56/56 57/57
f 56/56 55/55 58/58
f 59/59 60/60 61/61
f 60/60 59/59 62/62
f 63/63 64/64 65/65
f 64/64 63/63 66/66
f 67/67 68/68 69/69
f 68/68 67/67 70/70
f 71/71 72/72 73/73
f 72/72 71/71 74/74
f 75/75 76/76 77/77
f 76/76 75/75 78/78
f 79/79 77/77 80/80
f 77/77 79/79 75/75
f 81/81 80/80 82/82
f 80/80 81/81 79/79
f 83/83 84/84 85/85
f 84/84 83/83 86/86
f 87/87 88/88 89/89
f 88/88 87/87 90/90
f 90/90 87/87 91/91
f 90/90 91/91 92/92
f 92/92 91/91 93/93
f 93/93 91/91 94/94
f 93/93 94/94 95/95
f 95/95 94/94 96/96
f 95/95 96/96 97/97
f 95/95 97/97 98/98
f 98/98 97/97 99/99
f 98/98 99/99 100/100
f 95/95 98/98 101/101
f 95/95 101/101 102/102
f 92/92 103/103 104/104
f 103/103 92/92 93/93
f 104/104 103/103 102/102
f 104/104 102/102 101/101
f 104/104 101/101 105/105
f 104/104 105/105 106/106
f 106/106 105/105 107/107
f 106/106 107/107 108/108
f 109/109 110/110 111/111
f 110/110 109/109 112/112
f 113/113 114/114 115/115
f 114/114 113/113 116/116
f 117/117 118/118 119/119
f 118/118 117/117 120/120
f 121/121 122/122 123/123
f 122/122 121/121 124/124
f 125/125 126/126 127/127
f 126/126 125/125 128/128

