# https://github.com/mikedh/trimesh
v 2.10555669 2.61789371 -1.21222811
v 2.10555547 2.55695694 -1.21916562
v 2.10562583 2.55704394 -1.21230697
v 2.10547507 2.61786489 -1.21918442
v 2.11511505 2.67880262 -1.21233863
v 2.11520850 2.67878353 -1.21920540
v 2.11527562 2.67887663 -1.21919438
v 2.10562949 2.55694934 -1.21916622
v 2.10560233 2.61790697 -1.21923046
v 2.11519738 2.49604858 -1.21917392
v 2.12119320 2.72320016 -1.21919618
v 2.12128417 2.45168999 -1.21916599
v 2.26775705 2.73788287 -1.21914084
v 2.26788304 2.43692655 -1.21909801
v 2.11533043 2.49612128 -1.21917132
v 2.11523305 2.49616099 -1.21215067
v 2.11535717 2.49615260 -1.21224471
v 2.10547842 2.61790120 -1.21222716
v 2.10547372 2.55701156 -1.21224046
v 2.11529230 2.67874598 -1.21230435
v 2.12122683 2.45160876 -1.21216363
v 2.12122334 2.72323173 -1.21228070
v 2.26788832 2.43707790 -1.21222852
v 2.26766612 2.73789353 -1.21222542
v 2.12131135 2.72317618 -1.21215863
v 2.12117497 2.72317362 -1.21913198
v 2.12125532 2.72332992 -1.21225447
v 2.26775826 2.73786832 -1.21925086
v 2.12117747 2.72324942 -1.21915274
v 2.26787137 2.73784620 -1.21216642
v 2.26777855 2.43709280 -1.21921223
v 2.26775226 2.73790513 -1.21220501
v 2.26780486 2.43696607 -1.21234438
v 2.26771318 2.73791997 -1.21912877
v 2.26778577 2.43693739 -1.21221446
v 2.12117732 2.45163556 -1.21915040
v 2.26766339 2.43702310 -1.21922097
v 2.12125885 2.45167296 -1.21225382
v 2.12129317 2.45163290 -1.21910347
v 2.12129504 2.45172690 -1.21219734
v 2.18294904 3.29072290 -1.25565915
v 2.18834158 3.29518556 -1.27076687
v 2.17830275 3.29520865 -1.27075508
v 2.18384827 3.29061217 -1.25564784
v 2.18844634 3.29527108 -1.27072254
v 2.18296396 3.29075565 -1.25559610
v 2.10541053 3.32067848 -1.21224553
v 2.10557418 3.25971523 -1.21916431
v 2.10556806 3.25967239 -1.21237703
v 2.10554293 3.32055923 -1.21912339
v 2.11523452 3.38152528 -1.21231530
v 2.11522150 3.38151971 -1.21927392
v 2.11526911 3.38151416 -1.21925633
v 2.10540860 3.25972355 -1.21920422
v 2.10551822 3.32059253 -1.21908018
v 2.11524854 3.19878453 -1.21927402
v 2.12134910 3.42597119 -1.21912416
v 2.12125524 3.15443626 -1.21916500
v 2.26783139 3.44058555 -1.21927324
v 2.26785578 3.13959197 -1.21920084
v 2.11523946 3.19871826 -1.21915079
v 2.11523971 3.19875382 -1.21223503
v 2.11522350 3.19886095 -1.21224491
v 2.10552149 3.32049231 -1.21234218
v 2.10561308 3.25969048 -1.21228207
v 2.11534788 3.38144513 -1.21229982
v 2.12122471 3.15441688 -1.21230446
v 2.12121645 3.42582318 -1.21222266
v 2.26784271 3.13967755 -1.21225595
v 2.26771957 3.44056680 -1.21218460
v 2.12126041 3.42605292 -1.21231164
v 2.12128649 3.42590589 -1.21915357
v 2.12125202 3.42588443 -1.21231636
v 2.26797531 3.44058994 -1.21930509
v 2.12121439 3.42595714 -1.21921610
v 2.26787523 3.44065330 -1.21227439
v 2.26776770 3.13964655 -1.21922783
v 2.26770898 3.44066515 -1.21217212
v 2.26772171 3.13963617 -1.21236930
v 2.26773886 3.44041222 -1.21925379
v 2.26787151 3.13968522 -1.21221539
v 2.12122375 3.15448578 -1.21917507
v 2.26777300 3.13985527 -1.21920580
v 2.12118079 3.15439432 -1.21226781
v 2.12131501 3.15432840 -1.21913955
v 2.12130248 3.15434330 -1.21225595
v 2.85092538 0.10303559 -1.27076365
v 2.85094754 0.09279612 -1.27074264
v 2.85549526 0.09742328 -1.25569986
v 2.85096322 0.10281484 -1.27077088
v 2.85565730 0.09843931 -1.25570989
v 0.09492397 -1.42047075 -1.21226757
v 0.15591756 -1.42045627 -1.21926301
v 0.09508590 -1.42038610 -1.21920950
v 0.15590258 -1.42044458 -1.21243856
v 0.21683540 -1.43018031 -1.21924636
v -0.01034763 -1.43607459 -1.21925621
v 0.27581672 -1.58262405 -1.21914326
v -0.02504406 -1.58262859 -1.21920464
v 0.03410703 -1.43019148 -1.21913866
v 0.09507304 -1.42037522 -1.21915477
v 0.15569419 -1.42039731 -1.21918902
v 0.21681999 -1.43015449 -1.21918428
v 0.26125221 -1.43613303 -1.21921471
v 0.03416151 -1.43018235 -1.21220585
v 0.03409973 -1.43016468 -1.21920454
v 0.27584690 -1.58262198 -1.21224588
v -0.01034273 -1.43618223 -1.21224859
v -0.02493162 -1.58266827 -1.21224175
v 0.03406729 -1.43011353 -1.21228338
v 0.09501969 -1.42050210 -1.21222850
v 0.15590204 -1.42039247 -1.21228626
v 0.21684741 -1.43017646 -1.21219652
v 0.26112807 -1.43617853 -1.21225247
v 0.15600136 -1.42039719 -1.21228084
v 0.21674500 -1.43012475 -1.21226746
v 0.21692781 -1.43008099 -1.21927724
v 0.26134695 -1.43614073 -1.21923913
v 0.27598741 -1.58266451 -1.21920908
v 0.26124086 -1.43606798 -1.21220801
v 0.27582019 -1.58254433 -1.21221074
v 0.26120578 -1.43616559 -1.21924438
v 0.27590812 -1.58269961 -1.21231117
v -0.02494019 -1.58264020 -1.21921068
v 0.27594396 -1.58258136 -1.21925175
v -0.02502319 -1.58260628 -1.21222411
v -0.01029676 -1.43604935 -1.21233014
v -0.02507458 -1.58271243 -1.21918034
v -0.02503450 -1.58269018 -1.21232350
v -0.01034646 -1.43617651 -1.21916597
v -0.01026342 -1.43614574 -1.21227845
v -0.01034415 -1.43608638 -1.21918230
v 0.21692215 -1.43017780 -1.21224502
v 0.26125408 -1.43613870 -1.21223205
v 0.26114362 -1.43599324 -1.21926627
v 2.18295680 2.58790266 -1.25559614
v 2.18840272 2.59249373 -1.27071882
v 2.17845081 2.59246557 -1.27089605
v 2.18386410 2.58797922 -1.25568951
v 2.18847046 2.59254401 -1.27073062
v 2.18281543 2.58804966 -1.25560012
v 0.13047805 -1.49312779 -1.27074303
v 0.12591717 -1.49777678 -1.25560111
v 0.13044060 -1.50317302 -1.27077516
v 0.12603989 -1.49773569 -1.25567339
v 0.12604729 -1.49885951 -1.25558469
v 0.13049187 -1.50331933 -1.27067860
v 2.88653436 0.02006523 -1.21214875
v 2.82562249 0.02009537 -1.21921890
v 2.88647842 0.02005310 -1.21918826
v 2.82557678 0.02004507 -1.21221653
v 2.76464003 0.02970421 -1.21923582
v 2.76459367 0.02979352 -1.21227102
v 3.00650858 0.18219195 -1.21930094
v 2.72018991 0.03579199 -1.21912455
v 2.70559321 0.18222489 -1.21919490
v 2.76462853 0.02970449 -1.21933426
v 2.82550874 0.02000891 -1.21909825
v 2.88648160 0.02010226 -1.21921032
v 2.94737531 0.02949594 -1.21916004
v 2.99181677 0.03582820 -1.21921578
v 2.94739566 0.02968334 -1.21925624
v 2.94734830 0.02970449 -1.21218653
v 2.72025159 0.03567833 -1.21225774
v 3.00647517 0.18222839 -1.21219899
v 2.70546293 0.18225943 -1.21222704
v 2.76456747 0.02974593 -1.21219020
v 2.82558570 0.01992090 -1.21230879
v 2.88654447 0.02003757 -1.21226664
v 2.94741602 0.02976704 -1.21230763
v 2.99176763 0.03573310 -1.21229798
v 2.72024363 0.03580087 -1.21924401
v 2.72036451 0.03583498 -1.21236660
v 2.70556546 0.18229206 -1.21231071
v 2.72020798 0.03571079 -1.21914385
v 2.72022146 0.03583190 -1.21224905
v 2.70556771 0.18235699 -1.21915048
v 2.70559540 0.18225253 -1.21908079
v 3.00651004 0.18225613 -1.21235860
v 3.00648428 0.18220096 -1.21928790
v 2.70555735 0.18228847 -1.21219082
v 2.99180124 0.03577201 -1.21925915
v 3.00646108 0.18227535 -1.21221547
v 2.99179148 0.03577189 -1.21229565
v 3.00648340 0.18229241 -1.21926055
v 2.99179497 0.03570592 -1.21929894
v 2.99184090 0.03570348 -1.21231608
vt 0.37509999 1.14999998
vt 0.24130000 1.09150004
vt 0.24130000 1.14999998
vt 0.37509999 1.09150004
vt 0.50889999 1.14999998
vt 0.50889999 1.09150004
vt 0.54090959 1.58940005
vt 0.27343649 1.61071253
vt 0.40717301 1.61071253
vt 0.13969991 1.58940005
vt 0.63838547 1.57622349
vt 0.04222400 1.57622349
vt 0.67060947 1.25440001
vt 0.00999999 1.25440001
vt 0.10750000 1.09150004
vt 0.10750000 1.14999998
vt 0.13952750 1.65492034
vt 0.40720361 1.63360262
vt 0.27336389 1.63360262
vt 0.54104680 1.65492034
vt 0.04197847 1.66810000
vt 0.63859999 1.66810000
vt 0.00978072 1.99000001
vt 0.67089999 1.99000001
vt 0.60640001 1.14999998
vt 0.60640001 1.09150004
vt 0.00999999 1.06860006
vt 0.33190000 1.00999999
vt 0.00999999 1.00999999
vt 0.33190000 1.06860006
vt 0.67089999 1.17289996
vt 0.00978072 1.23150003
vt 0.67089999 1.23150003
vt 0.00978072 1.17289996
vt 0.62930000 1.14999998
vt 0.95109999 1.09150004
vt 0.62930000 1.09150004
vt 0.95109999 1.14999998
vt 0.00999999 1.09150004
vt 0.00999999 1.14999998
vt 1.00000000 0.00000000
vt 0.00000000 1.00000000
vt 1.00000000 1.00000000
vt 0.00000000 0.00000000
vt 0.00000000 1.00000000
vt 1.00000000 0.00000000
vt 0.37509999 1.14999998
vt 0.24130000 1.09150004
vt 0.24130000 1.14999998
vt 0.37509999 1.09150004
vt 0.50889999 1.14999998
vt 0.50889999 1.09150004
vt 0.54090959 1.58940005
vt 0.27343649 1.61071253
vt 0.40717301 1.61071253
vt 0.13969991 1.58940005
vt 0.63838547 1.57622349
vt 0.04222400 1.57622349
vt 0.67060947 1.25440001
vt 0.00999999 1.25440001
vt 0.10750000 1.09150004
vt 0.10750000 1.14999998
vt 0.13952750 1.65492034
vt 0.40720361 1.63360262
vt 0.27336389 1.63360262
vt 0.54104680 1.65492034
vt 0.04197847 1.66810000
vt 0.63859999 1.66810000
vt 0.00978072 1.99000001
vt 0.67089999 1.99000001
vt 0.60640001 1.14999998
vt 0.60640001 1.09150004
vt 0.00999999 1.06860006
vt 0.33190000 1.00999999
vt 0.00999999 1.00999999
vt 0.33190000 1.06860006
vt 0.67089999 1.17289996
vt 0.00978072 1.23150003
vt 0.67089999 1.23150003
vt 0.00978072 1.17289996
vt 0.62930000 1.14999998
vt 0.95109999 1.09150004
vt 0.62930000 1.09150004
vt 0.95109999 1.14999998
vt 0.00999999 1.09150004
vt 0.00999999 1.14999998
vt -0.00000000 1.00000000
vt 1.00000000 1.00000000
vt 1.00000000 0.00000000
vt -0.00000000 1.00000000
vt -0.00000000 0.00000000
vt 0.24130000 1.14999998
vt 0.37509999 1.09150004
vt 0.24130000 1.09150004
vt 0.37509999 1.14999998
vt 0.50889999 1.09150004
vt 0.04222400 1.57622349
vt 0.67060947 1.25440001
vt 0.00999999 1.25440001
vt 0.13969991 1.58940005
vt 0.27343649 1.61071253
vt 0.40717301 1.61071253
vt 0.54090959 1.58940005
vt 0.63838547 1.57622349
vt 0.10750000 1.14999998
vt 0.10750000 1.09150004
vt 0.67089999 1.99000001
vt 0.04197847 1.66810000
vt 0.00978072 1.99000001
vt 0.13952750 1.65492034
vt 0.27336389 1.63360262
vt 0.40720361 1.63360262
vt 0.54104680 1.65491152
vt 0.63859999 1.66810000
vt 0.37509999 1.14999998
vt 0.50889999 1.14999998
vt 0.50889999 1.09150004
vt 0.60640001 1.09150004
vt 0.33190000 1.00999999
vt 0.00999999 1.06860006
vt 0.33190000 1.06860006
vt 0.00999999 1.00999999
vt 0.00978072 1.23150003
vt 0.67089999 1.17289996
vt 0.00978072 1.17289996
vt 0.67089999 1.23150003
vt 0.95109999 1.14999998
vt 0.62930000 1.09150004
vt 0.62930000 1.14999998
vt 0.95109999 1.09150004
vt 0.00999999 1.14999998
vt 0.00999999 1.09150004
vt 0.50889999 1.14999998
vt 0.60640001 1.14999998
vt 0.60640001 1.09150004
vt 1.00000000 0.00000000
vt -0.00000000 1.00000000
vt 1.00000000 1.00000000
vt 0.00000000 0.00000000
vt -0.00000000 1.00000000
vt 1.00000000 0.00000000
vt 1.00000000 1.00000000
vt 1.00000000 0.00000000
vt 0.00000000 1.00000000
vt 1.00000000 0.00000000
vt 0.00000000 0.00000000
vt 0.00000000 1.00000000
vt 0.24130000 1.14999998
vt 0.37509999 1.09150004
vt 0.24130000 1.09150004
vt 0.37509999 1.14999998
vt 0.50889999 1.09150004
vt 0.50889999 1.14999998
vt 0.00999999 1.25440001
vt 0.63837838 1.57622349
vt 0.67060721 1.25439143
vt 0.54090691 1.58940005
vt 0.40717170 1.61071253
vt 0.27343559 1.61071253
vt 0.13969991 1.58940005
vt 0.04222640 1.57622349
vt 0.10750000 1.09150004
vt 0.10750000 1.14999998
vt 0.63859999 1.66810000
vt 0.00978521 1.99003541
vt 0.67089999 1.99000001
vt 0.54105169 1.65492702
vt 0.40721071 1.63361883
vt 0.27337191 1.63362765
vt 0.13953650 1.65495372
vt 0.04199002 1.66813982
vt 0.60640001 1.09150004
vt 0.60640001 1.14999998
vt 0.33190000 1.06860006
vt 0.00999999 1.00999999
vt 0.00999999 1.06860006
vt 0.33190000 1.00999999
vt 0.00979894 1.17210221
vt 0.67091602 1.23070216
vt 0.67091602 1.17210221
vt 0.00979894 1.23070216
vt 0.95109999 1.09150004
vt 0.62930000 1.14999998
vt 0.95109999 1.14999998
vt 0.62930000 1.09150004
vt 0.00999999 1.09150004
vt 0.00999999 1.14999998
f 1/1 2/2 3/3
f 2/2 1/1 4/4
f 5/5 4/4 1/1
f 4/4 5/5 6/6
f 7/7 8/8 9/9
f 8/8 7/7 10/10
f 10/10 7/7 11/11
f 10/10 11/11 12/12
f 12/12 11/11 13/13
f 12/12 13/13 14/14
f 3/3 15/15 16/16
f 15/15 3/3 2/2
f 17/17 18/18 19/19
f 18/18 17/17 20/20
f 20/20 17/17 21/21
f 20/20 21/21 22/22
f 22/22 21/21 23/23
f 22/22 23/23 24/24
f 25/25 6/6 5/5
f 6/6 25/25 26/26
f 27/27 28/28 29/29
f 28/28 27/27 30/30
f 31/31 32/32 33/33
f 32/32 31/31 34/34
f 35/35 36/36 37/37
f 36/36 35/35 38/38
f 16/16 39/39 40/40
f 39/39 16/16 15/15
f 41/41 42/42 43/43
f 44/44 45/45 46/46
f 47/47 48/48 49/49
f 48/48 47/47 50/50
f 51/51 50/50 47/47
f 50/50 51/51 52/52
f 53/53 54/54 55/55
f 54/54 53/53 56/56
f 56/56 53/53 57/57
f 56/56 57/57 58/58
f 58/58 57/57 59/59
f 58/58 59/59 60/60
f 49/49 61/61 62/62
f 61/61 49/49 48/48
f 63/63 64/64 65/65
f 64/64 63/63 66/66
f 66/66 63/63 67/67
f 66/66 67/67 68/68
f 68/68 67/67 69/69
f 68/68 69/69 70/70
f 71/71 52/52 51/51
f 52/52 71/71 72/72
f 73/73 74/74 75/75
f 74/74 73/73 76/76
f 77/77 78/78 79/79
f 78/78 77/77 80/80
f 81/81 82/82 83/83
f 82/82 81/81 84/84
f 62/62 85/85 86/86
f 85/85 62/62 61/61
f 87/87 88/88 89/89
f 90/90 89/89 91/91
f 92/92 93/93 94/94
f 93/93 92/92 95/95
f 95/95 96/96 93/93
f 97/97 98/98 99/99
f 98/98 97/97 100/100
f 98/98 100/100 101/101
f 98/98 101/101 102/102
f 98/98 102/102 103/103
f 98/98 103/103 104/104
f 105/105 94/94 106/106
f 94/94 105/105 92/92
f 107/107 108/108 109/109
f 108/108 107/107 110/110
f 110/110 107/107 111/111
f 111/111 107/107 112/112
f 112/112 107/107 113/113
f 113/113 107/107 114/114
f 115/115 116/116 117/117
f 116/116 118/118 117/117
f 119/119 120/120 121/121
f 120/120 119/119 122/122
f 123/123 124/124 125/125
f 124/124 123/123 126/126
f 127/127 128/128 129/129
f 128/128 127/127 130/130
f 131/131 106/106 132/132
f 106/106 131/131 105/105
f 133/133 134/134 135/135
f 136/136 137/137 138/138
f 139/139 140/140 141/141
f 142/142 143/143 144/144
f 145/145 146/146 147/147
f 148/148 149/149 150/150
f 149/149 148/148 151/151
f 151/151 152/152 149/149
f 152/152 151/151 153/153
f 154/154 155/155 156/156
f 155/155 154/154 157/157
f 157/157 154/154 158/158
f 158/158 154/154 159/159
f 159/159 154/154 160/160
f 160/160 154/154 161/161
f 162/162 148/148 150/150
f 148/148 162/162 163/163
f 164/164 165/165 166/166
f 165/165 164/164 167/167
f 165/165 167/167 168/168
f 165/165 168/168 169/169
f 165/165 169/169 170/170
f 165/165 170/170 171/171
f 153/153 172/172 152/152
f 172/172 153/153 173/173
f 174/174 175/175 176/176
f 175/175 174/174 177/177
f 178/178 179/179 180/180
f 179/179 178/178 181/181
f 182/182 183/183 184/184
f 183/183 182/182 185/185
f 186/186 163/163 162/162
f 163/163 186/186 187/187

