# https://github.com/mikedh/trimesh
v -1.12933862 -1.50832171 -1.06485826
v -1.13938007 -1.86976198 -1.06489020
v -1.13924271 -1.50819809 -1.06501224
v -1.12949798 -1.86977202 -1.06492689
v -1.13965843 -1.50833164 -0.56314105
v -1.12943691 -1.50836893 -1.06496785
v -1.13934494 -1.50818716 -1.06494635
v -1.12919650 -1.50838278 -0.56295807
v -1.12924953 -1.86968985 -1.06501679
v -1.12945861 -1.50835901 -0.56297311
v -1.12946868 -1.86972458 -0.56301657
v -1.12929107 -1.50828199 -1.06489091
v -1.12942792 -1.86971547 -0.56290853
v -1.13922102 -1.86984485 -1.06475820
v -1.12919886 -1.86961112 -1.06490133
v -1.13942805 -1.86953360 -0.56277378
v -1.14170524 -1.86452983 -1.05987115
v -1.13953050 -1.50830709 -1.06485642
v -1.13953967 -1.86965536 -1.06488238
v -1.14183189 -1.51346221 -1.05998774
v -1.13944208 -1.50844058 -0.56279909
v -1.14196843 -1.51328888 -1.05994156
v -1.14173023 -1.51317532 -0.56794180
v -1.13964450 -1.50830062 -1.06485330
v -1.12923802 -1.86977140 -0.56278962
v -1.13954335 -1.50838236 -0.56289122
v -1.13938647 -1.86947125 -0.56297674
v -1.12942556 -1.50834983 -0.56312333
v -1.14205798 -1.86460827 -0.56794778
v -1.13924380 -1.86978706 -1.06473813
v -1.13942501 -1.86952027 -0.56304791
v -1.14199587 -1.86465187 -1.05979394
v -1.14189318 -1.86474755 -0.56816799
v -1.14207217 -1.85960398 -0.57292097
v -1.14193044 -1.86480355 -1.05981208
v -1.14205829 -1.51842824 -0.57296321
v -1.14216938 -1.51328231 -0.56808098
v -1.14189910 -1.51835523 -1.05486910
v -1.14183210 -1.85974843 -1.05472955
v -1.14182845 -1.51322992 -1.05977850
v -1.13930187 -1.50820989 -0.56298967
v -1.14207506 -1.86469595 -0.56810250
v -1.13955507 -1.86967102 -0.56306346
v -1.14202959 -1.51344605 -0.56798361
v -1.14187053 -1.85951007 -0.57303594
v -1.13675321 -1.85950093 -1.05476058
v -1.14218257 -1.85952081 -1.05485343
v -1.13682402 -1.85961904 -0.57299050
v -1.13683597 -1.85970267 -1.05511017
v -1.14192410 -1.51843863 -1.05476852
v -1.14194470 -1.85965200 -1.05498965
v -1.13693105 -1.51834788 -1.05506241
v -1.13683811 -1.51835871 -0.57317017
v -1.14218634 -1.51828779 -1.05492634
v -1.13693327 -1.51837361 -1.05468417
v -1.14191733 -1.51833664 -0.57320469
v -1.13668385 -1.51824146 -0.57291212
v -1.14190616 -1.85955656 -0.57299185
v -1.14184138 -1.51836399 -0.57320318
v -1.13675470 -1.85988321 -0.57306183
v -3.11701317 2.44680605 -1.06486070
v -3.12705176 2.08548142 -1.06487154
v -3.12708340 2.44708462 -1.06489068
v -3.11704408 2.08530875 -1.06508089
v -3.11686525 2.08552567 -0.56303077
v -3.12684057 2.08538453 -1.06499818
v -3.11704388 2.08559863 -1.06500710
v -3.12709908 2.08534759 -0.56291479
v -3.12693646 2.44687094 -0.56297962
v -3.12717688 2.08547742 -1.06477324
v -3.12701326 2.08579612 -0.56308851
v -3.12696234 2.44690311 -1.06486612
v -3.12702963 2.44686122 -0.56309772
v -3.11663853 2.44691665 -1.06516195
v -3.12710311 2.44700318 -1.06498821
v -3.11683391 2.44704033 -0.56301578
v -3.11704384 2.44681041 -1.06501112
v -3.11467803 2.09068942 -1.05972911
v -3.11713364 2.08539610 -1.06513367
v -3.11461969 2.44154953 -1.06004218
v -3.11684118 2.08549187 -1.06483319
v -3.11456529 2.09075314 -0.56799047
v -3.11703350 2.08582385 -0.56303550
v -3.11464917 2.09057458 -1.05991578
v -3.11686760 2.08542589 -0.56290615
v -3.12693113 2.44684902 -0.56297963
v -3.12712397 2.08580018 -0.56307899
v -3.11704165 2.44680341 -0.56303798
v -3.11450995 2.44199332 -1.05998126
v -3.11701103 2.44676325 -0.56309311
v -3.11419360 2.44202464 -0.56810280
v -3.11714295 2.44681375 -1.06493342
v -3.11450530 2.09046619 -0.56816067
v -3.11434634 2.09562318 -0.57307618
v -3.11453455 2.44184471 -0.56834961
v -3.11449603 2.09042882 -1.06002619
v -3.11458262 2.43697033 -0.57316736
v -3.11467358 2.43695974 -1.05480523
v -3.11461912 2.09563587 -1.05492505
v -3.11447476 2.44176092 -1.05981592
v -3.11437144 2.09062443 -0.56794933
v -3.11742187 2.44695536 -0.56300125
v -3.11700659 2.08545923 -0.56299199
v -3.11446207 2.44187515 -0.56806636
v -3.11436841 2.43675982 -0.57291527
v -3.11948902 2.43679431 -1.05492486
v -3.11461466 2.43696377 -1.05485179
v -3.11957306 2.43676018 -0.57299871
v -3.11439961 2.09555840 -1.05484372
v -3.11955235 2.43689418 -1.05492501
v -3.11947559 2.09539850 -1.05481785
v -3.11453562 2.43692752 -1.05493063
v -3.11947258 2.09544858 -0.57289706
v -3.11470442 2.09545240 -1.05486465
v -3.11934171 2.09560330 -1.05492004
v -3.11467252 2.09554953 -0.57303555
v -3.11431562 2.43695771 -0.57320844
v -3.11927711 2.09552619 -0.57313402
v -3.11934033 2.43688074 -0.57307536
v -3.11448422 2.09566822 -0.57291949
v -0.40672736 -2.27101863 -1.06482331
v -0.41665232 -2.63273141 -1.06504285
v -0.41659475 -2.27132179 -1.06501939
v -0.40647689 -2.63259587 -1.06497705
v -0.41652478 -2.27109092 -0.56312371
v -0.40663893 -2.27113958 -1.06484942
v -0.41658292 -2.27111440 -1.06505643
v -0.40673926 -2.27134682 -0.56298430
v -0.40666102 -2.63269345 -1.06504354
v -0.40664090 -2.27136266 -0.56295624
v -0.40647877 -2.63269267 -0.56302208
v -0.40663638 -2.27118670 -1.06492157
v -0.40638721 -2.63276312 -0.56295681
v -0.41655803 -2.63267892 -1.06486501
v -0.40673461 -2.63239492 -1.06508558
v -0.41650352 -2.63276606 -0.56286650
v -0.41916273 -2.62759935 -1.05990606
v -0.41648280 -2.27128439 -1.06527167
v -0.41669595 -2.63261659 -1.06498231
v -0.41903047 -2.27615139 -1.05992902
v -0.41677953 -2.27108900 -0.56287427
v -0.41915293 -2.27602619 -1.05995205
v -0.41924891 -2.27628556 -0.56789089
v -0.41671627 -2.27102404 -1.06503447
v -0.40646049 -2.63257527 -0.56301598
v -0.41648511 -2.27141936 -0.56284282
v -0.41661618 -2.63269977 -0.56291251
v -0.40644841 -2.27115938 -0.56276929
v -0.41899485 -2.62747047 -0.56807620
v -0.41659668 -2.63257314 -1.06493388
v -0.41657433 -2.63258882 -0.56290162
v -0.41913029 -2.62765756 -1.06000705
v -0.41922080 -2.62748319 -0.56802404
v -0.41902851 -2.62274719 -0.57325636
v -0.41923883 -2.62748614 -1.05978982
v -0.41908062 -2.28137943 -0.57304933
v -0.41915276 -2.27630722 -0.56830143
v -0.41921693 -2.28130931 -1.05471862
v -0.41910024 -2.62243810 -1.05493758
v -0.41914760 -2.27671438 -1.05985902
v -0.41654622 -2.27104552 -0.56305409
v -0.41910787 -2.62769831 -0.56814910
v -0.41669057 -2.63267715 -0.56284307
v -0.41911840 -2.27635826 -0.56799810
v -0.41909373 -2.62267604 -0.57290338
v -0.41431543 -2.62262303 -1.05481630
v -0.41927197 -2.62255719 -1.05474438
v -0.41404715 -2.62279218 -0.57311776
v -0.41395796 -2.62256440 -1.05489361
v -0.41906811 -2.28120494 -1.05497349
v -0.41915192 -2.62258220 -1.05495479
v -0.41411441 -2.28113886 -1.05500320
v -0.41387842 -2.28107226 -0.57323062
v -0.41913481 -2.28124828 -1.05497949
v -0.41418401 -2.28131473 -1.05480766
v -0.41917723 -2.28107829 -0.57300113
v -0.41411087 -2.28112152 -0.57296260
v -0.41907635 -2.62263650 -0.57282655
v -0.41902566 -2.28131084 -0.57321501
v -0.41405640 -2.62272959 -0.57323091
v -3.11702172 4.64542256 -1.06478372
v -3.12699645 4.28409288 -1.06507106
v -3.12703139 4.64540455 -1.06483186
v -3.11697645 4.28409266 -1.06498839
v -3.11694874 4.28404807 -0.56314043
v -3.12700870 4.28396385 -1.06514875
v -3.11687996 4.28395910 -1.06502827
v -3.12707203 4.28401638 -0.56282453
v -3.12704782 4.64544443 -0.56283992
v -3.12696769 4.28412295 -1.06498521
v -3.12694048 4.28399391 -0.56287419
v -3.12714377 4.64530102 -1.06478529
v -3.12705127 4.64534920 -0.56298838
v -3.11706873 4.64554290 -1.06507372
v -3.12704606 4.64543006 -1.06494259
v -3.11708165 4.64529084 -0.56294854
v -3.11710779 4.64546435 -1.06510522
v -3.11457285 4.28902454 -1.06005446
v -3.11691506 4.28399843 -1.06504931
v -3.11468327 4.64019114 -1.05990510
v -3.11712226 4.28384420 -1.06495712
v -3.11424839 4.28905218 -0.56792589
v -3.11696538 4.28409024 -0.56315112
v -3.11455859 4.28905032 -1.05991307
v -3.11701174 4.28392427 -0.56302686
v -3.12711749 4.64511290 -0.56313410
v -3.12697432 4.28417891 -0.56278952
v -3.11697866 4.64549266 -0.56289325
v -3.11458858 4.64017598 -1.05990741
v -3.11719161 4.64535367 -0.56292760
v -3.11467195 4.64037418 -0.56787124
v -3.11694833 4.64545015 -1.06482676
v -3.11431076 4.28903773 -0.56787245
v -3.11451663 4.29397796 -0.57299721
v -3.11457867 4.64030483 -0.56808290
v -3.11477222 4.28903247 -1.06005580
v -3.11452157 4.63551766 -0.57309296
v -3.11457137 4.63550780 -1.05482868
v -3.11439741 4.29399983 -1.05480564
v -3.11458788 4.64029305 -1.05984265
v -3.11457782 4.28910826 -0.56773932
v -3.11718290 4.64530415 -0.56286895
v -3.11700636 4.28413355 -0.56311297
v -3.11447132 4.64035324 -0.56799721
v -3.11447135 4.63521181 -0.57315632
v -3.11934899 4.63538515 -1.05487908
v -3.11451433 4.63539240 -1.05502368
v -3.11962372 4.63550100 -0.57301595
v -3.11441187 4.29397115 -1.05473363
v -3.11946973 4.63540669 -1.05482840
v -3.11960058 4.29382681 -1.05501446
v -3.11432250 4.63550056 -1.05493100
v -3.11954383 4.29415927 -0.57305257
v -3.11465811 4.29418550 -1.05483668
v -3.11979753 4.29400465 -1.05487488
v -3.11445415 4.29405796 -0.57310610
v -3.11452254 4.63538533 -0.57306398
v -3.11955188 4.29418396 -0.57314171
v -3.11954931 4.63511888 -0.57297131
v -3.11441440 4.29410336 -0.57292815
v 2.29388105 1.99522471 -1.06487680
v 2.28376088 1.63392778 -1.06497109
v 2.28362399 1.99528281 -1.06471909
v 2.29372058 1.63378001 -1.06500968
v 2.28374791 1.99519075 -0.56314058
v 2.29379876 1.99501754 -1.06499618
v 2.28365564 1.99506415 -1.06512811
v 2.29397025 1.99524378 -0.56321798
v 2.29376220 1.63371486 -1.06501031
v 2.29366482 1.99527189 -0.56304368
v 2.29388419 1.63385184 -0.56284077
v 2.29362267 1.99538463 -1.06478574
v 2.29389621 1.63406455 -0.56297485
v 2.28388561 1.63370707 -1.06480122
v 2.29384979 1.63373997 -1.06468867
v 2.28375659 1.63379252 -0.56302093
v 2.28119518 1.63887220 -1.05982689
v 2.28383210 1.99491506 -1.06481562
v 2.28375138 1.63365232 -1.06486206
v 2.28134621 1.99004592 -1.05962811
v 2.28365294 1.99498695 -0.56313054
v 2.28144449 1.99014526 -1.05995395
v 2.28127462 1.99009706 -0.56809236
v 2.28371805 1.99526657 -1.06481419
v 2.29370970 1.63381891 -0.56290804
v 2.28366759 1.99512790 -0.56311724
v 2.28364361 1.63380317 -0.56308266
v 2.29390286 1.99518210 -0.56295107
v 2.28124826 1.63873852 -0.56802367
v 2.28379093 1.63371080 -1.06488230
v 2.28387703 1.63380961 -0.56280205
v 2.28120930 1.63887098 -1.05995830
v 2.28130862 1.63871619 -0.56788555
v 2.28130190 1.64396752 -0.57317831
v 2.28122521 1.63870910 -1.05997241
v 2.28120240 1.98513161 -0.57303525
v 2.28127704 1.99010177 -0.56799182
v 2.28138204 1.98504305 -1.05489154
v 2.28127325 1.64388467 -1.05489911
v 2.28127994 1.99005187 -1.05990884
v 2.28368590 1.99524455 -0.56301016
v 2.28128630 1.63870918 -0.56792122
v 2.28387081 1.63389019 -0.56274318
v 2.28127572 1.99030326 -0.56802747
v 2.28132688 1.64387280 -0.57300297
v 2.28637667 1.64379621 -1.05488711
v 2.28134306 1.64403124 -1.05498829
v 2.28609437 1.64377550 -0.57302297
v 2.28632131 1.64384159 -1.05475631
v 2.28139355 1.98514076 -1.05494543
v 2.28124210 1.64379021 -1.05491764
v 2.28612112 1.98509360 -1.05494031
v 2.28627963 1.98511629 -0.57295630
v 2.28122080 1.98509617 -1.05482956
v 2.28627431 1.98517120 -1.05481497
v 2.28133008 1.98517407 -0.57305578
v 2.28637938 1.98516553 -0.57309111
v 2.28126446 1.64369141 -0.57314342
v 2.28106605 1.98506753 -0.57288029
v 2.28623752 1.64392116 -0.57303367
v -0.40665007 -3.07418538 -1.06486516
v -0.41680956 -3.43562839 -1.06505505
v -0.41662927 -3.07426215 -1.06496620
v -0.40644165 -3.43566048 -1.06511256
v -0.41666300 -3.07430637 -0.56306420
v -0.40659460 -3.07424707 -1.06489556
v -0.41671434 -3.07431868 -1.06500199
v -0.40670903 -3.07446813 -0.56296546
v -0.40657304 -3.43574706 -1.06506323
v -0.40659089 -3.07445749 -0.56310445
v -0.40658874 -3.43590615 -0.56292274
v -0.40628495 -3.07428613 -1.06505132
v -0.40660089 -3.43592586 -0.56304266
v -0.41655077 -3.43568017 -1.06505011
v -0.40653556 -3.43561521 -1.06473088
v -0.41668916 -3.43584668 -0.56299317
v -0.41945407 -3.43076945 -1.05994328
v -0.41666150 -3.07452012 -1.06495998
v -0.41669785 -3.43566091 -1.06503714
v -0.41915100 -3.07938429 -1.05984723
v -0.41690052 -3.07437770 -0.56291132
v -0.41916008 -3.07953252 -1.05987483
v -0.41908008 -3.07938859 -0.56814721
v -0.41669373 -3.07437463 -1.06503214
v -0.40678978 -3.43583580 -0.56300647
v -0.41666697 -3.07434734 -0.56298875
v -0.41650618 -3.43549523 -0.56291557
v -0.40673069 -3.07464304 -0.56300915
v -0.41911047 -3.43084171 -0.56798319
v -0.41669674 -3.43570155 -1.06496922
v -0.41656336 -3.43594737 -0.56304963
v -0.41913567 -3.43087184 -1.05969662
v -0.41918060 -3.07919838 -1.05998834
v -0.41914500 -3.07922199 -1.05987744
v -0.41909665 -3.43067815 -1.06006874
v -0.41916328 -3.43081818 -1.05988963
v -0.41918097 -3.42571367 -1.05490141
v -0.41912282 -3.42571260 -1.05496729
v -0.41923939 -3.42578472 -1.05476981
v -0.41656603 -3.07427145 -0.56284026
v -0.41925376 -3.43065020 -0.56813751
v -0.41664718 -3.43569221 -0.56281448
v -0.41920825 -3.07936846 -0.56788191
v -0.41928931 -3.07931612 -0.56804967
v -0.41921965 -3.08436187 -0.57296619
v -0.41922313 -3.08433513 -0.57301448
v -0.41926090 -3.43053067 -0.56788950
v -0.41921716 -3.43077582 -0.56792606
v -0.41917541 -3.43091936 -0.56789420
v -0.41911765 -3.08415899 -1.05485161
v -0.41909677 -3.42537934 -0.57305403
v -0.41922768 -3.42568236 -0.57290424
v -0.41423259 -3.08448271 -0.57298282
v -0.41948491 -3.08450261 -1.05480144
v -0.41416633 -3.08456376 -1.05467198
v -0.41928023 -3.08443861 -0.57307704
v -0.41408960 -3.42575095 -1.05490183
v -0.41911207 -3.08438737 -1.05488187
v -0.41939116 -3.42565809 -1.05505344
v -0.41434731 -3.08421921 -1.05503982
v -0.41909805 -3.42579712 -0.57311206
v -0.41404372 -3.42582869 -1.05484987
v -0.41907504 -3.42557523 -1.05493107
v -0.41397923 -3.42551151 -0.57285259
v -0.41403199 -3.08432721 -0.57270793
v -0.41886295 -3.42579644 -0.57292854
v -0.41904970 -3.08437038 -0.57301678
v -0.41404324 -3.42560124 -0.57300928
v 2.29386949 4.64554979 -1.06489423
v 2.28385394 4.28411398 -1.06474354
v 2.28393206 4.64543353 -1.06490682
v 2.29369040 4.28403401 -1.06504944
v 2.28367420 4.64546484 -0.56300879
v 2.29388466 4.64531850 -1.06479303
v 2.28380797 4.64552638 -1.06485349
v 2.29384950 4.64533550 -0.56299366
v 2.29392542 4.28408047 -1.06506759
v 2.29394806 4.64536582 -0.56290388
v 2.29375067 4.28407362 -0.56308852
v 2.29384538 4.64535618 -1.06496334
v 2.29376566 4.28398296 -0.56319666
v 2.28389192 4.28411071 -1.06498135
v 2.29367251 4.28392647 -1.06482208
v 2.28386316 4.28396614 -0.56289448
v 2.28116244 4.28895021 -1.05985666
v 2.28378052 4.64532282 -1.06521840
v 2.28386839 4.28403763 -1.06513028
v 2.28135051 4.64036884 -1.05987900
v 2.28389978 4.64530556 -0.56291553
v 2.28136007 4.64045772 -1.05972354
v 2.28135720 4.64030616 -0.56780728
v 2.28366466 4.64533731 -1.06504111
v 2.29381880 4.28412452 -0.56284860
v 2.28384460 4.64532051 -0.56306068
v 2.28372241 4.28410970 -0.56310111
v 2.29392960 4.64538659 -0.56297756
v 2.28145491 4.28896594 -0.56782293
v 2.28363005 4.28390607 -1.06511144
v 2.28370596 4.28406732 -0.56291276
v 2.28131688 4.28905098 -1.06004543
v 2.28112975 4.28905520 -0.56785889
v 2.28124003 4.29389521 -0.57320891
v 2.28120377 4.28920132 -1.05993482
v 2.28116284 4.63528175 -0.57308867
v 2.28131216 4.64029488 -0.56811523
v 2.28126020 4.63540525 -1.05480912
v 2.28134480 4.29398812 -1.05508551
v 2.28119027 4.64040303 -1.06006372
v 2.28382044 4.64532274 -0.56306395
v 2.28140998 4.28904544 -0.56785632
v 2.28368391 4.28413008 -0.56289313
v 2.28093866 4.64036037 -0.56783662
v 2.28137087 4.29398997 -0.57305994
v 2.28615200 4.29406416 -1.05509675
v 2.28116543 4.29416873 -1.05489369
v 2.28625964 4.29402840 -0.57271919
v 2.28641985 4.29395168 -1.05470041
v 2.28127157 4.63543630 -1.05495846
v 2.28117431 4.29413239 -1.05497942
v 2.28621177 4.63545441 -1.05502438
v 2.28613869 4.63541400 -0.57325778
v 2.28119563 4.63530968 -1.05504537
v 2.28617327 4.63542784 -1.05485776
v 2.28117341 4.63541222 -0.57285924
v 2.28615437 4.63535858 -0.57280685
v 2.28135175 4.29413370 -0.57305620
v 2.28119033 4.63548254 -0.57295839
v 2.28629537 4.29398722 -0.57323348
v -0.40655196 -3.86748066 -1.06494718
v -0.41653203 -4.22868567 -1.06484972
v -0.41635057 -3.86726796 -1.06501754
v -0.40666356 -4.22851291 -1.06500806
v -0.41661394 -3.86720155 -0.56280291
v -0.40657608 -3.86737371 -1.06511938
v -0.41671294 -3.86744327 -1.06493273
v -0.40660686 -3.86738398 -0.56274822
v -0.40651663 -4.22874424 -1.06493187
v -0.40658952 -3.86726019 -0.56311295
v -0.40658421 -4.22890512 -0.56298942
v -0.40655619 -3.86729598 -1.06479489
v -0.40649387 -4.22859377 -0.56281744
v -0.41657276 -4.22873683 -1.06515388
v -0.40653314 -4.22878019 -1.06512550
v -0.41665830 -4.22866993 -0.56314130
v -0.41897054 -4.22372521 -1.05993856
v -0.41662519 -3.86730636 -1.06509605
v -0.41637511 -4.22887278 -1.06501974
v -0.41897881 -3.87231093 -1.05976057
v -0.41648907 -3.86735831 -0.56314561
v -0.41917282 -3.87237870 -1.05991436
v -0.41935380 -3.87228179 -0.56781605
v -0.41644117 -3.86751803 -1.06488214
v -0.40681342 -4.22858601 -0.56322162
v -0.41656186 -3.86726825 -0.56285148
v -0.41656948 -4.22894291 -0.56301099
v -0.40660056 -3.86735923 -0.56288625
v -0.41904281 -4.22353657 -0.56793863
v -0.41665343 -4.22859289 -1.06496811
v -0.41657660 -4.22875889 -0.56326209
v -0.41908694 -4.22374645 -1.05993642
v -0.41913484 -4.21888675 -1.05488334
v -0.41894649 -4.21875993 -1.05495260
v -0.41918827 -3.87217037 -1.06006764
v -0.41902186 -3.87238867 -1.05969235
v -0.41896845 -4.22378972 -1.06008897
v -0.41895489 -4.22361258 -1.06003896
v -0.41903328 -3.87753222 -1.05498155
v -0.41930300 -3.87733363 -1.05486158
v -0.41655224 -3.86723505 -0.56292281
v -0.41905169 -4.22369377 -0.56813630
v -0.41661283 -4.22891778 -0.56310249
v -0.41912917 -3.87227979 -0.56777858
v -0.41924296 -3.87238157 -0.56802248
v -0.41905826 -3.87233471 -0.56797284
v -0.41922944 -3.87739528 -0.57293213
v -0.41917746 -3.87721389 -0.57306125
v -0.41919126 -4.21870567 -0.57306385
v -0.41927526 -4.21874262 -0.57285155
v -0.41888926 -4.22384456 -0.56791065
v -0.41910347 -4.22374708 -0.56786918
v -0.41400152 -4.21872195 -1.05499918
v -0.41924741 -3.87744782 -1.05485556
v -0.41906101 -4.21865005 -1.05478058
v -0.41437440 -3.87733700 -1.05501262
v -0.41397150 -3.87740193 -0.57296211
v -0.41918062 -3.87740811 -1.05510653
v -0.41397366 -3.87747839 -1.05518922
v -0.41899706 -3.87724841 -0.57313471
v -0.41897973 -4.21882551 -0.57329398
v -0.41414012 -4.21870226 -1.05487749
v -0.41910679 -4.21870567 -1.05486798
v -0.41412387 -4.21880851 -0.57306479
v -0.41413941 -3.87747519 -0.57316069
v -0.41918081 -4.21873020 -0.57299890
v -0.41912599 -3.87746153 -0.57297312
v -0.41400582 -4.21866172 -0.57323480
v -3.11704191 -2.19085575 -1.06487273
v -3.12695094 -2.55229462 -1.06502962
v -3.12688876 -2.19109233 -1.06481885
v -3.11699162 -2.55249932 -1.06497723
v -3.11685185 -2.55239803 -0.56313701
v -3.12706189 -2.55242434 -1.06507511
v -3.11693963 -2.55223920 -1.06499505
v -3.12696883 -2.55237496 -0.56300976
v -3.12701467 -2.19076553 -0.56294019
v -3.12714326 -2.55227154 -1.06495719
v -3.12708223 -2.55242682 -0.56300134
v -3.12703570 -2.19098266 -1.06509113
v -3.12722437 -2.19092192 -0.56297792
v -3.11673967 -2.19095705 -1.06481477
v -3.12689190 -2.19094358 -1.06492298
v -3.11703899 -2.19073324 -0.56317113
v -3.11699429 -2.19077803 -1.06494411
v -3.11457468 -2.54728503 -1.05985180
v -3.11692474 -2.55229836 -1.06484593
v -3.11440095 -2.19608322 -1.05995549
v -3.11689012 -2.55227466 -1.06490498
v -3.11443224 -2.54720264 -0.56811265
v -3.11713029 -2.55246278 -0.56278542
v -3.11463006 -2.54733858 -1.05993341
v -3.11687164 -2.55252975 -0.56300283
v -3.12688970 -2.19080887 -0.56295145
v -3.12705870 -2.55212928 -0.56318986
v -3.11687737 -2.19087837 -0.56293063
v -3.11447883 -2.19593292 -1.05980547
v -3.11712183 -2.19107938 -0.56297972
v -3.11450330 -2.19593767 -0.56783217
v -3.11705611 -2.19085052 -1.06488774
v -3.11423818 -2.54747233 -0.56807690
v -3.11456160 -2.54214029 -0.57312827
v -3.11431936 -2.19577336 -0.56791520
v -3.11445918 -2.54748997 -1.05989130
v -3.11467316 -2.20101810 -0.57301108
v -3.11454466 -2.20086765 -1.05490713
v -3.11468667 -2.54241208 -1.05503841
v -3.11454552 -2.19581351 -1.05985416
v -3.11447039 -2.54745895 -0.56774296
v -3.11699298 -2.19065972 -0.56309770
v -3.11705479 -2.55203283 -0.56312148
v -3.11446131 -2.19599516 -0.56810753
v -3.11426172 -2.20109159 -0.57293154
v -3.11938278 -2.20109247 -1.05510966
v -3.11471325 -2.20106816 -1.05486682
v -3.11947085 -2.20099822 -0.57304641
v -3.11439770 -2.54220266 -1.05484910
v -3.11957995 -2.20088749 -1.05487157
v -3.11959494 -2.54235673 -1.05475174
v -3.11429789 -2.20103724 -1.05513038
v -3.11944198 -2.54239503 -0.57295044
v -3.11455234 -2.54203525 -1.05487962
v -3.11940585 -2.54242984 -1.05521544
v -3.11449377 -2.54226156 -0.57295183
v -3.11457272 -2.20112454 -0.57321768
v -3.11944591 -2.54221020 -0.57313466
v -3.11956976 -2.20105998 -0.57325144
v -3.11448647 -2.54219465 -0.57305993
v -1.58124937 -5.42340834 -1.06477594
v -1.94225846 -5.43339386 -1.06502261
v -1.94272989 -5.42356271 -1.06494241
v -1.58106056 -5.43339528 -1.06496236
v -1.58126320 -5.43360527 -1.06491536
v -1.58118088 -5.42323615 -0.56316652
v -1.58089317 -5.43350103 -0.56297383
v -1.58106086 -5.42342503 -1.06516288
v -1.58114168 -5.43325028 -0.56314612
v -1.94271346 -5.43344975 -1.06497947
v -1.58123452 -5.43351089 -1.06498734
v -1.94254974 -5.43340604 -0.56291845
v -1.94245810 -5.42334647 -0.56280694
v -1.94237697 -5.43375835 -1.06497383
v -1.94268304 -5.43350362 -0.56291107
v -1.94252549 -5.42343469 -1.06478137
v -1.93763564 -5.42087623 -1.05984969
v -1.58108366 -5.42351887 -1.06493482
v -1.94240994 -5.42334470 -1.06489584
v -1.58609027 -5.42084999 -1.06005474
v -1.58616090 -5.42081613 -1.06026932
v -1.58099969 -5.42334697 -0.56312360
v -1.58117192 -5.42340897 -1.06488487
v -1.58616833 -5.42073180 -0.56796795
v -1.58117653 -5.43347866 -0.56297333
v -1.94241901 -5.42330772 -0.56301058
v -1.94248532 -5.43342756 -0.56290524
v -1.58119940 -5.42331656 -0.56321160
v -1.94245077 -5.42335627 -0.56299944
v -1.93770767 -5.42068601 -1.05980963
v -1.94249953 -5.42333307 -1.06503984
v -1.93740470 -5.42068677 -0.56815022
v -1.93215492 -5.42091553 -1.05479808
v -1.58622012 -5.42082076 -1.06005848
v -1.93753887 -5.42089166 -1.05998767
v -1.59115314 -5.42075368 -1.05503916
v -1.94263942 -5.42338023 -0.56306403
v -1.58624047 -5.42085035 -0.56807992
v -1.93742487 -5.42087003 -0.56803832
v -1.58109424 -5.42326841 -0.56284887
v -1.59114377 -5.42098346 -1.05506598
v -1.58638135 -5.42100019 -0.56811290
v -1.58613151 -5.42108090 -1.05974877
v -1.59100366 -5.42072284 -0.57309310
v -1.93743543 -5.42097400 -0.56783774
v -1.93260233 -5.42092432 -1.05472981
v -1.93717817 -5.42087599 -1.05996000
v -1.93275057 -5.42066954 -0.57299904
v -1.59134130 -5.42580595 -1.05482254
v -1.93250398 -5.42092938 -1.05480923
v -1.93243658 -5.42584999 -1.05475237
v -1.59098881 -5.42077836 -1.05482582
v -1.93760980 -5.42099326 -0.56792151
v -1.59105135 -5.42080612 -0.57293808
v -1.93252684 -5.42080077 -0.57314762
v -1.58611834 -5.42075902 -0.56809281
v -1.59090178 -5.42073557 -0.57287717
v -1.59114968 -5.42606487 -1.05497289
v -1.59106229 -5.42593772 -0.57295171
v -1.59110825 -5.42093304 -1.05478585
v -1.93230853 -5.42598963 -1.05483422
v -1.93244544 -5.42083330 -0.57304627
v -1.93260688 -5.42574430 -0.57315389
v -1.93256311 -5.42079030 -1.05487226
v -1.59121668 -5.42094080 -0.57305252
v -1.93251333 -5.42583170 -0.57316771
v -1.93242176 -5.42069015 -0.57301128
v -1.59122724 -5.42598859 -0.57302934
v -2.51478098 -4.45954302 -1.06514297
v -2.87589868 -4.46995670 -1.06493685
v -2.87621048 -4.45959050 -1.06502082
v -2.51483927 -4.46976368 -1.06497924
v -2.51493113 -4.46967267 -1.06520623
v -2.51457472 -4.45972226 -0.56289023
v -2.51477827 -4.46981558 -0.56292474
v -2.51477639 -4.45986173 -1.06494213
v -2.51486722 -4.46972621 -0.56284144
v -2.87597615 -4.46972452 -1.06495114
v -2.51474576 -4.46979776 -1.06489148
v -2.87610451 -4.46976846 -0.56296847
v -2.87631763 -4.45946033 -0.56292722
v -2.87624608 -4.46971155 -1.06506149
v -2.87614820 -4.46982727 -0.56287433
v -2.87630645 -4.45972504 -1.06512106
v -2.87104971 -4.45720070 -1.06007361
v -2.51454455 -4.45950535 -1.06499678
v -2.87602664 -4.45970149 -1.06490427
v -2.51953396 -4.45719508 -1.05970718
v -2.51974249 -4.45717502 -1.05969605
v -2.51467795 -4.45991721 -0.56297365
v -2.51485631 -4.45987490 -1.06504014
v -2.51967212 -4.45729307 -0.56817487
v -2.51475297 -4.46967838 -0.56307917
v -2.87623608 -4.45993333 -0.56308832
v -2.87598971 -4.46960994 -0.56290893
v -2.51472955 -4.45966963 -0.56285418
v -2.87618593 -4.45964274 -0.56321371
v -2.87096921 -4.45721597 -1.06004485
v -2.87599790 -4.45981174 -1.06503150
v -2.87087132 -4.45728535 -0.56808950
v -2.86612563 -4.45707441 -1.05510309
v -2.51956624 -4.45719218 -1.05994877
v -2.87115008 -4.45718097 -1.05974404
v -2.52472415 -4.45727113 -1.05493258
v -2.87602520 -4.45967467 -0.56302888
v -2.51964022 -4.45712416 -0.56813781
v -2.87126672 -4.45710820 -0.56780158
v -2.51480349 -4.45970060 -0.56284429
v -2.52454926 -4.45715683 -1.05474963
v -2.51962349 -4.45722920 -0.56824561
v -2.51981365 -4.45712201 -1.05986445
v -2.52480607 -4.45726378 -0.57321766
v -2.87123985 -4.45717952 -0.56819474
v -2.86604909 -4.45725572 -1.05494161
v -2.87080390 -4.45715878 -1.05995183
v -2.86606722 -4.45733434 -0.57288094
v -2.52465142 -4.46222525 -1.05486652
v -2.86612429 -4.45711891 -1.05504663
v -2.86601672 -4.46199233 -1.05484167
v -2.52481613 -4.45705551 -1.05466935
v -2.87096363 -4.45715439 -0.56810625
v -2.52469863 -4.45694533 -0.57326538
v -2.86593541 -4.45714860 -0.57286099
v -2.51972413 -4.45741338 -0.56778623
v -2.52488134 -4.45707385 -0.57304896
v -2.52475307 -4.46214854 -1.05495532
v -2.52472716 -4.46213028 -0.57294252
v -2.52473421 -4.45712780 -1.05474064
v -2.86615069 -4.46215627 -1.05483800
v -2.86592875 -4.45717281 -0.57302296
v -2.86608688 -4.46202345 -0.57307113
v -2.86596886 -4.45717598 -1.05488925
v -2.52488864 -4.45715903 -0.57303774
v -2.86621731 -4.46225035 -0.57308633
v -2.86622248 -4.45730496 -0.57286600
v -2.52486652 -4.46226366 -0.57319423
vt 0.00250000 -3.99749994
vt 3.99850011 0.99750000
vt 3.99850011 -3.99749994
vt 0.00250000 0.99750000
vt 3.99850011 -3.99749994
vt 0.00250000 0.99750000
vt 3.99850011 0.99750000
vt 0.00250000 -3.99749994
vt 0.00250000 0.99750000
vt 4.99749994 -3.99749994
vt 0.00250000 -3.99749994
vt 4.99749994 0.99750000
vt 4.99749994 -3.99749994
vt 1.00150001 0.99750000
vt 4.99749994 0.99750000
vt 1.00150001 -3.99749994
vt 4.92810011 0.94760001
vt 0.00250000 0.99750000
vt 4.99749994 0.99750000
vt 0.07185907 0.94760001
vt 0.00250000 -3.99749613
vt 0.07189996 0.94760007
vt 0.07189996 -3.94752789
vt 0.00250000 0.99750000
vt 4.99749994 0.99750000
vt 1.00150001 -3.99749994
vt 1.00150001 0.99750000
vt 4.99749994 -3.99749994
vt 4.92810011 -3.94759989
vt 4.99749994 0.99750000
vt 4.99749994 -3.99749994
vt 4.92810011 0.94753212
vt 4.92257023 -3.95080185
vt 4.85327005 -3.90080214
vt 4.92257023 0.94439489
vt 0.14119990 -3.89768887
vt 0.07189997 -3.94759703
vt 0.14119990 0.89760011
vt 4.85327005 0.89448649
vt 0.07189997 0.94760007
vt 0.00250000 -3.99749994
vt 4.92814112 -3.94759989
vt 4.99749994 -3.99749994
vt 0.07190001 -3.94759989
vt 4.99749994 -3.89760017
vt 2.99950004 0.89760000
vt 4.99749994 0.89760000
vt 2.99950004 -3.89760017
vt 2.00049996 0.85879999
vt 0.00250000 -3.85879993
vt 0.00250000 0.85879999
vt 2.00049996 -3.85879993
vt 2.00049996 -3.89760017
vt 0.00250000 0.89760000
vt 2.00049996 0.89760000
vt 0.00250000 -3.89760017
vt 2.99950004 -3.85879993
vt 4.99749994 0.85879999
vt 4.99749994 -3.85879993
vt 2.99950004 0.85879999
vt 3.99850011 0.99750000
vt 0.00250000 -3.99749994
vt 0.00250000 0.99750000
vt 3.99850011 -3.99749994
vt 3.99850011 -3.99749994
vt 0.00250000 0.99750000
vt 3.99850011 0.99750000
vt 0.00250000 -3.99749994
vt 0.00250000 -3.99749994
vt 4.99749994 0.99750000
vt 4.99749994 -3.99749994
vt 0.00250000 0.99750000
vt 4.99749994 -3.99749994
vt 1.00150001 0.99750000
vt 4.99749994 0.99750000
vt 1.00150001 -3.99749994
vt 4.99749994 0.99750000
vt 0.07185907 0.94760001
vt 0.00250000 0.99750000
vt 4.92810011 0.94760001
vt 0.00250000 0.99750000
vt 0.07189996 -3.94752789
vt 0.00250000 -3.99749613
vt 0.07189996 0.94760007
vt 1.00150001 -3.99749994
vt 4.99749994 0.99750000
vt 4.99749994 -3.99749994
vt 1.00150001 0.99750000
vt 4.92810011 0.94753212
vt 4.99749994 -3.99749994
vt 4.92810011 -3.94759989
vt 4.99749994 0.99750000
vt 0.07189997 -3.94759703
vt 0.14119990 -3.89768887
vt 4.92257023 -3.95080185
vt 0.07189997 0.94760007
vt 4.85327005 -3.90080214
vt 4.85327005 0.89448649
vt 0.14119990 0.89760011
vt 4.92257023 0.94439489
vt 0.07190001 -3.94759989
vt 4.99749994 -3.99749994
vt 0.00250000 -3.99749994
vt 4.92814112 -3.94759989
vt 4.99749994 -3.89760017
vt 2.99950004 0.89760000
vt 4.99749994 0.89760000
vt 2.99950004 -3.89760017
vt 0.00250000 -3.85879993
vt 2.00049996 0.85879999
vt 2.00049996 -3.85879993
vt 0.00250000 0.85879999
vt 2.00049996 -3.89760017
vt 0.00250000 0.89760000
vt 2.00049996 0.89760000
vt 0.00250000 -3.89760017
vt 4.99749994 0.85879999
vt 2.99950004 -3.85879993
vt 2.99950004 0.85879999
vt 4.99749994 -3.85879993
vt 0.00250000 -3.99749994
vt 3.99850011 0.99750000
vt 3.99850011 -3.99749994
vt 0.00250000 0.99750000
vt 3.99850011 -3.99749994
vt 0.00250000 0.99750000
vt 3.99850011 0.99750000
vt 0.00250000 -3.99749994
vt 0.00250000 0.99750000
vt 4.99749994 -3.99749994
vt 0.00250000 -3.99749994
vt 4.99749994 0.99750000
vt 4.99749994 -3.99749994
vt 1.00150001 0.99750000
vt 4.99749994 0.99750000
vt 1.00150001 -3.99749994
vt 4.92810011 0.94760001
vt 0.00250000 0.99750000
vt 4.99749994 0.99750000
vt 0.07186587 0.94760001
vt 0.00250000 -3.99749613
vt 0.07189996 0.94760007
vt 0.07189996 -3.94752789
vt 0.00250000 0.99750000
vt 4.99749994 0.99750000
vt 1.00150001 -3.99749994
vt 1.00150001 0.99750000
vt 4.99749994 -3.99749994
vt 4.92810011 -3.94759989
vt 4.99749994 0.99750000
vt 4.99749994 -3.99749994
vt 4.92810011 0.94753212
vt 4.92251587 -3.95080185
vt 4.85322094 -3.90080214
vt 4.92251587 0.94439495
vt 0.14119990 -3.89768887
vt 0.07189997 -3.94759703
vt 0.14119990 0.89760011
vt 4.85322094 0.89448649
vt 0.07189997 0.94760007
vt 0.00250000 -3.99749994
vt 4.92813396 -3.94759989
vt 4.99749994 -3.99749994
vt 0.07190001 -3.94759989
vt 4.99749994 -3.89760017
vt 2.99950004 0.89760000
vt 4.99749994 0.89760000
vt 2.99950004 -3.89760017
vt 2.00049996 0.85879999
vt 0.00250000 -3.85879993
vt 0.00250000 0.85879999
vt 2.00049996 -3.85879993
vt 2.00049996 -3.89760017
vt 0.00250000 0.89760000
vt 2.00049996 0.89760000
vt 0.00250000 -3.89760017
vt 2.99950004 -3.85879993
vt 4.99749994 0.85879999
vt 4.99749994 -3.85879993
vt 2.99950004 0.85879999
vt 3.99850011 0.99750000
vt 0.00250000 -3.99749994
vt 0.00250000 0.99750000
vt 3.99850011 -3.99749994
vt 3.99850011 -3.99749994
vt 0.00250000 0.99750000
vt 3.99850011 0.99750000
vt 0.00250000 -3.99749994
vt 0.00250000 -3.99749994
vt 4.99749994 0.99750000
vt 4.99749994 -3.99749994
vt 0.00250000 0.99750000
vt 4.99749994 -3.99749994
vt 1.00150001 0.99750000
vt 4.99749994 0.99750000
vt 1.00150001 -3.99749994
vt 4.99749994 0.99750000
vt 0.07187131 0.94760001
vt 0.00250000 0.99750000
vt 4.92810011 0.94760001
vt 0.00250000 0.99750000
vt 0.07189996 -3.94752789
vt 0.00250000 -3.99749613
vt 0.07189996 0.94760007
vt 1.00150001 -3.99749994
vt 4.99749994 0.99750000
vt 4.99749994 -3.99749994
vt 1.00150001 0.99750000
vt 4.92810011 0.94753212
vt 4.99749994 -3.99749994
vt 4.92810011 -3.94759989
vt 4.99749994 0.99750000
vt 0.07189997 -3.94759703
vt 0.14119990 -3.89768887
vt 4.92251015 -3.95080185
vt 0.07189997 0.94760007
vt 4.85321617 -3.90080214
vt 4.85321617 0.89448649
vt 0.14119990 0.89760011
vt 4.92251015 0.94439495
vt 0.07190001 -3.94759989
vt 4.99749994 -3.99749994
vt 0.00250000 -3.99749994
vt 4.92812920 -3.94759989
vt 4.99749994 -3.89760017
vt 2.99950004 0.89760000
vt 4.99749994 0.89760000
vt 2.99950004 -3.89760017
vt 0.00250000 -3.85879993
vt 2.00049996 0.85879999
vt 2.00049996 -3.85879993
vt 0.00250000 0.85879999
vt 2.00049996 -3.89760017
vt 0.00250000 0.89760000
vt 2.00049996 0.89760000
vt 0.00250000 -3.89760017
vt 4.99749994 0.85879999
vt 2.99950004 -3.85879993
vt 2.99950004 0.85879999
vt 4.99749994 -3.85879993
vt 0.00250000 -3.99749994
vt 3.99850011 0.99750000
vt 3.99850011 -3.99749994
vt 0.00250000 0.99750000
vt 3.99850011 -3.99749994
vt 0.00250000 0.99750000
vt 3.99850011 0.99750000
vt 0.00250000 -3.99749994
vt 0.00250000 0.99750000
vt 4.99749994 -3.99749994
vt 0.00250000 -3.99749994
vt 4.99749994 0.99750000
vt 4.99749994 -3.99749994
vt 1.00150001 0.99750000
vt 4.99749994 0.99750000
vt 1.00150001 -3.99749994
vt 4.92810011 0.94760001
vt 0.00250000 0.99750000
vt 4.99749994 0.99750000
vt 0.07185907 0.94760001
vt 0.00250000 -3.99749613
vt 0.07189996 0.94760007
vt 0.07189996 -3.94752789
vt 0.00250000 0.99750000
vt 4.99749994 0.99750000
vt 1.00150001 -3.99749994
vt 1.00150001 0.99750000
vt 4.99749994 -3.99749994
vt 4.92810011 -3.94759989
vt 4.99749994 0.99750000
vt 4.99749994 -3.99749994
vt 4.92810011 0.94753212
vt 4.92257023 -3.95080185
vt 4.85327005 -3.90080214
vt 4.92257023 0.94439489
vt 0.14119990 -3.89768887
vt 0.07189997 -3.94759703
vt 0.14119990 0.89760011
vt 4.85327005 0.89448649
vt 0.07189997 0.94760007
vt 0.00250000 -3.99749994
vt 4.92814112 -3.94759989
vt 4.99749994 -3.99749994
vt 0.07190001 -3.94759989
vt 4.99749994 -3.89760017
vt 2.99950004 0.89760000
vt 4.99749994 0.89760000
vt 2.99950004 -3.89760017
vt 2.00049996 0.85879999
vt 0.00250000 -3.85879993
vt 0.00250000 0.85879999
vt 2.00049996 -3.85879993
vt 2.00049996 -3.89760017
vt 0.00250000 0.89760000
vt 2.00049996 0.89760000
vt 0.00250000 -3.89760017
vt 2.99950004 -3.85879993
vt 4.99749994 0.85879999
vt 4.99749994 -3.85879993
vt 2.99950004 0.85879999
vt 0.00250000 -3.99749994
vt 3.99850011 0.99750000
vt 3.99850011 -3.99749994
vt 0.00250000 0.99750000
vt 3.99850011 -3.99749994
vt 0.00250000 0.99750000
vt 3.99850011 0.99750000
vt 0.00250000 -3.99749994
vt 0.00250000 0.99750000
vt 4.99749994 -3.99749994
vt 0.00250000 -3.99749994
vt 4.99749994 0.99750000
vt 4.99749994 -3.99749994
vt 1.00150001 0.99750000
vt 4.99749994 0.99750000
vt 1.00150001 -3.99749994
vt 4.92810011 0.94760001
vt 0.00250000 0.99750000
vt 4.99749994 0.99750000
vt 0.07212508 0.94760001
vt 0.00250000 -3.99749613
vt 0.07189996 0.94760007
vt 0.07189996 -3.94752789
vt 0.00250000 0.99750000
vt 4.99749994 0.99750000
vt 1.00150001 -3.99749994
vt 1.00150001 0.99750000
vt 4.99749994 -3.99749994
vt 4.92810011 -3.94759989
vt 4.99749994 0.99750000
vt 4.99749994 -3.99749994
vt 4.92810011 0.94753212
vt 0.07190001 0.94760001
vt 0.07189997 0.94760007
vt 4.92810011 0.94760001
vt 4.92809677 0.94760007
vt 4.85879993 0.89760000
vt 4.85311317 0.89448661
vt 4.85879707 0.89769161
vt 0.00250000 -3.99749994
vt 4.92787504 -3.94759989
vt 4.99749994 -3.99749994
vt 0.07190001 -3.94759989
vt 0.07189997 -3.94759703
vt 0.14119990 -3.89768887
vt 0.14120001 -3.89760017
vt 4.92213488 -3.95080185
vt 4.92809677 -3.94759703
vt 4.92810011 -3.94759989
vt 0.14119990 0.89760011
vt 4.85879707 -3.89759684
vt 4.85879993 -3.89760017
vt 2.00049996 -3.89760017
vt 0.00250000 0.89760000
vt 2.00049996 0.89760000
vt 0.00250000 -3.89760017
vt 2.00049996 0.85879999
vt 0.00250000 -3.85879993
vt 0.00250000 0.85879999
vt 2.00049996 -3.85879993
vt 4.99749994 -3.89760017
vt 2.99950004 0.89760000
vt 4.99749994 0.89760000
vt 2.99950004 -3.89760017
vt 2.99950004 -3.85879993
vt 4.99749994 0.85879999
vt 4.99749994 -3.85879993
vt 2.99950004 0.85879999
vt 0.00250000 -3.99749994
vt 3.99850011 0.99750000
vt 3.99850011 -3.99749994
vt 0.00250000 0.99750000
vt 3.99850011 -3.99749994
vt 0.00250000 0.99750000
vt 3.99850011 0.99750000
vt 0.00250000 -3.99749994
vt 0.00250000 0.99750000
vt 4.99749994 -3.99749994
vt 0.00250000 -3.99749994
vt 4.99749994 0.99750000
vt 4.99749994 -3.99749994
vt 1.00150001 0.99750000
vt 4.99749994 0.99750000
vt 1.00150001 -3.99749994
vt 4.92810011 0.94760001
vt 0.00250000 0.99750000
vt 4.99749994 0.99750000
vt 0.07187131 0.94760001
vt 0.00250000 -3.99749613
vt 0.07189996 0.94760007
vt 0.07189996 -3.94752789
vt 0.00250000 0.99750000
vt 4.99749994 0.99750000
vt 1.00150001 -3.99749994
vt 1.00150001 0.99750000
vt 4.99749994 -3.99749994
vt 4.92810011 -3.94759989
vt 4.99749994 0.99750000
vt 4.99749994 -3.99749994
vt 4.92810011 0.94753212
vt 4.92289114 -3.95080185
vt 4.85358620 -3.90080214
vt 4.92289114 0.94439465
vt 0.14119990 -3.89768887
vt 0.07189997 -3.94759703
vt 0.14119990 0.89760011
vt 4.85358620 0.89448631
vt 0.07189997 0.94760007
vt 0.00250000 -3.99749994
vt 4.92812920 -3.94759989
vt 4.99749994 -3.99749994
vt 0.07190001 -3.94759989
vt 4.99749994 -3.89760017
vt 2.99950004 0.89760000
vt 4.99749994 0.89760000
vt 2.99950004 -3.89760017
vt 2.00049996 0.85879999
vt 0.00250000 -3.85879993
vt 0.00250000 0.85879999
vt 2.00049996 -3.85879993
vt 2.00049996 -3.89760017
vt 0.00250000 0.89760000
vt 2.00049996 0.89760000
vt 0.00250000 -3.89760017
vt 2.99950004 -3.85879993
vt 4.99749994 0.85879999
vt 4.99749994 -3.85879993
vt 2.99950004 0.85879999
vt 0.00250000 -3.99749994
vt 3.99850011 0.99750000
vt 3.99850011 -3.99749994
vt 0.00250000 0.99750000
vt 3.99850011 -3.99749994
vt 0.00250000 0.99750000
vt 3.99850011 0.99750000
vt 0.00250000 -3.99749994
vt 0.00250000 0.99750000
vt 4.99749994 -3.99749994
vt 0.00250000 -3.99749994
vt 4.99749994 0.99750000
vt 4.99749994 -3.99749994
vt 1.00150001 0.99750000
vt 4.99749994 0.99750000
vt 1.00150001 -3.99749994
vt 4.92810011 0.94760001
vt 0.00250000 0.99750000
vt 4.99749994 0.99750000
vt 0.07132094 0.94760001
vt 0.00250000 -3.99749613
vt 0.07189996 0.94760007
vt 0.07189996 -3.94752789
vt 0.00250000 0.99750000
vt 4.99749994 0.99750000
vt 1.00150001 -3.99749994
vt 1.00150001 0.99750000
vt 4.99749994 -3.99749994
vt 4.92810011 -3.94759989
vt 4.99749994 0.99750000
vt 4.99749994 -3.99749994
vt 4.92810011 0.94753212
vt 4.85879993 0.89760000
vt 4.85879707 0.89769161
vt 0.07190001 0.94760001
vt 0.07189997 0.94760007
vt 4.92810011 0.94760001
vt 4.92809677 0.94760007
vt 0.14189270 0.89760000
vt 0.14119990 0.89760011
vt 0.00250000 -3.99749994
vt 4.92867899 -3.94759989
vt 4.99749994 -3.99749994
vt 0.07190001 -3.94759989
vt 0.07189997 -3.94759703
vt 0.07190001 -3.94759989
vt 0.14119990 -3.89768887
vt 0.14120001 -3.89760017
vt 4.85879707 -3.89759684
vt 4.85810709 -3.89760017
vt 4.92809677 -3.94759703
vt 4.92810011 -3.94759989
vt 2.00049996 0.85879999
vt 0.00250000 -3.85879993
vt 0.00250000 0.85879999
vt 2.00049996 -3.85879993
vt 2.00049996 -3.89760017
vt 0.00250000 0.89760000
vt 2.00049996 0.89760000
vt 0.00250000 -3.89760017
vt 4.99749994 -3.89760017
vt 2.99950004 0.89760000
vt 4.99749994 0.89760000
vt 2.99950004 -3.89760017
vt 2.99950004 -3.85879993
vt 4.99749994 0.85879999
vt 4.99749994 -3.85879993
vt 2.99950004 0.85879999
vt 3.99850011 0.99750000
vt 0.00250000 -3.99749994
vt 0.00250000 0.99750000
vt 3.99850011 -3.99749994
vt 3.99850011 -3.99749994
vt 0.00250000 0.99750000
vt 3.99850011 0.99750000
vt 0.00250000 -3.99749994
vt 0.00250000 -3.99749994
vt 4.99749994 0.99750000
vt 4.99749994 -3.99749994
vt 0.00250000 0.99750000
vt 4.99749994 -3.99749994
vt 1.00150001 0.99750000
vt 4.99749994 0.99750000
vt 1.00150001 -3.99749994
vt 4.99749994 0.99750000
vt 0.07185362 0.94760001
vt 0.00250000 0.99750000
vt 4.92810011 0.94760001
vt 0.00250000 0.99750000
vt 0.07189996 -3.94752789
vt 0.00250000 -3.99749613
vt 0.07189996 0.94760007
vt 1.00150001 -3.99749994
vt 4.99749994 0.99750000
vt 4.99749994 -3.99749994
vt 1.00150001 0.99750000
vt 4.92810011 0.94753212
vt 4.99749994 -3.99749994
vt 4.92810011 -3.94759989
vt 4.99749994 0.99750000
vt 0.07189997 -3.94759703
vt 0.14119990 -3.89768887
vt 4.92219496 -3.95080185
vt 0.07189997 0.94760007
vt 4.85290098 -3.90080214
vt 4.85290098 0.89448673
vt 0.14119990 0.89760011
vt 4.92219496 0.94439512
vt 0.07190001 -3.94759989
vt 4.99749994 -3.99749994
vt 0.00250000 -3.99749994
vt 4.92814589 -3.94759989
vt 4.99749994 -3.89760017
vt 2.99950004 0.89760000
vt 4.99749994 0.89760000
vt 2.99950004 -3.89760017
vt 0.00250000 -3.85879993
vt 2.00049996 0.85879999
vt 2.00049996 -3.85879993
vt 0.00250000 0.85879999
vt 2.00049996 -3.89760017
vt 0.00250000 0.89760000
vt 2.00049996 0.89760000
vt 0.00250000 -3.89760017
vt 4.99749994 0.85879999
vt 2.99950004 -3.85879993
vt 2.99950004 0.85879999
vt 4.99749994 -3.85879993
vt 3.99850011 -3.99749994
vt 0.00250000 0.99750000
vt 3.99850011 0.99750000
vt 0.00250000 -3.99749994
vt 0.00250000 0.99750000
vt 3.99850011 -3.99749994
vt 0.00250000 -3.99749994
vt 3.99850011 0.99750000
vt 4.99749994 -3.99749994
vt 0.00250000 0.99750000
vt 4.99749994 0.99750000
vt 0.00250000 -3.99749994
vt 1.00150001 -3.99749994
vt 4.99749994 0.99750000
vt 4.99749994 -3.99749994
vt 1.00150001 0.99750000
vt 4.92810011 0.94760001
vt 0.00250000 0.99750000
vt 4.99749994 0.99750000
vt 0.07239411 0.94760001
vt 0.07189996 0.94760007
vt 0.00250000 -3.99749613
vt 0.00250000 0.99750000
vt 0.07189996 -3.94752789
vt 4.99749994 -3.99749994
vt 1.00150001 0.99750000
vt 4.99749994 0.99750000
vt 1.00150001 -3.99749994
vt 4.99749994 -3.99749994
vt 4.92810011 0.94753212
vt 4.99749994 0.99750000
vt 4.92810011 -3.94759989
vt 4.85879993 0.89760000
vt 0.07190001 0.94760001
vt 4.92810011 0.94760001
vt 0.14082000 0.89760000
vt 4.99749994 -3.99749994
vt 0.07190001 -3.94759989
vt 4.92760611 -3.94759989
vt 0.00250000 -3.99749994
vt 0.14119990 0.89760011
vt 0.07189997 -3.94759703
vt 0.07189997 0.94760007
vt 0.14119990 -3.89768887
vt 4.92809677 -3.94759703
vt 4.85879707 0.89769161
vt 4.92809677 0.94760007
vt 4.85879707 -3.89759684
vt 2.00049996 -3.85879993
vt 0.00250000 0.85879999
vt 2.00049996 0.85879999
vt 0.00250000 -3.85879993
vt 4.92810011 -3.94759989
vt 0.14120001 -3.89760017
vt 4.85917997 -3.89760017
vt 0.07190001 -3.94759989
vt 0.00250000 -3.89760017
vt 2.00049996 0.89760000
vt 2.00049996 -3.89760017
vt 0.00250000 0.89760000
vt 2.99950004 0.89760000
vt 4.99749994 -3.89760017
vt 2.99950004 -3.89760017
vt 4.99749994 0.89760000
vt 4.99749994 -3.85879993
vt 2.99950004 0.85879999
vt 4.99749994 0.85879999
vt 2.99950004 -3.85879993
vt 3.99850011 -3.99749994
vt 0.00250000 0.99750000
vt 3.99850011 0.99750000
vt 0.00250000 -3.99749994
vt 0.00250000 0.99750000
vt 3.99850011 -3.99749994
vt 0.00250000 -3.99749994
vt 3.99850011 0.99750000
vt 4.99749994 -3.99749994
vt 0.00250000 0.99750000
vt 4.99749994 0.99750000
vt 0.00250000 -3.99749994
vt 1.00150001 -3.99749994
vt 4.99749994 0.99750000
vt 4.99749994 -3.99749994
vt 1.00150001 0.99750000
vt 4.92810011 0.94760001
vt 0.00250000 0.99750000
vt 4.99749994 0.99750000
vt 0.07186511 0.94760001
vt 0.07189996 0.94760007
vt 0.00250000 -3.99749613
vt 0.00250000 0.99750000
vt 0.07189996 -3.94752789
vt 4.99749994 -3.99749994
vt 1.00150001 0.99750000
vt 4.99749994 0.99750000
vt 1.00150001 -3.99749994
vt 4.99749994 -3.99749994
vt 4.92810011 0.94753212
vt 4.99749994 0.99750000
vt 4.92810011 -3.94759989
vt 4.85879993 0.89760000
vt 0.07190001 0.94760001
vt 4.92810011 0.94760001
vt 0.14136410 0.89760000
vt 4.99749994 -3.99749994
vt 0.07190001 -3.94759989
vt 4.92813492 -3.94759989
vt 0.00250000 -3.99749994
vt 0.14119990 0.89760011
vt 0.07189997 -3.94759703
vt 0.07189997 0.94760007
vt 0.14119990 -3.89768887
vt 4.92809677 -3.94759703
vt 4.85879707 0.89769161
vt 4.92809677 0.94760007
vt 4.85879707 -3.89759684
vt 2.00049996 -3.85879993
vt 0.00250000 0.85879999
vt 2.00049996 0.85879999
vt 0.00250000 -3.85879993
vt 4.92810011 -3.94759989
vt 0.14120001 -3.89760017
vt 4.85863590 -3.89760017
vt 0.07190001 -3.94759989
vt 0.00250000 -3.89760017
vt 2.00049996 0.89760000
vt 2.00049996 -3.89760017
vt 0.00250000 0.89760000
vt 2.99950004 0.89760000
vt 4.99749994 -3.89760017
vt 2.99950004 -3.89760017
vt 4.99749994 0.89760000
vt 4.99749994 -3.85879993
vt 2.99950004 0.85879999
vt 4.99749994 0.85879999
vt 2.99950004 -3.85879993
f 1/1 2/2 3/3
f 2/2 1/1 4/4
f 5/5 6/6 7/7
f 6/6 5/5 8/8
f 9/9 10/10 11/11
f 10/10 9/9 12/12
f 13/13 14/14 15/15
f 14/14 13/13 16/16
f 17/17 18/18 19/19
f 18/18 17/17 20/20
f 21/21 22/22 23/23
f 22/22 21/21 24/24
f 25/25 26/26 27/27
f 26/26 25/25 28/28
f 29/29 30/30 31/31
f 30/30 29/29 32/32
f 33/33 34/34 35/35
f 34/34 33/33 36/36
f 37/37 36/36 33/33
f 36/36 37/37 38/38
f 35/35 39/39 40/40
f 39/39 35/35 34/34
f 40/40 39/39 38/38
f 40/40 38/38 37/37
f 41/41 42/42 43/43
f 42/42 41/41 44/44
f 45/45 46/46 47/47
f 46/46 45/45 48/48
f 49/49 50/50 51/51
f 50/50 49/49 52/52
f 53/53 54/54 55/55
f 54/54 53/53 56/56
f 57/57 58/58 59/59
f 58/58 57/57 60/60
f 61/61 62/62 63/63
f 62/62 61/61 64/64
f 65/65 66/66 67/67
f 66/66 65/65 68/68
f 69/69 70/70 71/71
f 70/70 69/69 72/72
f 73/73 74/74 75/75
f 74/74 73/73 76/76
f 77/77 78/78 79/79
f 78/78 77/77 80/80
f 81/81 82/82 83/83
f 82/82 81/81 84/84
f 85/85 86/86 87/87
f 86/86 85/85 88/88
f 89/89 90/90 91/91
f 90/90 89/89 92/92
f 93/93 94/94 95/95
f 94/94 93/93 96/96
f 97/97 95/95 94/94
f 95/95 97/97 98/98
f 96/96 99/99 94/94
f 99/99 96/96 100/100
f 99/99 100/100 98/98
f 98/98 100/100 95/95
f 101/101 102/102 103/103
f 102/102 101/101 104/104
f 105/105 106/106 107/107
f 106/106 105/105 108/108
f 109/109 110/110 111/111
f 110/110 109/109 112/112
f 113/113 114/114 115/115
f 114/114 113/113 116/116
f 117/117 118/118 119/119
f 118/118 117/117 120/120
f 121/121 122/122 123/123
f 122/122 121/121 124/124
f 125/125 126/126 127/127
f 126/126 125/125 128/128
f 129/129 130/130 131/131
f 130/130 129/129 132/132
f 133/133 134/134 135/135
f 134/134 133/133 136/136
f 137/137 138/138 139/139
f 138/138 137/137 140/140
f 141/141 142/142 143/143
f 142/142 141/141 144/144
f 145/145 146/146 147/147
f 146/146 145/145 148/148
f 149/149 150/150 151/151
f 150/150 149/149 152/152
f 153/153 154/154 155/155
f 154/154 153/153 156/156
f 157/157 156/156 153/153
f 156/156 157/157 158/158
f 155/155 159/159 160/160
f 159/159 155/155 154/154
f 160/160 159/159 158/158
f 160/160 158/158 157/157
f 161/161 162/162 163/163
f 162/162 161/161 164/164
f 165/165 166/166 167/167
f 166/166 165/165 168/168
f 169/169 170/170 171/171
f 170/170 169/169 172/172
f 173/173 174/174 175/175
f 174/174 173/173 176/176
f 177/177 178/178 179/179
f 178/178 177/177 180/180
f 181/181 182/182 183/183
f 182/182 181/181 184/184
f 185/185 186/186 187/187
f 186/186 185/185 188/188
f 189/189 190/190 191/191
f 190/190 189/189 192/192
f 193/193 194/194 195/195
f 194/194 193/193 196/196
f 197/197 198/198 199/199
f 198/198 197/197 200/200
f 201/201 202/202 203/203
f 202/202 201/201 204/204
f 205/205 206/206 207/207
f 206/206 205/205 208/208
f 209/209 210/210 211/211
f 210/210 209/209 212/212
f 213/213 214/214 215/215
f 214/214 213/213 216/216
f 217/217 215/215 214/214
f 215/215 217/217 218/218
f 216/216 219/219 214/214
f 219/219 216/216 220/220
f 219/219 220/220 218/218
f 218/218 220/220 215/215
f 221/221 222/222 223/223
f 222/222 221/221 224/224
f 225/225 226/226 227/227
f 226/226 225/225 228/228
f 229/229 230/230 231/231
f 230/230 229/229 232/232
f 233/233 234/234 235/235
f 234/234 233/233 236/236
f 237/237 238/238 239/239
f 238/238 237/237 240/240
f 241/241 242/242 243/243
f 242/242 241/241 244/244
f 245/245 246/246 247/247
f 246/246 245/245 248/248
f 249/249 250/250 251/251
f 250/250 249/249 252/252
f 253/253 254/254 255/255
f 254/254 253/253 256/256
f 257/257 258/258 259/259
f 258/258 257/257 260/260
f 261/261 262/262 263/263
f 262/262 261/261 264/264
f 265/265 266/266 267/267
f 266/266 265/265 268/268
f 269/269 270/270 271/271
f 270/270 269/269 272/272
f 273/273 274/274 275/275
f 274/274 273/273 276/276
f 277/277 276/276 273/273
f 276/276 277/277 278/278
f 275/275 279/279 280/280
f 279/279 275/275 274/274
f 280/280 279/279 278/278
f 280/280 278/278 277/277
f 281/281 282/282 283/283
f 282/282 281/281 284/284
f 285/285 286/286 287/287
f 286/286 285/285 288/288
f 289/289 290/290 291/291
f 290/290 289/289 292/292
f 293/293 294/294 295/295
f 294/294 293/293 296/296
f 297/297 298/298 299/299
f 298/298 297/297 300/300
f 301/301 302/302 303/303
f 302/302 301/301 304/304
f 305/305 306/306 307/307
f 306/306 305/305 308/308
f 309/309 310/310 311/311
f 310/310 309/309 312/312
f 313/313 314/314 315/315
f 314/314 313/313 316/316
f 317/317 318/318 319/319
f 318/318 317/317 320/320
f 321/321 322/322 323/323
f 322/322 321/321 324/324
f 325/325 326/326 327/327
f 326/326 325/325 328/328
f 329/329 330/330 331/331
f 330/330 329/329 332/332
f 333/333 335/335 337/337
f 340/340 341/341 342/342
f 341/341 340/340 343/343
f 344/344 345/345 347/347
f 345/345 344/344 350/350
f 350/350 334/334 338/338
f 334/334 350/350 344/344
f 351/351 336/336 348/348
f 336/336 351/351 339/339
f 353/353 354/354 355/355
f 354/354 353/353 356/356
f 346/346 352/352 349/349
f 357/357 358/358 359/359
f 358/358 357/357 360/360
f 361/361 362/362 363/363
f 362/362 361/361 364/364
f 365/365 366/366 367/367
f 366/366 365/365 368/368
f 369/369 370/370 371/371
f 370/370 369/369 372/372
f 373/373 374/374 375/375
f 374/374 373/373 376/376
f 377/377 378/378 379/379
f 378/378 377/377 380/380
f 381/381 382/382 383/383
f 382/382 381/381 384/384
f 385/385 386/386 387/387
f 386/386 385/385 388/388
f 389/389 390/390 391/391
f 390/390 389/389 392/392
f 393/393 394/394 395/395
f 394/394 393/393 396/396
f 397/397 398/398 399/399
f 398/398 397/397 400/400
f 401/401 402/402 403/403
f 402/402 401/401 404/404
f 405/405 404/404 401/401
f 404/404 405/405 406/406
f 403/403 407/407 408/408
f 407/407 403/403 402/402
f 408/408 407/407 406/406
f 408/408 406/406 405/405
f 409/409 410/410 411/411
f 410/410 409/409 412/412
f 413/413 414/414 415/415
f 414/414 413/413 416/416
f 417/417 418/418 419/419
f 418/418 417/417 420/420
f 421/421 422/422 423/423
f 422/422 421/421 424/424
f 425/425 426/426 427/427
f 426/426 425/425 428/428
f 429/429 430/430 431/431
f 430/430 429/429 432/432
f 433/433 434/434 435/435
f 434/434 433/433 436/436
f 437/437 438/438 439/439
f 438/438 437/437 440/440
f 441/441 442/442 443/443
f 442/442 441/441 444/444
f 445/445 446/446 447/447
f 446/446 445/445 448/448
f 449/449 450/450 451/451
f 450/450 449/449 452/452
f 453/453 454/454 455/455
f 454/454 453/453 456/456
f 457/457 458/458 459/459
f 458/458 457/457 460/460
f 461/461 463/463 465/465
f 463/463 461/461 467/467
f 469/469 470/470 471/471
f 470/470 469/469 472/472
f 473/473 468/468 475/475
f 468/468 473/473 464/464
f 477/477 466/466 479/479
f 466/466 477/477 462/462
f 481/481 482/482 483/483
f 482/482 481/481 484/484
f 474/474 478/478 480/480
f 478/478 474/474 476/476
f 485/485 486/486 487/487
f 486/486 485/485 488/488
f 489/489 490/490 491/491
f 490/490 489/489 492/492
f 493/493 494/494 495/495
f 494/494 493/493 496/496
f 497/497 498/498 499/499
f 498/498 497/497 500/500
f 501/501 502/502 503/503
f 502/502 501/501 504/504
f 505/505 506/506 507/507
f 506/506 505/505 508/508
f 509/509 510/510 511/511
f 510/510 509/509 512/512
f 513/513 514/514 515/515
f 514/514 513/513 516/516
f 517/517 518/518 519/519
f 518/518 517/517 520/520
f 521/521 522/522 523/523
f 522/522 521/521 524/524
f 525/525 526/526 527/527
f 526/526 525/525 528/528
f 529/529 530/530 531/531
f 530/530 529/529 532/532
f 533/533 531/531 530/530
f 531/531 533/533 534/534
f 532/532 535/535 530/530
f 535/535 532/532 536/536
f 535/535 536/536 534/534
f 534/534 536/536 531/531
f 537/537 538/538 539/539
f 538/538 537/537 540/540
f 541/541 542/542 543/543
f 542/542 541/541 544/544
f 545/545 546/546 547/547
f 546/546 545/545 548/548
f 549/549 550/550 551/551
f 550/550 549/549 552/552
f 553/553 554/554 555/555
f 554/554 553/553 556/556
f 557/557 558/558 559/559
f 558/558 557/557 560/560
f 561/561 562/562 563/563
f 562/562 561/561 564/564
f 565/565 566/566 567/567
f 566/566 565/565 568/568
f 569/569 570/570 571/571
f 570/570 569/569 572/572
f 573/573 574/574 575/575
f 574/574 573/573 576/576
f 577/577 578/578 579/579
f 578/578 577/577 580/580
f 581/581 582/582 583/583
f 582/582 581/581 584/584
f 585/585 586/586 587/587
f 586/586 585/585 588/588
f 589/589 590/590 591/591
f 590/590 589/589 592/592
f 593/593 594/594 595/595
f 594/594 593/593 596/596
f 597/597 598/598 599/599
f 598/598 597/597 600/600
f 601/601 602/602 603/603
f 602/602 601/601 604/604
f 605/605 606/606 607/607
f 606/606 605/605 608/608
f 609/609 610/610 611/611
f 610/610 609/609 612/612
f 613/613 614/614 615/615
f 614/614 613/613 616/616
f 617/617 618/618 619/619
f 618/618 617/617 620/620
f 621/621 622/622 623/623
f 622/622 621/621 624/624
f 625/625 626/626 627/627
f 626/626 625/625 628/628
f 629/629 630/630 631/631
f 630/630 629/629 632/632
f 633/633 634/634 635/635
f 634/634 633/633 636/636
f 637/637 638/638 639/639
f 638/638 637/637 640/640
f 641/641 642/642 643/643
f 642/642 641/641 644/644
f 645/645 646/646 647/647
f 646/646 645/645 648/648
f 649/649 650/650 651/651
f 650/650 649/649 652/652
f 653/653 654/654 655/655
f 654/654 653/653 656/656
f 657/657 658/658 659/659
f 658/658 657/657 660/660
f 661/661 662/662 663/663
f 662/662 661/661 664/664
f 665/665 666/666 667/667
f 666/666 665/665 668/668
f 669/669 670/670 671/671
f 670/670 669/669 672/672
f 673/673 674/674 675/675
f 674/674 673/673 676/676
f 677/677 678/678 679/679
f 678/678 677/677 680/680
f 681/681 682/682 683/683
f 682/682 681/681 684/684
f 685/685 686/686 687/687
f 686/686 685/685 688/688
f 689/689 690/690 691/691
f 690/690 689/689 692/692

