# https://github.com/mikedh/trimesh
v -1.88399626 -5.86759861 -1.23434015
v -1.89053440 -5.87889908 -1.23434086
v -1.89053132 -5.87137513 -1.23434360
v -1.88399983 -5.88263893 -1.23434169
v -1.87750842 -5.87137813 -1.23434499
v -1.87750432 -5.87889910 -1.23434261
v -1.89053361 -5.87137488 -1.22932252
v -1.89053116 -5.87889941 -1.23434089
v -1.89053235 -5.87889746 -1.22932410
v -1.89053704 -5.87137874 -1.23434123
v -1.89053726 -5.87137810 -1.22932259
v -1.88399519 -5.86759771 -1.23434088
v -1.89053635 -5.87137790 -1.23433978
v -1.88399274 -5.86760150 -1.22931830
v -1.88399312 -5.86759626 -1.23434111
v -1.87750325 -5.87137382 -1.22931715
v -1.87749781 -5.87137418 -1.23434087
v -1.88399969 -5.86759828 -1.22932050
v -1.87750575 -5.87889669 -1.23434069
v -1.87750065 -5.87138061 -1.22932389
v -1.87750356 -5.87890071 -1.22931772
v -1.87750372 -5.87137672 -1.23434246
v -1.87749837 -5.87889431 -1.23434017
v -1.88400224 -5.88263720 -1.22932043
v -1.88399400 -5.88263892 -1.23433711
v -1.87750583 -5.87889941 -1.22931978
v -1.88399646 -5.88263218 -1.22932170
v -1.89053630 -5.87889868 -1.23434460
v -1.88399987 -5.88263571 -1.23434030
v -1.89053134 -5.87889964 -1.22931784
v -1.88399732 -5.88263328 -1.22932330
v -1.89053656 -5.87137692 -1.22931953
v -1.89053425 -5.87889921 -1.22932563
v -1.88400018 -5.86759697 -1.22931964
v -1.87750286 -5.87890047 -1.22931994
v -1.87750573 -5.87137940 -1.22932059
v -1.65967131 -5.86759727 -1.23434329
v -1.66616427 -5.87889790 -1.23434127
v -1.66616277 -5.87137951 -1.23433814
v -1.65966366 -5.88263516 -1.23433880
v -1.65313030 -5.87137539 -1.23434160
v -1.65313599 -5.87889805 -1.23434377
v -1.65313598 -5.87889704 -1.23434325
v -1.65313497 -5.87138024 -1.22932150
v -1.65313140 -5.87889431 -1.22932222
v -1.65312965 -5.87137396 -1.23433884
v -1.65313840 -5.87889455 -1.23434092
v -1.65966444 -5.88263638 -1.22932120
v -1.65966471 -5.88263825 -1.23434668
v -1.65313260 -5.87889977 -1.22931941
v -1.65966627 -5.88263711 -1.22932437
v -1.66616586 -5.87889773 -1.23434561
v -1.65966475 -5.88263760 -1.23434484
v -1.66617071 -5.87889639 -1.22932295
v -1.66616591 -5.87137817 -1.22931752
v -1.66616468 -5.87889748 -1.23434561
v -1.66616032 -5.87889535 -1.22931944
v -1.66616443 -5.87137521 -1.23434084
v -1.66616298 -5.87137795 -1.22932597
v -1.65966288 -5.86760324 -1.23434241
v -1.66616508 -5.87138024 -1.23434022
v -1.65966604 -5.86759939 -1.22932085
v -1.65966675 -5.86759470 -1.23434089
v -1.65313354 -5.87138256 -1.22932555
v -1.65312953 -5.87137769 -1.23434252
v -1.65966130 -5.86760156 -1.22932369
v -1.65966674 -5.88263582 -1.22932389
v -1.66616613 -5.87138169 -1.22932031
v -1.66616248 -5.87889893 -1.22932177
v -1.65966885 -5.86759948 -1.22931864
v -1.65313198 -5.87889177 -1.22932421
v -1.65313083 -5.87137807 -1.22932073
v -1.67313234 -5.88712730 -1.21556061
v -1.67312445 -5.88712605 -1.21556356
v -1.68577071 -5.86161203 -1.21565015
v -1.68576555 -5.86161119 -1.21564925
v -1.68577026 -5.88862441 -1.21565066
v -1.68577283 -5.88861873 -1.21564477
v -1.67313555 -5.86311278 -1.21556292
v -1.67313480 -5.86311772 -1.21556131
v -1.67312899 -5.88712674 -1.21555618
v -1.67313358 -5.88712133 -1.21555786
v -1.67313331 -5.88711930 -1.21555921
v -1.68577218 -5.88862131 -1.21564896
v -1.68576630 -5.88862419 -1.21564679
v -1.68576685 -5.88862354 -1.21564844
v -1.67313446 -5.88885139 -1.21727276
v -1.67313349 -5.88886016 -1.21727184
v -1.67313234 -5.88885545 -1.21727252
v -1.65053515 -5.88512144 -1.21556050
v -1.65052759 -5.88511512 -1.21556038
v -1.65053810 -5.86515998 -1.21555843
v -1.65053458 -5.86515938 -1.21556168
v -1.67312867 -5.86310858 -1.21555934
v -1.67313289 -5.86311110 -1.21556592
v -1.67313203 -5.86311249 -1.21556095
v -1.68538006 -5.85968257 -1.21754167
v -1.68538210 -5.85968280 -1.21753672
v -1.68538088 -5.85968300 -1.21753941
v -1.68576827 -5.86161701 -1.21564672
v -1.68576595 -5.86161213 -1.21564743
v -1.68577874 -5.86161310 -1.21564893
v -1.70124305 -5.85980448 -1.21944404
v -1.70124162 -5.89047309 -1.21944537
v -1.65053151 -5.88653849 -1.21726830
v -1.65053421 -5.88653771 -1.21727169
v -1.68538078 -5.89054880 -1.21753777
v -1.68537985 -5.89055337 -1.21753789
v -1.68537596 -5.89055083 -1.21753759
v -1.65053563 -5.86515730 -1.21555912
v -1.65053391 -5.86516135 -1.21555672
v -1.67313292 -5.86141570 -1.21727182
v -1.67313150 -5.86141938 -1.21726789
v -1.65053905 -5.88512047 -1.21555777
v -1.64742056 -5.88346364 -1.21667321
v -1.64742798 -5.86677234 -1.21667247
v -1.69990044 -5.85759667 -1.22118036
v -1.69989958 -5.85759928 -1.22117869
v -1.70123889 -5.85980298 -1.21944512
v -1.70124211 -5.85980069 -1.21944163
v -1.70124621 -5.89046728 -1.21944175
v -1.71534033 -5.85756070 -1.23158054
v -1.71533904 -5.89267806 -1.23158001
v -1.70124059 -5.85980192 -1.21944519
v -1.70124079 -5.89046890 -1.21944699
v -1.70124423 -5.89046999 -1.21944233
v -1.65053409 -5.88653266 -1.22756114
v -1.67313613 -5.88885965 -1.21727063
v -1.67313437 -5.88885867 -1.21727345
v -1.67313392 -5.88886000 -1.22755740
v -1.65053263 -5.88653688 -1.21727148
v -1.68537991 -5.89054917 -1.21753843
v -1.68537432 -5.89055335 -1.21753773
v -1.65053353 -5.86374055 -1.21726945
v -1.65053836 -5.88511235 -1.21556183
v -1.65053230 -5.88653853 -1.21726799
v -1.64742531 -5.88468404 -1.21810539
v -1.65053184 -5.86515830 -1.21556600
v -1.64742627 -5.86677138 -1.21667355
v -1.64742234 -5.86676924 -1.21667280
v -1.65053850 -5.86373607 -1.21726816
v -1.65053544 -5.86373421 -1.21727184
v -1.64742724 -5.88346476 -1.21666980
v -1.64742673 -5.88467943 -1.22672996
v -1.64742186 -5.88346296 -1.21667297
v -1.64742154 -5.88468830 -1.21810204
v -1.64742448 -5.88346575 -1.22816273
v -1.64742159 -5.86676987 -1.21666728
v -1.64742154 -5.86676855 -1.22816604
v -1.64742404 -5.86558937 -1.21810557
v -1.64742354 -5.86558973 -1.22672549
v -1.68537868 -5.85968535 -1.21754079
v -1.68538071 -5.85968144 -1.21753888
v -1.68537640 -5.85968778 -1.21754364
v -1.69187525 -5.85759532 -1.23158713
v -1.69187171 -5.85760033 -1.23159021
v -1.69990555 -5.85759915 -1.22118287
v -1.69990699 -5.85759876 -1.22117254
v -1.67313191 -5.86141303 -1.21727196
v -1.68301579 -5.85969447 -1.22887605
v -1.68301373 -5.85967992 -1.22887849
v -1.71305396 -5.85504027 -1.23258494
v -1.71305603 -5.85503934 -1.23257844
v -1.71533935 -5.85756063 -1.23157768
v -1.71533880 -5.85756033 -1.23157511
v -1.72038327 -5.89267694 -1.24562472
v -1.72038186 -5.89267546 -1.24562311
v -1.71533819 -5.89268073 -1.23157992
v -1.72037525 -5.85755783 -1.24562646
v -1.72037728 -5.85755674 -1.24562825
v -1.70124342 -5.89047204 -1.21944558
v -1.71533970 -5.89267306 -1.23158053
v -1.69989983 -5.89267156 -1.22118084
v -1.69990515 -5.89267551 -1.22117839
v -1.69990669 -5.89267700 -1.22117453
v -1.65053598 -5.88653095 -1.22755760
v -1.67313259 -5.88885370 -1.22755674
v -1.67313138 -5.88885827 -1.22755368
v -1.67313024 -5.88885794 -1.22756240
v -1.65053371 -5.88512074 -1.22927929
v -1.65053539 -5.88511707 -1.22927159
v -1.64742359 -5.88468238 -1.22673081
v -1.65053473 -5.88653533 -1.21726873
v -1.65053437 -5.88653358 -1.22755964
v -1.64742340 -5.88468338 -1.21810874
v -1.68301469 -5.89055136 -1.22888213
v -1.68301267 -5.89055147 -1.22887943
v -1.67313329 -5.86141627 -1.22755447
v -1.65053509 -5.86373841 -1.21726742
v -1.65053330 -5.86373688 -1.22755957
v -1.64742233 -5.86559097 -1.21810276
v -1.64742690 -5.88468645 -1.22672440
v -1.65053517 -5.88653657 -1.22755815
v -1.64742609 -5.88346093 -1.22816786
v -1.64742470 -5.86677096 -1.22816492
v -1.65053673 -5.88512003 -1.22927379
v -1.65053732 -5.88511614 -1.22927880
v -1.65053609 -5.86515738 -1.22927810
v -1.65053299 -5.86515752 -1.22927755
v -1.64742822 -5.88346838 -1.22816452
v -1.64742729 -5.86559433 -1.22672825
v -1.64741846 -5.86559011 -1.22672570
v -1.64742377 -5.86676984 -1.22816811
v -1.65053577 -5.86515680 -1.22927493
v -1.65053516 -5.86515918 -1.22927555
v -1.65053666 -5.86374585 -1.21727402
v -1.64742309 -5.86558682 -1.22672300
v -1.65053442 -5.86373733 -1.22755601
v -1.64742610 -5.86559518 -1.21810545
v -1.69924037 -5.85503927 -1.23858980
v -1.69923949 -5.85503837 -1.23858818
v -1.71305327 -5.85503711 -1.23257959
v -1.71304975 -5.85503806 -1.23257876
v -1.71533952 -5.85756000 -1.23157724
v -1.71534091 -5.85756007 -1.23157961
v -1.71306010 -5.85503818 -1.23258517
v -1.71785428 -5.85503473 -1.24562777
v -1.71534075 -5.89267289 -1.23157664
v -1.72037591 -5.89267730 -1.24562451
v -1.72038018 -5.89267813 -1.24562490
v -1.72037996 -5.89267442 -1.24562028
v -1.71305853 -5.89519847 -1.23257904
v -1.71305457 -5.89519355 -1.23258452
v -1.72037757 -5.85755898 -1.24562607
v -1.72037757 -5.89267953 -1.26570671
v -1.72037482 -5.85755784 -1.26570367
v -1.71305431 -5.89519562 -1.23258489
v -1.69990735 -5.89267304 -1.22117604
v -1.69990260 -5.89267795 -1.22117290
v -1.69990390 -5.89267515 -1.22117502
v -1.65053672 -5.88512259 -1.22927765
v -1.67312813 -5.88712251 -1.22927577
v -1.67313310 -5.88712319 -1.22927532
v -1.68301848 -5.89054728 -1.22887601
v -1.68302160 -5.89055134 -1.22887687
v -1.67313109 -5.86141623 -1.22755998
v -1.67313262 -5.86141587 -1.22755903
v -1.67313328 -5.86141341 -1.22756078
v -1.65053557 -5.86374484 -1.22755696
v -1.65053254 -5.86373821 -1.22755599
v -1.67313119 -5.86310886 -1.22927367
v -1.67313301 -5.86310669 -1.22927578
v -1.67313608 -5.86310756 -1.22927013
v -1.67313479 -5.88712612 -1.22927664
v -1.67313330 -5.88712574 -1.22927807
v -1.67313304 -5.86311351 -1.22927634
v -1.67313537 -5.86311246 -1.22927930
v -1.65053153 -5.86373832 -1.22756327
v -1.69187409 -5.85759999 -1.23159165
v -1.69187628 -5.85759633 -1.23159089
v -1.69694948 -5.85755724 -1.23959186
v -1.69695535 -5.85755413 -1.23959213
v -1.69923437 -5.85503233 -1.23859084
v -1.69923373 -5.85504035 -1.23858845
v -1.68301471 -5.85968561 -1.22887180
v -1.68301592 -5.85968443 -1.22887775
v -1.68301708 -5.85968308 -1.22887534
v -1.69053376 -5.85980892 -1.23331953
v -1.69053557 -5.85980598 -1.23332057
v -1.69187111 -5.85760095 -1.23158352
v -1.68262274 -5.86161822 -1.23076993
v -1.68261598 -5.86161422 -1.23076792
v -1.71785416 -5.85503999 -1.24562820
v -1.70281659 -5.85503663 -1.26570132
v -1.71785672 -5.85503784 -1.26570192
v -1.70281772 -5.85503974 -1.24562910
v -1.71785732 -5.89519627 -1.24562832
v -1.71785238 -5.85503853 -1.26570288
v -1.72037917 -5.85756023 -1.26570418
v -1.72037843 -5.89267821 -1.26570285
v -1.71785209 -5.89519613 -1.26569954
v -1.71305582 -5.89519520 -1.23258297
v -1.71305360 -5.89519867 -1.23257905
v -1.69187211 -5.89267333 -1.23159312
v -1.69187383 -5.89267869 -1.23159124
v -1.69187434 -5.89267670 -1.23158991
v -1.68261973 -5.88862325 -1.23076648
v -1.68261738 -5.88862414 -1.23076696
v -1.65053486 -5.86515627 -1.22927505
v -1.68261967 -5.88862437 -1.23076691
v -1.68262200 -5.88862050 -1.23076723
v -1.68261953 -5.86161606 -1.23076490
v -1.70029363 -5.85755638 -1.24562071
v -1.69053480 -5.85979976 -1.23332244
v -1.70281393 -5.85503751 -1.24562575
v -1.70281325 -5.85503923 -1.26570384
v -1.70029403 -5.85755410 -1.26570611
v -1.70281958 -5.89519778 -1.24562620
v -1.71785355 -5.89519630 -1.26570091
v -1.70281243 -5.89519666 -1.26570515
v -1.71785489 -5.89519745 -1.24562701
v -1.69923988 -5.89519772 -1.23859246
v -1.69923633 -5.89519719 -1.23858964
v -1.69187393 -5.89267752 -1.23158848
v -1.69187316 -5.89267584 -1.23158815
v -1.69187147 -5.89267575 -1.23159038
v -1.69053292 -5.89047196 -1.23332342
v -1.69053506 -5.85980599 -1.23332460
v -1.70030025 -5.89267814 -1.24562300
v -1.69695211 -5.85755657 -1.23959540
v -1.69695248 -5.85755515 -1.23959390
v -1.69695519 -5.89267372 -1.23959816
v -1.69695114 -5.89267467 -1.23959616
v -1.70029253 -5.85755664 -1.24563048
v -1.69053588 -5.85980213 -1.23332360
v -1.69053522 -5.89047036 -1.23332131
v -1.70029778 -5.89267594 -1.26570552
v -1.70029853 -5.85756150 -1.24562569
v -1.70029548 -5.89267638 -1.24562938
v -1.70029588 -5.85756126 -1.26570633
v -1.70029583 -5.89267995 -1.26570223
v -1.70280855 -5.89519535 -1.24562911
v -1.70281564 -5.89520053 -1.26570492
v -1.70029411 -5.89267488 -1.24562908
v -1.69923507 -5.89519356 -1.23858686
v -1.69923764 -5.89519875 -1.23859123
v -1.70282247 -5.89519790 -1.24562713
v -1.70281612 -5.89520060 -1.24562706
v -1.69695268 -5.89267445 -1.23959775
v -1.69695141 -5.89267699 -1.23959394
v -1.69695723 -5.89267727 -1.23959344
v -1.69053560 -5.89047634 -1.23332129
v -1.69053380 -5.89047311 -1.23332510
v -1.69053657 -5.89047322 -1.23332437
v -1.70030034 -5.89267837 -1.24562659
v -1.85789925 -5.88862202 -1.21564865
v -1.85789565 -5.88861616 -1.21564698
v -1.87053828 -5.86311657 -1.21555862
v -1.87053448 -5.86311273 -1.21555768
v -1.87053664 -5.88712482 -1.21555921
v -1.85789693 -5.86161825 -1.21564999
v -1.85789833 -5.86161743 -1.21564402
v -1.87053606 -5.86310617 -1.21556008
v -1.87053526 -5.86310670 -1.21555760
v -1.87053417 -5.86310906 -1.21556189
v -1.85789895 -5.86161623 -1.21564835
v -1.85789935 -5.86161388 -1.21564906
v -1.85789804 -5.86161386 -1.21565054
v -1.87053738 -5.86141833 -1.21726819
v -1.87053371 -5.86141512 -1.21726740
v -1.87053770 -5.86141532 -1.21727371
v -1.89313318 -5.86515623 -1.21555423
v -1.89313433 -5.86515771 -1.21555541
v -1.89313615 -5.88511687 -1.21555917
v -1.89313459 -5.88511742 -1.21555685
v -1.85790029 -5.88862085 -1.21564842
v -1.85790114 -5.88861783 -1.21564606
v -1.85790016 -5.88862333 -1.21564688
v -1.87053594 -5.88713058 -1.21555568
v -1.85828855 -5.89054564 -1.21753774
v -1.85828808 -5.89054315 -1.21753910
v -1.84242676 -5.89047182 -1.21944126
v -1.84242731 -5.85980519 -1.21944302
v -1.89314054 -5.86374243 -1.21726890
v -1.85829008 -5.85968863 -1.21753371
v -1.85829220 -5.85968579 -1.21753962
v -1.85828836 -5.85968540 -1.21753887
v -1.89313218 -5.88511802 -1.21555814
v -1.89313844 -5.88511666 -1.21556199
v -1.87054024 -5.88885387 -1.21727425
v -1.87053421 -5.88885941 -1.21727269
v -1.89313108 -5.86516016 -1.21555742
v -1.89624170 -5.86676886 -1.21667328
v -1.89623999 -5.88345993 -1.21666850
v -1.84376070 -5.89267524 -1.22116911
v -1.84375647 -5.89267836 -1.22117406
v -1.84242277 -5.89047223 -1.21944379
v -1.84242306 -5.89047000 -1.21944362
v -1.82828770 -5.89267281 -1.23157723
v -1.84242292 -5.85980031 -1.21943998
v -1.84242116 -5.89047144 -1.21944365
v -1.82829172 -5.85755784 -1.23158071
v -1.84242695 -5.85980118 -1.21944444
v -1.84242310 -5.85980447 -1.21944109
v -1.84242395 -5.85979980 -1.21944245
v -1.89313190 -5.86374085 -1.21727087
v -1.87053254 -5.86141483 -1.22756142
v -1.87053203 -5.86141718 -1.22755625
v -1.89313412 -5.86373798 -1.22756039
v -1.87053434 -5.86141739 -1.21727168
v -1.85829003 -5.85968484 -1.21754314
v -1.85828632 -5.85968198 -1.21753980
v -1.85829212 -5.85968611 -1.21753623
v -1.89313072 -5.88653642 -1.21726864
v -1.89313500 -5.86515905 -1.21555716
v -1.89313257 -5.86515898 -1.21556483
v -1.89313060 -5.86373879 -1.21727543
v -1.89624113 -5.86559086 -1.21810481
v -1.89624025 -5.86559272 -1.21810369
v -1.89313057 -5.88511584 -1.21555417
v -1.89624098 -5.88346580 -1.21666795
v -1.89624552 -5.88346554 -1.21667505
v -1.89313259 -5.88653286 -1.21726761
v -1.89313113 -5.88653721 -1.21727237
v -1.89624423 -5.86676940 -1.21667475
v -1.89624045 -5.88346444 -1.21667213
v -1.89623879 -5.88468567 -1.22672339
v -1.89624630 -5.88468657 -1.21810958
v -1.89624459 -5.88346286 -1.22816276
v -1.89624189 -5.86677116 -1.21667544
v -1.89624609 -5.86677107 -1.22816119
v -1.89624361 -5.86559408 -1.21810947
v -1.89624442 -5.86558676 -1.22672819
v -1.85829124 -5.89055210 -1.21753990
v -1.85828789 -5.89055223 -1.21754095
v -1.85828906 -5.89054933 -1.21753682
v -1.85179302 -5.89267757 -1.23159423
v -1.85179649 -5.89267566 -1.23159330
v -1.84376156 -5.89267791 -1.22117793
v -1.84375933 -5.89267583 -1.22117291
v -1.87053708 -5.88885452 -1.21726861
v -1.87054236 -5.88885765 -1.21726698
v -1.86064986 -5.89055167 -1.22887784
v -1.83061614 -5.89519600 -1.23258653
v -1.83061540 -5.89519366 -1.23258197
v -1.82828951 -5.89267666 -1.23157100
v -1.82328591 -5.89267838 -1.24562215
v -1.82328880 -5.89267449 -1.24562794
v -1.82829098 -5.85755653 -1.23158002
v -1.82829058 -5.89267408 -1.23158103
v -1.82329222 -5.85755719 -1.24563147
v -1.82329051 -5.85755953 -1.24562989
v -1.82829145 -5.85755688 -1.23157729
v -1.84376464 -5.85759691 -1.22117253
v -1.84376550 -5.85759811 -1.22117135
v -1.84376064 -5.85759618 -1.22117695
v -1.87053672 -5.86141369 -1.22755667
v -1.87053480 -5.86141782 -1.22756284
v -1.87053427 -5.86141840 -1.22755868
v -1.89313060 -5.86515536 -1.22927304
v -1.89312653 -5.86515448 -1.22927680
v -1.89313443 -5.86373364 -1.22756005
v -1.89624279 -5.86558634 -1.22672325
v -1.89313246 -5.86373900 -1.21727515
v -1.89313466 -5.86374056 -1.22755836
v -1.89624351 -5.86559043 -1.21809989
v -1.86065066 -5.85968365 -1.22887723
v -1.86065230 -5.85968128 -1.22887979
v -1.89313265 -5.88653846 -1.22755812
v -1.87053436 -5.88885506 -1.22755527
v -1.87053296 -5.88885325 -1.22755426
v -1.89313151 -5.88653469 -1.21727592
v -1.89624185 -5.88468446 -1.21810987
v -1.89624378 -5.86558836 -1.22673084
v -1.89312900 -5.86373840 -1.22755893
v -1.89624304 -5.86676972 -1.22816833
v -1.89312708 -5.86515956 -1.22927685
v -1.89312919 -5.86515544 -1.22927148
v -1.89623999 -5.88346339 -1.22816793
v -1.89624389 -5.86677134 -1.22816470
v -1.89313760 -5.88511511 -1.22927043
v -1.89312856 -5.88512041 -1.22927376
v -1.89624814 -5.88468011 -1.22673264
v -1.89624162 -5.88468146 -1.22672434
v -1.89624179 -5.88346802 -1.22816491
v -1.89313301 -5.88511685 -1.22927234
v -1.89313062 -5.88511235 -1.22927318
v -1.89313332 -5.88653146 -1.21727175
v -1.89624195 -5.88468398 -1.22673355
v -1.89313161 -5.88653490 -1.22755888
v -1.89624304 -5.88468775 -1.21810531
v -1.84442729 -5.89519699 -1.23859271
v -1.84443271 -5.89519135 -1.23859485
v -1.83061062 -5.89519625 -1.23257698
v -1.83060942 -5.89519676 -1.23258588
v -1.82828490 -5.89267264 -1.23158088
v -1.82828666 -5.89267845 -1.23158004
v -1.83061693 -5.89519414 -1.23258122
v -1.82576777 -5.89519280 -1.24562471
v -1.82828707 -5.85755667 -1.23158078
v -1.82328866 -5.85756169 -1.24562874
v -1.82328881 -5.85755586 -1.24562114
v -1.82329136 -5.85755815 -1.24562661
v -1.83061144 -5.85503696 -1.23258099
v -1.83061528 -5.85503744 -1.23257963
v -1.82328989 -5.89267131 -1.24562703
v -1.82329020 -5.89267563 -1.26570461
v -1.82329209 -5.85755866 -1.26569984
v -1.83060765 -5.85503991 -1.23257959
v -1.84376187 -5.85759754 -1.22117318
v -1.84376002 -5.85759787 -1.22117882
v -1.84376510 -5.85759843 -1.22117560
v -1.89313103 -5.86515546 -1.22927237
v -1.87054084 -5.86310742 -1.22927757
v -1.87053181 -5.86310888 -1.22927326
v -1.86065325 -5.85968372 -1.22888204
v -1.86064904 -5.85968530 -1.22888389
v -1.87053194 -5.88885311 -1.22756060
v -1.87053155 -5.88885935 -1.22756417
v -1.87053559 -5.88885658 -1.22755800
v -1.89313206 -5.88653488 -1.22755779
v -1.89313288 -5.88653719 -1.22755903
v -1.87053557 -5.88712663 -1.22927772
v -1.87053606 -5.88712564 -1.22927409
v -1.87053483 -5.88712633 -1.22927351
v -1.87053257 -5.86310799 -1.22927938
v -1.87053584 -5.86310793 -1.22927356
v -1.87053292 -5.88712505 -1.22927708
v -1.87053153 -5.88712935 -1.22927235
v -1.89313237 -5.88653943 -1.22755936
v -1.85179134 -5.89267790 -1.23159298
v -1.85179518 -5.89267849 -1.23159308
v -1.85179331 -5.89267434 -1.23159129
v -1.84671496 -5.89267739 -1.23959565
v -1.84671599 -5.89267255 -1.23959409
v -1.84443372 -5.89519521 -1.23859193
v -1.84443235 -5.89519869 -1.23859143
v -1.86065201 -5.89055157 -1.22888081
v -1.86065624 -5.89055021 -1.22887678
v -1.86064625 -5.89055100 -1.22887461
v -1.85312925 -5.89047257 -1.23332193
v -1.85313343 -5.89046785 -1.23332600
v -1.86104747 -5.88861827 -1.23076724
v -1.86104883 -5.88862123 -1.23076561
v -1.86104591 -5.88862110 -1.23076504
v -1.82576661 -5.89519938 -1.24562740
v -1.84084493 -5.89519528 -1.26570334
v -1.82576731 -5.89519409 -1.26570615
v -1.84085032 -5.89519950 -1.24562165
v -1.82577175 -5.85503905 -1.24562691
v -1.82576639 -5.85504292 -1.24562653
v -1.82576592 -5.89519367 -1.26570289
v -1.82328924 -5.89267187 -1.26570824
v -1.82328605 -5.85755729 -1.26570243
v -1.82576836 -5.85503792 -1.26570155
v -1.83061576 -5.85504166 -1.23258150
v -1.85179430 -5.85759785 -1.23158578
v -1.85179592 -5.85759634 -1.23158888
v -1.85178835 -5.85760187 -1.23159127
v -1.86104854 -5.86161038 -1.23076907
v -1.86104310 -5.86160966 -1.23076474
v -1.86104624 -5.86161777 -1.23076650
v -1.89313600 -5.88511873 -1.22927436
v -1.86104816 -5.86161133 -1.23076730
v -1.86105134 -5.88862455 -1.23077024
v -1.86104818 -5.88861862 -1.23076566
v -1.84336583 -5.89267969 -1.24562034
v -1.84336677 -5.89267018 -1.24562866
v -1.84084863 -5.89518985 -1.24562919
v -1.84336562 -5.89267726 -1.26570604
v -1.84084161 -5.89519911 -1.26570164
v -1.84084433 -5.85504105 -1.24563131
v -1.82577362 -5.85504051 -1.26570337
v -1.84084631 -5.85503894 -1.26570422
v -1.82576654 -5.85503648 -1.24562546
v -1.84443274 -5.85503645 -1.23859090
v -1.84443307 -5.85503993 -1.23858821
v -1.85178969 -5.85759963 -1.23159521
v -1.85179292 -5.85760059 -1.23158799
v -1.85179540 -5.85759254 -1.23158958
v -1.85313000 -5.85980598 -1.23332937
v -1.85313198 -5.89047174 -1.23332027
v -1.84671773 -5.85756191 -1.23959951
v -1.84671489 -5.85755677 -1.23959764
v -1.84336806 -5.89267826 -1.24563130
v -1.84671580 -5.89267422 -1.23959597
v -1.84671996 -5.89267690 -1.23959189
v -1.84336123 -5.85755790 -1.24562846
v -1.85313743 -5.89047638 -1.23332235
v -1.85313174 -5.85980220 -1.23332280
v -1.84337066 -5.85756264 -1.24562605
v -1.84336882 -5.89267304 -1.26570769
v -1.84336236 -5.89267810 -1.24562586
v -1.84336613 -5.85755948 -1.26570912
v -1.84336794 -5.85755468 -1.24562972
v -1.84085190 -5.85503901 -1.26570500
v -1.84337002 -5.85756053 -1.26570518
v -1.84084823 -5.85503803 -1.24562461
v -1.84443016 -5.85503757 -1.23858705
v -1.84442834 -5.85504594 -1.23859230
v -1.84085122 -5.85504022 -1.24562445
v -1.84084768 -5.85503955 -1.24562305
v -1.84672017 -5.85755883 -1.23959398
v -1.84671625 -5.85756158 -1.23959545
v -1.84671423 -5.85755768 -1.23959458
v -1.85313153 -5.85980251 -1.23332531
v -1.85313312 -5.85980175 -1.23333013
v -1.85313038 -5.85980199 -1.23332491
v -1.84336862 -5.85755912 -1.24562537
vt 0.58277619 0.32105738
vt 0.43516189 0.40647131
vt 0.53340000 0.40630001
vt 0.38630000 0.32139999
vt 0.53340000 0.23650002
vt 0.43516189 0.23667133
vt 0.16670001 0.54610002
vt 0.33329999 0.65730000
vt 0.33329999 0.54610002
vt 0.16670001 0.65730000
vt 0.16670001 0.54610002
vt -0.00000000 0.65730000
vt 0.16670001 0.65730000
vt -0.00000000 0.54610002
vt 1.00000000 0.65730000
vt 0.83329999 0.54610002
vt 0.83329999 0.65730000
vt 1.00000000 0.54610002
vt 0.66670001 0.65730000
vt 0.83329999 0.54610002
vt 0.66670001 0.54610002
vt 0.83329999 0.65730000
vt 0.66670001 0.65730000
vt 0.50000000 0.54610002
vt 0.50000000 0.65730000
vt 0.66670001 0.54610002
vt 0.50000000 0.54610002
vt 0.33329999 0.65730000
vt 0.50000000 0.65730000
vt 0.33329999 0.54610002
vt 0.38660839 0.14407498
vt 0.53319579 0.05866247
vt 0.43529999 0.05879998
vt 0.58240002 0.14380002
vt 0.43529999 0.22869998
vt 0.53319579 0.22856247
vt 0.38630000 0.32139999
vt 0.53340000 0.23650002
vt 0.43550420 0.23667067
vt 0.58209163 0.32105857
vt 0.43550420 0.40647072
vt 0.53340000 0.40630001
vt 0.16670001 0.65730000
vt 0.33329999 0.54610002
vt 0.16670001 0.54610002
vt 0.33329999 0.65730000
vt 0.16670001 0.65730000
vt -0.00000000 0.54610002
vt -0.00000000 0.65730000
vt 0.16670001 0.54610002
vt 1.00000000 0.54610002
vt 0.83329999 0.65730000
vt 1.00000000 0.65730000
vt 0.83329999 0.54610002
vt 0.66670001 0.54610002
vt 0.83329999 0.65730000
vt 0.83329999 0.54610002
vt 0.66670001 0.65730000
vt 0.66670001 0.54610002
vt 0.50000000 0.65730000
vt 0.66670001 0.65730000
vt 0.50000000 0.54610002
vt 0.50000000 0.65730000
vt 0.33329999 0.54610002
vt 0.33329999 0.65730000
vt 0.50000000 0.54610002
vt 0.58240002 0.14380002
vt 0.43529999 0.22869998
vt 0.53353810 0.22856200
vt 0.38592380 0.14407599
vt 0.53353810 0.05866200
vt 0.43529999 0.05879998
vt 0.38630000 0.32139999
vt 0.53340000 0.23650002
vt 0.43550420 0.23667067
vt 0.58209163 0.32105857
vt 0.43550420 0.40647072
vt 0.53340000 0.40630001
vt 0.16670001 0.65730000
vt 0.33329999 0.54610002
vt 0.16670001 0.54610002
vt 0.33329999 0.65730000
vt 0.16670001 0.65730000
vt -0.00000000 0.54610002
vt -0.00000000 0.65730000
vt 0.16670001 0.54610002
vt 1.00000000 0.54610002
vt 0.83329999 0.65730000
vt 1.00000000 0.65730000
vt 0.83329999 0.54610002
vt 0.66670001 0.54610002
vt 0.83329999 0.65730000
vt 0.83329999 0.54610002
vt 0.66670001 0.65730000
vt 0.66670001 0.54610002
vt 0.50000000 0.65730000
vt 0.66670001 0.65730000
vt 0.50000000 0.54610002
vt 0.50000000 0.65730000
vt 0.33329999 0.54610002
vt 0.33329999 0.65730000
vt 0.50000000 0.54610002
vt 0.58240002 0.14380002
vt 0.43529999 0.22869998
vt 0.53353810 0.22856200
vt 0.38592380 0.14407599
vt 0.53353810 0.05866200
vt 0.43529999 0.05879998
vt 0.15899999 0.27490002
vt 0.15899999 0.27490002
vt 0.23729999 0.43290001
vt 0.23729999 0.43282902
vt 0.23729999 0.26560003
vt 0.15899999 0.42366529
vt 0.15899999 0.42350000
vt 0.15899999 0.27490002
vt 0.45890000 0.91960001
vt 0.23729999 0.26560003
vt 0.23729999 0.26560003
vt 0.15899999 0.26429999
vt 0.46500000 0.91090000
vt 0.15899999 0.26429999
vt 0.01919996 0.28750002
vt 0.01919996 0.28750002
vt 0.01919996 0.41100848
vt 0.01919996 0.41100001
vt 0.15899999 0.42350000
vt 0.12970001 0.56169999
vt 0.15899999 0.42350000
vt 0.23489989 0.44480002
vt 0.23729999 0.43290001
vt 0.23729999 0.43290001
vt 0.33300000 0.44419998
vt 0.33300000 0.25430000
vt 0.35060000 0.83050013
vt 0.23489989 0.25360000
vt 0.23489989 0.25360000
vt 0.01239997 0.63779998
vt 0.01239997 0.63779998
vt 0.13550000 0.57060003
vt 0.15899999 0.43409997
vt 0.13550000 0.57060003
vt 0.34450001 0.83920002
vt -0.00000000 0.29750001
vt -0.00000000 0.40078211
vt 0.32470000 0.45770001
vt 0.32470000 0.45770001
vt 0.28770000 0.50080001
vt 0.33300000 0.44419998
vt 0.28880000 0.48720002
vt 0.28880000 0.48720002
vt 0.33300000 0.25430000
vt 0.42039999 0.45800000
vt 0.42039999 0.24049997
vt 0.33300000 0.44424671
vt 0.33300000 0.25430000
vt 0.38730001 0.77840006
vt 0.46500000 0.91090000
vt 0.50160003 0.85879999
vt 0.35069999 0.83050013
vt 0.52800000 0.95319998
vt 0.52800000 0.95319998
vt 0.01819998 0.64670002
vt 0.34450001 0.83920002
vt 0.34450001 0.83920002
vt 0.35060000 0.83050013
vt 0.33790001 0.81529999
vt 0.33790001 0.81529999
vt 0.01239997 0.63779998
vt 0.00000000 0.65400004
vt -0.00000000 0.65400004
vt 0.01819998 0.64670002
vt 0.33280000 0.82249999
vt 0.06221144 0.93508333
vt 0.00001004 0.92758143
vt 0.00887571 0.93514442
vt 0.07109999 0.92750001
vt 0.00000000 0.82400012
vt 0.07108995 0.82391870
vt 0.00886422 0.81666112
vt 0.06219995 0.81659997
vt 0.20000000 0.53079998
vt 0.20000000 0.53079998
vt 0.20000000 0.53079998
vt 0.28099999 0.58190000
vt 0.28099999 0.58190000
vt 0.28770000 0.50080001
vt 0.28770000 0.50080001
vt 0.13550000 0.57060003
vt 0.13550000 0.57069999
vt 0.13550000 0.57060003
vt 0.22589990 0.59759998
vt 0.22589990 0.59759998
vt 0.39440000 0.51569998
vt 0.40300000 0.50269997
vt 0.23300000 0.21120000
vt 0.01549994 0.12430000
vt 0.01549994 0.12430000
vt 0.01549994 0.21120000
vt 0.23300000 0.12430000
vt 0.23300000 0.12430000
vt 0.61510003 1.00000000
vt 0.72979999 0.98879999
vt 0.72979999 0.98879999
vt 0.61449999 0.98640001
vt 0.61449999 0.98640001
vt 0.32470000 0.24070001
vt 0.38730001 0.77840006
vt 0.50160003 0.85879999
vt 0.50160003 0.85879999
vt 0.39340001 0.76980007
vt 0.39340001 0.76980007
vt 0.36860001 0.77160001
vt 0.35060000 0.83050013
vt 0.38730001 0.77840006
vt 0.33784109 0.81526589
vt 0.55640000 0.88740003
vt 0.17010000 0.62409997
vt 0.17010000 0.62409997
vt 0.01819998 0.64670002
vt 0.05279999 0.70010000
vt 0.00479996 0.66149998
vt 0.36860001 0.77160001
vt 0.38730001 0.77840006
vt 0.37369999 0.76429999
vt 0.37369999 0.76429999
vt 0.56019998 0.56169999
vt 0.57940000 0.67519999
vt 0.57940000 0.67512536
vt 0.57940000 0.55170000
vt 0.57940000 0.55170000
vt 0.56019998 0.66498208
vt 0.03389996 0.70630002
vt 0.03869998 0.71370000
vt 0.05859994 0.70899999
vt 0.01819998 0.64670002
vt 0.03379882 0.70625550
vt 0.05279999 0.70010000
vt 0.00479996 0.66149998
vt 0.34290001 0.59340000
vt 0.34290001 0.59340000
vt 0.34278190 0.59347057
vt 0.39440000 0.51569998
vt 0.39440000 0.51569998
vt 0.40300000 0.50269997
vt 0.40300000 0.50269997
vt 0.39440000 0.51569998
vt 0.46329999 0.56720001
vt 0.46329999 0.56720001
vt 0.24850000 0.12430000
vt 0.72979999 0.98879999
vt 0.80519998 0.93550003
vt 0.01549994 0.12430000
vt 0.72170001 0.97549999
vt 0.47639999 0.55879998
vt 0.23300000 0.12430000
vt 0.01549994 0.00000000
vt 0.23300000 0.00000000
vt 0.72170001 0.97549999
vt 0.61449999 0.98640001
vt 0.61449999 0.98640001
vt 0.39340001 0.76980007
vt 0.50770003 0.85020000
vt 0.50770003 0.85020000
vt 0.50770003 0.85020000
vt 0.55640000 0.88740003
vt 0.55640000 0.88740003
vt 0.17010000 0.62409997
vt 0.17010000 0.62409997
vt 0.17010000 0.62409997
vt 0.05279999 0.70010000
vt 0.05279999 0.70010000
vt 0.17590000 0.63300002
vt 0.17590000 0.63300002
vt 0.71920002 0.68770003
vt 0.71920002 0.68796527
vt 0.71920002 0.53920001
vt 0.05279999 0.70010000
vt 0.28099999 0.58190000
vt 0.28099999 0.58190000
vt 0.33430001 0.60630000
vt 0.33430001 0.60630000
vt 0.34290001 0.59340000
vt 0.22589990 0.59759998
vt 0.22589990 0.59759998
vt 0.27990001 0.59539998
vt 0.27990001 0.59539998
vt 0.28099999 0.58190000
vt 0.23019990 0.60870004
vt 0.23019990 0.60870004
vt 0.23019990 0.60870004
vt 0.46329999 0.56720001
vt 0.45270780 0.72208911
vt 0.53090781 0.67138910
vt 0.38510001 0.61790001
vt 0.79250002 0.92659998
vt 0.00000000 0.12430000
vt 0.24850000 0.00000000
vt 0.23300000 0.00000000
vt 0.01549994 0.00000000
vt 0.00000000 0.00000000
vt 0.72170001 0.97549999
vt 0.72177488 0.97549170
vt 0.72170001 0.97549999
vt 0.61089998 0.90509999
vt 0.61089998 0.90509999
vt 0.61089998 0.90509999
vt 0.56110001 0.87639999
vt 0.56110001 0.87639999
vt 0.56110001 0.87639999
vt 0.05859994 0.70899999
vt 0.77800000 0.69710004
vt 0.77800000 0.69702899
vt 0.77800000 0.52980000
vt 0.77800000 0.52980000
vt 0.37210000 0.62639999
vt 0.17919990 0.76700002
vt 0.27990001 0.59539998
vt 0.38510001 0.61790001
vt 0.17919990 0.75150001
vt 0.30350000 0.75150001
vt 0.30350000 0.76700002
vt 0.71630001 0.87300003
vt 0.86390001 0.82499999
vt 0.78770000 0.77139997
vt 0.79250002 0.92659998
vt 0.67312962 0.89583141
vt 0.67320001 0.89590001
vt 0.61089998 0.90509999
vt 0.61089998 0.90509999
vt 0.82690001 0.70840001
vt 0.82690001 0.51849997
vt 0.17919990 0.98449999
vt 0.14190000 0.76700002
vt 0.86669999 0.50470001
vt 0.14190000 0.98449999
vt 0.86669999 0.72220004
vt 0.17919990 0.76700002
vt 0.82690001 0.51849997
vt 0.82690001 0.70844674
vt 0.30350000 0.98449999
vt 0.17919990 0.76700002
vt 0.17919990 0.98449999
vt 0.30350000 0.76700002
vt 0.30350000 0.98449999
vt 0.17919990 1.00000000
vt 0.30350000 1.00000000
vt 0.17919990 0.98449999
vt 0.67320001 0.89590001
vt 0.71630001 0.87300003
vt 0.66509998 0.88270003
vt 0.66509998 0.88270003
vt 0.66509998 0.88270003
vt 0.61030000 0.89160001
vt 0.61030000 0.89160001
vt 0.70359999 0.86409998
vt 0.15899999 0.27490002
vt 0.15899999 0.27490002
vt 0.23729999 0.43290001
vt 0.23729999 0.43282902
vt 0.23729999 0.26560003
vt 0.15899999 0.42366529
vt 0.15899999 0.42350000
vt 0.15899999 0.27490002
vt 0.45890000 0.91960001
vt 0.23729999 0.26560003
vt 0.23729999 0.26560003
vt 0.15899999 0.26429999
vt 0.46500000 0.91090000
vt 0.15899999 0.26429999
vt 0.01919996 0.28750002
vt 0.01919996 0.28750002
vt 0.01919996 0.41100848
vt 0.01919996 0.41100001
vt 0.15899999 0.42350000
vt 0.12970001 0.56169999
vt 0.15899999 0.42350000
vt 0.23489989 0.44480002
vt 0.23489989 0.44480002
vt 0.23729999 0.43290001
vt 0.23729999 0.43290001
vt 0.33300000 0.44419998
vt 0.33300000 0.25430000
vt 0.35060000 0.83050013
vt 0.35060000 0.83050013
vt 0.23489989 0.25360000
vt 0.23489989 0.25360000
vt 0.23489989 0.25360000
vt 0.01239997 0.63779998
vt 0.01239997 0.63779998
vt 0.13550000 0.57060003
vt 0.15899999 0.43409997
vt 0.13550000 0.57060003
vt 0.34450001 0.83920002
vt -0.00000000 0.29750001
vt -0.00000000 0.40078211
vt 0.32470000 0.45770001
vt 0.32470000 0.45770001
vt 0.28770000 0.50080001
vt 0.33300000 0.44419998
vt 0.28880000 0.48720002
vt 0.28880000 0.48720002
vt 0.33300000 0.25430000
vt 0.42039999 0.45800000
vt 0.42039999 0.24049997
vt 0.33300000 0.44424671
vt 0.33300000 0.25430000
vt 0.38730001 0.77840006
vt 0.46500000 0.91090000
vt 0.50160003 0.85879999
vt 0.50160003 0.85879999
vt 0.35069999 0.83050013
vt 0.52800000 0.95319998
vt 0.01819998 0.64670002
vt 0.34450001 0.83920002
vt 0.34450001 0.83920002
vt 0.35060000 0.83050013
vt 0.33790001 0.81529999
vt 0.33790001 0.81529999
vt 0.01239997 0.63779998
vt 0.00000000 0.65400004
vt -0.00000000 0.65400004
vt 0.01819998 0.64670002
vt 0.33280000 0.82249999
vt 0.06221144 0.93508333
vt 0.00001004 0.92758143
vt 0.00887571 0.93514442
vt 0.07109999 0.92750001
vt 0.00000000 0.82400012
vt 0.07108995 0.82391870
vt 0.00886422 0.81666112
vt 0.06219995 0.81659997
vt 0.20000000 0.53079998
vt 0.20000000 0.53079998
vt 0.20000000 0.53079998
vt 0.28099999 0.58190000
vt 0.28099999 0.58190000
vt 0.28770000 0.50080001
vt 0.28770000 0.50080001
vt 0.28770000 0.50080001
vt 0.13550000 0.57060003
vt 0.13550000 0.57069999
vt 0.13550000 0.57060003
vt 0.22589990 0.59759998
vt 0.22589990 0.59759998
vt 0.39440000 0.51569998
vt 0.40300000 0.50269997
vt 0.23300000 0.21120000
vt 0.01549994 0.12430000
vt 0.01549994 0.12430000
vt 0.01549994 0.21120000
vt 0.23300000 0.12430000
vt 0.23300000 0.12430000
vt 0.61510003 1.00000000
vt 0.72979999 0.98879999
vt 0.72979999 0.98879999
vt 0.61449999 0.98640001
vt 0.61449999 0.98640001
vt 0.32470000 0.24070001
vt 0.38730001 0.77840006
vt 0.50160003 0.85879999
vt 0.50160003 0.85879999
vt 0.39340001 0.76980007
vt 0.39340001 0.76980007
vt 0.36860001 0.77160001
vt 0.35060000 0.83050013
vt 0.38730001 0.77840006
vt 0.33784109 0.81526589
vt 0.55640000 0.88740003
vt 0.17010000 0.62409997
vt 0.17010000 0.62409997
vt 0.01819998 0.64670002
vt 0.05279999 0.70010000
vt 0.00479996 0.66149998
vt 0.36860001 0.77160001
vt 0.38730001 0.77840006
vt 0.37369999 0.76429999
vt 0.37369999 0.76429999
vt 0.56019998 0.56169999
vt 0.57940000 0.67519999
vt 0.57940000 0.67512536
vt 0.57940000 0.55170000
vt 0.57940000 0.55170000
vt 0.56019998 0.66498208
vt 0.03389996 0.70630002
vt 0.03869998 0.71370000
vt 0.05859994 0.70899999
vt 0.01819998 0.64670002
vt 0.03379882 0.70625550
vt 0.05279999 0.70010000
vt 0.00479996 0.66149998
vt 0.34290001 0.59340000
vt 0.34290001 0.59340000
vt 0.34278190 0.59347057
vt 0.39440000 0.51569998
vt 0.39440000 0.51569998
vt 0.40300000 0.50269997
vt 0.40300000 0.50269997
vt 0.39440000 0.51569998
vt 0.46329999 0.56720001
vt 0.46329999 0.56720001
vt 0.24850000 0.12430000
vt 0.72979999 0.98879999
vt 0.80519998 0.93550003
vt 0.01549994 0.12430000
vt 0.72170001 0.97549999
vt 0.47639999 0.55879998
vt 0.23300000 0.12430000
vt 0.01549994 0.00000000
vt 0.23300000 0.00000000
vt 0.72170001 0.97549999
vt 0.61449999 0.98640001
vt 0.61449999 0.98640001
vt 0.39340001 0.76980007
vt 0.50770003 0.85020000
vt 0.50770003 0.85020000
vt 0.50770003 0.85020000
vt 0.55640000 0.88740003
vt 0.55640000 0.88740003
vt 0.55640000 0.88740003
vt 0.17010000 0.62409997
vt 0.17010000 0.62409997
vt 0.17010000 0.62409997
vt 0.05279999 0.70010000
vt 0.05279999 0.70010000
vt 0.17590000 0.63300002
vt 0.71920002 0.68770003
vt 0.71920002 0.68796527
vt 0.71920002 0.53920001
vt 0.71920002 0.53920001
vt 0.05279999 0.70010000
vt 0.28099999 0.58190000
vt 0.28099999 0.58190000
vt 0.33430001 0.60630000
vt 0.33430001 0.60630000
vt 0.34290001 0.59340000
vt 0.34290001 0.59340000
vt 0.22589990 0.59759998
vt 0.22589990 0.59759998
vt 0.27990001 0.59539998
vt 0.27990001 0.59539998
vt 0.28099999 0.58190000
vt 0.23019990 0.60870004
vt 0.23019990 0.60870004
vt 0.23019990 0.60870004
vt 0.46329999 0.56720001
vt 0.45270780 0.72208911
vt 0.53090781 0.67138910
vt 0.38510001 0.61790001
vt 0.79250002 0.92659998
vt 0.00000000 0.12430000
vt 0.24850000 0.00000000
vt 0.23300000 0.00000000
vt 0.01549994 0.00000000
vt 0.00000000 0.00000000
vt 0.72170001 0.97549999
vt 0.72177488 0.97549170
vt 0.72170001 0.97549999
vt 0.61089998 0.90509999
vt 0.61089998 0.90509999
vt 0.61089998 0.90509999
vt 0.56110001 0.87639999
vt 0.56110001 0.87639999
vt 0.56110001 0.87639999
vt 0.05859994 0.70899999
vt 0.77800000 0.69710004
vt 0.77800000 0.69702899
vt 0.77800000 0.52980000
vt 0.77800000 0.52980000
vt 0.37210000 0.62639999
vt 0.17919990 0.76700002
vt 0.27990001 0.59539998
vt 0.38510001 0.61790001
vt 0.17919990 0.75150001
vt 0.30350000 0.75150001
vt 0.30350000 0.76700002
vt 0.71630001 0.87300003
vt 0.86390001 0.82499999
vt 0.78770000 0.77139997
f 1/1 2/2 3/3
f 2/2 1/1 4/4
f 4/4 1/1 5/5
f 4/4 5/5 6/6
f 7/7 8/8 9/9
f 8/8 7/7 10/10
f 11/11 12/12 13/13
f 12/12 11/11 14/14
f 15/15 16/16 17/17
f 16/16 15/15 18/18
f 19/19 20/20 21/21
f 20/20 19/19 22/22
f 23/23 24/24 25/25
f 24/24 23/23 26/26
f 27/27 28/28 29/29
f 28/28 27/27 30/30
f 31/31 32/32 33/33
f 32/32 31/31 34/34
f 34/34 31/31 35/35
f 34/34 35/35 36/36
f 37/37 38/38 39/39
f 38/38 37/37 40/40
f 40/40 37/37 41/41
f 40/40 41/41 42/42
f 43/43 44/44 45/45
f 44/44 43/43 46/46
f 47/47 48/48 49/49
f 48/48 47/47 50/50
f 51/51 52/52 53/53
f 52/52 51/51 54/54
f 55/55 56/56 57/57
f 56/56 55/55 58/58
f 59/59 60/60 61/61
f 60/60 59/59 62/62
f 63/63 64/64 65/65
f 64/64 63/63 66/66
f 67/67 68/68 69/69
f 68/68 67/67 70/70
f 70/70 67/67 71/71
f 70/70 71/71 72/72
f 73/73 75/75 77/77
f 75/75 73/73 79/79
f 81/81 84/84 87/87
f 90/90 80/80 74/74
f 80/80 90/90 92/92
f 94/94 97/97 100/100
f 78/78 103/103 104/104
f 103/103 78/78 76/76
f 105/105 82/82 88/88
f 89/89 85/85 107/107
f 95/95 110/110 112/112
f 114/114 83/83 106/106
f 115/115 93/93 91/91
f 93/93 115/115 116/116
f 101/101 98/98 117/117
f 96/96 113/113 99/99
f 102/102 117/117 119/119
f 121/121 122/122 123/123
f 122/122 121/121 124/124
f 86/86 125/125 108/108
f 127/127 128/128 130/130
f 128/128 127/127 131/131
f 129/129 132/132 130/130
f 111/111 134/134 113/113
f 135/135 136/136 137/137
f 138/138 139/139 141/141
f 135/135 137/137 143/143
f 144/144 145/145 146/146
f 145/145 144/144 147/147
f 145/145 147/147 148/148
f 148/148 147/147 149/149
f 148/148 149/149 150/150
f 150/150 149/149 151/151
f 152/152 155/155 157/157
f 159/159 160/160 153/153
f 119/119 118/118 162/162
f 120/120 163/163 164/164
f 165/165 166/166 168/168
f 166/166 165/165 169/169
f 171/171 172/172 173/173
f 109/109 126/126 175/175
f 176/176 177/177 180/180
f 182/182 183/183 184/184
f 183/183 182/182 185/185
f 132/132 186/186 130/130
f 188/188 189/189 190/190
f 189/189 188/188 159/159
f 140/140 191/191 142/142
f 192/192 193/193 194/194
f 195/195 196/196 198/198
f 196/196 195/195 200/200
f 201/201 203/203 204/204
f 206/206 207/207 208/208
f 207/207 206/206 209/209
f 158/158 156/156 210/210
f 154/154 161/161 156/156
f 159/159 188/188 161/161
f 158/158 210/210 212/212
f 214/214 216/216 217/217
f 218/218 219/219 222/222
f 217/217 224/224 215/215
f 170/170 225/225 167/167
f 225/225 170/170 226/226
f 174/174 172/172 227/227
f 133/133 228/228 186/186
f 193/193 231/231 194/194
f 181/181 178/178 232/232
f 179/179 234/234 233/233
f 236/236 239/239 241/241
f 199/199 244/244 246/246
f 244/244 199/199 197/197
f 202/202 205/205 248/248
f 249/249 251/251 253/253
f 255/255 258/258 260/260
f 237/237 261/261 256/256
f 263/263 264/264 265/265
f 264/264 263/263 266/266
f 266/266 263/263 213/213
f 266/266 213/213 211/211
f 223/223 220/220 267/267
f 224/224 268/268 269/269
f 268/268 224/224 217/217
f 267/267 270/270 271/271
f 270/270 267/267 221/221
f 229/229 272/272 274/274
f 230/230 275/275 187/187
f 235/235 277/277 233/233
f 238/238 242/242 261/261
f 240/240 279/279 243/243
f 247/247 280/280 282/282
f 280/280 247/247 245/245
f 254/254 252/252 283/283
f 250/250 284/284 252/252
f 257/257 262/262 259/259
f 254/254 283/283 285/285
f 286/286 283/283 287/287
f 283/283 286/286 285/285
f 288/288 289/289 290/290
f 289/289 288/288 291/291
f 291/291 288/288 292/292
f 291/291 292/292 273/273
f 276/276 273/273 293/293
f 235/235 294/294 277/277
f 282/282 297/297 298/298
f 297/297 282/282 281/281
f 299/299 300/300 302/302
f 300/300 299/299 304/304
f 305/305 303/303 301/301
f 303/303 305/305 306/306
f 307/307 308/308 309/309
f 308/308 307/307 310/310
f 311/311 312/312 313/313
f 312/312 311/311 314/314
f 315/315 317/317 319/319
f 295/295 316/316 322/322
f 278/278 296/296 323/323
f 325/325 320/320 318/318
f 324/324 316/316 321/321
f 326/326 328/328 330/330
f 328/328 326/326 331/331
f 333/333 336/336 339/339
f 330/330 342/342 344/344
f 342/342 330/330 329/329
f 346/346 349/349 350/350
f 352/352 332/332 327/327
f 332/332 352/352 353/353
f 334/334 340/340 354/354
f 337/337 355/355 341/341
f 349/349 358/358 360/360
f 335/335 354/354 362/362
f 345/345 363/363 364/364
f 363/363 345/345 343/343
f 347/347 350/350 365/365
f 351/351 349/349 361/361
f 367/367 348/348 365/365
f 369/369 370/370 371/371
f 370/370 369/369 372/372
f 338/338 373/373 356/356
f 376/376 377/377 379/379
f 377/377 376/376 380/380
f 380/380 381/381 378/378
f 359/359 384/384 361/361
f 385/385 387/387 388/388
f 390/390 391/391 393/393
f 386/386 389/389 395/395
f 396/396 397/397 398/398
f 397/397 396/396 399/399
f 399/399 396/396 400/400
f 399/399 400/400 401/401
f 401/401 400/400 402/402
f 401/401 402/402 403/403
f 404/404 407/407 409/409
f 411/411 413/413 405/405
f 367/367 366/366 414/414
f 368/368 415/415 416/416
f 417/417 419/419 420/420
f 419/419 417/417 421/421
f 374/374 423/423 424/424
f 375/375 425/425 357/357
f 427/427 430/430 432/432
f 433/433 434/434 435/435
f 434/434 433/433 436/436
f 382/382 437/437 378/378
f 411/411 439/439 440/440
f 439/439 411/411 442/442
f 392/392 443/443 394/394
f 444/444 445/445 446/446
f 447/447 449/449 450/450
f 449/449 447/447 451/451
f 453/453 455/455 456/456
f 458/458 459/459 460/460
f 459/459 458/458 461/461
f 409/409 407/407 462/462
f 406/406 413/413 408/408
f 412/412 441/441 413/413
f 410/410 462/462 464/464
f 466/466 468/468 469/469
f 470/470 471/471 474/474
f 476/476 467/467 469/469
f 477/477 422/422 418/418
f 422/422 477/477 478/478
f 426/426 423/423 479/479
f 383/383 480/480 437/437
f 445/445 483/483 446/446
f 428/428 484/484 431/431
f 429/429 486/486 485/485
f 488/488 491/491 493/493
f 496/496 452/452 448/448
f 452/452 496/496 498/498
f 454/454 457/457 500/500
f 501/501 504/504 506/506
f 508/508 511/511 502/502
f 489/489 513/513 509/509
f 516/516 517/517 518/518
f 517/517 516/516 519/519
f 519/519 516/516 465/465
f 519/519 465/465 463/463
f 520/520 475/475 472/472
f 522/522 476/476 469/469
f 476/476 522/522 523/523
f 524/524 521/521 473/473
f 521/521 524/524 525/525
f 481/481 526/526 527/527
f 482/482 528/528 438/438
f 487/487 530/530 485/485
f 514/514 490/490 494/494
f 492/492 533/533 495/495
f 534/534 499/499 497/497
f 499/499 534/534 535/535
f 506/506 504/504 537/537
f 503/503 512/512 505/505
f 510/510 515/515 512/512
f 537/537 539/539 507/507
f 539/539 540/540 541/541
f 540/540 539/539 538/538
f 542/542 543/543 544/544
f 543/543 542/542 545/545
f 545/545 542/542 546/546
f 545/545 546/546 526/526
f 529/529 526/526 547/547
f 487/487 548/548 531/531
f 551/551 536/536 534/534
f 536/536 551/551 552/552
f 553/553 555/555 556/556
f 555/555 553/553 558/558
f 554/554 559/559 560/560
f 559/559 554/554 557/557
f 561/561 562/562 563/563
f 562/562 561/561 564/564
f 565/565 566/566 567/567
f 566/566 565/565 568/568
f 569/569 571/571 573/573
f 549/549 570/570 576/576
f 532/532 550/550 577/577
f 574/574 572/572 579/579
f 578/578 570/570 575/575

