# https://github.com/mikedh/trimesh
v 0.77799697 -4.88130026 -0.66337806
v 0.77799674 -5.37319427 -1.62709171
v 0.77800972 -5.37317823 -0.66339261
v 0.77798191 -4.88130557 -1.62709510
v 0.77797044 -4.88130120 -0.66339847
v 0.79806092 -4.88130472 -1.62709897
v 0.77800006 -4.88128755 -1.62709694
v 0.79808364 -4.88130603 -0.66338119
v 0.79807862 -4.88129781 -1.62710359
v 0.77798563 -5.37319343 -1.62709324
v 0.77798468 -4.88130109 -1.62709727
v 0.79807470 -5.37318615 -1.62709178
v 0.79806177 -5.37318988 -0.66337651
v 0.77801177 -5.37320210 -1.62707924
v 0.79808341 -5.37318002 -1.62709276
v 0.77799221 -5.37317270 -0.66336378
v 0.79808834 -5.37317424 -0.66338112
v 0.77798253 -4.88129888 -0.66337789
v 0.77798166 -5.37318420 -0.66338034
v 0.79807638 -4.88131164 -0.66339215
v 0.79806412 -5.37320114 -1.62707680
v 0.79806348 -4.88129527 -0.66338779
v 0.79808598 -5.37317419 -0.66337814
v 0.79804500 -4.88129827 -1.62708815
vt 3.06820011 -0.96290004
vt 3.93820000 -0.02540004
vt 3.93820000 -0.96290004
vt 3.06820011 -0.02540004
vt 174.00000000 -1.00000000
vt 173.00000000 0.00000000
vt 174.00000000 0.00000000
vt 173.00000000 -1.00000000
vt 173.00000000 -3.00000000
vt 174.00000000 -4.00000000
vt 174.00000000 -3.00000000
vt 173.00000000 -4.00000000
vt 173.00000000 -1.00000000
vt 174.00000000 0.00000000
vt 173.00000000 0.00000000
vt 174.00000000 -1.00000000
vt 173.00000000 -4.00000000
vt 174.00000000 -3.00000000
vt 174.00000000 -4.00000000
vt 173.00000000 -3.00000000
vt -3.93039989 -0.02540004
vt -3.06040001 -0.96290004
vt -3.93039989 -0.96290004
vt -3.06040001 -0.02540004
f 1/1 2/2 3/3
f 2/2 1/1 4/4
f 5/5 6/6 7/7
f 6/6 5/5 8/8
f 9/9 10/10 11/11
f 10/10 9/9 12/12
f 13/13 14/14 15/15
f 14/14 13/13 16/16
f 17/17 18/18 19/19
f 18/18 17/17 20/20
f 21/21 22/22 23/23
f 22/22 21/21 24/24

