# https://github.com/mikedh/trimesh
v 0.50738222 -8.25862377 -0.78383675
v 0.50738192 -8.25862972 -1.50662585
v 0.08496307 -8.12947334 -1.50664156
v -0.72145664 -7.88284366 -0.78384550
v 0.50734609 -8.25862505 -0.78386456
v 0.08493305 -8.12949533 -1.50663585
v -0.72143192 -7.88281910 -0.78384801
v 0.08496399 -8.12949711 -1.50662600
v -0.29904674 -8.01196700 -1.50664215
v -0.72145158 -7.88284122 -0.78384286
v -0.29907494 -8.01197147 -1.50663353
v -0.72143001 -7.88283131 -1.50662583
vt -12.36270046 -5.02010012
vt -12.36270046 -1.00219989
vt -15.00710011 -1.00219989
vt -20.05520058 -5.02010012
vt -12.36270046 -5.02010012
vt -15.00710011 -1.00219989
vt -20.05520058 -5.02010012
vt -15.00710011 -1.00219989
vt -17.41119957 -1.00219989
vt -20.05520058 -5.02010012
vt -17.41119957 -1.00219989
vt -20.05520058 -1.00219989
f 1/1 2/2 3/3
f 4/4 5/5 6/6
f 7/7 8/8 9/9
f 10/10 11/11 12/12

