# https://github.com/mikedh/trimesh
v 1.85212847 0.20830123 -0.56298812
v 0.84826583 -0.02259490 -0.56299257
v 0.84828495 0.20831844 -0.56300955
v 1.85210629 -0.02259630 -0.56299767
v 0.84822709 0.20829985 -0.48270722
v 0.84825249 -0.02259504 -0.56300338
v 0.84827072 -0.02256974 -0.48268941
v 0.84828594 0.20829273 -0.56299273
v 0.84827856 0.20830484 -0.48269921
v 1.85211177 0.20829604 -0.56299482
v 0.84824806 0.20830000 -0.56300087
v 1.85213509 0.20830676 -0.48268169
v 1.85211604 -0.02258843 -0.56298583
v 1.85215027 0.20828326 -0.48266322
v 1.85214792 -0.02257391 -0.48268314
v 1.85212146 0.20832658 -0.56296708
v 1.85215519 -0.02256540 -0.48268166
v 0.84824490 -0.02258644 -0.56298787
v 1.85210593 -0.02258007 -0.56299148
v 0.84827526 -0.02260524 -0.48269791
v 0.87837439 -0.02260501 -0.48265963
v 0.84825625 0.20830858 -0.48269148
v 0.84828940 -0.02256531 -0.48267726
v 1.85209134 0.20830417 -0.48267646
v 1.82203017 -0.02259622 -0.48265831
v 1.85210541 -0.02259691 -0.48267245
v 1.82201494 -0.02255452 -0.46260531
v 0.87837125 -0.02259238 -0.48270475
v 1.82199379 -0.02257631 -0.48267809
v 0.87840199 -0.02259847 -0.46258139
v 1.82200958 -0.02256126 -0.48269426
v 1.82200243 0.18822862 -0.46259187
v 1.82201673 -0.02259578 -0.46262970
v 1.82199182 0.18823265 -0.48267158
v 2.29382795 -0.02260357 -0.34213450
v 1.82199375 -0.02259781 -0.46259842
v 2.29379469 -0.02258028 -0.46261759
v 0.87838309 -0.02258765 -0.46260510
v 0.77800667 -0.02259853 -0.46258566
v 0.77800718 -0.02257299 -0.34212985
v 0.87839390 0.18823810 -0.46260711
v 0.87835860 -0.02258852 -0.48269963
v 0.87835867 -0.02258232 -0.46261738
v 0.87836493 0.18820801 -0.48268308
v 0.87838707 0.18824572 -0.46260854
v 1.82203077 0.18824700 -0.48266902
v 0.87834364 0.18824423 -0.48268194
v 1.82202092 0.18823056 -0.46260222
v 0.77800070 0.41910862 -0.34217874
v 0.77799387 -0.02259925 -0.46259110
v 0.77799100 -0.02258511 -0.34216196
v 0.77798746 0.41911416 -0.46263200
v 2.29383536 0.41911265 -0.46262722
v 0.77795737 -0.02257826 -0.46261306
v 0.77798716 0.41911058 -0.46257936
v 0.87838055 -0.02258506 -0.46263203
v 1.82204042 -0.02257181 -0.46259131
v 2.29383133 -0.02257183 -0.46260240
v 0.77800538 0.41911192 -0.34217192
v 2.29384697 0.41908349 -0.46261214
v 0.77799234 0.41909772 -0.46259854
v 2.29382737 0.41910738 -0.34214013
vt 1.65629995 2.52339983
vt 2.43750000 2.34380007
vt 2.43750000 2.52339983
vt 1.65629995 2.34380007
vt -2.52340007 -1.06250000
vt -2.34380007 -1.00000000
vt -2.34380007 -1.06250000
vt -2.52340007 -1.00000000
vt 2.43752599 -1.06250000
vt 1.65629995 -1.00000000
vt 2.43752599 -1.00000000
vt 1.65629995 -1.06250000
vt -2.34380007 -1.00000000
vt -2.52340007 -1.06250000
vt -2.34380007 -1.06250000
vt -2.52340007 -1.00000000
vt 1.65629995 -1.06250000
vt 2.43752599 -1.00000000
vt 1.65629995 -1.00000000
vt 2.43752599 -1.06250000
vt 2.41409993 2.34380007
vt 2.43750000 2.52339983
vt 2.43753791 2.34380007
vt 1.65629995 2.52339983
vt 1.67977202 2.34380007
vt 1.65633798 2.34380007
vt 1.67970002 -1.06250000
vt 2.41409993 -1.04690003
vt 1.67970002 -1.04690003
vt 2.41409993 -1.06250000
vt -2.34380007 -1.04690003
vt -2.50780010 -1.06250000
vt -2.34380007 -1.06250000
vt -2.50780010 -1.04690003
vt 0.65630001 -1.06250000
vt 1.02339995 -0.96879995
vt 0.65619850 -0.96879995
vt 1.75779998 -0.96879995
vt 1.83592701 -0.96879995
vt 1.83602905 -1.06250000
vt -2.50780010 -1.06250000
vt -2.34380007 -1.04690003
vt -2.34380007 -1.06250000
vt -2.50780010 -1.04690003
vt 2.41409993 -1.06250000
vt 1.67970002 -1.04690003
vt 2.41409993 -1.04690003
vt 1.67970002 -1.06250000
vt -2.68750000 -1.06250000
vt -2.34380007 -0.96879995
vt -2.34380007 -1.06250000
vt -2.68750000 -0.96879995
vt 0.65619689 2.68750000
vt 1.83592701 2.34380007
vt 1.83592606 2.68750000
vt 1.75779998 2.34380007
vt 1.02339995 2.34380007
vt 0.65619850 2.34380007
vt 1.83589995 -1.06250000
vt 0.65630001 -0.96879995
vt 1.83589995 -0.96879995
vt 0.65630001 -1.06250000
f 1/1 2/2 3/3
f 2/2 1/1 4/4
f 5/5 6/6 7/7
f 6/6 5/5 8/8
f 9/9 10/10 11/11
f 10/10 9/9 12/12
f 13/13 14/14 15/15
f 14/14 13/13 16/16
f 17/17 18/18 19/19
f 18/18 17/17 20/20
f 21/21 22/22 23/23
f 22/22 21/21 24/24
f 24/24 21/21 25/25
f 24/24 25/25 26/26
f 27/27 28/28 29/29
f 28/28 27/27 30/30
f 31/31 32/32 33/33
f 32/32 31/31 34/34
f 35/35 36/36 37/37
f 36/36 35/35 38/38
f 38/38 35/35 39/39
f 39/39 35/35 40/40
f 41/41 42/42 43/43
f 42/42 41/41 44/44
f 45/45 46/46 47/47
f 46/46 45/45 48/48
f 49/49 50/50 51/51
f 50/50 49/49 52/52
f 53/53 54/54 55/55
f 54/54 53/53 56/56
f 56/56 53/53 57/57
f 57/57 53/53 58/58
f 59/59 60/60 61/61
f 60/60 59/59 62/62

