# https://github.com/mikedh/trimesh
v -3.20732574 5.06698687 -0.34204317
v -3.93012210 -7.54162278 -0.34208655
v -3.92992704 5.06716243 -0.34226183
v -3.20759110 -7.54163703 -0.34213864
v -3.20772441 -4.55007526 -0.34235109
v -3.20746531 -5.86516727 -0.34219682
v -3.20727923 -5.86490915 -0.31205122
v -3.20712391 -7.46132891 -0.34208819
v -3.20719922 -7.46120541 -0.34226631
v -3.20749613 5.06693390 -0.31199358
v -3.20751043 -4.55007370 -0.34217432
v -3.20725821 5.06704328 -0.34208954
v -3.20745255 -5.86509982 -0.34201784
v -3.20714231 -7.54174046 -0.34189909
v -3.20712726 -4.54991258 -0.34210540
v 1.04898458 -5.86484156 -0.34182649
v 1.77211192 -6.58765960 -0.34208723
v 1.04883909 -7.54153637 -0.34203858
v 3.45810829 -5.86501446 -0.34207544
v 4.26152192 -6.58806616 -0.34225301
v 3.53855449 -5.86526903 -0.34186242
v 4.26132802 -5.86502522 -0.34218743
v -3.20712767 -7.54132086 -0.34204234
v -3.93049761 -8.26432198 -0.34203415
v -3.92997584 -7.54163616 -0.34184898
v 1.77160405 -8.26443806 -0.34199326
v -3.93013118 -7.54120991 -0.31200072
v -3.93024216 -8.26439186 -0.34232287
v -3.93034700 -8.26422789 -0.31193684
v -3.92992857 -7.54165840 -0.34187060
v -3.93018591 5.06726447 -0.31209980
v -3.93025880 5.06704899 -0.31186161
v -3.93011297 5.06691311 -0.34236553
v -3.93036715 5.06709013 -0.34198635
v 3.09689954 5.78962870 -0.34200533
v -3.93034744 5.06689237 -0.34204633
v -3.93050519 5.78986632 -0.34224197
v -3.20732841 5.06699605 -0.34211447
v 2.37425111 5.06688500 -0.34191620
v 3.09704438 5.06714561 -0.34195786
v 2.37426630 5.06714567 -0.31201710
v -3.20757829 5.06698639 -0.34227253
v 2.37390674 5.06705040 -0.34223984
v -3.20751371 5.06683869 -0.31198574
v -3.20728785 -7.54132052 -0.31203365
v -3.92996968 5.06723647 -0.31184230
v -3.93052393 -7.54133577 -0.31197614
v -3.20727726 5.06706875 -0.31196714
v -3.20729423 -5.86513712 -0.31233966
v -3.20736391 -5.86520948 -0.31185460
v -3.20743223 -7.54152207 -0.34228357
v -3.20742926 -7.46122258 -0.34238700
v -3.20733634 -7.54155290 -0.34233825
v -3.20773632 -5.86499528 -0.34219378
v 3.45823165 -5.86511715 -0.31173483
v 3.53861739 -5.86506464 -0.34238727
v 3.45858585 -5.86492949 -0.34197181
v 3.53863324 -5.86492962 -0.31196997
v 4.26150844 1.02140968 -0.34238711
v 3.53879285 0.29833499 -0.34218745
v 3.53859222 1.02126480 -0.34204761
v 3.53859290 -5.86514980 -0.34206080
v 4.26133117 -5.86485279 -0.34208819
v 4.26133153 -6.58818981 -0.34235810
v 4.26158549 -5.86508697 -0.31207637
v 4.26167600 -5.86528739 -0.31212559
v 4.26133181 -6.58777815 -0.31213932
v 4.26130891 -5.86533985 -0.34202672
v 4.26153983 -5.86515623 -0.34211880
v 4.26119841 -6.58795029 -0.31180723
v 1.77184093 -6.58749770 -0.34227342
v 4.26150309 -6.58790534 -0.34205332
v 1.77181767 -6.58796483 -0.31217252
v 1.77231761 -8.26434303 -0.34247342
v 1.77171334 -6.58776324 -0.31211272
v 1.77204015 -8.26416738 -0.31205616
v 1.77174203 -6.58803699 -0.34225923
v 1.77157921 -8.26413452 -0.31177262
v -3.93034350 -8.26452267 -0.34243305
v 1.77166206 -8.26483576 -0.34233118
v -3.92992819 -8.26438668 -0.31189237
v -3.20742573 -7.54124923 -0.31199898
v 1.04897350 -7.54112044 -0.34219815
v -3.20758391 -7.54150280 -0.34215168
v 1.04920911 -7.54168557 -0.31190048
v 1.04917436 -5.86518735 -0.31200376
v 1.04890050 -7.54115405 -0.34225991
v 1.04896194 -7.54170903 -0.31208769
v 1.04903469 -5.86495384 -0.34224468
v 1.77178863 -8.26456087 -0.31216598
v -3.92969087 -7.54136626 -0.31215850
v -3.93035672 -8.26448914 -0.31203491
v -3.20734054 -7.54165673 -0.31224067
v 1.04926703 -7.54146217 -0.31209232
v 1.04899975 -5.86516488 -0.31250793
v 1.77183766 -6.58804768 -0.31219449
v 3.45821372 -5.86495961 -0.31222073
v 4.26117537 -6.58776945 -0.31190867
v 3.53846950 -5.86498725 -0.31207776
v 4.26145770 -5.86528386 -0.31189483
v -3.92994342 5.78990710 -0.31193857
v -3.93075280 5.78984586 -0.34215149
v 3.09690235 5.06690578 -0.34213834
v 2.37420522 1.02139153 -0.34222272
v 2.37433823 5.06682855 -0.34197977
v 3.09695503 1.02130360 -0.34219452
v -3.93028882 5.78991328 -0.31197281
v 3.09683569 5.78962417 -0.34209827
v -3.92998342 5.78978495 -0.34207930
v 3.09686510 5.78981446 -0.31207678
v 3.09697410 5.06676276 -0.34204256
v 3.09688887 5.06706670 -0.34220271
v 3.09697838 5.78962899 -0.31183596
v 3.09664915 5.06683931 -0.31199106
v 3.09716423 5.06705361 -0.31206973
v 3.09669445 5.78977235 -0.34215058
v 2.37441319 5.06710956 -0.31227814
v 2.37446788 1.02137018 -0.34229041
v 2.37437810 1.02142635 -0.34220712
v 2.37417377 1.02157188 -0.31186781
v 2.37391448 1.02175954 -0.31187537
v 2.37407650 5.06687519 -0.34230498
v -3.20732612 5.06690295 -0.31215382
v -3.93000719 5.78986277 -0.31209359
v -3.93001972 5.06723080 -0.31220744
v 3.09682813 5.78995680 -0.31191245
v 2.37417506 5.06719745 -0.31220642
v 3.09668566 5.06686741 -0.31200947
v -3.20747569 -7.54161490 -0.31218999
v 3.53852456 0.29848630 -0.31196962
v 3.53875479 -5.86515689 -0.34217908
v 3.53853097 -5.86499232 -0.31201583
v 3.53888481 0.29847155 -0.34208945
v 4.26148092 1.02137581 -0.31193448
v 4.26117468 1.02177911 -0.34236566
v 3.09707590 1.02125207 -0.34196013
v 2.37407559 0.29867552 -0.34213974
v 2.37431724 1.02138213 -0.34263003
v 3.45819423 0.29867963 -0.34222007
v 3.53875072 1.02159961 -0.34217139
v 3.53838317 0.29887491 -0.34197224
v 3.53857682 1.02177740 -0.31208615
v 4.26122371 1.02140908 -0.34197202
v 3.53847299 1.02175185 -0.34229319
v 4.26156395 1.02152301 -0.31205446
v 4.26158446 -5.86532271 -0.31180948
v 3.53861513 0.29856151 -0.31190753
v 3.53879790 -5.86495351 -0.31170505
v 3.53880129 1.02164323 -0.31211722
v 4.26142602 1.02152602 -0.31203229
v 3.09697534 1.02150376 -0.34201002
v 3.09690974 1.02137754 -0.31216414
v 3.09678121 1.02162517 -0.31204315
v 2.37426620 5.06679732 -0.31234469
v 2.37396753 1.02162096 -0.31185565
v 3.09698028 5.06687787 -0.31205068
v 2.37408975 0.29859363 -0.34255609
v 2.37399862 0.29861882 -0.31178272
v 3.53865164 0.29887763 -0.31209344
v 3.45827677 0.29801542 -0.34207305
v 3.53871449 0.29893666 -0.34222760
v 3.45833319 0.29853498 -0.31222074
v 3.09681027 1.02137832 -0.31180891
v 3.53862585 1.02130584 -0.34212427
v 3.09696166 1.02132444 -0.34196138
v 3.53831831 1.02139970 -0.31192121
v 3.45810015 0.29870852 -0.31181908
v 2.37421198 1.02115950 -0.31214786
v 2.37433864 0.29869828 -0.31203100
v 3.09699804 1.02155173 -0.31214465
v 3.53857825 1.02145769 -0.31211789
v 3.53860378 0.29886088 -0.31218684
vt 5.71880198 6.30468607
vt 6.28130198 -3.50780392
vt 6.28130198 6.30470085
vt 5.71883202 -3.50781822
vt 5.71880198 -1.17970896
vt 2.20312190 -1.06250310
vt 2.20310903 -1.08590007
vt 3.44530702 -1.06250310
vt 3.44530010 -1.06250000
vt -6.30469704 -1.08590007
vt 1.17970395 -1.06250000
vt -6.30468416 -1.06250000
vt -670.38378906 595.76092529
vt -838.02941895 595.76110840
vt -538.87982178 595.76391602
vt 1.62501299 -2.20313311
vt 1.06251299 -2.76563311
vt 1.62500000 -3.50780010
vt -0.24996990 -2.20313311
vt -0.87496758 -2.76563311
vt -0.31246760 -2.20313311
vt -0.87496209 -2.20313311
vt 4.93749094 -3.50780010
vt 5.49995804 -4.07030010
vt 5.49996424 -3.50780010
vt 1.06250000 -4.07030010
vt 3.50780511 -1.08590007
vt 4.07031488 -1.06250310
vt 4.07031488 -1.08590007
vt 3.50780511 -1.06250310
vt -6.30469990 -1.08590007
vt -6.28130007 -1.08590007
vt -6.30469990 -1.06250000
vt -6.28130007 -1.06250000
vt -6.84380007 0.55461252
vt -6.28130007 6.02354717
vt -6.84380007 6.02347183
vt -6.28130007 5.46102715
vt -6.28130007 1.11720002
vt -6.28130007 0.55468839
vt -1.11722100 -1.08590007
vt -5.46041203 -1.06250000
vt -1.11734796 -1.06250000
vt -5.46028519 -1.08590007
vt 5.71880007 -3.50780296
vt 6.28130007 6.30469990
vt 6.28130007 -3.50780487
vt 5.71880007 6.30470085
vt 5.71880007 -2.20311403
vt 2.20309997 -1.08590007
vt 3.50780010 -1.06250000
vt 615.99609375 830.98431396
vt 616.00000000 839.01568604
vt 615.99609375 671.37011719
vt -0.25000000 -1.08590007
vt -0.31250000 -1.06250000
vt -0.25000000 -1.06250000
vt -0.31250000 -1.08590007
vt 0.28130120 -2.23440003
vt -0.28129879 -1.67189097
vt -0.28129879 -2.23440003
vt -0.28129879 3.12503791
vt 0.28130120 3.12503791
vt 2.76559997 -1.06250000
vt 2.20309997 -1.08590007
vt -3.12503695 -1.08590007
vt 2.76559997 -1.08590007
vt 2.20309997 -1.06250000
vt -3.12503695 -1.06250310
vt -0.87500000 -1.08590007
vt 1.06250000 -1.06250000
vt -0.87500000 -1.06250000
vt 1.06250000 -1.08590007
vt 4.07030010 -1.06250000
vt 2.76563311 -1.08590007
vt 4.07030010 -1.08590007
vt 2.76563311 -1.06250000
vt 1.06250000 -1.08590007
vt 5.49997520 -1.06250000
vt 1.06250000 -1.06250000
vt 5.49997520 -1.08590007
vt 4.93750000 -1.08590007
vt 1.62496698 -1.06250000
vt 4.93749714 -1.06250000
vt 1.62500000 -1.08590007
vt 2.20307493 -1.08590007
vt 3.50780010 -1.06250000
vt 3.50780010 -1.08590007
vt 2.20307493 -1.06250000
vt 1.06250000 -4.07030010
vt 5.49997520 -3.50780010
vt 5.49997520 -4.07030010
vt 4.93746901 -3.50780010
vt 1.62499702 -3.50780010
vt 1.62499702 -2.20313311
vt 1.06250000 -2.76563311
vt -0.24999321 -2.20313311
vt -0.87498772 -2.76563311
vt -0.31249109 -2.20313311
vt -0.87498772 -2.20313311
vt -6.84380007 -1.08590007
vt -6.84380007 -1.06250000
vt -0.71880001 -6.01560020
vt -1.28129995 -2.86720395
vt -1.28129995 -6.01560402
vt -0.71880001 -2.86719990
vt -6.02347183 -1.08590007
vt -0.55461252 -1.06250000
vt -6.02347183 -1.06250000
vt -0.55461252 -1.08590007
vt -6.28130007 -1.06250000
vt 6.01560020 -1.06250000
vt -6.84380007 -1.08590007
vt -6.28130007 -1.08590007
vt 6.01560020 -1.08590007
vt -6.84380007 -1.06250000
vt 6.01560020 -1.08590007
vt 2.86720395 -1.06250000
vt 2.28130007 -1.06250000
vt 2.86719990 -1.08590007
vt 2.28130007 -1.08590007
vt 6.01560402 -1.06250000
vt -6.28130007 5.46095085
vt -6.84380007 6.02347183
vt -6.28130007 6.02347183
vt -6.84380007 0.55461252
vt -6.28130007 1.11712420
vt -6.28130007 0.55461252
vt 3.50780010 -1.08590007
vt 1.67190003 -1.08590007
vt -3.12508893 -1.06250310
vt -3.12504411 -1.08590007
vt 1.67185497 -1.06250000
vt 2.23440003 -1.08590007
vt 2.23440003 -1.06250000
vt 2.28130007 -0.45309997
vt 1.71874702 -1.01560593
vt 2.28126192 -1.01556897
vt 1.71880400 -0.17190194
vt 2.28132296 -0.10936999
vt 1.71880805 -0.10940695
vt -0.28130001 -1.08590007
vt 0.28130001 -1.06250000
vt -0.28130001 -1.06250000
vt 0.28130001 -1.08590007
vt 0.28130001 3.12504411
vt -0.28130001 -1.67190003
vt -0.28130001 3.12504411
vt -0.28130001 -2.23441005
vt 0.28130001 -2.23441005
vt 2.86719990 -1.06250000
vt 2.86719990 -1.08590007
vt -0.71880001 -2.86719990
vt -1.28129995 -6.01560020
vt -1.28129995 -2.86719990
vt -0.71880001 -6.01560020
vt 1.71873999 -1.06250000
vt 1.71873999 -1.08590007
vt 0.10940000 -1.08590007
vt 0.17190000 -1.06250000
vt 0.10940000 -1.06250000
vt 0.17190000 -1.08590007
vt 0.45310000 -1.08590007
vt 0.10940000 -1.06250000
vt 0.45310000 -1.06250000
vt 0.10940000 -1.08590007
vt 1.71879900 -0.17184901
vt 2.28129911 -1.01559901
vt 1.71879900 -1.01559901
vt 2.28129911 -0.45309901
vt 2.28129911 -0.10935104
vt 1.71879900 -0.10935104
f 1/1 2/2 3/3
f 2/2 1/1 4/4
f 4/4 1/1 5/5
f 6/6 7/7 8/8
f 7/7 6/6 10/10
f 10/10 6/6 11/11
f 10/10 11/11 12/12
f 13/13 14/14 15/15
f 16/16 17/17 18/18
f 17/17 16/16 19/19
f 17/17 19/19 20/20
f 20/20 19/19 21/21
f 20/20 21/21 22/22
f 23/23 24/24 25/25
f 24/24 23/23 26/26
f 26/26 23/23 18/18
f 26/26 18/18 17/17
f 27/27 28/28 29/29
f 28/28 27/27 30/30
f 30/30 27/27 31/31
f 30/30 31/31 33/33
f 35/35 36/36 37/37
f 36/36 35/35 38/38
f 38/38 35/35 39/39
f 39/39 35/35 40/40
f 41/41 42/42 43/43
f 42/42 41/41 44/44
f 45/45 46/46 47/47
f 46/46 45/45 48/48
f 48/48 45/45 49/49
f 50/50 51/51 9/9
f 52/52 53/53 54/54
f 55/55 56/56 57/57
f 56/56 55/55 58/58
f 59/59 60/60 61/61
f 60/60 59/59 62/62
f 62/62 59/59 63/63
f 64/64 65/65 67/67
f 65/65 64/64 68/68
f 70/70 71/71 72/72
f 71/71 70/70 73/73
f 74/74 75/75 76/76
f 75/75 74/74 77/77
f 78/78 79/79 80/80
f 79/79 78/78 81/81
f 82/82 83/83 84/84
f 83/83 82/82 85/85
f 86/86 87/87 88/88
f 87/87 86/86 89/89
f 90/90 91/91 92/92
f 91/91 90/90 93/93
f 93/93 90/90 94/94
f 94/94 90/90 95/95
f 95/95 90/90 96/96
f 95/95 96/96 97/97
f 97/97 96/96 98/98
f 97/97 98/98 99/99
f 99/99 98/98 100/100
f 101/101 34/34 32/32
f 34/34 101/101 102/102
f 103/103 104/104 105/105
f 104/104 103/103 106/106
f 107/107 108/108 109/109
f 108/108 107/107 110/110
f 111/111 113/113 114/114
f 113/113 111/111 116/116
f 117/117 118/118 120/120
f 118/118 117/117 122/122
f 123/123 124/124 125/125
f 124/124 123/123 126/126
f 126/126 123/123 127/127
f 126/126 127/127 128/128
f 50/50 129/129 51/51
f 130/130 131/131 132/132
f 131/131 130/130 133/133
f 69/69 134/134 66/66
f 134/134 69/69 135/135
f 136/136 137/137 138/138
f 137/137 136/136 139/139
f 139/139 136/136 140/140
f 139/139 140/140 141/141
f 142/142 143/143 144/144
f 143/143 142/142 145/145
f 146/146 147/147 148/148
f 147/147 146/146 149/149
f 149/149 146/146 150/150
f 151/151 115/115 152/152
f 115/115 151/151 112/112
f 153/153 154/154 155/155
f 154/154 153/153 156/156
f 121/121 157/157 158/158
f 157/157 121/121 119/119
f 159/159 160/160 161/161
f 160/160 159/159 162/162
f 163/163 164/164 165/165
f 164/164 163/163 166/166
f 167/167 168/168 169/169
f 168/168 167/167 170/170
f 170/170 167/167 171/171
f 171/171 167/167 172/172

