# https://github.com/mikedh/trimesh
v 0.75792333 3.77201631 -0.39228569
v 0.82068034 3.76648960 -0.34211648
v 0.82078273 3.76661621 -0.39240046
v 0.75780455 3.77197437 -0.34214382
v 0.88132247 3.75021386 -0.34225373
v 0.88145847 3.75018607 -0.39236738
v 0.40204931 3.47347952 -0.39235135
v 0.40213084 3.34782559 -0.39231036
v 0.39660302 3.41064249 -0.39240386
v 0.41824405 3.53420133 -0.39232157
v 0.41823655 3.28701354 -0.39235397
v 0.44499003 3.59134890 -0.39231003
v 0.44488802 3.22993034 -0.39227343
v 0.48119930 3.64282584 -0.39221111
v 0.48118670 3.17840518 -0.39231779
v 0.52559087 3.68760100 -0.39217300
v 0.52577151 3.13390776 -0.39230986
v 0.57711606 3.72361015 -0.39228432
v 0.57710923 3.09769518 -0.39230367
v 0.63437340 3.75013144 -0.39239687
v 0.63427670 3.07093954 -0.39219186
v 0.69511635 3.76656343 -0.39236245
v 0.69529390 3.05484922 -0.39228629
v 0.75772445 3.77203203 -0.39228200
v 0.75799832 3.04919162 -0.39218480
v 0.82055864 3.76647885 -0.39226053
v 0.82067558 3.05490746 -0.39232428
v 0.88146693 3.75020031 -0.39243354
v 0.88141190 3.07109326 -0.39229075
v 0.93872138 3.72354610 -0.39219615
v 0.93858630 3.09779587 -0.39237733
v 0.99014960 3.68750180 -0.39225230
v 0.99022615 3.13374548 -0.39245490
v 1.03463863 3.64297627 -0.39225587
v 1.03474427 3.17824673 -0.39226583
v 1.07078179 3.59126968 -0.39228735
v 1.07069898 3.22997440 -0.39239004
v 1.09752154 3.53423395 -0.39232312
v 1.09757148 3.28697062 -0.39221904
v 1.11387792 3.47346255 -0.39224091
v 1.11388317 3.34795446 -0.39233392
v 1.11918726 3.41062293 -0.39240608
v 0.69503721 3.76655741 -0.34219590
v 0.69507076 3.76644628 -0.39231745
v 0.93864147 3.72372345 -0.34214854
v 0.93869980 3.72373027 -0.39224217
v 1.03455634 3.64303826 -0.39231138
v 0.99024859 3.68751217 -0.34211467
v 1.03478557 3.64290270 -0.34230972
v 0.99020310 3.68741184 -0.39224814
v 1.07086646 3.59133769 -0.39241292
v 1.07084751 3.59132958 -0.34227418
v 1.09753788 3.53423136 -0.39244162
v 1.09730743 3.53428422 -0.34217276
v 1.11377066 3.47337034 -0.39218527
v 1.11381167 3.47339790 -0.34227433
v 1.11944974 3.41071280 -0.39224927
v 1.11931315 3.41071273 -0.34211568
v 1.11386828 3.34786939 -0.39246622
v 1.11390377 3.34771717 -0.34216784
v 1.09749474 3.28694632 -0.39228802
v 1.09749510 3.28699807 -0.34210296
v 1.07085042 3.23006001 -0.39231036
v 1.07085061 3.22977539 -0.34225901
v 1.03485110 3.17833415 -0.39236455
v 1.03489861 3.17822895 -0.34219736
v 0.99017205 3.13384554 -0.39239703
v 0.99016003 3.13365841 -0.34208507
v 0.93867967 3.09762076 -0.34213340
v 0.93850047 3.09762115 -0.39222272
v 0.88153259 3.07123670 -0.34221457
v 0.88157054 3.07102274 -0.39229206
v 0.82067077 3.05468856 -0.34222143
v 0.82093318 3.05472988 -0.39251257
v 0.75785722 3.04930228 -0.34219004
v 0.75802876 3.04932998 -0.39235338
v 0.69511837 3.05465068 -0.39240014
v 0.69503291 3.05483932 -0.34201153
v 0.63420671 3.07093853 -0.39249138
v 0.63423167 3.07077419 -0.34224488
v 0.57732998 3.09763192 -0.39226740
v 0.57717749 3.09781177 -0.34213034
v 0.52558506 3.13401341 -0.39236808
v 0.52551340 3.13381271 -0.34215067
v 0.48116283 3.17825978 -0.34207864
v 0.48114459 3.17828146 -0.39232644
v 0.44487291 3.23014171 -0.34220747
v 0.44490516 3.22985040 -0.39236993
v 0.41832225 3.28709696 -0.34219948
v 0.41830689 3.28691045 -0.39241102
v 0.40224947 3.34797129 -0.34221407
v 0.40189997 3.34779908 -0.39234223
v 0.39652884 3.41057090 -0.34225721
v 0.39664733 3.41067303 -0.39237236
v 0.40199532 3.47334529 -0.34239805
v 0.40202404 3.47329909 -0.34223297
v 0.40195949 3.47345303 -0.39244032
v 0.40189169 3.47344514 -0.39227596
v 0.41824087 3.53428844 -0.34217225
v 0.41834848 3.53413275 -0.39226926
v 0.44504659 3.59138496 -0.34209968
v 0.44462175 3.59135282 -0.39234255
v 0.48105922 3.64287951 -0.34214262
v 0.48110697 3.64291083 -0.39237994
v 0.52572268 3.68738212 -0.34205939
v 0.52563277 3.68740783 -0.39236513
v 0.57714068 3.72366818 -0.39231067
v 0.57717170 3.72351642 -0.34212159
v 0.63439571 3.75022282 -0.39230465
v 0.63428186 3.75023831 -0.34217222
v -2.67527030 -1.88990858 -0.39228628
v -2.61256114 -1.89523702 -0.34217748
v -2.61251415 -1.89535922 -0.39223975
v -2.67544087 -1.88986840 -0.34212830
v -2.55159140 -1.91154669 -0.34216959
v -2.55183799 -1.91158677 -0.39234299
v -3.03105926 -2.18836058 -0.39247185
v -3.03103055 -2.31395920 -0.39241638
v -3.03659038 -2.25117368 -0.39237266
v -3.01488610 -2.12749439 -0.39225647
v -3.01502221 -2.37460078 -0.39226044
v -2.98832095 -2.07054231 -0.39242403
v -2.98827804 -2.43192179 -0.39240660
v -2.95207673 -2.01883850 -0.39237498
v -2.95208330 -2.48335187 -0.39243474
v -2.90767114 -1.97424599 -0.39227990
v -2.90760027 -2.52791222 -0.39243421
v -2.85613460 -1.93826643 -0.39233083
v -2.85607628 -2.56418711 -0.39242454
v -2.79897143 -1.91165623 -0.39230991
v -2.79885058 -2.59080854 -0.39235899
v -2.73810381 -1.89522228 -0.39233369
v -2.73791808 -2.60716416 -0.39231034
v -2.67525750 -1.88981044 -0.39229146
v -2.67541824 -2.61238256 -0.39245588
v -2.61246297 -1.89536337 -0.39224302
v -2.61257436 -2.60705709 -0.39233673
v -2.55162232 -1.91159789 -0.39259465
v -2.55178121 -2.59075183 -0.39237890
v -2.49456073 -1.93810575 -0.39235391
v -2.49475366 -2.56402732 -0.39224881
v -2.44304068 -1.97414646 -0.39237108
v -2.44311223 -2.52802478 -0.39224926
v -2.39852975 -2.01870302 -0.39241784
v -2.39836821 -2.48342214 -0.39235444
v -2.36225393 -2.07060047 -0.39222537
v -2.36235163 -2.43191277 -0.39227732
v -2.33560042 -2.12750080 -0.39217056
v -2.33559864 -2.37466183 -0.39238739
v -2.31938299 -2.18836563 -0.39234280
v -2.31936633 -2.31388909 -0.39226920
v -2.31392713 -2.25119930 -0.39241202
v -2.73813034 -1.89516753 -0.34215564
v -2.73798701 -1.89537842 -0.39250678
v -2.49471604 -1.93809454 -0.34205722
v -2.49459811 -1.93826094 -0.39235246
v -2.44304056 -1.97435593 -0.39255527
v -2.39852296 -2.01888586 -0.34201894
v -2.39843598 -2.01875001 -0.39237491
v -2.44303671 -1.97465943 -0.34210886
v -2.36229948 -2.07032181 -0.39238285
v -2.36233815 -2.07053265 -0.34224885
v -2.33575181 -2.12759599 -0.39222555
v -2.33569073 -2.12763403 -0.34213630
v -2.31937351 -2.18847144 -0.39224367
v -2.31955333 -2.18843193 -0.34209163
v -2.31403274 -2.25113859 -0.39223089
v -2.31387972 -2.25131375 -0.34221060
v -2.31928687 -2.31390000 -0.39234213
v -2.31935442 -2.31386391 -0.34220891
v -2.33571571 -2.37475922 -0.39238774
v -2.33570231 -2.37466060 -0.34223106
v -2.36218168 -2.43170599 -0.39248759
v -2.36235823 -2.43183719 -0.34221339
v -2.39851298 -2.48348890 -0.39227817
v -2.39849337 -2.48331265 -0.34212366
v -2.44302390 -2.52788773 -0.34209494
v -2.44298360 -2.52803975 -0.39218640
v -2.49455715 -2.56416288 -0.34228309
v -2.49459462 -2.56424317 -0.39248781
v -2.55174014 -2.59074348 -0.34203891
v -2.55169219 -2.59069869 -0.39244596
v -2.61254343 -2.60706001 -0.34207479
v -2.61253159 -2.60700196 -0.39238434
v -2.67526485 -2.61252805 -0.34225513
v -2.67528042 -2.61259083 -0.39250387
v -2.73797236 -2.60710152 -0.39241407
v -2.73808642 -2.60705882 -0.34201966
v -2.79893263 -2.59072718 -0.39222401
v -2.79887290 -2.59067628 -0.34218911
v -2.85594246 -2.56415046 -0.39224955
v -2.85609399 -2.56421207 -0.34204009
v -2.90763637 -2.52804212 -0.39233467
v -2.90767850 -2.52789775 -0.34225508
v -2.95215886 -2.48343900 -0.34215734
v -2.95221450 -2.48354278 -0.39230497
v -2.98837656 -2.43181128 -0.34227856
v -2.98833596 -2.43186336 -0.39244821
v -3.01484911 -2.37477301 -0.34223688
v -3.01503448 -2.37490510 -0.39233693
v -3.03130239 -2.31404202 -0.34216816
v -3.03100915 -2.31390178 -0.39227615
v -3.03669815 -2.25110258 -0.34226310
v -3.03675307 -2.25114712 -0.39234282
v -3.03122001 -2.18847055 -0.34217048
v -3.03126972 -2.18862049 -0.34225041
v -3.03116300 -2.18828074 -0.39218644
v -3.03119535 -2.18833741 -0.39226376
v -3.01496389 -2.12771151 -0.34214578
v -3.01505525 -2.12759385 -0.39228936
v -2.98840983 -2.07046965 -0.34204254
v -2.98825771 -2.07042781 -0.39226387
v -2.95199803 -2.01885670 -0.34204344
v -2.95215148 -2.01891626 -0.39231441
v -2.90767136 -1.97437541 -0.34220031
v -2.90781563 -1.97431747 -0.39244920
v -2.85601746 -1.93806864 -0.39238578
v -2.85605458 -1.93807599 -0.34210177
v -2.79883508 -1.91160077 -0.39227741
v -2.79897705 -1.91162816 -0.34209751
v -2.67534650 -0.82561504 -0.39213707
v -2.61268548 -0.83123381 -0.34205277
v -2.61255389 -0.83107045 -0.39242753
v -2.67526712 -0.82569340 -0.34213643
v -2.55168804 -0.84757671 -0.34224013
v -2.55159683 -0.84744750 -0.39233221
v -3.03120738 -1.12428413 -0.39243999
v -3.03128892 -1.24971512 -0.39232837
v -3.03664370 -1.18712233 -0.39222374
v -3.01487530 -1.06342754 -0.39229444
v -3.01497284 -1.31083191 -0.39243306
v -2.98814935 -1.00626254 -0.39237091
v -2.98831433 -1.36767913 -0.39235567
v -2.95225693 -0.95466352 -0.39230055
v -2.95236086 -1.41939625 -0.39232902
v -2.90757854 -0.91021559 -0.39239557
v -2.90762951 -1.46388840 -0.39236417
v -2.85604006 -0.87398763 -0.39242212
v -2.85603814 -1.50021998 -0.39229510
v -2.79884773 -0.84742570 -0.39226293
v -2.79888083 -1.52664037 -0.39230082
v -2.73807702 -0.83106812 -0.39237105
v -2.73817906 -1.54290001 -0.39218327
v -2.67537739 -0.82568922 -0.39239982
v -2.67532791 -1.54846057 -0.39244732
v -2.61256521 -0.83129476 -0.39238981
v -2.61264278 -1.54306299 -0.39248815
v -2.55161219 -0.84742907 -0.39250501
v -2.55176727 -1.52672686 -0.39240029
v -2.49475001 -0.87403013 -0.39237509
v -2.49458649 -1.50000156 -0.39222385
v -2.44317010 -0.91008012 -0.39223295
v -2.44296620 -1.46371005 -0.39232379
v -2.39837956 -0.95483463 -0.39224443
v -2.39843538 -1.41940803 -0.39216053
v -2.36237222 -1.00637284 -0.39235813
v -2.36241072 -1.36772228 -0.39227824
v -2.33566066 -1.06367019 -0.39225522
v -2.33572082 -1.31077646 -0.39228978
v -2.31934403 -1.12440364 -0.39213018
v -2.31949537 -1.24997448 -0.39243984
v -2.31379714 -1.18708563 -0.39237306
v -2.73805951 -0.83122053 -0.34220736
v -2.73810895 -0.83110914 -0.39225416
v -2.49471655 -0.87407412 -0.34208112
v -2.49471883 -0.87413746 -0.39242993
v -2.44312537 -0.91021988 -0.39240414
v -2.39839582 -0.95477409 -0.34211319
v -2.39847466 -0.95482580 -0.39234903
v -2.44301556 -0.91028885 -0.34211199
v -2.36228244 -1.00636010 -0.39219498
v -2.36240018 -1.00632914 -0.34218332
v -2.33567088 -1.06353949 -0.39224607
v -2.33567589 -1.06336683 -0.34225653
v -2.31943423 -1.12439079 -0.39238671
v -2.31945123 -1.12432487 -0.34214989
v -2.31392196 -1.18711805 -0.39232529
v -2.31384369 -1.18714766 -0.34214834
v -2.31939841 -1.24978652 -0.39234674
v -2.31939343 -1.24991113 -0.34214657
v -2.33576963 -1.31062857 -0.39235010
v -2.33568751 -1.31074870 -0.34207979
v -2.36228708 -1.36769408 -0.39215110
v -2.36235068 -1.36766489 -0.34215899
v -2.39841606 -1.41933831 -0.39231870
v -2.39839350 -1.41939546 -0.34214492
v -2.44296943 -1.46376433 -0.34222034
v -2.44316936 -1.46395491 -0.39233361
v -2.49461152 -1.50003973 -0.34204742
v -2.49454312 -1.50005075 -0.39238138
v -2.55174585 -1.52670004 -0.34216768
v -2.55185059 -1.52670898 -0.39237757
v -2.61255763 -1.54299428 -0.34209104
v -2.61258692 -1.54301001 -0.39229502
v -2.67531550 -1.54844603 -0.34209127
v -2.67525938 -1.54844315 -0.39235806
v -2.73799598 -1.54295758 -0.39238440
v -2.73806708 -1.54307658 -0.34223052
v -2.79907923 -1.52672767 -0.39222725
v -2.79896597 -1.52660237 -0.34214871
v -2.85606812 -1.49993227 -0.39229158
v -2.85615788 -1.49995869 -0.34224019
v -2.90763482 -1.46385653 -0.39236689
v -2.90752409 -1.46384857 -0.34228306
v -2.95218634 -1.41934542 -0.34219752
v -2.95216446 -1.41930122 -0.39231424
v -2.98836718 -1.36775273 -0.34220070
v -2.98839233 -1.36786413 -0.39231679
v -3.01490719 -1.31067214 -0.34224629
v -3.01492049 -1.31076117 -0.39242039
v -3.03121771 -1.24994463 -0.34209127
v -3.03099127 -1.24978733 -0.39243034
v -3.03673946 -1.18720343 -0.34218066
v -3.03667299 -1.18702029 -0.39242939
v -3.03117807 -1.12421583 -0.34199856
v -3.03126345 -1.12438837 -0.34214377
v -3.03145363 -1.12435992 -0.39236443
v -3.03124283 -1.12444982 -0.39236226
v -3.01497110 -1.06340395 -0.34222684
v -3.01492889 -1.06348852 -0.39229283
v -2.98850596 -1.00640268 -0.34208356
v -2.98831946 -1.00650398 -0.39231340
v -2.95211725 -0.95479467 -0.34224745
v -2.95220924 -0.95479837 -0.39241605
v -2.90778359 -0.91029426 -0.34215369
v -2.90766292 -0.91023503 -0.39233415
v -2.85593175 -0.87390637 -0.39227881
v -2.85612821 -0.87432141 -0.34215648
v -2.79891236 -0.84757174 -0.39231806
v -2.79898394 -0.84743815 -0.34217621
v -2.85597436 -3.63841636 -0.39237873
v -2.90763232 -3.60228719 -0.39218056
v -2.95219217 -3.55747989 -0.39239801
v -2.85602794 -3.63816643 -0.34212248
v -2.90760323 -3.60214282 -0.39245794
v -2.85604156 -3.63834918 -0.39232443
v -2.90766608 -3.60216929 -0.34215502
v -2.95214910 -3.55760154 -0.34220412
v -2.95223599 -3.55765530 -0.39224980
v -3.03117167 -3.26250848 -0.39222346
v -3.03130432 -3.38802714 -0.39243309
v -3.03674486 -3.32527329 -0.39220345
v -3.01497157 -3.20170060 -0.39224256
v -3.01503199 -3.44886679 -0.39236761
v -2.98836386 -3.14459411 -0.39229049
v -2.98836645 -3.50595205 -0.39232649
v -2.95225203 -3.09287487 -0.39224823
v -2.95221942 -3.55764866 -0.39227548
v -2.90766193 -3.04862175 -0.39225173
v -2.85600755 -3.63810468 -0.39231077
v -2.85599199 -3.01208519 -0.39235596
v -2.79899973 -2.98568905 -0.39224431
v -2.79901794 -3.66499912 -0.39230288
v -2.73832721 -2.96949882 -0.39227337
v -2.73810430 -3.68135958 -0.39217687
v -2.67541585 -2.96395826 -0.39237312
v -2.67528831 -3.68672406 -0.39234820
v -2.61253659 -2.96941292 -0.39233333
v -2.61274463 -3.68118304 -0.39246121
v -2.55190131 -2.98559067 -0.39245105
v -2.55170095 -3.66498754 -0.39239922
v -2.49458517 -3.01242013 -0.39230947
v -2.49459396 -3.63816809 -0.39237000
v -2.44292577 -3.04831774 -0.39220581
v -2.44296509 -3.60212717 -0.39209799
v -2.39825911 -3.09307297 -0.39226243
v -2.39839831 -3.55759240 -0.39232820
v -2.36230454 -3.14452659 -0.39232261
v -2.36231718 -3.50586563 -0.39231416
v -2.33564438 -3.20160795 -0.39220183
v -2.33558615 -3.44886550 -0.39232355
v -2.31949657 -3.26253366 -0.39242985
v -2.31947953 -3.38801513 -0.39234988
v -2.31387814 -3.32536817 -0.39223872
v -2.79890618 -3.66482015 -0.34209092
v -2.79890435 -3.66496243 -0.39233860
v -2.98821787 -3.50592493 -0.34225050
v -2.98820100 -3.50600276 -0.39227168
v -2.44307469 -3.04841020 -0.39240931
v -2.39843866 -3.09303295 -0.34217280
v -2.39849809 -3.09302062 -0.39248992
v -2.44294029 -3.04838255 -0.34218623
v -2.36246400 -3.14466185 -0.39226038
v -2.36229278 -3.14463227 -0.34207180
v -2.33577985 -3.20174482 -0.39230076
v -2.33569911 -3.20174282 -0.34236292
v -2.31933478 -3.26253095 -0.39249011
v -2.31934083 -3.26255982 -0.34212461
v -2.31383775 -3.32537781 -0.39228036
v -2.31386007 -3.32524961 -0.34200873
v -2.31933584 -3.38811863 -0.39218773
v -2.31948664 -3.38811019 -0.34223077
v -2.33569969 -3.44880530 -0.39223048
v -2.33565134 -3.44894974 -0.34219569
v -2.36239770 -3.50590314 -0.39241870
v -2.36227237 -3.50598728 -0.34213373
v -2.39832063 -3.55763916 -0.39219940
v -2.39857005 -3.55766899 -0.34228319
v -2.44307890 -3.60211576 -0.39227830
v -2.44298894 -3.60214272 -0.34224860
v -2.49473976 -3.63824157 -0.34203333
v -2.49465756 -3.63837583 -0.39247221
v -2.55177443 -3.66478670 -0.34216616
v -2.55180493 -3.66497361 -0.39238258
v -2.61251882 -3.68127706 -0.34222441
v -2.61255756 -3.68118069 -0.39228006
v -2.67524840 -3.68673157 -0.34229315
v -2.67536359 -3.68666825 -0.39245516
v -2.73803263 -3.68127108 -0.39239100
v -2.73795861 -3.68120203 -0.34203142
v -3.01498498 -3.44880116 -0.34207080
v -3.01516052 -3.44890524 -0.39220961
v -3.03113718 -3.38810836 -0.34216830
v -3.03131488 -3.38805306 -0.39249440
v -3.03680300 -3.32521908 -0.34215017
v -3.03674734 -3.32532368 -0.39210717
v -3.03111522 -3.26262482 -0.34200610
v -3.03121120 -3.26249543 -0.34219851
v -3.03128369 -3.26249012 -0.39240694
v -3.03127033 -3.26248193 -0.39244051
v -3.01502597 -3.20164596 -0.34231576
v -3.01496897 -3.20172373 -0.39245616
v -2.98838398 -3.14454977 -0.34212345
v -2.98836932 -3.14456142 -0.39221156
v -2.95225550 -3.09300228 -0.34197964
v -2.95209381 -3.09293806 -0.39235838
v -2.90768776 -3.04836703 -0.34209260
v -2.90762403 -3.04850439 -0.39249052
v -2.85599499 -3.01238969 -0.39235255
v -2.85595101 -3.01226061 -0.34208703
v -2.79872591 -2.98560913 -0.39240499
v -2.79898833 -2.98550983 -0.34220506
v -2.73805797 -2.96925653 -0.39219483
v -2.73805886 -2.96938486 -0.34228803
v -2.67537297 -2.96394476 -0.39234177
v -2.67532302 -2.96390057 -0.34196119
v -2.61250186 -2.96937916 -0.34214826
v -2.61255618 -2.96930024 -0.39242593
v -2.55172703 -2.98580218 -0.34214098
v -2.55170614 -2.98563002 -0.39223903
v -2.49456985 -3.01219211 -0.34201278
v -2.49459954 -3.01229875 -0.39250662
v -1.25983838 3.09766100 -0.39248455
v -1.31147482 3.13387722 -0.39244615
v -1.35589790 3.17837901 -0.39235988
v -1.25987788 3.09773230 -0.34226957
v -1.31126374 3.13372602 -0.39240572
v -1.25976149 3.09772890 -0.39222720
v -1.31134868 3.13382761 -0.34225634
v -1.35604867 3.17835541 -0.39234184
v -1.35618358 3.17842765 -0.34199954
v -1.43493602 3.47330359 -0.39230315
v -1.43524261 3.34802669 -0.39250601
v -1.44049962 3.41073373 -0.39223011
v -1.41873284 3.53411869 -0.39234901
v -1.41878512 3.28706286 -0.39225603
v -1.39208947 3.59151172 -0.39228393
v -1.39217920 3.23008058 -0.39236723
v -1.35598423 3.64294879 -0.39253618
v -1.35598466 3.17836318 -0.39235828
v -1.25987779 3.72350086 -0.39233333
v -1.25973739 3.09764630 -0.39238496
v -1.20282777 3.75040477 -0.39245609
v -1.20270373 3.07104894 -0.39217636
v -1.14179966 3.76652780 -0.39247199
v -1.14178955 3.05486098 -0.39243472
v -1.07909408 3.77195921 -0.39240665
v -1.07929513 3.04932404 -0.39231722
v -1.01635670 3.76665936 -0.39228328
v -1.01634901 3.05480046 -0.39243127
v -0.95556202 3.75012955 -0.39241721
v -0.95556692 3.07113010 -0.39216463
v -0.89855702 3.72362533 -0.39234643
v -0.89841934 3.09771117 -0.39230943
v -0.84694538 3.68751417 -0.39226418
v -0.84690663 3.13396438 -0.39236043
v -0.80237102 3.64295866 -0.39236237
v -0.80243363 3.17833624 -0.39220412
v -0.76601309 3.59128215 -0.39226308
v -0.76617277 3.22996565 -0.39223216
v -0.73949023 3.53425359 -0.39241968
v -0.73965896 3.28702990 -0.39231274
v -0.72321631 3.47345727 -0.39225673
v -0.72346447 3.34795953 -0.39242981
v -0.71767099 3.41066321 -0.39228653
v -1.20282207 3.07106356 -0.34230678
v -1.20268236 3.07101118 -0.39256145
v -1.39205536 3.23008458 -0.34222216
v -1.39204245 3.22987739 -0.39253390
v -0.80234745 3.64296120 -0.39232897
v -0.84685395 3.68750578 -0.34212886
v -0.80233534 3.64288200 -0.34217005
v -0.84689282 3.68745460 -0.39243455
v -0.76623041 3.59133759 -0.39231395
v -0.76618955 3.59131488 -0.34210172
v -0.73949344 3.53429849 -0.39248979
v -0.73960187 3.53430067 -0.34210334
v -0.72320123 3.47341734 -0.39241325
v -0.72315489 3.47327441 -0.34206318
v -0.71776751 3.41050872 -0.39237420
v -0.71766333 3.41058422 -0.34225072
v -0.72328394 3.34781253 -0.39244716
v -0.72322192 3.34795054 -0.34219446
v -0.73951828 3.28700232 -0.39234889
v -0.73955245 3.28716288 -0.34210401
v -0.76626939 3.22998545 -0.39235926
v -0.76622390 3.22986970 -0.34214959
v -0.80232203 3.17830413 -0.39245916
v -0.80246266 3.17834940 -0.34213213
v -0.84667638 3.13378022 -0.34206014
v -0.84676074 3.13379026 -0.39233382
v -0.89850106 3.09781301 -0.34227615
v -0.89846774 3.09777962 -0.39234957
v -0.95560783 3.07105931 -0.34210235
v -0.95551063 3.07106348 -0.39227633
v -1.01631818 3.05464197 -0.34217970
v -1.01632467 3.05477820 -0.39232034
v -1.07910029 3.04932569 -0.34222062
v -1.07926248 3.04914588 -0.39218167
v -1.14200165 3.05471645 -0.39235621
v -1.14182358 3.05458805 -0.34215070
v -1.41865852 3.28712660 -0.34211240
v -1.41878449 3.28718148 -0.39248313
v -1.43497727 3.34792578 -0.34209688
v -1.43503834 3.34789990 -0.39226090
v -1.44063312 3.41052802 -0.34213348
v -1.44053022 3.41064843 -0.39220457
v -1.43511050 3.47345465 -0.34211452
v -1.43485896 3.47327078 -0.34219397
v -1.43510004 3.47350326 -0.39241038
v -1.43491947 3.47352696 -0.39226646
v -1.41872486 3.53410754 -0.34213180
v -1.41888437 3.53420945 -0.39232303
v -1.39217237 3.59141175 -0.34215838
v -1.39227822 3.59124005 -0.39244915
v -1.35603532 3.64303988 -0.34210417
v -1.35597931 3.64282360 -0.39213808
v -1.25986814 3.72381691 -0.39241444
v -1.35605679 3.64315532 -0.39243216
v -1.31140224 3.68744762 -0.39240983
v -1.25968120 3.72352480 -0.34207072
v -1.20268159 3.75014615 -0.39250237
v -1.26001776 3.72354226 -0.39232136
v -1.20274724 3.75021640 -0.34215634
v -1.14182845 3.76660093 -0.39230803
v -1.14196430 3.76660173 -0.34213188
v -1.07922157 3.77197833 -0.39223546
v -1.07900015 3.77198236 -0.34232479
v -1.01634876 3.76645821 -0.34208481
v -1.01643103 3.76672572 -0.39233079
v -0.95548199 3.75012880 -0.34238808
v -0.95554753 3.75025491 -0.39227887
v -0.89851164 3.72350023 -0.34228401
v -0.89841713 3.72367118 -0.39241515
v -1.31148308 3.68741432 -0.39250220
v -1.31142099 3.68754874 -0.34216642
v -0.15572449 3.77201065 -0.39222387
v -0.09266726 3.76655832 -0.34221471
v -0.09301866 3.76640334 -0.39234796
v -0.15558375 3.77204950 -0.34216980
v -0.03213128 3.75009794 -0.34213477
v -0.03206992 3.75034396 -0.39246494
v -0.51136229 3.47333359 -0.39232132
v -0.51148729 3.34785301 -0.39251230
v -0.51703582 3.41076446 -0.39244974
v -0.49535504 3.53422173 -0.39237559
v -0.49530814 3.28696714 -0.39238145
v -0.46861191 3.59134447 -0.39228003
v -0.46854361 3.22997059 -0.39219691
v -0.43235032 3.64268463 -0.39237138
v -0.43257846 3.17827963 -0.39227454
v -0.38791513 3.68743992 -0.39222792
v -0.38802635 3.13378746 -0.39229352
v -0.33629433 3.72351121 -0.39234230
v -0.33622744 3.09769194 -0.39231325
v -0.27918029 3.75024409 -0.39244636
v -0.27923294 3.07107622 -0.39260631
v -0.21829228 3.76656415 -0.39243295
v -0.21842066 3.05471908 -0.39230507
v -0.15563496 3.77212723 -0.39230510
v -0.15567019 3.04920415 -0.39232094
v -0.09278693 3.76659340 -0.39234871
v -0.09283636 3.05473434 -0.39227019
v -0.03208372 3.75028402 -0.39249854
v -0.03196100 3.07106131 -0.39234041
v 0.02490824 3.72374431 -0.39226366
v 0.02509250 3.09770061 -0.39242058
v 0.07674052 3.68761368 -0.39244097
v 0.07692670 3.13375816 -0.39226973
v 0.12117214 3.64296668 -0.39244915
v 0.12118641 3.17831895 -0.39239637
v 0.15734999 3.59141390 -0.39244942
v 0.15726850 3.22994542 -0.39238855
v 0.18390599 3.53425169 -0.39238856
v 0.18402040 3.28703197 -0.39235755
v 0.20029447 3.47347787 -0.39222817
v 0.20028667 3.34779444 -0.39246942
v 0.20559786 3.41053405 -0.39241315
v -0.21836142 3.76637477 -0.34202527
v -0.21826612 3.76664166 -0.39238417
v 0.02511117 3.72352964 -0.34201502
v 0.02498676 3.72356668 -0.39221883
v 0.12145527 3.64292552 -0.39237574
v 0.07648270 3.68762652 -0.34212104
v 0.12108181 3.64300775 -0.34209493
v 0.07666652 3.68743284 -0.39227803
v 0.15739058 3.59137214 -0.39223565
v 0.15747249 3.59139550 -0.34209738
v 0.18388256 3.53414517 -0.39227048
v 0.18404696 3.53428466 -0.34207560
v 0.20025299 3.47343874 -0.39242481
v 0.20030562 3.47346985 -0.34220515
v 0.20595533 3.41073129 -0.39222322
v 0.20577054 3.41051586 -0.34220700
v 0.20034740 3.34785856 -0.39227878
v 0.20031314 3.34783203 -0.34206758
v 0.18410712 3.28697285 -0.39229666
v 0.18400507 3.28705935 -0.34215624
v 0.15726364 3.23006176 -0.39242948
v 0.15729627 3.22999744 -0.34213199
v 0.12117471 3.17828233 -0.39235392
v 0.12120544 3.17839367 -0.34224676
v 0.07672780 3.13392616 -0.39232318
v 0.07662093 3.13373373 -0.34214362
v 0.02503703 3.09776686 -0.34230449
v 0.02523028 3.09748853 -0.39234388
v -0.03209198 3.07110946 -0.34221344
v -0.03209626 3.07101040 -0.39237547
v -0.09301435 3.05477529 -0.34235165
v -0.09274868 3.05470830 -0.39225900
v -0.15565431 3.04917666 -0.34209170
v -0.15565290 3.04911224 -0.39234781
v -0.21847452 3.05473538 -0.39222263
v -0.21827474 3.05473664 -0.34216150
v -0.27923359 3.07098499 -0.39231006
v -0.27922002 3.07100684 -0.34212429
v -0.33646873 3.09782849 -0.39228657
v -0.33641539 3.09767126 -0.34224376
v -0.38794400 3.13371904 -0.39224714
v -0.38806195 3.13376521 -0.34228816
v -0.43244559 3.17831134 -0.39246049
v -0.43232091 3.17847197 -0.34219552
v -0.46853209 3.22992870 -0.34212656
v -0.46844584 3.22991847 -0.39218735
v -0.49522236 3.28702341 -0.34198603
v -0.49517425 3.28685790 -0.39232118
v -0.51161580 3.34774042 -0.34222784
v -0.51147850 3.34778732 -0.39246002
v -0.51702706 3.41066901 -0.34220681
v -0.51710618 3.41044894 -0.39240665
v -0.51143426 3.47347607 -0.34207991
v -0.51152132 3.47340155 -0.34203911
v -0.51158052 3.47342159 -0.39250012
v -0.51144809 3.47335199 -0.39243905
v -0.49513176 3.53414553 -0.34222140
v -0.49506653 3.53415110 -0.39239639
v -0.46863500 3.59139758 -0.34230411
v -0.46846989 3.59130979 -0.39236743
v -0.43252041 3.64292093 -0.34202180
v -0.43242567 3.64285372 -0.39237003
v -0.38785231 3.68748379 -0.39236234
v -0.38784633 3.68750733 -0.34223937
v -0.33645989 3.72365327 -0.39218177
v -0.33636647 3.72359849 -0.34203173
v -0.27905800 3.75023811 -0.39223367
v -0.27914245 3.75018509 -0.34231973
vt 0.25000000 0.41670001
vt 0.27779999 0.58329999
vt 0.27779999 0.41670001
vt 0.25000000 0.58329999
vt 0.30559999 0.58329999
vt 0.30559999 0.41670001
vt 0.00817450 0.58671796
vt 0.00817450 0.41323090
vt 0.00059006 0.49997151
vt 0.03071021 0.67083097
vt 0.03071021 0.32911921
vt 0.06750075 0.74974728
vt 0.06750075 0.25020522
vt 0.11743080 0.82107770
vt 0.11743080 0.17887771
vt 0.17898770 0.88265079
vt 0.17898770 0.11730808
vt 0.25029999 0.93260002
vt 0.25029999 0.06736308
vt 0.32920220 0.96940148
vt 0.32920220 0.03056622
vt 0.41328940 0.99193949
vt 0.41328940 0.00803310
vt 0.50001538 0.99953365
vt 0.50001538 0.00044399
vt 0.58674139 0.99194455
vt 0.58674139 0.00803822
vt 0.67083400 0.96941143
vt 0.67083400 0.03057623
vt 0.74973083 0.93261462
vt 0.74973083 0.06737763
vt 0.82104301 0.88267499
vt 0.82104301 0.11732680
vt 0.88260001 0.82110000
vt 0.88260001 0.17890000
vt 0.93253553 0.74977249
vt 0.93253553 0.25023037
vt 0.96932602 0.67085838
vt 0.96932602 0.32915211
vt 0.99185628 0.58674669
vt 0.99185628 0.41325963
vt 0.99944609 0.50000072
vt 0.22220001 0.58329999
vt 0.22220001 0.41670001
vt 0.33329999 0.58329999
vt 0.33329999 0.41670001
vt 0.38890001 0.41670001
vt 0.36109999 0.58329999
vt 0.38890001 0.58329999
vt 0.36109999 0.41670001
vt 0.41670001 0.41670001
vt 0.41670001 0.58329999
vt 0.44440001 0.41670001
vt 0.44440001 0.58329999
vt 0.47220001 0.41670001
vt 0.47220001 0.58329999
vt 0.50000000 0.41670001
vt 0.50000000 0.58329999
vt 0.52780002 0.41670001
vt 0.52780002 0.58329999
vt 0.55559999 0.41670001
vt 0.55559999 0.58329999
vt 0.58329999 0.41670001
vt 0.58329999 0.58329999
vt 0.61110002 0.41670001
vt 0.61110002 0.58329999
vt 0.63889998 0.41670001
vt 0.63889998 0.58329999
vt 0.66670001 0.58329999
vt 0.66670001 0.41670001
vt 0.69440001 0.58329999
vt 0.69440001 0.41670001
vt 0.72219998 0.58329999
vt 0.72219998 0.41670001
vt 0.75000000 0.58329999
vt 0.75000000 0.41670001
vt 0.77780002 0.41670001
vt 0.77780002 0.58329999
vt 0.80559999 0.41670001
vt 0.80559999 0.58329999
vt 0.83329999 0.41670001
vt 0.83329999 0.58329999
vt 0.86110002 0.41670001
vt 0.86110002 0.58329999
vt 0.88889998 0.58329999
vt 0.88889998 0.41670001
vt 0.91670001 0.58329999
vt 0.91670001 0.41670001
vt 0.94440001 0.58329999
vt 0.94440001 0.41670001
vt 0.97219998 0.58329999
vt 0.97219998 0.41670001
vt 1.00000000 0.58329999
vt 1.00000000 0.41670001
vt 1.02779996 0.58329999
vt 0.02779996 0.58329999
vt 1.02779996 0.41670001
vt 0.02779996 0.41670001
vt 0.05559998 0.58329999
vt 0.05559998 0.41670001
vt 0.08329999 0.58329999
vt 0.08329999 0.41670001
vt 0.11110000 0.58329999
vt 0.11110000 0.41670001
vt 0.13890000 0.58329999
vt 0.13890000 0.41670001
vt 0.16670001 0.41670001
vt 0.16670001 0.58329999
vt 0.19440000 0.41670001
vt 0.19440000 0.58329999
vt 0.25000000 0.41670001
vt 0.27779999 0.58329999
vt 0.27779999 0.41670001
vt 0.25000000 0.58329999
vt 0.30559999 0.58329999
vt 0.30559999 0.41670001
vt 0.00819580 0.58672166
vt 0.00819580 0.41323018
vt 0.00057904 0.49997598
vt 0.03071965 0.67082840
vt 0.03071965 0.32912523
vt 0.06749773 0.74974930
vt 0.06749773 0.25020581
vt 0.11744190 0.82107890
vt 0.11744190 0.17887890
vt 0.17897449 0.88265139
vt 0.17897449 0.11730981
vt 0.25029999 0.93260002
vt 0.25029999 0.06736511
vt 0.32918790 0.96940100
vt 0.32918790 0.03056848
vt 0.41329870 0.99193865
vt 0.41329870 0.00803602
vt 0.50002098 0.99952716
vt 0.50002098 0.00044632
vt 0.58674318 0.99194342
vt 0.58674318 0.00804079
vt 0.67079961 0.96941042
vt 0.67079961 0.03057790
vt 0.74968749 0.93261379
vt 0.74968749 0.06737888
vt 0.82101297 0.88266909
vt 0.82101297 0.11732751
vt 0.88260001 0.82110000
vt 0.88260001 0.17890000
vt 0.93248981 0.74977309
vt 0.93248981 0.25022972
vt 0.96932232 0.67085421
vt 0.96932232 0.32915109
vt 0.99184608 0.58674884
vt 0.99184608 0.41325730
vt 0.99940848 0.50000346
vt 0.22220001 0.58329999
vt 0.22220001 0.41670001
vt 0.33329999 0.58329999
vt 0.33329999 0.41670001
vt 0.36109999 0.41670001
vt 0.38890001 0.58329999
vt 0.38890001 0.41670001
vt 0.36109999 0.58329999
vt 0.41670001 0.41670001
vt 0.41670001 0.58329999
vt 0.44440001 0.41670001
vt 0.44440001 0.58329999
vt 0.47220001 0.41670001
vt 0.47220001 0.58329999
vt 0.50000000 0.41670001
vt 0.50000000 0.58329999
vt 0.52780002 0.41670001
vt 0.52780002 0.58329999
vt 0.55559999 0.41670001
vt 0.55559999 0.58329999
vt 0.58329999 0.41670001
vt 0.58329999 0.58329999
vt 0.61110002 0.41670001
vt 0.61110002 0.58329999
vt 0.63889998 0.58329999
vt 0.63889998 0.41670001
vt 0.66670001 0.58329999
vt 0.66670001 0.41670001
vt 0.69440001 0.58329999
vt 0.69440001 0.41670001
vt 0.72219998 0.58329999
vt 0.72219998 0.41670001
vt 0.75000000 0.58329999
vt 0.75000000 0.41670001
vt 0.77780002 0.41670001
vt 0.77780002 0.58329999
vt 0.80559999 0.41670001
vt 0.80559999 0.58329999
vt 0.83329999 0.41670001
vt 0.83329999 0.58329999
vt 0.86110002 0.41670001
vt 0.86110002 0.58329999
vt 0.88889998 0.58329999
vt 0.88889998 0.41670001
vt 0.91670001 0.58329999
vt 0.91670001 0.41670001
vt 0.94440001 0.58329999
vt 0.94440001 0.41670001
vt 0.97219998 0.58329999
vt 0.97219998 0.41670001
vt 1.00000000 0.58329999
vt 1.00000000 0.41670001
vt 1.02779996 0.58329999
vt 0.02779996 0.58329999
vt 1.02779996 0.41670001
vt 0.02779996 0.41670001
vt 0.05559998 0.58329999
vt 0.05559998 0.41670001
vt 0.08329999 0.58329999
vt 0.08329999 0.41670001
vt 0.11110000 0.58329999
vt 0.11110000 0.41670001
vt 0.13890000 0.58329999
vt 0.13890000 0.41670001
vt 0.16670001 0.41670001
vt 0.16670001 0.58329999
vt 0.19440000 0.41670001
vt 0.19440000 0.58329999
vt 0.25000000 0.41670001
vt 0.27779999 0.58329999
vt 0.27779999 0.41670001
vt 0.25000000 0.58329999
vt 0.30559999 0.58329999
vt 0.30559999 0.41670001
vt 0.00819580 0.58672130
vt 0.00819580 0.41323018
vt 0.00057904 0.49997562
vt 0.03071965 0.67082810
vt 0.03071965 0.32912469
vt 0.06749773 0.74974906
vt 0.06749773 0.25020581
vt 0.11744190 0.82107878
vt 0.11744190 0.17887878
vt 0.17897449 0.88265133
vt 0.17897449 0.11730969
vt 0.25029999 0.93260002
vt 0.25029999 0.06736487
vt 0.32918790 0.96940106
vt 0.32918790 0.03056830
vt 0.41329870 0.99193871
vt 0.41329870 0.00803530
vt 0.50002098 0.99952728
vt 0.50002098 0.00044608
vt 0.58674318 0.99194354
vt 0.58674318 0.00804007
vt 0.67079961 0.96941054
vt 0.67079961 0.03057778
vt 0.74968749 0.93261385
vt 0.74968749 0.06737882
vt 0.82101297 0.88266909
vt 0.82101297 0.11732751
vt 0.88260001 0.82110000
vt 0.88260001 0.17890000
vt 0.93248981 0.74977303
vt 0.93248981 0.25022972
vt 0.96932232 0.67085409
vt 0.96932232 0.32915068
vt 0.99184608 0.58674860
vt 0.99184608 0.41325748
vt 0.99940848 0.50000322
vt 0.22220001 0.58329999
vt 0.22220001 0.41670001
vt 0.33329999 0.58329999
vt 0.33329999 0.41670001
vt 0.36109999 0.41670001
vt 0.38890001 0.58329999
vt 0.38890001 0.41670001
vt 0.36109999 0.58329999
vt 0.41670001 0.41670001
vt 0.41670001 0.58329999
vt 0.44440001 0.41670001
vt 0.44440001 0.58329999
vt 0.47220001 0.41670001
vt 0.47220001 0.58329999
vt 0.50000000 0.41670001
vt 0.50000000 0.58329999
vt 0.52780002 0.41670001
vt 0.52780002 0.58329999
vt 0.55559999 0.41670001
vt 0.55559999 0.58329999
vt 0.58329999 0.41670001
vt 0.58329999 0.58329999
vt 0.61110002 0.41670001
vt 0.61110002 0.58329999
vt 0.63889998 0.58329999
vt 0.63889998 0.41670001
vt 0.66670001 0.58329999
vt 0.66670001 0.41670001
vt 0.69440001 0.58329999
vt 0.69440001 0.41670001
vt 0.72219998 0.58329999
vt 0.72219998 0.41670001
vt 0.75000000 0.58329999
vt 0.75000000 0.41670001
vt 0.77780002 0.41670001
vt 0.77780002 0.58329999
vt 0.80559999 0.41670001
vt 0.80559999 0.58329999
vt 0.83329999 0.41670001
vt 0.83329999 0.58329999
vt 0.86110002 0.41670001
vt 0.86110002 0.58329999
vt 0.88889998 0.58329999
vt 0.88889998 0.41670001
vt 0.91670001 0.58329999
vt 0.91670001 0.41670001
vt 0.94440001 0.58329999
vt 0.94440001 0.41670001
vt 0.97219998 0.58329999
vt 0.97219998 0.41670001
vt 1.00000000 0.58329999
vt 1.00000000 0.41670001
vt 1.02779996 0.58329999
vt 0.02779996 0.58329999
vt 1.02779996 0.41670001
vt 0.02779996 0.41670001
vt 0.05559998 0.58329999
vt 0.05559998 0.41670001
vt 0.08329999 0.58329999
vt 0.08329999 0.41670001
vt 0.11110000 0.58329999
vt 0.11110000 0.41670001
vt 0.13890000 0.58329999
vt 0.13890000 0.41670001
vt 0.16670001 0.41670001
vt 0.16670001 0.58329999
vt 0.19440000 0.41670001
vt 0.19440000 0.58329999
vt 0.25029999 0.06739998
vt 0.17890000 0.11739999
vt 0.11740000 0.17890000
vt 0.83329999 0.58329999
vt 0.86110002 0.41670001
vt 0.83329999 0.41670001
vt 0.86110002 0.58329999
vt 0.88889998 0.58329999
vt 0.88889998 0.41670001
vt 0.00819580 0.58670390
vt 0.00819580 0.41320980
vt 0.00057904 0.49995661
vt 0.03071965 0.67083943
vt 0.03071965 0.32913011
vt 0.06749773 0.74975091
vt 0.06749773 0.25022089
vt 0.11744190 0.82107651
vt 0.11744190 0.17887652
vt 0.17897449 0.88264972
vt 0.25029999 0.06737202
vt 0.25029999 0.93260002
vt 0.32918790 0.96940136
vt 0.32918790 0.03053153
vt 0.41329870 0.99194020
vt 0.41329870 0.00800377
vt 0.50002098 0.99953461
vt 0.50002098 0.00044191
vt 0.58674318 0.99194551
vt 0.58674318 0.00800908
vt 0.67079961 0.96941185
vt 0.67079961 0.03054202
vt 0.74968749 0.93261534
vt 0.74968749 0.06738740
vt 0.82101297 0.88266939
vt 0.82101297 0.11729360
vt 0.88260001 0.82110000
vt 0.88260001 0.17890000
vt 0.93248981 0.74977744
vt 0.93248981 0.25024742
vt 0.96932232 0.67086816
vt 0.96932232 0.32915890
vt 0.99184608 0.58673400
vt 0.99184608 0.41324002
vt 0.99940848 0.49998730
vt 0.80559999 0.58329999
vt 0.80559999 0.41670001
vt 0.91670001 0.58329999
vt 0.91670001 0.41670001
vt 0.36109999 0.41670001
vt 0.38890001 0.58329999
vt 0.38890001 0.41670001
vt 0.36109999 0.58329999
vt 0.41670001 0.41670001
vt 0.41670001 0.58329999
vt 0.44440001 0.41670001
vt 0.44440001 0.58329999
vt 0.47220001 0.41670001
vt 0.47220001 0.58329999
vt 0.50000000 0.41670001
vt 0.50000000 0.58329999
vt 0.52780002 0.41670001
vt 0.52780002 0.58329999
vt 0.55559999 0.41670001
vt 0.55559999 0.58329999
vt 0.58329999 0.41670001
vt 0.58329999 0.58329999
vt 0.61110002 0.41670001
vt 0.61110002 0.58329999
vt 0.63889998 0.41670001
vt 0.63889998 0.58329999
vt 0.66670001 0.58329999
vt 0.66670001 0.41670001
vt 0.69440001 0.58329999
vt 0.69440001 0.41670001
vt 0.72219998 0.58329999
vt 0.72219998 0.41670001
vt 0.75000000 0.58329999
vt 0.75000000 0.41670001
vt 0.77780002 0.41670001
vt 0.77780002 0.58329999
vt 0.94440001 0.58329999
vt 0.94440001 0.41670001
vt 0.97219998 0.58329999
vt 0.97219998 0.41670001
vt 1.00000000 0.58329999
vt 1.00000000 0.41670001
vt 1.02779996 0.58329999
vt 0.02779996 0.58329999
vt 1.02779996 0.41670001
vt 0.02779996 0.41670001
vt 0.05559998 0.58329999
vt 0.05559998 0.41670001
vt 0.08329999 0.58329999
vt 0.08329999 0.41670001
vt 0.11110000 0.58329999
vt 0.11110000 0.41670001
vt 0.13890000 0.58329999
vt 0.13890000 0.41670001
vt 0.16670001 0.41670001
vt 0.16670001 0.58329999
vt 0.19440000 0.41670001
vt 0.19440000 0.58329999
vt 0.22220001 0.41670001
vt 0.22220001 0.58329999
vt 0.25000000 0.41670001
vt 0.25000000 0.58329999
vt 0.27779999 0.58329999
vt 0.27779999 0.41670001
vt 0.30559999 0.58329999
vt 0.30559999 0.41670001
vt 0.33329999 0.58329999
vt 0.33329999 0.41670001
vt 0.25029999 0.06739998
vt 0.17890000 0.11739999
vt 0.11740000 0.17890000
vt 0.83329999 0.58329999
vt 0.86110002 0.41670001
vt 0.83329999 0.41670001
vt 0.86110002 0.58329999
vt 0.88889998 0.41670001
vt 0.88889998 0.58329999
vt 0.00818955 0.58671796
vt 0.00818955 0.41323090
vt 0.00062700 0.49997151
vt 0.03071398 0.67083097
vt 0.03071398 0.32911921
vt 0.06749301 0.74974728
vt 0.06749301 0.25020522
vt 0.11743850 0.82107770
vt 0.11743850 0.17887771
vt 0.25029999 0.93260002
vt 0.25029999 0.06736308
vt 0.32918990 0.96940148
vt 0.32918990 0.03056622
vt 0.41330290 0.99193949
vt 0.41330290 0.00803310
vt 0.50002742 0.99953365
vt 0.50002742 0.00044399
vt 0.58675188 0.99194455
vt 0.58675188 0.00803822
vt 0.67083222 0.96941143
vt 0.67083222 0.03057623
vt 0.74973249 0.93261462
vt 0.74973249 0.06737763
vt 0.82104361 0.88267499
vt 0.82104361 0.11732680
vt 0.88260001 0.82110000
vt 0.88260001 0.17890000
vt 0.93253410 0.74977249
vt 0.93253410 0.25023037
vt 0.96932453 0.67085838
vt 0.96932453 0.32915211
vt 0.99185377 0.58674669
vt 0.99185377 0.41325963
vt 0.99944359 0.50000072
vt 0.80559999 0.58329999
vt 0.80559999 0.41670001
vt 0.91670001 0.58329999
vt 0.91670001 0.41670001
vt 0.38890001 0.41670001
vt 0.36109999 0.58329999
vt 0.38890001 0.58329999
vt 0.36109999 0.41670001
vt 0.41670001 0.41670001
vt 0.41670001 0.58329999
vt 0.44440001 0.41670001
vt 0.44440001 0.58329999
vt 0.47220001 0.41670001
vt 0.47220001 0.58329999
vt 0.50000000 0.41670001
vt 0.50000000 0.58329999
vt 0.52780002 0.41670001
vt 0.52780002 0.58329999
vt 0.55559999 0.41670001
vt 0.55559999 0.58329999
vt 0.58329999 0.41670001
vt 0.58329999 0.58329999
vt 0.61110002 0.41670001
vt 0.61110002 0.58329999
vt 0.63889998 0.58329999
vt 0.63889998 0.41670001
vt 0.66670001 0.58329999
vt 0.66670001 0.41670001
vt 0.69440001 0.58329999
vt 0.69440001 0.41670001
vt 0.72219998 0.58329999
vt 0.72219998 0.41670001
vt 0.75000000 0.58329999
vt 0.75000000 0.41670001
vt 0.77780002 0.41670001
vt 0.77780002 0.58329999
vt 0.94440001 0.58329999
vt 0.94440001 0.41670001
vt 0.97219998 0.58329999
vt 0.97219998 0.41670001
vt 1.00000000 0.58329999
vt 1.00000000 0.41670001
vt 1.02779996 0.58329999
vt 0.02779996 0.58329999
vt 1.02779996 0.41670001
vt 0.02779996 0.41670001
vt 0.05559998 0.58329999
vt 0.05559998 0.41670001
vt 0.08329999 0.58329999
vt 0.08329999 0.41670001
vt 0.11110000 0.58329999
vt 0.11110000 0.41670001
vt 0.25029999 0.93260002
vt 0.11740000 0.82110000
vt 0.17890000 0.88260001
vt 0.16670001 0.58329999
vt 0.19440000 0.41670001
vt 0.16670001 0.41670001
vt 0.19440000 0.58329999
vt 0.22220001 0.41670001
vt 0.22220001 0.58329999
vt 0.25000000 0.41670001
vt 0.25000000 0.58329999
vt 0.27779999 0.58329999
vt 0.27779999 0.41670001
vt 0.30559999 0.58329999
vt 0.30559999 0.41670001
vt 0.33329999 0.58329999
vt 0.33329999 0.41670001
vt 0.13890000 0.41670001
vt 0.13890000 0.58329999
vt 0.25000000 0.41670001
vt 0.27779999 0.58329999
vt 0.27779999 0.41670001
vt 0.25000000 0.58329999
vt 0.30559999 0.58329999
vt 0.30559999 0.41670001
vt 0.00816852 0.58671796
vt 0.00816852 0.41323090
vt 0.00058462 0.49997151
vt 0.03070422 0.67083097
vt 0.03070422 0.32911921
vt 0.06749530 0.74974728
vt 0.06749530 0.25020522
vt 0.11743020 0.82107770
vt 0.11743020 0.17887771
vt 0.17898770 0.88265079
vt 0.17898770 0.11730808
vt 0.25029999 0.93260002
vt 0.25029999 0.06736308
vt 0.32919669 0.96940148
vt 0.32919669 0.03056622
vt 0.41328940 0.99193949
vt 0.41328940 0.00803310
vt 0.50001538 0.99953365
vt 0.50001538 0.00044399
vt 0.58673590 0.99194455
vt 0.58673590 0.00803822
vt 0.67082858 0.96941143
vt 0.67082858 0.03057623
vt 0.74972528 0.93261462
vt 0.74972528 0.06737763
vt 0.82104301 0.88267499
vt 0.82104301 0.11732680
vt 0.88260001 0.82110000
vt 0.88260001 0.17890000
vt 0.93252999 0.74977249
vt 0.93252999 0.25023037
vt 0.96932060 0.67085838
vt 0.96932060 0.32915211
vt 0.99185628 0.58674669
vt 0.99185628 0.41325963
vt 0.99944073 0.50000072
vt 0.22220001 0.58329999
vt 0.22220001 0.41670001
vt 0.33329999 0.58329999
vt 0.33329999 0.41670001
vt 0.38890001 0.41670001
vt 0.36109999 0.58329999
vt 0.38890001 0.58329999
vt 0.36109999 0.41670001
vt 0.41670001 0.41670001
vt 0.41670001 0.58329999
vt 0.44440001 0.41670001
vt 0.44440001 0.58329999
vt 0.47220001 0.41670001
vt 0.47220001 0.58329999
vt 0.50000000 0.41670001
vt 0.50000000 0.58329999
vt 0.52780002 0.41670001
vt 0.52780002 0.58329999
vt 0.55559999 0.41670001
vt 0.55559999 0.58329999
vt 0.58329999 0.41670001
vt 0.58329999 0.58329999
vt 0.61110002 0.41670001
vt 0.61110002 0.58329999
vt 0.63889998 0.41670001
vt 0.63889998 0.58329999
vt 0.66670001 0.58329999
vt 0.66670001 0.41670001
vt 0.69440001 0.58329999
vt 0.69440001 0.41670001
vt 0.72219998 0.58329999
vt 0.72219998 0.41670001
vt 0.75000000 0.58329999
vt 0.75000000 0.41670001
vt 0.77780002 0.41670001
vt 0.77780002 0.58329999
vt 0.80559999 0.41670001
vt 0.80559999 0.58329999
vt 0.83329999 0.41670001
vt 0.83329999 0.58329999
vt 0.86110002 0.41670001
vt 0.86110002 0.58329999
vt 0.88889998 0.41670001
vt 0.88889998 0.58329999
vt 0.91670001 0.58329999
vt 0.91670001 0.41670001
vt 0.94440001 0.58329999
vt 0.94440001 0.41670001
vt 0.97219998 0.58329999
vt 0.97219998 0.41670001
vt 1.00000000 0.58329999
vt 1.00000000 0.41670001
vt 1.02779996 0.58329999
vt 0.02779996 0.58329999
vt 1.02779996 0.41670001
vt 0.02779996 0.41670001
vt 0.05559998 0.58329999
vt 0.05559998 0.41670001
vt 0.08329999 0.58329999
vt 0.08329999 0.41670001
vt 0.11110000 0.58329999
vt 0.11110000 0.41670001
vt 0.13890000 0.41670001
vt 0.13890000 0.58329999
vt 0.16670001 0.41670001
vt 0.16670001 0.58329999
vt 0.19440000 0.41670001
vt 0.19440000 0.58329999
f 1/1 2/2 3/3
f 2/2 1/1 4/4
f 3/3 5/5 6/6
f 5/5 3/3 2/2
f 7/7 8/8 9/9
f 8/8 7/7 10/10
f 8/8 10/10 11/11
f 11/11 10/10 12/12
f 11/11 12/12 13/13
f 13/13 12/12 14/14
f 13/13 14/14 15/15
f 15/15 14/14 16/16
f 15/15 16/16 17/17
f 17/17 16/16 18/18
f 17/17 18/18 19/19
f 19/19 18/18 20/20
f 19/19 20/20 21/21
f 21/21 20/20 22/22
f 21/21 22/22 23/23
f 23/23 22/22 24/24
f 23/23 24/24 25/25
f 25/25 24/24 26/26
f 25/25 26/26 27/27
f 27/27 26/26 28/28
f 27/27 28/28 29/29
f 29/29 28/28 30/30
f 29/29 30/30 31/31
f 31/31 30/30 32/32
f 31/31 32/32 33/33
f 33/33 32/32 34/34
f 33/33 34/34 35/35
f 35/35 34/34 36/36
f 35/35 36/36 37/37
f 37/37 36/36 38/38
f 37/37 38/38 39/39
f 39/39 38/38 40/40
f 39/39 40/40 41/41
f 41/41 40/40 42/42
f 43/43 1/1 44/44
f 1/1 43/43 4/4
f 6/6 45/45 46/46
f 45/45 6/6 5/5
f 47/47 48/48 49/49
f 48/48 47/47 50/50
f 51/51 49/49 52/52
f 49/49 51/51 47/47
f 53/53 52/52 54/54
f 52/52 53/53 51/51
f 55/55 54/54 56/56
f 54/54 55/55 53/53
f 57/57 56/56 58/58
f 56/56 57/57 55/55
f 59/59 58/58 60/60
f 58/58 59/59 57/57
f 61/61 60/60 62/62
f 60/60 61/61 59/59
f 63/63 62/62 64/64
f 62/62 63/63 61/61
f 65/65 64/64 66/66
f 64/64 65/65 63/63
f 67/67 66/66 68/68
f 66/66 67/67 65/65
f 67/67 69/69 70/70
f 69/69 67/67 68/68
f 70/70 71/71 72/72
f 71/71 70/70 69/69
f 72/72 73/73 74/74
f 73/73 72/72 71/71
f 74/74 75/75 76/76
f 75/75 74/74 73/73
f 75/75 77/77 76/76
f 77/77 75/75 78/78
f 78/78 79/79 77/77
f 79/79 78/78 80/80
f 80/80 81/81 79/79
f 81/81 80/80 82/82
f 82/82 83/83 81/81
f 83/83 82/82 84/84
f 85/85 83/83 84/84
f 83/83 85/85 86/86
f 87/87 86/86 85/85
f 86/86 87/87 88/88
f 89/89 88/88 87/87
f 88/88 89/89 90/90
f 91/91 90/90 89/89
f 90/90 91/91 92/92
f 93/93 92/92 91/91
f 92/92 93/93 94/94
f 95/95 94/94 93/93
f 94/94 95/95 97/97
f 99/99 98/98 96/96
f 98/98 99/99 100/100
f 101/101 100/100 99/99
f 100/100 101/101 102/102
f 103/103 102/102 101/101
f 102/102 103/103 104/104
f 105/105 104/104 103/103
f 104/104 105/105 106/106
f 105/105 107/107 106/106
f 107/107 105/105 108/108
f 108/108 109/109 107/107
f 109/109 108/108 110/110
f 110/110 44/44 109/109
f 44/44 110/110 43/43
f 46/46 48/48 50/50
f 48/48 46/46 45/45
f 111/111 112/112 113/113
f 112/112 111/111 114/114
f 113/113 115/115 116/116
f 115/115 113/113 112/112
f 117/117 118/118 119/119
f 118/118 117/117 120/120
f 118/118 120/120 121/121
f 121/121 120/120 122/122
f 121/121 122/122 123/123
f 123/123 122/122 124/124
f 123/123 124/124 125/125
f 125/125 124/124 126/126
f 125/125 126/126 127/127
f 127/127 126/126 128/128
f 127/127 128/128 129/129
f 129/129 128/128 130/130
f 129/129 130/130 131/131
f 131/131 130/130 132/132
f 131/131 132/132 133/133
f 133/133 132/132 134/134
f 133/133 134/134 135/135
f 135/135 134/134 136/136
f 135/135 136/136 137/137
f 137/137 136/136 138/138
f 137/137 138/138 139/139
f 139/139 138/138 140/140
f 139/139 140/140 141/141
f 141/141 140/140 142/142
f 141/141 142/142 143/143
f 143/143 142/142 144/144
f 143/143 144/144 145/145
f 145/145 144/144 146/146
f 145/145 146/146 147/147
f 147/147 146/146 148/148
f 147/147 148/148 149/149
f 149/149 148/148 150/150
f 149/149 150/150 151/151
f 151/151 150/150 152/152
f 153/153 111/111 154/154
f 111/111 153/153 114/114
f 116/116 155/155 156/156
f 155/155 116/116 115/115
f 157/157 158/158 159/159
f 158/158 157/157 160/160
f 161/161 158/158 162/162
f 158/158 161/161 159/159
f 163/163 162/162 164/164
f 162/162 163/163 161/161
f 165/165 164/164 166/166
f 164/164 165/165 163/163
f 167/167 166/166 168/168
f 166/166 167/167 165/165
f 169/169 168/168 170/170
f 168/168 169/169 167/167
f 171/171 170/170 172/172
f 170/170 171/171 169/169
f 173/173 172/172 174/174
f 172/172 173/173 171/171
f 175/175 174/174 176/176
f 174/174 175/175 173/173
f 175/175 177/177 178/178
f 177/177 175/175 176/176
f 178/178 179/179 180/180
f 179/179 178/178 177/177
f 180/180 181/181 182/182
f 181/181 180/180 179/179
f 182/182 183/183 184/184
f 183/183 182/182 181/181
f 184/184 185/185 186/186
f 185/185 184/184 183/183
f 185/185 187/187 186/186
f 187/187 185/185 188/188
f 188/188 189/189 187/187
f 189/189 188/188 190/190
f 190/190 191/191 189/189
f 191/191 190/190 192/192
f 192/192 193/193 191/191
f 193/193 192/192 194/194
f 195/195 193/193 194/194
f 193/193 195/195 196/196
f 197/197 196/196 195/195
f 196/196 197/197 198/198
f 199/199 198/198 197/197
f 198/198 199/199 200/200
f 201/201 200/200 199/199
f 200/200 201/201 202/202
f 203/203 202/202 201/201
f 202/202 203/203 204/204
f 205/205 204/204 203/203
f 204/204 205/205 207/207
f 209/209 208/208 206/206
f 208/208 209/209 210/210
f 211/211 210/210 209/209
f 210/210 211/211 212/212
f 213/213 212/212 211/211
f 212/212 213/213 214/214
f 215/215 214/214 213/213
f 214/214 215/215 216/216
f 215/215 217/217 216/216
f 217/217 215/215 218/218
f 218/218 219/219 217/217
f 219/219 218/218 220/220
f 220/220 154/154 219/219
f 154/154 220/220 153/153
f 156/156 160/160 157/157
f 160/160 156/156 155/155
f 221/221 222/222 223/223
f 222/222 221/221 224/224
f 223/223 225/225 226/226
f 225/225 223/223 222/222
f 227/227 228/228 229/229
f 228/228 227/227 230/230
f 228/228 230/230 231/231
f 231/231 230/230 232/232
f 231/231 232/232 233/233
f 233/233 232/232 234/234
f 233/233 234/234 235/235
f 235/235 234/234 236/236
f 235/235 236/236 237/237
f 237/237 236/236 238/238
f 237/237 238/238 239/239
f 239/239 238/238 240/240
f 239/239 240/240 241/241
f 241/241 240/240 242/242
f 241/241 242/242 243/243
f 243/243 242/242 244/244
f 243/243 244/244 245/245
f 245/245 244/244 246/246
f 245/245 246/246 247/247
f 247/247 246/246 248/248
f 247/247 248/248 249/249
f 249/249 248/248 250/250
f 249/249 250/250 251/251
f 251/251 250/250 252/252
f 251/251 252/252 253/253
f 253/253 252/252 254/254
f 253/253 254/254 255/255
f 255/255 254/254 256/256
f 255/255 256/256 257/257
f 257/257 256/256 258/258
f 257/257 258/258 259/259
f 259/259 258/258 260/260
f 259/259 260/260 261/261
f 261/261 260/260 262/262
f 263/263 221/221 264/264
f 221/221 263/263 224/224
f 226/226 265/265 266/266
f 265/265 226/226 225/225
f 267/267 268/268 269/269
f 268/268 267/267 270/270
f 271/271 268/268 272/272
f 268/268 271/271 269/269
f 273/273 272/272 274/274
f 272/272 273/273 271/271
f 275/275 274/274 276/276
f 274/274 275/275 273/273
f 277/277 276/276 278/278
f 276/276 277/277 275/275
f 279/279 278/278 280/280
f 278/278 279/279 277/277
f 281/281 280/280 282/282
f 280/280 281/281 279/279
f 283/283 282/282 284/284
f 282/282 283/283 281/281
f 285/285 284/284 286/286
f 284/284 285/285 283/283
f 285/285 287/287 288/288
f 287/287 285/285 286/286
f 288/288 289/289 290/290
f 289/289 288/288 287/287
f 290/290 291/291 292/292
f 291/291 290/290 289/289
f 292/292 293/293 294/294
f 293/293 292/292 291/291
f 294/294 295/295 296/296
f 295/295 294/294 293/293
f 295/295 297/297 296/296
f 297/297 295/295 298/298
f 298/298 299/299 297/297
f 299/299 298/298 300/300
f 300/300 301/301 299/299
f 301/301 300/300 302/302
f 302/302 303/303 301/301
f 303/303 302/302 304/304
f 305/305 303/303 304/304
f 303/303 305/305 306/306
f 307/307 306/306 305/305
f 306/306 307/307 308/308
f 309/309 308/308 307/307
f 308/308 309/309 310/310
f 311/311 310/310 309/309
f 310/310 311/311 312/312
f 313/313 312/312 311/311
f 312/312 313/313 314/314
f 315/315 314/314 313/313
f 314/314 315/315 317/317
f 319/319 318/318 316/316
f 318/318 319/319 320/320
f 321/321 320/320 319/319
f 320/320 321/321 322/322
f 323/323 322/322 321/321
f 322/322 323/323 324/324
f 325/325 324/324 323/323
f 324/324 325/325 326/326
f 325/325 327/327 326/326
f 327/327 325/325 328/328
f 328/328 329/329 327/327
f 329/329 328/328 330/330
f 330/330 264/264 329/329
f 264/264 330/330 263/263
f 266/266 270/270 267/267
f 270/270 266/266 265/265
f 331/331 332/332 333/333
f 334/334 335/335 336/336
f 335/335 334/334 337/337
f 338/338 335/335 337/337
f 335/335 338/338 339/339
f 340/340 341/341 342/342
f 341/341 340/340 343/343
f 341/341 343/343 344/344
f 344/344 343/343 345/345
f 344/344 345/345 346/346
f 346/346 345/345 347/347
f 346/346 347/347 348/348
f 348/348 347/347 349/349
f 348/348 349/349 350/350
f 350/350 349/349 351/351
f 350/350 351/351 352/352
f 350/350 352/352 353/353
f 353/353 352/352 354/354
f 353/353 354/354 355/355
f 355/355 354/354 356/356
f 355/355 356/356 357/357
f 357/357 356/356 358/358
f 357/357 358/358 359/359
f 359/359 358/358 360/360
f 359/359 360/360 361/361
f 361/361 360/360 362/362
f 361/361 362/362 363/363
f 363/363 362/362 364/364
f 363/363 364/364 365/365
f 365/365 364/364 366/366
f 365/365 366/366 367/367
f 367/367 366/366 368/368
f 367/367 368/368 369/369
f 369/369 368/368 370/370
f 369/369 370/370 371/371
f 371/371 370/370 372/372
f 371/371 372/372 373/373
f 373/373 372/372 374/374
f 375/375 336/336 376/376
f 336/336 375/375 334/334
f 377/377 339/339 338/338
f 339/339 377/377 378/378
f 379/379 380/380 381/381
f 380/380 379/379 382/382
f 383/383 380/380 384/384
f 380/380 383/383 381/381
f 385/385 384/384 386/386
f 384/384 385/385 383/383
f 387/387 386/386 388/388
f 386/386 387/387 385/385
f 389/389 388/388 390/390
f 388/388 389/389 387/387
f 391/391 390/390 392/392
f 390/390 391/391 389/389
f 393/393 392/392 394/394
f 392/392 393/393 391/391
f 395/395 394/394 396/396
f 394/394 395/395 393/393
f 397/397 396/396 398/398
f 396/396 397/397 395/395
f 399/399 398/398 400/400
f 398/398 399/399 397/397
f 399/399 401/401 402/402
f 401/401 399/399 400/400
f 402/402 403/403 404/404
f 403/403 402/402 401/401
f 404/404 405/405 406/406
f 405/405 404/404 403/403
f 406/406 407/407 408/408
f 407/407 406/406 405/405
f 407/407 409/409 408/408
f 409/409 407/407 410/410
f 410/410 376/376 409/409
f 376/376 410/410 375/375
f 411/411 378/378 377/377
f 378/378 411/411 412/412
f 413/413 412/412 411/411
f 412/412 413/413 414/414
f 415/415 414/414 413/413
f 414/414 415/415 416/416
f 417/417 416/416 415/415
f 416/416 417/417 419/419
f 421/421 420/420 418/418
f 420/420 421/421 422/422
f 423/423 422/422 421/421
f 422/422 423/423 424/424
f 425/425 424/424 423/423
f 424/424 425/425 426/426
f 427/427 426/426 425/425
f 426/426 427/427 428/428
f 427/427 429/429 428/428
f 429/429 427/427 430/430
f 430/430 431/431 429/429
f 431/431 430/430 432/432
f 432/432 433/433 431/431
f 433/433 432/432 434/434
f 434/434 435/435 433/433
f 435/435 434/434 436/436
f 435/435 437/437 438/438
f 437/437 435/435 436/436
f 438/438 439/439 440/440
f 439/439 438/438 437/437
f 440/440 441/441 442/442
f 441/441 440/440 439/439
f 442/442 382/382 379/379
f 382/382 442/442 441/441
f 443/443 444/444 445/445
f 446/446 447/447 448/448
f 447/447 446/446 449/449
f 449/449 450/450 447/447
f 450/450 449/449 451/451
f 452/452 453/453 454/454
f 453/453 452/452 455/455
f 453/453 455/455 456/456
f 456/456 455/455 457/457
f 456/456 457/457 458/458
f 458/458 457/457 459/459
f 458/458 459/459 460/460
f 460/460 459/459 461/461
f 460/460 461/461 462/462
f 462/462 461/461 463/463
f 462/462 463/463 464/464
f 464/464 463/463 465/465
f 464/464 465/465 466/466
f 466/466 465/465 467/467
f 466/466 467/467 468/468
f 468/468 467/467 469/469
f 468/468 469/469 470/470
f 470/470 469/469 471/471
f 470/470 471/471 472/472
f 472/472 471/471 473/473
f 472/472 473/473 474/474
f 474/474 473/473 475/475
f 474/474 475/475 476/476
f 476/476 475/475 477/477
f 476/476 477/477 478/478
f 478/478 477/477 479/479
f 478/478 479/479 480/480
f 480/480 479/479 481/481
f 480/480 481/481 482/482
f 482/482 481/481 483/483
f 482/482 483/483 484/484
f 484/484 483/483 485/485
f 486/486 448/448 487/487
f 448/448 486/486 446/446
f 488/488 450/450 451/451
f 450/450 488/488 489/489
f 490/490 491/491 492/492
f 491/491 490/490 493/493
f 494/494 492/492 495/495
f 492/492 494/494 490/490
f 496/496 495/495 497/497
f 495/495 496/496 494/494
f 498/498 497/497 499/499
f 497/497 498/498 496/496
f 500/500 499/499 501/501
f 499/499 500/500 498/498
f 502/502 501/501 503/503
f 501/501 502/502 500/500
f 504/504 503/503 505/505
f 503/503 504/504 502/502
f 506/506 505/505 507/507
f 505/505 506/506 504/504
f 508/508 507/507 509/509
f 507/507 508/508 506/506
f 508/508 510/510 511/511
f 510/510 508/508 509/509
f 511/511 512/512 513/513
f 512/512 511/511 510/510
f 513/513 514/514 515/515
f 514/514 513/513 512/512
f 515/515 516/516 517/517
f 516/516 515/515 514/514
f 517/517 518/518 519/519
f 518/518 517/517 516/516
f 518/518 520/520 519/519
f 520/520 518/518 521/521
f 521/521 487/487 520/520
f 487/487 521/521 486/486
f 522/522 489/489 488/488
f 489/489 522/522 523/523
f 524/524 523/523 522/522
f 523/523 524/524 525/525
f 526/526 525/525 524/524
f 525/525 526/526 527/527
f 528/528 527/527 526/526
f 527/527 528/528 530/530
f 532/532 531/531 529/529
f 531/531 532/532 533/533
f 534/534 533/533 532/532
f 533/533 534/534 535/535
f 536/536 535/535 534/534
f 535/535 536/536 537/537
f 538/538 539/539 540/540
f 541/541 542/542 543/543
f 542/542 541/541 544/544
f 544/544 545/545 542/542
f 545/545 544/544 546/546
f 546/546 547/547 545/545
f 547/547 546/546 548/548
f 547/547 549/549 550/550
f 549/549 547/547 548/548
f 550/550 551/551 552/552
f 551/551 550/550 549/549
f 552/552 553/553 554/554
f 553/553 552/552 551/551
f 554/554 491/491 493/493
f 491/491 554/554 553/553
f 536/536 555/555 537/537
f 555/555 536/536 556/556
f 556/556 543/543 555/555
f 543/543 556/556 541/541
f 557/557 558/558 559/559
f 558/558 557/557 560/560
f 559/559 561/561 562/562
f 561/561 559/559 558/558
f 563/563 564/564 565/565
f 564/564 563/563 566/566
f 564/564 566/566 567/567
f 567/567 566/566 568/568
f 567/567 568/568 569/569
f 569/569 568/568 570/570
f 569/569 570/570 571/571
f 571/571 570/570 572/572
f 571/571 572/572 573/573
f 573/573 572/572 574/574
f 573/573 574/574 575/575
f 575/575 574/574 576/576
f 575/575 576/576 577/577
f 577/577 576/576 578/578
f 577/577 578/578 579/579
f 579/579 578/578 580/580
f 579/579 580/580 581/581
f 581/581 580/580 582/582
f 581/581 582/582 583/583
f 583/583 582/582 584/584
f 583/583 584/584 585/585
f 585/585 584/584 586/586
f 585/585 586/586 587/587
f 587/587 586/586 588/588
f 587/587 588/588 589/589
f 589/589 588/588 590/590
f 589/589 590/590 591/591
f 591/591 590/590 592/592
f 591/591 592/592 593/593
f 593/593 592/592 594/594
f 593/593 594/594 595/595
f 595/595 594/594 596/596
f 595/595 596/596 597/597
f 597/597 596/596 598/598
f 599/599 557/557 600/600
f 557/557 599/599 560/560
f 562/562 601/601 602/602
f 601/601 562/562 561/561
f 603/603 604/604 605/605
f 604/604 603/603 606/606
f 607/607 605/605 608/608
f 605/605 607/607 603/603
f 609/609 608/608 610/610
f 608/608 609/609 607/607
f 611/611 610/610 612/612
f 610/610 611/611 609/609
f 613/613 612/612 614/614
f 612/612 613/613 611/611
f 615/615 614/614 616/616
f 614/614 615/615 613/613
f 617/617 616/616 618/618
f 616/616 617/617 615/615
f 619/619 618/618 620/620
f 618/618 619/619 617/617
f 621/621 620/620 622/622
f 620/620 621/621 619/619
f 623/623 622/622 624/624
f 622/622 623/623 621/621
f 623/623 625/625 626/626
f 625/625 623/623 624/624
f 626/626 627/627 628/628
f 627/627 626/626 625/625
f 628/628 629/629 630/630
f 629/629 628/628 627/627
f 630/630 631/631 632/632
f 631/631 630/630 629/629
f 631/631 633/633 632/632
f 633/633 631/631 634/634
f 634/634 635/635 633/633
f 635/635 634/634 636/636
f 636/636 637/637 635/635
f 637/637 636/636 638/638
f 638/638 639/639 637/637
f 639/639 638/638 640/640
f 640/640 641/641 639/639
f 641/641 640/640 642/642
f 643/643 641/641 642/642
f 641/641 643/643 644/644
f 645/645 644/644 643/643
f 644/644 645/645 646/646
f 647/647 646/646 645/645
f 646/646 647/647 648/648
f 649/649 648/648 647/647
f 648/648 649/649 650/650
f 651/651 650/650 649/649
f 650/650 651/651 653/653
f 655/655 654/654 652/652
f 654/654 655/655 656/656
f 657/657 656/656 655/655
f 656/656 657/657 658/658
f 659/659 658/658 657/657
f 658/658 659/659 660/660
f 659/659 661/661 660/660
f 661/661 659/659 662/662
f 662/662 663/663 661/661
f 663/663 662/662 664/664
f 664/664 665/665 663/663
f 665/665 664/664 666/666
f 666/666 600/600 665/665
f 600/600 666/666 599/599
f 602/602 604/604 606/606
f 604/604 602/602 601/601

