# https://github.com/mikedh/trimesh
v 1.93245152 0.29863663 -0.46254435
v 2.29384105 0.29859655 -1.62705859
v 1.93256922 0.29874466 -1.62716501
v 2.29370416 0.29858757 -0.46260419
v -1.04927278 -1.96006946 -0.34227288
v -0.32633047 -1.96010106 -1.62712668
v -1.04899941 -1.95994255 -1.62710793
v -0.32612082 -1.96011406 -0.34211331
v -1.04895028 -1.32760413 -1.62716924
v -1.04913260 -1.32765925 -0.66336238
v -1.04914138 -1.96006759 -1.62711099
v -1.04898650 -1.96002616 -0.34211292
v -1.04910584 -0.35387449 -0.34207011
v -1.04889134 -0.83584232 -0.66323300
v -1.04890608 -0.83563851 -1.62706848
v -1.04907189 -0.35371590 -1.62689901
v -0.32607735 -4.39931748 -1.62705977
v -0.32637803 -1.96004805 -0.34208284
v -0.32638602 -4.39940938 -0.34210548
v -0.32618779 -1.96016498 -1.62716119
v -1.12939662 -0.35397840 -0.34197467
v -1.04909007 -0.35382868 -1.62712065
v -1.12919485 -0.35372965 -1.62703155
v -1.04926064 -0.35385634 -0.34208012
v -0.32615704 -4.39951058 -0.34196641
v 0.82805413 -4.39951493 -1.62700207
v -0.32625242 -4.39924883 -1.62707664
v 0.82812278 -4.39948657 -0.34225742
v -1.12948066 -0.35379857 -0.34209036
v -1.12922371 -0.83579193 -1.62692617
v -1.12938174 -0.83555928 -0.34219165
v -1.12942650 -0.35383659 -1.62699179
v 0.82820212 -4.47982228 -1.62722945
v 0.82804603 -4.47971358 -1.62699661
v 0.82816962 -4.39955617 -0.34206121
v 0.82805813 -4.47983502 -0.34208638
v 0.82796126 -4.47972520 -0.34220652
v 0.82819695 -4.39945641 -1.62707528
v 0.82825538 -5.37326423 -1.62695368
v 0.82825857 -5.37310419 -0.66326863
v 0.82826471 -5.78467948 -1.62708815
v 0.82804351 -5.78477728 -0.34222224
v 0.82804391 -4.88127301 -0.66344178
v 0.82808317 -4.88140302 -1.62706873
v 0.82822186 -5.78463169 -0.34214676
v 2.48466706 -5.78462372 -1.62698081
v 0.82794976 -5.78464106 -1.62706177
v 2.48460532 -5.78472671 -0.66334294
v 2.97648943 -5.78479965 -0.66357113
v 3.45830699 -5.78484408 -1.62698780
v 2.97642867 -5.78475546 -1.62718057
v 3.45826686 -5.78476495 -0.34229374
v 3.45834791 -4.47977439 -0.34226686
v 3.45807831 -5.78471254 -1.62712543
v 3.45826493 -5.78478738 -0.34196391
v 3.45831290 -4.47975514 -1.62724402
v 3.45848243 -4.47967214 -0.34204184
v 1.85213123 -4.47967223 -1.62705842
v 3.45837912 -4.47977900 -1.62724270
v 1.85222924 -4.47995708 -0.34217239
v 1.85210603 -4.39955303 -0.34208717
v 1.85210645 -4.47980743 -1.62704354
v 1.85207886 -4.47962505 -0.34211331
v 1.85207908 -4.39964307 -1.62722610
v 1.85223503 -4.39945391 -0.34217670
v 3.45848202 -4.39957698 -1.62715397
v 1.85207926 -4.39939028 -1.62716175
v 3.45825660 -4.39960919 -0.34207556
v 3.45839840 -4.39949644 -0.34213210
v 3.45818875 -3.99796064 -0.58293576
v 3.45833143 -4.39921806 -1.62717410
v 3.45837584 -0.94616104 -0.34209190
v 3.45831715 -0.94619757 -0.34223509
v 3.45862414 -3.19481028 -0.58327486
v 3.45825308 -3.19473482 -1.22560001
v 3.45845377 -3.20474240 -1.22556528
v 3.45827070 -0.94624188 -1.62716482
v 3.45817072 -0.94602120 -1.62693600
v 3.45819239 -3.77716455 -1.62727202
v 3.45822159 -0.94645181 -1.22566378
v 3.45844742 -0.94617604 -1.22546431
v 3.45826903 -0.94596563 -0.58305351
v 3.45827971 -0.94588654 -0.58310582
v 3.45819588 -3.99789243 -1.22555402
v 3.45842439 0.21825068 -0.34206803
v 3.45840305 -0.14311769 -0.58305710
v 3.45823489 -0.14281651 -1.22561986
v 3.45827261 0.21823646 -1.62712928
v 3.45831728 0.21841963 -1.62715569
v 3.37798681 0.21820132 -1.22563210
v 2.29410585 0.21844695 -1.62717277
v 3.45818428 0.21824529 -0.34215059
v 3.37800884 0.21826839 -0.58320193
v 3.13721972 0.21838786 -0.58311082
v 3.13705559 0.21828992 -1.22584274
v 2.29384212 0.21823580 -0.34224858
v -3.12709277 -0.26344240 -1.62721171
v -3.20748947 1.54350912 -1.62701916
v -3.20744198 -0.26345937 -1.62712392
v -3.12699871 1.54331925 -1.62701132
vt 13.95510006 -7.39500141
vt 11.80819988 -0.47710001
vt 13.95520020 -0.47710001
vt 11.80809975 -7.39500141
vt -31.66741943 -8.11069965
vt -27.37360001 -0.47710001
vt -31.66741943 -0.47710001
vt -27.37360001 -8.11069965
vt -10.67506027 -0.47709405
vt -10.67504978 -6.20229721
vt -6.91791821 -0.47709000
vt -6.91790199 -8.11069012
vt -16.45988083 -8.11069965
vt -13.59729958 -6.20230007
vt -13.59731007 -0.47709703
vt -16.45989990 -0.47710001
vt 7.57406616 -0.47710001
vt -6.91790009 -8.11069965
vt 7.57412386 -8.11069965
vt -6.91795778 -0.47710001
vt 32.14459991 -8.11069965
vt 31.66749954 -0.47710001
vt 32.14459991 -0.47710001
vt 31.66749954 -8.11069965
vt 26.83160019 -8.11069965
vt 19.97326088 -0.47710001
vt 26.83156013 -0.47710001
vt 19.97330093 -8.11069965
vt -16.18652916 -8.11069965
vt -13.32384968 -0.47709894
vt -13.32392025 -8.11069679
vt -16.18646049 -0.47710204
vt 7.48859978 -0.47710001
vt 7.62650394 -0.47714198
vt 7.01140022 -8.11069965
vt 7.48859978 -8.11069965
vt 7.62650394 -8.11073875
vt 7.01140022 -0.47710001
vt 12.93420029 -0.47710001
vt 12.93420029 -6.20230007
vt 15.37930012 -0.47707999
vt 15.37930012 -8.11069965
vt 10.01196003 -6.20232296
vt 10.01196003 -0.47712302
vt -20.51528931 -8.11063671
vt -10.67512989 -0.47708797
vt -20.51528931 -0.47704804
vt -10.67512989 -6.20228815
vt -7.75290012 -6.20230007
vt -4.89029980 -0.47711205
vt -7.75290012 -0.47710001
vt -4.89029980 -8.11069965
vt 8.05099964 -8.11069965
vt 15.80377007 -0.47707701
vt 15.80372047 -8.11069870
vt 8.05105114 -0.47710097
vt 4.89029980 -8.11069965
vt 14.43227959 -0.47710001
vt 4.89027596 -0.47710001
vt 14.43229961 -8.11069965
vt 7.50360012 -8.11069965
vt 7.98070002 -0.47710001
vt 7.98070002 -8.11069965
vt 7.50360012 -0.47710001
vt 14.43223953 -8.11088753
vt 4.89029980 -0.47702706
vt 14.43223953 -0.47721505
vt 4.89029980 -8.11069965
vt 7.57408714 -8.11069965
vt 5.18863392 -6.67941380
vt 7.57408714 -0.47710001
vt -12.94141006 -8.11069965
vt -12.94124031 -8.11079788
vt 0.41749510 -6.67941380
vt 0.41749510 -2.86259604
vt 0.47713730 -2.86259604
vt -12.94141006 -0.47710001
vt -12.94124985 -0.47722399
vt 3.87650704 -0.47710001
vt -12.94141006 -2.86259604
vt -12.94124985 -2.86271191
vt -12.94141006 -6.67941380
vt -12.94124031 -6.67951584
vt 5.18863392 -2.86259604
vt -19.85928917 -8.11062908
vt -17.71229935 -6.67939997
vt -17.71231079 -2.86259508
vt -19.85930061 -0.47705495
vt -4.89028692 -0.47715199
vt -5.36739492 -2.86263394
vt -11.80819988 -0.47705400
vt -4.89028692 -8.11072826
vt -5.36739492 -6.67944002
vt -6.79868412 -6.67941904
vt -6.79868412 -2.86261392
vt -11.80819988 -8.11063004
vt 22.62500000 8.62499714
vt 22.87500000 14.25000000
vt 22.87500000 8.62499619
vt 22.62500000 14.25000000
f 1/1 2/2 3/3
f 2/2 1/1 4/4
f 5/5 6/6 7/7
f 6/6 5/5 8/8
f 9/9 10/10 11/11
f 12/12 10/10 13/13
f 10/10 12/12 11/11
f 13/13 10/10 14/14
f 13/13 14/14 15/15
f 13/13 15/15 16/16
f 17/17 18/18 19/19
f 18/18 17/17 20/20
f 21/21 22/22 23/23
f 22/22 21/21 24/24
f 25/25 26/26 27/27
f 26/26 25/25 28/28
f 29/29 30/30 31/31
f 30/30 29/29 32/32
f 33/33 35/35 36/36
f 35/35 33/33 38/38
f 39/39 40/40 41/41
f 42/42 40/40 37/37
f 40/40 42/42 41/41
f 37/37 40/40 43/43
f 37/37 43/43 44/44
f 37/37 44/44 34/34
f 45/45 46/46 47/47
f 46/46 45/45 48/48
f 48/48 45/45 49/49
f 49/49 50/50 51/51
f 50/50 49/49 52/52
f 52/52 49/49 45/45
f 53/53 54/54 55/55
f 54/54 53/53 56/56
f 57/57 58/58 59/59
f 58/58 57/57 60/60
f 61/61 62/62 63/63
f 62/62 61/61 64/64
f 65/65 66/66 67/67
f 66/66 65/65 68/68
f 69/69 70/70 71/71
f 70/70 69/69 72/72
f 70/70 72/72 74/74
f 74/74 72/72 75/75
f 76/76 77/77 79/79
f 77/77 76/76 75/75
f 77/77 75/75 80/80
f 80/80 75/75 82/82
f 82/82 75/75 72/72
f 71/71 84/84 79/79
f 84/84 71/71 70/70
f 79/79 84/84 76/76
f 85/85 83/83 73/73
f 83/83 85/85 86/86
f 86/86 85/85 87/87
f 87/87 78/78 81/81
f 78/78 87/87 88/88
f 88/88 87/87 85/85
f 89/89 90/90 91/91
f 90/90 89/89 92/92
f 90/90 92/92 93/93
f 93/93 92/92 94/94
f 91/91 95/95 96/96
f 95/95 91/91 90/90
f 96/96 95/95 94/94
f 96/96 94/94 92/92
f 97/97 98/98 99/99
f 98/98 97/97 100/100

