# https://github.com/mikedh/trimesh
v -0.01505961 5.00677004 -0.55295108
v -0.81815555 5.00676638 -1.35604575
v -0.01504622 5.00678322 -1.35605785
v -0.81817111 5.00676447 -0.55295789
v -0.81818315 5.01680904 -0.55297251
v -0.01506935 5.01680534 -1.35605345
v -0.81815206 5.01682336 -1.35605132
v -0.01504551 5.01680397 -0.55295436
vt 5.00000000 -1.00000000
vt 6.00000000 0.00000000
vt 5.00000000 0.00000000
vt 6.00000000 -1.00000000
vt 6.00000000 -1.00000000
vt 5.00000000 0.00000000
vt 6.00000000 0.00000000
vt 5.00000000 -1.00000000
f 1/1 2/2 3/3
f 2/2 1/1 4/4
f 5/5 6/6 7/7
f 6/6 5/5 8/8

