# https://github.com/mikedh/trimesh
v 0.48094681 -8.34484462 -0.78383606
v -0.72143633 -7.88284294 -0.78384039
v -0.74784803 -7.96927641 -0.78385724
v 0.50736036 -8.25863168 -0.78384553
v 0.48090806 -8.34484599 -1.50665088
v 0.50736879 -8.25863043 -0.78385119
v 0.48095133 -8.34482605 -0.78384822
v 0.50740198 -8.25863234 -1.50662563
v -0.72142370 -7.88283299 -0.78385787
v -0.74788323 -7.96929801 -1.50662770
v -0.74788462 -7.96929469 -0.78384863
v -0.72142944 -7.88283108 -1.50662545
v -0.74787899 -7.96929343 -0.78383372
v -0.32544758 -8.09852333 -1.50660725
v 0.48096611 -8.34483018 -0.78384201
v 0.48093986 -8.34481948 -0.78381519
v 0.05850261 -8.21588497 -1.50662553
v 0.48092572 -8.34484260 -1.50662080
v -0.29908043 -8.01196214 -1.50662439
v 0.05848513 -8.21592448 -1.50664165
v -0.32547809 -8.09852191 -1.50660368
v 0.08493601 -8.12948210 -1.50663527
v 0.48096986 -8.34482165 -1.50662117
v 0.50734553 -8.25862100 -1.50662037
v -0.72142211 -7.88284424 -1.50660226
v -0.32549207 -8.09851388 -1.50661640
v -0.74786788 -7.96925911 -1.50662820
v -0.29907007 -8.01197435 -1.50664844
v -0.74788885 -7.96928141 -0.78383692
v -0.74784818 -7.96930270 -1.50660448
v -0.32547574 -8.09847852 -1.50663803
v 0.48093319 -8.34483858 -0.78382988
v -0.32546865 -8.09851268 -1.50665239
v 0.05845196 -8.21589781 -1.50661553
v -0.29906266 -8.01198537 -1.50661738
v -0.32549144 -8.09851469 -1.62708523
v -0.32550677 -8.09849731 -1.50664038
v -0.29905833 -8.01196958 -1.62709185
v 0.05848510 -8.21591775 -1.50660872
v -0.32545971 -8.09849008 -1.62707663
v 0.05848657 -8.21589242 -1.62709389
v -0.32549375 -8.09850555 -1.50664335
v -0.29908255 -8.01196430 -1.62710404
v 0.08492756 -8.12950380 -1.50662694
v 0.08494952 -8.12946639 -1.62709527
v -0.29904359 -8.01194621 -1.50661300
v 0.05843672 -8.21588633 -1.62708972
v 0.08495055 -8.12948143 -1.50662513
v 0.05847917 -8.21591144 -1.50666125
v 0.08494213 -8.12950001 -1.62707797
vt -1.52674901 -0.36333501
vt -1.50629997 -0.95850003
vt -1.52680004 -0.95850003
vt -1.50629997 -0.36329997
vt -2.29649997 -0.00059998
vt -2.27509999 -1.00500011
vt -2.29649997 -1.00500011
vt -2.27509999 -0.00059998
vt -2.04640007 -1.00500011
vt -2.07470012 -0.00059998
vt -2.07470012 -1.00500011
vt -2.04640007 -0.00059998
vt -1.94659996 -1.00500011
vt -1.63960004 -0.00059998
vt -1.05369997 -1.00500011
vt -1.05369997 -1.00500011
vt -1.36059999 -0.00059998
vt -1.05369997 -0.00059998
vt -1.65616095 66.99957275
vt -1.34367895 68.00148773
vt -1.65606904 68.00121307
vt -1.34370005 67.00090027
vt -1.00000000 67.99919891
vt -1.00000000 67.00080109
vt -2.00006700 66.99999237
vt -1.65620005 68.00109863
vt -2.00000000 68.00061035
vt -1.65629995 66.99971008
vt -1.94659996 -1.00500011
vt -1.94659996 -0.00059998
vt -1.63960004 -0.00059998
vt -1.05369997 -1.00500011
vt -1.63960004 -0.00059998
vt -1.36059999 -0.00059998
vt -0.51599997 -0.09979999
vt -0.52950001 -0.04770005
vt -0.52950001 -0.09979999
vt -0.51599997 -0.04770005
vt 0.07929998 -0.09979999
vt -0.00749999 -0.04770005
vt 0.07929998 -0.04770005
vt -0.00749999 -0.09979999
vt -0.00749999 -0.04770005
vt 0.07929998 -0.09979999
vt 0.07929998 -0.04770005
vt -0.00749999 -0.09979999
vt -0.52950001 -0.04770005
vt -0.51599997 -0.09979999
vt -0.52950001 -0.09979999
vt -0.51599997 -0.04770005
f 1/1 2/2 3/3
f 2/2 1/1 4/4
f 5/5 6/6 7/7
f 6/6 5/5 8/8
f 9/9 10/10 11/11
f 10/10 9/9 12/12
f 13/13 14/14 15/15
f 16/16 17/17 18/18
f 19/19 20/20 21/21
f 20/20 19/19 22/22
f 20/20 22/22 23/23
f 23/23 22/22 24/24
f 25/25 26/26 27/27
f 26/26 25/25 28/28
f 29/29 30/30 31/31
f 32/32 33/33 34/34
f 35/35 36/36 37/37
f 36/36 35/35 38/38
f 39/39 40/40 41/41
f 40/40 39/39 42/42
f 43/43 44/44 45/45
f 44/44 43/43 46/46
f 47/47 48/48 49/49
f 48/48 47/47 50/50

