# https://github.com/mikedh/trimesh
v -1.87221488 -5.77473958 -1.26563199
v -1.87221722 -5.99565101 -1.28574053
v -1.87208248 -5.99548440 -1.26578309
v -1.87237119 -5.77479476 -1.28577651
v -2.07323732 -5.99561540 -1.26584401
v -1.87231128 -5.99565197 -1.28581669
v -2.07292982 -5.99547368 -1.28579560
v -1.87207547 -5.99566556 -1.26566453
v -1.87212749 -5.77471417 -1.26578749
v -2.07307964 -5.77477616 -1.28575641
v -1.87234245 -5.77474823 -1.28579905
v -2.07291530 -5.77470061 -1.26566401
v -2.07304954 -5.99560538 -1.28569307
v -2.07280827 -5.77486620 -1.26553384
v -2.07282485 -5.99550303 -1.26567431
v -2.07301135 -5.77456091 -1.28556090
v -1.47044942 -5.76453668 -1.26566379
v -1.67157376 -5.76468495 -1.28570739
v -1.47079662 -5.76464005 -1.28573285
v -1.67135978 -5.76481750 -1.26577830
v -1.67148703 -5.98568198 -1.28558572
v -1.67149371 -5.76464748 -1.26573300
v -1.67126007 -5.98540218 -1.26563286
v -1.67168558 -5.76467860 -1.28570433
v -1.47053905 -5.76475388 -1.26549922
v -1.47080022 -5.98562487 -1.28567609
v -1.47064634 -5.98532554 -1.26568284
v -1.47072300 -5.76472687 -1.28590376
v -1.67158155 -5.98547970 -1.26563872
v -1.47050640 -5.98563533 -1.28559136
v -1.67147028 -5.98537363 -1.28582978
v -1.47073450 -5.98552247 -1.26558813
v 3.45833596 -4.39951464 -1.26585449
v 2.65506469 -4.10825010 -1.26559259
v 2.65520371 -4.39956957 -1.26560570
v 3.45817400 -4.10838670 -1.26563401
v 2.65496934 -4.10826317 -1.26576915
v 3.45833015 -4.10831509 -1.28575814
v 2.65530017 -4.10839179 -1.28562119
v 3.45839946 -4.10821178 -1.26557291
v 2.65531066 -4.10821174 -1.26569530
v 2.65506185 -4.39946403 -1.28586739
v 2.65506231 -4.39941981 -1.26576768
v 2.65510646 -4.15862061 -1.28575069
v 2.65526247 -4.10815799 -1.28578241
v 3.45843493 -4.10814902 -1.28565161
v 2.65495640 -4.15836536 -1.28574269
v 2.65526978 -4.10826487 -1.28573784
v 3.45835376 -4.15854375 -1.28599452
v 1.97257809 -1.61882185 -1.26558197
v -0.45679270 -1.32760415 -1.26579872
v -0.45681763 -1.61873283 -1.26587023
v 1.97262412 -1.32762544 -1.26583649
v -0.45702972 -1.32755588 -1.26573670
v 1.97253078 -1.32764006 -1.28557637
v -0.45676585 -1.32760379 -1.28594756
v 1.97277543 -1.32751043 -1.26558338
v -0.45675490 -1.32751053 -1.26566158
v -0.45669135 -1.61874864 -1.28594608
v -0.45664465 -1.61894895 -1.26573029
v -0.45678323 -1.37792373 -1.28571158
v -0.45678276 -1.32766261 -1.28572206
v 1.97253678 -1.61857547 -1.26566384
v -0.45681355 -1.61895000 -1.28592741
v 1.97271245 -1.61873722 -1.28581228
v -0.45657561 -1.61887566 -1.26576914
v 1.97253723 -1.61866565 -1.28585502
v 1.97252141 -1.32779388 -1.26562131
v 1.97268091 -1.61878506 -1.26568498
v 1.97244509 -1.37785956 -1.28562564
v 1.97260558 -1.32735393 -1.28586892
v 1.97265553 -1.32763549 -1.28571689
v -0.45676106 -1.37786961 -1.28587796
v -0.45641575 -1.32762222 -1.28600706
v 1.97251745 -1.37773036 -1.28583665
v 3.45847073 -1.26726896 -1.26572038
v 2.65516911 -0.97637251 -1.26578183
v 2.65505664 -1.26724626 -1.26552452
v 3.45817673 -0.97639239 -1.26590190
v 2.65511387 -0.97660865 -1.26583153
v 3.45846360 -0.97629845 -1.28568437
v 2.65516723 -0.97606178 -1.28575801
v 3.45827495 -0.97597282 -1.26573964
v 2.65508495 -0.97623693 -1.26570755
v 2.65534198 -1.26748515 -1.28569005
v 2.65531798 -1.26745661 -1.26568492
v 2.65512882 -1.02618906 -1.28585951
v 2.65517126 -0.97637937 -1.28581928
v 3.45831721 -1.26729532 -1.26577185
v 2.65520129 -1.26754075 -1.28587344
v 3.45862752 -1.26726460 -1.28586827
v 2.65507190 -1.26749121 -1.26570570
v 3.45832177 -0.97634325 -1.28592495
v 2.65538199 -1.02640188 -1.28582248
v 2.65519737 -0.97631911 -1.28611029
v 3.45833087 -1.02657293 -1.28589306
v 3.45824593 -0.07269688 -1.26583455
v 2.29366941 0.21841471 -1.26561827
v 2.29372282 -0.07271597 -1.26573580
v 3.45835172 0.21820114 -1.26560944
v 3.45845307 -0.07270758 -1.26564029
v 2.29340671 -0.07274987 -1.28578310
v 3.45830135 -0.07285001 -1.28577402
v 2.29387687 -0.07280880 -1.26575509
v 3.45845605 -0.02271049 -1.28566449
v 2.29385043 -0.07286953 -1.28581282
v 2.29372719 -0.02251044 -1.28574115
v 3.45825531 -0.07290301 -1.28574634
v -1.73156967 -6.24658750 -1.26565587
v -1.67148024 -5.98554294 -1.26573675
v -1.73164421 -5.51390927 -1.26563156
v -1.43052144 -6.24653441 -1.26574111
v -1.47061586 -5.98567105 -1.26557041
v -1.47084327 -5.76480122 -1.26567747
v -1.67127362 -5.76465320 -1.26573180
v -1.43065573 -5.51376112 -1.26570618
v -1.43030565 -6.24650480 -1.28595228
v -1.43026787 -5.51378401 -1.26580276
v -1.43032989 -6.24658030 -1.26574416
v -1.43047102 -5.51364469 -1.28566954
v -1.73183177 -5.51351507 -1.28567476
v -1.67148060 -5.76477643 -1.28589003
v -1.73166338 -6.24664752 -1.28586641
v -1.43040445 -5.51369866 -1.28582549
v -1.47056935 -5.76453081 -1.28590413
v -1.46068058 -5.76457853 -1.28570037
v -1.46058732 -5.98541993 -1.28590343
v -1.67160419 -5.98564790 -1.28576739
v -1.43058506 -6.24662945 -1.28589002
v -1.47072157 -5.98566344 -1.28573987
v 2.29391988 2.35652149 -1.28580315
v 2.29376528 3.51108417 -1.26569249
v 2.29400969 2.35645238 -1.26566192
v 2.29388045 3.51098398 -1.28571406
v 2.29366893 2.35681354 -1.26585344
v 2.00281575 3.51089850 -1.26557318
v 2.00266917 2.35659327 -1.26569665
v 2.29395425 3.51098835 -1.26603589
v 2.00262700 3.51104512 -1.26575199
v 2.00279890 2.35668955 -1.28579646
v 2.00254502 2.35673100 -1.26558095
v 2.00267878 3.51126137 -1.28581883
v 2.05277506 3.51100696 -1.28565852
v 2.00260707 2.35679471 -1.28588059
v 2.00281964 3.51108565 -1.28579694
v 2.05302424 2.35640695 -1.28562732
v 1.93243181 -0.18326552 -1.26561885
v 1.17965767 -0.18311808 -1.28555557
v 1.93256040 -0.18306036 -1.28584090
v 1.17955054 -0.18314132 -1.26570502
v 1.93247286 -0.02253841 -1.28568538
v 1.01890704 -0.18324388 -1.28587331
v 1.01881826 -0.02245455 -1.28578974
v 1.17962700 -0.18335035 -1.28599802
v 1.93232109 -0.18307574 -1.28566023
v 1.17957588 -0.18329471 -1.26571773
v 1.01888500 -0.02262505 -1.26598462
v 1.01882206 -0.18322594 -1.26553264
v 1.93245703 -0.02242888 -1.26574727
v 1.93241057 -0.18364272 -1.26565097
v 1.17960005 -0.74517139 -1.28583509
v 1.17954915 -0.18328385 -1.26583520
v 1.17945845 -0.74540833 -1.26555088
v 1.17953882 -0.18329340 -1.28576430
v 1.17956302 -0.18328056 -1.28565178
v 1.01870628 -0.74539356 -1.28570566
v 1.01876807 -0.18316398 -1.28563497
v 1.17958955 -0.74555948 -1.28586221
v 1.01905692 0.26856925 -1.28578127
v 0.72784987 -0.45416657 -1.28585984
v 0.72776766 0.26855179 -1.28584128
v 0.72778530 -0.50429478 -1.28588899
v 0.72801678 -0.74515840 -1.28597292
v 1.01890261 -0.74533106 -1.28586588
v 1.01883519 0.21831614 -1.28569711
v 1.01886100 -0.02238104 -1.28574766
v 1.01890693 -0.18304173 -1.28570987
v 1.01895995 -0.74540678 -1.26549936
v 0.72789151 -0.45427044 -1.26588040
v 0.72784220 -0.74549808 -1.26589599
v 0.72776893 0.26856736 -1.26555885
v 1.01895019 0.26862629 -1.26584070
v 1.01891593 -0.18319062 -1.26560615
v 1.01893150 -0.02249594 -1.26575968
v 1.01895868 0.14811783 -1.26584346
v 1.17955830 -0.74540556 -1.26591713
v 1.01902615 -0.18324523 -1.26579881
v 1.01887606 -0.74535404 -1.26553375
v 1.17951993 -0.18315149 -1.26554869
v 1.17959853 -0.74524950 -1.26575672
v 1.01900509 -0.74537608 -1.28565967
v 1.17942581 -0.74545716 -1.28563783
v 1.01889642 -0.74540990 -1.26569447
v 1.01884098 -0.74521991 -1.26584354
v 0.72778337 -0.74533058 -1.28579213
v 1.01882831 -0.74546714 -1.28573259
v 0.72768451 -0.74529695 -1.26587444
v 0.72773793 -0.45424351 -1.28592093
v -1.04896727 -0.50444270 -1.28589665
v -1.04921119 -0.45442350 -1.28577450
v 0.72767031 -0.50459397 -1.28580622
v 0.72805620 0.26856691 -1.26561723
v 0.72782419 -0.45415961 -1.28593115
v 0.72775192 -0.45421822 -1.26570520
v 0.72777872 0.26846091 -1.28580920
v 0.72771330 0.26826361 -1.26583717
v 1.01897190 0.26871068 -1.28557639
v 0.72781116 0.26863611 -1.28567814
v 1.01884067 0.26834494 -1.26569948
v 1.92220190 0.26849978 -1.28571183
v 1.01875890 0.21834645 -1.28564083
v 1.01895908 0.26859442 -1.28567828
v 1.93263368 0.21835983 -1.28564201
v 1.93243175 0.26847436 -1.28574479
v 0.72773222 -0.74543397 -1.26577147
v -1.04929845 -0.45423573 -1.26584519
v -1.04905258 -0.74520665 -1.26576172
v 0.72773939 -0.45409434 -1.26564180
v 1.93254869 0.14803129 -1.26561897
v 1.01884136 0.26845977 -1.26563596
v 1.01885122 0.14815741 -1.26543430
v 1.92221044 0.26845121 -1.26557709
v 1.93242266 0.26866619 -1.26581645
v 0.72783752 -0.74538648 -1.26568741
v -1.04900332 -0.74550665 -1.28590108
v 0.72795751 -0.74533662 -1.28576844
v -1.04904548 -0.74532951 -1.26583307
v -1.04915278 -0.45410101 -1.26568618
v 0.72789583 -0.45431564 -1.28562555
v -1.04900173 -0.45419352 -1.28571858
v 0.72771074 -0.45445723 -1.26582395
v 1.01910167 0.26868188 -1.26574193
v 1.92236601 0.26865220 -1.28579909
v 1.01877247 0.26867793 -1.28572655
v 1.92211716 0.26850054 -1.26568681
v -2.11307825 -6.24655761 -1.26577431
v -2.07298908 -5.99555770 -1.26573413
v -2.11317411 -5.51359894 -1.26581031
v -1.81202901 -6.24680294 -1.26564209
v -1.87213594 -5.99552919 -1.26560091
v -1.87217949 -5.77468625 -1.26565069
v -2.07300611 -5.77459121 -1.26574311
v -1.81215406 -5.51364414 -1.26549600
v -2.11324021 -5.51375104 -1.26578096
v -2.11317509 -6.24656953 -1.28592000
v -2.11316352 -6.24673943 -1.26576672
v -2.11326559 -5.51385862 -1.28597441
v -2.11299532 -5.51368243 -1.28599660
v -2.08308220 -5.77480006 -1.28585879
v -2.11329490 -6.24648994 -1.28582495
v -1.81193714 -5.51368044 -1.28562661
v -2.07318000 -5.77452938 -1.28563859
v -1.87216461 -5.77445691 -1.28575812
v -1.87213670 -5.99567379 -1.28565370
v -2.08299628 -5.99564152 -1.28554329
v -1.81202399 -6.24657371 -1.28580263
v -2.07306098 -5.99553113 -1.28569819
vt 1.78129995 -0.34379995
vt 1.95309997 -0.32809997
vt 1.95309997 -0.34379995
vt 1.78129995 -0.32809997
vt 4.66410017 -0.34379995
vt 4.50780010 -0.32809997
vt 4.66410017 -0.32809997
vt 4.50780010 -0.34379995
vt 4.50780010 -0.34379995
vt 4.66410017 -0.32809997
vt 4.50780010 -0.32809997
vt 4.66410017 -0.34379995
vt 1.95309997 -0.32809997
vt 1.78129995 -0.34379995
vt 1.95309997 -0.34379995
vt 1.78129995 -0.32809997
vt -4.33589983 -0.34379995
vt -4.49219990 -0.32809997
vt -4.33589983 -0.32809997
vt -4.49219990 -0.34379995
vt -2.21880007 -0.32809997
vt -2.04690003 -0.34379995
vt -2.21880007 -0.34379995
vt -2.04690003 -0.32809997
vt -2.04690003 -0.34379995
vt -2.21880007 -0.32809997
vt -2.21880007 -0.34379995
vt -2.04690003 -0.32809997
vt -4.49219990 -0.34379995
vt -4.33589983 -0.32809997
vt -4.49219990 -0.32809997
vt -4.33589983 -0.34379995
vt -1.62500000 0.33429998
vt -1.39839995 -0.29069996
vt -1.62500000 -0.29069996
vt -1.39839995 0.33429998
vt 0.29069999 -0.34379995
vt -0.33430001 -0.32809997
vt 0.29069999 -0.32809997
vt -0.33430001 -0.34379995
vt -1.39839995 -0.34379995
vt -1.62500000 -0.32809997
vt -1.62500000 -0.34379995
vt -1.43746901 -0.32809997
vt -1.39839995 -0.32809997
vt -1.39839995 0.33429998
vt -1.43750000 -0.29069996
vt -1.39839995 -0.29069996
vt -1.43750000 0.33429998
vt -0.39840001 0.92019999
vt -0.62500000 2.81080008
vt -0.39840001 2.81080008
vt -0.62500000 0.92019999
vt -2.81080008 -0.34379995
vt -0.92019999 -0.32809997
vt -2.81080008 -0.32809997
vt -0.92019999 -0.34379995
vt -0.62500000 -0.34379995
vt -0.39840001 -0.32809997
vt -0.39840001 -0.34379995
vt -0.58593088 -0.32809997
vt -0.62500000 -0.32809997
vt -0.92019999 -0.34379995
vt -2.81080008 -0.32809997
vt -0.92019999 -0.32809997
vt -2.81080008 -0.34379995
vt -0.39840001 -0.32809997
vt -0.62500000 -0.34379995
vt -0.39840001 -0.34379995
vt -0.58593088 -0.32809997
vt -0.62500000 -0.32809997
vt -0.62500000 0.92019999
vt -0.58590001 2.81080008
vt -0.62500000 2.81080008
vt -0.58590001 0.92019999
vt 1.37500000 0.33429998
vt 1.60160005 -0.29069996
vt 1.37500000 -0.29069996
vt 1.60160005 0.33429998
vt 0.29069999 -0.34379995
vt -0.33430001 -0.32809997
vt 0.29069999 -0.32809997
vt -0.33430001 -0.34379995
vt 1.60160005 -0.34379995
vt 1.37500000 -0.32809997
vt 1.37500000 -0.34379995
vt 1.56253099 -0.32809997
vt 1.60160005 -0.32809997
vt -0.33430001 -0.34379995
vt 0.29069999 -0.32809997
vt -0.33430001 -0.32809997
vt 0.29069999 -0.34379995
vt 1.60160005 0.33429998
vt 1.56250000 -0.29069996
vt 1.60160005 -0.29069996
vt 1.56250000 0.33429998
vt -1.39839995 0.42799997
vt -1.62500000 1.33430004
vt -1.39839995 1.33430004
vt -1.62500000 0.42799997
vt -0.42800000 -0.34379995
vt -1.33430004 -0.32809997
vt -0.42800000 -0.32809997
vt -1.33430004 -0.34379995
vt -1.43750000 0.42799997
vt -1.39839995 1.33430004
vt -1.43750000 1.33430004
vt -1.39839995 0.42799997
vt -4.62489986 3.33429909
vt -4.57810020 3.13119888
vt -4.62506914 2.76408696
vt -4.39060020 3.33429909
vt -4.42189980 3.13119888
vt -4.42195082 2.95934486
vt -4.57815123 2.95934486
vt -4.39076900 2.76408696
vt -3.32633591 -0.32810104
vt -2.75630307 -0.34379995
vt -3.32633591 -0.34380102
vt -2.75630307 -0.32809997
vt -4.62494183 2.76408815
vt -4.57809210 2.95934606
vt -4.62496996 3.33429909
vt -4.39064217 2.76408815
vt -4.42189217 2.95934606
vt -4.41408205 2.95934606
vt -4.41409016 3.13119888
vt -4.57810020 3.13119888
vt -4.39066982 3.33429909
vt -4.42189980 3.13119888
vt -3.91240001 -0.32809997
vt -4.81087923 -0.34379995
vt -3.91247892 -0.34379995
vt -4.81080008 -0.32809997
vt 1.37500000 3.91246510
vt 1.60160005 4.81080008
vt 1.60160005 3.91240001
vt 1.37500000 4.81086493
vt -4.81080008 -0.34379995
vt -3.91240001 -0.32809997
vt -3.91240001 -0.34379995
vt -4.81080008 -0.32809997
vt 1.56250000 4.81080008
vt 1.60160005 3.91240001
vt 1.60160005 4.81080008
vt 1.56250000 3.91240001
vt 1.60319996 -0.34379995
vt 2.18919992 -0.32809997
vt 1.60319996 -0.32809997
vt 2.18919992 -0.34379995
vt 1.53129995 -1.60319996
vt 1.40629995 -2.31419992
vt 1.53129995 -2.31419992
vt 1.40629995 -2.18918705
vt 1.40629995 -1.60319996
vt 1.40629995 -2.18919992
vt 1.53129995 -2.31421590
vt 1.40629995 -2.31421590
vt 1.53129995 -1.60319996
vt 1.40629995 -1.60319996
vt 1.52509999 -0.32809997
vt 1.96259999 -0.34379995
vt 1.52509999 -0.34379995
vt 1.96259999 -0.32809997
vt -2.50000000 -1.96259999
vt -2.62500000 -1.52509999
vt -2.62500000 -1.96259999
vt -2.50000000 -1.52509999
vt -2.39840007 -2.31419992
vt -2.62500000 -1.75169992
vt -2.62500000 -2.31419992
vt -2.62500000 -1.71263790
vt -2.62500000 -1.52513695
vt -2.39840007 -1.52513695
vt -2.39840007 -2.27513790
vt -2.39840007 -2.08763695
vt -2.39840007 -1.96263695
vt -2.39840007 -1.52509999
vt -2.62500000 -1.75169992
vt -2.62500000 -1.52513695
vt -2.62500000 -2.31419992
vt -2.39840007 -2.31416297
vt -2.39840007 -1.96259999
vt -2.39840007 -2.08759999
vt -2.39840007 -2.22041297
vt -2.50000000 -1.52509999
vt -2.62500000 -1.96259999
vt -2.62500000 -1.52509999
vt -2.50000000 -1.96259999
vt -2.50000000 -0.34379995
vt -2.62500000 -0.32809997
vt -2.50000000 -0.32809997
vt -2.62500000 -0.34379995
vt -2.39840007 -0.34379995
vt -2.62496305 -0.32809997
vt -2.39840007 -0.32809997
vt -2.62496305 -0.34379995
vt -1.62500000 2.42799997
vt -1.58589995 3.81080008
vt -1.62500000 3.81080008
vt -1.58589995 2.42799997
vt 2.31419992 -0.34379995
vt 1.75170004 -0.32809997
vt 1.75170004 -0.34379995
vt 2.31419992 -0.32809997
vt -2.62500000 -0.34379995
vt -2.39840007 -0.32809997
vt -2.62500000 -0.32809997
vt -2.39840007 -0.34379995
vt -2.62500000 0.92021263
vt -2.58590007 1.62330008
vt -2.62500000 1.62330008
vt -2.58590007 0.91240001
vt -2.62500000 0.91240001
vt -1.39839995 2.42799997
vt -1.62500000 3.81080008
vt -1.39839995 3.81080008
vt -1.62500000 2.42799997
vt -2.53130007 0.91240001
vt -2.62500000 1.62330008
vt -2.53130007 1.62331271
vt -2.62500000 0.92019999
vt -2.62500000 0.91238725
vt -2.42799997 -0.34379995
vt -3.81080008 -0.32809997
vt -2.42799997 -0.32809997
vt -3.81080008 -0.34379995
vt -3.81080008 -0.34379995
vt -2.42799997 -0.32809997
vt -3.81080008 -0.32809997
vt -2.42799997 -0.34379995
vt -1.62329996 -0.34379995
vt -0.92019999 -0.32809997
vt -1.62329996 -0.32809997
vt -0.92019999 -0.34379995
vt 4.60940218 -2.23599792
vt 4.57812595 -2.04067993
vt 4.60931492 -1.66569996
vt 4.37508583 -2.23599792
vt 4.42192602 -2.04067993
vt 4.42189980 -1.86879992
vt 4.57810020 -1.86879992
vt 4.37500000 -1.66569996
vt 1.67369401 -0.34379995
vt 2.24372697 -0.32810104
vt 2.24372697 -0.34380102
vt 1.67369401 -0.32809997
vt 4.60935116 -1.66569996
vt 4.58591318 -1.86879992
vt 4.60935116 -2.23599792
vt 4.37500000 -1.66569996
vt 4.57810020 -1.86879992
vt 4.42187595 -1.86879992
vt 4.42187595 -2.04067993
vt 4.58591318 -2.04067993
vt 4.37500000 -2.23599792
vt 4.57810020 -2.04067993
f 1/1 2/2 3/3
f 2/2 1/1 4/4
f 5/5 6/6 7/7
f 6/6 5/5 8/8
f 9/9 10/10 11/11
f 10/10 9/9 12/12
f 13/13 14/14 15/15
f 14/14 13/13 16/16
f 17/17 18/18 19/19
f 18/18 17/17 20/20
f 21/21 22/22 23/23
f 22/22 21/21 24/24
f 25/25 26/26 27/27
f 26/26 25/25 28/28
f 29/29 30/30 31/31
f 30/30 29/29 32/32
f 33/33 34/34 35/35
f 34/34 33/33 36/36
f 37/37 38/38 39/39
f 38/38 37/37 40/40
f 41/41 42/42 43/43
f 42/42 41/41 44/44
f 44/44 41/41 45/45
f 46/46 47/47 48/48
f 47/47 46/46 49/49
f 50/50 51/51 52/52
f 51/51 50/50 53/53
f 54/54 55/55 56/56
f 55/55 54/54 57/57
f 58/58 59/59 60/60
f 59/59 58/58 61/61
f 61/61 58/58 62/62
f 63/63 64/64 65/65
f 64/64 63/63 66/66
f 67/67 68/68 69/69
f 68/68 67/67 70/70
f 68/68 70/70 71/71
f 72/72 73/73 74/74
f 73/73 72/72 75/75
f 76/76 77/77 78/78
f 77/77 76/76 79/79
f 80/80 81/81 82/82
f 81/81 80/80 83/83
f 84/84 85/85 86/86
f 85/85 84/84 87/87
f 87/87 84/84 88/88
f 89/89 90/90 91/91
f 90/90 89/89 92/92
f 93/93 94/94 95/95
f 94/94 93/93 96/96
f 97/97 98/98 99/99
f 98/98 97/97 100/100
f 101/101 102/102 103/103
f 102/102 101/101 104/104
f 105/105 106/106 107/107
f 106/106 105/105 108/108
f 109/109 110/110 111/111
f 110/110 109/109 112/112
f 110/110 112/112 113/113
f 113/113 112/112 114/114
f 111/111 115/115 116/116
f 115/115 111/111 110/110
f 116/116 115/115 114/114
f 116/116 114/114 112/112
f 117/117 118/118 119/119
f 118/118 117/117 120/120
f 121/121 122/122 123/123
f 122/122 121/121 124/124
f 122/122 124/124 125/125
f 125/125 124/124 126/126
f 126/126 124/124 127/127
f 123/123 128/128 129/129
f 128/128 123/123 122/122
f 129/129 128/128 130/130
f 129/129 130/130 127/127
f 129/129 127/127 124/124
f 131/131 132/132 133/133
f 132/132 131/131 134/134
f 135/135 136/136 137/137
f 136/136 135/135 138/138
f 139/139 140/140 141/141
f 140/140 139/139 142/142
f 143/143 144/144 145/145
f 144/144 143/143 146/146
f 147/147 148/148 149/149
f 148/148 147/147 150/150
f 151/151 152/152 153/153
f 152/152 151/151 154/154
f 154/154 151/151 155/155
f 156/156 157/157 158/158
f 157/157 156/156 159/159
f 159/159 156/156 160/160
f 161/161 162/162 163/163
f 162/162 161/161 164/164
f 165/165 166/166 167/167
f 166/166 165/165 168/168
f 169/169 170/170 171/171
f 170/170 169/169 172/172
f 172/172 169/169 173/173
f 173/173 169/169 174/174
f 174/174 169/169 175/175
f 174/174 175/175 176/176
f 174/174 176/176 177/177
f 178/178 179/179 180/180
f 179/179 178/178 181/181
f 181/181 178/178 182/182
f 182/182 178/178 183/183
f 182/182 183/183 184/184
f 182/182 184/184 185/185
f 186/186 187/187 188/188
f 187/187 186/186 189/189
f 190/190 191/191 192/192
f 191/191 190/190 193/193
f 194/194 195/195 196/196
f 195/195 194/194 197/197
f 198/198 199/199 200/200
f 199/199 198/198 201/201
f 202/202 203/203 204/204
f 203/203 202/202 205/205
f 206/206 207/207 208/208
f 207/207 206/206 209/209
f 210/210 211/211 212/212
f 211/211 210/210 213/213
f 213/213 210/210 214/214
f 215/215 216/216 217/217
f 216/216 215/215 218/218
f 219/219 220/220 221/221
f 220/220 219/219 222/222
f 222/222 219/219 223/223
f 224/224 225/225 226/226
f 225/225 224/224 227/227
f 228/228 229/229 230/230
f 229/229 228/228 231/231
f 232/232 233/233 234/234
f 233/233 232/232 235/235
f 236/236 237/237 238/238
f 237/237 236/236 239/239
f 237/237 239/239 240/240
f 240/240 239/239 241/241
f 238/238 242/242 243/243
f 242/242 238/238 237/237
f 243/243 242/242 241/241
f 243/243 241/241 239/239
f 244/244 245/245 246/246
f 245/245 244/244 247/247
f 248/248 249/249 250/250
f 249/249 248/248 251/251
f 249/249 251/251 252/252
f 252/252 251/251 253/253
f 253/253 251/251 254/254
f 250/250 255/255 256/256
f 255/255 250/250 249/249
f 256/256 255/255 257/257
f 256/256 257/257 254/254
f 256/256 254/254 251/251

