# https://github.com/mikedh/trimesh
v 1.35878361 -1.66639556 -1.60389717
v 1.35336338 -1.67948355 -1.60390133
v 1.35338127 -1.67179648 -1.60391723
v 1.35876286 -1.68490279 -1.60390611
v 1.36640818 -1.66639685 -1.60392730
v 1.36643194 -1.68490161 -1.60391347
v 1.37186894 -1.67179505 -1.60391063
v 1.37188318 -1.67948548 -1.60390350
v 1.36645635 -1.66639218 -1.60391980
v 1.37184904 -1.67181744 -1.22277486
v 1.37184773 -1.67181373 -1.60391109
v 1.36645094 -1.66639038 -1.22277285
v 1.37185304 -1.67947749 -1.60389705
v 1.37188508 -1.67182939 -1.22275556
v 1.37188288 -1.67946390 -1.22277420
v 1.37185811 -1.67178885 -1.60387946
v 1.37188968 -1.67945593 -1.60390342
v 1.36642484 -1.68489356 -1.22276835
v 1.36642365 -1.68488760 -1.60390233
v 1.37187318 -1.67949322 -1.22278802
v 1.36643636 -1.68491095 -1.22275219
v 1.35877434 -1.68488858 -1.60391059
v 1.36646650 -1.68487379 -1.60389930
v 1.35874886 -1.68489272 -1.22276795
v 1.35879672 -1.68490271 -1.22275096
v 1.35334211 -1.67948543 -1.60389277
v 1.35878247 -1.68486362 -1.60390391
v 1.35335237 -1.67948119 -1.22279443
v 1.35334275 -1.67180120 -1.22276948
v 1.35338113 -1.67948682 -1.60388152
v 1.35335753 -1.67945206 -1.22278461
v 1.35335084 -1.67180688 -1.60389134
v 1.35336422 -1.67181934 -1.22279816
v 1.35876083 -1.66638608 -1.60389196
v 1.35335936 -1.67182664 -1.60389370
v 1.35876263 -1.66640423 -1.22276888
v 1.35874816 -1.66638782 -1.60391541
v 1.36644450 -1.66639471 -1.22277513
v 1.36645323 -1.66640490 -1.60388751
v 1.35879257 -1.66638100 -1.22276077
v 1.35798783 -2.85849510 -1.22277725
v 1.36562080 -2.85850971 -1.60392042
v 1.35795485 -2.85850383 -1.60391742
v 1.36562672 -2.85852325 -1.22277437
v 1.37106736 -2.86390574 -1.60390915
v 1.36565764 -2.85848677 -1.22276122
v 1.37102672 -2.86390714 -1.22277331
v 1.36564841 -2.85850215 -1.60390323
v 1.35798084 -2.85851305 -1.60393731
v 1.35255453 -2.87160257 -1.60389282
v 1.35255184 -2.86392423 -1.60392162
v 1.35796846 -2.87700762 -1.60393110
v 1.36564658 -2.85850927 -1.60392663
v 1.36560630 -2.87699979 -1.60391338
v 1.37105410 -2.86392900 -1.60388184
v 1.37106127 -2.87158928 -1.60393113
v 1.35258073 -2.86391179 -1.22276246
v 1.35797679 -2.85849401 -1.60390340
v 1.35256530 -2.86392775 -1.60393093
v 1.35799143 -2.85853656 -1.22278196
v 1.37105896 -2.87160614 -1.60389979
v 1.37105902 -2.86393199 -1.22277062
v 1.37105490 -2.87156985 -1.22277313
v 1.37105493 -2.86395449 -1.60392845
v 1.36565831 -2.87700820 -1.60391316
v 1.37108653 -2.87160972 -1.22278712
v 1.36563504 -2.87699870 -1.22278828
v 1.37105286 -2.87161453 -1.60389806
v 1.36565412 -2.87701455 -1.22277594
v 1.35795679 -2.87701449 -1.60388838
v 1.36564412 -2.87697297 -1.60392069
v 1.35798473 -2.87701036 -1.22276993
v 1.35797597 -2.87701582 -1.22279132
v 1.35260190 -2.87159173 -1.60393903
v 1.35796640 -2.87699733 -1.60391640
v 1.35257645 -2.87157562 -1.22278065
v 1.35254911 -2.86394047 -1.22278882
v 1.35253417 -2.87157260 -1.60388520
v 1.35253741 -2.87160821 -1.22280477
v 1.35254177 -2.86397183 -1.60392598
v 1.36946027 -1.66602078 -1.25879613
v 1.35985843 -1.68911527 -1.25880591
v 1.35308756 -1.68232748 -1.25881372
v 1.36942270 -1.68913853 -1.25880946
v 1.37623417 -1.67280138 -1.25879687
v 1.37623099 -1.68237553 -1.25880644
v 1.36942852 -1.66598062 -1.25881939
v 1.37621150 -1.67280353 -1.21998012
v 1.37621817 -1.67277617 -1.25881799
v 1.36943815 -1.66603676 -1.21998730
v 1.37625938 -1.68235003 -1.25882054
v 1.37619831 -1.67280219 -1.21997528
v 1.37621878 -1.68237668 -1.21999415
v 1.37623949 -1.67278089 -1.25881447
v 1.36943763 -1.68914944 -1.25885269
v 1.37621999 -1.68238154 -1.21998992
v 1.36943136 -1.68913061 -1.21999242
v 1.37619686 -1.68235602 -1.25879762
v 1.36942661 -1.68913315 -1.21997931
v 1.35987022 -1.68916036 -1.25879645
v 1.36945887 -1.68913203 -1.25880055
v 1.35980944 -1.68913765 -1.21997534
v 1.35309107 -1.68237498 -1.21997413
v 1.35987187 -1.68914548 -1.25881579
v 1.35988407 -1.68915803 -1.21995959
v 1.35309590 -1.68237757 -1.25881321
v 1.93317231 -1.66643051 -1.60390154
v 1.92776269 -1.67954007 -1.60390222
v 1.92778528 -1.67186327 -1.60390048
v 1.93318042 -1.68494360 -1.60391107
v 1.94085644 -1.66646311 -1.60389711
v 1.94084862 -1.68493926 -1.60391180
v 1.94627675 -1.67187758 -1.60388898
v 1.94624655 -1.67953913 -1.60390321
v 1.94629380 -1.67185742 -1.60391043
v 1.94083079 -1.66644344 -1.22277845
v 1.94629720 -1.67185229 -1.22280096
v 1.94088229 -1.66644648 -1.60391985
v 1.94629398 -1.67952436 -1.60391221
v 1.94627524 -1.67184897 -1.22276333
v 1.94625145 -1.67949380 -1.22276402
v 1.94626631 -1.67187379 -1.60392119
v 1.94085389 -1.68495428 -1.60391814
v 1.94628408 -1.67951818 -1.22278404
v 1.94086301 -1.68492421 -1.22279448
v 1.94626297 -1.67950956 -1.60389600
v 1.94085543 -1.68492727 -1.22279439
v 1.93316396 -1.68495754 -1.60390490
v 1.94084017 -1.68495188 -1.60392128
v 1.93317678 -1.68495960 -1.22277267
v 1.92778286 -1.67953079 -1.22278124
v 1.93317737 -1.68493668 -1.60390540
v 1.93320982 -1.68496096 -1.22277274
v 1.92777762 -1.67952900 -1.60389802
v 1.92774953 -1.67182996 -1.22279817
v 1.92778472 -1.67954035 -1.60388955
v 1.92776525 -1.67952126 -1.22277735
v 1.92778742 -1.67186637 -1.60395100
v 1.93317469 -1.66643784 -1.22278472
v 1.92778248 -1.67184642 -1.60390893
v 1.92774877 -1.67184092 -1.22276199
v 1.93318157 -1.66640912 -1.60391193
v 1.93316907 -1.66644291 -1.22276207
v 1.94083806 -1.66641147 -1.60392010
v 1.93320028 -1.66643246 -1.60390903
v 1.94086817 -1.66646296 -1.22275789
v 1.37619290 -2.86993363 -1.25879785
v 1.36943232 -2.87668499 -1.21994535
v 1.36943263 -2.87667732 -1.25881709
v 1.37619544 -2.86991714 -1.21997545
v 1.35984581 -2.85356420 -1.25879644
v 1.36941499 -2.87670169 -1.25882139
v 1.35305066 -2.86032522 -1.25881029
v 1.36942825 -2.85358992 -1.25883795
v 1.37617819 -2.86032560 -1.25879310
v 1.37619880 -2.86993751 -1.25881098
v 1.37618940 -2.86993068 -1.25884643
v 1.37618105 -2.86034555 -1.21995256
v 1.37619625 -2.86990463 -1.21998106
v 1.37619008 -2.86040090 -1.25880212
v 1.35307213 -2.86031639 -1.21998245
v 1.35984271 -2.85358108 -1.25882658
v 1.35305332 -2.86034786 -1.25878881
v 1.35984134 -2.85358235 -1.21997307
v 1.35984456 -2.85358065 -1.21995813
v 1.36938833 -2.85357374 -1.25879911
v 1.35982134 -2.85356517 -1.25878974
v 1.36942327 -2.85359578 -1.21998605
v 1.36943489 -2.85356611 -1.25880918
v 1.37620043 -2.86033195 -1.21998576
v 1.37618951 -2.86034058 -1.25881715
v 1.36941451 -2.85355119 -1.21998963
v 1.94689154 -1.67918048 -1.22087066
v 1.35252475 -1.68243141 -1.22904538
v 1.94685174 -1.68244007 -1.22902299
v 1.35251923 -1.67918127 -1.22084076
v 1.94686126 -1.68241490 -1.22902468
v 1.35253237 -1.67921347 -1.23719116
v 1.94687491 -1.67921156 -1.23724176
v 1.35253242 -1.68245359 -1.22905963
v 1.94685863 -1.67140541 -1.24059051
v 1.35253107 -1.67919650 -1.23723652
v 1.35252652 -1.67140775 -1.24059678
v 1.94686452 -1.67919653 -1.23722575
v 1.94686813 -1.66360740 -1.23723688
v 1.35252947 -1.67141439 -1.24063806
v 1.35254116 -1.66361899 -1.23723095
v 1.94685716 -1.67140754 -1.24058715
v 1.35838864 -2.86420560 -1.60298894
v 1.36537173 -2.86419670 -1.61260952
v 1.35840262 -2.86421351 -1.61258637
v 1.36534880 -2.86422428 -1.60299050
v 1.35838819 -2.86421800 -1.60300828
v 1.35838083 -2.87152676 -1.61262104
v 1.35838887 -2.87154145 -1.60301099
v 1.35837914 -2.86422560 -1.61259606
v 1.36534839 -2.87153699 -1.61262515
v 1.36535549 -2.86421210 -1.60302812
v 1.36537350 -2.87154691 -1.60302489
v 1.36534111 -2.86423601 -1.61260164
v 1.36534651 -2.87156700 -1.60301288
v 1.35842510 -2.87154249 -1.61259102
v 1.36536694 -2.87153495 -1.61262245
v 1.35838469 -2.87154273 -1.60300970
v 1.36392536 -2.27392259 -1.60301321
v 1.35694890 -2.27394880 -1.61262011
v 1.36393532 -2.27388942 -1.61257523
v 1.35696189 -2.27389933 -1.60299581
v 1.36391789 -2.27393799 -1.61260183
v 1.36390193 -2.26658345 -1.60300028
v 1.36390703 -2.27391218 -1.60299085
v 1.36393362 -2.26657088 -1.61258876
v 1.35698631 -2.26657641 -1.60299101
v 1.35695949 -2.27392081 -1.61259759
v 1.35695141 -2.27392121 -1.60301843
v 1.35692620 -2.26657710 -1.61262115
v 1.35695885 -2.26655704 -1.60301713
v 1.36392014 -2.26655832 -1.61259414
v 1.35697502 -2.26658398 -1.61259113
v 1.36391798 -2.26658876 -1.60300046
v 1.94093101 -1.67957916 -1.60297356
v 1.93394213 -1.67960183 -1.61258550
v 1.94093778 -1.67957328 -1.61261729
v 1.93397223 -1.67959285 -1.60300715
v 1.94094488 -1.67960881 -1.61261824
v 1.94096082 -1.67225118 -1.60300766
v 1.94093928 -1.67958529 -1.60302649
v 1.94092503 -1.67223609 -1.61259996
v 1.93397997 -1.67226459 -1.60298870
v 1.93397244 -1.67958343 -1.61259403
v 1.93395539 -1.67961845 -1.60302528
v 1.93399161 -1.67223615 -1.61260739
v 1.93396278 -1.67224009 -1.60301176
v 1.94092055 -1.67223667 -1.61259509
v 1.93392974 -1.67226023 -1.61260007
v 1.94094712 -1.67225328 -1.60301873
v 1.35919505 -1.67220019 -1.60301324
v 1.36615900 -1.67218591 -1.61261634
v 1.35919156 -1.67223490 -1.61259414
v 1.36617691 -1.67219641 -1.60299555
v 1.35920335 -1.67219948 -1.60300217
v 1.35919279 -1.67952084 -1.61260742
v 1.35917496 -1.67952589 -1.60298163
v 1.35918245 -1.67220611 -1.61261244
v 1.36615887 -1.67953789 -1.61262074
v 1.36616041 -1.67222646 -1.60301772
v 1.36614685 -1.67955438 -1.60303491
v 1.36618275 -1.67219699 -1.61263083
v 1.36615565 -1.67954858 -1.60301955
v 1.35917519 -1.67952732 -1.61260812
v 1.36617154 -1.67953071 -1.61258169
v 1.35916970 -1.67951263 -1.60299031
v 1.94438599 -2.27363295 -1.60300630
v 1.93741704 -2.27367954 -1.61258536
v 1.94437995 -2.27367525 -1.61257070
v 1.93740024 -2.27366839 -1.60301230
v 1.93739351 -2.26632661 -1.60299834
v 1.93741007 -2.27370374 -1.61258725
v 1.93739956 -2.27368667 -1.60300036
v 1.93741318 -2.26635010 -1.61256540
v 1.94435939 -2.27369438 -1.61261951
v 1.94439864 -2.26633716 -1.60301491
v 1.94437651 -2.27367742 -1.60301966
v 1.94436787 -2.26632397 -1.61258706
v 1.93738904 -2.26633096 -1.60299760
v 1.94436130 -2.26634203 -1.61261778
v 1.93738552 -2.26633301 -1.61261328
v 1.94438686 -2.26633497 -1.60300320
v 1.93173636 -2.26626497 -1.22277958
v 1.93174065 -2.27393113 -1.60390246
v 1.93175186 -2.27391823 -1.22275266
v 1.93173129 -2.26624773 -1.60391492
v 1.93716415 -2.26085101 -1.22276159
v 1.93174335 -2.26623770 -1.60392772
v 1.93173336 -2.26626881 -1.22278616
v 1.93715031 -2.26084042 -1.60390908
v 1.93716003 -2.26084691 -1.60390603
v 1.93175379 -2.27393406 -1.60390881
v 1.93173962 -2.26624850 -1.60390978
v 1.93716041 -2.27935347 -1.60390850
v 1.94481290 -2.26083093 -1.60391037
v 1.94482725 -2.27935198 -1.60389683
v 1.95025203 -2.26624264 -1.60387559
v 1.95024092 -2.27390264 -1.60391067
v 1.93174660 -2.27391514 -1.22277428
v 1.93717047 -2.27934322 -1.60390821
v 1.93716863 -2.27931260 -1.22279079
v 1.93171377 -2.27392782 -1.60390748
v 1.93716326 -2.26083725 -1.22276058
v 1.94484122 -2.26083936 -1.60391583
v 1.93715548 -2.26084394 -1.60391219
v 1.94480319 -2.26084550 -1.22278456
v 1.95023888 -2.26625929 -1.60389880
v 1.94481872 -2.26084517 -1.22277014
v 1.95023819 -2.26625226 -1.22276824
v 1.94483296 -2.26083489 -1.60391176
v 1.95025187 -2.27391797 -1.60391636
v 1.95023945 -2.26627367 -1.22279257
v 1.95021360 -2.27393074 -1.22275830
v 1.95023340 -2.26624374 -1.60390888
v 1.94481621 -2.27931872 -1.60390014
v 1.95021556 -2.27390505 -1.22279426
v 1.94482401 -2.27932871 -1.22278270
v 1.95025840 -2.27390923 -1.60393235
v 1.94481961 -2.27933448 -1.22278680
v 1.93715742 -2.27932675 -1.60390410
v 1.94481292 -2.27933608 -1.60391796
v 1.93714251 -2.27935555 -1.22277394
v 1.92888386 -2.26537345 -1.22233863
v 1.92888153 -2.27488913 -1.25698257
v 1.92888181 -2.27489430 -1.22231154
v 1.92892138 -2.26536669 -1.25698431
v 1.93559898 -2.25867677 -1.25697438
v 1.92889185 -2.27486486 -1.25698414
v 1.92888874 -2.26535628 -1.25694256
v 1.93559257 -2.28160744 -1.25696793
v 1.94506617 -2.25866149 -1.25697279
v 1.94510301 -2.28161818 -1.25697241
v 1.95181703 -2.26536223 -1.25698245
v 1.95182440 -2.27487713 -1.25696028
v 1.93556504 -2.28159963 -1.22231019
v 1.92887888 -2.27489644 -1.25696387
v 1.93560805 -2.28159858 -1.25698605
v 1.92887323 -2.27487834 -1.22233459
v 1.93557438 -2.25866504 -1.22232245
v 1.92887671 -2.26537466 -1.25696750
v 1.92889766 -2.26534065 -1.22231061
v 1.93558207 -2.25869321 -1.25697016
v 1.95182968 -2.26539087 -1.25696469
v 1.94509842 -2.25864756 -1.22232639
v 1.95183454 -2.26539955 -1.22232807
v 1.94510765 -2.25867483 -1.25694066
v 1.95182054 -2.27485292 -1.25697866
v 1.95182518 -2.26535587 -1.22231700
v 1.95183148 -2.27486969 -1.22234191
v 1.95182280 -2.26538781 -1.25696580
v 1.95182050 -2.27487431 -1.25696990
v 1.94510932 -2.28159506 -1.22233126
v 1.94509414 -2.28160446 -1.25695276
v 1.95183420 -2.27486490 -1.22230094
v 1.94509226 -2.28158693 -1.22233757
v 1.93559804 -2.28158732 -1.25694466
v 1.94509819 -2.28159596 -1.25695149
v 1.93558080 -2.28158914 -1.22232613
v 1.93558987 -2.25865138 -1.22231265
v 1.94509625 -2.25864789 -1.25696616
v 1.93558450 -2.25863039 -1.25695248
v 1.94509703 -2.25866232 -1.22231003
v 1.93032708 -2.85261809 -1.25879338
v 1.92355726 -2.86891625 -1.25880370
v 1.92355998 -2.85932265 -1.25881160
v 1.93032027 -2.87571313 -1.25879209
v 1.93989228 -2.85260419 -1.25880232
v 1.94663442 -2.85938184 -1.25879716
v 1.93032572 -2.87574082 -1.21994645
v 1.92353608 -2.86895251 -1.25881459
v 1.93033571 -2.87572207 -1.25881024
v 1.92355799 -2.86894600 -1.21997379
v 1.92352163 -2.85935896 -1.21999614
v 1.92352480 -2.86892409 -1.25882821
v 1.92355981 -2.86895623 -1.21998531
v 1.92356435 -2.85938118 -1.25880347
v 1.93034015 -2.85257326 -1.21998020
v 1.92357275 -2.85933986 -1.25878536
v 1.92356587 -2.85935884 -1.21993267
v 1.93036778 -2.85260208 -1.25879525
v 1.93034345 -2.85258956 -1.21997290
v 1.93991695 -2.85257665 -1.25880577
v 1.93033954 -2.85256986 -1.25880429
v 1.93991780 -2.85257586 -1.21995081
v 1.94670044 -2.85935991 -1.25880593
v 1.93989141 -2.85258628 -1.21999066
v 1.94666685 -2.85935583 -1.21997669
v 1.93991671 -2.85259999 -1.25879111
v 1.35628388 -2.25863584 -1.25695870
v 1.34956545 -2.27488080 -1.25696828
v 1.34957534 -2.26536313 -1.25698659
v 1.35629704 -2.28159774 -1.25695658
v 1.36577328 -2.25864405 -1.25698063
v 1.36578562 -2.28159899 -1.25697301
v 1.37249887 -2.26537583 -1.25699472
v 1.37252040 -2.27485931 -1.25697535
v 1.37248674 -2.26538318 -1.25695461
v 1.36579303 -2.25865805 -1.22230814
v 1.37249178 -2.26538268 -1.22231445
v 1.36578226 -2.25866236 -1.25700623
v 1.37251734 -2.27486883 -1.25699475
v 1.37251628 -2.26537375 -1.22231737
v 1.37252143 -2.27488470 -1.22231088
v 1.37251753 -2.26536217 -1.25694434
v 1.36579352 -2.28160292 -1.25694191
v 1.37249080 -2.27488056 -1.22233592
v 1.36578216 -2.28157840 -1.22230216
v 1.37251424 -2.27488275 -1.25697701
v 1.36577469 -2.28158033 -1.22233506
v 1.35629464 -2.28159503 -1.25696618
v 1.36580625 -2.28160164 -1.25694395
v 1.35626071 -2.28160685 -1.22234508
v 1.35627060 -2.28158585 -1.22231052
v 1.34956757 -2.27486967 -1.25698625
v 1.35626194 -2.28159001 -1.25694864
v 1.34955755 -2.27489259 -1.22234441
v 1.34955283 -2.26534997 -1.22232463
v 1.34954750 -2.27488275 -1.25697596
v 1.34956695 -2.27488351 -1.22233481
v 1.34956018 -2.26536654 -1.25695805
v 1.35628995 -2.25866039 -1.22234682
v 1.34955107 -2.26536930 -1.25698865
v 1.34956676 -2.26538234 -1.22233022
v 1.35629844 -2.25865030 -1.25694830
v 1.35626772 -2.25863669 -1.22230796
v 1.36573900 -2.25865488 -1.25694573
v 1.35629335 -2.25866015 -1.25697222
v 1.36576425 -2.25865049 -1.22234829
v 1.36192577 -2.87525491 -1.61215296
v 1.35105659 -2.86787115 -1.61690926
v 1.36195636 -2.87875913 -1.61692530
v 1.35453725 -2.86785853 -1.61216141
v 1.36932438 -2.86785760 -1.61216413
v 1.36192926 -2.87525821 -1.61216999
v 1.36191974 -2.87873943 -1.61697941
v 1.36192970 -2.87527706 -1.61217273
v 1.36192425 -2.86045851 -1.61214829
v 1.35452446 -2.86786167 -1.61212998
v 1.36931924 -2.86786865 -1.61212316
v 1.36195004 -2.85697639 -1.61695316
v 1.35105011 -2.86785251 -1.61694041
v 1.35453781 -2.86787651 -1.61217873
v 1.36194324 -2.85699885 -1.61695214
v 1.36195093 -2.87873532 -1.61693944
v 1.35109566 -2.86785218 -1.61696130
v 1.37280761 -2.86783483 -1.61696007
v 1.36933772 -2.86784353 -1.61212706
v 1.36194010 -2.87874395 -1.61697457
v 1.37280627 -2.86787502 -1.61695025
v 1.36193609 -2.86046617 -1.61211993
v 1.36934531 -2.86786496 -1.61215263
v 1.37281726 -2.86785117 -1.61696496
v 1.36193904 -2.85700488 -1.61694887
v 1.35454035 -2.86785583 -1.61213478
v 1.36195081 -2.86044424 -1.61212895
v 1.36194562 -2.86046287 -1.61218154
v 1.37282460 -2.86786964 -1.61697536
v 1.36193448 -2.85697424 -1.61696865
v 1.94688209 -2.87067834 -1.24061328
v 1.35252473 -2.87846723 -1.23723981
v 1.35255731 -2.87069756 -1.24062129
v 1.94688101 -2.87846783 -1.23719868
v 1.94687840 -2.86287982 -1.23723750
v 1.35251980 -2.87068246 -1.24061013
v 1.35249623 -2.86286985 -1.23719263
v 1.94688464 -2.87070061 -1.24060337
v 1.35249513 -2.85963238 -1.22906320
v 1.94686892 -2.86286809 -1.23719919
v 1.35253199 -2.86290671 -1.23721997
v 1.94685879 -2.85965210 -1.22901951
v 1.35253673 -2.86285378 -1.22083538
v 1.94685699 -2.85963327 -1.22903895
v 1.35253106 -2.85965490 -1.22906847
v 1.94686692 -2.86288112 -1.22084837
v 1.94393100 -2.86827478 -1.23172986
v 1.94655319 -1.67704122 -1.22354964
v 1.94652169 -2.86822552 -1.22356230
v 1.94394571 -1.67703691 -1.23170220
v 1.94395267 -1.67703989 -1.23175386
v 1.93766538 -2.86823386 -1.23513732
v 1.93765516 -1.67705052 -1.23513226
v 1.94390909 -2.86824170 -1.23172704
v 1.93765142 -1.67701690 -1.23511070
v 1.93136370 -2.86824444 -1.23174698
v 1.93135447 -1.67705657 -1.23174429
v 1.93764267 -2.86823977 -1.23509012
v 1.92873137 -1.67703599 -1.22354291
v 1.93136285 -2.86824692 -1.23172568
v 1.92873313 -2.86824973 -1.22352877
v 1.93134732 -1.67700906 -1.23173437
v 1.37081330 -2.86825119 -1.23173493
v 1.37340978 -1.67703896 -1.22351804
v 1.37346006 -2.86826408 -1.22352857
v 1.37082473 -1.67703434 -1.23171195
v 1.37083547 -1.67703627 -1.23174472
v 1.36452180 -2.86825657 -1.23511600
v 1.36454608 -1.67702691 -1.23510606
v 1.37078690 -2.86824213 -1.23174672
v 1.36455520 -1.67703355 -1.23511127
v 1.35824144 -2.86825140 -1.23175895
v 1.35826585 -1.67704351 -1.23176949
v 1.36455441 -2.86823060 -1.23513390
v 1.35566019 -1.67704976 -1.22357567
v 1.35824417 -2.86825075 -1.23172910
v 1.35564364 -2.86825119 -1.22353885
v 1.35824629 -1.67704755 -1.23173483
v 1.94685755 -2.28141718 -1.22356243
v 1.35251876 -2.27818328 -1.23172632
v 1.94686184 -2.27818725 -1.23172296
v 1.35253901 -2.28140251 -1.22357208
v 1.94685600 -2.27037918 -1.23511306
v 1.35253700 -2.27817982 -1.23174367
v 1.35254510 -2.27041000 -1.23510605
v 1.94686255 -2.27820648 -1.23173685
v 1.94688075 -2.26260338 -1.23174900
v 1.35252255 -2.27040192 -1.23513941
v 1.35253338 -2.26258269 -1.23173917
v 1.94687061 -2.27039548 -1.23512224
v 1.35252870 -2.25934326 -1.22353840
v 1.94684788 -2.26258691 -1.23173424
v 1.35251990 -2.26260713 -1.23173133
v 1.94686190 -2.25937154 -1.22356673
v 1.93362931 -2.85830467 -1.60390426
v 1.92826744 -2.87139213 -1.60389168
v 1.92825270 -2.86372558 -1.60390577
v 1.93364837 -2.87678107 -1.60392943
v 1.94132021 -2.85828593 -1.60391055
v 1.94131228 -2.87680408 -1.60390108
v 1.94674431 -2.86372047 -1.60389775
v 1.94674995 -2.87140598 -1.60391459
v 1.94674882 -2.86371738 -1.60390544
v 1.94133084 -2.85829237 -1.22279118
v 1.94671753 -2.86374188 -1.22275064
v 1.94130507 -2.85831008 -1.60391171
v 1.94675122 -2.87141540 -1.60390953
v 1.94675396 -2.86370803 -1.22277227
v 1.94673195 -2.87136324 -1.22280333
v 1.94675048 -2.86371709 -1.60390012
v 1.94132477 -2.87680449 -1.60389505
v 1.94671863 -2.87140807 -1.22277595
v 1.94132158 -2.87680511 -1.22275465
v 1.94672720 -2.87137825 -1.60390320
v 1.94135611 -2.87682848 -1.22278652
v 1.93364797 -2.87678785 -1.60391915
v 1.94134554 -2.87678371 -1.60389602
v 1.93366131 -2.87683078 -1.22277566
v 1.92821840 -2.87139488 -1.22277535
v 1.92823025 -2.87137528 -1.60390885
v 1.93363168 -2.87682337 -1.60392593
v 1.92823502 -2.86370605 -1.22277083
v 1.92823993 -2.87140864 -1.60387157
v 1.92823932 -2.87135340 -1.22279132
v 1.92822639 -2.86368588 -1.60392296
v 1.93366103 -2.85831163 -1.22279051
v 1.93368703 -2.85832156 -1.60389353
v 1.92825134 -2.86373977 -1.60393523
v 1.93362822 -2.85831851 -1.60390360
v 1.94132581 -2.85830940 -1.22277995
v 1.94133533 -2.85829512 -1.60390329
v 1.93364558 -2.85829498 -1.22277567
v 1.92822859 -2.87139807 -1.22276004
v 1.93368232 -2.87681546 -1.60393793
v 1.93366355 -2.87682103 -1.22276745
v 1.93364918 -2.85827331 -1.22277670
v 1.92824834 -2.86374280 -1.60394899
v 1.92824177 -2.86372076 -1.22276763
v 1.93076566 -1.66650289 -1.25883276
v 1.92400972 -1.68282799 -1.25882195
v 1.92399359 -1.67326648 -1.25883716
v 1.93077690 -1.68959690 -1.25881221
v 1.94710524 -1.68284155 -1.25878852
v 1.94038578 -1.68960551 -1.25882065
v 1.94709684 -1.68286166 -1.25881021
v 1.94035737 -1.68960570 -1.21997888
v 1.94033098 -1.68963305 -1.25880668
v 1.94711416 -1.68281912 -1.21999673
v 1.94037918 -1.68961947 -1.21997163
v 1.93077726 -1.68961466 -1.25883892
v 1.94034681 -1.68958681 -1.25882799
v 1.93074644 -1.68961279 -1.21998111
v 1.93075463 -1.68962076 -1.21998213
v 1.92399530 -1.68283616 -1.25879834
v 1.93077970 -1.68960443 -1.25878381
v 1.92401781 -1.68288206 -1.21998038
v 1.92397794 -1.67326590 -1.21996345
v 1.92399846 -1.68284498 -1.25878923
v 1.92397903 -1.68283999 -1.21996677
v 1.92400182 -1.67327297 -1.25880922
v 1.92401351 -1.67325028 -1.21997022
v 1.93077851 -1.66648159 -1.25882740
v 1.92399685 -1.67324919 -1.25885535
v 1.93078522 -1.66647858 -1.21999113
v 1.35652939 -2.26084166 -1.60390266
v 1.35111502 -2.27390318 -1.60390266
v 1.35110887 -2.26626252 -1.60390543
v 1.35655140 -2.27932854 -1.60391028
v 1.36420877 -2.26083900 -1.60389656
v 1.36419183 -2.27932969 -1.60393647
v 1.36962831 -2.26625167 -1.60390883
v 1.36958976 -2.27389722 -1.60389542
v 1.36962196 -2.26624865 -1.60392284
v 1.36421419 -2.26081534 -1.22279580
v 1.36966176 -2.26626201 -1.22276588
v 1.36419422 -2.26083280 -1.60392783
v 1.36961175 -2.27392400 -1.60391861
v 1.36961798 -2.26624093 -1.22279728
v 1.36960374 -2.27391989 -1.22278664
v 1.36960660 -2.26625352 -1.60391725
v 1.36421156 -2.27933928 -1.60391183
v 1.36962056 -2.27390533 -1.22275862
v 1.36420416 -2.27935405 -1.22280078
v 1.36958825 -2.27393814 -1.60392154
v 1.36420576 -2.27936674 -1.22275689
v 1.35655640 -2.27932010 -1.60391648
v 1.36421018 -2.27935282 -1.60388570
v 1.35652243 -2.27934635 -1.22275699
v 1.35657768 -2.27934005 -1.22278441
v 1.35108320 -2.27389507 -1.60390423
v 1.35651242 -2.27932568 -1.60389966
v 1.35111532 -2.27392892 -1.22276733
v 1.35112410 -2.26624823 -1.22275992
v 1.35113841 -2.27390925 -1.60390009
v 1.35110153 -2.27393724 -1.22276601
v 1.35113026 -2.26624776 -1.60389629
v 1.35111234 -2.26624706 -1.22279298
v 1.35654146 -2.26082476 -1.60391892
v 1.35114975 -2.26623857 -1.60388835
v 1.35653738 -2.26085935 -1.22278865
v 1.35654876 -2.26084279 -1.22276746
v 1.36420879 -2.26084742 -1.60389489
v 1.35656070 -2.26084955 -1.60390119
v 1.36420888 -2.26083443 -1.22277978
v 1.94871910 -2.86764743 -1.61696574
v 1.94524824 -2.86765866 -1.61214997
v 1.93784701 -2.87508031 -1.61215502
v 1.94873129 -2.86765881 -1.61696754
v 1.93786431 -2.87504766 -1.61214965
v 1.93784563 -2.87856120 -1.61694952
v 1.94872848 -2.86765004 -1.61697763
v 1.93788334 -2.86029785 -1.61215326
v 1.94524507 -2.86765622 -1.61216420
v 1.93784198 -2.85679554 -1.61695630
v 1.93783001 -2.87506371 -1.61218835
v 1.93787644 -2.86027256 -1.61213843
v 1.93044758 -2.86768029 -1.61214293
v 1.94525251 -2.86769155 -1.61215395
v 1.93043600 -2.86766865 -1.61213208
v 1.93787325 -2.87855039 -1.61695264
v 1.93785416 -2.87508001 -1.61214735
v 1.93785653 -2.85679616 -1.61694614
v 1.93782877 -2.87852122 -1.61694077
v 1.92695918 -2.86766674 -1.61696702
v 1.94872975 -2.86768181 -1.61693388
v 1.93783023 -2.86027293 -1.61217726
v 1.92697968 -2.86767320 -1.61697116
v 1.93047803 -2.86764513 -1.61216107
v 1.93786667 -2.85679269 -1.61694654
v 1.92700284 -2.86767247 -1.61692343
v 1.93785459 -2.87855181 -1.61692198
v 1.93046065 -2.86769878 -1.61214930
v 1.33375285 -1.63074136 -1.21567399
v 1.33377684 -1.63073317 -1.21568083
v 1.96595869 -1.62779258 -1.22241447
v 1.96594486 -1.62783103 -1.22241566
v 1.33378457 -1.62778366 -1.22239229
v 1.33376936 -1.62779668 -1.22238516
v 1.33375901 -1.62779318 -1.22243200
v 1.32999797 -1.63163225 -1.22242132
v 1.32999932 -1.63164210 -1.22241702
v 1.33379490 -1.63073216 -1.21566971
v 1.96595416 -1.63161381 -1.21572676
v 1.33379063 -1.62780225 -1.22240881
v 1.96595098 -1.62780078 -1.24767785
v 1.33377515 -1.62781253 -1.24770498
v 1.96597233 -1.62779734 -1.22240792
v 1.32999681 -1.63162013 -1.24771588
v 1.33374340 -1.62779115 -1.24767208
v 1.33375973 -1.63071866 -1.21563972
v 1.33001375 -1.63162455 -1.22238543
v 1.32999899 -1.63163381 -1.22243420
v 1.32997422 -1.63162001 -1.22239782
v 1.33372053 -2.23937437 -1.21564062
v 1.33370295 -2.23936339 -1.21564024
v 1.96596413 -1.62781052 -1.22241044
v 1.96599607 -1.63162480 -1.21570449
v 1.96975083 -1.63164751 -1.22238410
v 1.96597701 -1.63163346 -1.21569595
v 1.96595433 -1.63161961 -1.21571941
v 1.33377596 -1.63069415 -1.21565326
v 1.33376317 -1.63070238 -1.21563082
v 1.64988151 -2.27124611 -1.22326650
v 1.64987711 -2.27121888 -1.22328462
v 1.64988519 -2.27124535 -1.22323195
v 1.96975151 -1.63165780 -1.24767008
v 1.96594706 -1.62778667 -1.22240598
v 1.96975283 -1.63162347 -1.22241222
v 1.96596714 -1.62779402 -1.24768783
v 1.96596622 -1.62779386 -1.24767998
v 1.33613644 -1.63402254 -1.24769266
v 1.33378742 -1.62779956 -1.24769831
v 1.96358616 -1.63400508 -1.24770459
v 1.96976364 -1.63162704 -1.24769933
v 1.33613165 -1.63402274 -1.24770024
v 1.32996566 -1.63163657 -1.24770657
v 1.33374916 -1.62781678 -1.24767787
v 1.32997242 -1.63163830 -1.22242491
v 1.33000611 -2.91085697 -1.24769520
v 1.32998905 -2.91087801 -1.22240848
v 1.32997773 -1.63161570 -1.24768947
v 1.33378559 -2.91084009 -1.21568897
v 1.33378144 -2.91085569 -1.21572253
v 1.33372810 -2.23938414 -1.21559321
v 1.96974606 -1.63159906 -1.22238824
v 1.96595612 -1.63165028 -1.21571614
v 1.96597985 -1.63163031 -1.21572147
v 1.96975006 -2.91084541 -1.22238022
v 1.96974636 -2.91086607 -1.22239509
v 1.96973135 -2.91087862 -1.22241028
v 1.96601921 -2.30314116 -1.21563759
v 1.96975826 -2.91088025 -1.24771827
v 1.96973513 -1.63162885 -1.22238243
v 1.96975081 -2.91085465 -1.22243775
v 1.96974090 -1.63164429 -1.24770389
v 1.96976491 -1.63163367 -1.24771836
v 1.96360545 -2.90859780 -1.24769588
v 1.96358139 -1.63401587 -1.24770552
v 1.96597622 -2.91468342 -1.24766680
v 1.96975222 -2.91088522 -1.24771727
v 1.96358240 -1.63401799 -1.22348559
v 1.33617257 -1.63402060 -1.24771437
v 1.96358440 -1.63403312 -1.24769713
v 1.33613460 -1.63400446 -1.22348026
v 1.33614636 -1.63400982 -1.24771096
v 1.32998777 -2.91084392 -1.24769381
v 1.32999218 -1.63163263 -1.24771463
v 1.33379807 -2.91469508 -1.24767163
v 1.33613970 -2.90856770 -1.24770301
v 1.32999401 -2.91085251 -1.22239764
v 1.33378395 -2.91471601 -1.24770682
v 1.33380248 -2.91469611 -1.22239963
v 1.32998536 -2.91087994 -1.24772224
v 1.32997076 -2.91084556 -1.22240541
v 1.64985287 -2.27126105 -1.22324150
v 1.64985647 -2.27125689 -1.22327119
v 1.64985182 -2.27122295 -1.22325663
v 1.33372323 -2.23937055 -1.21560611
v 1.33377289 -2.91086630 -1.21569748
v 1.33376664 -2.91087784 -1.21572541
v 1.96600585 -2.30310126 -1.21563524
v 1.96601325 -2.30312854 -1.21559892
v 1.96605285 -2.30313947 -1.21562983
v 1.96582881 -2.91072924 -1.21563029
v 1.96582381 -2.91074240 -1.21566316
v 1.96597067 -2.91468522 -1.24771687
v 1.96972471 -2.91089460 -1.22239502
v 1.96596207 -2.91472007 -1.22241260
v 1.96972452 -2.91087459 -1.24771286
v 1.33614158 -2.90858768 -1.24769722
v 1.96596524 -2.91467341 -1.24766412
v 1.33378469 -2.91469552 -1.24768873
v 1.96358046 -2.90859875 -1.24771295
v 1.96359567 -1.63400511 -1.22344175
v 1.96361107 -2.90857602 -1.24771022
v 1.96359245 -2.90857832 -1.22347699
v 1.96361910 -1.63403582 -1.24771045
v 1.96359698 -1.63399365 -1.22350199
v 1.33613728 -2.90856721 -1.22348530
v 1.33618063 -1.63403585 -1.22345894
v 1.96358999 -2.90857957 -1.22349063
v 1.33612594 -2.90857485 -1.24770785
v 1.33613619 -1.63404008 -1.22349053
v 1.33617009 -2.90860019 -1.22348326
v 1.33617925 -1.63403004 -1.24769988
v 1.32999328 -2.91087508 -1.22241450
v 1.33379106 -2.91468792 -1.22241378
v 1.33375130 -2.91088794 -1.21571481
v 1.96593219 -2.91467517 -1.22240286
v 1.33377998 -2.91471386 -1.24770719
v 1.96596077 -2.91469156 -1.24770303
v 1.33375340 -2.91467640 -1.22239379
v 1.96581411 -2.91071702 -1.21564220
v 1.96583379 -2.91072999 -1.21566493
v 1.96595720 -2.91467939 -1.22241485
v 1.96973979 -2.91086239 -1.22239643
v 1.33615940 -2.90859910 -1.22347068
v 1.96360497 -2.90859359 -1.24770395
v 1.33614546 -2.90856376 -1.24768651
v 1.96357131 -2.90860912 -1.22346547
v 1.96580981 -2.91072448 -1.21565626
v 1.96582805 -2.91075668 -1.21566840
v 1.33377572 -2.91086717 -1.21571367
v 1.33376411 -2.91470143 -1.22240372
v 1.33378243 -2.91469680 -1.22240667
v 1.96593311 -2.91470852 -1.22237674
v 1.35361943 -2.26018808 -1.51757561
v 1.34734619 -2.27011985 -1.53792169
v 1.34736798 -2.27012866 -1.51757647
v 1.35364578 -2.26020595 -1.53794429
v 1.36862843 -2.30411168 -1.51757897
v 1.36611526 -2.28228346 -1.51756917
v 1.36610343 -2.30138405 -1.51754728
v 1.35363526 -2.27992326 -1.51754738
v 1.35135446 -2.27015528 -1.51757489
v 1.34736185 -2.27012761 -1.51756052
v 1.36862998 -2.28050819 -1.51760175
v 1.35362731 -2.26020419 -1.51761078
v 1.36861942 -2.25960972 -1.51756171
v 1.36610791 -2.25781470 -1.51756612
v 1.36611254 -2.23896319 -1.51756180
v 1.36865611 -2.23624195 -1.51758644
v 1.35366985 -2.26020080 -1.51757558
v 1.36612251 -2.25782554 -1.53795058
v 1.35363505 -2.26019567 -1.53793572
v 1.36612692 -2.25782075 -1.51758032
v 1.36864335 -2.23623021 -1.53794757
v 1.36609916 -2.25785141 -1.53793156
v 1.36609513 -2.23895888 -1.53792674
v 1.35365793 -2.26021771 -1.53796036
v 1.35134854 -2.27016941 -1.53795592
v 1.34736970 -2.27014396 -1.53794913
v 1.36861844 -2.25957380 -1.53793149
v 1.35366560 -2.27988806 -1.53793738
v 1.36860249 -2.28053141 -1.53794115
v 1.36610474 -2.28228964 -1.53793473
v 1.36612910 -2.30138651 -1.53793956
v 1.36861244 -2.30412770 -1.53791140
v 1.34735674 -2.27014401 -1.51757784
v 1.35364338 -2.27988582 -1.53792602
v 1.35364293 -2.27988466 -1.51758260
v 1.34738080 -2.27011505 -1.53794946
v 1.36611390 -2.28225333 -1.51758373
v 1.36611180 -2.30139020 -1.53795751
v 1.36611687 -2.30139809 -1.51754646
v 1.36611115 -2.28227883 -1.53794024
v 1.36611237 -2.30138847 -1.51757031
v 1.36861203 -2.30412488 -1.53793298
v 1.36858873 -2.30412936 -1.51757104
v 1.36611595 -2.30139133 -1.53793881
v 1.36861539 -2.23624420 -1.51755713
v 1.36611484 -2.23896295 -1.53791880
v 1.36612095 -2.23895800 -1.51755465
v 1.36862865 -2.23620406 -1.53794979
v 1.36610253 -2.23896094 -1.51757924
v 1.36607633 -2.25781433 -1.53795846
v 1.36611934 -2.25784988 -1.51756942
v 1.36609305 -2.23894897 -1.53796468
v 1.36610201 -2.28226585 -1.51756797
v 1.35364757 -2.27991424 -1.53797362
v 1.36609751 -2.28228332 -1.53791877
v 1.35365352 -2.27989671 -1.51757985
v 1.94747203 -2.27998586 -1.53794640
v 1.95375230 -2.27002998 -1.51758581
v 1.94747871 -2.27999915 -1.51758088
v 1.95373626 -2.27003961 -1.53796192
v 1.93500843 -2.23881484 -1.51758972
v 1.93250988 -2.23609025 -1.51757470
v 1.93501988 -2.25794552 -1.51757936
v 1.93504114 -2.30123813 -1.51757983
v 1.93252840 -2.28062346 -1.51759152
v 1.93248211 -2.30400007 -1.51756430
v 1.93501712 -2.28234886 -1.51755864
v 1.94977743 -2.27005796 -1.51757438
v 1.94749782 -2.28000115 -1.51757138
v 1.95374635 -2.27003921 -1.51757637
v 1.93250256 -2.25971110 -1.51755675
v 1.94747408 -2.26030348 -1.51757729
v 1.94748013 -2.28002500 -1.53795255
v 1.93500580 -2.28234115 -1.51755107
v 1.93502851 -2.28233655 -1.53792179
v 1.94746285 -2.28001460 -1.51756717
v 1.93502094 -2.23881551 -1.53795312
v 1.93253974 -2.25969365 -1.53792413
v 1.93253398 -2.23609516 -1.53793221
v 1.93504574 -2.25790274 -1.53792963
v 1.94978928 -2.27005345 -1.53792191
v 1.94749161 -2.26030057 -1.53794790
v 1.95373714 -2.27006118 -1.53791303
v 1.93250499 -2.28061900 -1.53794444
v 1.93501880 -2.28238200 -1.53793125
v 1.93251707 -2.30396581 -1.53793187
v 1.94748569 -2.28002680 -1.53793790
v 1.93501223 -2.30123941 -1.53793975
v 1.95374594 -2.27006670 -1.53795877
v 1.94747474 -2.26029773 -1.51755357
v 1.95376508 -2.27004651 -1.51755787
v 1.94747808 -2.26028075 -1.53796101
v 1.93502381 -2.25793234 -1.53797017
v 1.93504673 -2.23884847 -1.51756088
v 1.93504873 -2.25792753 -1.51757288
v 1.93499364 -2.23882239 -1.53791916
v 1.93501418 -2.23883320 -1.53797536
v 1.93253139 -2.23608028 -1.51757567
v 1.93503753 -2.23882658 -1.51757615
v 1.93254390 -2.23609980 -1.53793648
v 1.93251554 -2.30398201 -1.53794075
v 1.93500248 -2.30125754 -1.51757478
v 1.93250223 -2.30399590 -1.51758611
v 1.93500989 -2.30124939 -1.53794030
v 1.93504667 -2.30124649 -1.53794972
v 1.93501393 -2.28237624 -1.51757639
v 1.93502203 -2.30122653 -1.51757343
v 1.93502394 -2.28239144 -1.53796324
v 1.93501995 -2.25793073 -1.53793784
v 1.94750316 -2.26031005 -1.51758138
v 1.94749751 -2.26030893 -1.53793999
v 1.93502040 -2.25789646 -1.51759628
v 1.35050777 -1.66652487 -1.56266044
v 1.35475271 -1.69402904 -1.56268477
v 1.35047012 -1.69401697 -1.56267247
v 1.35244620 -1.66463463 -1.56267467
v 1.35476237 -1.66848932 -1.56265250
v 1.94744406 -1.66462005 -1.56269513
v 1.94648038 -1.66847017 -1.56267534
v 1.94936705 -1.66653637 -1.56267252
v 1.35246111 -1.66460967 -1.22438415
v 1.94746794 -1.66463154 -1.56268265
v 1.35245249 -1.66463184 -1.56269448
v 1.94745784 -1.66464871 -1.22441183
v 1.94744149 -1.66462774 -1.56265816
v 1.94941693 -1.66652664 -1.22441449
v 1.94939323 -1.66652830 -1.56268673
v 1.94747164 -1.66462880 -1.22440880
v 1.94648767 -1.66846130 -1.56268324
v 1.94938274 -1.69406981 -1.56267338
v 1.94642597 -1.69405443 -1.56271543
v 1.94936070 -1.66656062 -1.56266871
v 1.94647306 -1.66846852 -1.22439033
v 1.35475991 -1.66848686 -1.56265968
v 1.94649072 -1.66848992 -1.56267058
v 1.35475816 -1.66846566 -1.22438783
v 1.35475588 -1.69403929 -1.56272268
v 1.35477623 -1.66850184 -1.22436247
v 1.35477335 -1.69405579 -1.22438325
v 1.35475636 -1.66846975 -1.56268200
v 1.35476808 -1.69405498 -1.22439362
v 1.35046992 -1.69400589 -1.56266837
v 1.35475918 -1.69403416 -1.56267050
v 1.35047655 -1.69401524 -1.22440089
v 1.35051326 -1.66654316 -1.22440214
v 1.35047779 -1.69400598 -1.56265656
v 1.35049456 -1.69399489 -1.22439244
v 1.35051101 -1.66655040 -1.56268114
v 1.35053772 -1.66651760 -1.22442191
v 1.35241249 -1.66459659 -1.56265648
v 1.35051067 -1.66653573 -1.56267700
v 1.35245543 -1.66462886 -1.22439133
v 1.94938153 -1.69403803 -1.56266202
v 1.94938451 -1.66655461 -1.22438669
v 1.94937017 -1.69402911 -1.22439621
v 1.94936773 -1.66653077 -1.56268722
v 1.94938147 -1.69404854 -1.56266267
v 1.94642249 -1.69405212 -1.22441060
v 1.94642126 -1.69405066 -1.56267455
v 1.94938581 -1.69404175 -1.22440695
v 1.94646355 -1.66845854 -1.22440773
v 1.94643908 -1.69406252 -1.56265515
v 1.94644342 -1.69405989 -1.22439496
v 1.94650685 -1.66847416 -1.56270313
v 1.94746531 -2.87928396 -1.22442422
v 1.35245426 -2.87931408 -1.56267930
v 1.94746136 -2.87931042 -1.56266506
v 1.35242159 -2.87931281 -1.22441435
v 1.35243134 -2.87926717 -1.22441301
v 1.35052672 -2.87739289 -1.56270658
v 1.35242185 -2.87933771 -1.56268022
v 1.35050040 -2.87741085 -1.22442329
v 1.35483671 -2.85119562 -1.56265576
v 1.35051740 -2.87738645 -1.56266108
v 1.35054147 -2.85132114 -1.56269003
v 1.35242433 -2.87933130 -1.56266728
v 1.35477893 -2.87548533 -1.56269414
v 1.94746318 -2.87931794 -1.56267452
v 1.94648429 -2.87544866 -1.56266112
v 1.94653764 -2.85132925 -1.56268513
v 1.94942400 -2.85125870 -1.56269255
v 1.94936356 -2.87740261 -1.56265763
v 1.94935520 -2.87741300 -1.56270318
v 1.94744052 -2.87931374 -1.22442008
v 1.94746313 -2.87930903 -1.56266716
v 1.94941097 -2.87741221 -1.22440756
v 1.35050124 -2.85130924 -1.22439437
v 1.35052897 -2.87740501 -1.56265807
v 1.35051597 -2.87739919 -1.22441367
v 1.35052022 -2.85129136 -1.56267789
v 1.35047813 -2.85130613 -1.22439153
v 1.35482043 -2.85120597 -1.56267029
v 1.35048311 -2.85129063 -1.56270619
v 1.35482809 -2.85119595 -1.22440788
v 1.35477504 -2.87545711 -1.56268587
v 1.35482033 -2.85119253 -1.22439581
v 1.35477703 -2.87545835 -1.22440888
v 1.35481089 -2.85121977 -1.56269787
v 1.35473809 -2.87547328 -1.22441383
v 1.94648778 -2.87546788 -1.56267237
v 1.35478487 -2.87547911 -1.56268167
v 1.94648114 -2.87547751 -1.22441819
v 1.94656583 -2.85134678 -1.22440452
v 1.94649521 -2.87545982 -1.56266284
v 1.94648746 -2.87546219 -1.22438366
v 1.94655850 -2.85134259 -1.56266308
v 1.94657841 -2.85133830 -1.22439106
v 1.94943671 -2.85125301 -1.56268544
v 1.94655867 -2.85135266 -1.56266985
v 1.94946493 -2.85124798 -1.22438137
v 1.94939265 -2.87739514 -1.56269088
v 1.94943222 -2.85126561 -1.22437491
v 1.94939096 -2.87739190 -1.22439171
v 1.94942092 -2.85127755 -1.56267023
v 1.93126772 -2.86547729 -1.50775112
v 1.36941771 -1.67809809 -1.50773796
v 1.36944282 -2.86547762 -1.50771954
v 1.93125318 -1.67808498 -1.50776896
v 1.36942807 -1.67812844 -1.50774440
v 1.36750212 -2.86549822 -1.50977762
v 1.36944000 -2.86547255 -1.50777796
v 1.36751481 -1.67810477 -1.50979711
v 1.93317285 -2.86545940 -1.50974798
v 1.93125924 -1.67808835 -1.50775477
v 1.93127474 -2.86546654 -1.50772831
v 1.93318034 -1.67811394 -1.50976552
v 1.36750087 -1.67808755 -1.50977235
v 1.36750619 -2.86543548 -1.54373918
v 1.36752743 -2.86547070 -1.50976290
v 1.36752087 -1.67808646 -1.54373554
v 1.93318233 -2.86549915 -1.54377335
v 1.93312917 -1.67808885 -1.50980064
v 1.93317956 -2.86548192 -1.50973028
v 1.93314764 -1.67811053 -1.54374971
v 1.37178152 -1.67810253 -1.54378549
v 1.36748920 -2.86547963 -1.54374181
v 1.36748714 -1.67809472 -1.54373794
v 1.37178754 -2.86549063 -1.54376120
v 1.93317333 -1.67808116 -1.54376703
v 1.93022554 -2.86546634 -1.54379947
v 1.93022368 -1.67810284 -1.54378005
v 1.93314209 -2.86546112 -1.54379017
v 1.37177170 -2.86545574 -1.54379279
v 1.37177792 -1.67811219 -1.51179089
v 1.37176259 -2.86549159 -1.51183013
v 1.37180737 -1.67809551 -1.54375792
v 1.93027518 -1.67808887 -1.51180560
v 1.93020821 -2.86545581 -1.54378665
v 1.93028464 -2.86546219 -1.51179036
v 1.93022388 -1.67814008 -1.54379979
v 1.93028920 -1.67807657 -1.51179948
v 1.37180037 -2.86550391 -1.51177695
v 1.37176284 -1.67812074 -1.51180343
v 1.93028519 -2.86548632 -1.51178432
v 1.94820846 -2.26998943 -1.61216576
v 1.94083082 -2.27742360 -1.61216719
v 1.95168791 -2.26997788 -1.61698347
v 1.95173237 -2.26999911 -1.61694722
v 1.94078962 -2.27740539 -1.61214008
v 1.94085002 -2.28088820 -1.61693315
v 1.95170915 -2.26998188 -1.61695322
v 1.94085024 -2.26261612 -1.61214299
v 1.94825292 -2.26997998 -1.61215685
v 1.94083536 -2.25910956 -1.61695416
v 1.94084360 -2.27737346 -1.61217288
v 1.94085537 -2.26258987 -1.61215512
v 1.93343912 -2.27000290 -1.61214559
v 1.94822509 -2.26999198 -1.61214680
v 1.93342561 -2.26999635 -1.61213459
v 1.94083620 -2.28086596 -1.61693685
v 1.94079646 -2.27737993 -1.61211815
v 1.94081220 -2.25907589 -1.61697676
v 1.94081723 -2.28086335 -1.61695897
v 1.92993545 -2.26998917 -1.61694353
v 1.95171959 -2.26999552 -1.61698032
v 1.94083618 -2.26257131 -1.61215946
v 1.92996047 -2.27001180 -1.61696083
v 1.93340759 -2.26999002 -1.61217006
v 1.94085235 -2.25910582 -1.61694940
v 1.92995941 -2.26997239 -1.61694425
v 1.94081515 -2.28087211 -1.61695656
v 1.93343333 -2.26999723 -1.61215152
v 1.93445170 -2.86402345 -1.60301164
v 1.94140521 -2.86402063 -1.61256422
v 1.93445348 -2.86402136 -1.61261199
v 1.94141378 -2.86399264 -1.60301096
v 1.94142141 -2.87137250 -1.61259637
v 1.94142847 -2.86400911 -1.60301892
v 1.94142527 -2.87136111 -1.60301364
v 1.94141785 -2.86402508 -1.61256285
v 1.93443321 -2.86404156 -1.60299296
v 1.93444144 -2.87134698 -1.61259505
v 1.93444563 -2.87134794 -1.60299907
v 1.93444197 -2.86399720 -1.61260950
v 1.94140306 -2.87133694 -1.60299885
v 1.93443580 -2.87134489 -1.61258806
v 1.94139609 -2.87136425 -1.61259045
v 1.93444189 -2.87135685 -1.60301362
v 1.37137302 -2.27026316 -1.61693026
v 1.36050129 -2.26287024 -1.61214471
v 1.36791074 -2.27025632 -1.61215358
v 1.36050803 -2.25936197 -1.61695150
v 1.36049207 -2.25937686 -1.61693542
v 1.36051203 -2.28113970 -1.61690766
v 1.34965905 -2.27027113 -1.61693469
v 1.37136941 -2.27025477 -1.61692687
v 1.36051204 -2.25939129 -1.61694233
v 1.34958498 -2.27027910 -1.61694953
v 1.36048817 -2.26283016 -1.61215058
v 1.36051955 -2.27765572 -1.61215005
v 1.36050307 -2.26282436 -1.61212844
v 1.35308145 -2.27025931 -1.61212742
v 1.36788036 -2.27022799 -1.61214311
v 1.36788760 -2.27028859 -1.61215168
v 1.36052650 -2.27765397 -1.61214431
v 1.37139154 -2.27025910 -1.61694413
v 1.36049112 -2.27766602 -1.61216636
v 1.36049491 -2.28113901 -1.61694727
v 1.37137912 -2.27028016 -1.61696655
v 1.36049649 -2.27764958 -1.61215690
v 1.34962741 -2.27027839 -1.61693231
v 1.36049361 -2.28114545 -1.61694948
v 1.35310487 -2.27025880 -1.61214273
v 1.36047414 -2.26285519 -1.61213973
v 1.34962874 -2.27025966 -1.61694520
v 1.35312436 -2.27027228 -1.61214867
v 1.94827093 -1.67592220 -1.61696701
v 1.93741404 -1.66851849 -1.61211786
v 1.94479368 -1.67594160 -1.61217927
v 1.93738309 -1.66507356 -1.61697999
v 1.93737721 -1.66853540 -1.61215495
v 1.92655468 -1.67590935 -1.61694705
v 1.92999854 -1.67593824 -1.61215864
v 1.93739758 -1.66505629 -1.61692609
v 1.93740136 -1.68334994 -1.61217470
v 1.93739251 -1.66851352 -1.61216806
v 1.92997393 -1.67589677 -1.61215201
v 1.94478754 -1.67589549 -1.61215684
v 1.94825220 -1.67593137 -1.61696861
v 1.94476883 -1.67591821 -1.61216077
v 1.93739746 -1.68683110 -1.61695356
v 1.93737179 -1.66506870 -1.61692384
v 1.93740134 -1.68680439 -1.61695028
v 1.92651093 -1.67593300 -1.61695639
v 1.94827674 -1.67593401 -1.61694702
v 1.93002774 -1.67593265 -1.61216868
v 1.92653990 -1.67594799 -1.61696542
v 1.93741718 -1.68332783 -1.61216751
v 1.94479399 -1.67591146 -1.61216595
v 1.93739337 -1.68329802 -1.61215434
v 1.93736526 -1.68682022 -1.61695413
v 1.92650838 -1.67590645 -1.61694680
v 1.93739077 -1.68680619 -1.61694759
v 1.93736139 -1.68332433 -1.61214420
v 1.37014994 -1.67587046 -1.61213574
v 1.37364628 -1.67590532 -1.61696125
v 1.36272653 -1.66501030 -1.61694448
v 1.36271506 -1.66499353 -1.61697257
v 1.36272687 -1.66849781 -1.61215982
v 1.37014883 -1.67591220 -1.61212916
v 1.37012964 -1.67584921 -1.61217543
v 1.36275459 -1.68327504 -1.61215594
v 1.37360412 -1.67588849 -1.61693074
v 1.36275450 -1.66499067 -1.61692771
v 1.36274896 -1.68676041 -1.61693695
v 1.35187320 -1.67586094 -1.61694285
v 1.37363461 -1.67586639 -1.61694997
v 1.36272552 -1.66500403 -1.61694849
v 1.35187962 -1.67587175 -1.61695744
v 1.36274515 -1.66848406 -1.61215983
v 1.36275385 -1.68329912 -1.61213659
v 1.36273658 -1.66847317 -1.61215843
v 1.35533436 -1.67589090 -1.61213985
v 1.37011871 -1.67587974 -1.61216207
v 1.36273413 -1.68325633 -1.61216292
v 1.36273070 -1.68678257 -1.61697788
v 1.37362189 -1.67589173 -1.61693967
v 1.35534726 -1.67589508 -1.61213055
v 1.35187920 -1.67588122 -1.61693829
v 1.36276726 -1.68675362 -1.61695814
v 1.36274345 -1.66847702 -1.61214832
v 1.35187989 -1.67587676 -1.61697463
v 1.35533229 -1.67589741 -1.61214717
v 1.35534023 -1.67587624 -1.61215984
v 1.36273083 -1.68674431 -1.61694396
v 1.36273813 -1.68330835 -1.61217166
vt 0.45594040 0.56818366
vt 0.44569999 0.57240039
vt 0.45170000 0.57240039
vt 0.44145960 0.56818366
vt 0.45594040 0.56222022
vt 0.44145960 0.56222022
vt 0.45170000 0.55800039
vt 0.44569999 0.55800039
vt 0.57679999 0.99720001
vt 0.57150000 0.70060003
vt 0.57150000 0.99720001
vt 0.57679999 0.70060003
vt 0.56550002 0.99720001
vt 0.57150000 0.70060003
vt 0.56550002 0.70060003
vt 0.57150000 0.99720001
vt 0.56550002 0.99720001
vt 0.56019998 0.70060003
vt 0.56019998 0.99720001
vt 0.56550002 0.70060003
vt 0.56019998 0.70060003
vt 0.55489999 0.99719846
vt 0.56019998 0.99720001
vt 0.55489999 0.70060003
vt 0.55489999 0.70060003
vt 0.56550002 0.99720001
vt 0.55489999 0.99720001
vt 0.56550002 0.70060003
vt 0.57150000 0.70060003
vt 0.56550002 0.99720001
vt 0.56550002 0.70060003
vt 0.57150000 0.99720001
vt 0.57150000 0.70060003
vt 0.58209997 0.99720001
vt 0.57150000 0.99720001
vt 0.58209997 0.70060003
vt 0.58209997 0.99720001
vt 0.57679999 0.70060003
vt 0.57679999 0.99720001
vt 0.58209997 0.70060158
vt 159.46380615 -39.63346100
vt 158.69720459 -1.52040601
vt 159.46380615 -1.52040601
vt 158.69720459 -39.63346100
vt 0.62339997 0.99129999
vt 0.62760001 0.69470000
vt 0.62339997 0.69470000
vt 0.62760001 0.99129999
vt 159.46380615 370.71301270
vt 160.00590515 372.02130127
vt 160.00590515 371.25479126
vt 159.46380615 372.56298828
vt 158.69720459 370.71301270
vt 158.69720459 372.56298828
vt 158.15550232 371.25479126
vt 158.15550232 372.02130127
vt 0.62339997 0.69470000
vt 0.62760001 0.99129999
vt 0.62339997 0.99129999
vt 0.62760001 0.69470000
vt 0.61739999 0.99129999
vt 0.62339997 0.69470000
vt 0.61739999 0.69470000
vt 0.62339997 0.99129999
vt 0.61320001 0.99129999
vt 0.61739999 0.69470000
vt 0.61320001 0.69470000
vt 0.61739999 0.99129999
vt -158.69720459 -39.63346100
vt -159.46380615 -1.52040601
vt -158.69720459 -1.52040601
vt -159.46380615 -39.63346100
vt 0.61320001 0.69470000
vt 0.61739999 0.99129999
vt 0.61320001 0.99129999
vt 0.61739999 0.69470000
vt 0.62339997 0.69470000
vt 0.61739999 0.99129999
vt 0.61739999 0.69470000
vt 0.62339997 0.99129999
vt 159.46380615 -39.63346100
vt 158.69720459 -1.52040601
vt 159.46380615 -1.52040601
vt 158.69720459 -39.63346100
vt 0.62339997 0.99129999
vt 0.62760001 0.69470000
vt 0.62339997 0.69470000
vt 0.62760001 0.99129999
vt 159.46380615 370.71301270
vt 160.00590515 372.02130127
vt 160.00590515 371.25479126
vt 159.46380615 372.56298828
vt 158.69720459 370.71301270
vt 158.69720459 372.56298828
vt 158.15550232 371.25479126
vt 158.15550232 372.02130127
vt 0.62339997 0.69470000
vt 0.62760001 0.99129999
vt 0.62339997 0.99129999
vt 0.62760001 0.69470000
vt 0.61739999 0.99129999
vt 0.62339997 0.69470000
vt 0.61739999 0.69470000
vt 0.62339997 0.99129999
vt 0.61320001 0.99129999
vt 0.61739999 0.69470000
vt 0.61320001 0.69470000
vt 0.61739999 0.99129999
vt -158.69720459 -39.63346100
vt -159.46380615 -1.52040601
vt -158.69720459 -1.52040601
vt -159.46380615 -39.63346100
vt 0.61320001 0.69470000
vt 0.61739999 0.99129999
vt 0.61320001 0.99129999
vt 0.61739999 0.69470000
vt 0.62339997 0.69470000
vt 0.61739999 0.99129999
vt 0.61739999 0.69470000
vt 0.62339997 0.99129999
vt 0.46360001 0.57599998
vt 0.44560000 0.58340001
vt 0.45087370 0.58863139
vt 0.44560000 0.57599998
vt 0.45832929 0.57076561
vt 0.45087370 0.57076561
vt 0.46390000 0.53960001
vt 0.45249999 0.50940001
vt 0.45249999 0.53960001
vt 0.46390000 0.50940001
vt 0.44299999 0.53920001
vt 0.45249999 0.50940001
vt 0.44299999 0.50900000
vt 0.45249999 0.53960001
vt 0.43470001 0.53929996
vt 0.44299999 0.50900000
vt 0.43470001 0.50900000
vt 0.44299999 0.53929996
vt -158.31730652 -39.91378021
vt -159.27520752 -36.03039169
vt -158.31730652 -36.03039169
vt -159.27520752 -39.91378021
vt 0.44299999 0.50900000
vt 0.43470001 0.53929996
vt 0.43470001 0.50900000
vt 0.44299999 0.53929996
vt 0.46360001 0.57599998
vt 0.44560000 0.58340001
vt 0.45087370 0.58863139
vt 0.44560000 0.57599998
vt 0.45832929 0.57076561
vt 0.45087370 0.57076561
vt 0.46390000 0.53960001
vt 0.45249999 0.50940001
vt 0.45249999 0.53960001
vt 0.46390000 0.50940001
vt 0.44299999 0.53920001
vt 0.45249999 0.50940001
vt 0.44299999 0.50900000
vt 0.45249999 0.53960001
vt 0.43470001 0.53929996
vt 0.44299999 0.50900000
vt 0.43470001 0.50900000
vt 0.44299999 0.53929996
vt -158.31730652 -39.91378021
vt -159.27520752 -36.03039169
vt -158.31730652 -36.03039169
vt -159.27520752 -39.91378021
vt 0.44299999 0.50900000
vt 0.43470001 0.53929996
vt 0.43470001 0.50900000
vt 0.44299999 0.53929996
vt 0.45590001 0.56819999
vt 0.44576451 0.57237637
vt 0.45170000 0.57239997
vt 0.44156450 0.56814289
vt 0.45590001 0.56223351
vt 0.44156450 0.56217641
vt 0.45170000 0.55799997
vt 0.44576451 0.55797637
vt 0.58080000 0.99339998
vt 0.58609998 0.69679999
vt 0.58080000 0.69679999
vt 0.58609998 0.99339998
vt 0.57480001 0.99339998
vt 0.58080000 0.69679999
vt 0.57480001 0.69679999
vt 0.58080000 0.99339998
vt 0.56950003 0.99339998
vt 0.57480001 0.69679999
vt 0.56950003 0.69679999
vt 0.57480001 0.99339998
vt 0.56950003 0.69679999
vt 0.56419998 0.99339998
vt 0.56950003 0.99339998
vt 0.56419998 0.69679999
vt 0.57480001 0.69679999
vt 0.56419998 0.99339998
vt 0.56419998 0.69679999
vt 0.57480001 0.99339998
vt 0.58080000 0.69679999
vt 0.57480001 0.99339998
vt 0.57480001 0.69679999
vt 0.58080000 0.99339998
vt 0.59140003 0.69679999
vt 0.58080000 0.99339998
vt 0.58080000 0.69679999
vt 0.59140003 0.99339998
vt 0.59140003 0.69679999
vt 0.58609998 0.99339998
vt 0.59140003 0.99339998
vt 0.58609998 0.69679999
vt 0.45590001 0.56819999
vt 0.44576451 0.57237637
vt 0.45170000 0.57239997
vt 0.44156450 0.56814289
vt 0.45590001 0.56223351
vt 0.44156450 0.56217641
vt 0.45170000 0.55799997
vt 0.44576451 0.55797637
vt 0.58080000 0.99339998
vt 0.58609998 0.69679999
vt 0.58080000 0.69679999
vt 0.58609998 0.99339998
vt 0.57480001 0.99339998
vt 0.58080000 0.69679999
vt 0.57480001 0.69679999
vt 0.58080000 0.99339998
vt 0.56950003 0.99339998
vt 0.57480001 0.69679999
vt 0.56950003 0.69679999
vt 0.57480001 0.99339998
vt 0.56950003 0.69679999
vt 0.56419998 0.99339998
vt 0.56950003 0.99339998
vt 0.56419998 0.69679999
vt 0.57480001 0.69679999
vt 0.56419998 0.99339998
vt 0.56419998 0.69679999
vt 0.57480001 0.99339998
vt 0.58080000 0.69679999
vt 0.57480001 0.99339998
vt 0.57480001 0.69679999
vt 0.58080000 0.99339998
vt 0.59140003 0.69679999
vt 0.58080000 0.99339998
vt 0.58080000 0.69679999
vt 0.59140003 0.99339998
vt 0.59140003 0.69679999
vt 0.58609998 0.99339998
vt 0.59140003 0.99339998
vt 0.58609998 0.69679999
vt 0.43470001 0.53929996
vt 0.44299999 0.50900000
vt 0.44299999 0.53929996
vt 0.43470001 0.50900000
vt 0.45832711 0.57077098
vt 0.45087290 0.58862871
vt 0.46360001 0.57599998
vt 0.45087290 0.57077098
vt 0.44560000 0.57599998
vt 0.44560000 0.58340001
vt -370.85479736 -36.03033066
vt -369.89651489 -39.91371918
vt -370.85479736 -39.91371918
vt -369.89651489 -36.03033066
vt 0.46390000 0.50940001
vt 0.45249999 0.53960001
vt 0.46390000 0.53960001
vt 0.45249999 0.50940001
vt 0.45249999 0.50929999
vt 0.44299999 0.53929996
vt 0.45249999 0.53960001
vt 0.44299999 0.50900000
vt 0.44299999 0.53929996
vt 0.43470001 0.50900000
vt 0.43470001 0.53929996
vt 0.44299999 0.50900000
vt 0.43470001 0.53929996
vt 0.44299999 0.50900000
vt 0.44299999 0.53929996
vt 0.43470001 0.50900000
vt 0.45832711 0.57077098
vt 0.45087290 0.58862871
vt 0.46360001 0.57599998
vt 0.45087290 0.57077098
vt 0.44560000 0.57599998
vt 0.44560000 0.58340001
vt -370.85479736 -36.03033066
vt -369.89651489 -39.91371918
vt -370.85479736 -39.91371918
vt -369.89651489 -36.03033066
vt 0.46390000 0.50940001
vt 0.45249999 0.53960001
vt 0.46390000 0.53960001
vt 0.45249999 0.50940001
vt 0.45249999 0.50929999
vt 0.44299999 0.53929996
vt 0.45249999 0.53960001
vt 0.44299999 0.50900000
vt 0.44299999 0.53929996
vt 0.43470001 0.50900000
vt 0.43470001 0.53929996
vt 0.44299999 0.50900000
vt 0.11390000 0.48369998
vt 0.10690000 0.94620001
vt 0.10690000 0.48369998
vt 0.11390000 0.94620001
vt 0.10690000 0.48369998
vt 0.11390000 0.94620001
vt 0.11390000 0.48369998
vt 0.10690000 0.94620001
vt 0.12000000 0.48369998
vt 0.11390000 0.94620001
vt 0.12000000 0.94620001
vt 0.11390000 0.48369998
vt 0.13060001 0.48369998
vt 0.12000000 0.94620001
vt 0.13060001 0.94620001
vt 0.12000000 0.48369998
vt 0.11390000 0.48369998
vt 0.10690000 0.94620001
vt 0.10690000 0.48369998
vt 0.11390000 0.94620001
vt 0.10690000 0.48369998
vt 0.11390000 0.94620001
vt 0.11390000 0.48369998
vt 0.10690000 0.94620001
vt 0.12000000 0.48369998
vt 0.11390000 0.94620001
vt 0.12000000 0.94620001
vt 0.11390000 0.48369998
vt 0.13060001 0.48369998
vt 0.12000000 0.94620001
vt 0.13060001 0.94620001
vt 0.12000000 0.48369998
vt 159.42239380 -1.61035204
vt 158.72520447 -0.65105796
vt 159.42239380 -0.65105796
vt 158.72520447 -1.61035204
vt 0.63180000 0.98850000
vt 0.62610000 0.99599999
vt 0.62610000 0.98850000
vt 0.63180000 0.99599999
vt 0.62610000 0.99599999
vt 0.63180000 0.98850000
vt 0.62610000 0.98850000
vt 0.63180000 0.99599999
vt -158.72520447 -1.61035204
vt -159.42239380 -0.65105796
vt -158.72520447 -0.65105796
vt -159.42239380 -1.61035204
vt 159.42239380 -1.61035204
vt 158.72520447 -0.65105796
vt 159.42239380 -0.65105796
vt 158.72520447 -1.61035204
vt 0.63180000 0.98850000
vt 0.62610000 0.99599999
vt 0.62610000 0.98850000
vt 0.63180000 0.99599999
vt 0.62610000 0.99599999
vt 0.63180000 0.98850000
vt 0.62610000 0.98850000
vt 0.63180000 0.99599999
vt -158.72520447 -1.61035204
vt -159.42239380 -0.65105796
vt -158.72520447 -0.65105796
vt -159.42239380 -1.61035204
vt -158.86889648 -1.61035204
vt -159.56570435 -0.65105796
vt -158.86889648 -0.65105796
vt -159.56570435 -1.61035204
vt 0.55800003 0.94309998
vt 0.56370002 0.93559998
vt 0.55800003 0.93559998
vt 0.56370002 0.94309998
vt 0.56370002 0.93559998
vt 0.55800003 0.94309998
vt 0.55800003 0.93559998
vt 0.56370002 0.94309998
vt 159.56570435 -1.61035204
vt 158.86889648 -0.65105796
vt 159.56570435 -0.65105796
vt 158.86889648 -1.61035204
vt -158.86889648 -1.61035204
vt -159.56570435 -0.65105796
vt -158.86889648 -0.65105796
vt -159.56570435 -1.61035204
vt 0.55800003 0.94309998
vt 0.56370002 0.93559998
vt 0.55800003 0.93559998
vt 0.56370002 0.94309998
vt 0.56370002 0.93559998
vt 0.55800003 0.94309998
vt 0.55800003 0.93559998
vt 0.56370002 0.94309998
vt 159.56570435 -1.61035204
vt 158.86889648 -0.65105796
vt 159.56570435 -0.65105796
vt 158.86889648 -1.61035204
vt 0.50959998 0.85860002
vt 0.50590003 0.86610001
vt 0.50959998 0.86610001
vt 0.50590003 0.85860002
vt 0.50959998 0.86610001
vt 0.51380002 0.85860002
vt 0.50959998 0.85860002
vt 0.51380002 0.86610001
vt 0.51010001 0.85860002
vt 0.50590003 0.86610001
vt 0.50590003 0.85860002
vt 0.51010001 0.86610001
vt 0.51010001 0.85860002
vt 0.51380002 0.86610001
vt 0.51010001 0.86610001
vt 0.51380002 0.85860002
vt 0.50959998 0.85860002
vt 0.50590003 0.86610001
vt 0.50959998 0.86610001
vt 0.50590003 0.85860002
vt 0.50959998 0.86610001
vt 0.51380002 0.85860002
vt 0.50959998 0.85860002
vt 0.51380002 0.86610001
vt 0.51010001 0.85860002
vt 0.50590003 0.86610001
vt 0.50590003 0.85860002
vt 0.51010001 0.86610001
vt 0.51010001 0.85860002
vt 0.51380002 0.86610001
vt 0.51010001 0.86610001
vt 0.51380002 0.85860002
vt 0.66589999 0.68229997
vt 0.66970003 0.68970001
vt 0.66589999 0.68970001
vt 0.66970003 0.68229997
vt 0.66589999 0.68229997
vt 0.66180003 0.68970001
vt 0.66180003 0.68229997
vt 0.66589999 0.68970001
vt 0.66560000 0.68970001
vt 0.66970003 0.68229997
vt 0.66560000 0.68229997
vt 0.66970003 0.68970001
vt 0.66560000 0.68229997
vt 0.66180003 0.68970001
vt 0.66560000 0.68970001
vt 0.66180003 0.68229997
vt 0.66589999 0.68229997
vt 0.66970003 0.68970001
vt 0.66589999 0.68970001
vt 0.66970003 0.68229997
vt 0.66589999 0.68229997
vt 0.66180003 0.68970001
vt 0.66180003 0.68229997
vt 0.66589999 0.68970001
vt 0.66560000 0.68970001
vt 0.66970003 0.68229997
vt 0.66560000 0.68229997
vt 0.66970003 0.68970001
vt 0.66560000 0.68229997
vt 0.66180003 0.68970001
vt 0.66560000 0.68970001
vt 0.66180003 0.68229997
vt 0.65740001 0.68889999
vt 0.65329999 0.69760001
vt 0.65740001 0.69760001
vt 0.65329999 0.68889999
vt 0.65829998 0.68889999
vt 0.65329999 0.69760001
vt 0.65329999 0.68889999
vt 0.65829998 0.69760001
vt 0.65740001 0.69760001
vt 0.66250002 0.68889999
vt 0.65740001 0.68889999
vt 0.66250002 0.69760001
vt 0.65829998 0.68889999
vt 0.66250002 0.69760001
vt 0.65829998 0.69760001
vt 0.66250002 0.68889999
vt 0.65740001 0.68889999
vt 0.65329999 0.69760001
vt 0.65740001 0.69760001
vt 0.65329999 0.68889999
vt 0.65829998 0.68889999
vt 0.65329999 0.69760001
vt 0.65329999 0.68889999
vt 0.65829998 0.69760001
vt 0.65740001 0.69760001
vt 0.66250002 0.68889999
vt 0.65740001 0.68889999
vt 0.66250002 0.69760001
vt 0.65829998 0.68889999
vt 0.66250002 0.69760001
vt 0.65829998 0.69760001
vt 0.66250002 0.68889999
vt 0.59660000 0.69920003
vt 0.59060001 0.99580002
vt 0.59060001 0.69920003
vt 0.59660000 0.99580002
vt 0.60540003 0.69920003
vt 0.59660000 0.99580002
vt 0.59660000 0.69920003
vt 0.60540003 0.99580002
vt 0.45594040 0.56818330
vt 0.44569999 0.57239997
vt 0.45170000 0.57239997
vt 0.44145960 0.56818330
vt 0.45594040 0.56221670
vt 0.44145960 0.56221670
vt 0.45170000 0.55799997
vt 0.44569999 0.55799997
vt 0.59060001 0.69920003
vt 0.58179998 0.99580002
vt 0.58179998 0.69920003
vt 0.59060001 0.99580002
vt 0.60540003 0.69920003
vt 0.60079998 0.99580002
vt 0.60540003 0.99580002
vt 0.60079998 0.69920003
vt 0.59660000 0.99580002
vt 0.60079998 0.69920003
vt 0.59660000 0.69920003
vt 0.60079998 0.99580002
vt 0.59060001 0.99580002
vt 0.59660000 0.69920003
vt 0.59060001 0.69920003
vt 0.59660000 0.99580002
vt 0.58639997 0.99580002
vt 0.59060001 0.69920003
vt 0.58639997 0.69920003
vt 0.59060001 0.99580002
vt 0.58639997 0.69920003
vt 0.58179998 0.99580002
vt 0.58639997 0.99580002
vt 0.58179998 0.69920003
vt 0.59660000 0.69920003
vt 0.59060001 0.99580002
vt 0.59060001 0.69920003
vt 0.59660000 0.99580002
vt 0.60540003 0.69920003
vt 0.59660000 0.99580002
vt 0.59660000 0.69920003
vt 0.60540003 0.99580002
vt 0.45594040 0.56818330
vt 0.44569999 0.57239997
vt 0.45170000 0.57239997
vt 0.44145960 0.56818330
vt 0.45594040 0.56221670
vt 0.44145960 0.56221670
vt 0.45170000 0.55799997
vt 0.44569999 0.55799997
vt 0.59060001 0.69920003
vt 0.58179998 0.99580002
vt 0.58179998 0.69920003
vt 0.59060001 0.99580002
vt 0.60540003 0.69920003
vt 0.60079998 0.99580002
vt 0.60540003 0.99580002
vt 0.60079998 0.69920003
vt 0.59660000 0.99580002
vt 0.60079998 0.69920003
vt 0.59660000 0.69920003
vt 0.60079998 0.99580002
vt 0.59060001 0.99580002
vt 0.59660000 0.69920003
vt 0.59060001 0.69920003
vt 0.59660000 0.99580002
vt 0.58639997 0.99580002
vt 0.59060001 0.69920003
vt 0.58639997 0.69920003
vt 0.59060001 0.99580002
vt 0.58639997 0.69920003
vt 0.58179998 0.99580002
vt 0.58639997 0.99580002
vt 0.58179998 0.69920003
vt 0.46480000 0.44650000
vt 0.45739999 0.47350001
vt 0.45739999 0.44650000
vt 0.46480000 0.47350001
vt 0.47139999 0.51820004
vt 0.45884931 0.52338076
vt 0.46619999 0.52340001
vt 0.45364931 0.51815367
vt 0.47139999 0.51082706
vt 0.45364931 0.51078081
vt 0.46619999 0.50559998
vt 0.45884931 0.50558078
vt 0.44360000 0.44650000
vt 0.45739999 0.47350001
vt 0.44360000 0.47350001
vt 0.45739999 0.44650000
vt 0.47860000 0.44590002
vt 0.46480000 0.47350001
vt 0.46480000 0.44650000
vt 0.47860000 0.47289997
vt 0.46480000 0.47350001
vt 0.47220001 0.44650000
vt 0.46480000 0.44650000
vt 0.47220001 0.47350001
vt 0.45739999 0.47350001
vt 0.46480000 0.44650000
vt 0.45739999 0.44650000
vt 0.46480000 0.47350001
vt 0.45739999 0.47350001
vt 0.44990000 0.44650000
vt 0.44990000 0.47350001
vt 0.45739999 0.44650000
vt 0.44990000 0.44650000
vt 0.44360000 0.47350001
vt 0.44990000 0.47350001
vt 0.44360000 0.44650000
vt 0.47860000 0.44590002
vt 0.47220001 0.47409999
vt 0.47860000 0.47350001
vt 0.47220001 0.44650000
vt 0.46480000 0.44650000
vt 0.45739999 0.47350001
vt 0.45739999 0.44650000
vt 0.46480000 0.47350001
vt 0.47139999 0.51820004
vt 0.45884931 0.52338076
vt 0.46619999 0.52340001
vt 0.45364931 0.51815367
vt 0.47139999 0.51082706
vt 0.45364931 0.51078081
vt 0.46619999 0.50559998
vt 0.45884931 0.50558078
vt 0.44360000 0.44650000
vt 0.45739999 0.47350001
vt 0.44360000 0.47350001
vt 0.45739999 0.44650000
vt 0.47860000 0.44590002
vt 0.46480000 0.47350001
vt 0.46480000 0.44650000
vt 0.47860000 0.47289997
vt 0.46480000 0.47350001
vt 0.47220001 0.44650000
vt 0.46480000 0.44650000
vt 0.47220001 0.47350001
vt 0.45739999 0.47350001
vt 0.46480000 0.44650000
vt 0.45739999 0.44650000
vt 0.46480000 0.47350001
vt 0.45739999 0.47350001
vt 0.44990000 0.44650000
vt 0.44990000 0.47350001
vt 0.45739999 0.44650000
vt 0.44990000 0.44650000
vt 0.44360000 0.47350001
vt 0.44990000 0.47350001
vt 0.44360000 0.44650000
vt 0.47860000 0.44590002
vt 0.47220001 0.47409999
vt 0.47860000 0.47350001
vt 0.47220001 0.44650000
vt 0.44560000 0.57599998
vt 0.45832959 0.57076561
vt 0.45087370 0.57076561
vt 0.46360001 0.57599998
vt 0.44560000 0.58340001
vt 0.45087370 0.58863139
vt 0.46390000 0.50940001
vt 0.45249999 0.53960001
vt 0.46390000 0.53960001
vt 0.45249999 0.50940001
vt 0.44299999 0.50900000
vt 0.45249999 0.53960001
vt 0.45249999 0.50929999
vt 0.44299999 0.53929996
vt 0.43470001 0.50900000
vt 0.44299999 0.53929996
vt 0.44299999 0.50900000
vt 0.43470001 0.53929996
vt 102.22830200 -39.91378021
vt 101.27050018 -36.03039169
vt 102.22830200 -36.03039169
vt 101.27050018 -39.91378021
vt 0.44299999 0.53929996
vt 0.43470001 0.50900000
vt 0.44299999 0.50900000
vt 0.43470001 0.53929996
vt 0.44560000 0.57599998
vt 0.45832959 0.57076561
vt 0.45087370 0.57076561
vt 0.46360001 0.57599998
vt 0.44560000 0.58340001
vt 0.45087370 0.58863139
vt 0.46390000 0.50940001
vt 0.45249999 0.53960001
vt 0.46390000 0.53960001
vt 0.45249999 0.50940001
vt 0.44299999 0.50900000
vt 0.45249999 0.53960001
vt 0.45249999 0.50929999
vt 0.44299999 0.53929996
vt 0.43470001 0.50900000
vt 0.44299999 0.53929996
vt 0.44299999 0.50900000
vt 0.43470001 0.53929996
vt 102.22830200 -39.91378021
vt 101.27050018 -36.03039169
vt 102.22830200 -36.03039169
vt 101.27050018 -39.91378021
vt 0.44299999 0.53929996
vt 0.43470001 0.50900000
vt 0.44299999 0.50900000
vt 0.43470001 0.53929996
vt 0.47139999 0.51820004
vt 0.45884931 0.52338076
vt 0.46619999 0.52340001
vt 0.45364931 0.51815367
vt 0.47139999 0.51082706
vt 0.45364931 0.51078081
vt 0.46619999 0.50559998
vt 0.45884931 0.50558078
vt 0.46480000 0.47350001
vt 0.47220001 0.44650000
vt 0.46480000 0.44650000
vt 0.47220001 0.47350001
vt 0.45739999 0.47350001
vt 0.46480000 0.44650000
vt 0.45739999 0.44650000
vt 0.46480000 0.47350001
vt 0.44990000 0.47350001
vt 0.45739999 0.44650000
vt 0.44990000 0.44650000
vt 0.45739999 0.47350001
vt 0.44990000 0.44650000
vt 0.44360000 0.47350001
vt 0.44990000 0.47350001
vt 0.44360000 0.44650000
vt 0.44360000 0.44650000
vt 0.45739999 0.47350001
vt 0.44360000 0.47350001
vt 0.45739999 0.44650000
vt 0.46480000 0.44650000
vt 0.45739999 0.47350001
vt 0.45739999 0.44650000
vt 0.46480000 0.47350001
vt 0.47860000 0.44590002
vt 0.46480000 0.47350001
vt 0.46480000 0.44650000
vt 0.47860000 0.47289997
vt 0.47860000 0.44590002
vt 0.47220001 0.47409999
vt 0.47860000 0.47350001
vt 0.47220001 0.44650000
vt 0.47139999 0.51820004
vt 0.45884931 0.52338076
vt 0.46619999 0.52340001
vt 0.45364931 0.51815367
vt 0.47139999 0.51082706
vt 0.45364931 0.51078081
vt 0.46619999 0.50559998
vt 0.45884931 0.50558078
vt 0.46480000 0.47350001
vt 0.47220001 0.44650000
vt 0.46480000 0.44650000
vt 0.47220001 0.47350001
vt 0.45739999 0.47350001
vt 0.46480000 0.44650000
vt 0.45739999 0.44650000
vt 0.46480000 0.47350001
vt 0.44990000 0.47350001
vt 0.45739999 0.44650000
vt 0.44990000 0.44650000
vt 0.45739999 0.47350001
vt 0.44990000 0.44650000
vt 0.44360000 0.47350001
vt 0.44990000 0.47350001
vt 0.44360000 0.44650000
vt 0.44360000 0.44650000
vt 0.45739999 0.47350001
vt 0.44360000 0.47350001
vt 0.45739999 0.44650000
vt 0.46480000 0.44650000
vt 0.45739999 0.47350001
vt 0.45739999 0.44650000
vt 0.46480000 0.47350001
vt 0.47860000 0.44590002
vt 0.46480000 0.47350001
vt 0.46480000 0.44650000
vt 0.47860000 0.47289997
vt 0.47860000 0.44590002
vt 0.47220001 0.47409999
vt 0.47860000 0.47350001
vt 0.47220001 0.44650000
vt 0.43640000 0.80190003
vt 0.44470000 0.81410003
vt 0.43250000 0.80190003
vt 0.44470111 0.81020111
vt 0.44470000 0.79359996
vt 0.43640000 0.80190003
vt 0.43250000 0.80190003
vt 0.43640000 0.80190003
vt 0.45300001 0.80190003
vt 0.44470000 0.81019998
vt 0.44470000 0.79359996
vt 0.45690000 0.80190003
vt 0.44470000 0.81410003
vt 0.44470000 0.81019998
vt 0.45690000 0.80190003
vt 0.43250400 0.80190438
vt 0.44470000 0.81410003
vt 0.44470000 0.78970003
vt 0.44470000 0.79359996
vt 0.43250000 0.80190003
vt 0.44470000 0.78970003
vt 0.45300001 0.80190003
vt 0.44470000 0.79359996
vt 0.44470000 0.78970003
vt 0.45690000 0.80190003
vt 0.44470000 0.81019998
vt 0.45300001 0.80190003
vt 0.45300001 0.80190003
vt 0.44470000 0.78970003
vt 0.45690000 0.80190003
vt 0.43640000 0.80190003
vt 0.44470000 0.81410003
vt 0.43250000 0.80190003
vt 0.44470111 0.81020111
vt 0.44470000 0.79359996
vt 0.43640000 0.80190003
vt 0.43250000 0.80190003
vt 0.43640000 0.80190003
vt 0.45300001 0.80190003
vt 0.44470000 0.81019998
vt 0.44470000 0.79359996
vt 0.45690000 0.80190003
vt 0.44470000 0.81410003
vt 0.44470000 0.81019998
vt 0.45690000 0.80190003
vt 0.43250400 0.80190438
vt 0.44470000 0.81410003
vt 0.44470000 0.78970003
vt 0.44470000 0.79359996
vt 0.43250000 0.80190003
vt 0.44470000 0.78970003
vt 0.45300001 0.80190003
vt 0.44470000 0.79359996
vt 0.44470000 0.78970003
vt 0.45690000 0.80190003
vt 0.44470000 0.81019998
vt 0.45300001 0.80190003
vt 0.45300001 0.80190003
vt 0.44470000 0.78970003
vt 0.45690000 0.80190003
vt 0.17940000 0.48850000
vt 0.17059989 0.95109999
vt 0.17940000 0.95109999
vt 0.17059989 0.48850000
vt 0.18539999 0.48850000
vt 0.17940000 0.95109999
vt 0.18539999 0.95109999
vt 0.17940000 0.48850000
vt 0.19069991 0.95109999
vt 0.18539999 0.48850000
vt 0.18539999 0.95109999
vt 0.19069991 0.48850000
vt 0.18539999 0.95109999
vt 0.19069991 0.48850000
vt 0.19069991 0.95109999
vt 0.18539999 0.48850000
vt 0.17940000 0.48850000
vt 0.17059989 0.95109999
vt 0.17940000 0.95109999
vt 0.17059989 0.48850000
vt 0.18539999 0.48850000
vt 0.17940000 0.95109999
vt 0.18539999 0.95109999
vt 0.17940000 0.48850000
vt 0.19069991 0.95109999
vt 0.18539999 0.48850000
vt 0.18539999 0.95109999
vt 0.19069991 0.48850000
vt 0.18539999 0.95109999
vt 0.19069991 0.48850000
vt 0.19069991 0.95109999
vt 0.18539999 0.48850000
vt 0.06879997 0.98040003
vt 0.06419998 0.05339998
vt 0.06419998 0.98040003
vt 0.06879997 0.05339998
vt 0.06879997 0.05339998
vt 0.07370001 0.98040003
vt 0.07370001 0.05339998
vt 0.06879997 0.98040003
vt 0.07370001 0.05339998
vt 0.07859998 0.98040003
vt 0.07859998 0.05339998
vt 0.07370001 0.98040003
vt 0.08319997 0.05369997
vt 0.07859998 0.98040003
vt 0.08319997 0.98070002
vt 0.07859998 0.05339998
vt 0.06879997 0.98040003
vt 0.06419998 0.05339998
vt 0.06419998 0.98040003
vt 0.06879997 0.05339998
vt 0.06879997 0.05339998
vt 0.07370001 0.98040003
vt 0.07370001 0.05339998
vt 0.06879997 0.98040003
vt 0.07370001 0.05339998
vt 0.07859998 0.98040003
vt 0.07859998 0.05339998
vt 0.07370001 0.98040003
vt 0.08319997 0.05369997
vt 0.07859998 0.98040003
vt 0.08319997 0.98070002
vt 0.07859998 0.05339998
vt 0.11030000 0.96109998
vt 0.10510000 0.03410000
vt 0.10510000 0.96109998
vt 0.11030000 0.03410000
vt 0.11030000 0.03410000
vt 0.11520000 0.96109998
vt 0.11520000 0.03410000
vt 0.11030000 0.96109998
vt 0.11520000 0.03410000
vt 0.12010000 0.96109998
vt 0.12010000 0.03410000
vt 0.11520000 0.96109998
vt 0.12530001 0.03410000
vt 0.12010000 0.96109998
vt 0.12530001 0.96109998
vt 0.12010000 0.03410000
vt 0.11030000 0.96109998
vt 0.10510000 0.03410000
vt 0.10510000 0.96109998
vt 0.11030000 0.03410000
vt 0.11030000 0.03410000
vt 0.11520000 0.96109998
vt 0.11520000 0.03410000
vt 0.11030000 0.96109998
vt 0.11520000 0.03410000
vt 0.12010000 0.96109998
vt 0.12010000 0.03410000
vt 0.11520000 0.96109998
vt 0.12530001 0.03410000
vt 0.12010000 0.96109998
vt 0.12530001 0.96109998
vt 0.12010000 0.03410000
vt 0.05099999 0.52240002
vt 0.05779999 0.98490000
vt 0.05779999 0.52240002
vt 0.05099999 0.98490000
vt 0.06379997 0.52240002
vt 0.05779999 0.98490000
vt 0.06379997 0.98490000
vt 0.05779999 0.52240002
vt 0.06989997 0.52240002
vt 0.06379997 0.98490000
vt 0.06989997 0.98490000
vt 0.06379997 0.52240002
vt 0.07669997 0.98490000
vt 0.06989997 0.52240002
vt 0.06989997 0.98490000
vt 0.07669997 0.52240002
vt 0.05099999 0.52240002
vt 0.05779999 0.98490000
vt 0.05779999 0.52240002
vt 0.05099999 0.98490000
vt 0.06379997 0.52240002
vt 0.05779999 0.98490000
vt 0.06379997 0.98490000
vt 0.05779999 0.52240002
vt 0.06989997 0.52240002
vt 0.06379997 0.98490000
vt 0.06989997 0.98490000
vt 0.06379997 0.52240002
vt 0.07669997 0.98490000
vt 0.06989997 0.52240002
vt 0.06989997 0.98490000
vt 0.07669997 0.52240002
vt 101.89640045 370.69290161
vt 102.43849945 372.00119019
vt 102.43849945 371.23471069
vt 101.89640045 372.54299927
vt 101.12989807 370.69290161
vt 101.12989807 372.54299927
vt 100.58809662 371.23471069
vt 100.58809662 372.00119019
vt 0.57910001 0.99610001
vt 0.58480000 0.69949996
vt 0.57910001 0.69949996
vt 0.58480000 0.99610001
vt 0.57309997 0.99610001
vt 0.57910001 0.69949996
vt 0.57309997 0.69949996
vt 0.57910001 0.99610001
vt 0.56739998 0.99610001
vt 0.57309997 0.69949996
vt 0.56739998 0.69949996
vt 0.57309997 0.99610001
vt 0.56739998 0.69949996
vt 0.56120002 0.99609846
vt 0.56739998 0.99610001
vt 0.56120002 0.69949996
vt 0.57309997 0.69949996
vt 0.57309997 0.99610001
vt 0.56120002 0.99610001
vt 0.57910001 0.69949996
vt 0.57309997 0.99610001
vt 0.57309997 0.69949996
vt 0.57910001 0.99610001
vt 0.59100002 0.69949996
vt 0.59100002 0.99610001
vt 0.57910001 0.99610001
vt 0.59100002 0.99610001
vt 0.58480000 0.69949996
vt 0.58480000 0.99610001
vt 0.59100002 0.69950163
vt 0.57309997 0.69949996
vt 0.56120002 0.99610001
vt 0.56120002 0.69949996
vt 0.59100002 0.69949996
vt 0.57910001 0.99610001
vt 0.57910001 0.69949996
vt 101.89640045 370.69290161
vt 102.43849945 372.00119019
vt 102.43849945 371.23471069
vt 101.89640045 372.54299927
vt 101.12989807 370.69290161
vt 101.12989807 372.54299927
vt 100.58809662 371.23471069
vt 100.58809662 372.00119019
vt 0.57910001 0.99610001
vt 0.58480000 0.69949996
vt 0.57910001 0.69949996
vt 0.58480000 0.99610001
vt 0.57309997 0.99610001
vt 0.57910001 0.69949996
vt 0.57309997 0.69949996
vt 0.57910001 0.99610001
vt 0.56739998 0.99610001
vt 0.57309997 0.69949996
vt 0.56739998 0.69949996
vt 0.57309997 0.99610001
vt 0.56739998 0.69949996
vt 0.56120002 0.99609846
vt 0.56739998 0.99610001
vt 0.56120002 0.69949996
vt 0.57309997 0.69949996
vt 0.57309997 0.99610001
vt 0.56120002 0.99610001
vt 0.57910001 0.69949996
vt 0.57309997 0.99610001
vt 0.57309997 0.69949996
vt 0.57910001 0.99610001
vt 0.59100002 0.69949996
vt 0.59100002 0.99610001
vt 0.57910001 0.99610001
vt 0.59100002 0.99610001
vt 0.58480000 0.69949996
vt 0.58480000 0.99610001
vt 0.59100002 0.69950163
vt 0.57309997 0.69949996
vt 0.56120002 0.99610001
vt 0.56120002 0.69949996
vt 0.59100002 0.69949996
vt 0.57910001 0.99610001
vt 0.57910001 0.69949996
vt 0.45087069 0.58862931
vt 0.44560000 0.57599998
vt 0.44560000 0.58340001
vt 0.45087069 0.57077074
vt 0.46360001 0.57599998
vt 0.45832929 0.57077074
vt 0.46390000 0.53960001
vt 0.45249999 0.50940001
vt 0.45249999 0.53960001
vt 0.46390000 0.50940001
vt 0.45249999 0.50929999
vt 0.44299999 0.53929996
vt 0.45249999 0.53960001
vt 0.44299999 0.50900000
vt 0.44299999 0.50900000
vt 0.43470001 0.53929996
vt 0.44299999 0.53929996
vt 0.43470001 0.50900000
vt 251.18780518 -39.91373825
vt 252.14610291 -36.03034973
vt 252.14610291 -39.91373825
vt 251.18780518 -36.03034973
vt 0.43470001 0.50900000
vt 0.44299999 0.53929996
vt 0.43470001 0.53929996
vt 0.44299999 0.50900000
vt 0.45087069 0.58862931
vt 0.44560000 0.57599998
vt 0.44560000 0.58340001
vt 0.45087069 0.57077074
vt 0.46360001 0.57599998
vt 0.45832929 0.57077074
vt 0.46390000 0.53960001
vt 0.45249999 0.50940001
vt 0.45249999 0.53960001
vt 0.46390000 0.50940001
vt 0.45249999 0.50929999
vt 0.44299999 0.53929996
vt 0.45249999 0.53960001
vt 0.44299999 0.50900000
vt 0.44299999 0.50900000
vt 0.43470001 0.53929996
vt 0.44299999 0.53929996
vt 0.43470001 0.50900000
vt 251.18780518 -39.91373825
vt 252.14610291 -36.03034973
vt 252.14610291 -39.91373825
vt 251.18780518 -36.03034973
vt 0.43470001 0.50900000
vt 0.44299999 0.53929996
vt 0.43470001 0.53929996
vt 0.44299999 0.50900000
vt 0.45594040 0.56818110
vt 0.44569999 0.57239997
vt 0.45170000 0.57239997
vt 0.44145960 0.56818110
vt 0.45594040 0.56221581
vt 0.44145960 0.56221581
vt 0.45170000 0.55799997
vt 0.44569999 0.55799997
vt 0.62419999 0.99820000
vt 0.62840003 0.70159996
vt 0.62419999 0.70159996
vt 0.62840003 0.99820000
vt 0.61830002 0.99820000
vt 0.62419999 0.70159996
vt 0.61830002 0.70159996
vt 0.62419999 0.99820000
vt 0.61400002 0.99820000
vt 0.61830002 0.70159996
vt 0.61400002 0.70159996
vt 0.61830002 0.99820000
vt 0.61400002 0.70159996
vt 0.60939997 0.99820000
vt 0.61400002 0.99820000
vt 0.60939997 0.70159996
vt 0.60939997 0.70159996
vt 0.61830002 0.99820000
vt 0.60939997 0.99820000
vt 0.61830002 0.70159996
vt 0.62419999 0.70159996
vt 0.61830002 0.99820000
vt 0.61830002 0.70159996
vt 0.62419999 0.99820000
vt 0.62419999 0.70159996
vt 0.63300002 0.99820000
vt 0.62419999 0.99820000
vt 0.63300002 0.70159996
vt 0.63300002 0.70159996
vt 0.62840003 0.99820000
vt 0.63300002 0.99820000
vt 0.62840003 0.70159996
vt 0.45594040 0.56818110
vt 0.44569999 0.57239997
vt 0.45170000 0.57239997
vt 0.44145960 0.56818110
vt 0.45594040 0.56221581
vt 0.44145960 0.56221581
vt 0.45170000 0.55799997
vt 0.44569999 0.55799997
vt 0.62419999 0.99820000
vt 0.62840003 0.70159996
f 1/1 2/2 3/3
f 2/2 1/1 4/4
f 4/4 1/1 5/5
f 4/4 5/5 6/6
f 6/6 5/5 7/7
f 6/6 7/7 8/8
f 9/9 10/10 11/11
f 10/10 9/9 12/12
f 13/13 14/14 15/15
f 14/14 13/13 16/16
f 17/17 18/18 19/19
f 18/18 17/17 20/20
f 21/21 22/22 23/23
f 22/22 21/21 24/24
f 25/25 26/26 27/27
f 26/26 25/25 28/28
f 29/29 30/30 31/31
f 30/30 29/29 32/32
f 33/33 34/34 35/35
f 34/34 33/33 36/36
f 37/37 38/38 39/39
f 38/38 37/37 40/40
f 41/41 42/42 43/43
f 42/42 41/41 44/44
f 45/45 46/46 47/47
f 46/46 45/45 48/48
f 49/49 50/50 51/51
f 50/50 49/49 52/52
f 52/52 49/49 53/53
f 52/52 53/53 54/54
f 54/54 53/53 55/55
f 54/54 55/55 56/56
f 57/57 58/58 59/59
f 58/58 57/57 60/60
f 61/61 62/62 63/63
f 62/62 61/61 64/64
f 65/65 66/66 67/67
f 66/66 65/65 68/68
f 69/69 70/70 71/71
f 70/70 69/69 72/72
f 73/73 74/74 75/75
f 74/74 73/73 76/76
f 77/77 78/78 79/79
f 78/78 77/77 80/80
f 81/81 82/82 83/83
f 82/82 81/81 84/84
f 84/84 81/81 85/85
f 84/84 85/85 86/86
f 87/87 88/88 89/89
f 88/88 87/87 90/90
f 91/91 92/92 93/93
f 92/92 91/91 94/94
f 95/95 96/96 97/97
f 96/96 95/95 98/98
f 99/99 100/100 101/101
f 100/100 99/99 102/102
f 103/103 104/104 105/105
f 104/104 103/103 106/106
f 107/107 108/108 109/109
f 108/108 107/107 110/110
f 110/110 107/107 111/111
f 110/110 111/111 112/112
f 112/112 111/111 113/113
f 112/112 113/113 114/114
f 115/115 116/116 117/117
f 116/116 115/115 118/118
f 119/119 120/120 121/121
f 120/120 119/119 122/122
f 123/123 124/124 125/125
f 124/124 123/123 126/126
f 127/127 128/128 129/129
f 128/128 127/127 130/130
f 131/131 132/132 133/133
f 132/132 131/131 134/134
f 135/135 136/136 137/137
f 136/136 135/135 138/138
f 139/139 140/140 141/141
f 140/140 139/139 142/142
f 143/143 144/144 145/145
f 144/144 143/143 146/146
f 147/147 148/148 149/149
f 148/148 147/147 150/150
f 151/151 152/152 153/153
f 152/152 151/151 154/154
f 152/152 154/154 155/155
f 152/152 155/155 156/156
f 157/157 158/158 159/159
f 158/158 157/157 160/160
f 161/161 162/162 163/163
f 162/162 161/161 164/164
f 165/165 166/166 167/167
f 166/166 165/165 168/168
f 169/169 170/170 171/171
f 170/170 169/169 172/172
f 173/173 174/174 175/175
f 174/174 173/173 176/176
f 177/177 178/178 179/179
f 178/178 177/177 180/180
f 181/181 182/182 183/183
f 182/182 181/181 184/184
f 185/185 186/186 187/187
f 186/186 185/185 188/188
f 189/189 190/190 191/191
f 190/190 189/189 192/192
f 193/193 194/194 195/195
f 194/194 193/193 196/196
f 197/197 198/198 199/199
f 198/198 197/197 200/200
f 201/201 202/202 203/203
f 202/202 201/201 204/204
f 205/205 206/206 207/207
f 206/206 205/205 208/208
f 209/209 210/210 211/211
f 210/210 209/209 212/212
f 213/213 214/214 215/215
f 214/214 213/213 216/216
f 217/217 218/218 219/219
f 218/218 217/217 220/220
f 221/221 222/222 223/223
f 222/222 221/221 224/224
f 225/225 226/226 227/227
f 226/226 225/225 228/228
f 229/229 230/230 231/231
f 230/230 229/229 232/232
f 233/233 234/234 235/235
f 234/234 233/233 236/236
f 237/237 238/238 239/239
f 238/238 237/237 240/240
f 241/241 242/242 243/243
f 242/242 241/241 244/244
f 245/245 246/246 247/247
f 246/246 245/245 248/248
f 249/249 250/250 251/251
f 250/250 249/249 252/252
f 253/253 254/254 255/255
f 254/254 253/253 256/256
f 257/257 258/258 259/259
f 258/258 257/257 260/260
f 261/261 262/262 263/263
f 262/262 261/261 264/264
f 265/265 266/266 267/267
f 266/266 265/265 268/268
f 269/269 270/270 271/271
f 270/270 269/269 272/272
f 273/273 274/274 275/275
f 274/274 273/273 276/276
f 277/277 278/278 279/279
f 278/278 277/277 280/280
f 280/280 277/277 281/281
f 280/280 281/281 282/282
f 282/282 281/281 283/283
f 282/282 283/283 284/284
f 285/285 286/286 287/287
f 286/286 285/285 288/288
f 289/289 290/290 291/291
f 290/290 289/289 292/292
f 293/293 294/294 295/295
f 294/294 293/293 296/296
f 297/297 298/298 299/299
f 298/298 297/297 300/300
f 301/301 302/302 303/303
f 302/302 301/301 304/304
f 305/305 306/306 307/307
f 306/306 305/305 308/308
f 309/309 310/310 311/311
f 310/310 309/309 312/312
f 313/313 314/314 315/315
f 314/314 313/313 316/316
f 316/316 313/313 317/317
f 316/316 317/317 318/318
f 318/318 317/317 319/319
f 318/318 319/319 320/320
f 321/321 322/322 323/323
f 322/322 321/321 324/324
f 325/325 326/326 327/327
f 326/326 325/325 328/328
f 329/329 330/330 331/331
f 330/330 329/329 332/332
f 333/333 334/334 335/335
f 334/334 333/333 336/336
f 337/337 338/338 339/339
f 338/338 337/337 340/340
f 341/341 342/342 343/343
f 342/342 341/341 344/344
f 345/345 346/346 347/347
f 346/346 345/345 348/348
f 349/349 350/350 351/351
f 350/350 349/349 352/352
f 352/352 349/349 353/353
f 352/352 353/353 354/354
f 355/355 356/356 357/357
f 356/356 355/355 358/358
f 359/359 360/360 361/361
f 360/360 359/359 362/362
f 363/363 364/364 365/365
f 364/364 363/363 366/366
f 367/367 368/368 369/369
f 368/368 367/367 370/370
f 371/371 372/372 373/373
f 372/372 371/371 374/374
f 375/375 376/376 377/377
f 376/376 375/375 378/378
f 378/378 375/375 379/379
f 378/378 379/379 380/380
f 380/380 379/379 381/381
f 380/380 381/381 382/382
f 383/383 384/384 385/385
f 384/384 383/383 386/386
f 387/387 388/388 389/389
f 388/388 387/387 390/390
f 391/391 392/392 393/393
f 392/392 391/391 394/394
f 395/395 396/396 397/397
f 396/396 395/395 398/398
f 399/399 400/400 401/401
f 400/400 399/399 402/402
f 403/403 404/404 405/405
f 404/404 403/403 406/406
f 407/407 408/408 409/409
f 408/408 407/407 410/410
f 411/411 412/412 413/413
f 412/412 411/411 414/414
f 415/415 416/416 417/417
f 416/416 415/415 418/418
f 419/419 420/420 421/421
f 422/422 423/423 424/424
f 423/423 422/422 425/425
f 426/426 427/427 428/428
f 429/429 430/430 431/431
f 430/430 429/429 432/432
f 433/433 434/434 435/435
f 436/436 437/437 438/438
f 439/439 440/440 441/441
f 442/442 443/443 444/444
f 445/445 446/446 447/447
f 446/446 445/445 448/448
f 449/449 450/450 451/451
f 450/450 449/449 452/452
f 453/453 454/454 455/455
f 454/454 453/453 456/456
f 457/457 458/458 459/459
f 458/458 457/457 460/460
f 461/461 462/462 463/463
f 462/462 461/461 464/464
f 465/465 466/466 467/467
f 466/466 465/465 468/468
f 469/469 470/470 471/471
f 470/470 469/469 472/472
f 473/473 474/474 475/475
f 474/474 473/473 476/476
f 477/477 478/478 479/479
f 478/478 477/477 480/480
f 481/481 482/482 483/483
f 482/482 481/481 484/484
f 485/485 486/486 487/487
f 486/486 485/485 488/488
f 489/489 490/490 491/491
f 490/490 489/489 492/492
f 493/493 494/494 495/495
f 494/494 493/493 496/496
f 497/497 498/498 499/499
f 498/498 497/497 500/500
f 501/501 502/502 503/503
f 502/502 501/501 504/504
f 505/505 506/506 507/507
f 506/506 505/505 508/508
f 509/509 510/510 511/511
f 510/510 509/509 512/512
f 512/512 509/509 513/513
f 512/512 513/513 514/514
f 514/514 513/513 515/515
f 514/514 515/515 516/516
f 517/517 518/518 519/519
f 518/518 517/517 520/520
f 521/521 522/522 523/523
f 522/522 521/521 524/524
f 525/525 526/526 527/527
f 526/526 525/525 528/528
f 529/529 530/530 531/531
f 530/530 529/529 532/532
f 533/533 534/534 535/535
f 536/536 537/537 538/538
f 537/537 536/536 539/539
f 540/540 541/541 542/542
f 543/543 544/544 545/545
f 544/544 543/543 546/546
f 547/547 548/548 549/549
f 550/550 551/551 552/552
f 553/553 554/554 555/555
f 554/554 553/553 556/556
f 556/556 553/553 557/557
f 556/556 557/557 558/558
f 559/559 560/560 561/561
f 560/560 559/559 562/562
f 563/563 564/564 565/565
f 564/564 563/563 566/566
f 567/567 568/568 569/569
f 568/568 567/567 570/570
f 571/571 572/572 573/573
f 572/572 571/571 574/574
f 575/575 576/576 577/577
f 576/576 575/575 578/578
f 579/579 580/580 581/581
f 580/580 579/579 582/582
f 582/582 579/579 583/583
f 582/582 583/583 584/584
f 584/584 583/583 585/585
f 584/584 585/585 586/586
f 587/587 588/588 589/589
f 588/588 587/587 590/590
f 591/591 592/592 593/593
f 592/592 591/591 594/594
f 595/595 596/596 597/597
f 596/596 595/595 598/598
f 599/599 600/600 601/601
f 600/600 599/599 602/602
f 603/603 604/604 605/605
f 604/604 603/603 606/606
f 607/607 608/608 609/609
f 608/608 607/607 610/610
f 611/611 612/612 613/613
f 612/612 611/611 614/614
f 615/615 616/616 617/617
f 616/616 615/615 618/618
f 619/619 620/620 621/621
f 622/622 623/623 624/624
f 625/625 626/626 627/627
f 626/626 625/625 628/628
f 629/629 630/630 631/631
f 630/630 629/629 632/632
f 633/633 634/634 635/635
f 636/636 637/637 638/638
f 637/637 636/636 639/639
f 640/640 641/641 642/642
f 641/641 640/640 643/643
f 644/644 645/645 646/646
f 647/647 649/649 651/651
f 652/652 654/654 656/656
f 648/648 657/657 650/650
f 658/658 659/659 660/660
f 659/659 658/658 661/661
f 653/653 662/662 655/655
f 662/662 653/653 663/663
f 664/664 665/665 668/668
f 670/670 671/671 672/672
f 673/673 675/675 677/677
f 680/680 681/681 682/682
f 681/681 680/680 683/683
f 684/684 685/685 686/686
f 685/685 684/684 687/687
f 687/687 684/684 688/688
f 689/689 690/690 691/691
f 692/692 693/693 694/694
f 693/693 692/692 695/695
f 666/666 696/696 669/669
f 678/678 676/676 698/698
f 699/699 700/700 702/702
f 705/705 674/674 679/679
f 706/706 707/707 708/708
f 707/707 706/706 709/709
f 710/710 711/711 712/712
f 711/711 710/710 713/713
f 713/713 710/710 714/714
f 715/715 716/716 717/717
f 716/716 715/715 718/718
f 719/719 720/720 721/721
f 720/720 719/719 722/722
f 722/722 719/719 723/723
f 724/724 725/725 726/726
f 725/725 724/724 727/727
f 667/667 728/728 697/697
f 729/729 732/732 733/733
f 701/701 735/735 703/703
f 737/737 730/730 738/738
f 740/740 741/741 742/742
f 741/741 740/740 743/743
f 744/744 745/745 746/746
f 745/745 744/744 747/747
f 748/748 749/749 750/750
f 749/749 748/748 751/751
f 752/752 753/753 754/754
f 753/753 752/752 755/755
f 756/756 757/757 758/758
f 757/757 756/756 759/759
f 760/760 761/761 762/762
f 763/763 764/764 765/765
f 764/764 763/763 766/766
f 739/739 731/731 734/734
f 736/736 767/767 704/704
f 768/768 769/769 770/770
f 771/771 772/772 773/773
f 772/772 771/771 774/774
f 775/775 777/777 778/778
f 776/776 779/779 780/780
f 781/781 782/782 783/783
f 782/782 781/781 784/784
f 785/785 786/786 787/787
f 788/788 789/789 790/790
f 789/789 788/788 791/791
f 791/791 788/788 786/786
f 791/791 786/786 785/785
f 789/789 792/792 790/790
f 792/792 789/789 793/793
f 792/792 793/793 794/794
f 794/794 793/793 795/795
f 795/795 793/793 796/796
f 797/797 798/798 799/799
f 798/798 797/797 800/800
f 801/801 802/802 803/803
f 804/804 805/805 806/806
f 805/805 804/804 807/807
f 807/807 804/804 802/802
f 807/807 802/802 801/801
f 805/805 808/808 806/806
f 808/808 805/805 809/809
f 808/808 809/809 810/810
f 810/810 809/809 811/811
f 811/811 809/809 812/812
f 813/813 814/814 815/815
f 814/814 813/813 816/816
f 817/817 818/818 819/819
f 818/818 817/817 820/820
f 821/821 822/822 823/823
f 822/822 821/821 824/824
f 825/825 826/826 827/827
f 826/826 825/825 828/828
f 829/829 830/830 831/831
f 830/830 829/829 832/832
f 833/833 834/834 835/835
f 834/834 833/833 836/836
f 837/837 838/838 839/839
f 838/838 837/837 840/840
f 841/841 842/842 843/843
f 844/844 845/845 846/846
f 845/845 844/844 847/847
f 845/845 847/847 848/848
f 848/848 847/847 849/849
f 848/848 849/849 850/850
f 851/851 843/843 842/842
f 843/843 851/851 848/848
f 843/843 848/848 852/852
f 852/852 848/848 850/850
f 853/853 854/854 855/855
f 854/854 853/853 856/856
f 857/857 858/858 859/859
f 858/858 857/857 860/860
f 858/858 860/860 861/861
f 861/861 860/860 862/862
f 861/861 862/862 863/863
f 864/864 865/865 866/866
f 865/865 864/864 861/861
f 865/865 861/861 867/867
f 867/867 861/861 863/863
f 868/868 866/866 865/865
f 869/869 870/870 871/871
f 870/870 869/869 872/872
f 873/873 874/874 875/875
f 874/874 873/873 876/876
f 877/877 878/878 879/879
f 878/878 877/877 880/880
f 881/881 882/882 883/883
f 882/882 881/881 884/884
f 885/885 886/886 887/887
f 886/886 885/885 888/888
f 889/889 890/890 891/891
f 890/890 889/889 892/892
f 893/893 894/894 895/895
f 894/894 893/893 896/896
f 894/894 896/896 897/897
f 897/897 896/896 898/898
f 897/897 898/898 899/899
f 899/899 898/898 900/900
f 901/901 902/902 903/903
f 902/902 901/901 904/904
f 905/905 906/906 907/907
f 906/906 905/905 908/908
f 909/909 910/910 911/911
f 910/910 909/909 912/912
f 913/913 914/914 915/915
f 914/914 913/913 916/916
f 917/917 918/918 919/919
f 918/918 917/917 920/920
f 921/921 922/922 923/923
f 922/922 921/921 924/924
f 925/925 926/926 927/927
f 926/926 925/925 928/928
f 929/929 930/930 931/931
f 930/930 929/929 932/932
f 933/933 934/934 935/935
f 934/934 933/933 936/936
f 937/937 938/938 939/939
f 938/938 937/937 940/940
f 941/941 942/942 943/943
f 942/942 941/941 944/944
f 945/945 946/946 947/947
f 946/946 945/945 948/948
f 949/949 950/950 951/951
f 950/950 949/949 952/952
f 953/953 954/954 955/955
f 954/954 953/953 956/956
f 956/956 953/953 957/957
f 957/957 958/958 956/956
f 958/958 957/957 959/959
f 958/958 959/959 960/960
f 958/958 960/960 961/961
f 958/958 961/961 962/962
f 963/963 964/964 965/965
f 964/964 963/963 966/966
f 967/967 968/968 969/969
f 968/968 967/967 970/970
f 971/971 972/972 973/973
f 972/972 971/971 974/974
f 975/975 976/976 977/977
f 976/976 975/975 978/978
f 979/979 980/980 981/981
f 980/980 979/979 982/982
f 983/983 984/984 985/985
f 984/984 983/983 986/986
f 987/987 988/988 989/989
f 988/988 987/987 990/990
f 991/991 992/992 993/993
f 992/992 991/991 994/994
f 995/995 996/996 997/997
f 996/996 995/995 998/998
f 999/999 1000/1000 1001/1001
f 1000/1000 999/999 1002/1002
f 1003/1003 1004/1004 1005/1005
f 1004/1004 1003/1003 1006/1006
f 1007/1007 1008/1008 1009/1009
f 1008/1008 1007/1007 1010/1010
f 1011/1011 1012/1012 1013/1013
f 1012/1012 1011/1011 1014/1014
f 1015/1015 1016/1016 1017/1017
f 1016/1016 1015/1015 1018/1018
f 1019/1019 1020/1020 1021/1021
f 1020/1020 1019/1019 1022/1022
f 1023/1023 1024/1024 1025/1025
f 1024/1024 1023/1023 1026/1026
f 1027/1027 1028/1028 1029/1029
f 1028/1028 1027/1027 1030/1030
f 1031/1031 1032/1032 1033/1033
f 1032/1032 1031/1031 1034/1034
f 1035/1035 1036/1036 1037/1037
f 1038/1038 1039/1039 1040/1040
f 1041/1041 1042/1042 1043/1043
f 1042/1042 1041/1041 1044/1044
f 1045/1045 1046/1046 1047/1047
f 1046/1046 1045/1045 1048/1048
f 1049/1049 1050/1050 1051/1051
f 1052/1052 1053/1053 1054/1054
f 1053/1053 1052/1052 1055/1055
f 1056/1056 1057/1057 1058/1058
f 1057/1057 1056/1056 1059/1059
f 1060/1060 1061/1061 1062/1062
f 1063/1063 1064/1064 1065/1065
f 1064/1064 1063/1063 1066/1066
f 1067/1067 1068/1068 1069/1069
f 1068/1068 1067/1067 1070/1070
f 1071/1071 1072/1072 1073/1073
f 1072/1072 1071/1071 1074/1074
f 1075/1075 1076/1076 1077/1077
f 1076/1076 1075/1075 1078/1078
f 1079/1079 1080/1080 1081/1081
f 1080/1080 1079/1079 1082/1082
f 1083/1083 1084/1084 1085/1085
f 1084/1084 1083/1083 1086/1086
f 1087/1087 1088/1088 1089/1089
f 1090/1090 1091/1091 1092/1092
f 1091/1091 1090/1090 1093/1093
f 1094/1094 1095/1095 1096/1096
f 1097/1097 1098/1098 1099/1099
f 1100/1100 1101/1101 1102/1102
f 1101/1101 1100/1100 1103/1103
f 1104/1104 1105/1105 1106/1106
f 1107/1107 1108/1108 1109/1109
f 1108/1108 1107/1107 1110/1110
f 1111/1111 1112/1112 1113/1113
f 1112/1112 1111/1111 1114/1114
f 1115/1115 1116/1116 1117/1117
f 1116/1116 1115/1115 1118/1118
f 1119/1119 1120/1120 1121/1121
f 1122/1122 1123/1123 1124/1124
f 1123/1123 1122/1122 1125/1125
f 1126/1126 1127/1127 1128/1128
f 1129/1129 1130/1130 1131/1131
f 1132/1132 1133/1133 1134/1134
f 1135/1135 1136/1136 1137/1137
f 1138/1138 1139/1139 1140/1140
f 1141/1141 1142/1142 1143/1143
f 1144/1144 1145/1145 1146/1146
f 1145/1145 1144/1144 1147/1147
f 1148/1148 1149/1149 1150/1150
f 1151/1151 1152/1152 1153/1153
f 1152/1152 1151/1151 1154/1154
f 1155/1155 1156/1156 1157/1157
f 1158/1158 1159/1159 1160/1160
f 1161/1161 1162/1162 1163/1163
f 1164/1164 1165/1165 1166/1166

