# https://github.com/mikedh/trimesh
v -0.75791896 -1.45811714 -0.34213106
v -0.36641073 -1.51836108 -0.73364619
v -0.75788702 -1.51832089 -0.73367506
v -0.36644787 -1.45813045 -0.34214730
v 1.82195114 -1.04653745 -0.34218219
v 1.88222380 -1.43805430 -0.73366456
v 1.82202532 -1.43801129 -0.34215190
v 1.88228069 -1.04654955 -0.73364646
vt 12.00000000 -3.00000000
vt 11.00000000 -2.00000000
vt 12.00000000 -2.00000000
vt 11.00000000 -3.00000000
vt -5.00000000 -3.00000000
vt -4.00000000 -2.00000000
vt -4.00000000 -3.00000000
vt -5.00000000 -2.00000000
f 1/1 2/2 3/3
f 2/2 1/1 4/4
f 5/5 6/6 7/7
f 6/6 5/5 8/8

