# https://github.com/mikedh/trimesh
v 3.45889020 -4.00797419 0.34058639
v 3.45833504 -2.23117836 0.34054076
v 3.45853127 -2.15062870 0.34036642
v 3.45811078 -2.15088569 0.34048835
v 3.45793738 -2.23112650 0.34027769
v 3.45874979 -4.00804164 0.34042982
v 3.59832664 -5.92455412 0.34045964
v 3.79985497 -6.12617148 0.03938112
v 3.45846572 -5.78474841 0.03920192
v 3.45816703 -5.78483870 0.03935963
v 3.79946612 -6.12609685 0.03929754
v 3.59834779 -5.92468960 0.34053883
v 3.45821087 -5.78478501 0.03945190
v 3.45856227 -5.78496984 0.34072843
v 3.59847953 -5.92459687 0.34052395
v 3.59820790 -5.92448613 0.34080147
v 3.45861271 -5.78454858 0.34053916
v 3.45812013 -5.78476452 0.03943103
v 3.79942539 -1.14685291 0.03939501
v 3.59835365 -0.94570541 0.34037330
v 3.59817809 -1.14710901 0.34076624
v 3.79955996 -0.37388675 0.03928235
v 3.59966588 -5.86486266 0.34058432
v 3.59849437 -2.23108218 0.34059347
v 3.59842358 -5.92482585 0.34077884
v 3.59919065 -4.00806084 0.34063461
v 3.45832590 -4.76049872 0.34051244
v 3.45821425 -5.78482558 0.34030210
v 3.45866054 -4.08812529 0.34057669
v 3.45908148 -4.00807607 0.34075801
v 3.59819271 -0.94525397 0.34041076
v 3.59812915 -1.14687669 0.34065038
v 3.59888133 -2.15087951 0.34026209
v 3.45808851 -0.37385832 0.34064355
v 3.45829098 -0.94568745 0.34062446
v 3.45810833 0.21822593 0.34058322
v 3.59789104 0.35835466 0.34038640
v 3.59887286 -0.37395297 0.34051466
v 3.59896858 -0.29375364 0.34071413
v 3.79975506 -1.14677949 0.03951530
v 3.59837840 -1.14677944 0.34049396
v 3.79969571 -1.63883268 0.03919873
v 4.29129305 -1.63876828 -0.28285944
v 3.79947258 -0.37411127 0.03936859
v 3.79969493 -1.14670115 0.03932239
v 3.79981161 -0.29340005 0.03951289
v 3.79925403 -0.37373951 0.03938024
v 3.59892433 -0.37387983 0.34054423
v 3.59829202 -0.94557036 0.34017038
v 1.10864673 -5.92485626 0.34065744
v 3.45827061 -5.78475013 0.34034163
v 0.96863958 -5.78476568 0.34023759
v 3.30778602 -5.92533169 0.34028663
v 3.38765196 -5.92523037 0.34043197
v 3.45878289 -5.92476338 0.34077794
v 3.59825113 -5.92471056 0.34023731
v 3.59967633 -5.86492859 0.34065528
v 3.59826708 -5.92457472 0.34054138
v 3.79973170 -6.12608753 0.03908239
v 3.59957511 -4.00826923 0.34044232
v 3.59937327 -4.00812324 0.34058192
v 3.59882220 -2.15085519 0.34056666
v 3.59877699 -2.23086339 0.34053910
v 3.59817189 -1.14723575 0.34026757
v 3.59903284 -2.15079197 0.34043525
v 3.79991003 -2.23130060 0.03922882
v 3.59877764 -0.29353358 0.34037300
v 3.59875459 -0.37420327 0.34060095
v 3.79977304 -0.37401854 0.03935140
v 3.59804773 0.35821422 0.34070709
v 3.59887719 -0.29325144 0.34035276
v 3.79973608 -0.37397258 0.03941726
v 3.45831669 0.21825079 0.34033960
v 2.37463994 0.29863698 0.34015156
v 2.29374395 0.21845359 0.34039976
v 2.43397020 0.35842397 0.34045666
v 3.30765954 0.35871751 0.34036704
v 3.59801820 0.35848854 0.34074191
v 3.45811230 -0.94570501 0.34019217
v 3.45816990 0.21783427 0.03913773
v 3.45853011 -2.15084026 0.34062144
v 3.45823785 -0.37365245 0.34051419
v 3.45825536 0.21876034 0.34042849
v 3.45866977 -4.00791953 0.34047523
v 3.45849238 -0.94566245 0.34061328
v 3.45845742 -2.15089296 0.34050830
v 3.45873368 -4.08784456 0.34036635
v 3.45824373 -1.63898500 -0.31208696
v 3.45831691 -4.76070077 -0.31213022
v 3.45883923 -4.00818439 0.34034618
v 3.45932062 -4.08805805 0.34035371
v 3.45809900 -4.76098607 -0.31203387
v 3.45832355 -4.76094823 0.34027104
v 3.45855064 -4.76075250 0.34042029
v 3.45828176 -5.78485045 0.03884311
v 3.45833680 -5.78493899 0.34031658
v 3.45821309 -5.78464395 -0.31222187
v 3.45808315 -4.76072170 -0.31190686
v 3.79948418 -2.15069165 0.03927694
v 4.29157519 -1.63901693 -0.28263010
v 3.79983314 -1.14681331 0.03941604
v 3.79931186 -1.63876793 0.03932050
v 3.79961705 -0.29373273 0.03933373
v 3.79970856 -0.37398375 0.03924884
v 3.79982772 0.55947473 0.03949325
v 4.29211146 -0.37407221 -0.28141188
v 3.79949056 -0.29351906 0.03938160
v 4.29143476 -1.63899096 -0.28271702
v 0.96887982 -5.78478242 0.34054913
v 3.45825633 -5.78475274 -0.31207798
v 0.96877126 -5.78501087 -0.31192489
v 3.45828024 -5.78470511 0.03926790
v 3.45837030 -5.78493932 0.34067528
v 1.10837600 -7.60131143 0.34051924
v 0.96896742 -6.98936427 0.34044010
v 0.96848993 -7.46125201 0.34047742
v 1.10894121 -5.92462292 0.34023043
v 0.96905483 -5.78482844 0.34033675
v 1.10950161 -6.90910299 0.34042055
v 3.30777262 -5.92517606 0.34064323
v 1.10843950 -5.92439768 0.34063563
v 1.85206441 -5.92544831 0.34032209
v 3.38806462 -5.92542038 0.34035550
v 1.85225923 -5.92525467 0.34041610
v 1.31050834 -6.12619407 0.03914448
v 3.59816055 -5.92457047 0.34059833
v 3.45890673 -5.92453450 0.34030258
v 3.38780237 -5.92545614 0.34050073
v 3.59812900 -5.92480447 0.34032111
v 3.30763528 -6.12622706 0.03938373
v 3.79976143 -6.12614125 0.03928968
v 1.93234388 -6.12597568 0.03933817
v 1.85238735 -6.12624190 0.03938292
v 3.59892764 -2.15084268 0.34057708
v 3.59917132 -4.00760583 0.34026196
v 3.79979164 -2.23127417 0.03951301
v 3.79957814 -2.23106477 0.03933339
v 2.37431832 0.29859701 0.33999600
v 2.29370618 4.98672349 0.34041057
v 2.29395655 0.29881579 0.34045740
v 2.43350378 5.12684090 0.34065990
v 2.43369860 0.35860495 0.34042449
v 2.43418647 3.34034085 0.34065904
v 2.43421914 4.98701274 0.34033594
v 2.43453363 4.90646758 0.34045744
v 2.37431501 0.29840419 0.34070375
v 2.29383968 0.21825397 -0.31190680
v 2.29402355 0.21846861 0.34080881
v 2.37431505 0.29885980 -0.31211775
v 3.45834507 0.21843476 0.03932176
v 2.29389946 0.21841248 -0.31189124
v 3.45830124 0.21828550 -0.31216495
v 2.29370416 0.21853450 0.34046775
v 3.45844666 0.21813031 0.34016440
v 3.59808759 0.35847908 0.34065638
v 3.38809877 0.35875067 0.34046018
v 3.30768809 0.35882550 0.34007147
v 3.30759642 0.35885084 0.34072975
v 3.38807074 0.55988488 0.03926023
v 2.43370621 0.35762178 0.34055741
v 3.45895916 -4.00766393 0.34040193
v 3.45833328 -1.63892604 -0.31222281
v 4.29140918 1.05149368 -0.31180758
v 3.45831823 -1.63893995 -0.31200710
v 3.45835348 0.21823208 -0.31184231
v 3.45800884 -4.76086136 -0.31192148
v 3.45809884 -5.78470467 -0.31181873
v 4.29160012 -6.61826793 -0.31215055
v 4.29172755 -3.92754975 -0.31203193
v 3.80000140 -1.63869258 0.03920872
v 3.79959359 -2.15076030 0.03923565
v 3.79961927 -2.23087830 0.03916628
v 4.29239782 -2.15047613 -0.28164483
v 3.79961803 -0.29357345 0.03920015
v 4.29196124 -0.29366839 -0.28124345
v 3.79954278 0.55995457 0.03937212
v 4.29206573 -0.37370341 -0.28126193
v 3.38810487 0.35882776 0.34077845
v 3.59839213 0.35825815 0.34022348
v 3.79968750 0.55946845 0.03904385
v 4.29203684 -0.29358347 -0.28115454
v 4.29212874 -0.37380868 -0.28156504
v 4.29152219 -1.63879025 -0.28262529
v 3.45833686 -5.78463221 -0.31211283
v 1.80200926 -6.61792344 -0.31223591
v 0.96875187 -5.78481622 -0.31234192
v 4.29168272 -6.61805055 -0.31217088
v 0.96866628 -6.98938717 0.34072744
v 0.96869599 -5.78468648 -0.31180553
v 0.96881046 -7.46104583 -0.31210936
v 0.96884933 -5.78477328 0.34065650
v 0.96856379 -6.98953737 0.34068830
v 0.96869594 -7.46127945 -0.26182567
v 0.96861031 -7.46100273 0.34027624
v -2.91626732 -7.60171507 0.34046358
v -3.12716010 -7.46136282 0.34055029
v -3.26711932 -7.60103560 0.34023124
v 0.96863232 -7.46121476 0.34027576
v -2.83581859 -7.60177488 0.34031112
v -0.97902054 -7.60202806 0.34048902
v 0.87819203 -7.60199521 0.34044283
v 1.10902750 -7.60109594 0.34060552
v 1.10929507 -6.90896671 0.34026087
v 1.10858433 -7.60109859 0.34047774
v 1.10922883 -6.98951876 0.34043839
v 1.10853785 -5.92512107 0.34028519
v 1.10933809 -6.90884003 0.34077746
v 1.31040402 -6.12627164 0.03947219
v 1.10855126 -5.92500260 0.34048573
v 1.31009980 -6.12647020 0.03942312
v 1.85189407 -5.92530905 0.34068360
v 3.38810360 -5.92522885 0.34062906
v 1.85241007 -6.12603784 0.03952481
v 3.38803393 -6.61863308 -0.28131778
v 1.85202732 -6.12615642 0.03922414
v 1.85175082 -6.61852644 -0.28157613
v 1.93242141 -6.12582533 0.03923833
v 3.79954265 -6.12583942 0.03941300
v 3.80033315 -5.94545182 0.03944602
v 3.79952882 -2.23120133 0.03942224
v 3.79953342 -6.12593708 0.03971500
v 3.79965326 -1.63893368 0.03950798
v 3.80014960 -4.00776256 0.03915830
v 2.43443167 4.90635384 0.34050563
v 2.43442675 3.34016671 0.34030687
v 2.43460155 1.56357170 0.34050006
v 2.43436535 4.98675177 0.34029348
v 2.43421395 4.90659196 0.34050741
v 2.63528320 0.55955651 0.03954997
v 2.43380406 5.12669314 0.34057245
v 2.43361713 5.12630905 0.34030676
v 2.29409740 4.98690628 0.03926881
v 2.29378120 4.98686306 0.34045509
v 2.63493142 5.32823842 0.03940367
v -3.12744061 4.98664217 0.34050617
v -3.04667661 5.12726947 0.34037861
v -3.26700869 5.12670169 0.34043880
v 0.40649920 4.98689833 0.34032774
v -2.96649518 5.12691215 0.34057118
v -2.54528193 5.12674320 0.34063283
v -2.34392446 5.12670950 0.34056022
v 0.40651631 5.12743904 0.34042561
v 2.13297113 4.98738364 0.34078552
v 0.48671543 5.12722794 0.34037048
v 2.13314817 5.12780295 0.34027943
v 2.21347751 4.98700466 0.34038966
v 2.21332885 5.12762209 0.34020119
v 2.29403011 4.98677673 0.34016886
v 2.43364989 5.12650466 0.34036958
v 2.29359378 4.98681688 0.34041787
v 2.29390718 0.29873595 -0.31180431
v 2.29353356 0.29893416 0.34068923
v 2.29392435 4.98708350 0.03935913
v 2.29396500 4.98657258 -0.31184376
v 2.37416565 0.29857580 0.34082803
v 2.29378069 0.29865120 -0.31206168
v 2.37401452 0.29873669 -0.31190856
v 2.29388856 0.29826332 0.34064655
v 2.43431524 1.48301361 0.34058138
v 2.43446467 3.34019566 0.34088727
v 2.43354960 0.35797632 0.34029271
v 2.37437070 0.29862097 -0.31209029
v 3.45830770 0.21824511 -0.31214236
v 2.29374516 0.21845860 -0.31186240
v 3.09675360 1.02147359 -0.31190041
v 3.12684690 1.05146789 -0.31219928
v 4.29131460 1.05156681 -0.31214987
v 3.45842116 0.21833793 -0.31196187
v 3.45827004 -1.63891450 -0.31204515
v 3.45832682 0.21822711 0.03939448
v 3.30785900 0.35890782 0.34076200
v 3.38794095 0.55974082 0.03925778
v 3.38808283 0.35874613 0.34066408
v 2.43377636 0.35845504 0.34027439
v 3.30765605 0.55950956 0.03923761
v 2.63503070 0.55963590 0.03932184
v 3.38803773 0.55956472 0.03935534
v 4.29166917 1.05140248 -0.31202925
v 4.29151376 -1.63873393 -0.28277685
v 4.29152332 -3.92776077 -0.31202676
v 4.29137501 1.05163454 -0.28275522
v 4.29153240 -6.61813718 -0.31189985
v 4.29163918 -3.92745758 -0.28237488
v 4.29151728 -6.61779440 -0.28276759
v 4.29159037 -3.92753878 -0.31198701
v 4.29219024 -2.23114044 -0.28135772
v 4.29161348 -1.63852454 -0.28290425
v 4.29178694 -2.15086291 -0.28134970
v 4.29211115 -2.23107561 -0.28117086
v 4.29224225 -0.29363759 -0.28144126
v 4.29146925 1.05149183 -0.28277524
v 4.29126851 1.05147469 -0.28280786
v 4.29205161 -0.29367115 -0.28125445
v 4.29143883 -1.63888235 -0.28267771
v 4.29148737 -6.61795591 -0.28263779
v 1.80201974 -6.61795039 -0.31206353
v 4.29163747 -6.61796260 -0.31211400
v 1.80192600 -6.61819068 -0.28290469
v 1.80164254 -6.61810260 -0.31181282
v 0.96863207 -7.46109182 -0.31203195
v 0.96860850 -5.78454478 -0.31193504
v 1.04874896 -7.54136522 -0.31220727
v 1.80190692 -8.29433952 -0.31208045
v 0.96891114 -6.98928521 0.34022261
v 0.96864583 -7.46117454 -0.31212548
v 0.96869263 -7.46108982 -0.26178652
v -3.12717947 -7.46119213 0.34038047
v 0.96852428 -7.46140564 -0.31198442
v -3.12703341 -7.46121981 -0.31221896
v 0.96869793 -7.46139044 -0.26198997
v 0.96869612 -7.46144710 0.34059020
v -3.12662183 -7.46114562 0.34031000
v -3.12762495 1.48295811 0.34042086
v -3.26686766 -7.60104490 0.34031183
v -3.12697985 0.14768925 0.34076881
v -3.12714349 -0.29377096 0.34049049
v -3.26809881 -5.86516564 0.34043633
v -3.26769480 -5.94565288 0.34044049
v -3.26715590 -4.83156854 0.34033128
v -3.26703595 -4.63039274 0.34057447
v -3.26740639 0.34878688 0.34060590
v -3.26704894 5.12640356 0.34053610
v -3.12697371 4.98664915 0.34029285
v -3.12770178 3.42062218 0.34033937
v -3.12734305 4.94640944 0.34047255
v -3.26821531 1.56351134 0.34049635
v -3.26798560 1.48357332 0.34060241
v -3.26781039 4.94610053 0.34046720
v -3.26756888 5.02666044 0.34052717
v -3.26715432 0.14756590 0.34042832
v -3.26755458 -2.23137597 0.34040983
v -3.26697500 -7.60137454 0.34078872
v -3.46845520 -7.80233112 0.03921488
v -2.91628031 -7.60157810 0.34053039
v 0.87841278 -7.60172833 0.34025710
v -1.05914334 -7.80271512 0.03935590
v -2.91633170 -7.60177906 0.34046802
v 1.10864883 -7.60114704 0.34037391
v 1.10908777 -6.98951851 0.34065603
v 1.10871602 -7.60104530 0.34070650
v 1.30984361 -7.80247514 0.03914766
v 1.10920554 -6.90901560 0.34074486
v 1.10913225 -6.98942530 0.34066989
v 1.30979281 -7.80249933 0.03927315
v 1.31024389 -6.12639385 0.03942096
v 1.10911099 -6.90903266 0.34050904
v 1.30985781 -6.90884063 0.03950196
v 1.85198574 -6.12615862 0.03944974
v 1.31030710 -6.12671892 0.03949525
v 1.85212790 -6.61823161 -0.28131080
v 3.38807569 -6.61807329 -0.28139743
v 1.80179492 -6.61795382 -0.28256146
v 4.29133521 -6.61813997 -0.28267372
v 1.85160322 -6.61872252 -0.28123912
v 4.29142986 -6.61825751 -0.28243221
v 3.38781360 -6.61862935 -0.28143030
v 4.29153949 -6.61805180 -0.28276058
v 3.80018275 -4.00796676 0.03933886
v 3.79978403 -5.94532150 0.03909376
v 4.29117131 -6.61776527 -0.28295770
v 3.79995863 -1.63893701 0.03921363
v 3.80025249 -4.00812412 0.03938459
v 4.29158818 -6.61780077 -0.28280235
v 3.80034461 -5.94511208 0.03958326
v 3.79972726 -6.12598912 0.03978991
v 2.43474274 4.90625302 0.34063380
v 2.43447107 1.48322449 0.34050774
v 2.63522387 0.55980903 0.03936047
v 2.43442817 1.56375154 0.34053465
v 2.63526253 3.26021744 0.03959195
v 2.43394836 5.12667611 0.34051666
v 2.63494380 0.55970342 0.03915493
v 2.63500575 4.90648494 0.03930912
v 2.63522132 5.32792871 0.03952216
v 2.43377109 5.12680875 0.34059286
v 2.63520527 4.98661511 0.03933074
v -2.96630248 5.12735874 0.34028700
v -2.54524963 5.12661844 0.34061607
v -2.96655213 5.32813570 0.03919522
v -3.04673420 5.12719580 0.34043592
v -3.26708247 5.12662831 0.34019780
v 2.29397402 4.98685080 0.03925312
v -3.12725461 4.98658759 -0.31187432
v 2.29393293 4.98664427 -0.31188256
v -3.12719925 4.98659316 -0.26175871
v 1.85210589 4.98659699 0.03891447
v -3.12691896 4.98674640 0.34019742
v 1.85221983 4.98669107 0.34052829
v 2.13336513 4.98712348 0.34059943
v 0.40667197 4.98681804 0.34075038
v 1.85222938 4.98660152 0.34077696
v 2.21334174 4.98716884 0.34032482
v 2.13319363 4.98742167 0.34069504
v 1.85219744 4.98659369 0.34039205
v 2.21342424 4.98740050 0.34033430
v 2.29397205 4.98668809 0.03935374
v 2.29407796 4.98661563 0.34075460
v 2.21329229 5.12766044 0.34022435
v 2.43362535 5.12670977 0.34060338
v 2.63519425 5.32807502 0.03913356
v 2.13299331 5.12784514 0.34070322
v 0.48681297 5.32782371 0.03907466
v 2.21341156 5.12805390 0.34044866
v 0.40639020 5.12714483 0.34040352
v 2.13325392 5.12768740 0.34033702
v -1.23981837 5.12732127 0.34060000
v 0.48696265 5.12716970 0.34020525
v 0.40642938 5.12729106 0.34026440
v -1.32005876 5.12714802 0.34038738
v -2.34381337 5.12668924 0.34070690
v -2.54557119 5.12683849 0.34063143
v -2.34448672 5.32801687 0.03957797
v -2.34386925 5.12658122 0.34044456
v 3.12682533 5.81995533 -0.31232285
v 2.29366441 0.29883290 -0.31203277
v 2.29377109 4.98667609 -0.31158069
v 2.37430759 0.29852282 -0.31175663
v 3.09691174 1.02155550 -0.31212540
v 3.12687044 1.05168137 -0.31215523
v 2.43424470 1.48335959 0.34029248
v 2.43351530 0.35834912 0.34016085
v 2.63502102 0.55959579 0.03910450
v 3.30755395 1.05222960 -0.28130847
v 4.29137111 1.05163679 -0.31178077
v 3.12681406 1.05156016 -0.31170592
v 3.38814445 1.05225374 -0.28138909
v 3.38791385 0.55984274 0.03943165
v 4.29151745 1.05147399 -0.28302434
v 3.30776233 0.55954243 0.03930309
v 3.79973627 0.55978982 0.03944233
v 3.30810586 0.55984630 0.03920257
v 3.30760290 1.05250163 -0.28146489
v 2.63513682 0.55994118 0.03960538
v 3.38803549 1.05216022 -0.28162392
v 3.38789578 1.05206085 -0.28135726
v 4.29147297 1.05157506 -0.28237949
v 4.29160187 -3.92754805 -0.31203002
v 4.29149775 -3.92739680 -0.28290161
v 4.29150533 -3.92777790 -0.28272513
v 3.79994868 -1.63865994 0.03952066
v 4.29163439 -6.61772585 -0.28248737
v 4.29157749 -3.92753747 -0.28305627
v 4.29268180 -5.86507957 -0.28164166
v 4.29145528 -6.61783465 -0.28295005
v 4.29229411 -2.23101300 -0.28140180
v 3.79990591 -1.63867476 0.03909042
v 4.29185985 -3.92773169 -0.28286463
v 1.80215046 -6.61786204 -0.31181448
v 1.80212186 -6.61792974 -0.28295621
v 1.80242018 -6.90906237 -0.28135625
v -3.12736475 -7.46104979 -0.31174808
v 1.80217564 -8.29461543 -0.31196004
v -3.96060435 -8.29417228 -0.31234885
v 0.96879032 -7.46103045 -0.31182006
v 1.04909194 -7.54176895 -0.31204794
v 1.80245365 -6.90903457 -0.28119179
v 1.80204438 -8.29410165 -0.31192320
v -3.12709244 -7.46095396 -0.31208286
v -3.12698268 -0.29359995 0.34010630
v -3.12698351 -7.46117334 0.34044635
v -3.12705193 -2.48226983 -0.31201682
v -3.12678285 4.98666441 -0.26192182
v -3.12712826 4.94686544 0.34026087
v -3.12744229 3.42069176 0.34079701
v -3.12681422 4.98667897 -0.26208864
v -3.12679485 4.98693203 0.34030184
v -3.12690685 4.94640429 0.34035563
v -3.46863006 5.32818398 0.03936995
v -3.26749964 5.02708828 0.34059208
v -3.26689408 5.12677606 0.34030844
v -3.26758621 4.94633793 0.34033538
v -3.26759559 4.94670912 0.34081948
v -3.26830992 3.42070189 0.34047105
v -3.26804604 1.56361902 0.34054197
v -3.26829060 1.56358830 0.34062868
v -3.46845072 4.94685907 0.03928714
v -3.26823606 1.48326116 0.34044050
v -3.26835606 3.42066924 0.34074379
v -3.46803898 5.32793851 0.03947373
v -3.26811064 1.48325912 0.34069006
v -3.46854464 0.84076355 0.03917268
v -3.26717369 0.34883214 0.34053455
v -3.26690740 0.34897059 0.34064190
v -3.46875996 -0.29348168 0.03915325
v -3.26684649 0.14755509 0.34058478
v -3.26711733 0.14754626 0.34017602
v -3.26744039 -0.37399472 0.34005788
v -3.26744592 -2.23081629 0.34033821
v -3.26742117 -0.29375223 0.34011067
v -3.26704832 -4.63030124 0.34050344
v -3.26760268 -2.23104219 0.34051703
v -3.26765498 -4.08832687 0.34043809
v -3.26704730 -4.63040419 0.34030109
v -3.46845550 -5.86506528 0.03937423
v -3.26703929 -4.83172256 0.34056905
v -3.26689552 -4.83158121 0.34019521
v -3.46844123 -5.86496325 0.03940794
v -3.26750838 -5.86502729 0.34034099
v -3.46816663 -5.86530123 0.03948492
v -3.26762231 -5.94563468 0.34041584
v -3.26742263 -5.86517503 0.34028255
v -3.46841396 -5.86521261 0.03911894
v -3.26687908 -7.60101074 0.34039038
v -3.26753394 -5.94545701 0.34046435
v -3.12700861 -0.29338515 0.34056465
v -3.12774407 1.48329708 0.34044646
v -3.12710513 0.14736257 0.34047729
v -3.12703865 2.49705256 0.34025499
v -3.12785995 1.56354466 0.34051182
v -3.12722330 1.48318342 0.34064981
v -3.12683321 2.49710838 0.34049522
v -3.12765091 3.34065687 0.34023580
v -3.12758705 1.56375023 0.34046503
v -3.12712224 4.98673153 -0.26175013
v -3.12748770 3.42071961 0.34060541
v -3.12742580 3.34018522 0.34042065
v -3.46822437 -5.86499877 0.03936199
v -3.46825665 -7.80240277 0.03918318
v -3.26715147 -7.60133016 0.34078484
v -1.05925215 -7.80259698 0.03929324
v 0.87855008 -7.80284307 0.03931717
v 1.01911231 -7.80273136 0.03939058
v 1.30999392 -7.80227095 0.03904998
v 1.10942079 -6.90901168 0.34057739
v 1.31008012 -7.80252502 0.03947592
v 1.30987234 -6.98961379 0.03935018
v 1.31006957 -6.90906807 0.03958387
v 1.10916545 -6.90897189 0.34054359
v 1.31044833 -6.98963926 0.03923424
v 1.80242280 -6.98919367 -0.28148762
v 1.31065951 -6.12615631 0.03946526
v 1.31013261 -6.90934952 0.03935341
v 1.85189233 -6.61860305 -0.28133607
v 1.31033764 -6.12626225 0.03930246
v 1.80169726 -6.61816481 -0.28295580
v 2.43369577 5.12681855 0.34056542
v 2.63522890 4.90616813 0.03971330
v 2.63517360 4.98708895 0.03918363
v 2.63508529 1.56394915 0.03914874
v 2.63524186 3.26000004 0.03919155
v 2.63549771 0.55949130 0.03947153
v 2.63535406 4.90621290 0.03901510
v 2.63488682 4.98656257 0.03936202
v 3.12764523 3.26002445 -0.28138867
v 2.63530345 5.32815702 0.03938756
v 2.63507726 4.98682067 0.03935524
v -3.04687775 5.32793690 0.03952665
v -3.46806470 5.32794462 0.03898550
v -2.96634185 5.32788349 0.03944545
v -3.12709033 4.98705830 -0.31201103
v -3.12688106 4.98649458 -0.26229776
v -3.12755842 3.34040923 0.34060053
v 1.01882294 5.81971016 -0.31229132
v -3.12693829 4.98680966 -0.31217272
v -3.96034276 5.81980240 -0.31233955
v 2.29386315 4.98683187 -0.31206595
v 3.12680579 5.81988911 -0.31180611
v 0.48722112 5.32807535 0.03919647
v 2.13288551 5.32832946 0.03931103
v 0.40659701 5.32807331 0.03928254
v 2.63489149 5.32777332 0.03934969
v 2.21338801 5.32879600 0.03908683
v 2.13348654 5.12768634 0.34051918
v 0.48690908 5.32797501 0.03899607
v -1.23986654 5.12749372 0.34027305
v -1.32040156 5.12720875 0.34041517
v 0.48666098 5.32790815 0.03924685
v 0.40649249 5.32805795 0.03944123
v -1.23972425 5.12730050 0.34075761
v -1.31992085 5.12676788 0.34042322
v 0.40630205 5.32791853 0.03945177
v -2.34402951 5.12658334 0.34069818
v -2.34424268 5.12663809 0.34057246
v -1.85214205 5.32811712 0.03932189
v -2.34386443 5.32808978 0.03937757
v -2.96638767 5.32805344 0.03912245
v -1.85219658 5.81999208 -0.28329013
v -3.04663146 5.32808653 0.03914815
v -2.34411872 5.32799795 0.03939324
v 3.12697736 5.82011255 -0.31196179
v 3.12690985 5.53901743 -0.28274411
v 3.12714312 1.05166143 -0.31204537
v 3.12706304 5.81991746 -0.28265782
v 3.30757542 1.05221928 -0.28165948
v 3.12709774 1.05159207 -0.31202946
v 3.12668957 1.05180654 -0.28264241
v 3.30774098 1.05219570 -0.28151007
v 3.12712241 1.05180545 -0.28298223
v 4.29196655 -3.92767008 -0.28260399
v 4.29139069 -6.61792744 -0.28295581
v 4.29252155 -4.08826586 -0.28147266
v 4.29258988 -4.08806874 -0.28157433
v 4.29133019 -6.61798363 -0.28283966
v 4.29246513 -5.86505713 -0.28145770
v 4.29158089 -3.92760508 -0.28277232
v 4.29261823 -4.08806100 -0.28115028
v 4.29260328 -5.86524729 -0.28161266
v 1.80213203 -6.90928729 -0.28149292
v 1.80194209 -6.61829908 -0.28251336
v 1.31056224 -6.12621407 0.03923966
v 1.01895351 -8.29460389 -0.28246669
v -3.17742752 -8.29453291 -0.28249546
v 1.80234350 -8.29446386 -0.28282717
v -3.96066664 -8.29416894 -0.31198095
v 1.80162773 -8.29430625 -0.31193092
v -3.96031435 -8.29454014 -0.28260083
v -3.12699052 4.98677309 -0.31182868
v -3.96006108 1.66403407 -0.31193362
v -3.96046552 5.81973902 -0.31189545
v -3.96015043 0.84082315 -0.31189188
v -3.96034701 -3.31518312 -0.31219215
v -3.96024614 -8.29429677 -0.31214215
v -3.12670921 -7.46103511 -0.31180684
v -3.12706336 -2.48228693 -0.31214464
v 1.80258784 -6.90914051 -0.28123538
v 1.80252218 -6.98950630 -0.28120055
v 1.80215725 -8.29456867 -0.31194761
v -3.12755494 1.48325863 0.34046562
v -3.12723381 -0.29339886 0.34031080
v -3.12717129 -2.48195223 -0.31200088
v -3.46849697 5.32792370 0.03929961
v -3.26820369 3.42077933 0.34029213
v -3.26752111 4.94678581 0.34051561
v -3.46851207 5.32791299 0.03933273
v -3.96035850 5.82012361 -0.28308162
v -3.46809848 4.94620395 0.03931887
v -3.46854393 4.94666956 0.03919891
v -3.46910388 1.56346807 0.03925740
v -3.26844899 1.48328704 0.34009110
v -3.46849157 0.84068428 0.03948063
v -3.46842592 0.34871283 0.03943132
v -3.26708534 0.34858935 0.34046734
v -3.46914382 1.48321063 0.03955033
v -3.46852654 0.84073860 0.03929755
v -3.26818417 1.48310833 0.34054076
v -3.26705465 0.14743753 0.34052578
v -3.46869701 -0.29330935 0.03942779
v -3.26784772 -0.29361070 0.34029681
v -3.46841589 0.34869614 0.03950335
v -3.46868103 -0.29368753 0.03905479
v -3.26699309 0.34879063 0.34025138
v -3.26738402 -2.23083484 0.34038926
v -3.46828129 -4.00797693 0.03936344
v -3.26736889 -4.08827242 0.34077488
v -3.46841386 -0.37395589 0.03963385
v -3.26757459 -0.37427311 0.34051838
v -3.26782941 -0.29390162 0.34032732
v -3.46831334 -4.00813478 0.03909428
v -3.26705189 -4.63028840 0.34036762
v -3.26783343 -4.08858402 0.34035456
v -3.46818946 -4.63019062 0.03945285
v -3.46839539 -5.86505757 0.03953106
v -3.26713191 -4.63029503 0.34017541
v -3.12691715 2.49704456 0.34029353
v -3.46855761 -4.13860745 0.03918167
v -3.46811520 -5.86524992 0.03921624
v -3.46843945 -4.63022618 0.03902315
v -3.46816207 -7.80259842 0.03927174
v 0.87823460 -7.80258240 0.03956423
v 1.01894841 -7.80306643 0.03926675
v 0.87846881 -7.80254463 0.03928149
v -1.05898065 -7.80249950 0.03914723
v 1.30972324 -7.80247669 0.03962757
v 1.01877926 -7.80293690 0.03954519
v 1.01919827 -8.29443818 -0.28251580
v 1.80262040 -6.98950075 -0.28168382
v 1.30991221 -6.98934937 0.03939221
v 1.30995443 -7.80269896 0.03906171
v 1.80222257 -6.98942978 -0.28161114
v 1.31005856 -6.90922544 0.03925385
v 1.31040885 -6.98940189 0.03926737
v 1.80246919 -6.98965096 -0.28113428
v 3.12717732 1.05146308 -0.28275192
v 2.63506832 1.56358856 0.03910489
v 2.63518781 0.55990131 0.03939770
v 3.12750353 1.48336817 -0.28104521
v 2.63529784 4.98670933 0.03919430
v 2.63524952 1.56383829 0.03899460
v 3.12775027 3.26007958 -0.28112378
v 3.12756940 4.90602438 -0.28104554
v 2.63495431 5.32816228 0.03930470
v 3.12758385 3.26007791 -0.28146077
v -2.96640745 5.82052276 -0.28124819
v -3.46834624 5.32808347 0.03954294
v -3.04690299 5.32804279 0.03940386
v -3.96008690 5.81991116 -0.28276418
v 1.01885712 5.82012454 -0.31208196
v -3.96014420 5.81990490 -0.31202435
v -1.85234615 5.81993085 -0.28278529
v 2.13296766 5.82090239 -0.28143366
v 3.12678840 5.81972238 -0.31178890
v 2.21335439 5.82088336 -0.28158780
v 2.84641912 5.53924481 -0.09874032
v 2.13322424 5.32850196 0.03927904
v 2.21341262 5.32869018 0.03943886
v 2.84636761 5.53942985 -0.09867667
v 0.40666390 5.32819557 0.03907323
v 2.13321122 5.32833494 0.03958370
v 2.84613758 5.53938472 -0.09861868
v 2.21343258 5.32831084 0.03914163
v 2.63531403 5.32797873 0.03908317
v 0.40652328 5.32830832 0.03958893
v -1.32017752 5.32808173 0.03942586
v -1.32034216 5.32794410 0.03925923
v -1.85207987 5.81983806 -0.28300912
v -2.34394353 5.32792625 0.03912463
v -1.85234653 5.32827100 0.03956305
v 2.21349438 5.82119918 -0.28172697
v 3.12690133 5.81971570 -0.28283727
v 3.12716462 5.81983214 -0.28299600
v 2.84637336 5.53896982 -0.09874780
v 3.12692975 5.53917917 -0.28284412
v 3.12716870 5.53919617 -0.28241784
v 3.12757721 3.25989578 -0.28156146
v 3.12692617 1.05161156 -0.31214622
v 3.12784868 1.48324552 -0.28152431
v 3.12696281 1.05144567 -0.28276027
v 3.12685612 1.05175994 -0.31208771
v 1.80189720 -8.29429778 -0.28288187
v 1.80193581 -8.29415556 -0.28269210
v 1.31008471 -7.80263656 0.03916089
v 1.01919977 -8.29447505 -0.28240971
v -1.05919151 -8.29479402 -0.28139192
v -3.17716080 -8.29424974 -0.28265615
v 1.01904492 -8.29470463 -0.28279571
v -2.91590806 -8.29503689 -0.28129824
v -3.96028304 -8.29455057 -0.28296482
v -3.17741585 -8.29417350 -0.28274134
v -3.96045090 -4.13857263 -0.28261248
v -3.96041135 -8.29455119 -0.31221412
v -3.96046241 -8.29417898 -0.28274337
v -3.96030896 -3.31537400 -0.31191372
v -3.96024629 5.81996941 -0.28275804
v -3.96031482 1.66383091 -0.31231332
v -3.96033683 1.66426368 -0.28292926
v -3.96025563 5.81997651 -0.31183400
v -3.12659378 4.98662848 -0.31217294
v -3.96008285 0.84077321 -0.31170105
v -3.96013765 -3.31538502 -0.31206249
v -3.96018712 -3.31519364 -0.28291294
v -3.96112300 -0.37420304 -0.28128341
v -3.46839178 4.94623507 0.03923544
v -3.96057334 5.81987850 -0.28292205
v -3.46900977 3.42065972 0.03935455
v -3.04674562 5.82068380 -0.28096249
v -3.96011692 5.81989054 -0.28265738
v -3.46848572 5.32789616 0.03918300
v -3.46831885 4.94673802 0.03968956
v -3.46870174 3.42078770 0.03921202
v -3.46890591 1.56361265 0.03930466
v -3.46861360 1.56338953 0.03920780
v -3.46885626 1.48354115 0.03902801
v -3.26827078 1.48342343 0.34037154
v -3.46834711 0.84060385 0.03950015
v -3.46838113 -0.29355432 0.03915514
v -3.46859049 0.34896954 0.03923804
v -3.46851704 -2.15096457 0.03915364
v -3.46846263 0.84058730 0.03923589
v -3.46859661 1.48314199 0.03932374
v -3.96129970 1.48316430 -0.28148100
v -3.46815741 -4.08817611 0.03922058
v -3.46891079 -4.13861505 0.03915593
v -3.46868047 -4.63016250 0.03934031
v -3.46827888 -7.80279079 0.03924421
v -3.46872337 -4.13841323 0.03928984
v -3.96101184 -5.86490005 -0.28126909
v 1.01892583 -7.80274489 0.03952130
v -1.05885148 -7.80253191 0.03927208
v -3.96033487 -8.29430300 -0.28283511
v 1.01876407 -7.80282309 0.03940919
v 0.87848552 -8.29513836 -0.28130910
v 1.01906336 -8.29452738 -0.28276420
v 1.80244880 -6.98916117 -0.28120602
v 1.30981724 -7.80280747 0.03942999
v 1.80190116 -8.29436170 -0.28271590
v 3.12776532 1.48294669 -0.28145408
v 2.63521930 1.56356208 0.03916950
v 3.12750406 3.25995952 -0.28136413
v 3.12771475 1.48316766 -0.28138947
v 3.12669586 5.53892089 -0.28247811
v 3.12730972 4.90660176 -0.28142019
v 3.12727882 4.98693197 -0.28115321
v 2.63506169 5.32817324 0.03926734
v 3.12759867 4.90640569 -0.28140925
v -2.96635217 5.82053554 -0.28146495
v -3.04670693 5.82038722 -0.28133352
v -3.46844801 5.32804723 0.03958753
v -2.96654500 5.82023297 -0.28111849
v -1.85209814 5.81981510 -0.28282129
v -3.96040588 5.82007505 -0.28266370
v 0.48697543 5.82050845 -0.28169091
v 1.01871932 5.81996811 -0.31246388
v 1.01890060 5.81975378 -0.28268870
v 2.13317828 5.82119685 -0.28130413
v 1.01893219 5.81976228 -0.28268961
v 2.21391232 5.82074364 -0.28152692
v 2.84649059 5.53917830 -0.09884083
v 1.01904155 5.81997598 -0.28289914
v 3.12692921 5.53923451 -0.28272517
v 2.84639463 5.53920154 -0.09889288
v 2.63539347 5.32788023 0.03925140
v 0.40643196 5.32780201 0.03942747
v -1.85231830 5.32819552 0.03947987
v -1.31995850 5.32792961 0.03911152
v -1.32011716 5.82021092 -0.28154473
v 3.12697511 5.81989569 -0.28288320
v 2.21349916 5.82124973 -0.28125676
v -1.05885388 -8.29485275 -0.28132035
v 1.01871493 -8.29466750 -0.28272369
v 0.87831448 -8.29515233 -0.28129127
v -2.83572497 -8.29501053 -0.28133634
v -3.17731852 -8.29456143 -0.28240541
v -1.05928520 -8.29502577 -0.28143149
v 1.01889559 -7.80274258 0.03948623
v -3.96027928 -8.29426499 -0.28284576
v -2.91618447 -8.29470817 -0.28144491
v -2.91620911 -8.29475415 -0.28148826
v -3.17721848 -8.29450037 -0.28291119
v -2.83585914 -8.29513753 -0.28107942
v -3.96025297 -4.13845907 -0.28274872
v -3.96023953 -8.29448146 -0.28271095
v -3.96090217 -5.94547541 -0.28129908
v -3.96060596 -3.31540641 -0.31202892
v -3.96075207 -4.00801649 -0.28134701
v -3.96141705 1.56321936 -0.28121448
v -3.96021249 5.81976490 -0.28253906
v -3.96014548 1.66380724 -0.28254533
v -3.96071989 4.94667099 -0.28146184
v -3.96034744 -3.31541017 -0.28281588
v -3.96063489 0.84091571 -0.28294753
v -3.46882522 3.42046107 0.03934378
v -3.96045148 5.81991832 -0.28304223
v -3.46901533 1.56363166 0.03935967
v -3.04672738 5.82033193 -0.28171488
v -3.96095425 5.02676697 -0.28112127
v -3.96071490 4.94658713 -0.28145858
v -3.46903780 1.56362855 0.03926378
v -3.46842183 -2.15046983 0.03916399
v -3.46873017 0.84069743 0.03921807
v -3.96103911 -4.00774435 -0.28160045
v -3.96040488 0.84078028 -0.28295788
v -3.96028184 1.66386761 -0.28276517
v -3.46838962 -4.08845894 0.03923367
v -3.46815649 -2.23090022 0.03922962
v -3.46850654 -4.13857941 0.03910038
v -3.46869683 -4.00813472 0.03939886
v -3.46873736 -4.13815367 0.03946097
v -3.96031432 -4.13846122 -0.28279075
v -3.96064460 -5.86514161 -0.28138770
v -3.46848706 -7.80234605 0.03926646
v -3.96091395 -5.86532751 -0.28122720
v -3.96090494 -5.94540520 -0.28145250
v -1.05911011 -7.80288304 0.03919520
v -3.46854403 -7.80220210 0.03954401
v -3.96018466 -8.29404189 -0.28251128
v -1.05929966 -8.29520972 -0.28131448
v 0.87836999 -8.29496478 -0.28149332
v 3.12790212 4.98663596 -0.28118003
v 3.12783893 4.98659765 -0.28126903
v 0.48713325 5.82071106 -0.28123239
v 0.48694452 5.82048532 -0.28114778
v -1.85205058 5.81994191 -0.28285780
v -1.24000896 5.82044401 -0.28107426
v 2.84613912 5.53898961 -0.09883178
v 2.21348811 5.82093205 -0.28125412
v 1.01896689 5.82011515 -0.28269390
v 0.48690308 5.82012824 -0.28132316
v 0.40645317 5.32820768 0.03933760
v -1.23991240 5.82038351 -0.28157600
v -1.85223560 5.32835908 0.03951850
v -1.23970252 5.82060492 -0.28123355
v -1.32015306 5.82071022 -0.28160058
v -2.83590510 -8.29508543 -0.28167203
v -1.05880809 -8.29532631 -0.28124551
v -2.91594922 -8.29503263 -0.28136926
v -2.91655341 -8.29504027 -0.28111294
v -1.05916504 -8.29515885 -0.28173729
v -3.96004595 -4.13835729 -0.28280484
v -3.96063745 -5.94548052 -0.28143999
v -3.96046051 -5.86522541 -0.28133781
v -3.96021977 -8.29443291 -0.28271929
v -3.96102194 -4.08825096 -0.28140899
v -3.96146933 1.48307633 -0.28153232
v -3.96038881 1.66397656 -0.28272046
v -3.96108894 1.56362260 -0.28146577
v -3.96144809 1.48318443 -0.28142567
v -3.96080750 5.02716826 -0.28138823
v -3.96078650 -2.23128571 -0.28161395
v -3.96027855 -3.31534386 -0.28269433
v -3.96058603 -4.00803611 -0.28148134
v -3.96064797 -0.37401188 -0.28137500
v -3.96027364 -3.31496804 -0.28300278
v -3.96094245 -2.15067719 -0.28117854
v -3.96097651 -0.29343661 -0.28144547
v -3.96037520 1.66380649 -0.31197150
v -3.96017704 0.84059519 -0.28272064
v -3.96142239 1.48301754 -0.28109153
v -3.46884242 0.84075507 0.03913403
v -3.96087870 -0.37392571 -0.28135800
v -3.96097564 -4.00797219 -0.28131204
v -3.46812381 -2.15065307 0.03950024
v -3.96070451 -4.00806175 -0.28142304
v -3.46821834 -2.23120320 0.03914116
v -3.46869125 0.84044078 0.03919662
v -3.96044284 0.84067084 -0.28253958
v -3.96042857 -0.29353248 -0.28152560
v -3.46824705 -2.23102188 0.03922609
v -3.96066392 -4.00803171 -0.28146413
v -3.46867469 -4.13831342 0.03926332
v -3.96074997 -4.08852784 -0.28132147
v -3.96033464 -4.13851026 -0.28316876
v 0.48663540 5.82018675 -0.28125634
v -1.23993847 5.82051714 -0.28127154
v 0.40647064 5.82030427 -0.28115732
v 0.40660293 5.82027068 -0.28127680
v 0.40645142 5.82054849 -0.28122021
v -1.23992129 5.82055287 -0.28187220
v 0.40664960 5.32771055 0.03973889
v -3.96075015 -4.00805298 -0.28118384
v -3.96093648 -0.37392108 -0.28143104
v -3.96080791 -2.23118227 -0.28129669
v -3.96092918 -4.00793416 -0.28126645
v -3.96090556 -2.15064694 -0.28128890
v -3.96085647 -2.15086781 -0.28137637
v -3.96033046 -3.31535966 -0.28274905
v -3.96084284 -2.23107322 -0.28113604
v -3.96065889 -0.29349050 -0.28128373
v -3.96090692 -0.37411416 -0.28142165
v 4.29171999 -3.92740232 -0.28297800
v 4.29233905 -4.08795436 -0.28113213
v 4.29252686 -4.00796521 -0.28135716
v 4.29280993 -4.00803243 -0.28126849
v 4.29157068 -3.92754937 -0.28256690
v 3.12762410 3.34015667 -0.28121674
v 3.12751063 4.90652541 -0.28132811
v 3.12743028 3.26009713 -0.28147536
v 3.12763455 3.25998923 -0.28120615
v 3.12747386 4.90631832 -0.28148598
v 3.12747018 3.34032222 -0.28132937
v 4.29272116 -5.86507038 -0.28143981
v 4.29127073 -6.61783715 -0.28283040
v 4.29269497 -5.94556798 -0.28111753
v 4.29274257 -5.94553911 -0.28130838
v 4.29174562 -6.61802024 -0.28302575
v 4.29270415 -5.86477641 -0.28162673
v -3.96064039 4.94649723 -0.28137827
v -3.96132849 3.42067554 -0.28123024
v -3.96155045 3.34035228 -0.28152043
v -3.96144344 3.34085283 -0.28150576
v -3.96128641 3.42072365 -0.28168564
v -3.96099585 4.94623811 -0.28138837
v -3.96047149 1.66376277 -0.28297765
v -3.96069794 4.94663302 -0.28112011
v -3.96138865 3.34048715 -0.28118246
v -3.96101750 3.34016187 -0.28149993
v -3.96096864 4.94630842 -0.28124643
v -3.96013719 1.66368085 -0.28290410
v 3.59831061 0.35821097 0.34051906
v 3.45829997 0.21851610 0.03950905
v 3.45801841 0.21856459 0.34040274
v 3.79944088 0.55975429 0.03916434
v 3.79942072 0.55959917 0.03954743
v 3.59796177 0.35812102 0.34020476
v 3.45813048 0.21831832 0.03910868
v 3.45836866 0.21835995 0.34059978
vt -50.62519836 485.65750122
vt -50.57007980 307.97131348
vt -50.57007980 299.94061279
vt 0.51560003 0.52079999
vt 0.51560003 0.50000000
vt 0.51550001 0.03909999
vt -2.17919993 -1.59380007
vt -2.33590007 -1.35940003
vt -2.07030010 -1.35940003
vt -0.64060003 -1.35940003
vt -0.37500000 -1.35940003
vt -0.53170002 -1.59380007
vt -2.07030010 -1.35940003
vt -2.07030010 -1.59380007
vt -2.17919993 -1.59380007
vt -0.53170002 -1.59380007
vt -0.64060003 -1.59380007
vt -0.64060003 -1.35940003
vt 0.74999940 -0.39579797
vt 0.80224150 -0.44809794
vt 0.74999952 -0.44809794
vt 0.95049942 -0.39579701
vt 0.47848970 -0.44293296
vt 0.47900811 0.49994320
vt 0.47878131 -0.45840895
vt 0.47868171 0.03891778
vt 0.51514661 -0.15642297
vt 0.51504081 -0.42209399
vt 0.51507342 0.01808941
vt 0.51508170 0.03891778
vt 0.47929999 0.83350003
vt 0.47927710 0.78124321
vt 0.47901639 0.52077973
vt 0.51560003 0.98180002
vt 0.51554090 0.83350003
vt 0.51566118 1.13547409
vt 0.47942969 1.17178535
vt 0.47920001 0.98180002
vt 0.47920829 1.00263751
vt 0.75000000 -0.39579999
vt 0.75000000 -0.44809997
vt 0.62239999 -0.39579999
vt 0.62239993 -0.26820004
vt 0.95049989 -0.39579999
vt 0.74999988 -0.39579999
vt 0.97133160 -0.39579999
vt 0.95050001 -0.39579999
vt 0.95050001 -0.44790006
vt 0.80220002 -0.44809997
vt -0.52069998 -0.75539994
vt -0.48439831 -0.14586997
vt -0.48445821 -0.79173899
vt -0.52079999 -0.18490005
vt -0.52079809 -0.16406596
vt -0.52064341 -0.14569199
vt -0.52064008 -0.10953104
vt -0.47400001 -0.44780004
vt -0.48940000 -0.44809997
vt -0.54170001 -0.39579999
vt 0.00782738 -0.44780004
vt 0.00779998 -0.44780004
vt 0.48960000 -0.44790006
vt 0.46880001 -0.44790006
vt 0.74999988 -0.44809997
vt 0.48959991 -0.44790006
vt 0.46879989 -0.39579999
vt 0.97140002 -0.44790006
vt 0.95050001 -0.44790006
vt 0.95050001 -0.39579999
vt 1.14049995 -0.44809997
vt 0.97140002 -0.44790006
vt 0.95050001 -0.39579999
vt -0.48440409 1.04944074
vt -0.50520003 1.33070004
vt -0.48437229 1.35149264
vt -0.52065998 1.31526303
vt -0.52084517 1.08855987
vt -0.52069998 1.01320004
vt -0.80220002 -0.50000000
vt -1.10420001 -0.42190003
vt -0.48960000 -0.50000000
vt -0.95044303 -0.50000000
vt -1.10405803 -0.50000000
vt 0.51550001 0.03909999
vt 0.51560003 0.83350003
vt 0.51560003 0.52079999
vt 0.01299995 -0.50000000
vt -0.62239999 -0.33070004
vt 0.18750000 -0.33070004
vt -0.00782480 -0.50000000
vt 0.01299995 -0.50000000
vt 0.18750000 -0.33070004
vt 0.18750000 -0.50000000
vt 0.18750000 -0.50000000
vt 0.45310000 -0.42186201
vt 0.45310000 -0.50000000
vt 0.45310000 -0.33070004
vt 0.18750000 -0.33070004
vt 0.48960000 -0.39579999
vt 0.62239999 -0.26820004
vt 0.75000000 -0.39579999
vt 0.62239999 -0.39579999
vt 0.97140020 -0.39579999
vt 0.95057148 -0.39579999
vt 1.19270003 -0.39579999
vt 0.95050049 -0.26810098
vt 0.97140050 -0.39580095
vt 0.62240040 -0.26820099
vt 0.82298541 -0.49996102
vt 0.17710000 -0.33070004
vt 0.82298541 -0.33059096
vt 0.17710000 -0.42190003
vt 0.17710000 -0.50007105
vt 0.47929999 -0.40090001
vt 0.51560009 -0.24223697
vt 0.51560152 -0.36464500
vt 0.47929639 0.03403509
vt 0.51560003 0.07029998
vt 0.47914210 -0.22135305
vt -0.52079999 -0.18490005
vt -0.52069998 -0.75539994
vt -0.52079999 -0.56253505
vt -0.19526491 0.55210000
vt -0.59373552 0.55210000
vt -0.73430002 0.60430002
vt -0.14079989 0.55190003
vt -0.17690000 0.55190003
vt -0.19530000 0.55210000
vt -0.14079989 0.55190003
vt -0.21610001 0.60420001
vt -0.08848499 0.60420001
vt -0.57290000 0.60420001
vt -0.59373552 0.60420001
vt 0.48960000 -0.44790006
vt 0.00779998 -0.44780004
vt 0.46880001 -0.39579999
vt 0.46880001 -0.39579999
vt 0.49476519 0.91925371
vt 0.51560003 2.13540983
vt 0.51560003 0.91927695
vt 0.47929999 2.17166710
vt 0.47929999 0.93470001
vt 0.47913861 1.70829296
vt 0.47913861 2.13536882
vt 0.47913659 2.11453485
vt 2.66409993 -1.59380007
vt 2.60159993 -1.08590007
vt 2.60159993 -1.59380007
vt 2.66409993 -1.08590007
vt -1.01821804 -0.42186201
vt -1.32026005 -0.33070004
vt -1.01820004 -0.33070004
vt -1.32029998 -0.50000000
vt -1.01823997 -0.50000000
vt -0.52069998 1.01320004
vt -0.52079999 1.06770003
vt -0.52079999 1.08850002
vt 1.05729997 0.55210006
vt 1.03649998 0.60420012
vt 1.28400004 0.55190009
vt -0.00779998 -0.50000000
vt -0.62239999 -0.33070004
vt 0.29949999 1.35152197
vt 0.51560003 0.65359998
vt 0.51560003 1.13537478
vt 0.51560003 -0.15629995
vt 0.51560003 -0.42192495
vt 0.29949999 -0.63807797
vt 0.29949999 0.05985248
vt 84.73110199 248.74330139
vt 84.70236206 299.94061279
vt 84.70236206 307.97131348
vt 0.48960000 -0.26810002
vt 0.97140002 -0.39579999
vt 0.97132868 -0.26810002
vt 1.19270003 -0.39579999
vt 0.95050001 -0.26810002
vt 1.03649998 0.55210000
vt 0.98189998 0.55190003
vt 0.92970002 0.60420001
vt -0.97139949 -0.33869898
vt -0.95049948 -0.33869898
vt -0.62239969 -0.33829904
vt -0.48436689 -0.14583099
vt -0.70050001 -0.57550001
vt -0.48436689 -0.79163301
vt -0.70050001 0.07029688
vt 0.27340391 -0.49999797
vt -0.03910067 -0.33069801
vt 0.39579931 -0.33069801
vt -0.03910067 -0.49999797
vt 0.27340001 -0.50000000
vt 0.39579999 -0.34379995
vt 0.39579999 -0.50000000
vt -0.52085328 -1.21611905
vt -0.48451009 -1.27088499
vt -0.52069998 -1.30710006
vt -0.48439750 -0.20836306
vt -0.52085108 -1.19528294
vt -0.52079999 -0.71350002
vt -0.52074891 -0.23171604
vt -0.52057970 -0.17197895
vt 0.47920001 -0.22140002
vt 0.47929999 -0.40090001
vt 0.47920001 -0.24220002
vt 0.00279999 -0.44809997
vt -0.25260001 -0.44790006
vt -0.04960000 -0.39569998
vt -0.78659928 0.55190039
vt -0.73429942 0.60430026
vt -0.59379947 0.55210042
vt -0.19530000 0.55210000
vt -0.59380001 0.60420001
vt -0.19527660 0.73189998
vt -0.59373480 0.60420001
vt -0.59373480 0.73189998
vt -0.57290000 0.60420001
vt -0.08849996 0.60420001
vt -0.49481729 -0.39569902
vt 0.46880001 -0.39579999
vt -0.54170001 -0.39579999
vt 0.62246472 -0.39574695
vt 0.00782651 -0.39569998
vt -51.82361984 -405.77560425
vt -51.82440948 -249.17439270
vt -51.82440948 -71.49015808
vt 2.10419989 -0.44790006
vt 2.08330011 -0.44790006
vt 0.95569998 -0.39579999
vt 2.14050007 -0.44809997
vt 6.42139292 -1.59381700
vt 6.31249285 -1.35941696
vt 6.31251621 -1.59381700
vt 6.57809305 -1.35941696
vt -2.10422397 1.95307636
vt -2.14066195 1.93230450
vt -2.14051199 1.98943651
vt -2.10417891 1.03641570
vt -2.14066100 1.91146970
vt -2.14050293 1.80225039
vt -2.14050007 1.75000000
vt -2.14061809 1.03646851
vt -2.10430002 0.58850002
vt -2.14061689 1.01563478
vt -2.14073896 0.58855271
vt -2.10429907 0.56766617
vt -2.14073801 0.56771898
vt -2.10415506 0.54683232
vt -2.14042902 0.51058841
vt -2.10413194 -0.50000000
vt -0.88827062 -0.33078206
vt -0.88812429 -0.50000000
vt -2.10419989 -0.42190003
vt -2.10427904 -0.33078206
vt -1.48440003 -1.59380007
vt -1.54690003 -1.08593202
vt -1.48440003 -1.08593392
vt -1.54690003 -1.59379792
vt 0.47920001 1.22656786
vt 0.47920001 1.70829999
vt 0.47929999 0.93470001
vt -0.50522947 1.33076429
vt -0.48440000 1.04950392
vt -0.48440000 1.35160017
vt -0.69270003 1.14320004
vt -0.70051122 1.13538885
vt -0.70051122 0.83328432
vt -1.10420001 -0.33070004
vt -0.62239999 -0.33070004
vt -1.10420001 -0.42190003
vt 1.05729997 0.55210000
vt 1.03649998 0.60420001
vt 1.03646100 0.55210000
vt 1.28400004 0.55190003
vt 1.05729997 0.60420001
vt 1.23179996 0.60420001
vt 1.03646398 0.60420001
vt -1.32029998 -0.33069301
vt -0.62239999 -0.33829999
vt -0.02867124 -0.33070600
vt -1.32029998 -0.33829999
vt 0.66930002 -0.33070004
vt -0.02869999 -0.33829999
vt 0.66930002 -0.33829796
vt -0.02869999 -0.33070004
vt 0.46880001 -0.26810002
vt -0.62239993 -0.33829999
vt -0.48960000 -0.33870006
vt -0.46880001 -0.33870006
vt 0.97139978 -0.26810002
vt 1.32029998 -0.26820004
vt -1.32029998 -0.33829999
vt -0.97140002 -0.33870006
vt -0.62239999 -0.33829999
vt -0.03909999 -0.33829999
vt 0.60680002 -0.33070004
vt -0.03909999 -0.33070004
vt 0.60680002 -0.33829999
vt 0.29948390 -0.14581299
vt 0.51563478 -0.36456597
vt 0.51563478 0.07033449
vt 0.49480000 -0.38540006
vt 0.29948801 -0.58071303
vt 0.27340001 -0.50000000
vt 0.39579999 -0.33070004
vt 0.39579999 -0.34379995
vt 1.30205798 -0.50000000
vt 0.23960450 -0.33078301
vt 1.30210400 -0.33078301
vt 0.23960000 -0.34379995
vt 0.23955870 -0.50000000
vt -1.92191005 1.15633202
vt -1.92203403 -1.16408610
vt -1.95819497 1.19259953
vt -1.92189300 -0.81756699
vt -1.92189395 -0.70312703
vt -1.95836496 0.74221981
vt -1.95836496 0.76305550
vt -1.95820904 0.47413290
vt -1.95819902 0.42190039
vt -1.95818806 -0.86983204
vt -1.95817804 -2.10931993
vt -1.92188299 -2.07297897
vt -1.92202902 -1.66671300
vt -1.92188299 -2.06256104
vt -1.95848095 -1.18495202
vt -1.95848203 -1.16411710
vt -1.95833099 -2.06259298
vt -1.95833099 -2.08342910
vt -1.95819902 -0.81759906
vt -1.95835698 -0.20053101
vt -1.33840001 0.55190003
vt -1.39059997 0.60420001
vt -1.24740005 0.55210000
vt -0.26300001 0.55210000
vt -0.76560003 0.60420001
vt -1.24737203 0.55210000
vt -0.20329989 0.55190003
vt -0.27339989 -0.44789898
vt -0.43209979 -0.44809902
vt -0.48439980 -0.39579904
vt -0.25260001 -0.44790006
vt -0.27340001 -0.44790006
vt -0.48440000 -0.39579999
vt -0.04959999 -0.39569998
vt -0.25259990 -0.44790006
vt -0.25259990 -0.39579999
vt -0.59379989 0.60420012
vt -0.73429990 0.60430014
vt -0.59379989 0.73189998
vt 0.19525480 -0.33870006
vt 0.60680002 -0.33829999
vt -0.03909999 -0.33829999
vt 0.59373599 -0.33870006
vt 0.03909999 0.73179996
vt -0.19530000 0.73189998
vt -0.66930002 -0.26820004
vt 0.00782738 -0.39569998
vt -0.49483749 -0.39569998
vt -0.66930002 -0.26820004
vt 0.62239999 -0.39579999
vt 0.00779998 -0.39569998
vt -0.66929948 -0.26819897
vt -0.49479970 -0.39569902
vt -0.54169959 -0.39579904
vt 2.08347297 -0.44790101
vt 1.19526196 -0.44790006
vt 0.95570022 -0.39580095
vt 1.21609998 -0.44790101
vt 1.65629995 -0.39580202
vt 2.14050007 -0.44810200
vt 0.95570028 -0.39580297
vt 2.08342695 -0.39580297
vt 2.19269991 -0.39579999
vt 2.14050007 -0.44809997
vt 2.10419989 -0.39579999
vt 1.88020003 2.17190003
vt 1.77100003 2.17170000
vt 1.88020003 2.22399998
vt 1.90100002 2.17190003
vt 1.95819998 2.17170000
vt -0.51561117 -0.42190003
vt -1.92190003 -0.33078206
vt -0.51561117 -0.33078206
vt -1.92190003 -0.34379900
vt -0.63020003 -0.42190003
vt -1.92190003 -0.50000000
vt -0.63020003 -0.50000000
vt -2.10430002 0.58850002
vt -2.10419989 1.03642988
vt -2.10419989 0.66149998
vt -73.90944672 -413.86221313
vt -81.94055176 -413.86221313
vt -110.04920197 -413.80709839
vt -0.53649998 -0.50000000
vt -0.51560003 -0.42190003
vt -0.51560003 -0.50000000
vt 0.53649998 2.17199993
vt 0.47929999 2.17170000
vt 0.42710000 2.22399998
vt 0.55729997 2.17199993
vt 0.98439997 2.22399998
vt 0.53646588 2.17199993
vt 1.00520003 2.17190003
vt 0.55729997 2.17199993
vt 1.43229997 2.17190003
vt 0.98436552 2.17190003
vt -2.14059997 1.03649998
vt -2.14059997 1.48433065
vt -2.14050007 1.75000000
vt 1.77095997 2.17170000
vt 1.71870005 2.22399998
vt 1.71870005 2.17170000
vt 0.29951870 2.35161591
vt 0.51560003 0.91930002
vt 0.51562941 2.13546515
vt 0.49477011 0.91929966
vt 0.30730000 1.10679996
vt 0.29949269 1.11461234
vt 1.19529998 -0.44790006
vt 0.90350008 -0.44809997
vt 0.95570010 -0.39579999
vt -1.05729997 -0.33870006
vt -0.80210000 -0.33070004
vt -1.10420001 -0.33070004
vt -1.03646600 -0.33870006
vt 1.03649998 0.60420001
vt 0.80210000 0.73179996
vt 1.05733895 0.60420001
vt 0.92970002 0.60420001
vt 1.05729997 0.60420001
vt 1.05733597 0.73189998
vt 1.23179996 0.60420001
vt 1.03649998 0.73189998
vt -1.03649998 -0.33870006
vt -0.80210000 -0.33829999
vt -0.02869999 -0.33070004
vt -0.02869999 -0.33829999
vt 0.02869999 -0.26820004
vt 0.62239999 -0.39579999
vt -0.66930002 -0.26820004
vt -0.02869998 -0.33829999
vt 0.47399980 -0.33870006
vt 0.66929978 -0.33829999
vt 0.46879959 -0.26809895
vt 0.62239951 -0.39579904
vt 0.02869997 -0.26819897
vt 0.17710000 -0.33070004
vt 0.17710000 -0.33829999
vt 0.25260010 -0.33870006
vt -0.48436549 -1.27086592
vt -0.70053071 0.00784808
vt -0.70051289 -1.48701310
vt -0.48437810 -0.20832205
vt -0.50521308 -0.18748498
vt 0.25260001 -0.33870006
vt 0.61199999 -0.33070004
vt -1.12500000 -0.33078301
vt 0.73424709 -0.50000000
vt -1.12500000 -0.50000000
vt 0.16657640 -0.33078301
vt 2.10419989 -0.34379995
vt 2.09380007 -0.50000000
vt 1.69790006 -0.50000000
vt 2.10419989 -0.34379995
vt 2.10419989 -0.49999905
vt 2.09380007 -0.50000000
vt -2.19269991 2.04169989
vt -2.11459994 1.98959994
vt -2.14050007 1.98940003
vt -2.09380007 1.98959994
vt -1.95829999 -2.06250000
vt -1.95850003 -1.66663098
vt -1.95850003 -1.18490005
vt -1.21609998 1.98970008
vt -2.09372902 2.04169989
vt -1.19526505 1.98970008
vt -1.69790006 1.98970008
vt -2.19269991 2.04169989
vt -1.19529903 1.98969948
vt -1.02859902 2.04169893
vt -0.90099949 1.98939943
vt -0.90100002 1.98940003
vt -0.73439997 2.04169989
vt -0.84880000 1.98940003
vt -1.95819998 -0.81760001
vt -1.95829999 -0.68229997
vt -1.95829999 -0.20050001
vt -1.95829999 -0.70313501
vt -1.95819998 0.42189997
vt -1.95829999 -0.20050001
vt -1.95829999 0.28122270
vt 0.39060000 1.98940003
vt 0.71090001 2.04169989
vt 0.44290000 1.98940003
vt 0.44289970 1.98939943
vt 0.71089959 2.04169893
vt 0.71089959 1.98959923
vt 0.71090001 2.04169989
vt 0.73180002 1.98959994
vt 0.71090001 1.98959994
vt 0.71089941 2.04169893
vt 1.16129899 1.98939919
vt 0.73179942 1.98959911
vt 607.96459961 114.22519684
vt 608.01971436 -63.45906067
vt 607.96459961 70.11219788
vt -607.96459961 -164.84959412
vt -608.01971436 -71.49015808
vt -608.01971436 -63.45906067
vt -1.92190003 -1.42709994
vt -1.92200005 -1.64580011
vt -1.92200005 -1.18490005
vt 2.10419989 -0.34379995
vt 1.69790006 -0.50000000
vt 1.67709994 -0.50000000
vt 0.71096838 2.04169989
vt 1.21350002 2.04169989
vt 1.16129994 1.98940003
vt -0.76562989 0.60420001
vt -0.26306790 0.60420001
vt -0.22660001 0.60430002
vt -0.15099999 0.60420001
vt -0.25260001 -0.44790006
vt -0.48440000 -0.39579999
vt -0.27340001 -0.39579999
vt -0.25260001 -0.39579999
vt -0.25260001 -0.44790006
vt -0.27340001 -0.39579999
vt -0.27339989 -0.26810002
vt -0.04959999 -0.39569998
vt -0.25259990 -0.39579999
vt -0.59380001 0.73189998
vt -0.73430002 0.60430002
vt -0.60680002 0.73179996
vt 2.14050007 -0.44809997
vt 2.08330011 -0.39579999
vt 2.10419989 -0.39579999
vt -31.74394035 -71.49015808
vt -31.74436951 -241.14329529
vt -31.74716949 28.89665031
vt -31.74436951 -405.77560425
vt -31.74394035 -413.80709839
vt 1.65629995 -0.26810002
vt 2.19269991 -0.39579999
vt 2.10419989 -0.39579999
vt 1.90100002 2.22399998
vt 2.01040006 2.22399998
vt 1.88015997 2.22399998
vt 2.10419989 -0.33070004
vt 2.10419989 -0.34379995
vt 1.67709994 -0.50000000
vt -2.32030702 0.87758040
vt -2.10418797 1.95320654
vt -2.32029510 2.16929197
vt -2.10420108 0.54691064
vt -2.32031202 0.33068460
vt 0.98439997 2.22399998
vt 0.55729997 2.22410011
vt 1.00523400 2.22399998
vt 0.42710000 2.22399998
vt 0.53646588 2.22410011
vt 0.55729997 2.17199993
vt 0.98439997 2.22399998
vt 1.43229997 2.17190003
vt 1.45309997 2.17190003
vt 0.98439997 2.22399998
vt 1.00519896 2.22399998
vt 1.43229997 2.17190003
vt 1.45309901 2.17189884
vt 1.00519896 2.22399902
vt 1.71869898 2.17169905
vt 1.71870005 2.17170000
vt 1.59119999 2.22399998
vt 1.71870005 2.22399998
vt 1.88020003 2.22399998
vt 1.59119999 2.35160017
vt 1.90103900 2.22399998
vt 1.71870005 2.22399998
vt -2.32032990 -0.33070195
vt -2.24744701 -0.33830500
vt -1.08329999 -0.33070195
vt -2.32030010 -0.33830202
vt -1.05730104 -0.33870101
vt -1.10420096 -0.33070099
vt -1.10420096 -0.33830094
vt 1.05729997 0.73189998
vt 1.10420001 0.73179996
vt 0.02869998 -0.26820004
vt -0.66929990 -0.26820004
vt -0.01299995 -0.26789999
vt -0.01299995 -0.26789999
vt -0.66930002 -0.26820004
vt -0.47400001 -0.26789999
vt -0.02869999 -0.33829999
vt 0.01299995 -0.33870006
vt 0.47400001 -0.33870006
vt -0.25260001 -0.26810002
vt -0.17710000 -0.26820004
vt -0.04960000 -0.39569998
vt 0.22660001 -0.33830202
vt 1.31509995 -0.33829999
vt 0.02348081 -0.33829200
vt 1.51822197 -0.33070004
vt 0.02348081 -0.33070004
vt 1.51822197 -0.33830202
vt -1.92190003 -2.07289100
vt -2.13800001 -1.21093702
vt -2.13800001 -2.28903604
vt -2.13800001 -0.99740005
vt -2.13800001 0.08069998
vt -2.13800001 1.37233353
vt -1.92190003 1.15618813
vt -1.92190003 -0.13544202
vt 0.25260001 -0.33870006
vt 0.27340001 -0.33870006
vt 0.61199999 -0.33070004
vt 1.19529998 -0.50000000
vt 0.73439997 -0.50000000
vt 0.16670001 -0.33070004
vt -2.19269896 2.04169989
vt -1.69789898 1.98969960
vt -2.09379911 1.98959947
vt -2.19269991 2.04169989
vt -2.32030010 2.16930008
vt -2.09377289 2.04169989
vt -2.09380007 2.04169989
vt -1.21609998 2.04180002
vt -1.19529998 1.98969984
vt -1.02859998 2.04169989
vt -0.90100002 2.04169989
vt -0.90100002 1.98940003
vt -1.19529903 2.04180002
vt -1.02859998 2.04169989
vt -1.19529903 1.98969960
vt -0.84880000 1.98940003
vt -0.73439997 2.04169989
vt -0.73439997 1.98959994
vt -0.90100002 2.04169989
vt -0.73439997 2.04169989
vt -0.90100002 1.98940003
vt -0.23176891 1.98959994
vt 0.22906829 2.04169989
vt 0.24995910 1.98959994
vt -0.71356791 2.04169989
vt -0.71350002 1.98959994
vt -0.73433208 1.98959994
vt 0.22920001 2.04169989
vt 0.39060000 1.98940003
vt 0.25000000 1.98959994
vt 0.39060000 2.04169989
vt 0.71090001 2.04169989
vt 0.39060000 1.98940003
vt 1.45829999 -0.50000000
vt -642.12988281 498.70471191
vt -642.09838867 671.37011719
vt -642.09448242 547.89758301
vt -642.09838867 865.11810303
vt -0.26300001 0.60420001
vt -0.22660001 0.60430002
vt -0.26306790 0.60420001
vt -0.76562989 0.60420001
vt -0.15099990 0.60420024
vt -0.22659990 0.60430020
vt -0.22659990 0.73180008
vt -0.27340001 -0.26810002
vt -0.27340001 -0.39579999
vt -0.48440000 -0.39579999
vt -0.27340001 -0.26810002
vt -0.25260001 -0.39579999
vt -0.27340001 -0.39579999
vt -0.27340001 -0.26810002
vt 1.08329999 -0.26820004
vt 1.21613503 -0.39579999
vt 0.95570010 -0.39579999
vt 1.19529998 -0.26810300
vt 2.10423803 -0.39580095
vt 1.21609998 -0.39580297
vt 1.65629995 -0.26810300
vt 2.08330011 -0.26810002
vt 2.19269991 -0.39579999
vt 1.65629995 -0.26810002
vt 1.88020003 2.35169983
vt 2.01040006 2.22399998
vt 1.90100002 2.22399998
vt -2.13807797 -0.33829999
vt -0.84640002 -0.33070004
vt -2.13807797 -0.33070004
vt -1.59119999 -0.33829999
vt -0.55729997 -0.33870006
vt -0.29949999 -0.33070004
vt -0.53646529 -0.33870006
vt 0.37230000 2.27869987
vt 0.55729997 2.22410011
vt 0.53649998 2.22410011
vt 0.37229991 2.27869987
vt 1.00520003 2.22399998
vt 0.55729991 2.22410011
vt 0.37230030 2.27870083
vt 0.53650039 2.22410107
vt 0.42710030 2.22400093
vt 1.00520003 2.22399998
vt 1.45313597 2.22399998
vt 1.45309997 2.22399998
vt 1.59119999 2.35160017
vt 1.71870005 2.22399998
vt 1.59119999 2.22399998
vt -0.53649998 -0.33870006
vt -0.29949999 -0.33829999
vt 2.32030010 -0.26820004
vt 2.24749994 -0.34109998
vt 2.24749994 -0.26820004
vt -2.24750090 -0.33830094
vt -1.65630102 -0.33870101
vt -1.08330095 -0.33070099
vt -1.19529998 -0.33870006
vt -1.08329999 -0.33829999
vt -1.08329999 -0.33070004
vt 0.61199999 -0.33829999
vt -0.02339994 0.73179996
vt -0.15099999 0.60420001
vt -0.22660001 0.73179996
vt 0.76560020 -0.33870006
vt 1.31509995 -0.33829999
vt 0.22660001 -0.33829999
vt -1.24740005 0.73190010
vt -1.51820004 0.73180008
vt -1.31509995 0.73180008
vt -0.26300001 -0.33829999
vt -1.34109998 -0.33069098
vt -1.34109998 -0.33829999
vt -0.04946955 -0.33070195
vt 2.32030010 -0.33828604
vt 1.24220002 -0.33070004
vt 1.24220002 -0.33829999
vt 2.32030010 -0.33070004
vt 2.10401893 -0.33070004
vt 1.02859998 -0.33070004
vt -0.04949998 -0.33070004
vt -0.04949998 -0.33829999
vt 0.71350002 -0.33870006
vt -2.09380007 2.04169989
vt -2.32030010 2.16930008
vt -1.69790006 2.04180002
vt 1.90100002 2.35169983
vt 2.13800001 2.35160017
vt 2.01040006 2.22399998
vt -2.09380007 2.04169989
vt -1.69793606 2.04180002
vt -1.21609998 2.04180002
vt -1.21609998 2.04180002
vt -1.19529998 2.04180002
vt -1.19529998 1.98970008
vt -642.12988281 0.78838712
vt -642.09838867 114.22519684
vt -642.09448242 49.97795105
vt -642.09838867 299.94061279
vt -1.02859998 2.04169989
vt -1.19529998 2.04180002
vt -1.19529998 2.16960001
vt 0.25000000 2.04169989
vt 0.26300001 2.04169989
vt 0.39060000 2.04169989
vt 1.21350002 2.04169989
vt 0.26300001 2.04169989
vt 0.71090001 2.16939998
vt -0.22660001 0.60430002
vt -0.76560009 0.60420001
vt -1.51820004 0.73179996
vt -0.22660001 0.60430002
vt -0.26300001 0.73189998
vt -0.22660001 0.73179996
vt -0.27339980 -0.26809895
vt -0.48439959 -0.39579904
vt -0.61199951 -0.26819897
vt 1.19529998 -0.26810002
vt 1.21609998 -0.39579999
vt -1.65629995 -0.33870006
vt -1.19526196 -0.33870006
vt -2.24749994 -0.33829999
vt -2.08330011 -0.33870006
vt 2.10419893 -0.26810002
vt 2.19269896 -0.39579904
vt 2.08329892 -0.26810002
vt 1.88020098 2.35170102
vt 1.90100098 2.35170102
vt 2.01040101 2.22400093
vt -1.88020003 -0.33870006
vt -1.59119999 -0.33829999
vt -2.13800001 -0.33829999
vt -0.98439991 -0.33870006
vt -0.84639990 -0.33070004
vt -0.84640002 -0.33829999
vt 0.55729997 2.35190010
vt 0.84640002 2.35160017
vt 0.53649998 2.35190010
vt 0.37230000 2.27869987
vt 0.84640002 2.35160017
vt 2.24749804 -0.26819897
vt 2.24749804 -0.34109902
vt 2.19269800 -0.39579904
vt -254.60549927 -447.94088745
vt -480.47640991 -447.96850586
vt -427.27169800 -447.94088745
vt 1.45309997 2.35169983
vt 0.29949999 2.35160017
vt 0.53649998 2.35190010
vt 0.76562989 -0.33870006
vt 0.22660001 -0.33829999
vt 0.26306790 -0.33870006
vt 1.22660100 -0.33870101
vt 1.31510103 -0.33830094
vt 0.76560050 -0.33870101
vt -0.22660020 0.60429960
vt -1.51820099 0.73179972
vt -1.24740100 0.73189974
vt 1.24740005 -0.33870006
vt 1.31509995 -0.33829999
vt 1.22660005 -0.33870006
vt -0.26300001 -0.33829999
vt -1.34109998 -0.33829999
vt -0.73180002 -0.33870006
vt -0.04949998 -0.33070004
vt -0.22920001 -0.33870006
vt 1.21609998 -0.33870006
vt 2.32030010 -0.33829999
vt 1.24220002 -0.33829999
vt 2.09380007 -0.33870006
vt -0.04949998 -0.33829999
vt 1.02859998 -0.33829999
vt -1.69793606 2.04180002
vt -2.32030010 2.16930008
vt -1.21609998 2.04180002
vt -1.90100002 -0.33870006
vt -2.11459994 2.16939998
vt -2.09380007 2.16939998
vt -1.21609902 2.04180002
vt -0.25260001 2.04169989
vt -1.02859998 2.04169989
vt 0.22920001 2.16939998
vt -1.02859998 2.16930008
vt -1.24220002 2.16930008
vt -642.09838867 493.68499756
vt -642.09838867 307.97131348
vt -642.12988281 498.70471191
vt -642.09838867 485.65750122
vt 0.26299989 2.04169989
vt 0.26299989 2.16930008
vt 0.71089977 2.16939998
vt 1.21350002 2.04169989
vt 0.71090001 2.16939998
vt 0.73180002 2.16939998
vt -0.76560003 0.60420001
vt -1.39068496 0.60420001
vt -1.51820004 0.73179996
vt -0.76562989 0.73189998
vt -0.26306790 0.73189998
vt -2.10419989 -0.33870006
vt 2.10419798 -0.26809895
vt -0.98439997 -0.33870006
vt -0.98439997 -0.33870006
vt -1.59119999 -0.33829999
vt -1.43229997 -0.33870006
vt 0.37230039 2.27870083
vt 0.53650051 2.35190105
vt 0.84640080 2.35160112
vt 0.98439997 2.35169983
vt 1.00520003 2.22399998
vt 1.43229997 2.35169983
vt 1.59119999 2.22399998
vt 1.43229997 2.35169983
vt -1.45309997 -0.33870006
vt 578.85430908 -133.77639771
vt 401.16931152 -133.77560425
vt 586.88580322 -133.77639771
vt -1.24740005 0.73189998
vt -0.76560003 0.73189998
vt -0.26300019 -0.33830094
vt -0.73180050 -0.33870101
vt -0.71090049 -0.33870101
vt 1.34109998 2.16930008
vt -0.25000000 -0.33870006
vt 1.19529998 -0.33870006
vt -1.24220002 2.16930008
vt -1.21609998 2.16960001
vt -1.19529998 2.16960001
vt 2.11459994 -0.33870006
vt -0.23180000 2.16939998
vt 0.04949998 2.16930008
vt 0.22920001 2.16939998
vt 0.71349931 -0.33869898
vt -0.04949993 -0.33829904
vt 0.25259981 -0.33869898
vt 0.73439997 -0.33870006
vt 1.24220097 -0.33070099
vt 1.02860105 -0.33830094
vt 1.19530106 -0.33870101
vt -1.02859998 2.04169989
vt -0.71350002 2.16939998
vt 0.22920001 2.16939998
vt -0.25260001 2.04169989
vt 0.22920001 2.16939998
vt -0.23180000 2.04169989
vt -1.02859902 2.04169893
vt -1.02859902 2.16929913
vt -0.73439950 2.16939902
vt -0.23180000 2.04169989
vt 0.22920001 2.16939998
vt 0.26300001 2.04169989
vt 0.25000000 2.16939998
vt 0.26300001 2.16930008
vt 246.57440186 -133.77560425
vt 419.24020386 -133.77319336
vt 254.60549927 -133.77560425
vt 1.00520003 2.35169983
vt 1.00520003 2.35169983
vt 1.43229997 2.35169983
vt 1.00520003 2.22399998
vt 0.22920001 2.16939998
vt -121.25630188 -133.77279663
vt -306.97131348 -133.77439880
vt -484.65750122 -133.77430725
vt -298.94061279 -133.77439880
vt 0.25260010 -0.33870006
vt -0.04949999 -0.33829999
vt 0.23180009 -0.33870006
vt -0.73439997 2.16939998
vt -0.71350002 2.16939998
vt 0.02869999 -0.26820004
vt -0.01299995 -0.26789999
vt 0.00779998 -0.26789999
vt -0.00779998 -0.33870006
vt -0.02869999 -0.33829999
vt -250.17439270 -100.64060211
vt -406.77560425 -100.63950348
vt -242.14329529 -100.63939667
vt -242.14329529 -100.63939667
vt -406.77560425 -100.63950348
vt -250.17439270 -100.64060211
vt -0.47400010 -0.26789999
vt -0.66930008 -0.26820004
vt -0.49480009 -0.26789999
vt 0.49480009 -0.33870006
vt 0.66930008 -0.33829999
vt 0.47400010 -0.33870006
vt -2.09380007 2.16939998
vt -1.69790006 2.16960001
vt -1.67709994 2.16960001
vt -249.94920349 664.83569336
vt -257.97988892 664.83837891
vt -410.56610107 664.83288574
vt -1.24220002 2.16930008
vt -2.09380007 2.16939998
vt -1.67709994 2.16960001
vt 1.67709994 -0.33870006
vt 2.09379911 -0.33870006
vt 1.24220002 -0.33829999
vt 2.71050000 -1.59379911
vt 2.60159993 -1.35939908
vt 2.60159612 -1.59379911
vt 2.86719990 -1.35939908
vt 2.86719990 -1.35939908
vt 2.71050000 -1.59379911
vt 2.60159993 -1.35939908
vt 2.60159612 -1.59379911
f 1/1 2/2 3/3
f 4/4 5/5 6/6
f 7/7 8/8 9/9
f 10/10 11/11 12/12
f 13/13 14/14 15/15
f 16/16 17/17 18/18
f 19/19 20/20 21/21
f 20/20 19/19 22/22
f 23/23 24/24 25/25
f 24/24 23/23 26/26
f 25/25 27/27 28/28
f 27/27 25/25 29/29
f 29/29 25/25 30/30
f 30/30 25/25 31/31
f 31/31 25/25 32/32
f 32/32 25/25 33/33
f 33/33 25/25 24/24
f 30/30 34/34 35/35
f 34/34 30/30 36/36
f 36/36 30/30 37/37
f 37/37 30/30 31/31
f 37/37 31/31 38/38
f 37/37 38/38 39/39
f 40/40 41/41 42/42
f 43/43 44/44 45/45
f 44/44 43/43 46/46
f 47/47 48/48 49/49
f 50/50 51/51 52/52
f 51/51 50/50 53/53
f 51/51 53/53 54/54
f 51/51 54/54 55/55
f 51/51 55/55 56/56
f 57/57 58/58 59/59
f 60/60 57/57 59/59
f 61/61 62/62 63/63
f 64/64 65/65 66/66
f 67/67 68/68 69/69
f 70/70 71/71 72/72
f 73/73 74/74 75/75
f 74/74 73/73 76/76
f 76/76 73/73 77/77
f 77/77 73/73 78/78
f 79/79 80/80 81/81
f 80/80 79/79 82/82
f 80/80 82/82 83/83
f 84/84 85/85 86/86
f 87/87 88/88 89/89
f 88/88 87/87 90/90
f 91/91 92/92 93/93
f 94/94 95/95 96/96
f 95/95 94/94 97/97
f 97/97 94/94 98/98
f 41/41 99/99 42/42
f 100/100 101/101 102/102
f 103/103 70/70 104/104
f 70/70 103/103 105/105
f 106/106 107/107 108/108
f 109/109 110/110 111/111
f 110/110 109/109 112/112
f 112/112 109/109 113/113
f 114/114 115/115 116/116
f 115/115 117/117 118/118
f 117/117 115/115 114/114
f 117/117 114/114 119/119
f 120/120 121/121 122/122
f 123/123 124/124 125/125
f 126/126 127/127 128/128
f 129/129 130/130 131/131
f 130/130 129/129 132/132
f 132/132 129/129 133/133
f 134/134 135/135 59/59
f 134/134 59/59 136/136
f 41/41 137/137 99/99
f 138/138 139/139 140/140
f 139/139 138/138 141/141
f 141/141 138/138 142/142
f 141/141 142/142 143/143
f 141/141 143/143 144/144
f 144/144 143/143 145/145
f 146/146 147/147 148/148
f 147/147 146/146 149/149
f 150/150 151/151 152/152
f 151/151 150/150 153/153
f 153/153 150/150 154/154
f 155/155 156/156 157/157
f 158/158 159/159 160/160
f 80/80 161/161 81/81
f 80/80 162/162 161/161
f 163/163 164/164 165/165
f 164/164 163/163 166/166
f 166/166 163/163 167/167
f 167/167 163/163 168/168
f 168/168 163/163 169/169
f 170/170 171/171 172/172
f 173/173 100/100 102/102
f 174/174 175/175 176/176
f 175/175 174/174 177/177
f 178/178 179/179 180/180
f 181/181 182/182 183/183
f 184/184 185/185 186/186
f 185/185 184/184 187/187
f 188/188 189/189 190/190
f 189/189 188/188 191/191
f 192/192 193/193 194/194
f 195/195 196/196 197/197
f 196/196 195/195 198/198
f 198/198 195/195 199/199
f 198/198 199/199 200/200
f 198/198 200/200 201/201
f 198/198 201/201 202/202
f 203/203 204/204 205/205
f 206/206 207/207 208/208
f 209/209 210/210 211/211
f 129/129 212/212 125/125
f 129/129 125/125 213/213
f 214/214 215/215 216/216
f 215/215 214/214 217/217
f 217/217 214/214 218/218
f 219/219 220/220 221/221
f 220/220 219/219 222/222
f 222/222 219/219 223/223
f 224/224 225/225 226/226
f 227/227 228/228 229/229
f 230/230 227/227 229/229
f 231/231 232/232 233/233
f 232/232 231/231 234/234
f 235/235 236/236 237/237
f 236/236 235/235 238/238
f 236/236 238/238 239/239
f 239/239 238/238 240/240
f 240/240 238/238 241/241
f 241/241 238/238 242/242
f 242/242 238/238 243/243
f 242/242 243/243 244/244
f 244/244 243/243 245/245
f 245/245 243/243 246/246
f 245/245 246/246 247/247
f 247/247 246/246 248/248
f 247/247 248/248 249/249
f 250/250 251/251 252/252
f 251/251 250/250 253/253
f 251/251 253/253 254/254
f 255/255 256/256 257/257
f 256/256 255/255 258/258
f 259/259 260/260 261/261
f 262/262 263/263 264/264
f 263/263 262/262 265/265
f 263/263 265/265 266/266
f 263/263 266/266 267/267
f 268/268 269/269 270/270
f 271/271 180/180 272/272
f 180/180 271/271 273/273
f 274/274 275/275 276/276
f 275/275 274/274 277/277
f 278/278 279/279 280/280
f 279/279 278/278 281/281
f 282/282 283/283 284/284
f 283/283 282/282 285/285
f 173/173 102/102 286/286
f 287/287 288/288 289/289
f 290/290 291/291 176/176
f 292/292 293/293 294/294
f 295/295 296/296 297/297
f 296/296 295/295 298/298
f 299/299 300/300 301/301
f 300/300 299/299 302/302
f 302/302 299/299 303/303
f 304/304 305/305 306/306
f 307/307 308/308 309/309
f 308/308 307/307 310/310
f 310/310 307/307 311/311
f 312/312 313/313 314/314
f 313/313 312/312 315/315
f 315/315 312/312 316/316
f 314/314 317/317 318/318
f 317/317 314/314 319/319
f 319/319 314/314 320/320
f 320/320 314/314 321/321
f 321/321 314/314 322/322
f 322/322 314/314 323/323
f 323/323 314/314 324/324
f 324/324 314/314 313/313
f 323/323 324/324 325/325
f 321/321 326/326 327/327
f 326/326 321/321 328/328
f 328/328 321/321 329/329
f 329/329 321/321 322/322
f 320/320 330/330 331/331
f 330/330 320/320 321/321
f 332/332 333/333 334/334
f 335/335 333/333 336/336
f 333/333 335/335 337/337
f 338/338 335/335 336/336
f 339/339 340/340 341/341
f 342/342 343/343 344/344
f 345/345 346/346 347/347
f 348/348 349/349 350/350
f 351/351 352/352 353/353
f 352/352 351/351 354/354
f 355/355 218/218 356/356
f 357/357 358/358 359/359
f 360/360 361/361 362/362
f 363/363 364/364 365/365
f 366/366 367/367 368/368
f 367/367 366/366 369/369
f 370/370 371/371 372/372
f 371/371 370/370 373/373
f 374/374 375/375 376/376
f 377/377 378/378 379/379
f 377/377 379/379 380/380
f 380/380 379/379 381/381
f 382/382 383/383 384/384
f 383/383 382/382 385/385
f 385/385 382/382 386/386
f 385/385 386/386 387/387
f 387/387 386/386 388/388
f 389/389 390/390 391/391
f 392/392 393/393 394/394
f 395/395 396/396 397/397
f 398/398 399/399 400/400
f 401/401 400/400 402/402
f 400/400 401/401 403/403
f 404/404 405/405 406/406
f 405/405 404/404 407/407
f 408/408 409/409 410/410
f 411/411 412/412 379/379
f 412/412 411/411 413/413
f 414/414 415/415 416/416
f 415/415 414/414 417/417
f 417/417 414/414 418/418
f 418/418 414/414 419/419
f 420/420 421/421 422/422
f 423/423 424/424 425/425
f 424/424 423/423 426/426
f 427/427 428/428 429/429
f 428/428 427/427 430/430
f 431/431 432/432 433/433
f 432/432 431/431 434/434
f 435/435 436/436 424/424
f 279/279 289/289 437/437
f 289/289 438/438 437/437
f 439/439 440/440 441/441
f 442/442 443/443 444/444
f 445/445 446/446 447/447
f 448/448 449/449 450/450
f 451/451 452/452 453/453
f 452/452 451/451 454/454
f 452/452 454/454 455/455
f 448/448 456/456 457/457
f 458/458 459/459 460/460
f 459/459 458/458 461/461
f 462/462 463/463 464/464
f 465/465 466/466 467/467
f 468/468 469/469 470/470
f 468/468 471/471 469/469
f 472/472 473/473 474/474
f 475/475 476/476 477/477
f 476/476 475/475 478/478
f 476/476 478/478 479/479
f 480/480 481/481 482/482
f 483/483 484/484 485/485
f 486/486 487/487 488/488
f 487/487 486/486 489/489
f 490/490 491/491 492/492
f 493/493 494/494 495/495
f 496/496 497/497 498/498
f 499/499 500/500 501/501
f 502/502 503/503 504/504
f 505/505 506/506 507/507
f 508/508 509/509 510/510
f 511/511 512/512 513/513
f 514/514 515/515 516/516
f 517/517 518/518 519/519
f 338/338 520/520 521/521
f 338/338 522/522 523/523
f 524/524 525/525 526/526
f 527/527 528/528 529/529
f 530/530 531/531 532/532
f 533/533 534/534 535/535
f 536/536 537/537 538/538
f 539/539 540/540 541/541
f 540/540 539/539 542/542
f 542/542 539/539 543/543
f 544/544 545/545 546/546
f 381/381 547/547 548/548
f 547/547 381/381 549/549
f 395/395 386/386 396/396
f 395/395 388/388 386/386
f 550/550 551/551 552/552
f 553/553 554/554 555/555
f 554/554 553/553 556/556
f 556/556 553/553 557/557
f 558/558 559/559 560/560
f 559/559 558/558 561/561
f 559/559 561/561 562/562
f 563/563 564/564 565/565
f 566/566 567/567 568/568
f 567/567 566/566 569/569
f 570/570 571/571 572/572
f 573/573 574/574 575/575
f 576/576 577/577 578/578
f 577/577 576/576 579/579
f 580/580 581/581 582/582
f 581/581 580/580 583/583
f 584/584 585/585 586/586
f 428/428 434/434 431/431
f 587/587 588/588 433/433
f 589/589 590/590 591/591
f 592/592 593/593 594/594
f 595/595 596/596 597/597
f 598/598 599/599 600/600
f 601/601 602/602 603/603
f 603/603 604/604 605/605
f 604/604 603/603 602/602
f 604/604 602/602 606/606
f 607/607 608/608 609/609
f 608/608 607/607 610/610
f 610/610 607/607 611/611
f 611/611 607/607 612/612
f 612/612 607/607 613/613
f 613/613 607/607 614/614
f 615/615 616/616 617/617
f 618/618 619/619 620/620
f 621/621 622/622 623/623
f 624/624 625/625 626/626
f 627/627 628/628 629/629
f 630/630 631/631 632/632
f 633/633 634/634 635/635
f 636/636 637/637 638/638
f 639/639 640/640 641/641
f 642/642 643/643 644/644
f 643/643 642/642 645/645
f 645/645 642/642 646/646
f 645/645 646/646 647/647
f 645/645 647/647 637/637
f 648/648 649/649 650/650
f 651/651 652/652 653/653
f 654/654 618/618 620/620
f 550/550 552/552 654/654
f 655/655 656/656 657/657
f 656/656 655/655 658/658
f 338/338 659/659 522/522
f 660/660 661/661 662/662
f 663/663 664/664 665/665
f 666/666 667/667 668/668
f 669/669 670/670 671/671
f 598/598 600/600 672/672
f 673/673 674/674 675/675
f 676/676 677/677 678/678
f 677/677 676/676 679/679
f 680/680 681/681 682/682
f 683/683 684/684 685/685
f 686/686 687/687 688/688
f 687/687 686/686 689/689
f 690/690 691/691 687/687
f 691/691 690/690 692/692
f 693/693 694/694 695/695
f 696/696 697/697 698/698
f 699/699 700/700 701/701
f 573/573 702/702 703/703
f 573/573 704/704 574/574
f 705/705 706/706 707/707
f 577/577 683/683 685/685
f 708/708 709/709 691/691
f 710/710 711/711 712/712
f 713/713 714/714 715/715
f 716/716 717/717 718/718
f 616/616 719/719 617/617
f 720/720 721/721 722/722
f 723/723 724/724 725/725
f 726/726 727/727 728/728
f 729/729 730/730 731/731
f 730/730 729/729 732/732
f 733/733 734/734 735/735
f 734/734 733/733 736/736
f 737/737 654/654 620/620
f 738/738 739/739 740/740
f 734/734 738/738 741/741
f 742/742 743/743 744/744
f 745/745 746/746 747/747
f 748/748 749/749 750/750
f 751/751 752/752 753/753
f 754/754 755/755 756/756
f 755/755 754/754 757/757
f 758/758 759/759 760/760
f 648/648 761/761 649/649
f 762/762 763/763 649/649
f 764/764 765/765 766/766
f 767/767 768/768 769/769
f 770/770 771/771 772/772
f 773/773 774/774 775/775
f 776/776 777/777 673/673
f 778/778 779/779 718/718
f 780/780 781/781 778/778
f 782/782 783/783 784/784
f 785/785 786/786 787/787
f 788/788 789/789 790/790
f 791/791 792/792 689/689
f 690/690 687/687 793/793
f 794/794 795/795 796/796
f 797/797 798/798 697/697
f 799/799 800/800 801/801
f 802/802 803/803 804/804
f 805/805 705/705 707/707
f 806/806 807/807 797/797
f 808/808 809/809 810/810
f 811/811 812/812 813/813
f 814/814 815/815 816/816
f 817/817 818/818 819/819
f 820/820 821/821 822/822
f 823/823 729/729 824/824
f 734/734 825/825 735/735
f 826/826 827/827 828/828
f 823/823 824/824 829/829
f 738/738 740/740 741/741
f 734/734 741/741 830/830
f 831/831 832/832 833/833
f 834/834 788/788 790/790
f 759/759 835/835 836/836
f 835/835 759/759 837/837
f 838/838 839/839 840/840
f 758/758 760/760 841/841
f 759/759 842/842 760/760
f 761/761 762/762 649/649
f 843/843 844/844 845/845
f 844/844 843/843 846/846
f 847/847 848/848 849/849
f 850/850 851/851 852/852
f 853/853 854/854 855/855
f 770/770 856/856 857/857
f 780/780 858/858 781/781
f 859/859 799/799 801/801
f 860/860 793/793 687/687
f 861/861 862/862 863/863
f 864/864 865/865 866/866
f 798/798 867/867 697/697
f 868/868 869/869 870/870
f 871/871 805/805 707/707
f 863/863 862/862 872/872
f 873/873 874/874 875/875
f 767/767 876/876 877/877
f 878/878 879/879 880/880
f 850/850 852/852 881/881
f 824/824 729/729 882/882
f 734/734 883/883 825/825
f 884/884 885/885 886/886
f 826/826 828/828 887/887
f 759/759 836/836 842/842
f 888/888 889/889 890/890
f 891/891 892/892 893/893
f 830/830 741/741 894/894
f 895/895 896/896 897/897
f 833/833 832/832 835/835
f 898/898 899/899 900/900
f 901/901 902/902 903/903
f 904/904 905/905 906/906
f 907/907 908/908 909/909
f 765/765 910/910 911/911
f 912/912 913/913 914/914
f 867/867 915/915 697/697
f 916/916 917/917 918/918
f 765/765 919/919 910/910
f 920/920 921/921 922/922
f 921/921 920/920 923/923
f 924/924 925/925 926/926
f 758/758 927/927 928/928
f 929/929 930/930 931/931
f 932/932 596/596 933/933
f 934/934 935/935 936/936
f 937/937 938/938 939/939
f 940/940 941/941 942/942
f 943/943 944/944 945/945
f 946/946 947/947 948/948
f 949/949 950/950 951/951
f 952/952 953/953 954/954
f 955/955 956/956 957/957
f 958/958 959/959 960/960
f 959/959 958/958 961/961
f 962/962 963/963 964/964
f 965/965 964/964 963/963

