# https://github.com/mikedh/trimesh
v 1.36023275 -0.02258722 -0.63326184
v 1.36023261 0.20829988 -0.56299600
v 1.36024035 0.20830945 -0.56300288
v 1.36022377 -0.02259039 -0.56299807
v 1.36021693 0.20830192 -0.63327401
v 1.36022721 0.20829982 -0.63326801
v 1.36023459 0.59981716 -0.46260915
v 1.36024075 0.20829904 -0.46260605
v 1.36023777 0.59981104 -0.63327077
v 1.35018692 0.59980747 -0.46260690
v 1.35018635 0.20830199 -0.56299936
v 1.35019636 0.20830472 -0.56299604
v 1.35018865 0.20830250 -0.46260326
v 1.35020251 0.20829521 -0.63325620
v 1.35020156 0.20830838 -0.63326427
v 1.35019084 0.59981984 -0.63325332
v 1.35020450 -0.02257788 -0.63326367
v 1.35018507 -0.02258639 -0.56299410
vt 7.41179991 -4.85589981
vt 8.00150108 -5.20590019
vt 8.00209999 -5.42458487
vt 7.41179991 -5.20590019
vt 8.00150108 -4.85589981
vt 8.00209999 -5.07460022
vt 9.00209999 -5.92460012
vt 8.00209999 -5.92460012
vt 9.00209999 -5.07460022
vt -9.00217438 -5.92459583
vt -8.00209999 -5.42460012
vt -8.00209999 -5.12769985
vt -8.00209999 -5.92460489
vt -8.00209999 -5.07462215
vt -8.00209999 -4.77769995
vt -9.00217438 -5.07461309
vt -7.41239977 -4.77769995
vt -7.41239977 -5.12769985
f 1/1 2/2 4/4
f 2/2 1/1 5/5
f 3/3 7/7 8/8
f 7/7 3/3 6/6
f 7/7 6/6 9/9
f 10/10 11/11 13/13
f 11/11 10/10 14/14
f 14/14 10/10 16/16
f 12/12 17/17 18/18
f 17/17 12/12 15/15

