# https://github.com/mikedh/trimesh
v 1.04904094 -8.33461128 -1.62706811
v -3.08690720 -7.54155699 -1.62707974
v -3.08685670 -8.33456582 -1.62712473
v 1.04898234 -7.54156068 -1.62709323
v -3.08700955 -7.54154364 -1.62714745
v -3.08694246 -8.33462864 -1.70741775
v -3.08689428 -8.33456180 -1.62710050
v -3.08685406 -7.54156244 -1.70738948
v 1.04907370 -8.33460175 -1.62712641
v -3.08695044 -8.33462499 -1.70739515
v 1.04899312 -8.33461452 -1.70741113
v -3.08688884 -8.33459667 -1.62708012
v 1.04900810 -8.33461117 -1.70737140
v 1.04909855 -7.54158746 -1.62703121
v 1.04909233 -8.33457280 -1.62708395
v 1.04902242 -7.54147301 -1.70732172
vt 1.62500000 -4.12500000
vt 4.84392881 -3.50780010
vt 4.84392881 -4.12500000
vt 1.62500000 -3.50780010
vt 3.50780010 -0.07029998
vt 4.12504482 -0.00779998
vt 4.12504482 -0.07029998
vt 3.50780010 -0.00779998
vt 1.62483597 -0.07029998
vt 4.84380007 -0.00779998
vt 1.62478995 -0.00779998
vt 4.84384584 -0.07029998
vt 4.12504482 -0.00779998
vt 3.50775504 -0.07029998
vt 4.12500000 -0.07029998
vt 3.50780010 -0.00779998
f 1/1 2/2 3/3
f 2/2 1/1 4/4
f 5/5 6/6 7/7
f 6/6 5/5 8/8
f 9/9 10/10 11/11
f 10/10 9/9 12/12
f 13/13 14/14 15/15
f 14/14 13/13 16/16

