# https://github.com/mikedh/trimesh
v 2.48456435 -5.81488302 -0.66337425
v 2.48456412 -5.83496612 -1.62709179
v 2.48457710 -5.83495008 -0.66338879
v 2.48454929 -5.81488834 -1.62709525
v 2.48453783 -5.81488396 -0.66339466
v 2.97644960 -5.81488748 -1.62709912
v 2.48456744 -5.81487031 -1.62709709
v 2.97647231 -5.81488879 -0.66337737
v 2.97646730 -5.81488057 -1.62710375
v 2.48455301 -5.83496528 -1.62709332
v 2.48455206 -5.81488386 -1.62709742
v 2.97646337 -5.83495800 -1.62709185
v 2.97645044 -5.83496173 -0.66337269
v 2.48457915 -5.83497395 -1.62707932
v 2.97647208 -5.83495187 -1.62709284
v 2.48455959 -5.83494455 -0.66335996
v 2.97647702 -5.83494610 -0.66337731
v 2.48454991 -5.81488164 -0.66337407
v 2.48454905 -5.83495605 -0.66337652
v 2.97646505 -5.81489441 -0.66338834
v 2.97645280 -5.83497299 -1.62707688
v 2.97645215 -5.81487803 -0.66338397
v 2.97647466 -5.83494604 -0.66337432
v 2.97643367 -5.81488103 -1.62708830
vt 3.41520000 -0.79879999
vt 3.43750000 -0.04879999
vt 3.43750000 -0.79879999
vt 3.41520000 -0.04879999
vt -1.83039999 -0.79879999
vt -1.28349996 -0.04879999
vt -1.83039999 -0.04879999
vt -1.28349996 -0.79879999
vt 3.41520000 0.13870001
vt 3.43750000 0.52149999
vt 3.41520000 0.52149999
vt 3.43750000 0.13870001
vt -1.28349996 -0.79879999
vt -1.83039999 -0.04879999
vt -1.28349996 -0.04879999
vt -1.83039999 -0.79879999
vt 3.43750000 0.13870001
vt 3.41520000 0.52149999
vt 3.43750000 0.52149999
vt 3.41520000 0.13870001
vt 3.43750000 -0.04879999
vt 3.41520000 -0.79879999
vt 3.43750000 -0.79879999
vt 3.41520000 -0.04879999
f 1/1 2/2 3/3
f 2/2 1/1 4/4
f 5/5 6/6 7/7
f 6/6 5/5 8/8
f 9/9 10/10 11/11
f 10/10 9/9 12/12
f 13/13 14/14 15/15
f 14/14 13/13 16/16
f 17/17 18/18 19/19
f 18/18 17/17 20/20
f 21/21 22/22 23/23
f 22/22 21/21 24/24

