# https://github.com/mikedh/trimesh
v -1.13938062 -0.44422057 -0.96448328
v -1.12934346 -0.44425738 -1.18535908
v -1.13927317 -0.44412216 -1.18545623
v -1.12946842 -0.44426536 -0.96453791
v -1.12956505 -0.44422848 -1.18550567
v -1.13945887 -0.74541920 -1.18542098
v -1.13935455 -0.44411346 -1.18540378
v -1.12922842 -0.74543023 -1.18536008
v -1.12927064 -0.74536099 -0.96460956
v -1.13947614 -0.44425027 -0.96452160
v -1.13948416 -0.74538864 -0.96455628
v -1.12930371 -0.44418895 -0.96450928
v -1.12941265 -0.74538139 -0.96447027
v -1.13925590 -0.74548439 -1.18525407
v -1.12923029 -0.74529832 -1.18536802
v -1.13942072 -0.74523661 -0.96436300
v 3.43840404 -1.79930878 -1.30582509
v 3.09681608 -1.29749598 -1.30579766
v 3.09680878 -1.79939268 -1.30581848
v 3.43830322 -1.29760356 -1.30591787
v 2.25363452 0.30858248 -0.46244970
v 2.25362909 0.29868005 -1.59700232
v 2.25381872 0.29877023 -0.46255056
v 2.25347337 0.30869409 -1.59691639
v 2.25376587 0.30863300 -1.59681259
v 2.29371015 0.30862902 -1.62700944
v 2.25367879 0.30887195 -1.62707752
v 2.29377282 0.30865472 -0.46270782
v 2.25355780 0.30874664 -0.46255532
v 2.25379237 0.29858124 -1.59682471
v 1.96252506 0.30883292 -1.59701821
v 1.96248420 0.29867283 -1.59688468
v 2.25368900 0.30863595 -1.59710105
v 1.92227209 0.30873519 -1.62700445
v 1.96253629 0.30859137 -1.59689913
v 2.25355755 0.30862432 -1.62703808
v 1.92219471 0.30872439 -0.46266136
v 1.96256124 0.30868225 -0.46258989
v 2.25373762 0.30862019 -1.59684916
v 1.96261748 0.29872700 -1.59687251
v 1.96262309 0.30876613 -0.46260142
v 1.96242116 0.29863751 -0.46267849
v 1.96242153 0.30871292 -1.59703059
v 1.92230599 0.30859404 -0.46258384
v 1.92243261 0.29877065 -1.62709598
v 1.92249491 0.29877770 -0.46250343
v 1.92218420 0.30880139 -1.62706374
v 1.92243855 0.29868368 -0.46257341
v 1.92242903 0.26850311 -1.59715216
v 1.92238997 0.26846236 -0.46250982
v 1.92237357 0.26854346 -1.62717219
v 1.92235334 0.29864900 -1.62723016
v 1.92242732 0.26852617 -1.59708687
v 1.92218120 0.21838972 -1.62712185
v 1.92235157 0.21832140 -1.59681309
v 1.92239536 0.26854374 -1.62723032
v 1.93258919 0.26861951 -1.59688144
v 1.92240425 0.26861944 -1.62706088
v 1.93249488 0.26852196 -1.62722912
v 1.92249373 0.26835939 -1.59700062
v 1.93242031 0.26844055 -0.46255241
v 1.92238163 0.26849600 -1.59693133
v 1.93239550 0.26866251 -1.59694669
v 1.92235665 0.26835835 -0.46272758
v 1.93253808 0.21833832 -1.59700456
v 1.92254976 0.26841887 -1.59703215
v 1.92235681 0.21839640 -1.59703925
v 1.93238303 0.26838946 -1.59691223
v 3.43831326 -1.79947215 -1.28813374
v 3.43812187 -1.81955047 -1.28802297
v 3.43825212 -1.81929676 -1.28585225
v 3.43829266 -1.81952528 -1.28572887
v 3.43823909 -1.81955862 -1.28822775
v 3.43851935 -1.79943576 -1.28833254
v -1.06917292 -0.35379971 -1.59702445
v -1.10915084 -0.34373114 -1.59699271
v -1.10931797 -0.35395317 -1.59704269
v -1.06924811 -0.34371272 -1.59683376
v -1.06922832 -0.34393032 -0.34230969
v -1.06920167 -0.35414482 -1.59708302
v -1.06899550 -0.35389306 -0.34207049
v -1.06915836 -0.34366200 -1.59696065
v -1.13942693 -0.34358979 -1.62712441
v -1.10938627 -0.34380414 -1.59698236
v -1.06901653 -0.34390660 -1.62702144
v -1.13931433 -0.34388344 -0.34213353
v -1.10935066 -0.34360863 -0.34221263
v -1.06915509 -0.34391975 -1.59701038
v -1.10927544 -0.35379152 -1.59703453
v -1.10929184 -0.34395173 -0.34222387
v -1.10902359 -0.35376659 -0.34221968
v -1.10939686 -0.34391152 -1.59698080
v -1.06911060 -0.34389044 -1.59709614
v -1.04891082 -0.34378137 -1.62712898
v -1.06913389 -0.34387084 -1.62736257
v -1.04902998 -0.34392018 -0.34223986
v -1.06917216 -0.34375577 -0.34225516
v -1.13952289 -0.34376421 -0.34207963
v -1.13947954 -0.35381026 -1.62712142
v -1.13936461 -0.35397653 -0.34207246
v -1.13928236 -0.34376446 -1.62704391
v -1.04938453 -0.34379879 -0.34215074
v -1.03900999 -0.34388006 -1.62708977
v -1.04900295 -0.34384661 -1.62713707
v -1.03888444 -0.34392336 -0.34205448
v -1.13937597 -0.35393489 -0.34217486
v -1.13947599 -0.38391801 -1.59694713
v -1.13944287 -0.38408107 -0.34212090
v -1.13930478 -0.38398995 -1.62705667
v -1.13942638 -0.35385538 -1.62712138
v -1.03896977 -0.37407826 -1.59692011
v -1.03901755 -0.34378985 -0.34217945
v -1.03896737 -0.37403839 -0.34203998
v -1.03915193 -0.37403535 -1.62707333
v -1.03886318 -0.34379719 -1.62711743
v -1.13952205 -0.38399701 -1.59698067
v -1.13923792 -0.80554477 -1.62723434
v -1.13920726 -0.80563752 -1.59705909
v -1.13925760 -0.38398411 -1.62712833
v -1.12933308 -0.38390351 -0.34205783
v -1.13951750 -0.38379732 -1.59689251
v -1.12938761 -0.38405422 -1.59706722
v -1.13938084 -0.38403965 -0.34221817
v -1.03892260 -0.37390734 -0.34218440
v -1.04897357 -0.37381589 -1.59707867
v -1.03905160 -0.37385462 -1.59691329
v -1.04901985 -0.37383458 -0.34224766
v -1.03913147 -0.50451963 -1.62708365
v -1.03906918 -0.37398501 -1.59706777
v -1.03905316 -0.50453224 -1.59694534
v -1.03892409 -0.37398440 -1.62711372
v -1.13944508 -0.80555412 -0.34214030
v -1.13924671 -0.83581645 -1.62706184
v -1.13935160 -0.83574942 -0.34209520
v -1.13952327 -0.80540828 -1.59710128
v -1.13930821 -0.80570374 -1.62698995
v -1.12938812 -0.80558705 -1.59697403
v -1.13929171 -0.38400889 -1.59724944
v -1.13946140 -0.80558475 -1.59701906
v -1.12928283 -0.38388698 -1.59699233
v -1.03913243 -0.50431439 -1.59688009
v -1.04906781 -0.37374832 -1.59701067
v -1.04914422 -0.50445483 -1.59688056
v -1.03908207 -0.37376264 -1.59706061
v -1.12926599 -0.83566690 -0.34216247
v -1.13929355 -0.83585332 -1.62697110
v -1.12935883 -0.83576602 -1.62702658
v -1.13929543 -0.83564635 -0.34196608
v -1.13929354 -0.80548552 -0.34219765
v -1.12934331 -0.80555016 -1.59698051
v -1.13936458 -0.80556264 -1.59690190
v -1.12936229 -0.80563447 -0.34222395
v 0.96864671 -5.86497182 -0.34215307
v 0.96879979 -7.46133901 -1.62727172
v 0.96863236 -7.46111614 -0.34204797
v 0.96875831 -5.86515189 -1.62710763
v 0.96870087 -5.86511019 -0.34237390
v 0.82810780 -5.86509607 -1.62695741
v 0.96874269 -5.86495098 -1.62713160
v 0.82816299 -5.86543434 -0.34210311
v 0.82823593 -5.86491789 -0.34218976
v 0.74788212 -5.86514307 -1.62720297
v 0.82812100 -5.86511020 -1.62697209
v 0.74787374 -5.86515083 -0.34213243
v 0.74789338 -5.37325014 -0.34204111
v 0.74770133 -5.86509821 -1.62703505
v 0.74775148 -5.86504579 -0.34202746
v 0.74791491 -5.37334261 -1.62716203
v 0.74798591 -4.88127162 -0.34214535
v 0.74791377 -5.37312272 -0.66344960
v 0.74784705 -5.37317544 -0.34219497
v 0.74786137 -4.88118047 -0.66347325
v 0.74804923 -4.47959241 -0.34230467
v 0.74786067 -4.88126758 -0.66345438
v 0.74780595 -4.88132048 -0.34207704
v 0.74782691 -4.88113225 -1.62706910
v 0.74786418 -4.47963163 -1.62703836
v 0.74790721 -4.47979399 -0.34198300
v -0.32618329 -4.47978234 -1.62723930
v 0.74790755 -4.47986809 -1.62725195
v -0.32628278 -4.47973813 -0.34203147
v -0.32623157 -7.46114720 -1.62720677
v -0.32625938 -4.47975247 -0.34206979
v -0.32624674 -7.46114738 -0.34219135
v -0.32622468 -4.47972596 -1.62720944
v 3.09694228 -1.79945793 -1.30603132
v 3.43832715 -1.79946171 -1.32601300
v 3.09689186 -1.79941611 -1.32579776
v 3.43822461 -1.79938563 -1.30573242
v 3.09697493 -1.79933127 -1.28819209
v 3.43831006 -1.79943400 -1.28805065
v 3.09683475 -1.79949980 -1.32581957
v 3.43822186 -1.79946145 -1.59934010
v 3.09686339 -1.79930725 -1.59946109
v 3.43822601 -1.79939707 -1.32594479
v 3.43816658 -1.81958664 -1.28810984
v 3.09683230 -1.79936978 -1.28828762
v 3.09687566 -1.81950414 -1.28826282
v 3.43829920 -1.79943040 -1.28824311
v 3.43810123 -1.29763835 -1.32593054
v 3.09682077 -1.79955318 -1.32595635
v 3.09713396 -1.29747027 -1.32586562
v 3.43825914 -1.79935731 -1.32605775
v 3.43820049 -1.79940488 -1.59934881
v 3.09690876 -1.81956817 -1.59937073
v 3.09685567 -1.79964957 -1.59945610
v 3.43828312 -1.81936545 -1.59918179
v 3.09693509 -1.79934724 -1.28806583
v 3.09686314 -1.79958355 -1.28577765
v 3.09676557 -1.81953662 -1.28809318
v 3.09679677 -1.79942577 -1.28803555
v 3.07688111 -1.81945981 -1.28806594
v 3.09708430 -1.81949364 -1.28803651
v 3.43823389 -1.81955725 -1.28811992
v 3.09687102 -1.81955971 -1.59940259
v 3.43803042 -1.81949783 -1.59946242
v 3.09691649 -1.81937522 -1.28819614
v 3.43819032 -1.29737120 -1.32588537
v 3.09701532 -1.29752798 -1.59927888
v 3.43817717 -1.29755722 -1.59929272
v 3.09687170 -1.29742562 -1.32571709
v 3.09677250 -1.27748910 -1.59924495
v 3.07683491 -1.81940156 -1.59943928
v 3.07687836 -1.27743423 -1.59933429
v 3.09695646 -1.81961870 -1.59944513
v 3.09705387 -1.29746884 -1.59933740
v 3.09692225 -1.79939620 -1.59945259
v 3.45822677 -1.27730154 -1.59933330
v 3.43831729 -1.29755081 -1.59922155
v 3.43827123 -1.27737662 -1.59929706
v 3.43816706 -1.79959885 -1.59944519
v 3.43838844 -1.81938883 -1.59937881
v 3.45829036 -1.81941292 -1.59936253
v 3.09680779 -1.81939204 -1.59930366
v 3.09669680 -1.79945727 -1.28813553
v 3.09697016 -1.81949357 -1.28820661
v 3.09691571 -1.79940183 -1.59937161
v 3.09689235 -1.29738139 -1.28823488
v 3.09689440 -1.29768081 -1.59929776
v 3.09700180 -1.27737048 -1.28806487
v 3.09696646 -1.27738927 -1.59930387
v 3.09690189 -1.27731213 -1.28581226
v 3.09679291 -1.81942995 -1.28797986
v 3.07676059 -1.81951671 -1.59940968
v 3.09689156 -1.81950324 -1.59946042
v 3.07682282 -1.81964113 -1.28820045
v 3.07673998 -1.81960403 -1.28593731
v 3.09703747 -1.81946102 -1.28832349
v 3.07679372 -1.81956859 -1.28821164
v 3.45818593 -1.81943865 -1.28818473
v 3.43828244 -1.81945941 -1.59922174
v 3.45815237 -1.81934890 -1.59923146
v 3.43829201 -1.81929008 -1.28812994
v 3.43831466 -1.27748784 -1.59924365
v 3.09694157 -1.29753672 -1.59915405
v 3.09689847 -1.27741969 -1.59936509
v 3.43817083 -1.29744713 -1.59927976
v 3.43827206 -1.29771084 -1.30576560
v 3.09689433 -1.29760650 -1.32588018
v 3.43829107 -1.29759070 -1.32570972
v 3.09681596 -1.29765361 -1.30596278
v 3.43836931 -1.29751161 -1.28818248
v 3.09692060 -1.29754998 -1.28821150
v 3.07678967 -1.79936415 -1.28568741
v 3.07675193 -1.81948563 -1.59927529
v 3.07674950 -1.81955328 -1.28824330
v 3.07673041 -1.27741121 -1.59941423
v 3.07690570 -1.29749826 -1.28574284
v 3.07682149 -1.27747841 -1.28815682
v 3.07684769 -1.27748487 -1.28810965
v 3.09699435 -1.27740609 -1.59919084
v 3.07679048 -1.27737303 -1.59938437
v 3.09694767 -1.27749619 -1.28804686
v 3.07686420 -1.27731178 -1.28589593
v 3.43819474 -1.79951011 -1.28819714
v 3.43817658 -1.81951844 -1.59934874
v 3.43823601 -1.81955811 -1.28813154
v 3.43831960 -1.79951099 -1.59934709
v 3.43823299 -1.29745286 -1.28815438
v 3.43823832 -1.29758596 -1.59934512
v 3.43815568 -1.27737347 -1.28815797
v 3.43824338 -1.27750177 -1.59927380
v 3.43830288 -1.27734194 -1.28794543
v 3.45831308 -1.27731076 -1.59935839
v 3.43827568 -1.27738719 -1.59932297
v 3.45837790 -1.27744822 -1.28814482
v 3.09697509 -1.27726111 -1.28585728
v 3.09676156 -1.29753972 -1.28814035
v 3.09694223 -1.27741209 -1.28567261
v 3.07693715 -1.29750007 -1.28582329
v 3.07681659 -1.81953994 -1.28816921
v 3.09678285 -1.81954949 -1.28581921
v 3.07683092 -1.81953064 -1.28808735
v 3.09687776 -1.81954744 -1.28809921
v 3.09690481 -1.27740076 -1.28808752
v 3.43827823 -1.27739769 -1.59936501
v 3.09698845 -1.27740449 -1.59939313
v 3.43822599 -1.27753159 -1.28823624
v 3.43806804 -1.29755758 -1.28802676
v 3.09687552 -1.27734868 -1.28814887
v 3.09686238 -1.29737353 -1.28809546
v 3.43807999 -1.27732553 -1.28824657
v 3.07683192 -1.29743465 -1.28580781
v 3.07695018 -1.79935929 -1.28592427
v 3.07680506 -1.81948172 -1.28820107
v 3.07682842 -1.27734757 -1.28811967
v 3.43815579 -1.29747965 -1.28820439
v 3.43812893 -1.27752355 -1.28812239
v 3.43823718 -1.29749508 -1.28588499
v 3.45830110 -1.27751508 -1.28823304
v 3.43822469 -1.27754666 -1.28808752
v 3.43846653 -1.81946560 -1.28587557
v 3.43821502 -1.27756235 -1.28581490
v 3.45836413 -1.27736675 -1.28824264
v 3.43826703 -1.27731505 -1.28798850
v 3.45825396 -1.27749931 -1.28577551
v 3.43797272 -1.27746893 -1.28817327
v 3.45827598 -1.27756494 -1.28817095
v 3.45824705 -1.27735142 -1.28823231
v 3.43821400 -1.81952869 -1.28572871
v 3.45808570 -1.29752664 -1.28571120
v 3.45828489 -1.29763482 -1.28575068
v 3.43827045 -1.81953211 -1.28588623
v 3.45825033 -1.81953606 -1.28822847
v 3.09675116 -1.27749066 -1.28815419
v 3.09688003 -1.29750247 -1.28814093
v 3.09700803 -1.27721953 -1.28571373
v 3.09679820 -1.27766280 -1.28815717
vt 16.87500000 -2.81250000
vt 16.84379959 -2.12500000
vt 16.87500000 -2.12500000
vt 16.84379959 -2.81250000
vt 16.84379959 8.31250000
vt 16.87500000 7.37500000
vt 16.87500000 8.31250000
vt 16.84379959 7.37500000
vt 16.84379959 7.37500000
vt 16.87500000 8.31250000
vt 16.87500000 7.37500000
vt 16.84379959 8.31250000
vt 16.84379959 -2.81250000
vt 16.87500000 -2.12500000
vt 16.84379959 -2.12500000
vt 16.87500000 -2.81250000
vt 3.56249690 -2.24259710
vt 5.12499523 -3.30509615
vt 3.56249690 -3.30509615
vt 5.12499523 -2.24259710
vt -10.40629959 -3.87500000
vt -10.37500000 -0.34379995
vt -10.37500000 -3.87500000
vt -10.40629959 -0.34379995
vt 6.78130007 -0.34375000
vt 6.65630007 -0.25000000
vt 6.78130007 -0.25000000
vt 6.65630007 -3.87500000
vt 6.78130007 -3.87500000
vt 5.75000000 10.37500000
vt 6.65630007 10.40629959
vt 6.65630007 10.37500000
vt 5.75000000 10.40629959
vt 6.78130007 -0.25000000
vt 6.65630007 -0.34375000
vt 5.75002193 -0.25000000
vt 6.78130007 -3.87500000
vt 6.65630007 -3.87500000
vt 5.75002193 -0.34375000
vt -10.37500000 -0.34379995
vt -10.40629959 -3.87500000
vt -10.37500000 -3.87500000
vt -10.40629959 -0.34379995
vt -10.40629959 -3.87500000
vt -10.37500000 -0.25000000
vt -10.37500000 -3.87500000
vt -10.40629959 -0.25000000
vt -10.34379959 -3.87500000
vt -10.25000000 -0.34375000
vt -10.25000000 -3.87500000
vt -10.25000000 -0.25000000
vt -10.34379959 -0.25000000
vt -10.50000000 -0.34379995
vt -10.34379959 -0.25000000
vt -10.34379959 -0.34379995
vt -10.50000000 -0.25000000
vt -6.37500000 -0.34379995
vt -6.40630007 -0.25000000
vt -6.37500000 -0.25000000
vt -6.40630007 -0.34379995
vt -6.37500000 -3.87499905
vt -6.40630007 -0.34375203
vt -6.37500000 -0.34375203
vt -6.40630007 -3.87500000
vt -10.34379959 6.37500000
vt -10.50000000 6.40630007
vt -10.34379959 6.40630007
vt -10.50000000 6.37500000
vt 263.80511475 -33.09637070
vt 265.81298828 -33.09637070
vt 265.81298828 -33.33319092
vt 265.81298828 -33.33319092
vt 265.81298828 -33.09637070
vt 263.80511475 -33.09637070
vt 16.56250000 8.37500000
vt 16.68750000 8.40629959
vt 16.68750000 8.37500000
vt 16.56250000 8.40629959
vt -8.40629959 -4.25000000
vt -8.37500000 -0.34379995
vt -8.37500000 -4.25000000
vt -8.40629959 -0.34379995
vt 16.78129959 -0.25000000
vt 16.68750000 -0.34375000
vt 16.56242943 -0.25000000
vt 16.78129959 -4.25000000
vt 16.68750000 -4.25000000
vt 16.56242943 -0.34375000
vt -8.37500000 -0.34379995
vt -8.40629959 -4.25000000
vt -8.37500000 -4.25000000
vt -8.40629959 -0.34379995
vt 15.71879959 -0.34375000
vt 15.65629959 -0.25000000
vt 15.71879959 -0.25000000
vt 15.65629959 -4.25000000
vt 15.71879959 -4.25000000
vt -8.40629959 -4.25000000
vt -8.37500000 -0.25000000
vt -8.37500000 -4.25000000
vt -8.40629959 -0.25000000
vt 15.62500000 -4.25000000
vt 15.59379959 -0.25000000
vt 15.62500000 -0.25000000
vt 15.59379959 -4.25000000
vt -8.34379959 -4.25000000
vt -8.25000000 -0.34375000
vt -8.25000000 -4.25000000
vt -8.25000000 -0.25000000
vt -8.34379959 -0.25000000
vt 7.68750000 -0.34375000
vt 7.78130007 -4.25000000
vt 7.68750000 -4.25000000
vt 7.68750000 -0.25000000
vt 7.78130007 -0.25000000
vt -8.50000000 -0.34379995
vt -7.18750000 -0.25000000
vt -7.18750000 -0.34379995
vt -8.50000000 -0.25000000
vt -16.37500000 -4.25000000
vt -16.40629959 -0.34379995
vt -16.37500000 -0.34379995
vt -16.40629959 -4.25000000
vt 15.59379959 -4.25000000
vt 15.62500000 -0.34379995
vt 15.59379959 -0.34379995
vt 15.62500000 -4.25000000
vt -8.12500000 -0.25000000
vt -8.53129959 -0.34379995
vt -8.12500000 -0.34379995
vt -8.53129959 -0.25000000
vt -6.34380007 -4.25000000
vt -6.25000000 -0.25000000
vt -6.25000000 -4.25000000
vt -6.34380007 -0.34375000
vt -6.34380007 -0.25000000
vt -7.18750000 16.37500000
vt -8.50000000 16.40629959
vt -7.18750000 16.40629959
vt -8.50000000 16.37500000
vt -8.12500000 16.37500000
vt -8.53129959 16.40629959
vt -8.12500000 16.40629959
vt -8.53129959 16.37500000
vt -16.37500000 -4.24999809
vt -16.40629959 -0.25000203
vt -16.37500000 -0.25000000
vt -16.40629959 -4.25000000
vt -16.40629959 -4.25000000
vt -16.37500000 -0.34379995
vt -16.40629959 -0.34379995
vt -16.37500000 -4.25000000
vt -8.84379959 -4.25000000
vt -13.81250000 -0.25000298
vt -13.81250000 -4.25000000
vt -8.84379959 -0.25000000
vt -10.09379959 -4.25000000
vt -10.53129959 -0.25000000
vt -10.09379959 -0.25000000
vt -10.53129959 -4.25000000
vt 10.50000000 -4.25000000
vt 10.75000000 -0.25000000
vt 10.50000000 -0.25000000
vt 10.75000000 -4.25000000
vt 6.65630007 -4.25000000
vt 8.18750000 -0.25000000
vt 8.18750000 -4.25000000
vt 6.65630007 -0.25000000
vt 4.62500000 -4.25000000
vt 6.15630007 -3.25000000
vt 6.15630007 -4.25000000
vt 4.62500000 -3.25000000
vt 4.15630007 -4.25000000
vt 5.40630007 -3.25000000
vt 5.40630007 -4.25001097
vt 5.40630007 -0.24999905
vt 4.15630007 -0.25000000
vt 10.45800018 -4.25000000
vt 13.80179977 -0.25000000
vt 10.45800018 -0.25000000
vt 13.80179977 -4.25000000
vt 13.50018978 -0.24997795
vt 4.21880007 -4.25000000
vt 13.50010967 -4.24998617
vt 4.21888494 -0.25000095
vt 3.31250000 -1.25000000
vt 2.25000000 -1.18747306
vt 3.31250000 -1.18750000
vt 2.25000000 -1.24997306
vt 3.31250000 -1.30512691
vt 2.25000000 -1.30509996
vt 3.31250000 -1.18750000
vt 2.25000000 -0.33640003
vt 3.31250000 -0.33640003
vt 2.25000000 -1.18750000
vt 4.03130007 -2.25000000
vt 4.09380007 -3.31250000
vt 4.03130007 -3.31250000
vt 4.09380007 -2.25000000
vt 5.12500000 -2.24259996
vt 3.56250000 -3.30509996
vt 5.12500000 -3.30509996
vt 3.56250000 -2.24259996
vt 4.09380007 -2.25000000
vt 4.03130007 -3.31250000
vt 4.09380007 -3.31250000
vt 4.03130007 -2.25000000
vt -263.80511475 -33.09637070
vt -263.80511475 -33.33319092
vt -265.81298828 -33.09637070
vt -2.90630007 -3.68750000
vt -2.96880007 -3.62500000
vt -2.90630007 -3.62500000
vt 2.25000000 -1.30509996
vt 3.31250000 -0.33640003
vt 2.25000000 -0.33640003
vt 3.31250000 -1.30509996
vt 2.25000000 -1.18750000
vt 3.31250000 -0.33640003
vt 2.25000000 -0.33640003
vt 3.31250000 -1.18750000
vt -2.90630007 -5.31249189
vt -2.96880007 -3.62500000
vt -2.96880007 -5.31250000
vt -2.90630007 -3.62499189
vt -2.90630007 -5.25000000
vt -2.90630007 -3.68749714
vt -1.90629995 -5.25000000
vt -1.96879995 -5.18750286
vt -1.96879995 -5.24999523
vt -1.96879995 -3.62500000
vt -1.96879995 -3.56249523
vt -1.90629995 -3.56250000
vt 3.62500000 -0.33640003
vt 3.68750000 -1.30509996
vt 3.62499595 -1.30509996
vt 3.68750405 -0.33640003
vt 5.25000000 -1.30509996
vt 5.25000381 -0.33640003
vt 5.31249189 -1.30509996
vt 5.31249714 -0.33640003
vt -2.90630007 -5.31250000
vt -2.90630007 -1.30509996
vt -2.96880007 -0.33640003
vt -2.90630007 -0.33640003
vt -2.96880007 -1.30509996
vt -12.42302990 -33.33322906
vt -14.43078995 -33.09642029
vt -12.42302990 -33.09642029
vt -1.90629995 -1.30509996
vt -1.96879995 -0.33640003
vt -1.90629995 -0.33640003
vt -1.96879995 -1.30509996
vt 5.09380007 -2.25000000
vt 5.03130007 -3.31250000
vt 5.09380007 -3.31250000
vt 5.03130007 -2.25000000
vt 2.25000000 -1.25000000
vt 3.31250000 -1.18750000
vt 2.25000000 -1.18750000
vt 3.31250000 -1.25000000
vt 2.25000000 -1.30512691
vt 3.31250000 -1.30512691
vt 3.68750000 -1.31250000
vt 3.62500000 -0.33640003
vt 3.62499499 -1.30512810
vt 5.31250000 -0.33640003
vt 5.25000286 -1.31250000
vt 5.31249523 -1.30512810
vt -2.96880007 -1.30509996
vt -2.90630007 -0.33640003
vt -2.96880007 -0.33640003
vt -2.90630007 -1.30509996
vt -2.96880007 -1.31247091
vt 3.62500405 -1.30509996
vt 3.56249595 -0.33640003
vt 3.56250000 -1.30509996
vt 3.62500000 -0.33640003
vt 5.18750381 -1.30509996
vt 5.18750000 -0.33640003
vt 5.24999714 -1.30509996
vt 5.24999189 -0.33640003
vt -1.96879995 -1.30509996
vt -1.90629995 -0.33640003
vt -1.96879995 -0.33640003
vt -1.90629995 -1.30509996
vt -211.60429382 -33.33319092
vt -213.61180115 -33.09637833
vt -2.90630007 -5.31250000
vt -2.96880007 -5.25000000
vt -2.96880007 -3.62500000
vt -2.90630007 -1.31250000
vt -2.96880007 -1.30509996
vt -2.90630007 -1.30509996
vt 3.31250000 -1.30509996
vt 2.25000000 -0.33640003
vt 3.31250000 -0.33640003
vt 2.25000000 -1.30509996
vt 5.03130007 -2.25000000
vt 5.09380007 -3.31250000
vt 5.03130007 -3.31250000
vt 5.09380007 -2.25000000
vt -213.61180115 -33.33319092
vt -263.80511475 -33.33319092
vt -265.81298828 -33.09637070
vt -2.96880007 -5.31250000
vt 213.61180115 -33.09637833
vt 211.60429382 -33.09637833
vt 213.61180115 -33.33319092
vt -1.90629995 -5.25000000
vt -1.96879995 -5.25000000
vt -1.96879995 -3.56250000
vt -1.96879995 -1.31250000
vt -1.90629995 -1.30509996
vt -1.96879995 -1.30509996
vt 50.57007980 -33.33322906
vt 48.56219864 -33.09642029
vt 50.57007980 -33.09642029
vt -1.90629995 -5.25000000
vt -1.96879995 -3.56250000
vt -1.90629995 -5.18750000
vt -1.90629995 -5.18750000
vt -1.96879995 -3.56250000
vt -1.90629995 -3.56250000
vt -211.60429382 -33.09637833
vt -213.61180115 -33.09637833
vt -211.60429382 -33.33319092
vt -211.60429382 -33.09637833
f 1/1 2/2 3/3
f 2/2 1/1 4/4
f 5/5 6/6 7/7
f 6/6 5/5 8/8
f 9/9 10/10 11/11
f 10/10 9/9 12/12
f 13/13 14/14 15/15
f 14/14 13/13 16/16
f 17/17 18/18 19/19
f 18/18 17/17 20/20
f 21/21 22/22 23/23
f 22/22 21/21 24/24
f 25/25 26/26 27/27
f 26/26 25/25 28/28
f 28/28 25/25 29/29
f 30/30 31/31 32/32
f 31/31 30/30 33/33
f 34/34 35/35 36/36
f 35/35 34/34 37/37
f 35/35 37/37 38/38
f 39/39 36/36 35/35
f 40/40 41/41 42/42
f 41/41 40/40 43/43
f 44/44 45/45 46/46
f 45/45 44/44 47/47
f 48/48 49/49 50/50
f 49/49 48/48 51/51
f 51/51 48/48 52/52
f 53/53 54/54 55/55
f 54/54 53/53 56/56
f 57/57 58/58 59/59
f 58/58 57/57 60/60
f 61/61 62/62 63/63
f 62/62 61/61 64/64
f 65/65 66/66 67/67
f 66/66 65/65 68/68
f 69/69 70/70 71/71
f 72/72 73/73 74/74
f 75/75 76/76 77/77
f 76/76 75/75 78/78
f 79/79 80/80 81/81
f 80/80 79/79 82/82
f 83/83 84/84 85/85
f 84/84 83/83 86/86
f 84/84 86/86 87/87
f 88/88 85/85 84/84
f 89/89 90/90 91/91
f 90/90 89/89 92/92
f 93/93 94/94 95/95
f 94/94 93/93 96/96
f 96/96 93/93 97/97
f 98/98 99/99 100/100
f 99/99 98/98 101/101
f 102/102 103/103 104/104
f 103/103 102/102 105/105
f 106/106 107/107 108/108
f 107/107 106/106 109/109
f 109/109 106/106 110/110
f 111/111 112/112 113/113
f 112/112 111/111 114/114
f 112/112 114/114 115/115
f 116/116 117/117 118/118
f 117/117 116/116 119/119
f 120/120 121/121 122/122
f 121/121 120/120 123/123
f 124/124 125/125 126/126
f 125/125 124/124 127/127
f 128/128 129/129 130/130
f 129/129 128/128 131/131
f 132/132 133/133 134/134
f 133/133 132/132 135/135
f 133/133 135/135 136/136
f 137/137 138/138 139/139
f 138/138 137/137 140/140
f 141/141 142/142 143/143
f 142/142 141/141 144/144
f 145/145 146/146 147/147
f 146/146 145/145 148/148
f 149/149 150/150 151/151
f 150/150 149/149 152/152
f 153/153 154/154 155/155
f 154/154 153/153 156/156
f 157/157 158/158 159/159
f 158/158 157/157 160/160
f 161/161 162/162 163/163
f 162/162 161/161 164/164
f 165/165 166/166 167/167
f 166/166 165/165 168/168
f 169/169 170/170 171/171
f 170/170 169/169 172/172
f 173/173 174/174 175/175
f 174/174 173/173 176/176
f 176/176 173/173 177/177
f 178/178 179/179 180/180
f 179/179 178/178 181/181
f 182/182 183/183 184/184
f 183/183 182/182 185/185
f 186/186 187/187 188/188
f 187/187 186/186 189/189
f 189/189 186/186 190/190
f 189/189 190/190 191/191
f 192/192 193/193 194/194
f 193/193 192/192 195/195
f 196/196 197/197 198/198
f 197/197 196/196 199/199
f 200/200 201/201 202/202
f 201/201 200/200 203/203
f 204/204 205/205 206/206
f 205/205 204/204 207/207
f 208/208 209/209 210/210
f 211/211 212/212 213/213
f 214/214 215/215 216/216
f 215/215 214/214 217/217
f 218/218 219/219 220/220
f 219/219 218/218 221/221
f 222/222 223/223 224/224
f 223/223 222/222 225/225
f 225/225 222/222 226/226
f 225/225 226/226 227/227
f 228/228 229/229 230/230
f 229/229 228/228 231/231
f 231/231 228/228 232/232
f 232/232 228/228 233/233
f 234/234 235/235 236/236
f 235/235 234/234 237/237
f 235/235 237/237 238/238
f 238/238 237/237 239/239
f 238/238 239/239 240/240
f 240/240 239/239 241/241
f 242/242 212/212 211/211
f 243/243 244/244 245/245
f 244/244 243/243 246/246
f 247/247 248/248 249/249
f 250/250 251/251 252/252
f 251/251 250/250 253/253
f 254/254 255/255 256/256
f 255/255 254/254 257/257
f 258/258 259/259 260/260
f 259/259 258/258 261/261
f 261/261 258/258 262/262
f 261/261 262/262 263/263
f 264/264 265/265 266/266
f 265/265 264/264 267/267
f 267/267 264/264 268/268
f 267/267 268/268 269/269
f 270/270 271/271 272/272
f 271/271 270/270 273/273
f 273/273 270/270 274/274
f 275/275 276/276 277/277
f 276/276 275/275 278/278
f 278/278 275/275 279/279
f 278/278 279/279 280/280
f 280/280 279/279 281/281
f 280/280 281/281 282/282
f 283/283 284/284 285/285
f 284/284 283/283 286/286
f 287/287 208/208 288/288
f 289/289 290/290 291/291
f 292/292 293/293 294/294
f 295/295 296/296 297/297
f 296/296 295/295 298/298
f 299/299 300/300 301/301
f 300/300 299/299 302/302
f 303/303 304/304 305/305
f 289/289 306/306 290/290
f 71/71 307/307 69/69
f 307/307 71/71 308/308
f 308/308 307/307 309/309
f 310/310 311/311 312/312
f 313/313 314/314 315/315
f 316/316 317/317 318/318
f 319/319 320/320 321/321
f 322/322 323/323 324/324
f 325/325 287/287 288/288
f 326/326 327/327 328/328

