# https://github.com/mikedh/trimesh
v -0.82799311 1.19036541 -1.16936610
v -1.01359980 1.19034173 -1.30823553
v -0.82792400 1.19042870 -1.30829802
v -1.01368018 1.19033660 -1.16940124
v -0.82813686 1.19036032 -1.16947675
v -1.01364891 1.21979550 -1.16942222
v -1.01358181 1.19043430 -1.16941121
v -0.82792034 1.21978841 -1.16938305
v -1.01355296 1.21983294 -1.16944728
v -1.01366002 1.19034631 -1.30824383
v -1.01366518 1.19036088 -1.16941301
v -1.01357423 1.21984013 -1.30823590
v -0.82803884 1.21981994 -1.30821076
v -1.01351836 1.19029930 -1.30816794
v -1.01352702 1.21987336 -1.30824123
v -0.82801890 1.19045867 -1.30814176
v -0.82789482 1.19045029 -1.30823578
v -0.82807136 1.21982716 -1.16936516
v -0.82807606 1.19039633 -1.16937845
v -0.82795966 1.21975808 -1.30829555
v -0.82802609 1.19030454 -1.31163395
v -1.01363504 1.19039253 -1.61309876
v -0.82790761 1.19045067 -1.61304644
v -1.01373520 1.19037621 -1.31169587
v -1.01354707 1.21979129 -1.31162911
v -1.01368341 1.19033443 -1.61302875
v -1.01360308 1.19049060 -1.31172492
v -1.01364310 1.21980539 -1.61314759
v -0.82807543 1.21986451 -1.61304950
v -1.01353003 1.19032897 -1.61298452
v -1.01362281 1.21991988 -1.61310898
v -0.82804363 1.19038788 -1.61302309
v -0.82799104 1.19033889 -1.61316226
v -0.82808269 1.21985702 -1.31167792
v -0.82801012 1.19031014 -1.31168477
v -0.82807559 1.21978571 -1.61304717
v -0.82813247 1.19039582 -1.31177009
v -1.01359955 1.21982310 -1.31172412
v -1.01356524 1.19032867 -1.31165263
v -0.82795790 1.21987703 -1.31166765
v -2.72304707 1.48278602 -1.16939916
v -2.90876777 1.48272859 -1.30830188
v -2.72317671 1.48275167 -1.30829009
v -2.90874448 1.48267534 -1.16938785
v -2.72307222 1.48281408 -1.16940441
v -2.90862297 1.51227547 -1.16933613
v -2.90882282 1.48280858 -1.16938367
v -2.72306841 1.51221500 -1.16938114
v -2.90866535 1.51217217 -1.16951513
v -2.90869047 1.48268937 -1.30819338
v -2.90870102 1.48274141 -1.16945342
v -2.90871403 1.51219255 -1.30834386
v -2.72307563 1.51218700 -1.30832629
v -2.90882475 1.48276660 -1.30827420
v -2.90871517 1.51217937 -1.30815020
v -2.72309618 1.48274159 -1.30834396
v -2.72299664 1.48279033 -1.30819416
v -2.72309047 1.51224699 -1.16938183
v -2.72305730 1.48272758 -1.16949004
v -2.72303292 1.51207973 -1.30827081
v 2.04237326 4.25632525 -1.16936717
v 2.04237350 4.07075868 -1.30822587
v 2.04235730 4.07086577 -1.16938252
v 2.04235743 4.25627237 -1.30833299
v 2.07190701 4.07078133 -1.16941974
v 2.04248164 4.25631118 -1.16943748
v 2.04235753 4.07081869 -1.16944205
v 2.07180728 4.25629227 -1.16936035
v 2.04243254 4.25635847 -1.16939355
v 2.07176744 4.25635874 -1.30817546
v 2.04239322 4.25652193 -1.30830245
v 2.07187730 4.25637495 -1.16936995
v 2.07184284 4.25635350 -1.30830717
v 2.04256509 4.07077977 -1.30837464
v 2.04234721 4.25642618 -1.30828561
v 2.07192306 4.07084310 -1.30826529
v 2.07181556 4.07072537 -1.16944419
v 2.04229885 4.07085494 -1.30816306
v 2.07176958 4.07071499 -1.30836009
v 2.04232872 4.07060210 -1.16947013
v 0.99128457 1.19159655 -1.16935354
v 0.80557923 1.19172009 -1.30824506
v 0.99118609 1.19176653 -1.30827577
v 0.80553628 1.19162866 -1.16940595
v 0.99127104 1.19156276 -1.16935647
v 0.80565793 1.22103319 -1.16939409
v 0.80555918 1.19175441 -1.16944497
v 0.99118192 1.22100983 -1.16942397
v 0.80560757 1.22111738 -1.16943947
v 0.80559701 1.19153374 -1.30830527
v 0.80576955 1.19167789 -1.16944950
v 0.80552947 1.22101513 -1.30825801
v 0.99121053 1.22102869 -1.30833220
v 0.80569134 1.19164331 -1.30827871
v 0.80559497 1.22104129 -1.30842895
v 0.99121528 1.19155403 -1.30831555
v 0.99117094 1.19165977 -1.30832540
v 0.99112437 1.22110988 -1.16935942
v 0.99115225 1.19164981 -1.16942077
v 0.99122617 1.22099839 -1.30820789
v 0.99127907 1.19165419 -1.31170322
v 0.80538665 1.19163222 -1.61308508
v 0.99119987 1.19157995 -1.61308034
v 0.80563208 1.19160135 -1.31176315
v 0.80568004 1.22100752 -1.31167555
v 0.80561828 1.19156976 -1.61310060
v 0.80555395 1.19165642 -1.31171557
v 0.80557525 1.22100778 -1.61306589
v 0.99126465 1.22106575 -1.61305905
v 0.80558585 1.19162090 -1.61310068
v 0.80562516 1.22098387 -1.61304581
v 0.99119501 1.19163797 -1.61310355
v 0.99122729 1.19155403 -1.61301384
v 0.99110858 1.22101139 -1.31172215
v 0.99129430 1.19163313 -1.31175051
v 0.99112491 1.22106121 -1.61308476
v 0.99130765 1.19165331 -1.31182566
v 0.80572679 1.22104918 -1.31178756
v 0.80569441 1.19161390 -1.31175752
v 0.99122133 1.22112191 -1.31167771
v -2.72317392 1.48285373 -1.31168036
v -2.90870632 1.48268865 -1.61314039
v -2.72308603 1.48269866 -1.61312842
v -2.90863650 1.48275789 -1.31175904
v -2.90864102 1.51227342 -1.31180009
v -2.90871947 1.48279195 -1.61304138
v -2.90867079 1.48280469 -1.31179973
v -2.90877084 1.51214255 -1.61307637
v -2.72313996 1.51216480 -1.61314074
v -2.90872047 1.48267773 -1.61306200
v -2.90863746 1.51216519 -1.61309571
v -2.72312734 1.48276782 -1.61307833
v -2.72299976 1.48267241 -1.61306229
v -2.72306722 1.51217208 -1.31170167
v -2.72317764 1.48286079 -1.31181461
v -2.72303931 1.51212762 -1.61301605
v -2.72311583 1.48274580 -1.31173277
v -2.90861952 1.51217436 -1.31190993
v -2.90872866 1.48274729 -1.31176173
v -2.72304811 1.51225278 -1.31174456
v 2.04229788 4.25646760 -1.31167191
v 2.04236771 4.07090796 -1.61310360
v 2.04231856 4.07077516 -1.31167222
v 2.04233027 4.25650086 -1.61313568
v 2.04244123 4.25641835 -1.31174448
v 2.07190664 4.25629844 -1.61300347
v 2.04238152 4.25635460 -1.61303915
v 2.07190543 4.25643157 -1.31161816
v 2.07190665 4.25646170 -1.61311476
v 2.04239150 4.07081732 -1.61308417
v 2.04240295 4.25641141 -1.61303358
v 2.07183730 4.07076378 -1.61313172
v 2.07179096 4.07085307 -1.31174040
v 2.04243141 4.07070821 -1.61319682
v 2.07178173 4.07085156 -1.61302049
v 2.04240473 4.07073725 -1.31174311
v 2.07182580 4.07076407 -1.31188243
v 2.04233493 4.25637526 -1.31164649
v 2.04239468 4.07086647 -1.31175853
v 2.07182844 4.25615770 -1.31170826
vt 0.99000001 0.28770000
vt 0.00999999 0.99000001
vt 0.99000001 0.99000001
vt 0.00999999 0.28770000
vt -0.00000000 -8.92220116
vt 1.00000000 -7.92220116
vt 1.00000000 -8.92220116
vt -0.00000000 -7.92220116
vt -38.12049866 -44.97087097
vt -35.17507172 -31.08555984
vt -35.17507172 -44.97087097
vt -38.12051010 -31.08555984
vt 0.00000000 -7.92220116
vt 1.00000000 -8.92220116
vt 1.00000000 -7.92220116
vt 0.00000000 -8.92220116
vt 35.17507172 -31.08555984
vt 38.12049866 -44.97087097
vt 35.17507172 -44.97087097
vt 38.12051010 -31.08555984
vt 0.75230002 0.27420002
vt 0.26280001 0.00680000
vt 0.26280001 0.27420002
vt 0.75230002 0.00680000
vt -38.12051010 -30.73764038
vt -35.17507935 -0.60287797
vt -35.17507172 -30.73764038
vt -38.12051010 -0.60287797
vt 0.00000000 -7.92220116
vt 1.00000000 -8.92220116
vt 1.00000000 -7.92220116
vt 0.00000000 -8.92220116
vt 35.17507935 -0.60287797
vt 38.12051010 -30.73764038
vt 35.17507172 -30.73764038
vt 38.12051010 -0.60287797
vt 0.00000000 -8.92220116
vt 1.00000000 -7.92220116
vt 1.00000000 -8.92220116
vt 0.00000000 -7.92220116
vt 0.99000001 0.28770000
vt 0.00999999 0.99000001
vt 0.99000001 0.99000001
vt 0.00999999 0.28770000
vt 0.00000000 -8.92220116
vt 1.00000000 -7.92220116
vt 1.00000000 -8.92220116
vt 0.00000000 -7.92220116
vt -67.35707855 -44.97087860
vt -64.41140747 -31.08555984
vt -64.41140747 -44.97087860
vt -67.35707855 -31.08555984
vt -0.00000000 -7.92220116
vt 1.00000000 -8.92220116
vt 1.00000000 -7.92220116
vt -0.00000000 -8.92220116
vt 64.41140747 -31.08555984
vt 67.35707855 -44.97087860
vt 64.41140747 -44.97087860
vt 67.35707855 -31.08555984
vt 0.00999999 0.28770000
vt 0.99000001 0.99000001
vt 0.99000001 0.28770000
vt 0.00999999 0.99000001
vt 0.00000000 -7.92220116
vt 1.00000000 -8.92220116
vt 0.00000000 -8.92220116
vt 1.00000000 -7.92220116
vt 91.02282715 -44.97087097
vt 88.07717133 -31.08554840
vt 91.02282715 -31.08554840
vt 88.07717133 -44.97087097
vt 1.00000000 -7.92220116
vt 0.00000000 -8.92220116
vt 1.00000000 -8.92220116
vt 0.00000000 -7.92220116
vt -88.07717133 -44.97087097
vt -91.02282715 -31.08554840
vt -88.07717133 -31.08554840
vt -91.02282715 -44.97087097
vt 0.99000001 0.28770000
vt 0.00999999 0.99000001
vt 0.99000001 0.99000001
vt 0.00999999 0.28770000
vt 0.00000000 -8.92220116
vt 1.00000000 -7.92220116
vt 1.00000000 -8.92220116
vt 0.00000000 -7.92220116
vt -38.24499130 -44.97087097
vt -35.29943848 -31.08555984
vt -35.29943848 -44.97087097
vt -38.24499130 -31.08555984
vt 0.00000000 -7.92220116
vt 1.00000000 -8.92220116
vt 1.00000000 -7.92220116
vt 0.00000000 -8.92220116
vt 35.29943848 -31.08555984
vt 38.24499130 -44.97087097
vt 35.29943848 -44.97087097
vt 38.24499130 -31.08555984
vt 0.75230002 0.27420002
vt 0.26280001 0.00680000
vt 0.26280001 0.27420002
vt 0.75230002 0.00680000
vt -38.24499130 -30.73764038
vt -35.29944992 -0.60287797
vt -35.29943848 -30.73764038
vt -38.24499893 -0.60287797
vt 0.00000000 -7.92220116
vt 1.00000000 -8.92220116
vt 1.00000000 -7.92220116
vt 0.00000000 -8.92220116
vt 35.29944992 -0.60287797
vt 38.24499130 -30.73764038
vt 35.29943848 -30.73764038
vt 38.24499893 -0.60287797
vt 0.00000000 -8.92220116
vt 1.00000000 -7.92220116
vt 1.00000000 -8.92220116
vt 0.00000000 -7.92220116
vt 0.75230002 0.27420002
vt 0.26280001 0.00680000
vt 0.26280001 0.27420002
vt 0.75230002 0.00680000
vt -67.35707855 -30.73764992
vt -64.41142273 -0.60288298
vt -64.41140747 -30.73764992
vt -67.35709381 -0.60288298
vt 0.00000000 -7.92220116
vt 1.00000000 -8.92220116
vt 1.00000000 -7.92220116
vt 0.00000000 -8.92220116
vt 64.41142273 -0.60288298
vt 67.35707855 -30.73764992
vt 64.41140747 -30.73764992
vt 67.35709381 -0.60288298
vt 0.00000000 -8.92220116
vt 1.00000000 -7.92220116
vt 1.00000000 -8.92220116
vt 0.00000000 -7.92220116
vt 0.75230002 0.00680000
vt 0.26280001 0.27420002
vt 0.75230002 0.27420002
vt 0.26280001 0.00680000
vt 91.02282715 -30.73764038
vt 88.07717133 -0.60287201
vt 91.02282715 -0.60287201
vt 88.07717133 -30.73764038
vt 1.00000000 -7.92220116
vt 0.00000000 -8.92220116
vt 1.00000000 -8.92220116
vt 0.00000000 -7.92220116
vt -88.07717133 -30.73764038
vt -91.02282715 -0.60287201
vt -88.07717133 -0.60287201
vt -91.02282715 -30.73764038
vt 0.00000000 -7.92220116
vt 1.00000000 -8.92220116
vt 0.00000000 -8.92220116
vt 1.00000000 -7.92220116
f 1/1 2/2 3/3
f 2/2 1/1 4/4
f 5/5 6/6 7/7
f 6/6 5/5 8/8
f 9/9 10/10 11/11
f 10/10 9/9 12/12
f 13/13 14/14 15/15
f 14/14 13/13 16/16
f 17/17 18/18 19/19
f 18/18 17/17 20/20
f 21/21 22/22 23/23
f 22/22 21/21 24/24
f 25/25 26/26 27/27
f 26/26 25/25 28/28
f 29/29 30/30 31/31
f 30/30 29/29 32/32
f 33/33 34/34 35/35
f 34/34 33/33 36/36
f 37/37 38/38 39/39
f 38/38 37/37 40/40
f 41/41 42/42 43/43
f 42/42 41/41 44/44
f 45/45 46/46 47/47
f 46/46 45/45 48/48
f 49/49 50/50 51/51
f 50/50 49/49 52/52
f 53/53 54/54 55/55
f 54/54 53/53 56/56
f 57/57 58/58 59/59
f 58/58 57/57 60/60
f 61/61 62/62 63/63
f 62/62 61/61 64/64
f 65/65 66/66 67/67
f 66/66 65/65 68/68
f 69/69 70/70 71/71
f 70/70 69/69 72/72
f 73/73 74/74 75/75
f 74/74 73/73 76/76
f 77/77 78/78 79/79
f 78/78 77/77 80/80
f 81/81 82/82 83/83
f 82/82 81/81 84/84
f 85/85 86/86 87/87
f 86/86 85/85 88/88
f 89/89 90/90 91/91
f 90/90 89/89 92/92
f 93/93 94/94 95/95
f 94/94 93/93 96/96
f 97/97 98/98 99/99
f 98/98 97/97 100/100
f 101/101 102/102 103/103
f 102/102 101/101 104/104
f 105/105 106/106 107/107
f 106/106 105/105 108/108
f 109/109 110/110 111/111
f 110/110 109/109 112/112
f 113/113 114/114 115/115
f 114/114 113/113 116/116
f 117/117 118/118 119/119
f 118/118 117/117 120/120
f 121/121 122/122 123/123
f 122/122 121/121 124/124
f 125/125 126/126 127/127
f 126/126 125/125 128/128
f 129/129 130/130 131/131
f 130/130 129/129 132/132
f 133/133 134/134 135/135
f 134/134 133/133 136/136
f 137/137 138/138 139/139
f 138/138 137/137 140/140
f 141/141 142/142 143/143
f 142/142 141/141 144/144
f 145/145 146/146 147/147
f 146/146 145/145 148/148
f 149/149 150/150 151/151
f 150/150 149/149 152/152
f 153/153 154/154 155/155
f 154/154 153/153 156/156
f 157/157 158/158 159/159
f 158/158 157/157 160/160

