# https://github.com/mikedh/trimesh
v 0.34549755 -6.34409689 0.44288851
v 0.33612711 -6.19815771 0.44288419
v 0.33614568 -6.34408018 0.44286769
v 0.34547601 -6.19815907 0.44287923
v 0.33608949 -6.19815280 0.44285930
v 0.33611415 -6.34410328 -0.14000030
v 0.33613186 -6.34407871 0.44287660
v 0.33614665 -6.19815971 -0.13998996
v 0.34550960 -6.34409339 0.44286708
v 0.33611122 -6.34410194 -0.13999199
v 0.34547997 -6.34409809 -0.13999787
v 0.33613386 -6.34409152 0.44288409
v 0.34548548 -6.34409686 -0.13998326
v 0.34551873 -6.19816891 0.44290203
v 0.34551645 -6.34408275 0.44288268
v 0.34549074 -6.19812684 -0.13996505
v 0.55825300 -6.34407448 0.44288412
v 0.54883627 -6.19814948 0.44288875
v 0.54883503 -6.34408873 0.44288525
v 0.55823588 -6.19816775 0.44286834
v 0.54884822 -6.19816753 0.44290552
v 0.54884730 -6.34408975 -0.13999941
v 0.54887950 -6.34407440 0.44288840
v 0.54882086 -6.19814861 -0.13998482
v 0.55824064 -6.34410442 0.44290680
v 0.54883453 -6.34410509 -0.13998092
v 0.55822586 -6.34406384 -0.13999248
v 0.54884518 -6.34410070 0.44286169
v 0.55820531 -6.34408509 -0.13998640
v 0.55824514 -6.19816110 0.44290474
v 0.55822065 -6.34407047 0.44287189
v 0.55821371 -6.19814555 -0.13997943
v -0.08443842 -6.34410392 0.44291687
v -0.10405246 -6.19814163 0.44295297
v -0.10403331 -6.34411148 0.44295116
v -0.08446074 -6.19816046 0.44294726
v 0.73130549 -6.34408887 -0.14000441
v -0.09913649 -6.34409602 -0.15380331
v -0.08443017 -6.34410659 -0.16098140
v -0.10401952 -6.34408178 -0.13997737
v -0.08442872 -6.34408178 -0.13999423
v -0.08446301 -6.34409694 0.44292573
v -0.10405279 -6.34409085 0.44292884
v -0.08445686 -6.34411100 -0.13999125
v -0.08443536 -6.19812894 0.44293743
v -0.08442479 -6.34407314 0.44295545
v -0.08447754 -6.19813039 -0.13999014
v -0.10402420 -6.19814367 0.44294357
v -0.10402582 -6.34410041 -0.14002485
v -0.10403245 -6.34410729 0.44295437
v -0.10403523 -6.19814812 -0.14000856
v -0.08444882 -6.19814959 -0.16102640
v -0.09913353 -6.34409649 -0.15382480
v -0.09917532 -6.19814147 -0.15381105
v -0.08444912 -6.34409851 -0.16097527
v 0.73133956 -6.34409351 -0.14001843
v -0.08441541 -6.34408064 -0.16098688
v 0.73134107 -6.34408065 -0.16099765
v 0.73134983 -6.34409721 -0.14001823
v -0.08442499 -6.19817938 -0.13999912
v -0.08444408 -6.34411100 -0.13998591
v 0.73133723 -6.19815618 -0.13998735
v -0.09914556 -6.34407334 -0.15380100
v -0.09914553 -6.19817952 -0.15382669
v 0.73135716 -6.19815020 -0.16100778
v -0.08441547 -6.34411471 -0.16101247
v -0.08444824 -6.19814033 -0.16101367
v 0.73133083 -6.34411970 -0.16099211
v 0.74595242 -6.34410223 -0.15380391
v 0.73132032 -6.34410215 -0.13997407
v 0.73134243 -6.34405907 -0.16101559
v 0.75100752 -6.34409788 -0.13998664
v 0.73134022 -6.19815810 0.44286516
v 0.73138781 -6.34409605 -0.14002663
v 0.73133029 -6.34408435 0.44287085
v 0.73136140 -6.19813389 -0.13999776
v 0.74593263 -6.19816497 -0.15381728
v 0.73131752 -6.34407620 -0.16097877
v 0.73132088 -6.19816771 -0.16103078
v 0.74592502 -6.34414295 -0.15382413
v 0.74596002 -6.34410020 -0.15379321
v 0.75099096 -6.19812215 -0.13999232
v 0.75099262 -6.34405533 -0.14000043
v 0.74592103 -6.19814629 -0.15380704
v 0.75101505 -6.34410912 0.44289105
v 0.73135354 -6.34410519 -0.13999288
v 0.75098567 -6.34405852 -0.14000631
v 0.73133332 -6.34411135 0.44287323
v 0.75099844 -6.34408296 0.44286914
v 0.73133746 -6.19817135 0.44286578
v 0.73138300 -6.34407873 0.44286649
v 0.75097783 -6.19816452 0.44287825
v 0.75099907 -6.34410637 -0.14001533
v 0.75102056 -6.19814242 0.44287279
v 0.75099512 -6.34410305 0.44283313
v 0.75100033 -6.19816599 -0.14001093
v -0.00570083 -6.30676051 -0.24004847
v -0.03344750 -5.75735154 -0.24001866
v -0.03344014 -6.30676314 -0.24003486
v -0.00568625 -5.75738098 -0.24001745
v -0.03340666 -5.75735159 -0.24002170
v -0.00574933 -5.75735741 -0.26220084
v -0.03342757 -5.75737121 -0.26219959
v -0.00568454 -5.75736553 -0.24003752
v -0.03340625 -5.75737857 -0.24001439
v -0.03342256 -6.30678430 -0.26220494
v -0.03343954 -6.30676140 -0.24002496
v -0.03343391 -5.75737852 -0.26219578
v -0.00567609 -6.30677361 -0.24002387
v -0.03343112 -6.30677080 -0.26220496
v -0.00568636 -6.30679523 -0.26219048
v -0.03342885 -6.30676630 -0.24003562
v -0.00568596 -6.30678846 -0.26218204
v -0.00571730 -5.75737754 -0.24002670
v -0.00566827 -6.30676754 -0.24003418
v -0.00571298 -5.75736441 -0.26220076
v -0.00566474 -5.75735182 -0.26222413
v -0.03339391 -6.30677797 -0.26221407
v -0.03340246 -5.75736222 -0.26220614
v -0.00568753 -6.30675877 -0.26218507
v -0.15488702 -6.00567767 0.44289325
v -0.30080909 -5.99635118 0.44286358
v -0.30080131 -6.00571865 0.44286675
v -0.15485316 -5.99633286 0.44287248
v -0.30079185 -5.99631733 0.44286164
v -0.15487506 -5.99632390 -0.13998427
v -0.30079971 -5.99632050 -0.14001225
v -0.15488863 -5.99635192 0.44288049
v -0.30081555 -5.99634605 0.44286349
v -0.30081283 -6.00572418 -0.13998971
v -0.30079091 -6.00571606 0.44287538
v -0.30081222 -5.99633027 -0.13999402
v -0.15484104 -6.00572558 0.44288420
v -0.30079635 -6.00571420 -0.13998637
v -0.15488800 -6.00567581 -0.14001618
v -0.30078898 -6.00572598 0.44289641
v 0.78876601 -5.77263488 -0.24121162
v -0.15632817 -6.19846933 -0.24125839
v -0.15635698 -5.77263448 -0.24121926
v 0.78878389 -6.19844863 -0.24121473
v -0.15636828 -5.77261590 0.46201340
v -0.15634985 -6.19843171 -0.24121785
v -0.15636282 -6.19846677 0.46201332
v -0.15635973 -5.77260712 -0.24122633
v -0.15633044 -5.77262890 0.46199425
v 0.78878870 -5.77266055 -0.24119142
v -0.15634620 -5.77264573 -0.24120084
v 0.78878838 -5.77262541 0.46202759
v 0.78878871 -6.19844448 -0.24122080
v 0.78877362 -5.77262861 0.46199636
v 0.78877664 -6.19845776 0.46200970
v 0.78877040 -5.77264275 -0.24122527
v 0.78875816 -6.19844620 0.46199532
v -0.15633303 -6.19848444 -0.24124246
v 0.78875573 -6.19844660 -0.24119591
v -0.15634007 -6.19847678 0.46199461
v 0.78876736 -6.19846970 0.46195783
v -0.15635850 -5.77264027 0.46202011
v -0.15634273 -6.19844266 0.46199054
v 0.78876806 -5.77269771 0.46200381
v -0.15485725 -6.04111405 0.44287105
v -0.30080176 -6.03178278 0.44286038
v -0.30081426 -6.04114670 0.44289958
v -0.15486569 -6.03178409 0.44288079
v -0.30079985 -6.03178232 0.44289629
v -0.15489496 -6.03177516 -0.13998511
v -0.30082395 -6.03176626 -0.13997538
v -0.15485870 -6.03179802 0.44286731
v -0.30078414 -6.03176723 0.44287844
v -0.30079639 -6.04113019 -0.14000637
v -0.30080772 -6.04113914 0.44287017
v -0.30080529 -6.03175175 -0.14001039
v -0.15483589 -6.04111226 0.44285206
v -0.30080541 -6.04113605 -0.14000719
v -0.15487720 -6.04114503 -0.13998396
v -0.30081114 -6.04111307 0.44288308
v 0.52276941 -6.34407241 0.44288829
v 0.51340660 -6.19815454 0.44290668
v 0.51341345 -6.34409800 0.44285417
v 0.52277677 -6.19816712 0.44285202
v 0.51339656 -6.19814506 0.44289845
v 0.51340525 -6.34408237 -0.14001439
v 0.51340053 -6.34409293 0.44289194
v 0.51340268 -6.19813696 -0.14000321
v 0.52277654 -6.34408842 0.44285924
v 0.51340360 -6.34409981 -0.14002489
v 0.52278584 -6.34410045 -0.14000860
v 0.51339504 -6.34409271 0.44290194
v 0.52276843 -6.34408753 -0.13997413
v 0.52277926 -6.19813287 0.44287121
v 0.52278294 -6.34409575 0.44289523
v 0.52275546 -6.19816149 -0.13997576
v 0.59368105 -6.34410041 0.44287979
v 0.58430329 -6.19812879 0.44285925
v 0.58431163 -6.34408948 0.44287697
v 0.59367166 -6.19816286 0.44288518
v 0.58429801 -6.19813941 0.44285499
v 0.58430537 -6.34409429 -0.14001479
v 0.58432406 -6.34409514 0.44286255
v 0.58429045 -6.19817366 -0.13999461
v 0.59366617 -6.34411598 0.44287501
v 0.58434923 -6.34409055 -0.13998359
v 0.59368738 -6.34408272 -0.14001620
v 0.58430730 -6.34409080 0.44287831
v 0.59368111 -6.34410516 -0.13999940
v 0.59367209 -6.19818691 0.44286009
v 0.59369145 -6.34407074 0.44290667
v 0.59368558 -6.19813558 -0.13998134
v -0.30077488 -5.94187688 0.35822514
v -0.31178266 -5.94256355 0.35818311
v -0.31177736 -6.02854320 0.35819290
v -0.30075856 -6.02924362 0.35823870
v -0.30073733 -5.94184824 0.35824370
v -0.31175636 -5.94256705 0.16962342
v -0.31176475 -5.94256747 0.35816428
v -0.31179091 -5.94255696 0.35815412
v -0.31175703 -6.02852125 0.16961048
v -0.31176376 -6.02852258 0.35818215
v -0.31174025 -5.94256410 0.16963013
v -0.30077479 -6.02926218 0.35823389
v -0.31176464 -6.02853182 0.35821073
v -0.31178148 -6.02855535 0.16963589
v -0.30076641 -6.02923373 0.16955194
v -0.30075903 -5.94185292 0.35822683
v -0.30075903 -6.02927060 0.35820803
v -0.30074249 -5.94184605 0.16956923
v -0.30076484 -5.94184507 0.16954969
v -0.30077963 -5.94183039 0.16956993
v -0.31174220 -6.02855308 0.16963987
v -0.31175002 -5.94255114 0.16962705
v -0.30077650 -6.02928060 0.16955094
v -0.30073891 -6.02923157 0.16956221
v -0.15487039 -6.07659833 0.44287598
v -0.30082334 -6.06722406 0.44288598
v -0.30084219 -6.07661923 0.44288081
v -0.15485827 -6.06724130 0.44286875
v -0.30080502 -6.06723909 0.44287444
v -0.15487148 -6.06722426 -0.14001006
v -0.30080863 -6.06727511 -0.13998703
v -0.15485290 -6.06723516 0.44289280
v -0.30079640 -6.06723835 0.44288593
v -0.30080736 -6.07659537 -0.14000080
v -0.30082587 -6.07660122 0.44290725
v -0.30081809 -6.06724523 -0.14000602
v -0.15487162 -6.07661367 0.44285936
v -0.30080752 -6.07663647 -0.14000420
v -0.15488409 -6.07663017 -0.14002204
v -0.30078434 -6.07660650 0.44284890
v 0.38094047 -6.34410523 0.44286789
v 0.37155719 -6.19813773 0.44287246
v 0.37158684 -6.34408669 0.44289989
v 0.38092160 -6.19812249 0.44289824
v 0.37158846 -6.19811251 0.44288176
v 0.37159231 -6.34410628 -0.13997784
v 0.37158219 -6.34410184 0.44291137
v 0.37157487 -6.19814928 -0.13999846
v 0.38093801 -6.34408662 0.44289002
v 0.37158508 -6.34413140 -0.13997979
v 0.38094428 -6.34411368 -0.13998606
v 0.37158831 -6.34411100 0.44291687
v 0.38093098 -6.34412168 -0.14001328
v 0.38097171 -6.19815214 0.44287283
v 0.38094874 -6.34410409 0.44286790
v 0.38093978 -6.19813845 -0.13997960
v 0.13274489 -6.34409114 0.44289079
v 0.12336948 -6.19815720 0.44286252
v 0.12336624 -6.34409327 0.44286719
v 0.13277100 -6.19814987 0.44288498
v 0.12338170 -6.19815925 0.44287719
v 0.12338615 -6.34410578 -0.13998880
v 0.12339779 -6.34409240 0.44290512
v 0.12337644 -6.19814135 -0.14000173
v 0.13276486 -6.34410770 0.44289586
v 0.12338896 -6.34407639 -0.14001501
v 0.13275359 -6.34410867 -0.14000364
v 0.12337551 -6.34409672 0.44287832
v 0.13276060 -6.34410345 -0.13999250
v 0.13277479 -6.19816339 0.44287860
v 0.13276008 -6.34408760 0.44287760
v 0.13276099 -6.19816476 -0.13999507
v 0.62912391 -6.34408686 0.44287699
v 0.61976868 -6.19816321 0.44289104
v 0.61977879 -6.34408151 0.44291308
v 0.62913737 -6.19813078 0.44287667
v 0.61977417 -6.19814376 0.44288269
v 0.61977826 -6.34409955 -0.13999477
v 0.61977636 -6.34406778 0.44286555
v 0.61974010 -6.19815691 -0.13999401
v 0.62914089 -6.34409342 0.44289690
v 0.61978318 -6.34409561 -0.14000267
v 0.62913283 -6.34410037 -0.13999890
v 0.61974371 -6.34410199 0.44287201
v 0.62913526 -6.34409879 -0.13998500
v 0.62912995 -6.19815621 0.44288698
v 0.62913454 -6.34409150 0.44288895
v 0.62914472 -6.19814554 -0.13999845
v 0.70006183 -6.34409213 0.44287077
v 0.69067882 -6.19816828 0.44286370
v 0.69065200 -6.34410538 0.44289927
v 0.70004265 -6.19813722 0.44287854
v 0.69067030 -6.19812869 0.44288760
v 0.69065403 -6.34407872 -0.14001205
v 0.69067840 -6.34408450 0.44287395
v 0.69069848 -6.19813763 -0.14001982
v 0.70004395 -6.34409048 0.44286969
v 0.69067780 -6.34408246 -0.13999050
v 0.70003701 -6.34409214 -0.14000488
v 0.69066234 -6.34411235 0.44288303
v 0.70005083 -6.34409476 -0.14001315
v 0.70004842 -6.19816547 0.44286424
v 0.70004871 -6.34411627 0.44288895
v 0.70008978 -6.19814231 -0.14001155
v 0.41639961 -6.34411893 0.44287274
v 0.40704155 -6.19814029 0.44286261
v 0.40703832 -6.34407694 0.44290577
v 0.41639296 -6.19816280 0.44287943
v 0.40698835 -6.19815764 0.44287439
v 0.40702658 -6.34411937 -0.13999921
v 0.40702167 -6.34408312 0.44286437
v 0.40702932 -6.19815302 -0.13998661
v 0.41636439 -6.34410012 0.44289035
v 0.40702809 -6.34411849 -0.13999035
v 0.41640902 -6.34409904 -0.14001336
v 0.40702222 -6.34409971 0.44286503
v 0.41637408 -6.34410676 -0.13999636
v 0.41639596 -6.19815058 0.44287989
v 0.41641769 -6.34406072 0.44288992
v 0.41638206 -6.19819056 -0.13999687
v 0.45185902 -6.34411284 0.44288280
v 0.44247592 -6.19814318 0.44287355
v 0.44249395 -6.34412184 0.44287180
v 0.45185561 -6.19817148 0.44290774
v 0.44247942 -6.19812789 0.44286830
v 0.44248423 -6.34407652 -0.13999070
v 0.44249077 -6.34409073 0.44285744
v 0.44248176 -6.19816422 -0.13999235
v 0.45184949 -6.34409553 0.44287739
v 0.44248723 -6.34409539 -0.14000551
v 0.45184159 -6.34410514 -0.13997881
v 0.44249359 -6.34408576 0.44289996
v 0.45183965 -6.34408695 -0.14001205
v 0.45185273 -6.19814192 0.44290359
v 0.45184580 -6.34409632 0.44289649
v 0.45183484 -6.19814381 -0.14000018
v -0.15487938 -6.11204546 0.44288780
v -0.30081735 -6.10267173 0.44288127
v -0.30082245 -6.11202368 0.44289547
v -0.15487904 -6.10268670 0.44289052
v -0.30081089 -6.10270610 0.44289483
v -0.15486559 -6.10264686 -0.13998987
v -0.30080027 -6.10263188 -0.13999806
v -0.15488046 -6.10267406 0.44289618
v -0.30082126 -6.10269168 0.44288555
v -0.30085273 -6.11206465 -0.13998309
v -0.30081231 -6.11207291 0.44290841
v -0.30082506 -6.10268450 -0.14000117
v -0.15486444 -6.11205345 0.44287734
v -0.30080233 -6.11204907 -0.13999396
v -0.15490256 -6.11204090 -0.14001715
v -0.30083677 -6.11202634 0.44285868
v -0.30094692 -6.14135046 -0.14000591
v -0.30094222 -6.15596106 -0.15380067
v -0.30094381 -6.16096647 -0.14000061
v -0.30093350 -6.14131186 -0.16097883
v -0.30094063 -5.82896949 -0.13995128
v -0.30091514 -5.82898831 -0.16098910
v -0.30094039 -5.80940867 -0.13999303
v -0.30094215 -5.81427687 -0.15380305
v -0.15500695 -6.14131694 -0.16099848
v -0.30094127 -6.15592949 -0.15378115
v -0.30093071 -6.14133266 -0.16100018
v -0.15503115 -6.15594030 -0.15382250
v -0.15502806 -6.16097442 -0.13999696
v -0.30094240 -6.15595453 -0.15378784
v -0.15500998 -6.15592643 -0.15379601
v -0.30094715 -6.16099191 -0.13999492
v -0.30093689 -6.14132770 0.44286008
v -0.30093382 -6.16098781 -0.13998278
v -0.30096051 -6.16097462 0.44286625
v -0.30094770 -6.14134312 -0.13999983
v -0.15502098 -6.14134088 -0.14002236
v -0.30093613 -5.82896155 -0.14000226
v -0.30097107 -6.14134851 -0.13998073
v -0.15500252 -5.82898109 -0.13998151
v -0.30096583 -5.80941928 0.44294499
v -0.30095119 -5.82898556 -0.14003430
v -0.30093931 -5.82897143 0.44291065
v -0.30094041 -5.80941001 -0.13999109
v -0.30093507 -5.80942125 -0.13998435
v -0.15500162 -5.81427959 -0.15378111
v -0.30093951 -5.81430008 -0.15377859
v -0.15502935 -5.80941696 -0.14001034
v -0.15501380 -5.81427462 -0.15378634
v -0.30094253 -5.82898588 -0.16101197
v -0.30095905 -5.81427663 -0.15382048
v -0.15499882 -5.82897695 -0.16100073
v -0.15498880 -5.82898380 -0.16097767
v -0.30097153 -6.14135127 -0.16102784
v -0.30096127 -5.82896741 -0.16099198
v -0.15500746 -6.14133437 -0.16102157
v -0.15503275 -6.16097979 0.44289946
v -0.30095535 -6.16100414 -0.14001915
v -0.15502275 -6.16096004 -0.13999862
v -0.30096578 -6.16099393 0.44287110
v -0.30094559 -6.14134872 0.44286481
v -0.15501512 -6.14133124 -0.13998430
v -0.30094118 -6.14134559 -0.14002165
v -0.15502457 -6.14133410 0.44285794
v -0.15500830 -6.16099363 0.44286958
v -0.30093237 -6.14133511 0.44289981
v -0.30096425 -6.16096699 0.44289267
v -0.15505858 -6.14133987 0.44290247
v -0.15500016 -5.82898327 0.44293404
v -0.30096988 -5.82897325 -0.14002317
v -0.15502793 -5.82895911 -0.13999572
v -0.30095533 -5.82897808 0.44298010
v -0.30093368 -5.80942180 0.44296345
v -0.15501358 -5.80939834 0.44292856
v -0.15502673 -5.82896402 0.44292574
v -0.30096181 -5.80939589 0.44291965
v -0.30097168 -5.82896800 0.44290729
v -0.15502385 -5.80941545 0.44291681
v -0.30078146 -6.08951728 -0.04650684
v -0.31177001 -6.08885044 0.06915822
v -0.31177523 -6.08885769 -0.04651173
v -0.30075470 -6.08951499 0.06909955
v -0.31176773 -5.88222595 0.06914482
v -0.31175617 -6.08886585 -0.04656940
v -0.31175296 -6.08886935 0.06913265
v -0.31174498 -5.88223096 -0.04653121
v -0.30072924 -6.08950955 -0.04652292
v -0.31176804 -6.08882259 -0.04655261
v -0.31175605 -5.88221663 -0.04651578
v -0.30076501 -6.08952384 -0.04653668
v -0.30077823 -5.88158036 0.06910256
v -0.30076917 -6.08952523 0.06913660
v -0.30075697 -5.88156993 -0.04651134
v -0.30076682 -6.08950850 0.06908730
v -0.31175732 -5.88226062 0.06913604
v -0.31175353 -6.08884439 0.06915324
v -0.31174510 -5.88221853 0.06915929
v -0.30075928 -5.88156893 -0.04654135
v -0.31175041 -5.88224373 -0.04656848
v -0.30077084 -5.88155988 0.06908347
v -0.30074414 -5.88156735 -0.04651490
v -0.30076636 -5.88156186 0.06908049
v 0.48734849 -6.34410744 0.44286674
v 0.47796080 -6.19813718 0.44289911
v 0.47795809 -6.34408902 0.44285883
v 0.48730957 -6.19814634 0.44287832
v 0.47791011 -6.19813324 0.44290540
v 0.47796457 -6.34411061 -0.13998865
v 0.47790897 -6.34406868 0.44284855
v 0.47794825 -6.19813141 -0.13997541
v 0.48732222 -6.34411692 0.44287702
v 0.47793774 -6.34408914 -0.13998011
v 0.48732715 -6.34406200 -0.13998517
v 0.47793587 -6.34406961 0.44287372
v 0.48732126 -6.34409205 -0.14003091
v 0.48732118 -6.19814493 0.44287534
v 0.48731471 -6.34411474 0.44287987
v 0.48734017 -6.19815216 -0.14000349
v 0.78876256 -6.19843312 0.63329874
v 0.78878506 -5.77263560 0.65558946
v 0.78879228 -6.19846572 0.65553584
v 0.78879411 -5.77261475 0.63330261
v 0.78878351 -5.77264973 0.63330770
v -0.15637013 -6.19844991 0.63332392
v -0.15633756 -5.77261484 0.63333007
v 0.78878102 -6.19845275 0.63330324
v -0.15634575 -5.77265601 0.65554578
v 0.78877055 -5.77262089 0.63335159
v -0.15636202 -5.77263465 0.63331862
v 0.78878014 -5.77262831 0.65556532
v 0.78875700 -6.19845824 0.65557353
v -0.15635316 -5.77260670 0.65555607
v -0.15635503 -6.19845977 0.65555572
v 0.78875080 -5.77263773 0.65558442
v 0.78880298 -6.19847314 0.65557373
v -0.15634316 -6.19845996 0.63333935
v 0.78878517 -6.19846197 0.63330534
v -0.15636262 -6.19846535 0.65556472
v -0.15633742 -5.77262522 0.65557488
v -0.15638243 -6.19845037 0.63330350
v -0.15632796 -6.19845914 0.65556948
v -0.15635359 -5.77263295 0.63329081
v -0.15484876 -5.86386377 0.44283850
v -0.30078679 -5.85446256 0.44286502
v -0.30078444 -5.86387025 0.44284349
v -0.15487126 -5.85448348 0.44288066
v -0.30080162 -5.85448394 0.44288194
v -0.15486907 -5.85449662 -0.13999952
v -0.30080867 -5.85449200 -0.14001248
v -0.15487412 -5.85448725 0.44288338
v -0.30080421 -5.85449137 0.44288687
v -0.30079061 -5.86384811 -0.14002250
v -0.30081027 -5.86384772 0.44288657
v -0.30079270 -5.85448244 -0.14000862
v -0.15484679 -5.86387970 0.44289385
v -0.30080348 -5.86388145 -0.14000154
v -0.15484708 -5.86386775 -0.14001415
v -0.30080769 -5.86387131 0.44285922
v 0.66459906 -6.34408249 0.44287005
v 0.65523028 -6.19815541 0.44287705
v 0.65522408 -6.34407173 0.44288645
v 0.66457681 -6.19814143 0.44287516
v 0.65521495 -6.19816242 0.44287818
v 0.65522124 -6.34410108 -0.14001694
v 0.65519573 -6.34409287 0.44288135
v 0.65525597 -6.19815218 -0.13997959
v 0.66461079 -6.34409579 0.44287978
v 0.65521551 -6.34406736 -0.14001876
v 0.66459167 -6.34407342 -0.13999707
v 0.65521333 -6.34409124 0.44288675
v 0.66460107 -6.34409049 -0.13998379
v 0.66460693 -6.19816655 0.44287272
v 0.66460575 -6.34408728 0.44288222
v 0.66460270 -6.19813467 -0.14000869
v 0.02637504 -6.34411271 0.44290737
v 0.01700760 -6.19815305 0.44287572
v 0.01703989 -6.34412177 0.44287798
v 0.02641285 -6.19813215 0.44288493
v 0.01701989 -6.19812220 0.44285270
v 0.01703912 -6.34408698 -0.13998625
v 0.01702804 -6.34409167 0.44289300
v 0.01700607 -6.19816872 -0.13999289
v 0.02639485 -6.34409231 0.44290322
v 0.01701496 -6.34408321 -0.13998945
v 0.02643069 -6.34411656 -0.14000386
v 0.01701685 -6.34407440 0.44286589
v 0.02641972 -6.34407010 -0.13998200
v 0.02640082 -6.19817351 0.44288141
v 0.02637189 -6.34410046 0.44288173
v 0.02638926 -6.19813469 -0.13999740
v -0.04454302 -6.34411126 0.44285886
v -0.05389406 -6.19813010 0.44288642
v -0.05388390 -6.34411475 0.44291527
v -0.04451948 -6.19811199 0.44286516
v -0.05389795 -6.19810916 0.44286194
v -0.05388268 -6.34410009 -0.14000800
v -0.05385570 -6.34411040 0.44289249
v -0.05387206 -6.19816508 -0.14002478
v -0.04454662 -6.34410723 0.44288204
v -0.05388397 -6.34409778 -0.13999703
v -0.04450396 -6.34408295 -0.13998954
v -0.05389871 -6.34408281 0.44288140
v -0.04453062 -6.34410378 -0.13997638
v -0.04449047 -6.19815762 0.44284641
v -0.04450995 -6.34410884 0.44288993
v -0.04452486 -6.19811489 -0.13999367
v 0.06186212 -6.34411366 0.44283493
v 0.05248012 -6.19814536 0.44288974
v 0.05246945 -6.34411485 0.44285381
v 0.06185671 -6.19813842 0.44286503
v 0.05246985 -6.19816069 0.44284924
v 0.05248111 -6.34408175 -0.13999886
v 0.05245600 -6.34409792 0.44289972
v 0.05251101 -6.19814525 -0.14000762
v 0.06181740 -6.34411879 0.44287721
v 0.05248152 -6.34409087 -0.13999948
v 0.06182425 -6.34411926 -0.13999312
v 0.05246526 -6.34407464 0.44285600
v 0.06187427 -6.34410517 -0.13999195
v 0.06185160 -6.19815474 0.44284741
v 0.06184067 -6.34407127 0.44285876
v 0.06181962 -6.19815280 -0.14000179
v 0.63740430 -6.30678350 -0.24003780
v 0.60967867 -6.30676933 -0.26218951
v 0.63743031 -6.30676656 -0.26217443
v 0.60970202 -6.30681695 -0.24003597
v 0.60966065 -5.75737212 -0.24001841
v 0.60968194 -6.30677848 -0.26218006
v 0.60966177 -6.30677330 -0.24002185
v 0.60968543 -5.75737946 -0.26220080
v 0.63743682 -5.75735592 -0.26219553
v 0.60968982 -6.30676976 -0.26221967
v 0.60968027 -5.75735478 -0.26224868
v 0.63743604 -6.30676663 -0.26221724
v 0.63741276 -6.30677501 -0.26219405
v 0.63741852 -5.75734338 -0.24002395
v 0.63741214 -6.30677915 -0.24002682
v 0.63743559 -5.75735092 -0.26220196
v 0.63742663 -6.30677224 -0.24001762
v 0.60966979 -5.75735212 -0.24005903
v 0.60969204 -6.30676788 -0.24003035
v 0.63739129 -5.75733719 -0.24001643
v 0.60968545 -5.75735435 -0.24004489
v 0.63743225 -5.75733729 -0.26221869
v 0.60972675 -5.75736822 -0.26218764
v 0.63741152 -5.75735540 -0.24005007
v 0.20365923 -6.34409839 0.44286843
v 0.19429558 -6.19813430 0.44285881
v 0.19428080 -6.34409412 0.44286985
v 0.20365389 -6.19814737 0.44286985
v 0.19430452 -6.19815003 0.44287547
v 0.19429826 -6.34407900 -0.13997506
v 0.19429685 -6.34411080 0.44285519
v 0.19426473 -6.19816762 -0.14000860
v 0.20366862 -6.34412397 0.44290073
v 0.19431579 -6.34407557 -0.14000335
v 0.20367321 -6.34410952 -0.13997141
v 0.19428053 -6.34410280 0.44290063
v 0.20370799 -6.34409627 -0.14000182
v 0.20363061 -6.19812293 0.44288336
v 0.20364026 -6.34408136 0.44288810
v 0.20366395 -6.19815805 -0.13998410
v 0.16822384 -6.34408731 0.44289758
v 0.15886369 -6.19813764 0.44288765
v 0.15882542 -6.34411212 0.44289126
v 0.16823024 -6.19814139 0.44289160
v 0.15883664 -6.19814067 0.44286328
v 0.15884618 -6.34408046 -0.14000588
v 0.15887545 -6.34407729 0.44289984
v 0.15884195 -6.19817092 -0.14000622
v 0.16822876 -6.34409917 0.44288976
v 0.15884754 -6.34410398 -0.13998094
v 0.16824115 -6.34410619 -0.13998748
v 0.15884764 -6.34409050 0.44287698
v 0.16820082 -6.34407302 -0.14001156
v 0.16820673 -6.19813925 0.44288137
v 0.16820789 -6.34410503 0.44287613
v 0.16821346 -6.19813940 -0.14001343
v -0.00905443 -6.34407115 0.44288171
v -0.01844393 -6.19816061 0.44287927
v -0.01843984 -6.34407573 0.44285009
v -0.00903468 -6.19818077 0.44287795
v -0.01844695 -6.19813671 0.44286660
v -0.01844772 -6.34410011 -0.14000177
v -0.01846014 -6.34408781 0.44284154
v -0.01841196 -6.19815452 -0.13998065
v -0.00906936 -6.34410713 0.44288868
v -0.01843922 -6.34411881 -0.13999675
v -0.00908138 -6.34409505 -0.13997405
v -0.01841527 -6.34409482 0.44287602
v -0.00906496 -6.34410472 -0.13998991
v -0.00906250 -6.19815532 0.44288277
v -0.00909131 -6.34406455 0.44288835
v -0.00908164 -6.19814763 -0.14001289
v -0.15487407 -5.89934430 0.44289550
v -0.30083296 -5.88996581 0.44285305
v -0.30080354 -5.89933536 0.44285681
v -0.15484343 -5.88993612 0.44286985
v -0.30079514 -5.88996263 0.44288236
v -0.15484200 -5.88996449 -0.13996765
v -0.30080769 -5.88996178 -0.13996615
v -0.15486146 -5.88999179 0.44288207
v -0.30082307 -5.88998607 0.44286399
v -0.30079817 -5.89934768 -0.14001710
v -0.30080910 -5.89932418 0.44286781
v -0.30082345 -5.88999397 -0.14000742
v -0.15485265 -5.89931493 0.44289082
v -0.30080594 -5.89932844 -0.13997577
v -0.15487917 -5.89932481 -0.14002437
v -0.30079266 -5.89933743 0.44286070
v 0.76719703 -6.17686779 0.45840822
v 0.76720886 -5.79422884 0.63456567
v 0.76717448 -6.17683843 0.63454740
v 0.76720442 -5.79421641 0.45841674
v -0.13477707 -5.79421490 0.63459859
v 0.76718835 -5.79422709 0.45841627
v -0.13475491 -5.79421133 0.45841767
v 0.76719442 -5.79420706 0.63455914
v 0.76715541 -6.17684284 0.63460459
v -0.13477589 -6.17685277 0.45844262
v 0.76721200 -6.17684958 0.45844100
v -0.13475156 -6.17685919 0.63454456
v -0.13477727 -5.79420693 0.63458232
v -0.13477096 -6.17686387 0.45839687
v -0.13478920 -6.17685248 0.63455144
v -0.13476342 -5.79422500 0.45841505
v 0.23916133 -6.34409410 0.44287327
v 0.22975073 -6.19817223 0.44289933
v 0.22976655 -6.34410309 0.44288214
v 0.23911802 -6.19814328 0.44285779
v 0.22975756 -6.19812617 0.44288550
v 0.22974428 -6.34408014 -0.13996520
v 0.22976474 -6.34409334 0.44286617
v 0.22976016 -6.19811965 -0.14002663
v 0.23914355 -6.34409256 0.44290202
v 0.22975144 -6.34412835 -0.13996457
v 0.23911047 -6.34408246 -0.13999738
v 0.22975280 -6.34409272 0.44287014
v 0.23913131 -6.34409008 -0.13998299
v 0.23913035 -6.19814448 0.44289916
v 0.23911445 -6.34409376 0.44288600
v 0.23914445 -6.19815040 -0.13999386
v 0.09730179 -6.34407564 0.44287362
v 0.08794762 -6.19815099 0.44287907
v 0.08791807 -6.34409397 0.44287813
v 0.09728416 -6.19816088 0.44287156
v 0.08791334 -6.19816826 0.44290135
v 0.08792106 -6.34410811 -0.14001702
v 0.08795602 -6.34408063 0.44288352
v 0.08793832 -6.19815703 -0.13999981
v 0.09729669 -6.34408466 0.44288931
v 0.08795114 -6.34406312 -0.13998445
v 0.09731695 -6.34407931 -0.14001928
v 0.08793708 -6.34411827 0.44290301
v 0.09729949 -6.34406739 -0.13997897
v 0.09729858 -6.19817511 0.44286118
v 0.09732321 -6.34409982 0.44285565
v 0.09730365 -6.19812320 -0.13997049
v -0.15487305 -5.93479870 0.44288808
v -0.30082613 -5.92540193 0.44287231
v -0.30079697 -5.93481137 0.44285695
v -0.15486070 -5.92540362 0.44285958
v -0.30082220 -5.92539713 0.44290106
v -0.15486843 -5.92537706 -0.14003018
v -0.30081621 -5.92541316 -0.13999965
v -0.15485380 -5.92540214 0.44285932
v -0.30078855 -5.92540548 0.44288281
v -0.30081352 -5.93479485 -0.14000134
v -0.30079091 -5.93479385 0.44291298
v -0.30080446 -5.92540878 -0.14001338
v -0.15487497 -5.93479766 0.44286754
v -0.30077970 -5.93479975 -0.14001053
v -0.15487289 -5.93481274 -0.13999264
v -0.30081910 -5.93478362 0.44287307
v 0.27457885 -6.34408055 0.44286700
v 0.26520750 -6.19812166 0.44288496
v 0.26521207 -6.34410223 0.44286319
v 0.27460960 -6.19815189 0.44290798
v 0.26519693 -6.19812998 0.44287541
v 0.26521397 -6.34407601 -0.13998857
v 0.26521995 -6.34411905 0.44287146
v 0.26523918 -6.19815296 -0.13999047
v 0.27457999 -6.34410447 0.44285545
v 0.26518984 -6.34406879 -0.13999663
v 0.27456411 -6.34410885 -0.13998188
v 0.26519285 -6.34410453 0.44286130
v 0.27456302 -6.34406931 -0.13999758
v 0.27457754 -6.19815873 0.44288962
v 0.27458347 -6.34409032 0.44288071
v 0.27457699 -6.19815686 -0.14002227
v -0.15487334 -5.97020331 0.44285940
v -0.30080315 -5.96086150 0.44289708
v -0.30076206 -5.97024296 0.44286501
v -0.15484931 -5.96086340 0.44290966
v -0.30079199 -5.96087706 0.44287554
v -0.15485917 -5.96085773 -0.14001296
v -0.30083302 -5.96089031 -0.13998585
v -0.15486810 -5.96089511 0.44287006
v -0.30083322 -5.96087077 0.44286519
v -0.30081186 -5.97023812 -0.13999258
v -0.30080230 -5.97021682 0.44291577
v -0.30079003 -5.96086841 -0.13998376
v -0.15487698 -5.97024960 0.44286510
v -0.30079870 -5.97021764 -0.13996096
v -0.15484522 -5.97022601 -0.14000606
v -0.30080204 -5.97022840 0.44287670
v 0.31006547 -6.34410755 0.44286753
v 0.30067239 -6.19811834 0.44285052
v 0.30065340 -6.34407491 0.44286808
v 0.31006851 -6.19816213 0.44289519
v 0.30066514 -6.19814230 0.44286255
v 0.30064163 -6.34408284 -0.14000360
v 0.30065228 -6.34411196 0.44286241
v 0.30068746 -6.19816370 -0.14000380
v 0.31006707 -6.34410154 0.44287850
v 0.30067220 -6.34409943 -0.14000606
v 0.31005642 -6.34408990 -0.14000515
v 0.30064505 -6.34411277 0.44286273
v 0.31000324 -6.34407667 -0.13999382
v 0.31004493 -6.19817138 0.44287108
v 0.31003290 -6.34409368 0.44287540
v 0.31001734 -6.19813251 -0.13998440
vt 0.35940000 0.16339999
vt 0.35190001 0.11549997
vt 0.35190001 0.16339999
vt 0.35940000 0.11549997
vt 0.84219998 0.00349998
vt 0.98940003 0.32870001
vt 0.98940003 0.00349998
vt 0.84219998 0.32870001
vt 0.36250001 0.74810004
vt 0.35870001 0.96050000
vt 0.36250001 0.96050000
vt 0.35870001 0.74810004
vt 0.98940003 0.32870001
vt 0.84219998 0.00349998
vt 0.98940003 0.00349998
vt 0.84219998 0.32870001
vt 0.52920002 0.16339999
vt 0.52170002 0.11549997
vt 0.52170002 0.16339999
vt 0.52920002 0.11549997
vt 0.84219998 0.00349998
vt 0.98940003 0.32870001
vt 0.98940003 0.00349998
vt 0.84219998 0.32870001
vt 0.51480001 0.74810004
vt 0.51059997 0.96050000
vt 0.51480001 0.96050000
vt 0.51059997 0.74810004
vt 0.98940003 0.32870001
vt 0.84219998 0.00349998
vt 0.98940003 0.00349998
vt 0.84219998 0.32870001
vt 0.01629996 0.16339999
vt 0.00060000 0.11549997
vt 0.00060000 0.16339999
vt 0.01629996 0.11549997
vt 0.47943181 0.96050000
vt 0.04694639 0.96553224
vt 0.05460000 0.96815455
vt 0.04439997 0.96050000
vt 0.05460000 0.96050000
vt 0.05460000 0.74810004
vt 0.04439997 0.74810004
vt 0.98940003 0.32870001
vt 0.84219998 0.00340003
vt 0.98940003 0.00340003
vt 0.84219998 0.32870001
vt 0.69260001 0.00470001
vt 0.83579999 0.31730002
vt 0.83579999 0.00470001
vt 0.69260001 0.31730002
vt 0.69260001 0.32859999
vt 0.83579999 0.32470000
vt 0.69260001 0.32470000
vt 0.83579999 0.32859999
vt 0.63980001 0.96050000
vt 0.05649995 0.96820003
vt 0.63980001 0.96820003
vt 0.65930003 0.59029996
vt 0.03069996 0.66260004
vt 0.03069996 0.59029996
vt 0.65930003 0.66260004
vt 0.83579999 0.32470000
vt 0.69260001 0.32470000
vt 0.51109999 0.66270000
vt 0.12840000 0.60409999
vt 0.12840000 0.66270000
vt 0.51109999 0.60409999
vt 0.64920002 0.96539998
vt 0.63980001 0.96050000
vt 0.63980001 0.96820003
vt 0.65245759 0.96028161
vt 0.84219998 0.00349998
vt 0.98940003 0.32870001
vt 0.98940003 0.00349998
vt 0.84219998 0.32870001
vt 0.69260001 0.32279998
vt 0.83579999 0.32669997
vt 0.69260001 0.32669997
vt 0.83579999 0.32279998
vt 0.83579999 0.32279998
vt 0.69260001 0.31529999
vt 0.83579999 0.31529999
vt 0.69260001 0.32279998
vt 0.65170002 0.74810004
vt 0.64090002 0.96050000
vt 0.65170002 0.96050000
vt 0.64090002 0.74810004
vt 0.68309999 0.16339999
vt 0.66740000 0.11549997
vt 0.66740000 0.16339999
vt 0.68309999 0.11549997
vt 0.83579999 0.31529999
vt 0.69260001 0.00269997
vt 0.83579999 0.00269997
vt 0.69260001 0.31529999
vt 0.99779999 0.35799998
vt 0.68599999 0.37610000
vt 0.99779999 0.37610000
vt 0.68599999 0.35799998
vt 0.64960003 0.37629998
vt 0.68229997 0.39380002
vt 0.64960003 0.39380002
vt 0.68229997 0.37629998
vt 0.68599999 0.35820001
vt 0.99779999 0.34299999
vt 0.99779999 0.35820001
vt 0.68599999 0.34299999
vt 0.68229997 0.37629998
vt 0.64960003 0.39380002
vt 0.68229997 0.39380002
vt 0.64960003 0.37629998
vt 0.99779999 0.39270002
vt 0.68599999 0.37690002
vt 0.99779999 0.37690002
vt 0.68599999 0.39270002
vt 0.13950001 0.66250002
vt 0.45130000 0.64660001
vt 0.13950001 0.64660001
vt 0.45130000 0.66250002
vt 0.34320000 0.16380000
vt 0.35200000 0.10089999
vt 0.34320000 0.10089999
vt 0.35200000 0.16380000
vt 0.98879999 0.00300002
vt 0.84450001 0.32910001
vt 0.98879999 0.32910001
vt 0.84450001 0.00300002
vt 0.85070002 0.74680001
vt 0.85530001 0.96170002
vt 0.85530001 0.74680001
vt 0.85070002 0.96170002
vt 0.84450001 0.00300002
vt 0.98879999 0.32910001
vt 0.84450001 0.32910001
vt 0.98879999 0.00300002
vt 0.68150002 0.32870001
vt 0.00209999 0.16339999
vt 0.00209999 0.32870001
vt 0.68150002 0.16339999
vt 0.68419999 0.74000001
vt 0.99980003 0.99919999
vt 0.99980003 0.74000001
vt 0.68419999 0.99919999
vt 0.68110001 0.40600002
vt 0.00369996 0.66540003
vt 0.68110001 0.66540003
vt 0.00369996 0.40600002
vt 0.68739998 0.66509998
vt 0.99919999 0.40649998
vt 0.68739998 0.40649998
vt 0.99919999 0.66509998
vt 0.68089998 0.74039996
vt 0.00509995 0.99750000
vt 0.68089998 0.99750000
vt 0.00509995 0.74039996
vt 0.00030000 0.00099999
vt 0.68540001 0.16259998
vt 0.68540001 0.00099999
vt 0.00030000 0.16259998
vt 0.30989999 0.16380000
vt 0.31869999 0.10089999
vt 0.30989999 0.10089999
vt 0.31869999 0.16380000
vt 0.98879999 0.00300002
vt 0.84450001 0.32910001
vt 0.98879999 0.32910001
vt 0.84450001 0.00300002
vt 0.87639999 0.74680001
vt 0.88120002 0.96170002
vt 0.88120002 0.74680001
vt 0.87639999 0.96170002
vt 0.84450001 0.00300002
vt 0.98879999 0.32910001
vt 0.84450001 0.32910001
vt 0.98879999 0.00300002
vt 0.50089997 0.16339999
vt 0.49340001 0.11549997
vt 0.49340001 0.16339999
vt 0.50089997 0.11549997
vt 0.84219998 0.00349998
vt 0.98940003 0.32870001
vt 0.98940003 0.00349998
vt 0.84219998 0.32870001
vt 0.48980001 0.74810004
vt 0.48490000 0.96050000
vt 0.48980001 0.96050000
vt 0.48490000 0.74810004
vt 0.98940003 0.32870001
vt 0.84219998 0.00349998
vt 0.98940003 0.00349998
vt 0.84219998 0.32870001
vt 0.55750000 0.16339999
vt 0.55000001 0.11549997
vt 0.55000001 0.16339999
vt 0.55750000 0.11549997
vt 0.84219998 0.00349998
vt 0.98940003 0.32870001
vt 0.98940003 0.00349998
vt 0.84219998 0.32870001
vt 0.54020000 0.74810004
vt 0.53590000 0.96050000
vt 0.54020000 0.96050000
vt 0.53590000 0.74810004
vt 0.98940003 0.32870001
vt 0.84219998 0.00349998
vt 0.98940003 0.00349998
vt 0.84219998 0.32870001
vt 0.64029998 0.33410001
vt 0.62790000 0.34140003
vt 0.62790000 0.39620000
vt 0.64029998 0.40350002
vt 0.64029998 0.33410001
vt 0.33390000 0.34140003
vt 0.62790000 0.34140003
vt 0.62790000 0.34140003
vt 0.33390000 0.39620000
vt 0.62790000 0.39620000
vt 0.33390000 0.34140003
vt 0.64029998 0.40350002
vt 0.62790000 0.39620000
vt 0.33390000 0.39620000
vt 0.07109999 0.29119998
vt 0.15600000 0.21139997
vt 0.07109999 0.21139997
vt 0.15600000 0.29119998
vt 0.32150000 0.33410001
vt 0.32150000 0.33410001
vt 0.33390000 0.39620000
vt 0.33390000 0.34140003
vt 0.32150000 0.40350002
vt 0.32150000 0.40350002
vt 0.27669999 0.16380000
vt 0.28549999 0.10089999
vt 0.27669999 0.10089999
vt 0.28549999 0.16380000
vt 0.98879999 0.00300002
vt 0.84450001 0.32910001
vt 0.98879999 0.32910001
vt 0.84450001 0.00300002
vt 0.90289998 0.74680001
vt 0.90810001 0.96170002
vt 0.90810001 0.74680001
vt 0.90289998 0.96170002
vt 0.84450001 0.00300002
vt 0.98879999 0.32910001
vt 0.84450001 0.32910001
vt 0.98879999 0.00300002
vt 0.38769999 0.16339999
vt 0.38020000 0.11549997
vt 0.38020000 0.16339999
vt 0.38769999 0.11549997
vt 0.84219998 0.00349998
vt 0.98940003 0.32870001
vt 0.98940003 0.00349998
vt 0.84219998 0.32870001
vt 0.38820001 0.74810004
vt 0.38360000 0.96050000
vt 0.38820001 0.96050000
vt 0.38360000 0.74810004
vt 0.98940003 0.32870001
vt 0.84219998 0.00349998
vt 0.98940003 0.00349998
vt 0.84219998 0.32870001
vt 0.18960001 0.16339999
vt 0.18209989 0.11549997
vt 0.18209989 0.16339999
vt 0.18960001 0.11549997
vt 0.84219998 0.00349998
vt 0.98940003 0.32870001
vt 0.98940003 0.00349998
vt 0.84219998 0.32870001
vt 0.21080001 0.74810004
vt 0.20610000 0.96050000
vt 0.21080001 0.96050000
vt 0.20610000 0.74810004
vt 0.98940003 0.32870001
vt 0.84219998 0.00349998
vt 0.98940003 0.00349998
vt 0.84219998 0.32870001
vt 0.58579999 0.16339999
vt 0.57830000 0.11549997
vt 0.57830000 0.16339999
vt 0.58579999 0.11549997
vt 0.84219998 0.00349998
vt 0.98940003 0.32870001
vt 0.98940003 0.00349998
vt 0.84219998 0.32870001
vt 0.56569999 0.74810004
vt 0.56110001 0.96050000
vt 0.56569999 0.96050000
vt 0.56110001 0.74810004
vt 0.98940003 0.32870001
vt 0.84219998 0.00349998
vt 0.98940003 0.00349998
vt 0.84219998 0.32870001
vt 0.64240003 0.16339999
vt 0.63489997 0.11549997
vt 0.63489997 0.16339999
vt 0.64240003 0.11549997
vt 0.84219998 0.00349998
vt 0.98940003 0.32870001
vt 0.98940003 0.00349998
vt 0.84219998 0.32870001
vt 0.61610001 0.74810004
vt 0.61100000 0.96050000
vt 0.61610001 0.96050000
vt 0.61100000 0.74810004
vt 0.98940003 0.32870001
vt 0.84219998 0.00349998
vt 0.98940003 0.00349998
vt 0.84219998 0.32870001
vt 0.41600001 0.16339999
vt 0.40849999 0.11549997
vt 0.40849999 0.16339999
vt 0.41600001 0.11549997
vt 0.84219998 0.00349998
vt 0.98940003 0.32870001
vt 0.98940003 0.00349998
vt 0.84219998 0.32870001
vt 0.41339999 0.74810004
vt 0.40920001 0.96050000
vt 0.41339999 0.96050000
vt 0.40920001 0.74810004
vt 0.98940003 0.32870001
vt 0.84219998 0.00349998
vt 0.98940003 0.00349998
vt 0.84219998 0.32870001
vt 0.44430000 0.16339999
vt 0.43680000 0.11549997
vt 0.43680000 0.16339999
vt 0.44430000 0.11549997
vt 0.84219998 0.00349998
vt 0.98940003 0.32870001
vt 0.98940003 0.00349998
vt 0.84219998 0.32870001
vt 0.43860000 0.74810004
vt 0.43470001 0.96050000
vt 0.43860000 0.96050000
vt 0.43470001 0.74810004
vt 0.98940003 0.32870001
vt 0.84219998 0.00349998
vt 0.98940003 0.00349998
vt 0.84219998 0.32870001
vt 0.24339999 0.16380000
vt 0.25220001 0.10089999
vt 0.24339999 0.10089999
vt 0.25220001 0.16380000
vt 0.98879999 0.00300002
vt 0.84450001 0.32910001
vt 0.98879999 0.32910001
vt 0.84450001 0.00300002
vt 0.92919999 0.74680001
vt 0.93430001 0.96170002
vt 0.93430001 0.74680001
vt 0.92919999 0.96170002
vt 0.84450001 0.00300002
vt 0.98879999 0.32910001
vt 0.84450001 0.32910001
vt 0.98879999 0.00300002
vt 0.95749998 0.96170002
vt 0.96832508 0.96682787
vt 0.97205991 0.96170002
vt 0.95749998 0.96950001
vt 0.72600001 0.96170002
vt 0.72600001 0.96950001
vt 0.71149838 0.96170002
vt 0.71511650 0.96682787
vt 0.69290000 0.32849997
vt 0.83579999 0.32459998
vt 0.83579999 0.32849997
vt 0.69290000 0.32459998
vt 0.69290000 0.31709999
vt 0.83579999 0.32459998
vt 0.69290000 0.32459998
vt 0.83579999 0.31709999
vt 0.95929998 0.74680001
vt 0.96929997 0.96170002
vt 0.96929997 0.74680001
vt 0.95929998 0.96170002
vt 0.27820000 0.66429996
vt 0.51450002 0.59549999
vt 0.27820000 0.59549999
vt 0.51450002 0.66429996
vt 0.71319997 0.74680001
vt 0.72320002 0.96170002
vt 0.72320002 0.74680001
vt 0.71319997 0.96170002
vt 0.83579999 0.31800002
vt 0.69290000 0.32539999
vt 0.83579999 0.32539999
vt 0.69290000 0.31800002
vt 0.69290000 0.32539999
vt 0.83579999 0.32920003
vt 0.83579999 0.32539999
vt 0.69290000 0.32920003
vt 0.42750001 0.66429996
vt 0.20270000 0.59329998
vt 0.42750001 0.59329998
vt 0.20270000 0.66429996
vt 0.69290000 0.00370002
vt 0.83579999 0.31709999
vt 0.69290000 0.31709999
vt 0.83579999 0.00370002
vt 0.98890001 0.00300002
vt 0.84469998 0.32910001
vt 0.98890001 0.32910001
vt 0.84469998 0.00300002
vt 0.19750001 0.16369998
vt 0.21590000 0.10079998
vt 0.19750001 0.10079998
vt 0.21590000 0.16369998
vt 0.84469998 0.00300002
vt 0.98890001 0.32910001
vt 0.84469998 0.32910001
vt 0.98890001 0.00300002
vt 0.83579999 0.00449997
vt 0.69290000 0.00449997
vt 0.50900000 0.16369998
vt 0.52740002 0.10079998
vt 0.50900000 0.10079998
vt 0.52740002 0.16369998
vt 0.31369999 0.39256829
vt 0.30100000 0.33899999
vt 0.30100000 0.39730000
vt 0.31369999 0.33429998
vt 0.01579999 0.33899999
vt 0.30100000 0.39730000
vt 0.30100000 0.33899999
vt 0.01579999 0.39730000
vt 0.31369999 0.40210003
vt 0.30100000 0.39730000
vt 0.01579999 0.39730000
vt 0.40900001 0.31709999
vt 0.61089998 0.26819998
vt 0.40900001 0.26819998
vt 0.61089998 0.31709999
vt 0.31369999 0.33429998
vt 0.01579999 0.33899999
vt 0.30100000 0.33899999
vt 0.01579999 0.33899999
vt 0.00309998 0.39256829
vt 0.01579999 0.39730000
vt 0.00309998 0.33429998
vt 0.00309998 0.40210003
vt 0.00309998 0.33429998
vt 0.47260001 0.16339999
vt 0.46509999 0.11549997
vt 0.46509999 0.16339999
vt 0.47260001 0.11549997
vt 0.84219998 0.00349998
vt 0.98940003 0.32870001
vt 0.98940003 0.00349998
vt 0.84219998 0.32870001
vt 0.46399999 0.74810004
vt 0.46000001 0.96050000
vt 0.46399999 0.96050000
vt 0.46000001 0.74810004
vt 0.98940003 0.32870001
vt 0.84219998 0.00349998
vt 0.98940003 0.00349998
vt 0.84219998 0.32870001
vt 0.68739998 0.67750001
vt 0.99919999 0.66880000
vt 0.68739998 0.66880000
vt 0.99919999 0.67750001
vt 0.68370003 0.33020002
vt 0.00129998 0.16390002
vt 0.00129998 0.33020002
vt 0.68370003 0.16390002
vt 0.68110001 0.66839999
vt 0.00369996 0.67820001
vt 0.68110001 0.67820001
vt 0.00369996 0.66839999
vt 0.00030000 0.00099999
vt 0.68540001 0.16259998
vt 0.68540001 0.00099999
vt 0.00030000 0.16259998
vt 0.68089998 0.66850001
vt 0.00509995 0.67710000
vt 0.68089998 0.67710000
vt 0.00509995 0.66850001
vt 0.68419999 0.66890001
vt 0.99980003 0.67780000
vt 0.99980003 0.66890001
vt 0.68419999 0.67780000
vt 0.47620001 0.16380000
vt 0.48500001 0.10089999
vt 0.47620001 0.10089999
vt 0.48500001 0.16380000
vt 0.98879999 0.00300002
vt 0.84450001 0.32910001
vt 0.98879999 0.32910001
vt 0.84450001 0.00300002
vt 0.74559999 0.74680001
vt 0.75040001 0.96170002
vt 0.75040001 0.74680001
vt 0.74559999 0.96170002
vt 0.84450001 0.00300002
vt 0.98879999 0.32910001
vt 0.84450001 0.32910001
vt 0.98879999 0.00300002
vt 0.61409998 0.16339999
vt 0.60659999 0.11549997
vt 0.60659999 0.16339999
vt 0.61409998 0.11549997
vt 0.84219998 0.00349998
vt 0.98940003 0.32870001
vt 0.98940003 0.00349998
vt 0.84219998 0.32870001
vt 0.59119999 0.74810004
vt 0.58630002 0.96050000
vt 0.59119999 0.96050000
vt 0.58630002 0.74810004
vt 0.98940003 0.32870001
vt 0.84219998 0.00349998
vt 0.98940003 0.00349998
vt 0.84219998 0.32870001
vt 0.10470000 0.16339999
vt 0.09719997 0.11549997
vt 0.09719997 0.16339999
vt 0.10470000 0.11549997
vt 0.84219998 0.00349998
vt 0.98940003 0.32870001
vt 0.98940003 0.00349998
vt 0.84219998 0.32870001
vt 0.13460000 0.74810004
vt 0.13030000 0.96050000
vt 0.13460000 0.96050000
vt 0.13030000 0.74810004
vt 0.98940003 0.32870001
vt 0.84219998 0.00349998
vt 0.98940003 0.00349998
vt 0.84219998 0.32870001
vt 0.04809999 0.16339999
vt 0.04060000 0.11549997
vt 0.04060000 0.16339999
vt 0.04809999 0.11549997
vt 0.84219998 0.00349998
vt 0.98940003 0.32870001
vt 0.98940003 0.00349998
vt 0.84219998 0.32870001
vt 0.08410000 0.74810004
vt 0.07929998 0.96050000
vt 0.08410000 0.96050000
vt 0.07929998 0.74810004
vt 0.98940003 0.32870001
vt 0.84219998 0.00349998
vt 0.98940003 0.00349998
vt 0.84219998 0.32870001
vt 0.13300000 0.16339999
vt 0.12549999 0.11549997
vt 0.12549999 0.16339999
vt 0.13300000 0.11549997
vt 0.84219998 0.00349998
vt 0.98940003 0.32870001
vt 0.98940003 0.00349998
vt 0.84219998 0.32870001
vt 0.15989999 0.74810004
vt 0.15570000 0.96050000
vt 0.15989999 0.96050000
vt 0.15570000 0.74810004
vt 0.98940003 0.32870001
vt 0.84219998 0.00349998
vt 0.98940003 0.00349998
vt 0.84219998 0.32870001
vt 0.68229997 0.37629998
vt 0.64960003 0.39380002
vt 0.68229997 0.39380002
vt 0.64960003 0.37629998
vt 0.68599999 0.35820001
vt 0.99779999 0.34299999
vt 0.99779999 0.35820001
vt 0.68599999 0.34299999
vt 0.13950001 0.66250002
vt 0.45130000 0.64660001
vt 0.13950001 0.64660001
vt 0.45130000 0.66250002
vt 0.99779999 0.39270002
vt 0.68599999 0.37690002
vt 0.99779999 0.37690002
vt 0.68599999 0.39270002
vt 0.99779999 0.35799998
vt 0.68599999 0.37610000
vt 0.99779999 0.37610000
vt 0.68599999 0.35799998
vt 0.64960003 0.37629998
vt 0.68229997 0.39380002
vt 0.64960003 0.39380002
vt 0.68229997 0.37629998
vt 0.24620000 0.16339999
vt 0.23870000 0.11549997
vt 0.23870000 0.16339999
vt 0.24620000 0.11549997
vt 0.84219998 0.00349998
vt 0.98940003 0.32870001
vt 0.98940003 0.00349998
vt 0.84219998 0.32870001
vt 0.26150000 0.74810004
vt 0.25680000 0.96050000
vt 0.26150000 0.96050000
vt 0.25680000 0.74810004
vt 0.98940003 0.32870001
vt 0.84219998 0.00349998
vt 0.98940003 0.00349998
vt 0.84219998 0.32870001
vt 0.21789999 0.16339999
vt 0.21040000 0.11549997
vt 0.21040000 0.16339999
vt 0.21789999 0.11549997
vt 0.84219998 0.00349998
vt 0.98940003 0.32870001
vt 0.98940003 0.00349998
vt 0.84219998 0.32870001
vt 0.23600000 0.74810004
vt 0.23160000 0.96050000
vt 0.23600000 0.96050000
vt 0.23160000 0.74810004
vt 0.98940003 0.32870001
vt 0.84219998 0.00349998
vt 0.98940003 0.00349998
vt 0.84219998 0.32870001
vt 0.07639998 0.16339999
vt 0.06889998 0.11549997
vt 0.06889998 0.16339999
vt 0.07639998 0.11549997
vt 0.84219998 0.00349998
vt 0.98940003 0.32870001
vt 0.98940003 0.00349998
vt 0.84219998 0.32870001
vt 0.10960000 0.74810004
vt 0.10450000 0.96050000
vt 0.10960000 0.96050000
vt 0.10450000 0.74810004
vt 0.98940003 0.32870001
vt 0.84219998 0.00349998
vt 0.98940003 0.00349998
vt 0.84219998 0.32870001
vt 0.44299999 0.16380000
vt 0.45179999 0.10089999
vt 0.44299999 0.10089999
vt 0.45179999 0.16380000
vt 0.98879999 0.00300002
vt 0.84450001 0.32910001
vt 0.98879999 0.32910001
vt 0.84450001 0.00300002
vt 0.77260000 0.74680001
vt 0.77670002 0.96170002
vt 0.77670002 0.74680001
vt 0.77260000 0.96170002
vt 0.84450001 0.00300002
vt 0.98879999 0.32910001
vt 0.84450001 0.32910001
vt 0.98879999 0.00300002
vt 0.70319998 0.73759997
vt 0.98339999 0.68050003
vt 0.70319998 0.68050003
vt 0.98339999 0.73759997
vt 0.66560000 0.68009996
vt 0.01919996 0.73730004
vt 0.66560000 0.73730004
vt 0.01919996 0.68009996
vt 0.66549999 0.68030000
vt 0.02050000 0.73800004
vt 0.66549999 0.73800004
vt 0.02050000 0.68030000
vt 0.70020002 0.68019998
vt 0.98379999 0.73720002
vt 0.98379999 0.68019998
vt 0.70020002 0.73720002
vt 0.27450001 0.16339999
vt 0.26699999 0.11549997
vt 0.26699999 0.16339999
vt 0.27450001 0.11549997
vt 0.84219998 0.00349998
vt 0.98940003 0.32870001
vt 0.98940003 0.00349998
vt 0.84219998 0.32870001
vt 0.28670001 0.74810004
vt 0.28230000 0.96050000
vt 0.28670001 0.96050000
vt 0.28230000 0.74810004
vt 0.98940003 0.32870001
vt 0.84219998 0.00349998
vt 0.98940003 0.00349998
vt 0.84219998 0.32870001
vt 0.16130000 0.16339999
vt 0.15380000 0.11549997
vt 0.15380000 0.16339999
vt 0.16130000 0.11549997
vt 0.84219998 0.00349998
vt 0.98940003 0.32870001
vt 0.98940003 0.00349998
vt 0.84219998 0.32870001
vt 0.18550000 0.74810004
vt 0.18070000 0.96050000
vt 0.18550000 0.96050000
vt 0.18070000 0.74810004
vt 0.98940003 0.32870001
vt 0.84219998 0.00349998
vt 0.98940003 0.00349998
vt 0.84219998 0.32870001
vt 0.40970001 0.16380000
vt 0.41850001 0.10089999
vt 0.40970001 0.10089999
vt 0.41850001 0.16380000
vt 0.98879999 0.00300002
vt 0.84450001 0.32910001
vt 0.98879999 0.32910001
vt 0.84450001 0.00300002
vt 0.79839998 0.74680001
vt 0.80339998 0.96170002
vt 0.80339998 0.74680001
vt 0.79839998 0.96170002
vt 0.84450001 0.00300002
vt 0.98879999 0.32910001
vt 0.84450001 0.32910001
vt 0.98879999 0.00300002
vt 0.30280000 0.16339999
vt 0.29530001 0.11549997
vt 0.29530001 0.16339999
vt 0.30280000 0.11549997
vt 0.84219998 0.00349998
vt 0.98940003 0.32870001
vt 0.98940003 0.00349998
vt 0.84219998 0.32870001
vt 0.31209999 0.74810004
vt 0.30759999 0.96050000
vt 0.31209999 0.96050000
vt 0.30759999 0.74810004
vt 0.98940003 0.32870001
vt 0.84219998 0.00349998
vt 0.98940003 0.00349998
vt 0.84219998 0.32870001
vt 0.37650001 0.16380000
vt 0.38530001 0.10089999
vt 0.37650001 0.10089999
vt 0.38530001 0.16380000
vt 0.98879999 0.00300002
vt 0.84450001 0.32910001
vt 0.98879999 0.32910001
vt 0.84450001 0.00300002
vt 0.82510000 0.74680001
vt 0.82929999 0.96170002
vt 0.82929999 0.74680001
vt 0.82510000 0.96170002
vt 0.84450001 0.00300002
vt 0.98879999 0.32910001
vt 0.84450001 0.32910001
vt 0.98879999 0.00300002
vt 0.33109999 0.16339999
vt 0.32359999 0.11549997
vt 0.32359999 0.16339999
vt 0.33109999 0.11549997
vt 0.84219998 0.00349998
vt 0.98940003 0.32870001
vt 0.98940003 0.00349998
vt 0.84219998 0.32870001
vt 0.33739999 0.74810004
vt 0.33300000 0.96050000
vt 0.33739999 0.96050000
vt 0.33300000 0.74810004
vt 0.98940003 0.32870001
vt 0.84219998 0.00349998
vt 0.98940003 0.00349998
vt 0.84219998 0.32870001
f 1/1 2/2 3/3
f 2/2 1/1 4/4
f 5/5 6/6 7/7
f 6/6 5/5 8/8
f 9/9 10/10 11/11
f 10/10 9/9 12/12
f 13/13 14/14 15/15
f 14/14 13/13 16/16
f 17/17 18/18 19/19
f 18/18 17/17 20/20
f 21/21 22/22 23/23
f 22/22 21/21 24/24
f 25/25 26/26 27/27
f 26/26 25/25 28/28
f 29/29 30/30 31/31
f 30/30 29/29 32/32
f 33/33 34/34 35/35
f 34/34 33/33 36/36
f 37/37 38/38 39/39
f 38/38 37/37 40/40
f 40/40 41/41 42/42
f 40/40 42/42 43/43
f 44/44 45/45 46/46
f 45/45 44/44 47/47
f 48/48 49/49 50/50
f 49/49 48/48 51/51
f 52/52 53/53 54/54
f 53/53 52/52 55/55
f 56/56 57/57 58/58
f 59/59 60/60 61/61
f 60/60 59/59 62/62
f 51/51 63/63 49/49
f 63/63 51/51 64/64
f 65/65 66/66 67/67
f 66/66 65/65 68/68
f 69/69 70/70 71/71
f 70/70 69/69 72/72
f 73/73 74/74 75/75
f 74/74 73/73 76/76
f 77/77 78/78 79/79
f 78/78 77/77 80/80
f 81/81 82/82 83/83
f 82/82 81/81 84/84
f 85/85 86/86 87/87
f 86/86 85/85 88/88
f 89/89 90/90 91/91
f 90/90 89/89 92/92
f 93/93 94/94 95/95
f 94/94 93/93 96/96
f 97/97 98/98 99/99
f 98/98 97/97 100/100
f 101/101 102/102 103/103
f 102/102 101/101 104/104
f 105/105 106/106 107/107
f 106/106 105/105 108/108
f 109/109 110/110 111/111
f 110/110 109/109 112/112
f 113/113 114/114 115/115
f 114/114 113/113 116/116
f 117/117 118/118 119/119
f 118/118 117/117 120/120
f 121/121 122/122 123/123
f 122/122 121/121 124/124
f 125/125 126/126 127/127
f 126/126 125/125 128/128
f 129/129 130/130 131/131
f 130/130 129/129 132/132
f 133/133 134/134 135/135
f 134/134 133/133 136/136
f 137/137 138/138 139/139
f 138/138 137/137 140/140
f 141/141 142/142 143/143
f 142/142 141/141 144/144
f 145/145 146/146 147/147
f 146/146 145/145 148/148
f 149/149 150/150 151/151
f 150/150 149/149 152/152
f 153/153 154/154 155/155
f 154/154 153/153 156/156
f 157/157 158/158 159/159
f 158/158 157/157 160/160
f 161/161 162/162 163/163
f 162/162 161/161 164/164
f 165/165 166/166 167/167
f 166/166 165/165 168/168
f 169/169 170/170 171/171
f 170/170 169/169 172/172
f 173/173 174/174 175/175
f 174/174 173/173 176/176
f 177/177 178/178 179/179
f 178/178 177/177 180/180
f 181/181 182/182 183/183
f 182/182 181/181 184/184
f 185/185 186/186 187/187
f 186/186 185/185 188/188
f 189/189 190/190 191/191
f 190/190 189/189 192/192
f 193/193 194/194 195/195
f 194/194 193/193 196/196
f 197/197 198/198 199/199
f 198/198 197/197 200/200
f 201/201 202/202 203/203
f 202/202 201/201 204/204
f 205/205 206/206 207/207
f 206/206 205/205 208/208
f 209/209 210/210 211/211
f 209/209 211/211 212/212
f 213/213 214/214 215/215
f 216/216 217/217 218/218
f 217/217 216/216 219/219
f 220/220 221/221 222/222
f 223/223 224/224 225/225
f 224/224 223/223 226/226
f 213/213 227/227 214/214
f 228/228 229/229 230/230
f 220/220 222/222 231/231
f 232/232 229/229 228/228
f 233/233 234/234 235/235
f 234/234 233/233 236/236
f 237/237 238/238 239/239
f 238/238 237/237 240/240
f 241/241 242/242 243/243
f 242/242 241/241 244/244
f 245/245 246/246 247/247
f 246/246 245/245 248/248
f 249/249 250/250 251/251
f 250/250 249/249 252/252
f 253/253 254/254 255/255
f 254/254 253/253 256/256
f 257/257 258/258 259/259
f 258/258 257/257 260/260
f 261/261 262/262 263/263
f 262/262 261/261 264/264
f 265/265 266/266 267/267
f 266/266 265/265 268/268
f 269/269 270/270 271/271
f 270/270 269/269 272/272
f 273/273 274/274 275/275
f 274/274 273/273 276/276
f 277/277 278/278 279/279
f 278/278 277/277 280/280
f 281/281 282/282 283/283
f 282/282 281/281 284/284
f 285/285 286/286 287/287
f 286/286 285/285 288/288
f 289/289 290/290 291/291
f 290/290 289/289 292/292
f 293/293 294/294 295/295
f 294/294 293/293 296/296
f 297/297 298/298 299/299
f 298/298 297/297 300/300
f 301/301 302/302 303/303
f 302/302 301/301 304/304
f 305/305 306/306 307/307
f 306/306 305/305 308/308
f 309/309 310/310 311/311
f 310/310 309/309 312/312
f 313/313 314/314 315/315
f 314/314 313/313 316/316
f 317/317 318/318 319/319
f 318/318 317/317 320/320
f 321/321 322/322 323/323
f 322/322 321/321 324/324
f 325/325 326/326 327/327
f 326/326 325/325 328/328
f 329/329 330/330 331/331
f 330/330 329/329 332/332
f 333/333 334/334 335/335
f 334/334 333/333 336/336
f 337/337 338/338 339/339
f 338/338 337/337 340/340
f 341/341 342/342 343/343
f 342/342 341/341 344/344
f 345/345 346/346 347/347
f 346/346 345/345 348/348
f 349/349 350/350 351/351
f 350/350 349/349 352/352
f 353/353 354/354 355/355
f 354/354 353/353 356/356
f 357/357 358/358 359/359
f 358/358 357/357 360/360
f 361/361 362/362 363/363
f 362/362 361/361 364/364
f 364/364 361/361 365/365
f 364/364 365/365 366/366
f 366/366 365/365 367/367
f 366/366 367/367 368/368
f 369/369 370/370 371/371
f 370/370 369/369 372/372
f 373/373 374/374 375/375
f 374/374 373/373 376/376
f 377/377 378/378 379/379
f 378/378 377/377 380/380
f 381/381 382/382 383/383
f 382/382 381/381 384/384
f 385/385 386/386 387/387
f 386/386 385/385 388/388
f 389/389 390/390 391/391
f 390/390 389/389 392/392
f 393/393 394/394 395/395
f 394/394 393/393 396/396
f 397/397 398/398 399/399
f 398/398 397/397 400/400
f 401/401 402/402 403/403
f 402/402 401/401 404/404
f 405/405 406/406 407/407
f 406/406 405/405 408/408
f 409/409 410/410 411/411
f 410/410 409/409 412/412
f 413/413 414/414 415/415
f 414/414 413/413 416/416
f 417/417 392/392 389/389
f 392/392 417/417 418/418
f 419/419 420/420 421/421
f 420/420 419/419 422/422
f 423/423 424/424 425/425
f 424/424 423/423 426/426
f 427/427 428/428 429/429
f 428/428 427/427 430/430
f 431/431 432/432 433/433
f 434/434 435/435 436/436
f 435/435 434/434 437/437
f 438/438 439/439 440/440
f 441/441 442/442 443/443
f 442/442 441/441 444/444
f 431/431 433/433 445/445
f 446/446 439/439 438/438
f 447/447 448/448 449/449
f 448/448 447/447 450/450
f 451/451 452/452 453/453
f 452/452 451/451 454/454
f 455/455 456/456 457/457
f 456/456 455/455 458/458
f 459/459 460/460 461/461
f 460/460 459/459 462/462
f 463/463 464/464 465/465
f 464/464 463/463 466/466
f 467/467 468/468 469/469
f 468/468 467/467 470/470
f 471/471 472/472 473/473
f 472/472 471/471 474/474
f 475/475 476/476 477/477
f 476/476 475/475 478/478
f 479/479 480/480 481/481
f 480/480 479/479 482/482
f 483/483 484/484 485/485
f 484/484 483/483 486/486
f 487/487 488/488 489/489
f 488/488 487/487 490/490
f 491/491 492/492 493/493
f 492/492 491/491 494/494
f 495/495 496/496 497/497
f 496/496 495/495 498/498
f 499/499 500/500 501/501
f 500/500 499/499 502/502
f 503/503 504/504 505/505
f 504/504 503/503 506/506
f 507/507 508/508 509/509
f 508/508 507/507 510/510
f 511/511 512/512 513/513
f 512/512 511/511 514/514
f 515/515 516/516 517/517
f 516/516 515/515 518/518
f 519/519 520/520 521/521
f 520/520 519/519 522/522
f 523/523 524/524 525/525
f 524/524 523/523 526/526
f 527/527 528/528 529/529
f 528/528 527/527 530/530
f 531/531 532/532 533/533
f 532/532 531/531 534/534
f 535/535 536/536 537/537
f 536/536 535/535 538/538
f 539/539 540/540 541/541
f 540/540 539/539 542/542
f 543/543 544/544 545/545
f 544/544 543/543 546/546
f 547/547 548/548 549/549
f 548/548 547/547 550/550
f 551/551 552/552 553/553
f 552/552 551/551 554/554
f 555/555 556/556 557/557
f 556/556 555/555 558/558
f 559/559 560/560 561/561
f 560/560 559/559 562/562
f 563/563 564/564 565/565
f 564/564 563/563 566/566
f 567/567 568/568 569/569
f 568/568 567/567 570/570
f 571/571 572/572 573/573
f 572/572 571/571 574/574
f 575/575 576/576 577/577
f 576/576 575/575 578/578
f 579/579 580/580 581/581
f 580/580 579/579 582/582
f 583/583 584/584 585/585
f 584/584 583/583 586/586
f 587/587 588/588 589/589
f 588/588 587/587 590/590
f 591/591 592/592 593/593
f 592/592 591/591 594/594
f 595/595 596/596 597/597
f 596/596 595/595 598/598
f 599/599 600/600 601/601
f 600/600 599/599 602/602
f 603/603 604/604 605/605
f 604/604 603/603 606/606
f 607/607 608/608 609/609
f 608/608 607/607 610/610
f 611/611 612/612 613/613
f 612/612 611/611 614/614
f 615/615 616/616 617/617
f 616/616 615/615 618/618
f 619/619 620/620 621/621
f 620/620 619/619 622/622
f 623/623 624/624 625/625
f 624/624 623/623 626/626
f 627/627 628/628 629/629
f 628/628 627/627 630/630
f 631/631 632/632 633/633
f 632/632 631/631 634/634
f 635/635 636/636 637/637
f 636/636 635/635 638/638
f 639/639 640/640 641/641
f 640/640 639/639 642/642
f 643/643 644/644 645/645
f 644/644 643/643 646/646
f 647/647 648/648 649/649
f 648/648 647/647 650/650
f 651/651 652/652 653/653
f 652/652 651/651 654/654
f 655/655 656/656 657/657
f 656/656 655/655 658/658
f 659/659 660/660 661/661
f 660/660 659/659 662/662
f 663/663 664/664 665/665
f 664/664 663/663 666/666
f 667/667 668/668 669/669
f 668/668 667/667 670/670
f 671/671 672/672 673/673
f 672/672 671/671 674/674
f 675/675 676/676 677/677
f 676/676 675/675 678/678
f 679/679 680/680 681/681
f 680/680 679/679 682/682
f 683/683 684/684 685/685
f 684/684 683/683 686/686
f 687/687 688/688 689/689
f 688/688 687/687 690/690
f 691/691 692/692 693/693
f 692/692 691/691 694/694
f 695/695 696/696 697/697
f 696/696 695/695 698/698
f 699/699 700/700 701/701
f 700/700 699/699 702/702
f 703/703 704/704 705/705
f 704/704 703/703 706/706
f 707/707 708/708 709/709
f 708/708 707/707 710/710
f 711/711 712/712 713/713
f 712/712 711/711 714/714
f 715/715 716/716 717/717
f 716/716 715/715 718/718
f 719/719 720/720 721/721
f 720/720 719/719 722/722
f 723/723 724/724 725/725
f 724/724 723/723 726/726
f 727/727 728/728 729/729
f 728/728 727/727 730/730
f 731/731 732/732 733/733
f 732/732 731/731 734/734
f 735/735 736/736 737/737
f 736/736 735/735 738/738
f 739/739 740/740 741/741
f 740/740 739/739 742/742
f 743/743 744/744 745/745
f 744/744 743/743 746/746
f 747/747 748/748 749/749
f 748/748 747/747 750/750
f 751/751 752/752 753/753
f 752/752 751/751 754/754
f 755/755 756/756 757/757
f 756/756 755/755 758/758
f 759/759 760/760 761/761
f 760/760 759/759 762/762
f 763/763 764/764 765/765
f 764/764 763/763 766/766

