# https://github.com/mikedh/trimesh
v 1.04905370 -7.54155339 -1.62700303
v 1.04905071 -7.46129761 -0.34209345
v 1.04922287 -7.54139967 -0.34224640
v 1.04885396 -7.46131019 -1.62708904
v 1.04870183 -7.54156706 -0.34232425
v -2.49473160 -7.54161257 -1.62714039
v 1.04909474 -7.54138475 -1.62711343
v -2.49443028 -7.54163115 -1.09499628
v -2.49449675 -7.54152215 -0.34225211
v 1.04890331 -7.46128642 -1.62706336
v 1.04889069 -5.86510877 -0.34216823
v 1.04911330 -7.46118988 -0.34209434
v 1.04894177 -5.86509734 -1.62698314
v -2.49441205 -7.54171641 -0.34192801
v -3.02648401 -7.54142347 -1.09500878
v -2.49467154 -7.54132631 -1.09476531
v -3.02641858 -7.54134683 -0.34209406
v -2.49479995 -7.46122134 -1.09495250
v -2.49481144 -7.54147769 -1.62703326
v -2.49452653 -7.54170565 -1.09514175
v -2.49468913 -7.46138866 -1.62684525
v 2.48449179 -5.86503150 -0.66341830
v 1.04926299 -5.86488917 -1.62700477
v 2.48424662 -5.86507127 -1.62699754
v 1.04917979 -5.86516745 -0.34188377
v 2.48437341 -5.86517371 -0.34201112
v -3.02667020 -7.54124815 -1.09501968
v -3.20743710 -7.54158863 -1.62725163
v -3.02686069 -7.54144391 -1.62701153
v -3.20719939 -7.54164399 -0.34190285
v -3.02671851 -7.54130960 -0.34220750
v 2.97635192 -5.86504287 -0.34199728
v 2.48458611 -5.86516280 -0.66357374
v 2.97625630 -5.86500656 -0.66323908
v 2.48453940 -5.86523299 -0.34202002
v -3.20753002 -7.46132308 -1.62700581
v -3.20766925 -7.54147895 -1.62717848
v -3.20736956 -7.54154651 -0.34211635
v -3.02657758 -7.54164331 -1.62689096
v -3.02657300 -7.46109956 -1.09487950
v -3.02656417 -7.54141446 -1.09503590
v -3.02688209 -7.46124009 -1.62720546
v 3.45811360 -5.86504163 -0.34222700
v 2.97630967 -5.86522848 -1.62705716
v 3.45836937 -5.86488886 -1.62709770
v 2.97660710 -5.86487741 -0.66321604
v 2.97611792 -5.86490233 -0.34209661
v -3.20728535 -7.46116740 -1.62704002
v -3.20733939 -7.54158718 -0.34241839
v -3.20736183 -7.46133610 -0.34199028
v 3.53858403 -5.86506675 -0.34226735
v 3.45824456 -5.86508039 -1.62730896
v 3.53866866 -5.86509396 -1.62726594
v 3.45797355 -5.86500507 -0.34218809
v -3.20742229 -3.83731754 -0.34188762
v -3.20735334 -7.46120827 -1.62730848
v -3.20710968 -7.46108898 -0.34199218
v -3.20733935 -3.83715202 -0.44248105
v -3.20725815 -3.83730548 -1.62730701
v 3.53877321 -5.86535655 -1.62713015
v 3.53859612 -3.99806324 -0.34206039
v 3.53859673 -5.86514146 -0.34207073
v 3.53855706 -3.99771318 -1.22549968
v 3.53855739 -3.99819174 -1.62728315
v 3.53878153 -3.99792078 -0.58311406
v -3.20711026 -2.69305372 -1.46656085
v -3.20741404 -3.83719945 -1.62719066
v -3.20743426 -3.83751409 -1.46637216
v -3.20723045 -2.69293796 -1.62707175
v -3.20753178 -2.69293731 -0.34195058
v -3.20732670 -3.83695192 -0.44264733
v -3.20726288 -3.83731170 -0.34206718
v -3.20734723 -2.69295014 -0.44265888
v 3.53906569 -3.99792370 -1.62738493
v 3.53853237 -3.19470520 -1.22562185
v 3.53882081 -3.99776868 -1.22557201
v 3.53855769 -3.19494681 -1.62719578
v 3.53841398 -3.99774059 -0.58284502
v 3.53844514 -3.19497221 -0.34240233
v 3.53848710 -3.99835950 -0.34231242
v 3.53881169 -3.19485218 -0.58295071
v -3.20741639 -2.05014486 -0.34211982
v -3.20740104 -2.69250311 -0.44258090
v -3.20752153 -2.69284058 -0.34215399
v -3.20719309 -2.69300189 -1.46636123
v -3.20722376 -2.69296543 -1.62707177
v -3.20746547 -2.05006085 -0.44263541
v -3.20741124 -2.05055067 -1.62714478
v 3.53862464 -3.19469232 -0.58316106
v 3.53859882 -0.94634488 -0.34226721
v 3.53902115 -3.19465306 -0.34226061
v 3.53843347 -3.19494262 -1.22555317
v 3.53863047 -3.19490942 -1.62728000
v 3.53882970 -0.94607666 -0.58312718
v 3.53859381 -0.94621754 -1.22597122
v 3.53864209 -0.94629521 -1.62723886
v -3.20743812 -0.26341041 -0.34231648
v -3.20755212 -2.05030578 -0.44242601
v -3.20748387 -2.05031690 -0.34219029
v -3.20730293 -0.90616859 -0.44241473
v -3.20717343 -0.90589608 -1.46639630
v -3.20788779 -2.05036022 -1.62709874
v -3.20736730 -2.05048818 -1.46646870
v -3.20728702 -0.26355342 -1.62716131
v -3.12685225 -2.69302827 -0.44238641
v -3.20732081 -2.69298505 -1.46651840
v -3.12716090 -2.69277265 -1.46642682
v -3.20742613 -2.69302782 -0.44249099
v 3.53876294 -0.94615785 -1.62703483
v 3.53857150 -0.14304114 -1.22559135
v 3.53866771 -0.94635827 -1.22545719
v 3.53859248 0.29870154 -1.62714357
v 3.53867148 0.29849576 -0.34197769
v 3.53838090 -0.94629072 -0.58303957
v 3.53883551 -0.94610158 -0.34218401
v 3.53842088 -0.14307846 -0.58307626
v -3.20710347 1.54353437 -0.34236689
v -3.20705520 -0.26357226 -0.44265967
v -3.20713445 -0.26352269 -0.34220117
v -3.20731478 1.54356636 -0.44239078
v 3.45812043 0.29893668 -0.34201247
v 3.53857104 0.29853252 -1.62723383
v 3.45833559 0.29855702 -1.62720452
v 3.53874196 0.29870209 -0.34220507
v -3.20724077 2.79847177 -0.34230449
v -3.20743281 1.54358039 -0.44243018
v -3.20731364 1.54361195 -0.34230359
v -3.20755856 1.54332080 -1.62707692
v -3.20746049 2.79820550 -0.44267338
v -3.20743527 2.79813211 -1.62704153
v -3.20723207 2.79820739 -1.46650561
v 3.37792195 0.29872621 -1.22553666
v 3.45854675 0.29849277 -1.62704266
v 3.37806912 0.29859831 -1.62701093
v 3.45811134 0.29895395 -0.34234110
v 3.37813743 0.29848886 -0.58290817
v 3.37795013 0.29867250 -0.34214076
v -3.20718815 3.94263938 -1.46690167
v -3.20745532 2.79830274 -1.62715753
v -3.20723567 2.79842214 -1.46649707
v -3.20756007 3.94288428 -1.62693860
v -3.20738915 3.94298824 -0.34219744
v -3.20750945 2.79825307 -0.44237865
v -3.20748079 2.79855560 -0.34227607
v -3.20720916 3.94276372 -0.44255552
v 3.13723277 0.29843442 -0.34195351
v 3.37799623 0.29857195 -0.58296584
v 3.13722981 0.29876035 -0.58278633
v 3.37816054 0.29883403 -0.34222593
v 3.13709293 0.29873077 -1.22555200
v 3.37804868 0.29871123 -1.62697350
v 3.13706305 0.29859983 -1.62721363
v 3.37787734 0.29881827 -1.22556159
v -3.20723321 4.98650715 -0.34242562
v -3.20749681 3.94285017 -0.44238005
v -3.20729852 3.94257038 -0.34216613
v -3.20738894 3.94263602 -1.46683547
v -3.20746937 3.94265825 -1.62687638
v -3.20732311 4.98689455 -1.62715047
v 2.37410190 0.29808989 -0.34208190
v 3.13715619 0.29890329 -1.62716459
v 2.37415170 0.29854876 -1.62726359
v 3.13697525 0.29860041 -1.22535484
v 3.13707795 0.29853632 -0.58305304
v 3.13710887 0.29855266 -0.34198428
v -3.20761731 5.06697770 -0.34205186
v -3.20753836 4.98674529 -1.62690832
v -3.20728106 4.98645076 -0.34225190
v -3.20716926 5.06705120 -1.62709532
v 2.37420153 0.29875358 -1.62719642
v 2.37409649 0.41913486 -0.34222652
v 2.37411902 0.29883609 -0.34228737
v 2.37441480 0.41938417 -0.44277940
v 2.37411794 0.41916373 -1.62720391
v -3.20745259 5.06697428 -0.34204122
v -2.80588152 5.06727063 -1.62705227
v -3.20736092 5.06721644 -1.62700399
v -2.80575509 5.06696082 -1.46621503
v -2.80569155 5.06697916 -0.44275984
v -2.80575456 5.06684415 -0.34239372
v 2.37409810 0.41915475 -0.44234927
v 2.37417874 1.32271037 -0.34232336
v 2.37413495 0.41913218 -0.34202462
v 2.37415485 1.32271009 -0.44260579
v -2.80575671 5.06706793 -0.34232679
v -1.48066572 5.06696237 -0.44280678
v -2.80567050 5.06695641 -0.44265578
v -1.48074509 5.06702820 -0.34193085
v -2.80583193 5.06707619 -1.46627826
v -1.48061431 5.06716178 -1.62716232
v -2.80569740 5.06700004 -1.62693965
v -1.48083500 5.06689644 -1.46629331
v 2.37411003 1.32254311 -0.44252226
v 2.37403919 2.79846668 -0.34232670
v 2.37411656 1.32264446 -0.34216235
v 2.37402300 1.32247016 -1.62703344
v 2.37399023 2.79836824 -0.44275223
v 2.37405850 2.79828158 -1.62727406
v 2.37423180 2.79827371 -1.46662460
v -1.48090899 5.06678358 -1.46646814
v -1.07932381 5.06681240 -1.62712710
v -1.48036393 5.06704821 -1.62698437
v -1.07912717 5.06712078 -1.46666830
v -1.48075273 5.06704589 -0.44253597
v -1.07918528 5.06691276 -0.44257049
v -1.48080207 5.06666065 -0.34231885
v -1.07908942 5.06723192 -0.34188697
v 2.37415207 2.79840372 -0.44240304
v 2.37403879 3.94244177 -0.34214292
v 2.37388518 2.79822952 -0.34206004
v 2.37393430 3.94269018 -0.44235536
v 2.37419009 2.79835136 -1.62696410
v 2.37438699 3.94270729 -1.46629913
v 2.37412897 2.79819795 -1.46643065
v 2.37405120 3.94260326 -1.62718135
v -1.07948728 5.06702351 -1.46665692
v 0.24592942 5.06721654 -1.62716871
v -1.07923553 5.06720418 -1.62701547
v 0.24608503 5.06695735 -1.46636806
v -1.48078943 5.06691131 -0.44244779
v -1.48077683 4.98680356 -1.46613208
v -1.48093301 4.98658542 -0.44237257
v -1.48071175 5.06717506 -1.46662049
v -1.07911014 5.06698675 -0.34212720
v 0.24599236 5.06683320 -0.44268762
v -1.07895682 5.06705046 -0.44251813
v 0.24593850 5.06705955 -0.34231331
v 2.37399475 3.94287284 -0.44251168
v 2.37426026 5.06692140 -0.34194969
v 2.37418776 3.94275464 -0.34206857
v 2.37402375 3.94241768 -1.46662997
v 2.37437228 3.94287229 -1.62714391
v 2.37409487 5.06715719 -1.62711809
v 0.24575828 5.06719006 -1.46640696
v 0.64712651 5.06696340 -1.62707328
v 0.24601392 5.06703021 -1.62718518
v 0.64747117 5.06705069 -1.46651395
v 0.24589143 5.06718813 -0.44266931
v 0.64743762 5.06671672 -0.44245573
v 0.24606374 5.06708711 -0.34201560
v 0.64755107 5.06705754 -0.34207930
v 1.97255195 5.06717897 -1.46652551
v 2.37392823 5.06713037 -1.62682819
v 1.97245248 5.06699377 -1.62719232
v 2.37408354 5.06701498 -0.34232564
v 1.97255047 5.06679789 -0.44261498
v 1.97242004 5.06685631 -0.34239428
v 0.64766286 5.06708145 -1.46675077
v 1.97250464 5.06691210 -1.62719311
v 0.64728006 5.06711667 -1.62715074
v 1.97265755 5.06708399 -1.46627799
v 0.24568426 5.06725798 -0.44235123
v 0.24602710 4.98703564 -1.46644604
v 0.24606277 4.98658740 -0.44237053
v 0.24596892 5.06694358 -1.46617153
v 0.64744403 5.06700963 -0.34217567
v 1.97248184 5.06708464 -0.44242738
v 0.64753867 5.06666944 -0.44238868
v 1.97254005 5.06683373 -0.34206073
v 1.97267114 5.06685860 -0.44217842
v 1.97241666 4.98644461 -1.46664118
v 1.97279432 4.98666817 -0.44258682
v 1.97258141 5.06692270 -1.46657457
vt 2.46479988 -0.44630003
vt 2.43359995 -0.94630003
vt 2.46479988 -0.94630003
vt 2.43359995 -0.44630003
vt 0.31250000 -0.94630003
vt 1.69140005 -0.44630003
vt 0.31250000 -0.44630003
vt 1.69140005 -0.65333104
vt 1.69140005 -0.94630003
vt -2.35159993 -0.44630003
vt -1.73049998 -0.94630003
vt -2.35159993 -0.94630003
vt -1.73049998 -0.44630003
vt 2.60549998 -0.94630003
vt 2.81250000 -0.65330005
vt 2.60549998 -0.65330005
vt 2.81250000 -0.94630003
vt 2.43359995 -0.65330005
vt 2.46479988 -0.44630003
vt 2.46479988 -0.65330005
vt 2.43359995 -0.44630003
vt 0.05079996 -0.82130003
vt -0.50779998 -0.44630003
vt 0.05079996 -0.44630003
vt -0.50779998 -0.94629896
vt 0.05079996 -0.94629896
vt 2.74220896 -0.65333104
vt 2.81250000 -0.44630003
vt 2.74221492 -0.44630003
vt 2.81250000 -0.94630003
vt 2.74219990 -0.94630003
vt 0.26949999 -0.94630003
vt 0.07809996 -0.82130003
vt 0.26949999 -0.82130003
vt 0.07809996 -0.94630003
vt 2.43359995 -0.44630003
vt 2.46479988 -0.44630003
vt 2.46479988 -0.94630003
vt 2.46479988 -0.44630003
vt 2.43359995 -0.65330005
vt 2.46479988 -0.65330005
vt 2.43359995 -0.44630003
vt 0.26949999 -0.94629896
vt 0.08199995 -0.44630003
vt 0.26949999 -0.44630003
vt 0.08199995 -0.82130003
vt 0.08199995 -0.94629896
vt 2.43359995 -0.44630003
vt 2.46479988 -0.94630003
vt 2.43359995 -0.94630003
vt -0.31250000 -0.94630003
vt -0.28130001 -0.44630003
vt -0.31250000 -0.44630003
vt -0.28130001 -0.94630003
vt 0.31254900 -0.94629896
vt 1.72270000 -0.44630003
vt 1.72268701 -0.94630003
vt 0.31255001 -0.90723705
vt 0.31256199 -0.44630003
vt 1.10160005 -0.44630003
vt 0.37500000 -0.94624901
vt 1.10160005 -0.94630003
vt 0.37500000 -0.60249996
vt 0.37500000 -0.44624996
vt 0.37500000 -0.85249996
vt 0.16410001 -0.50880003
vt 0.60923767 -0.44630003
vt 0.60923767 -0.50880003
vt 0.16410001 -0.44630003
vt 0.16410001 -0.94630003
vt 0.60923767 -0.90719998
vt 0.60923767 -0.94630003
vt 0.16410001 -0.90719998
vt 0.60939997 -0.44630003
vt 0.29689339 -0.60249996
vt 0.60940659 -0.60249996
vt 0.29688680 -0.44630003
vt 0.60939360 -0.85249996
vt 0.29690000 -0.94630003
vt 0.60939997 -0.94630003
vt 0.29689360 -0.85249996
vt -0.06639999 -0.94626200
vt 0.18359999 -0.90721798
vt 0.18359999 -0.94628000
vt 0.18359999 -0.50878096
vt 0.18359999 -0.44628096
vt -0.06639999 -0.90719998
vt -0.06639999 -0.44626296
vt 0.06254713 -0.85255098
vt -0.81250000 -0.94630003
vt 0.06254713 -0.94630003
vt 0.06254713 -0.60255003
vt 0.06254713 -0.44630003
vt -0.81250000 -0.85255098
vt -0.81250000 -0.60255003
vt -0.81250000 -0.44630003
vt -1.07809997 -0.94626200
vt -0.38278541 -0.90725005
vt -0.38278541 -0.94631195
vt -0.82810003 -0.90721798
vt -0.82810003 -0.50878096
vt -0.38278541 -0.44631302
vt -0.38278541 -0.50881302
vt -1.07809997 -0.44626296
vt 2.68750095 -0.90721905
vt 2.71880102 -0.50876403
vt 2.68750095 -0.50878203
vt 2.71880102 -0.90720105
vt -0.39055529 -0.44615996
vt -0.70310009 -0.60249996
vt -0.39055529 -0.60240996
vt -0.87500012 -0.44630003
vt -0.87500012 -0.94630003
vt -0.39055529 -0.85241103
vt -0.39055529 -0.94615996
vt -0.70310009 -0.85250103
vt -0.96090001 -0.94630003
vt -0.25780001 -0.90719998
vt -0.25780001 -0.94630003
vt -0.96090001 -0.90719998
vt -0.17190000 -0.94630003
vt -0.20310000 -0.44630003
vt -0.17190000 -0.44630003
vt -0.20310000 -0.94630003
vt -2.26950002 -0.94628096
vt -1.78120303 -0.90724397
vt -1.78120303 -0.94630599
vt -1.78120303 -0.44630599
vt -2.26950002 -0.90721905
vt -2.26950002 -0.44628096
vt -2.26950002 -0.50878096
vt 0.50389999 -0.60249996
vt 0.53520000 -0.44630003
vt 0.50389999 -0.44624996
vt 0.53520000 -0.94630003
vt 0.50389999 -0.85250103
vt 0.50389999 -0.94624996
vt -1.83589995 -0.50880003
vt -1.39059997 -0.44630003
vt -1.39059997 -0.50880003
vt -1.83589995 -0.44630003
vt -1.83589995 -0.94630003
vt -1.39059997 -0.90719998
vt -1.39059997 -0.94630003
vt -1.83589995 -0.90719998
vt 0.28520000 -0.94630003
vt 0.37889999 -0.85249996
vt 0.28520000 -0.85249996
vt 0.37889999 -0.94630003
vt 0.28520000 -0.60249996
vt 0.37889999 -0.44630003
vt 0.28520000 -0.44630003
vt 0.37889999 -0.60249996
vt -3.12109995 -0.94630003
vt -2.71479988 -0.90719998
vt -2.71479988 -0.94626200
vt -2.71479988 -0.50876200
vt -2.71479988 -0.44626200
vt -3.12109995 -0.44630003
vt 0.11330000 -0.94630003
vt 0.41020000 -0.44630003
vt 0.11330000 -0.44630003
vt 0.41020000 -0.60255003
vt 0.41020000 -0.85255098
vt 0.41020000 -0.94630003
vt -2.81250000 -0.94630003
vt -2.78130007 -0.44630003
vt -2.78130007 -0.94630003
vt -2.81250000 -0.44630003
vt -1.29690003 -0.44630003
vt -1.34379995 -0.94630003
vt -1.29690003 -0.94630003
vt -1.34379995 -0.90723801
vt -1.34379995 -0.44630003
vt 3.54685402 -0.94630897
vt 3.39059997 -0.44623697
vt 3.54685402 -0.44628096
vt 3.39059997 -0.50873995
vt 3.39059997 -0.90719998
vt 3.39059997 -0.94626403
vt 1.35160005 -0.90719998
vt 1.70309997 -0.94630003
vt 1.35160005 -0.94630003
vt 1.70309997 -0.90719998
vt 3.60935402 -0.94630003
vt 3.09369993 -0.90719998
vt 3.60935402 -0.90719998
vt 3.09369993 -0.94630003
vt 3.60935402 -0.50880003
vt 3.09369993 -0.44630003
vt 3.60935402 -0.44630003
vt 3.09369993 -0.50880003
vt -1.69529998 -0.90719998
vt -2.26943111 -0.94624400
vt -1.69529402 -0.94625902
vt -1.69537497 -0.44630206
vt -2.26943707 -0.90718496
vt -2.26951194 -0.44628799
vt -2.26950192 -0.50878203
vt 2.54690003 -0.50878096
vt 2.39059997 -0.44627905
vt 2.54690003 -0.44627905
vt 2.39059997 -0.50878096
vt 2.54690003 -0.90723002
vt 2.39059997 -0.90723002
vt 2.54690003 -0.94629395
vt 2.39059997 -0.94629395
vt -1.39059997 -0.90719998
vt -1.83589995 -0.94630003
vt -1.39059997 -0.94630003
vt -1.83589995 -0.90719998
vt -1.39059997 -0.44630003
vt -1.83589995 -0.50880003
vt -1.39059997 -0.50880003
vt -1.83589995 -0.44630003
vt 2.60934305 -0.50880003
vt 2.09386611 -0.44630003
vt 2.60934305 -0.44630003
vt 2.09386611 -0.50880003
vt -2.81249905 -0.90723002
vt -2.78129911 -0.50879896
vt -2.78129911 -0.90724897
vt -2.81249905 -0.50878000
vt 2.60935402 -0.94630003
vt 2.09369493 -0.90719998
vt 2.60935402 -0.90719998
vt 2.09369493 -0.94630003
vt -2.71480107 -0.90723801
vt -3.15235591 -0.94630003
vt -2.71479988 -0.94630003
vt -2.71481705 -0.50880003
vt -2.71481895 -0.44630003
vt -3.15237498 -0.44630003
vt 2.54690003 -0.50878096
vt 2.39059997 -0.44627905
vt 2.54690003 -0.44627905
vt 2.39059997 -0.50878096
vt 2.54690003 -0.90723002
vt 2.39059997 -0.90723002
vt 2.54690003 -0.94629395
vt 2.39059997 -0.94629395
vt 1.54690003 -0.50875902
vt 1.39065099 -0.44627595
vt 1.54690003 -0.44625497
vt 1.39065099 -0.94630396
vt 1.54690003 -0.90721905
vt 1.54690003 -0.94628298
vt 1.60934305 -0.50880003
vt 1.09381294 -0.44630003
vt 1.60934305 -0.44630003
vt 1.09381294 -0.50880003
vt -2.81249905 -0.90723002
vt -2.78129911 -0.50879896
vt -2.78129911 -0.90724897
vt -2.81249905 -0.50878000
vt 1.60935104 -0.94630003
vt 1.09370005 -0.90719998
vt 1.60935104 -0.90719998
vt 1.09370005 -0.94630003
vt -2.81249905 -0.90723002
vt -2.78129911 -0.50879896
vt -2.78129911 -0.90724897
vt -2.81249905 -0.50878000
f 1/1 2/2 3/3
f 2/2 1/1 4/4
f 5/5 6/6 7/7
f 6/6 5/5 8/8
f 8/8 5/5 9/9
f 10/10 11/11 12/12
f 11/11 10/10 13/13
f 14/14 15/15 16/16
f 15/15 14/14 17/17
f 18/18 19/19 20/20
f 19/19 18/18 21/21
f 22/22 23/23 24/24
f 23/23 22/22 25/25
f 25/25 22/22 26/26
f 27/27 28/28 29/29
f 28/28 27/27 30/30
f 30/30 27/27 31/31
f 32/32 33/33 34/34
f 33/33 32/32 35/35
f 36/36 37/37 38/38
f 39/39 40/40 41/41
f 40/40 39/39 42/42
f 43/43 44/44 45/45
f 44/44 43/43 46/46
f 46/46 43/43 47/47
f 48/48 49/49 50/50
f 51/51 52/52 53/53
f 52/52 51/51 54/54
f 55/55 56/56 57/57
f 56/56 55/55 58/58
f 56/56 58/58 59/59
f 60/60 61/61 62/62
f 61/61 60/60 63/63
f 63/63 60/60 64/64
f 61/61 63/63 65/65
f 66/66 67/67 68/68
f 67/67 66/66 69/69
f 70/70 71/71 72/72
f 71/71 70/70 73/73
f 74/74 75/75 76/76
f 75/75 74/74 77/77
f 78/78 79/79 80/80
f 79/79 78/78 81/81
f 82/82 83/83 84/84
f 83/83 82/82 85/85
f 85/85 82/82 86/86
f 86/86 82/82 87/87
f 86/86 87/87 88/88
f 89/89 90/90 91/91
f 90/90 89/89 92/92
f 90/90 92/92 93/93
f 90/90 93/93 94/94
f 94/94 93/93 95/95
f 95/95 93/93 96/96
f 97/97 98/98 99/99
f 98/98 97/97 100/100
f 100/100 97/97 101/101
f 101/101 102/102 103/103
f 102/102 101/101 104/104
f 104/104 101/101 97/97
f 105/105 106/106 107/107
f 106/106 105/105 108/108
f 109/109 110/110 111/111
f 110/110 109/109 112/112
f 110/110 112/112 113/113
f 114/114 113/113 115/115
f 113/113 114/114 116/116
f 113/113 116/116 110/110
f 117/117 118/118 119/119
f 118/118 117/117 120/120
f 121/121 122/122 123/123
f 122/122 121/121 124/124
f 125/125 126/126 127/127
f 126/126 125/125 128/128
f 128/128 125/125 129/129
f 128/128 129/129 130/130
f 130/130 129/129 131/131
f 132/132 133/133 134/134
f 133/133 132/132 135/135
f 135/135 132/132 136/136
f 135/135 136/136 137/137
f 138/138 139/139 140/140
f 139/139 138/138 141/141
f 142/142 143/143 144/144
f 143/143 142/142 145/145
f 146/146 147/147 148/148
f 147/147 146/146 149/149
f 150/150 151/151 152/152
f 151/151 150/150 153/153
f 154/154 155/155 156/156
f 155/155 154/154 157/157
f 157/157 154/154 158/158
f 158/158 154/154 159/159
f 160/160 161/161 162/162
f 161/161 160/160 163/163
f 163/163 160/160 164/164
f 164/164 160/160 165/165
f 166/166 167/167 168/168
f 167/167 166/166 169/169
f 170/170 171/171 172/172
f 171/171 170/170 173/173
f 173/173 170/170 174/174
f 175/175 176/176 177/177
f 176/176 175/175 178/178
f 178/178 175/175 179/179
f 179/179 175/175 180/180
f 181/181 182/182 183/183
f 182/182 181/181 184/184
f 185/185 186/186 187/187
f 186/186 185/185 188/188
f 189/189 190/190 191/191
f 190/190 189/189 192/192
f 193/193 194/194 195/195
f 194/194 193/193 196/196
f 194/194 196/196 197/197
f 197/197 196/196 198/198
f 197/197 198/198 199/199
f 200/200 201/201 202/202
f 201/201 200/200 203/203
f 203/203 200/200 204/204
f 203/203 204/204 205/205
f 205/205 204/204 206/206
f 205/205 206/206 207/207
f 208/208 209/209 210/210
f 209/209 208/208 211/211
f 212/212 213/213 214/214
f 213/213 212/212 215/215
f 216/216 217/217 218/218
f 217/217 216/216 219/219
f 220/220 221/221 222/222
f 221/221 220/220 223/223
f 224/224 225/225 226/226
f 225/225 224/224 227/227
f 228/228 229/229 230/230
f 229/229 228/228 231/231
f 229/229 231/231 232/232
f 229/229 232/232 233/233
f 234/234 235/235 236/236
f 235/235 234/234 237/237
f 237/237 234/234 238/238
f 237/237 238/238 239/239
f 239/239 238/238 240/240
f 239/239 240/240 241/241
f 242/242 243/243 244/244
f 243/243 242/242 245/245
f 245/245 242/242 246/246
f 245/245 246/246 247/247
f 248/248 249/249 250/250
f 249/249 248/248 251/251
f 252/252 253/253 254/254
f 253/253 252/252 255/255
f 256/256 257/257 258/258
f 257/257 256/256 259/259
f 260/260 261/261 262/262
f 261/261 260/260 263/263

