# https://github.com/mikedh/trimesh
v 0.17410087 -2.39170655 -0.81501348
v 0.16906640 -2.39429916 -0.81426145
v 0.15974231 -2.38888846 -0.81427631
v 0.17408147 -2.39171340 -0.81502184
v 0.16024834 -2.38373169 -0.81503979
v 0.16905473 -2.40508205 -0.81427090
v 0.17410486 -2.40764690 -0.81502420
v 0.15041212 -2.39430096 -0.81426159
v 0.16907754 -2.40507315 -0.81427686
v 0.15030209 -2.40521909 -0.81426342
v 0.16905086 -2.39429460 -0.81426871
v 0.16028830 -2.38372564 -0.81501746
v 0.15038395 -2.39429349 -0.81425556
v 0.14648811 -2.39172227 -0.81500130
v 0.15974289 -2.38889078 -0.81426280
v 0.16027638 -2.38370830 -0.81499507
v 0.17412425 -2.39168637 -0.80076152
v 0.17408227 -2.39170477 -0.81501326
v 0.16026279 -2.38372313 -0.80076051
v 0.17410883 -2.40767795 -0.81503164
v 0.17409303 -2.39172103 -0.80074225
v 0.17409221 -2.40765685 -0.80077011
v 0.17412120 -2.39168630 -0.81501358
v 0.14643656 -2.39170399 -0.80075697
v 0.16029476 -2.38373725 -0.81499700
v 0.14644887 -2.39171394 -0.81500937
v 0.16028145 -2.38370071 -0.80076388
v 0.17409029 -2.39170998 -0.80078172
v 0.16026294 -2.38371985 -0.80075840
v 0.16908300 -2.39430221 -0.79999092
v 0.17409511 -2.39168276 -0.80077254
v 0.16905468 -2.40507098 -0.80000009
v 0.17410137 -2.40766960 -0.80078521
v 0.16026122 -2.38372163 -0.80075270
v 0.14646499 -2.39171969 -0.80075433
v 0.15970626 -2.38891162 -0.80000582
v 0.16903356 -2.39428630 -0.80002259
v 0.16028229 -2.38372969 -0.80076369
v 0.15973380 -2.38891225 -0.79999466
v 0.17410925 -2.39169295 -0.80075026
v 0.16907592 -2.39427992 -0.80001342
v 0.16904504 -2.40507635 -0.80002521
v 0.15970428 -2.38889807 -0.80002241
v 0.14645292 -2.39171926 -0.80076276
v 0.15039807 -2.39427324 -0.80001467
v 0.15973865 -2.38888212 -0.79999844
v 0.16903196 -2.39427455 -0.75478536
v 0.16907085 -2.39428651 -0.80000914
v 0.15972858 -2.38890668 -0.75481662
v 0.16906342 -2.40508567 -0.79999941
v 0.16906091 -2.39429052 -0.75480194
v 0.16905782 -2.40507462 -0.75481081
v 0.16906913 -2.39429317 -0.80003101
v 0.15035962 -2.39428453 -0.75479425
v 0.15971673 -2.38890497 -0.79998914
v 0.15039237 -2.39429048 -0.80003522
v 0.15974709 -2.38888888 -0.75477522
v 0.17405096 -2.39169193 -0.75592659
v 0.16907349 -2.39429381 -0.75481065
v 0.15973847 -2.38892866 -0.75479344
v 0.17404744 -2.40767598 -0.75592321
v 0.16906215 -2.40508056 -0.75478285
v 0.16905830 -2.39427232 -0.75478519
v 0.16022532 -2.38375575 -0.75595000
v 0.15973928 -2.38890238 -0.75479404
v 0.15041598 -2.39430957 -0.75479826
v 0.17404370 -2.39169653 -0.75594101
v 0.15971557 -2.38892406 -0.75477992
v 0.16024318 -2.38373528 -0.75592948
v 0.17403227 -2.40766802 -0.75591254
v 0.16906683 -2.39425947 -0.75480107
v 0.17405839 -2.39170744 -0.75592387
v 0.16023183 -2.38373646 -0.75594386
v 0.15043582 -2.39429277 -0.75481822
v 0.14640453 -2.39169526 -0.75593873
v 0.16025091 -2.38371466 -0.75593388
v 0.17404371 -2.39171872 -0.74168562
v 0.17402975 -2.39168792 -0.75590958
v 0.16021442 -2.38374512 -0.74170052
v 0.17403685 -2.40770476 -0.75594769
v 0.17406838 -2.39170953 -0.74166394
v 0.17404347 -2.40763688 -0.74167308
v 0.17404497 -2.39166912 -0.75593628
v 0.14639654 -2.39170190 -0.74167640
v 0.16024680 -2.38374149 -0.75592054
v 0.14642547 -2.39171402 -0.75592948
v 0.16022035 -2.38369592 -0.74168567
v 0.17404397 -2.39171958 -0.74168068
v 0.16023185 -2.38371793 -0.74168437
v 0.16906235 -2.39431144 -0.74054573
v 0.17408873 -2.40764692 -0.74168675
v 0.16904629 -2.39430529 -0.74053449
v 0.16906543 -2.40508484 -0.74055213
v 0.16025177 -2.38372234 -0.74168108
v 0.14641050 -2.39171210 -0.74171680
v 0.15972573 -2.38891660 -0.74054817
v 0.16905601 -2.40506425 -0.74055052
v 0.15037306 -2.39428276 -0.74052367
v 0.15030157 -2.40520486 -0.74053826
v 0.14641778 -2.39172230 -0.74166424
v 0.15040985 -2.39428280 -0.74052640
v 0.17404651 -2.39170108 -1.37850501
v 0.16906289 -2.39430048 -1.37775109
v 0.15972987 -2.38890535 -1.37775833
v 0.17411627 -2.39172013 -1.37849029
v 0.16028323 -2.38373863 -1.37850870
v 0.16905211 -2.40506505 -1.37774701
v 0.17409136 -2.40767681 -1.37850045
v 0.15040642 -2.39429327 -1.37774603
v 0.16905970 -2.40507352 -1.37775593
v 0.15031904 -2.40523376 -1.37774288
v 0.16906173 -2.39428669 -1.37775661
v 0.16028523 -2.38374237 -1.37848807
v 0.15036931 -2.39430618 -1.37774858
v 0.14648769 -2.39170083 -1.37850812
v 0.15970425 -2.38890434 -1.37775214
v 0.16030434 -2.38371874 -1.37852598
v 0.17412739 -2.39171022 -1.36426212
v 0.17411969 -2.39170541 -1.37850978
v 0.16028381 -2.38371563 -1.36423601
v 0.17407994 -2.40763357 -1.37849145
v 0.17409383 -2.39171613 -1.36426337
v 0.17410084 -2.40767048 -1.36426053
v 0.17411043 -2.39169963 -1.37851016
v 0.14647752 -2.39168564 -1.36426512
v 0.16027235 -2.38371427 -1.37849463
v 0.14647045 -2.39168850 -1.37851983
v 0.16026013 -2.38373950 -1.36424815
v 0.17408802 -2.39171151 -1.36426346
v 0.16027211 -2.38374143 -1.36424473
v 0.16907603 -2.39429839 -1.36349889
v 0.17409102 -2.39169730 -1.36424862
v 0.16908717 -2.40508974 -1.36349094
v 0.17410531 -2.40766646 -1.36424172
v 0.16026070 -2.38369787 -1.36426857
v 0.14648011 -2.39172035 -1.36423381
v 0.15971876 -2.38889946 -1.36349525
v 0.16908029 -2.39429617 -1.36353738
v 0.16027016 -2.38372485 -1.36425600
v 0.15973486 -2.38888751 -1.36349806
v 0.17407835 -2.39168541 -1.36423475
v 0.16906077 -2.39426229 -1.36350086
v 0.16904908 -2.40507664 -1.36348097
v 0.15971105 -2.38887446 -1.36350850
v 0.14648060 -2.39169712 -1.36425201
v 0.15040814 -2.39431260 -1.36347707
v 0.15972323 -2.38890924 -1.36348555
v 0.16907972 -2.39428095 -1.31824411
v 0.16908001 -2.39427379 -1.36350353
v 0.15972561 -2.38889382 -1.31827225
v 0.16906915 -2.40506852 -1.36348422
v 0.16906352 -2.39429657 -1.31828355
v 0.16905251 -2.40505811 -1.31827318
v 0.16907592 -2.39430978 -1.36352303
v 0.15037844 -2.39427570 -1.31825710
v 0.15972875 -2.38891286 -1.36349782
v 0.15038891 -2.39429650 -1.36353095
v 0.15971216 -2.38890432 -1.31825085
v 0.17405253 -2.39168518 -1.31941953
v 0.16906142 -2.39434607 -1.31826554
v 0.15973175 -2.38887708 -1.31827879
v 0.17405161 -2.40767128 -1.31943045
v 0.16905500 -2.40507927 -1.31825310
v 0.16906497 -2.39430271 -1.31827002
v 0.16023497 -2.38373685 -1.31939810
v 0.15969779 -2.38890465 -1.31826272
v 0.15037440 -2.39428665 -1.31825397
v 0.17405662 -2.39172828 -1.31942420
v 0.15974131 -2.38889751 -1.31827214
v 0.16023809 -2.38371736 -1.31942392
v 0.17404624 -2.40765944 -1.31942163
v 0.16906308 -2.39427359 -1.31828550
v 0.17407716 -2.39167850 -1.31943794
v 0.16022997 -2.38372264 -1.31942465
v 0.15038273 -2.39429500 -1.31826169
v 0.14640644 -2.39167924 -1.31941000
v 0.16023050 -2.38370721 -1.31940531
v 0.17405544 -2.39170933 -1.30513482
v 0.17406161 -2.39170755 -1.31943604
v 0.16023713 -2.38374337 -1.30518405
v 0.17404640 -2.40765751 -1.31939616
v 0.17405423 -2.39169347 -1.30517722
v 0.17404998 -2.40765971 -1.30514810
v 0.17405191 -2.39169350 -1.31942107
v 0.14641857 -2.39169893 -1.30517755
v 0.16023438 -2.38373188 -1.31944060
v 0.14642694 -2.39170976 -1.31942593
v 0.16022667 -2.38372549 -1.30513909
v 0.17404798 -2.39169812 -1.30514097
v 0.16023937 -2.38371251 -1.30516677
v 0.16907569 -2.39429250 -1.30400111
v 0.17403630 -2.40767231 -1.30514243
v 0.16906221 -2.39429669 -1.30401501
v 0.16905533 -2.40505589 -1.30403351
v 0.16022983 -2.38372258 -1.30516158
v 0.14640239 -2.39171682 -1.30515419
v 0.15970975 -2.38889266 -1.30403735
v 0.16905720 -2.40507396 -1.30403356
v 0.15040216 -2.39429195 -1.30403054
v 0.15029376 -2.40523454 -1.30401538
v 0.14639744 -2.39172375 -1.30516335
v 0.15042483 -2.39428782 -1.30400545
v 0.17410209 -2.39169379 -1.09678118
v 0.16905894 -2.39428804 -1.09601082
v 0.15972144 -2.38891096 -1.09601417
v 0.17408832 -2.39173849 -1.09677911
v 0.16028740 -2.38370570 -1.09673716
v 0.16906629 -2.40506200 -1.09599791
v 0.17408947 -2.40768512 -1.09676202
v 0.15036849 -2.39429615 -1.09600209
v 0.16904514 -2.40507401 -1.09599328
v 0.15031998 -2.40520542 -1.09599793
v 0.16908911 -2.39428958 -1.09599342
v 0.16027987 -2.38373503 -1.09675806
v 0.15038462 -2.39429968 -1.09601905
v 0.14643527 -2.39170324 -1.09678007
v 0.15972263 -2.38888145 -1.09601784
v 0.16027320 -2.38370840 -1.09675483
v 0.17411274 -2.39170967 -1.08249611
v 0.17408955 -2.39171414 -1.09675413
v 0.16027242 -2.38371672 -1.08247319
v 0.17407561 -2.40767193 -1.09674683
v 0.17409710 -2.39168852 -1.08252063
v 0.17410374 -2.40766354 -1.08250458
v 0.17410374 -2.39172173 -1.09677743
v 0.14648680 -2.39170062 -1.08250506
v 0.16028015 -2.38372244 -1.09677857
v 0.14645335 -2.39168652 -1.09676034
v 0.16029262 -2.38373586 -1.08248734
v 0.17410394 -2.39169800 -1.08249889
v 0.16026965 -2.38375344 -1.08252153
v 0.16908768 -2.39427355 -1.08175950
v 0.17409491 -2.39169026 -1.08250889
v 0.16904682 -2.40505681 -1.08174801
v 0.17406403 -2.40766581 -1.08250454
v 0.16028747 -2.38372530 -1.08251541
v 0.14646567 -2.39170060 -1.08251028
v 0.15971893 -2.38888421 -1.08176787
v 0.16906007 -2.39432001 -1.08174712
v 0.16029231 -2.38371977 -1.08249374
v 0.15973027 -2.38889690 -1.08174806
v 0.17409539 -2.39168814 -1.08251140
v 0.16904455 -2.39427984 -1.08172886
v 0.16905155 -2.40507588 -1.08176422
v 0.15971881 -2.38890103 -1.08177198
v 0.14646341 -2.39172516 -1.08251447
v 0.15037653 -2.39430646 -1.08177865
v 0.15974113 -2.38889457 -1.08178141
v 0.16905662 -2.39430104 -1.03653977
v 0.16904476 -2.39428117 -1.08176019
v 0.15973065 -2.38889433 -1.03651095
v 0.16903963 -2.40505022 -1.08173697
v 0.16907293 -2.39425845 -1.03652727
v 0.16907640 -2.40508476 -1.03651447
v 0.16906728 -2.39429798 -1.08172514
v 0.15038882 -2.39429156 -1.03653288
v 0.15971358 -2.38889426 -1.08174437
v 0.15039801 -2.39432461 -1.08174061
v 0.15971924 -2.38891864 -1.03652172
v 0.17405814 -2.39171926 -1.03764136
v 0.16904807 -2.39431586 -1.03654623
v 0.15974394 -2.38890412 -1.03653532
v 0.17404943 -2.40766976 -1.03768546
v 0.16905600 -2.40506459 -1.03651605
v 0.16905023 -2.39428835 -1.03651914
v 0.16021685 -2.38373443 -1.03769032
v 0.15970612 -2.38890025 -1.03654040
v 0.15040187 -2.39429210 -1.03652438
v 0.17404622 -2.39171357 -1.03767710
v 0.15972405 -2.38891152 -1.03652418
v 0.16024235 -2.38372521 -1.03765194
v 0.17404147 -2.40765418 -1.03768154
v 0.16906821 -2.39430326 -1.03651458
v 0.17405275 -2.39168809 -1.03769350
v 0.16022505 -2.38373986 -1.03768326
v 0.15038341 -2.39429337 -1.03653037
v 0.14641300 -2.39171246 -1.03767322
v 0.16024414 -2.38374000 -1.03767583
v 0.17404926 -2.39169818 -1.02342082
v 0.17405007 -2.39171853 -1.03767554
v 0.16021908 -2.38372023 -1.02342137
v 0.17405085 -2.40767387 -1.03766463
v 0.17405995 -2.39169270 -1.02338887
v 0.17404956 -2.40764466 -1.02342166
v 0.17405579 -2.39169962 -1.03767215
v 0.14642275 -2.39170895 -1.02341936
v 0.16023940 -2.38370304 -1.03768759
v 0.14638839 -2.39171146 -1.03767458
v 0.16023437 -2.38372613 -1.02340344
v 0.17406390 -2.39170540 -1.02342648
v 0.16022711 -2.38373239 -1.02342308
v 0.16904301 -2.39429812 -1.02228015
v 0.17404766 -2.40766498 -1.02341056
v 0.16905752 -2.39429780 -1.02226667
v 0.16906166 -2.40507144 -1.02226489
v 0.16023782 -2.38372393 -1.02342267
v 0.14642308 -2.39170226 -1.02342697
v 0.15972202 -2.38891866 -1.02228764
v 0.16903868 -2.40508395 -1.02225560
v 0.15038531 -2.39428070 -1.02227428
v 0.15030517 -2.40519404 -1.02226611
v 0.14638914 -2.39169019 -1.02343492
v 0.15039059 -2.39428237 -1.02227841
v 0.17411473 -2.97774207 -0.81504448
v 0.16905835 -2.99111362 -0.81427459
v 0.16906193 -2.98032729 -0.81426215
v 0.17408628 -2.99370209 -0.81503103
v 0.17408217 -2.99372029 -0.81501849
v 0.17409873 -2.97775261 -0.80078257
v 0.17409656 -2.99371899 -0.80077950
v 0.17409682 -2.97777198 -0.81501315
v 0.16031544 -3.00167909 -0.81503703
v 0.16906116 -2.99113925 -0.81427183
v 0.16907202 -2.98033022 -0.81428096
v 0.15039724 -2.99110143 -0.81424209
v 0.15030517 -2.98021255 -0.81426581
v 0.15968329 -2.99651497 -0.81427035
v 0.17409272 -2.99372662 -0.81502591
v 0.16026993 -3.00167492 -0.80077939
v 0.16027682 -3.00168873 -0.81501457
v 0.17406362 -2.99370928 -0.80075599
v 0.17409408 -2.97777398 -0.80076203
v 0.16906964 -2.99112133 -0.80003073
v 0.17408879 -2.99370890 -0.80077879
v 0.16025398 -3.00169621 -0.81502335
v 0.14646021 -2.99370558 -0.81502132
v 0.15040557 -2.99108682 -0.81425636
v 0.16026118 -3.00172254 -0.80076790
v 0.14646828 -2.99372073 -0.81501869
v 0.16027007 -3.00167987 -0.81502703
v 0.14647283 -2.99372884 -0.80077270
v 0.17409705 -2.99372440 -0.80074033
v 0.15971658 -2.99648818 -0.80002382
v 0.16027755 -3.00166898 -0.80076235
v 0.17410180 -2.97774898 -0.80078563
v 0.16905951 -2.98035178 -0.80001180
v 0.16905735 -2.99111817 -0.80001563
v 0.17409861 -2.99370501 -0.80077568
v 0.16905024 -2.99112682 -0.79999961
v 0.15972934 -2.99649938 -0.79999531
v 0.14645084 -2.99369742 -0.81503748
v 0.16027610 -3.00167873 -0.80074407
v 0.15038216 -2.99111888 -0.79999843
v 0.14644651 -2.99369948 -0.80077088
v 0.16026847 -3.00168344 -0.80075829
v 0.15971140 -2.99650227 -0.80001214
v 0.15037575 -2.99109589 -0.79999935
v 0.16905295 -2.99112573 -0.80000380
v 0.16905803 -2.98036410 -0.75477555
v 0.16906506 -2.99109096 -0.75478519
v 0.16906760 -2.98029835 -0.80001695
v 0.16905167 -2.99111436 -0.79999871
v 0.15970787 -2.99652023 -0.75478390
v 0.15967953 -2.99652281 -0.80000346
v 0.16905676 -2.99114024 -0.75476332
v 0.15970445 -2.99651487 -0.75479537
v 0.15039423 -2.99112271 -0.80001568
v 0.15972492 -2.99650878 -0.80001325
v 0.15035989 -2.99111140 -0.75480976
v 0.17402008 -2.99368526 -0.75594984
v 0.16906745 -2.99112833 -0.75479963
v 0.16907169 -2.98035306 -0.75478498
v 0.16907025 -2.99110131 -0.75479486
v 0.16024653 -3.00166149 -0.75590978
v 0.15973229 -2.99650130 -0.75475043
v 0.15975525 -2.99651826 -0.75477729
v 0.14642197 -2.99370352 -0.75592977
v 0.15039987 -2.99110448 -0.75478712
v 0.17405503 -2.99368511 -0.75592748
v 0.16907254 -2.98032463 -0.75476740
v 0.17406741 -2.97774742 -0.75592901
v 0.17403323 -2.99370046 -0.75594638
v 0.16021765 -3.00167641 -0.75593331
v 0.16907153 -2.99112630 -0.75477342
v 0.16023394 -3.00166892 -0.75592252
v 0.14641588 -2.99371120 -0.75593147
v 0.15973567 -2.99649784 -0.75480685
v 0.17406460 -2.99370751 -0.75592054
v 0.17404057 -2.97774379 -0.74168712
v 0.17405210 -2.99370869 -0.74167999
v 0.17404239 -2.97775483 -0.75595619
v 0.17406252 -2.99369112 -0.75593809
v 0.16021269 -3.00169450 -0.74166279
v 0.16024066 -3.00168967 -0.75591940
v 0.17403577 -2.99371307 -0.74166939
v 0.16023060 -3.00169370 -0.74171104
v 0.14642293 -2.99370001 -0.75595622
v 0.16024031 -3.00168569 -0.75592802
v 0.14642676 -2.99371485 -0.74166606
v 0.17405983 -2.99369391 -0.74165319
v 0.16907413 -2.98034627 -0.74050919
v 0.16904950 -2.99112401 -0.74054772
v 0.17404886 -2.97773759 -0.74165791
v 0.17405676 -2.99371303 -0.74168373
v 0.15971571 -2.99649428 -0.74054691
v 0.16024399 -3.00168594 -0.74167361
v 0.16025302 -3.00169211 -0.74165283
v 0.15037341 -2.99112906 -0.74055628
v 0.14640316 -2.99369640 -0.74166572
v 0.15039734 -2.99111383 -0.74055063
v 0.16904644 -2.98033420 -0.74051547
v 0.15030986 -2.98021819 -0.74055565
v 0.15971463 -2.99648554 -0.74053716
v 0.16905047 -2.99112605 -0.74054101
v 0.15039677 -2.99112676 -0.74054668
v 0.15358869 -2.73911608 -0.58934331
v 0.14253453 -2.40085294 -0.57111691
v 0.14251572 -2.73911866 -0.57111187
v 0.15359483 -2.40085479 -0.58936143
v 0.15360692 -2.40084351 -0.58933420
v 0.15204989 -2.73910685 -0.59031659
v 0.15202122 -2.40084779 -0.59030776
v 0.15360216 -2.73912877 -0.58935656
v 0.14204970 -2.40084368 -0.57808636
v 0.15204883 -2.73910701 -0.59032955
v 0.14206280 -2.73912410 -0.57802311
v 0.15207742 -2.40085737 -0.59030602
v 0.10611448 -2.99640723 -1.52035545
v 0.12656651 -2.99640636 -1.59887423
v 0.10610483 -2.99640502 -1.59887971
v 0.12655980 -2.99640994 -1.52037460
v 0.12656911 -2.99642264 -1.59888227
v 0.10610014 -2.39102923 -1.59885935
v 0.10610253 -2.99641016 -1.59884232
v 0.12656171 -2.39103766 -1.59883586
v 0.10612425 -2.99640620 -1.59886630
v 0.10610459 -2.39102257 -1.52033804
v 0.10611500 -2.99642403 -1.52037164
v 0.10611790 -2.39104816 -1.59886527
v 0.12658895 -2.39102708 -1.52033713
v 0.10614717 -2.99640129 -1.52035768
v 0.10610431 -2.39100605 -1.52035641
v 0.12657897 -2.99639321 -1.52032335
v 0.12657883 -2.39103514 -1.52036996
v 0.10610305 -2.39104361 -1.59886351
v 0.12657508 -2.39103639 -1.59883285
v 0.10612220 -2.39103421 -1.52034713
v 0.18564458 -2.58072743 -0.67310310
v 0.15377022 -2.58075991 -1.45225066
v 0.18564863 -2.58073179 -1.45223517
v 0.15378122 -2.58072201 -0.67306712
v 0.15277051 -2.58962828 -1.46535326
v 0.15377644 -2.58074470 -0.67311282
v 0.15276010 -2.58962013 -0.66003969
v 0.15379000 -2.58073801 -1.45225506
v 0.18564010 -2.40389803 -1.45227184
v 0.15380043 -2.58075597 -1.45226255
v 0.15378900 -2.40389859 -1.45223339
v 0.18566156 -2.58073938 -1.45226967
v 0.19432690 -2.57540983 -1.44640651
v 0.18561834 -2.58073006 -0.67306513
v 0.18566739 -2.58075882 -1.45224579
v 0.19430384 -2.57538994 -0.67896273
v 0.18565270 -2.58072842 -0.67307127
v 0.15377677 -2.40392949 -0.67309069
v 0.15376823 -2.58073949 -0.67307550
v 0.18565621 -2.40388002 -0.67308006
v 0.15276069 -2.36046097 -1.46533064
v 0.15377590 -2.58074211 -1.45228385
v 0.15276997 -2.58962945 -1.46532918
v 0.15377000 -2.40392752 -1.45225072
v 0.15379293 -2.58074710 -0.67309656
v 0.15275764 -2.36057429 -0.66004131
v 0.15277790 -2.58963193 -0.65999562
v 0.15379026 -2.40391084 -0.67311077
v 0.15379191 -2.59355419 -1.45231458
v 0.15277651 -2.58964465 -0.66003324
v 0.15374953 -2.59356151 -0.67304613
v 0.15277301 -2.58961323 -1.46531693
v 0.15378012 -2.40389916 -0.67310412
v 0.18564161 -2.40392643 -1.45226442
v 0.15377069 -2.40389480 -1.45222317
v 0.18563184 -2.40390719 -0.67309026
v 0.19434085 -2.57540448 -1.44640121
v 0.18563348 -2.58073912 -1.45223943
v 0.18563493 -2.40388202 -1.45225515
v 0.19432466 -2.57540846 -1.44640986
v 0.19463670 -2.55424383 -0.99268120
v 0.19436142 -2.57542142 -0.67892306
v 0.19465761 -2.55423951 -1.13262276
v 0.19434538 -2.57541136 -0.67894863
v 0.18563130 -2.40391050 -0.67308476
v 0.18565399 -2.58073372 -0.67307561
v 0.19429998 -2.40922690 -0.67895029
v 0.15278165 -2.36047901 -1.46531746
v 0.12657205 -3.01501559 -1.46535241
v 0.12659486 -2.37254703 -1.46536236
v 0.15278092 -3.02572430 -1.46533858
v 0.15278303 -2.58964394 -1.46535786
v 0.15276112 -2.36047916 -1.46532439
v 0.15377342 -2.40390547 -0.67308626
v 0.15376896 -2.40391799 -1.45225558
v 0.15276121 -2.36048793 -1.46534163
v 0.15275855 -2.36060127 -0.66001810
v 0.15377108 -2.40391217 -0.67308182
v 0.15277747 -3.02573911 -0.66004682
v 0.12766211 -2.36047386 -0.66001522
v 0.12767794 -3.02574421 -0.66003431
v 0.15278316 -2.36062138 -0.66000866
v 0.15276588 -2.58965402 -1.46533178
v 0.15378876 -2.98066189 -1.45231606
v 0.15276209 -3.02575909 -1.46534381
v 0.15377807 -2.59356339 -1.45230687
v 0.15377928 -2.98065908 -0.67305130
v 0.15276783 -2.58961266 -0.66001533
v 0.15275218 -3.02574140 -0.66002550
v 0.15376547 -2.59358624 -0.67305027
v 0.15377113 -2.59358013 -0.67306931
v 0.18567199 -2.59357274 -1.45229669
v 0.15380242 -2.59357702 -1.45228493
v 0.18571247 -2.59357538 -0.67304884
v 0.18564098 -2.40388485 -0.67311031
v 0.19433294 -2.40922020 -1.44640766
v 0.18563413 -2.40390636 -1.45224452
v 0.19434141 -2.57540867 -1.44639581
v 0.18565528 -2.40392504 -1.45225716
v 0.19434562 -2.40923269 -1.44640288
v 0.19466514 -2.55423019 -0.99271542
v 0.19431639 -2.40925559 -0.67890976
v 0.19464106 -2.48686179 -0.99270604
v 0.19434788 -2.40926374 -1.44640670
v 0.19467270 -2.48684297 -1.13263473
v 0.19465212 -2.55421896 -1.13266375
v 0.19829249 -2.54821343 -0.99871885
v 0.19465947 -2.55424061 -0.99269048
v 0.19826273 -2.54823790 -1.12661072
v 0.18564770 -2.40390732 -0.67306710
v 0.19432542 -2.40922902 -0.67893032
v 0.19436650 -2.40925906 -1.44641377
v 0.12657322 -3.01500111 -1.46533780
v -0.28957405 -3.02572539 -1.46531429
v -0.28959107 -3.01504123 -1.46532383
v 0.15274616 -3.02575274 -1.46532353
v 0.12657528 -3.01500627 -1.61705840
v 0.12655799 -2.99643232 -1.59888127
v 0.12657518 -2.99640014 -1.52034022
v 0.12658432 -2.37256035 -1.61702344
v 0.12657920 -2.39100481 -1.59887553
v 0.12657167 -2.37250616 -1.46534124
v 0.12658543 -3.01502425 -1.46533771
v 0.12660973 -2.39105252 -1.52033464
v 0.15278151 -2.36049781 -1.46535271
v -0.28962200 -2.37255357 -1.46532315
v -0.28959249 -2.36037220 -1.46532772
v 0.12659317 -2.37253171 -1.46532097
v 0.12765985 -2.36047286 -0.66001988
v 0.15275568 -2.36061046 -0.66000528
v 0.15279185 -2.36049109 -1.46535523
v 0.12767665 -3.02576119 -0.66001220
v 0.12766321 -2.36033847 -0.61379679
v 0.12768105 -3.02576554 -0.61383767
v 0.12767034 -2.36048005 -0.66001237
v 0.15275839 -3.02576661 -0.49274966
v 0.12767617 -3.02573869 -0.61381056
v 0.15275875 -3.02575875 -0.61382478
v 0.15276889 -3.02573680 -0.66002553
v -0.28961701 -3.02575045 -1.46530734
v 0.15279582 -3.02574393 -1.46533737
v 0.12764077 -3.02577016 -0.66002365
v -0.28959402 -3.02574502 -0.49273100
v 0.18567428 -2.59359651 -1.45229712
v 0.15376047 -2.98063549 -1.45231952
v 0.15379550 -2.59358382 -1.45229606
v 0.18569891 -2.98065848 -1.45232726
v 0.15275939 -3.02572645 -1.46534423
v 0.15374628 -2.98065674 -0.67305566
v 0.15274808 -3.02575909 -0.66002912
v 0.15376621 -2.98065142 -1.45228932
v 0.18570120 -2.98064892 -0.67302648
v 0.15378725 -2.59361515 -0.67305497
v 0.15374999 -2.98066330 -0.67303915
v 0.18569300 -2.59358050 -0.67303154
v 0.18567483 -2.59357583 -0.67304225
v 0.19438754 -2.59935491 -1.44645377
v 0.18570706 -2.59356954 -1.45229474
v 0.19439149 -2.59933680 -0.67891362
v 0.19827450 -2.54821451 -0.99877053
v 0.19466632 -2.48685381 -0.99271858
v 0.19464535 -2.55424631 -0.99269769
v 0.19827359 -2.49286519 -0.99872133
v 0.19464479 -2.48686509 -1.13263726
v 0.19434365 -2.40923002 -0.67893704
v 0.19465785 -2.48685887 -0.99269199
v 0.19431974 -2.40923109 -1.44643199
v 0.19466205 -2.48685495 -1.13264044
v 0.19824907 -2.54819867 -1.12660046
v 0.19465612 -2.55423707 -1.13265354
v 0.19828595 -2.49285971 -1.12662926
v 0.19831636 -2.54822661 -1.12660145
v 0.19826240 -2.53999822 -1.00677632
v 0.19826962 -2.54822371 -0.99873624
v 0.19827056 -2.53999005 -1.11860315
v -0.28961384 -2.36036891 -0.49273520
v -0.28961117 -3.02574584 -1.46533424
v -0.28959248 -3.02574915 -0.49273014
v -0.28959812 -3.01500526 -1.46530804
v -0.28959939 -3.01503390 -1.61707767
v -0.28962832 -2.37255882 -1.46533814
v -0.28959790 -2.36039579 -1.46530631
v -0.28958234 -2.37252505 -1.61706364
v 0.12658299 -3.01503274 -1.46530475
v -0.28961408 -3.01502669 -1.61703675
v 0.12661431 -3.01502081 -1.61706238
v -0.28963213 -3.01499568 -1.46532207
v -0.28962344 -2.37253027 -1.46531769
v 0.12657465 -2.37255020 -1.61704630
v -0.28959391 -2.37253563 -1.61703938
v 0.12659623 -2.37253181 -1.46531809
v -0.28961499 -2.36038512 -1.46531484
v 0.12767748 -2.36047648 -0.66001069
v 0.15275839 -2.36047583 -1.46534004
v -0.28959630 -2.36035661 -0.49273678
v -0.28956993 -2.36035375 -0.49270820
v 0.12766551 -2.36038894 -0.61380809
v 0.12767615 -2.36048759 -0.66001235
v 0.15276821 -2.36037779 -0.61378532
v 0.12768731 -3.02575881 -0.61379121
v 0.12767064 -2.36036565 -0.61379980
v 0.15274864 -3.02572894 -0.61381291
v 0.15275397 -3.02573944 -0.61379584
v 0.15275501 -2.78909578 -0.49272955
v 0.15276003 -3.02573958 -0.49274357
v 0.15277118 -2.78906526 -0.61379554
v 0.15275373 -3.02575868 -0.49272673
v -0.28960587 -2.36035235 -0.49275300
v -0.28957431 -3.02577684 -0.49272791
v 0.15275101 -2.36035813 -0.49273813
v 0.19437141 -2.59934343 -1.44645919
v 0.18566882 -2.98064735 -1.45233254
v 0.18571221 -2.59357913 -1.45228588
v 0.19437883 -2.97490059 -1.44644448
v 0.18568765 -2.98067527 -0.67305112
v 0.15375277 -2.98065387 -1.45227994
v 0.18570923 -2.98065366 -1.45230149
v 0.15376755 -2.98066258 -0.67304496
v 0.19438501 -2.97489088 -0.67889270
v 0.18566765 -2.59354724 -0.67304112
v 0.18567636 -2.98065208 -0.67306565
v 0.19437969 -2.59935117 -0.67888109
v 0.19433112 -2.62550848 -1.13257295
v 0.19438692 -2.59934311 -0.67891593
v 0.19437799 -2.62548174 -0.99280585
v 0.19439449 -2.59934076 -1.44645006
v 0.19829529 -2.54000741 -1.00673356
v 0.19827479 -2.49288277 -0.99870074
v 0.19828265 -2.54824886 -0.99872396
v 0.19825605 -2.51138976 -1.00677170
v 0.19828336 -2.49289700 -1.12663238
v 0.19465047 -2.48685288 -0.99271317
v 0.19826059 -2.49291177 -0.99873792
v 0.19466754 -2.48684455 -1.13262942
v 0.19827636 -2.49287967 -1.12659516
v 0.19826181 -2.53999858 -1.11861143
v 0.19828832 -2.54822681 -1.12662910
v 0.19828470 -2.51138207 -1.11859743
v 0.16917915 -2.53738428 -1.11859449
v 0.19826440 -2.53999272 -1.00678416
v 0.19829136 -2.54000706 -1.11858976
v 0.16914521 -2.53737172 -1.00673805
v -0.28959420 -2.36038257 -0.49273218
v 0.15277357 -2.36036838 -0.61380194
v 0.12767689 -2.36036453 -0.61381338
v 0.15273941 -2.36036259 -0.49270143
v 0.15275467 -2.36037153 -0.61377947
v 0.15253158 -2.74691651 -0.60141093
v 0.15251779 -2.39441724 -0.60145544
v 0.15249464 -2.74691227 -0.50509149
v 0.15250032 -2.74692938 -0.60145067
v 0.15274268 -2.36037127 -0.49274930
v 0.15250711 -2.39442061 -0.50510328
v 0.19438755 -2.69281396 -1.13255474
v 0.19438479 -2.97491008 -1.44643490
v 0.19436973 -2.62551096 -1.13254676
v 0.19437784 -2.97488003 -0.67891519
v 0.18569953 -2.98063275 -1.45229295
v 0.19437898 -2.97487628 -1.44642637
v 0.18570599 -2.98065233 -0.67306110
v 0.18570188 -2.98062688 -1.45232730
v 0.19440084 -2.97488350 -0.67887536
v 0.19435613 -2.69284481 -0.99277021
v 0.19437104 -2.97487440 -0.67889824
v 0.19798040 -2.63152579 -1.12653401
v 0.19436051 -2.62549925 -0.99278681
v 0.19798270 -2.63152327 -0.99880302
v 0.19434533 -2.62550256 -1.13254328
v 0.19828837 -2.51136746 -1.11858395
v 0.19827400 -2.49286417 -0.99873157
v 0.19828348 -2.51136800 -1.00675813
v 0.19826175 -2.49288068 -1.12661325
v 0.19825324 -2.51137690 -1.00676489
v 0.16913640 -2.53738666 -1.00673806
v 0.16914335 -2.50101537 -1.00677802
v 0.19829104 -2.53999086 -1.00675412
v 0.19827510 -2.54001052 -1.11858930
v 0.16914831 -2.50099424 -1.11857569
v 0.16917044 -2.53734112 -1.11857548
v 0.19828277 -2.51135258 -1.11860684
v 0.16915778 -2.53739078 -1.11856334
v 0.16915084 -2.50097869 -1.00674375
v 0.16915001 -2.53739284 -1.00677423
v 0.16917220 -2.50100790 -1.11860600
v 0.15250419 -2.39438588 -0.50507489
v 0.16454663 -2.39440519 -0.60141874
v 0.15248670 -2.74692485 -0.60143401
v 0.15251296 -2.39441660 -0.60144678
v 0.16455774 -2.74692637 -0.60144548
v 0.16453613 -2.74692053 -0.50507710
v 0.15250489 -2.74690245 -0.60145968
v 0.16454153 -2.74693496 -0.60143219
v 0.15251807 -2.74692504 -0.50511469
v 0.16456644 -2.74692805 -0.50509353
v 0.15249805 -2.39440227 -0.50510268
v 0.15251841 -2.74690876 -0.50506635
v 0.16455210 -2.39442309 -0.50511352
v 0.19434958 -2.62549831 -1.13255991
v 0.19800214 -2.68678767 -1.12654002
v 0.19435145 -2.69282354 -1.13254747
v 0.19796666 -2.63150983 -1.12653136
v 0.19435460 -2.69280176 -1.13256039
v 0.19438719 -2.97486057 -0.67889073
v 0.19439130 -2.97489617 -1.44646744
v 0.19438230 -2.69281687 -0.99277152
v 0.19797142 -2.68677296 -0.99882441
v 0.19436372 -2.62548657 -0.99279183
v 0.19436910 -2.69283643 -0.99280441
v 0.19800947 -2.63153091 -0.99881710
v 0.19797380 -2.63974133 -1.11851569
v 0.19796503 -2.63150425 -0.99882265
v 0.19795950 -2.63974527 -1.00684090
v 0.19796775 -2.63153643 -1.12654197
v 0.19825637 -2.51134358 -1.00676052
v 0.16915323 -2.50101181 -1.11857540
v 0.19827478 -2.51136250 -1.11858343
v 0.16915273 -2.50101012 -1.00678275
v 0.15250047 -2.39437931 -0.50511462
v 0.16455328 -2.39440480 -0.60141064
v 0.15254440 -2.39441502 -0.60143952
v 0.16456801 -2.39440651 -0.50506935
v 0.16456334 -2.39441881 -0.60143003
v 0.15857279 -2.73787449 -0.59240822
v 0.16452639 -2.74693979 -0.60141975
v 0.15856476 -2.40347011 -0.59240009
v 0.16452621 -2.74692109 -0.60144042
v 0.15855911 -2.73788387 -0.51412982
v 0.16455405 -2.74689941 -0.50506385
v 0.15857878 -2.73788411 -0.59238192
v 0.15855675 -2.73789421 -0.51414452
v 0.16455730 -2.39439221 -0.50506631
v 0.16457169 -2.74690769 -0.50510693
v 0.15856796 -2.40343694 -0.51413407
v 0.19800694 -2.63153914 -1.12653635
v 0.19798137 -2.66829049 -1.11852013
v 0.19796916 -2.68677251 -1.12653586
v 0.19800479 -2.63974412 -1.11847990
v 0.19435668 -2.69280823 -1.13256440
v 0.19795856 -2.68677965 -0.99882893
v 0.19434510 -2.69283005 -0.99281256
v 0.19799983 -2.68680333 -1.12653396
v 0.19800350 -2.66832451 -1.00685316
v 0.19798608 -2.63153184 -0.99883114
v 0.19799879 -2.68678601 -0.99883032
v 0.19795676 -2.63974881 -1.00686737
v 0.19794601 -2.63971629 -1.11849343
v 0.16887711 -2.64305140 -1.00685985
v 0.16886628 -2.64303056 -1.11849773
v 0.19795871 -2.63971744 -1.00684318
v 0.15856794 -2.40343012 -0.59237556
v 0.16457266 -2.39440721 -0.50510172
v 0.15856020 -2.40343209 -0.51414215
v 0.16454048 -2.39440175 -0.60141999
v 0.15857577 -2.73789331 -0.59238821
v 0.05216853 -2.40345121 -0.59239615
v 0.05215161 -2.73786028 -0.59237984
v 0.15854820 -2.40346573 -0.59238334
v 0.05215279 -2.73787526 -0.51412866
v 0.15858097 -2.73790414 -0.59240005
v 0.05215926 -2.73787820 -0.59240563
v 0.15855954 -2.73789086 -0.51413174
v 0.15857666 -2.40344836 -0.51413450
v 0.05212656 -2.73789749 -0.51410652
v 0.05213185 -2.40342549 -0.51413652
v 0.15853952 -2.73786236 -0.51411446
v 0.19797394 -2.68677837 -1.12653136
v 0.19797678 -2.66831616 -1.00685631
v 0.19798827 -2.68678509 -0.99882884
v 0.19798020 -2.66832574 -1.11849299
v 0.19796914 -2.66831712 -1.11847253
v 0.16886051 -2.64305202 -1.11847262
v 0.16887371 -2.67933952 -1.11849834
v 0.19796333 -2.63971959 -1.11848491
v 0.19798484 -2.63972960 -1.00688167
v 0.16885308 -2.67932648 -1.00689011
v 0.16886852 -2.64304592 -1.00684425
v 0.19797333 -2.66830371 -1.00684838
v 0.16887122 -2.67934402 -1.11848610
v 0.16890281 -2.64305547 -1.00686736
v 0.16889284 -2.67932331 -1.00685721
v 0.16888053 -2.64302698 -1.11850396
v 0.15855757 -2.40343259 -0.51412758
v 0.05217079 -2.40343540 -0.59240097
v 0.15858815 -2.40345739 -0.59239873
v 0.05214485 -2.40346406 -0.51412368
v 0.05214108 -2.73789101 -0.59237926
v 0.05216783 -2.40345319 -0.51415061
v 0.05215431 -2.73790497 -0.51414646
v 0.05215035 -2.40344672 -0.59240015
v 0.16886760 -2.67931117 -1.00684434
v 0.19799531 -2.66830599 -1.11849162
v 0.16885270 -2.67934908 -1.11849514
v 0.19797038 -2.66833151 -1.00684737
v 0.15360838 -2.73912357 -0.55009217
v 0.14251923 -2.40085615 -0.53180580
v 0.14250933 -2.73912487 -0.53183956
v 0.15358978 -2.40083197 -0.55007951
v 0.15358935 -2.40083089 -0.55010405
v 0.15206795 -2.73909780 -0.55108134
v 0.15206585 -2.40082566 -0.55108503
v 0.15359221 -2.73912701 -0.55010894
v 0.14207351 -2.40085833 -0.53877923
v 0.15206328 -2.73912555 -0.55107271
v 0.14206930 -2.73912540 -0.53880152
v 0.15205497 -2.40085352 -0.55106593
v 0.15356152 -2.73913377 -0.56972322
v 0.14253163 -2.40085200 -0.55146140
v 0.14252198 -2.73914857 -0.55145018
v 0.15359505 -2.40085991 -0.56970277
v 0.15360076 -2.40085528 -0.56970791
v 0.15207051 -2.73911106 -0.57070768
v 0.15205523 -2.40085803 -0.57070684
v 0.15355905 -2.73910751 -0.56973980
v 0.14207582 -2.40086466 -0.55843372
v 0.15204636 -2.73912290 -0.57072160
v 0.14205962 -2.73911342 -0.55843236
v 0.15206537 -2.40085853 -0.57072992
v 0.15357885 -2.73912975 -0.53044276
v 0.14253480 -2.40084214 -0.51221146
v 0.14251669 -2.73911369 -0.51220854
v 0.15358661 -2.40081981 -0.53047708
v 0.15358738 -2.40085004 -0.53047247
v 0.15204330 -2.73910488 -0.53145904
v 0.15205033 -2.40084298 -0.53145669
v 0.15358914 -2.73912620 -0.53046669
v 0.14206592 -2.40086620 -0.51918397
v 0.15208090 -2.73910639 -0.53144744
v 0.14208300 -2.73913573 -0.51919533
v 0.15203486 -2.40086208 -0.53143293
v 0.15971958 -2.99648440 -1.03651858
v 0.14640863 -2.99370764 -1.03767900
v 0.15040700 -2.99112291 -1.03653049
v 0.16022168 -3.00166737 -1.03768086
v 0.14640455 -2.99372573 -1.03766252
v 0.15971587 -2.99650855 -1.03653601
v 0.15972152 -2.99653522 -1.03654123
v 0.15037795 -2.99108717 -1.08173596
v 0.15973023 -2.99647289 -1.08173693
v 0.15037431 -2.99113548 -1.03652655
v 0.16906397 -2.99111460 -1.03654179
v 0.16025767 -3.00169038 -1.03766037
v 0.15974447 -2.99651573 -1.03652225
v 0.16025415 -3.00166515 -1.02340960
v 0.14641971 -2.99370343 -1.03765830
v 0.16024006 -3.00168375 -1.03768258
v 0.14639471 -2.99370695 -1.02339408
v 0.16027402 -3.00169443 -1.08251005
v 0.15972115 -2.99651537 -1.08174577
v 0.15039761 -2.99110106 -1.08174635
v 0.16906754 -2.99114688 -1.08175199
v 0.15971501 -2.99649254 -1.03652926
v 0.15971349 -2.99651514 -1.08177150
v 0.16905731 -2.99111316 -1.03651385
v 0.17405754 -2.99369324 -1.03766356
v 0.16022742 -3.00166522 -1.03769484
v 0.16906666 -2.99112489 -1.03655769
v 0.17407343 -2.99373239 -1.03766638
v 0.16025694 -3.00168832 -1.02342169
v 0.16020545 -3.00168897 -1.03765576
v 0.17404301 -2.99371812 -1.02345238
v 0.16024986 -3.00167974 -1.02342430
v 0.15040761 -2.99112495 -1.02227904
v 0.14644320 -2.99371703 -1.02341604
v 0.17410224 -2.99370317 -1.08250661
v 0.15970590 -2.99650949 -1.08175812
v 0.16027143 -3.00169711 -1.08252066
v 0.16026947 -3.00167978 -1.08250619
v 0.15041615 -2.99110914 -1.08176304
v 0.14645977 -2.99370694 -1.08251158
v 0.17409917 -2.99367746 -1.08250881
v 0.16906678 -2.99113417 -1.08177567
v 0.15972223 -2.99651339 -1.08175193
v 0.16908387 -2.99112467 -1.08176429
v 0.16907859 -2.98034452 -1.03652948
v 0.16906347 -2.99109135 -1.03655376
v 0.16905349 -2.98032936 -1.08173856
v 0.17403594 -2.99368809 -1.03768256
v 0.16905481 -2.99112634 -1.03652535
v 0.16907170 -2.98035064 -1.03652741
v 0.17404496 -2.99372116 -1.03765240
v 0.17403680 -2.97775126 -1.02343633
v 0.17404428 -2.99370326 -1.02341784
v 0.17403602 -2.97775436 -1.03767111
v 0.17407099 -2.99369340 -1.02340512
v 0.15973295 -2.99651687 -1.02227896
v 0.16024458 -3.00169507 -1.02343572
v 0.15039246 -2.99114291 -1.02228529
v 0.17408323 -2.99371028 -1.09674422
v 0.16031310 -3.00167722 -1.08252009
v 0.16029096 -3.00167962 -1.09677092
v 0.17411141 -2.99371127 -1.08251478
v 0.16028156 -3.00167593 -1.08251183
v 0.14647224 -2.99373004 -1.09675845
v 0.16027409 -3.00169278 -1.09679775
v 0.14644707 -2.99372887 -1.08249825
v 0.17408626 -2.97774765 -1.08249751
v 0.16905732 -2.99113188 -1.08173786
v 0.17410277 -2.99372172 -1.08249999
v 0.17408986 -2.97774498 -1.08249517
v 0.16905355 -2.98033158 -1.08179674
v 0.16907257 -2.99114489 -1.08171952
v 0.17405523 -2.99371309 -1.03766019
v 0.16905400 -2.98033678 -1.03653426
v 0.17405031 -2.97776049 -1.03766988
v 0.17403998 -2.99370296 -1.02341132
v 0.16905664 -2.98032679 -1.02226761
v 0.16906082 -2.99112472 -1.02227506
v 0.17404398 -2.97775985 -1.02342194
v 0.15039011 -2.99111606 -1.02225458
v 0.16907766 -2.98032659 -1.02226717
v 0.15030652 -2.98021529 -1.02227755
v 0.15974066 -2.99649084 -1.02229471
v 0.16904020 -2.99109420 -1.02225451
v 0.17409038 -2.99370561 -1.09676183
v 0.16029615 -3.00169229 -1.09675427
v 0.16906876 -2.99111336 -1.09599595
v 0.17410117 -2.99372240 -1.09674994
v 0.17409233 -2.97773894 -1.08250300
v 0.17408548 -2.99370097 -1.08251555
v 0.17410289 -2.97775710 -1.09674844
v 0.16027084 -3.00169061 -1.09677228
v 0.14645621 -2.99370829 -1.09675954
v 0.15973194 -2.99650686 -1.09601699
v 0.17407738 -2.97773833 -1.09676960
v 0.16907053 -2.99113241 -1.09598953
v 0.16907459 -2.98035083 -1.09600579
v 0.14648601 -2.99370699 -1.09678625
v 0.15039944 -2.99109179 -1.09603292
v 0.16907923 -2.98034169 -1.09601192
v 0.15039574 -2.99111738 -1.09599861
v 0.15029870 -2.98020170 -1.09602369
v 0.15038594 -2.99107610 -1.30402797
v 0.16907120 -2.98033417 -1.30404295
v 0.15029894 -2.98022583 -1.30401830
v 0.15970579 -2.99652008 -1.30403758
v 0.16907433 -2.99110923 -1.30399544
v 0.16022948 -3.00167519 -1.30514452
v 0.15975330 -2.99652499 -1.30402747
v 0.15037939 -2.99113689 -1.30400621
v 0.17406045 -2.99372402 -1.30517542
v 0.16906932 -2.99112441 -1.30401298
v 0.16906258 -2.98032366 -1.30400046
v 0.17402477 -2.97773255 -1.30516699
v 0.17403448 -2.99369612 -1.30517394
v 0.16021440 -3.00169030 -1.30514129
v 0.15036771 -2.99113208 -1.30403976
v 0.14639677 -2.99370660 -1.30517868
v 0.17405462 -2.99370305 -1.31940412
v 0.17407707 -2.97776525 -1.30516698
v 0.17404187 -2.99371083 -1.30515465
v 0.17405866 -2.97775852 -1.31939562
v 0.17404650 -2.99370614 -1.31942661
v 0.16024125 -3.00167509 -1.30516024
v 0.16020191 -3.00168889 -1.31940592
v 0.17404447 -2.99370588 -1.30515313
v 0.16020656 -3.00167440 -1.30518668
v 0.14641491 -2.99369651 -1.31942120
v 0.16023845 -3.00167860 -1.31942161
v 0.14640766 -2.99369332 -1.30515600
v 0.17405867 -2.99369880 -1.31942214
v 0.16905020 -2.98035268 -1.31829071
v 0.17402228 -2.97775969 -1.31942676
v 0.17405119 -2.99370771 -1.31940899
v 0.16024763 -3.00169917 -1.31941769
v 0.16905963 -2.99112974 -1.31828871
v 0.16023277 -3.00168181 -1.31941806
v 0.14642142 -2.99370018 -1.31940009
v 0.15972472 -2.99650543 -1.31825645
v 0.17404427 -2.99369809 -1.31940032
v 0.16907753 -2.99110595 -1.31826336
v 0.16906101 -2.98032471 -1.31827909
v 0.16905908 -2.99112051 -1.31826452
v 0.16025438 -3.00166706 -1.31939642
v 0.15973377 -2.99650540 -1.31828417
v 0.15971599 -2.99650562 -1.31824827
v 0.14642164 -2.99369933 -1.31940609
v 0.15037438 -2.99112676 -1.31826487
v 0.16907922 -2.99112582 -1.36348828
v 0.16903869 -2.98033141 -1.31825217
v 0.16906215 -2.99112613 -1.31823476
v 0.16906563 -2.98031915 -1.36350513
v 0.16904837 -2.99113888 -1.36348218
v 0.15970100 -2.99653540 -1.31828063
v 0.15971870 -2.99651141 -1.36351337
v 0.16905368 -2.99111676 -1.31829903
v 0.15972549 -2.99649912 -1.31825292
v 0.15039942 -2.99110141 -1.36349187
v 0.15974496 -2.99650579 -1.36346696
v 0.15040143 -2.99112533 -1.31826950
v 0.17407483 -2.97773458 -1.36425375
v 0.16908213 -2.98030763 -1.36349593
v 0.16906547 -2.99111966 -1.36349087
v 0.17413003 -2.99368662 -1.36424657
v 0.16907973 -2.99114625 -1.36349435
v 0.15968466 -2.99649189 -1.36352632
v 0.16028840 -3.00169808 -1.36421425
v 0.15970649 -2.99651215 -1.36347247
v 0.15039925 -2.99111466 -1.36349928
v 0.17410044 -2.97776192 -1.36425224
v 0.16906433 -2.99110736 -1.36349494
v 0.17411093 -2.99372527 -1.36423026
v 0.17410551 -2.99368166 -1.36424251
v 0.15972271 -2.99650560 -1.36351216
v 0.16027761 -3.00168289 -1.36424806
v 0.16025794 -3.00167864 -1.36426393
v 0.15039007 -2.99110568 -1.36350592
v 0.14646554 -2.99371067 -1.36424240
v 0.17408305 -2.99372616 -1.37853370
v 0.17412947 -2.97774201 -1.36422737
v 0.17409390 -2.99368887 -1.36425614
v 0.17408151 -2.97773965 -1.37850888
v 0.17410275 -2.99369869 -1.37849652
v 0.16027779 -3.00171769 -1.36426650
v 0.16028865 -3.00165833 -1.37850526
v 0.17411836 -2.99373767 -1.36422915
v 0.16026493 -3.00169962 -1.36425412
v 0.14647142 -2.99372123 -1.37849088
v 0.16026065 -3.00168359 -1.37851710
v 0.14647026 -2.99373267 -1.36426359
v 0.17408170 -2.97773878 -1.37853601
v 0.16908908 -2.99112471 -1.37774933
v 0.16902941 -2.98034955 -1.37774030
v 0.17412004 -2.99371835 -1.37848898
v 0.16028320 -3.00167653 -1.37850774
v 0.16908607 -2.99114137 -1.37774302
v 0.16030221 -3.00167476 -1.37850877
v 0.14647450 -2.99370088 -1.37850861
v 0.15973904 -2.99648884 -1.37777096
v 0.16909086 -2.98033772 -1.37775436
v 0.15040599 -2.99112825 -1.37774545
v 0.15031037 -2.98020099 -1.37774658
v 0.14646758 -2.99370911 -1.37848796
v 0.15040107 -2.99111059 -1.37773964
vt 0.09039998 0.86259997
vt 0.09889996 0.85810000
vt 0.11510000 0.86739999
vt 0.09039998 0.86259997
vt 0.11420000 0.87639999
vt 0.09889996 0.83951581
vt 0.09039998 0.83510000
vt 0.13121191 0.85809362
vt 0.09889996 0.83959997
vt 0.13130000 0.83930004
vt 0.09894063 0.85815620
vt 0.11419100 0.87639290
vt 0.13119100 0.85809278
vt 0.13799100 0.86259282
vt 0.11510950 0.86741734
vt 0.12200000 0.93220001
vt 0.13470000 0.94520003
vt 0.13500001 0.93220001
vt 0.12170000 0.94520003
vt 0.15140000 0.93220001
vt 0.13500001 0.94459999
vt 0.15140000 0.94459999
vt 0.13500001 0.93220001
vt 0.11550000 0.94459999
vt 0.12200000 0.93220001
vt 0.11550000 0.93220001
vt 0.12200000 0.94459999
vt 0.13500001 0.94459999
vt 0.12170000 0.94520003
vt 0.13890000 0.94520003
vt -323.03298950 -286.03839111
vt -324.36999512 -286.54748535
vt -324.62869263 -286.03839111
vt 402.94619751 -150.84100342
vt 404.54141235 -150.84100342
vt 403.25289917 -151.26800537
vt 79.47962952 -425.94821167
vt 80.76840210 -425.46640015
vt 80.55786133 -425.94821167
vt 0.13500001 0.94459999
vt 0.13890000 0.94520003
vt 0.15200000 0.94520003
vt 0.12169990 0.94520009
vt 0.11549990 0.94460005
vt 0.11359990 0.94520009
vt 0.12170000 0.94520003
vt 0.13890000 0.98449999
vt 0.13890000 0.94520003
vt 0.12170000 0.98449999
vt 0.15200000 0.94520003
vt 0.13890000 0.98449999
vt 0.15200000 0.98449999
vt 0.13890000 0.94520003
vt 0.11360000 0.98449999
vt 0.12170000 0.94520003
vt 0.11360000 0.94520003
vt 0.12170000 0.98449999
vt 0.13499990 0.98360002
vt 0.13889989 0.98449999
vt 0.12170000 0.98449999
vt 324.62860107 -289.33828735
vt 324.36990356 -289.84960938
vt 323.29159546 -289.84960938
vt -402.94949341 -156.37829590
vt -403.25210571 -156.81599426
vt -404.32998657 -156.81599426
vt -79.09853363 -426.48831177
vt -80.47905731 -426.97531128
vt -80.69377899 -426.48831177
vt 0.15200000 0.98449999
vt 0.13890000 0.98449999
vt 0.13500001 0.98360002
vt 0.12170000 0.98449999
vt 0.11360000 0.98449999
vt 0.11550000 0.98360002
vt 0.12170000 0.98449999
vt 0.13530000 0.99500000
vt 0.13500001 0.98360002
vt 0.12200000 0.99589998
vt 0.15200000 0.98449999
vt 0.13500001 0.99589998
vt 0.15200000 0.99679995
vt 0.13500001 0.98360002
vt 0.11550000 0.99589998
vt 0.12170000 0.98449999
vt 0.11520000 0.98449999
vt 0.12200000 0.99589998
vt 0.09039998 0.86259997
vt 0.11420000 0.87639999
vt 0.09889996 0.85810000
vt 0.09039998 0.83510000
vt 0.09889996 0.85818422
vt 0.09889996 0.83959997
vt 0.11420000 0.87639999
vt 0.13800000 0.86259997
vt 0.11510000 0.86739999
vt 0.09883897 0.83951557
vt 0.13123231 0.85812181
vt 0.13130000 0.83930004
vt 0.13800000 0.86259997
vt 0.13120000 0.85810000
vt 0.09039998 0.86259997
vt 0.09889996 0.85810000
vt 0.11510000 0.86739999
vt 0.09039998 0.86259997
vt 0.11420000 0.87639999
vt 0.09889996 0.83951581
vt 0.09039998 0.83510000
vt 0.13121191 0.85809362
vt 0.09889996 0.83959997
vt 0.13130000 0.83930004
vt 0.09894063 0.85815620
vt 0.11419040 0.87639177
vt 0.13119040 0.85809183
vt 0.13799040 0.86259180
vt 0.11510890 0.86741620
vt 0.12200000 0.93220001
vt 0.13470000 0.94520003
vt 0.13500001 0.93220001
vt 0.12170000 0.94520003
vt 0.15140000 0.93220001
vt 0.13500001 0.94459999
vt 0.15140000 0.94459999
vt 0.13500001 0.93220001
vt 0.11550000 0.94459999
vt 0.12200000 0.93220001
vt 0.11550000 0.93220001
vt 0.12200000 0.94459999
vt 0.13500001 0.94459999
vt 0.12170000 0.94520003
vt 0.13890000 0.94520003
vt -323.03298950 -277.71020508
vt -324.36999512 -278.21929932
vt -324.62869263 -277.71020508
vt 402.94619751 -140.91740417
vt 404.54141235 -140.91740417
vt 403.25289917 -141.34440613
vt 79.47962952 -417.13668823
vt 80.76840210 -416.65490723
vt 80.55786896 -417.13668823
vt 0.13500001 0.94459999
vt 0.13890000 0.94520003
vt 0.15200000 0.94520003
vt 0.12169990 0.94520009
vt 0.11549990 0.94460005
vt 0.11359990 0.94520009
vt 0.12170000 0.94520003
vt 0.13890000 0.98449999
vt 0.13890000 0.94520003
vt 0.12170000 0.98449999
vt 0.15200000 0.94520003
vt 0.13890000 0.98449999
vt 0.15200000 0.98449999
vt 0.13890000 0.94520003
vt 0.11360000 0.98449999
vt 0.12170000 0.94520003
vt 0.11360000 0.94520003
vt 0.12170000 0.98449999
vt 0.13499990 0.98360002
vt 0.13889989 0.98449999
vt 0.12170000 0.98449999
vt 324.62850952 -276.75421143
vt 324.36990356 -277.26550293
vt 323.29159546 -277.26550293
vt -402.94949341 -141.68260193
vt -403.25210571 -142.12040710
vt -404.32998657 -142.12040710
vt -79.09853363 -413.27270508
vt -80.47907257 -413.75970459
vt -80.69377899 -413.27270508
vt 0.15200000 0.98449999
vt 0.13890000 0.98449999
vt 0.13500001 0.98360002
vt 0.12170000 0.98449999
vt 0.11360000 0.98449999
vt 0.11550000 0.98360002
vt 0.12200000 0.98360002
vt 0.13500001 0.99589998
vt 0.13500001 0.98360002
vt 0.12200000 0.99589998
vt 0.15200000 0.98449999
vt 0.13500001 0.99589998
vt 0.15200000 0.99679995
vt 0.13500001 0.98360002
vt 0.11550000 0.99589998
vt 0.12170000 0.98449999
vt 0.11550000 0.98360002
vt 0.12170000 0.99679995
vt 0.09039998 0.86259997
vt 0.11420000 0.87639999
vt 0.09889996 0.85810000
vt 0.09039998 0.83510000
vt 0.09889996 0.85818422
vt 0.09889996 0.83959997
vt 0.11420000 0.87639999
vt 0.13800000 0.86259997
vt 0.11510000 0.86739999
vt 0.09883897 0.83951557
vt 0.13123231 0.85812181
vt 0.13130000 0.83930004
vt 0.13800000 0.86259997
vt 0.13120000 0.85810000
vt 0.09039998 0.86259997
vt 0.09889996 0.85810000
vt 0.11510000 0.86739999
vt 0.09039998 0.86259997
vt 0.11420000 0.87639999
vt 0.09889996 0.83951581
vt 0.09039998 0.83510000
vt 0.13121191 0.85809362
vt 0.09889996 0.83959997
vt 0.13130000 0.83930004
vt 0.09894063 0.85815620
vt 0.11419070 0.87639230
vt 0.13119070 0.85809231
vt 0.13799070 0.86259228
vt 0.11510920 0.86741680
vt 0.12200000 0.93220001
vt 0.13470000 0.94520003
vt 0.13500001 0.93220001
vt 0.12170000 0.94520003
vt 0.15140000 0.93220001
vt 0.13500001 0.94459999
vt 0.15140000 0.94459999
vt 0.13500001 0.93220001
vt 0.11550000 0.94459999
vt 0.12200000 0.93220001
vt 0.11550000 0.93220001
vt 0.12200000 0.94459999
vt 0.13500001 0.94459999
vt 0.12170000 0.94520003
vt 0.13890000 0.94520003
vt -323.03298950 -281.87710571
vt -324.36999512 -282.38629150
vt -324.62869263 -281.87710571
vt 402.94619751 -145.87890625
vt 404.54141235 -145.87890625
vt 403.25289917 -146.30589294
vt 79.47962952 -421.55041504
vt 80.76840210 -421.06860352
vt 80.55786133 -421.55041504
vt 0.13500001 0.94459999
vt 0.13890000 0.94520003
vt 0.15200000 0.94520003
vt 0.12169990 0.94520009
vt 0.11549990 0.94460005
vt 0.11359990 0.94520009
vt 0.12170000 0.94520003
vt 0.13890000 0.98449999
vt 0.13890000 0.94520003
vt 0.12170000 0.98449999
vt 0.15200000 0.94520003
vt 0.13890000 0.98449999
vt 0.15200000 0.98449999
vt 0.13890000 0.94520003
vt 0.11360000 0.98449999
vt 0.12170000 0.94520003
vt 0.11360000 0.94520003
vt 0.12170000 0.98449999
vt 0.13499990 0.98360002
vt 0.13889989 0.98449999
vt 0.12170000 0.98449999
vt 324.62860107 -283.04400635
vt 324.36990356 -283.55538940
vt 323.29159546 -283.55538940
vt -402.94949341 -149.04849243
vt -403.25210571 -149.48640442
vt -404.32998657 -149.48640442
vt -79.09853363 -419.85101318
vt -80.47905731 -420.33810425
vt -80.69377899 -419.85101318
vt 0.15200000 0.98449999
vt 0.13890000 0.98449999
vt 0.13500001 0.98360002
vt 0.12170000 0.98449999
vt 0.11360000 0.98449999
vt 0.11550000 0.98360002
vt 0.12170000 0.98449999
vt 0.13530000 0.99500000
vt 0.13500001 0.98360002
vt 0.12200000 0.99589998
vt 0.15200000 0.98449999
vt 0.13500001 0.99589998
vt 0.15200000 0.99679995
vt 0.13500001 0.98360002
vt 0.11550000 0.99589998
vt 0.12170000 0.98449999
vt 0.11520000 0.98449999
vt 0.12200000 0.99589998
vt 0.09039998 0.86259997
vt 0.11420000 0.87639999
vt 0.09889996 0.85810000
vt 0.09039998 0.83510000
vt 0.09889996 0.85818422
vt 0.09889996 0.83959997
vt 0.11420000 0.87639999
vt 0.13800000 0.86259997
vt 0.11510000 0.86739999
vt 0.09883897 0.83951557
vt 0.13123231 0.85812181
vt 0.13130000 0.83930004
vt 0.13800000 0.86259997
vt 0.13120000 0.85810000
vt 0.09039998 0.82340002
vt 0.09889996 0.80031741
vt 0.09889996 0.81889999
vt 0.09039998 0.79589999
vt 0.16940001 0.93220001
vt 0.15360001 0.94520003
vt 0.16890000 0.94520003
vt 0.15410000 0.93220001
vt 0.11420000 0.78210002
vt 0.09889996 0.80030012
vt 0.09883898 0.81893098
vt 0.13123220 0.80033082
vt 0.13130000 0.81919998
vt 0.11510000 0.79100001
vt 0.16910000 0.93150002
vt 0.18370000 0.94520003
vt 0.18340001 0.93220001
vt 0.16940001 0.94450003
vt 0.15360001 0.94520003
vt 0.16550000 0.94520003
vt 0.16940001 0.94450003
vt 0.11420000 0.78210002
vt 0.13800000 0.79589999
vt 0.13120000 0.80030012
vt 0.18340001 0.94450003
vt 0.18960001 0.93220001
vt 0.18340001 0.93220001
vt 0.18960001 0.94450003
vt -432.26748657 178.62379456
vt -433.65240479 178.14179993
vt -433.86331177 178.62379456
vt -381.63778687 -286.03829956
vt -381.89639282 -286.54739380
vt -382.97430420 -286.54739380
vt 0.16940010 0.94449997
vt 0.16550010 0.94520003
vt 0.18370010 0.94520003
vt 0.13800000 0.79589999
vt 0.18370000 0.94520003
vt 0.19130000 0.94520003
vt 0.18960001 0.94450003
vt -49.79280090 451.25149536
vt -50.09975815 450.82418823
vt -51.17766190 450.82418823
vt 0.16550000 0.94520003
vt 0.15400000 0.98329997
vt 0.16550000 0.98430002
vt 0.15400000 0.94419998
vt 0.16570000 0.94620007
vt 0.18350001 0.98329997
vt 0.18370000 0.94520003
vt 0.16550000 0.98430002
vt 0.18350001 0.98329997
vt 0.19149999 0.94620007
vt 0.18370000 0.94520003
vt 0.19130000 0.98430002
vt 0.16940001 0.98329997
vt 0.16550000 0.98430002
vt 0.15400000 0.98329997
vt 432.52059937 167.71290588
vt 433.81369019 168.20019531
vt 433.59890747 167.71290588
vt 0.18350001 0.98329997
vt 0.18960001 0.98329997
vt 0.19130000 0.98430002
vt 383.23291016 -289.33819580
vt 381.89630127 -289.84960938
vt 381.63769531 -289.33819580
vt 0.16940010 0.98329997
vt 0.18350010 0.98329997
vt 0.16550010 0.98430002
vt 49.75154114 434.13189697
vt 51.34732056 434.13189697
vt 50.05445099 433.69378662
vt 0.16940001 0.98329997
vt 0.15400000 0.99570000
vt 0.16940001 0.99570000
vt 0.15400000 0.98329997
vt 0.16940001 0.98329997
vt 0.18350001 0.99570000
vt 0.18350001 0.98329997
vt 0.16940001 0.99570000
vt 0.18350001 0.99570000
vt 0.18960001 0.98329997
vt 0.18350001 0.98329997
vt 0.18960001 0.99570000
vt 0.09039998 0.79589999
vt 0.09889996 0.81888270
vt 0.09889996 0.80030012
vt 0.09039998 0.82340002
vt 0.09039998 0.79589999
vt 0.11510000 0.79100001
vt 0.11420000 0.78210002
vt 0.11420000 0.78210002
vt 0.13120000 0.80030012
vt 0.13800000 0.79589999
vt 0.13121200 0.80034101
vt 0.09890001 0.81889987
vt 0.13130011 0.81919992
vt 0.11510010 0.79099989
vt 0.09894068 0.80027932
vt 0.13120000 0.80030012
vt 0.78210020 0.07389969
vt 0.60080022 0.06239969
vt 0.78210020 0.06249970
vt 0.60080022 0.07379973
vt -323.94680786 181.12289429
vt -357.77441406 181.30450439
vt -323.94680786 181.30450439
vt -357.77441406 181.12289429
vt 0.59249997 0.07459998
vt 0.59770000 0.02170002
vt 0.59249997 0.02170002
vt 0.59770000 0.07459998
vt 0.31299999 0.70850003
vt 0.43979999 0.74160004
vt 0.43979999 0.70850003
vt 0.31299999 0.74160004
vt 0.07139998 0.47450000
vt 0.08109998 0.76260006
vt 0.08109998 0.47450000
vt 0.07139998 0.76260006
vt 0.55739999 0.84729999
vt 0.98570001 0.79530013
vt 0.55739999 0.79530013
vt 0.98570001 0.84729999
vt 0.07139998 0.76260006
vt 0.08109998 0.47450000
vt 0.08109998 0.76260006
vt 0.07139998 0.47450000
vt 0.31299999 0.74160004
vt 0.43979999 0.70850003
vt 0.43979999 0.74160004
vt 0.31299999 0.70850003
vt 0.37430000 0.76170003
vt 0.38380000 0.99409997
vt 0.37430000 0.99409997
vt 0.38380000 0.76170003
vt 0.00579995 0.98110002
vt 0.01330000 0.30926788
vt 0.00579995 0.29820001
vt 0.01330000 0.97000003
vt 0.11170260 0.32349998
vt 0.13380000 0.44650000
vt 0.13380000 0.32349998
vt 0.11169990 0.44650000
vt 0.65240002 0.10151148
vt 0.65689999 0.75709999
vt 0.65689999 0.09660000
vt 0.65240002 0.75209999
vt 0.15880001 0.60130000
vt 0.18130000 0.72589999
vt 0.18130000 0.60130000
vt 0.15880001 0.72589999
vt 0.04939997 0.94180000
vt 0.06199997 0.73010004
vt 0.04939997 0.72160000
vt 0.06199997 0.90002835
vt 0.07139998 0.73010004
vt 0.08399999 0.94169998
vt 0.08399999 0.72160000
vt 0.07139998 0.90003872
vt 0.00239998 0.97010553
vt 0.00579995 0.29820001
vt 0.00239998 0.30930001
vt 0.00579995 0.98110002
vt 0.04490000 0.30040002
vt 0.01719999 0.97939998
vt 0.04489658 0.97939998
vt 0.01719999 0.30040002
vt 0.65240002 0.10159999
vt 0.65689999 0.09660000
vt 0.50700003 0.09660000
vt 0.65240002 0.10159999
vt 0.63450003 0.48620921
vt 0.65240002 0.75209999
vt 0.63450003 0.36760002
vt 0.65246218 0.75209999
vt 0.50700003 0.75709999
vt 0.65689999 0.75709999
vt 0.51160002 0.75209999
vt 0.13810000 0.29327691
vt 0.15629999 0.74839997
vt 0.15629999 0.30170000
vt 0.13810000 0.75582081
vt 0.13810000 0.45260000
vt 0.43370000 0.95029998
vt 0.98580003 0.92009997
vt 0.44279999 0.92009997
vt 0.43370000 0.95029998
vt 0.99489999 0.95029998
vt 0.98580003 0.92009997
vt 0.18459991 0.29299998
vt 0.20230000 0.76191902
vt 0.20230000 0.29299998
vt 0.18459991 0.76183569
vt 0.04939997 0.72160000
vt 0.06189996 0.34579998
vt 0.04939997 0.30239999
vt 0.06189996 0.71786630
vt 0.07150000 0.34579998
vt 0.08399999 0.72160000
vt 0.08399999 0.30239999
vt 0.07150000 0.71786630
vt 0.38380000 0.76170003
vt 0.37430000 0.99409997
vt 0.38380000 0.99409997
vt 0.37430000 0.76170003
vt 0.50700003 0.75709999
vt 0.51160002 0.10159999
vt 0.50700003 0.09660000
vt 0.65240002 0.10159999
vt 0.50700003 0.09660000
vt 0.51160002 0.10159999
vt 0.63449627 0.48619998
vt 0.51160002 0.75209999
vt 0.57740003 0.48619998
vt 0.51160002 0.10159999
vt 0.57740372 0.36760002
vt 0.36780000 0.93110001
vt 0.36039999 0.76700002
vt 0.36780000 0.75959998
vt 0.36039999 0.92373067
vt 0.50700003 0.75709999
vt 0.51160002 0.75209999
vt 0.51160002 0.10159999
vt 0.10000000 0.62976259
vt 0.10860000 0.29540002
vt 0.10000000 0.29540002
vt 0.10860000 0.65079999
vt 0.54425722 0.85945582
vt 0.55742168 0.84738672
vt 0.55744392 0.79530013
vt 0.99875718 0.85945582
vt 0.98567778 0.84738672
vt 0.99879998 0.75880003
vt 0.54430002 0.75880003
vt 0.98570001 0.79530013
vt 0.08829998 0.65079999
vt 0.09799998 0.29540002
vt 0.08819997 0.29540002
vt 0.09800760 0.62976259
vt 0.22220001 0.12040001
vt 0.20570000 0.12040001
vt 0.20570000 0.65120000
vt 0.38640001 0.99790001
vt 0.99760509 0.95539999
vt 0.38641071 0.95539999
vt 0.99748957 0.99790001
vt 0.20565550 0.01012617
vt 0.22220001 0.08993042
vt 0.20565550 0.08993220
vt 0.20565550 0.12040180
vt 0.49730000 0.65120000
vt 0.20565550 0.65123224
vt 0.22220001 0.12040001
vt 0.49730000 0.01009399
vt 0.11160000 0.45539999
vt 0.13380000 0.72450000
vt 0.13380000 0.45539999
vt 0.11160000 0.72450000
vt 0.43370000 0.88720000
vt 0.98589998 0.91860002
vt 0.99489999 0.88720000
vt 0.44285700 0.91860002
vt 0.15880001 0.31950003
vt 0.18130000 0.59230000
vt 0.18130000 0.31950003
vt 0.15880001 0.59230000
vt 0.66780001 0.75709999
vt 0.67269999 0.10159999
vt 0.66780001 0.09660000
vt 0.67269999 0.75218964
vt 0.36059791 0.76708210
vt 0.28500000 0.75950003
vt 0.36780000 0.75959998
vt 0.29260001 0.76700002
vt 0.57739967 0.36759120
vt 0.51159972 0.75210011
vt 0.57739967 0.48620027
vt 0.51159972 0.10160041
vt 0.28500000 0.93120003
vt 0.36039999 0.92369998
vt 0.36780000 0.93110001
vt 0.29240209 0.92378211
vt 0.36039999 0.92369998
vt 0.35040000 0.77689999
vt 0.36039999 0.76700002
vt 0.35040000 0.91392261
vt 0.17990340 0.27562100
vt 0.02266502 0.04570001
vt 0.02269220 0.27562100
vt 0.02519994 0.04570001
vt 0.02519570 0.00983119
vt 0.17700000 0.04570001
vt 0.17987619 0.04570001
vt 0.17699580 0.00983119
vt 0.22290000 0.65120000
vt 0.49730000 0.75120002
vt 0.22290000 0.75120002
vt 0.49730000 0.65120000
vt 0.49730000 0.65120000
vt 0.22290000 0.75120002
vt 0.49730000 0.75120002
vt 0.22290000 0.65120000
vt 0.49728161 0.65121061
vt 0.22218160 0.12041062
vt 0.20568161 0.65121061
vt 0.49723089 0.01014131
vt 0.49730000 0.01010013
vt 0.22220001 0.08990008
vt 0.22220001 0.12040007
vt 0.50905830 0.88450003
vt 0.96340001 0.86739999
vt 0.50905830 0.86739999
vt 0.96340001 0.88450003
vt 0.99680001 0.00389999
vt 0.82260001 0.09299999
vt 0.99680001 0.09299999
vt 0.82260001 0.00389999
vt -0.00030000 0.00067180
vt 0.19260000 0.29092818
vt 0.19260000 0.00070000
vt -0.00030000 0.29089999
vt 0.67267078 0.10159999
vt 0.99589998 0.09660000
vt 0.66780001 0.09660000
vt 0.99100000 0.10159999
vt 0.01719999 0.30040002
vt 0.04490000 0.97939998
vt 0.01719999 0.97939998
vt 0.04490000 0.30040002
vt 0.99102551 0.75220013
vt 0.66780001 0.75709999
vt 0.99589998 0.75709999
vt 0.67269999 0.75220013
vt 0.69489998 0.36764282
vt 0.67269999 0.75220013
vt 0.69489998 0.48610002
vt 0.67269999 0.10159999
vt 0.35040000 0.77689999
vt 0.29260001 0.76700002
vt 0.36039999 0.76700002
vt 0.31531411 0.77689999
vt 0.29260001 0.92369998
vt 0.28500000 0.75950003
vt 0.29260001 0.76678652
vt 0.28500000 0.93120003
vt 0.29260001 0.92369998
vt 0.35038590 0.91390002
vt 0.36039999 0.92369998
vt 0.31529999 0.91390002
vt 0.27489999 0.76819998
vt 0.14659999 0.80149996
vt 0.27489999 0.80149996
vt 0.14659999 0.76819998
vt 0.49730000 0.01010001
vt 0.20570000 0.08990002
vt 0.22224200 0.08990002
vt 0.20570000 0.01010001
vt 0.50700003 0.00389999
vt 0.79159898 0.01300001
vt 0.53210002 0.01300001
vt 0.79159999 0.08389997
vt 0.79159999 0.01300710
vt 0.50700003 0.09299999
vt 0.53210098 0.08389997
vt 0.75190002 0.36760002
vt 0.99100000 0.10159999
vt 0.69485033 0.36760002
vt 0.99100000 0.75220013
vt 0.99589998 0.09660000
vt 0.99100000 0.10159999
vt 0.99589998 0.75709999
vt 0.99589998 0.09660000
vt 0.99100000 0.75220013
vt 0.75195032 0.48610002
vt 0.99100000 0.75220013
vt 0.36039999 0.92369998
vt 0.36780000 0.75959998
vt 0.36039999 0.76698399
vt 0.36780000 0.93110001
vt 0.31529999 0.91390002
vt 0.29260001 0.76700002
vt 0.31529999 0.77687740
vt 0.29260001 0.92369998
vt 0.25135779 0.99030000
vt 0.29460001 0.94180000
vt 0.23410000 0.94180000
vt 0.29899999 0.99030000
vt 0.36740601 0.99110001
vt 0.30280000 0.94340003
vt 0.36300001 0.94340003
vt 0.31999999 0.99110001
vt 0.74010003 0.48089999
vt 0.70459998 0.37159997
vt 0.74010003 0.37159997
vt 0.70459998 0.48089999
vt 0.53210002 0.08389288
vt 278.80630493 324.30310059
vt 280.01098633 359.55398560
vt 280.01098633 324.30310059
vt 278.80630493 359.55398560
vt -278.80630493 -111.40160370
vt -280.01098633 -101.76850128
vt -278.80630493 -101.76850128
vt -280.01098633 -111.40160370
vt -278.80630493 359.55398560
vt -280.01098633 324.30310059
vt -280.01098633 359.55398560
vt -278.80630493 324.30310059
vt 0.36780000 0.93110001
vt 0.29260001 0.92369998
vt 0.28500000 0.93120003
vt 0.36058009 0.92361784
vt 0.75189990 0.36760008
vt 0.99099988 0.75220013
vt 0.99099988 0.10160011
vt 0.75190061 0.48605722
vt 0.29241991 0.76691788
vt 0.36780000 0.75959998
vt 0.28500000 0.75950003
vt 0.36039999 0.76700002
vt 0.35040000 0.91390002
vt 0.36039999 0.76700002
vt 0.35040000 0.77691007
vt 0.36039999 0.92369998
vt 0.14659999 0.88529998
vt 0.27489999 0.85200000
vt 0.27489999 0.88529998
vt 0.14659999 0.85200000
vt 280.01098633 -111.40160370
vt 278.80630493 -101.76850128
vt 280.01098633 -101.76850128
vt 278.80630493 -111.40160370
vt 0.53210002 0.01300001
vt 0.78490001 0.01969999
vt 0.79159999 0.01300001
vt 0.53870291 0.01969999
vt 0.79159999 0.01300001
vt 0.78490001 0.07720000
vt 0.79159999 0.08389997
vt 0.78490001 0.01960027
vt 0.78489709 0.07730001
vt 0.53210002 0.08389997
vt 0.79159999 0.08389997
vt 0.53869998 0.07730001
vt 0.36039999 0.92369998
vt 0.31532890 0.91390002
vt 0.29260001 0.92369998
vt 0.35040000 0.91390002
vt 0.28500000 0.93120003
vt 0.29260001 0.76680130
vt 0.28500000 0.75950003
vt 0.29260001 0.92369998
vt 0.31529999 0.77689999
vt 0.36039999 0.76700002
vt 0.29260001 0.76700002
vt 0.35037109 0.77689999
vt 0.27480000 0.92769998
vt 0.14669999 0.89419997
vt 0.27480000 0.89419997
vt 0.14669999 0.92769998
vt 0.53869998 0.01959997
vt 0.53210002 0.08389997
vt 0.53869998 0.07719970
vt 0.53210002 0.01300001
vt -279.40509033 358.65039062
vt -290.04611206 325.20669556
vt -290.04611206 358.65039062
vt -279.40509033 325.20669556
vt 0.39539999 0.75680000
vt 0.48379999 0.87699997
vt 0.48379999 0.75680000
vt 0.39539999 0.87699997
vt 279.40509033 325.20669556
vt 290.04611206 358.65039062
vt 290.04611206 325.20669556
vt 279.40509033 358.65039062
vt 0.29260001 0.92369998
vt 0.31529999 0.77689999
vt 0.29260001 0.76700002
vt 0.31529999 0.91388988
vt 0.31997079 0.99110001
vt 0.36179999 0.94290000
vt 0.30170000 0.94290000
vt 0.36730000 0.99110001
vt 0.29886550 0.99030000
vt 0.23289999 0.94129997
vt 0.29330000 0.94129997
vt 0.25130001 0.99030000
vt 0.58469999 0.48079997
vt 0.62010002 0.37169999
vt 0.58469999 0.37169999
vt 0.62010002 0.48079997
vt 0.39539999 0.87699997
vt 0.48379999 0.75680000
vt 0.48379999 0.87699997
vt 0.39539999 0.75680000
vt 0.78489989 0.01970023
vt 0.53869992 0.07710022
vt 0.78489989 0.07720017
vt 0.53869992 0.01960021
vt 0.14669999 0.80699998
vt 0.27480000 0.84060001
vt 0.27480000 0.80699998
vt 0.14669999 0.84060001
vt 0.78210020 0.04659969
vt 0.60080022 0.03509969
vt 0.78210020 0.03519970
vt 0.60080022 0.04649973
vt -323.94680786 178.57130432
vt -357.77441406 178.75309753
vt -323.94680786 178.75309753
vt -357.77441406 178.57130432
vt 0.57569999 0.07459998
vt 0.58090001 0.02170002
vt 0.57569999 0.02170002
vt 0.58090001 0.07459998
vt 0.78210020 0.06049973
vt 0.60080022 0.04909968
vt 0.78210020 0.04919970
vt 0.60080022 0.06039971
vt -323.94680786 180.06759644
vt -357.77441406 180.24929810
vt -323.94680786 180.24929810
vt -357.77441406 180.06759644
vt 0.58429998 0.07459998
vt 0.58950001 0.02170002
vt 0.58429998 0.02170002
vt 0.58950001 0.07459998
vt 0.78210020 0.03319973
vt 0.60080022 0.02179968
vt 0.78210020 0.02189970
vt 0.60080022 0.03309971
vt -323.94680786 177.95710754
vt -357.77441406 178.13870239
vt -323.94680786 178.13870239
vt -357.77441406 177.95710754
vt 0.56739998 0.07459998
vt 0.57270002 0.02170002
vt 0.56739998 0.02170002
vt 0.57270002 0.07459998
vt 0.18350001 0.98329997
vt 0.18960001 0.98329997
vt 0.19130000 0.98430002
vt 49.75154114 441.31811523
vt 51.34732819 441.31811523
vt 50.05445099 440.87991333
vt 0.18370000 0.98430002
vt 0.19130000 0.94520003
vt 0.18370000 0.94520003
vt 0.19130000 0.98430002
vt 432.52059937 174.23219299
vt 433.81369019 174.71969604
vt 433.59890747 174.23219299
vt 0.18350001 0.99570000
vt 0.18960001 0.98329997
vt 0.18350001 0.98329997
vt 0.18960001 0.99570000
vt -49.79280090 456.20968628
vt -50.09976959 455.78240967
vt -51.17766190 455.78240967
vt 0.16570000 0.94620007
vt 0.18350001 0.98329997
vt 0.18370000 0.94520003
vt 0.16550000 0.98430002
vt 0.16940010 0.98329997
vt 0.18350010 0.98329997
vt 0.16550010 0.98430002
vt 0.16940001 0.98329997
vt 0.18350001 0.99570000
vt 0.18350001 0.98329997
vt 0.16940001 0.99570000
vt 0.11420000 0.78210002
vt 0.13120000 0.80030012
vt 0.13800000 0.79589999
vt -432.26748657 183.01910400
vt -433.65240479 182.53709412
vt -433.86331177 183.01910400
vt 0.18370000 0.94520003
vt 0.19130000 0.94520003
vt 0.18960001 0.94450003
vt 0.16940010 0.94449997
vt 0.16550010 0.94520003
vt 0.18370010 0.94520003
vt 0.16550000 0.94520003
vt 0.15400000 0.98329997
vt 0.16550000 0.98430002
vt 0.15400000 0.94419998
vt 0.16940001 0.98329997
vt 0.16550000 0.98430002
vt 0.15400000 0.98329997
vt 0.16940001 0.98329997
vt 0.15400000 0.99570000
vt 0.16940001 0.99570000
vt 0.15400000 0.98329997
vt 0.09039998 0.79589999
vt 0.11510000 0.79100001
vt 0.11420000 0.78210002
vt 0.13120000 0.80030012
vt 0.16910000 0.93150002
vt 0.18370000 0.94520003
vt 0.18340001 0.93220001
vt 0.16940001 0.94450003
vt 0.18340001 0.94450003
vt 0.18960001 0.93220001
vt 0.18340001 0.93220001
vt 0.18960001 0.94450003
vt 0.15360001 0.94520003
vt 0.16550000 0.94520003
vt 0.16940001 0.94450003
vt -381.63778687 -281.87710571
vt -381.89639282 -282.38619995
vt -382.97430420 -282.38619995
vt 383.23291016 -283.04400635
vt 381.89630127 -283.55538940
vt 381.63760376 -283.04400635
vt 0.09039998 0.79589999
vt 0.09889996 0.81888270
vt 0.09889996 0.80030012
vt 0.09039998 0.82340002
vt 0.13121200 0.80034101
vt 0.09890001 0.81889987
vt 0.13130011 0.81919992
vt 0.11510010 0.79099989
vt 0.09894068 0.80027932
vt 0.09039998 0.79589999
vt 0.11420000 0.78210002
vt 0.09889996 0.80030012
vt 0.16940001 0.93220001
vt 0.15360001 0.94520003
vt 0.16940001 0.94450003
vt 0.15360001 0.93290001
vt 0.11420000 0.78210002
vt 0.13800000 0.79589999
vt 0.11510000 0.79100001
vt 0.09039998 0.82340002
vt 0.09889996 0.80031741
vt 0.09889996 0.81889999
vt 0.13800000 0.79589999
vt 0.13120000 0.80030012
vt 0.09883898 0.81893098
vt 0.13123220 0.80033082
vt 0.13130000 0.81919998
vt 0.13121200 0.80034101
vt 0.09890001 0.81889987
vt 0.13130011 0.81919992
vt 0.11510010 0.79099989
vt 0.09894068 0.80027932
vt 0.11420000 0.78210002
vt 0.11510000 0.79100001
vt 0.13120000 0.80030012
vt 0.09039998 0.79589999
vt 0.09889996 0.80030012
vt 0.09889996 0.81888270
vt 0.09039998 0.82340002
vt 0.09039998 0.79589999
vt 0.11420000 0.78210002
vt 0.13120000 0.80030012
vt 0.13800000 0.79589999
vt 0.16940001 0.98329997
vt 0.15400000 0.99570000
vt 0.16940001 0.99570000
vt 0.15400000 0.98329997
vt 0.16940001 0.98329997
vt 0.18350001 0.99570000
vt 0.18350001 0.98329997
vt 0.16940001 0.99570000
vt 0.18350001 0.99570000
vt 0.18960001 0.98329997
vt 0.18350001 0.98329997
vt 0.18960001 0.99570000
vt 383.23291016 -276.75421143
vt 381.89630127 -277.26550293
vt 381.63760376 -276.75421143
vt 0.16940010 0.98329997
vt 0.18350010 0.98329997
vt 0.16550010 0.98430002
vt 49.75154114 448.80371094
vt 51.34732819 448.80371094
vt 50.05445862 448.36560059
vt 0.16940001 0.98329997
vt 0.16550000 0.98430002
vt 0.15400000 0.98329997
vt 432.52059937 180.90710449
vt 433.81369019 181.39450073
vt 433.59890747 180.90710449
vt 0.18350001 0.98329997
vt 0.18960001 0.98329997
vt 0.19130000 0.98430002
vt 0.16550000 0.94520003
vt 0.15400000 0.98329997
vt 0.16550000 0.98430002
vt 0.15400000 0.94419998
vt 0.16570000 0.94620007
vt 0.18350001 0.98329997
vt 0.18370000 0.94520003
vt 0.16550000 0.98430002
vt 0.18370000 0.98430002
vt 0.19130000 0.94520003
vt 0.18370000 0.94520003
vt 0.19130000 0.98430002
vt -381.63769531 -277.71011353
vt -381.89639282 -278.21929932
vt -382.97430420 -278.21929932
vt 0.16940010 0.94449997
vt 0.16550010 0.94520003
vt 0.18370010 0.94520003
vt -49.79280090 461.11840820
vt -50.09976959 460.69100952
vt -51.17766190 460.69100952
vt 0.15360001 0.94520003
vt 0.16550000 0.94520003
vt 0.16940001 0.94450003
vt -432.26748657 187.39169312
vt -433.65240479 186.90960693
vt -433.86331177 187.39169312
vt 0.18370000 0.94520003
vt 0.19130000 0.94520003
vt 0.18960001 0.94450003
vt 0.16940001 0.93220001
vt 0.15360001 0.94520003
vt 0.16940001 0.94450003
vt 0.15360001 0.93290001
vt 0.16940001 0.93220001
vt 0.18340001 0.94450003
vt 0.18340001 0.93220001
vt 0.16940001 0.94450003
vt 0.18340001 0.94450003
vt 0.18960001 0.93220001
vt 0.18340001 0.93220001
vt 0.18960001 0.94450003
vt 0.09039998 0.82340002
vt 0.09889996 0.80031741
vt 0.09889996 0.81889999
vt 0.09039998 0.79589999
vt 0.11420000 0.78210002
vt 0.09889996 0.80030012
vt 0.11420000 0.78210002
vt 0.13800000 0.79589999
vt 0.11510000 0.79100001
vt 0.09883898 0.81893098
vt 0.13123220 0.80033082
vt 0.13130000 0.81919998
vt 0.13800000 0.79589999
vt 0.13120000 0.80030012
f 1/1 2/2 3/3
f 4/4 3/3 5/5
f 1/1 6/6 2/2
f 6/6 1/1 7/7
f 8/8 9/9 10/10
f 9/9 8/8 3/3
f 9/9 3/3 11/11
f 12/12 13/13 14/14
f 13/13 12/12 15/15
f 16/16 17/17 18/18
f 17/17 16/16 19/19
f 20/20 21/21 22/22
f 21/21 20/20 23/23
f 24/24 25/25 26/26
f 25/25 24/24 27/27
f 28/28 29/29 30/30
f 31/31 32/32 33/33
f 34/34 35/35 36/36
f 37/37 38/38 39/39
f 40/40 41/41 42/42
f 43/43 44/44 45/45
f 46/46 47/47 48/48
f 47/47 46/46 49/49
f 50/50 51/51 52/52
f 51/51 50/50 53/53
f 54/54 55/55 56/56
f 55/55 54/54 57/57
f 58/58 59/59 60/60
f 61/61 62/62 63/63
f 64/64 65/65 66/66
f 67/67 68/68 69/69
f 70/70 71/71 72/72
f 73/73 74/74 75/75
f 76/76 77/77 78/78
f 77/77 76/76 79/79
f 80/80 81/81 82/82
f 81/81 80/80 83/83
f 84/84 85/85 86/86
f 85/85 84/84 87/87
f 88/88 89/89 90/90
f 91/91 92/92 93/93
f 92/92 91/91 88/88
f 94/94 95/95 96/96
f 90/90 94/94 96/96
f 97/97 98/98 99/99
f 98/98 97/97 96/96
f 96/96 97/97 90/90
f 96/96 100/100 101/101
f 102/102 103/103 104/104
f 105/105 104/104 106/106
f 102/102 107/107 103/103
f 107/107 102/102 108/108
f 109/109 110/110 111/111
f 110/110 109/109 104/104
f 110/110 104/104 112/112
f 113/113 114/114 115/115
f 114/114 113/113 116/116
f 117/117 118/118 119/119
f 118/118 117/117 120/120
f 121/121 122/122 123/123
f 122/122 121/121 124/124
f 125/125 126/126 127/127
f 126/126 125/125 128/128
f 129/129 130/130 131/131
f 132/132 133/133 134/134
f 135/135 136/136 137/137
f 138/138 139/139 140/140
f 141/141 142/142 143/143
f 144/144 145/145 146/146
f 147/147 148/148 149/149
f 148/148 147/147 150/150
f 151/151 152/152 153/153
f 152/152 151/151 154/154
f 155/155 156/156 157/157
f 156/156 155/155 158/158
f 159/159 160/160 161/161
f 162/162 163/163 164/164
f 165/165 166/166 167/167
f 168/168 169/169 170/170
f 171/171 172/172 173/173
f 174/174 175/175 176/176
f 177/177 178/178 179/179
f 178/178 177/177 180/180
f 181/181 182/182 183/183
f 182/182 181/181 184/184
f 185/185 186/186 187/187
f 186/186 185/185 188/188
f 189/189 190/190 191/191
f 192/192 193/193 194/194
f 193/193 192/192 189/189
f 195/195 196/196 197/197
f 191/191 195/195 197/197
f 198/198 199/199 200/200
f 199/199 198/198 197/197
f 197/197 198/198 191/191
f 197/197 201/201 202/202
f 203/203 204/204 205/205
f 206/206 205/205 207/207
f 203/203 208/208 204/204
f 208/208 203/203 209/209
f 210/210 211/211 212/212
f 211/211 210/210 205/205
f 211/211 205/205 213/213
f 214/214 215/215 216/216
f 215/215 214/214 217/217
f 218/218 219/219 220/220
f 219/219 218/218 221/221
f 222/222 223/223 224/224
f 223/223 222/222 225/225
f 226/226 227/227 228/228
f 227/227 226/226 229/229
f 230/230 231/231 232/232
f 233/233 234/234 235/235
f 236/236 237/237 238/238
f 239/239 240/240 241/241
f 242/242 243/243 244/244
f 245/245 246/246 247/247
f 248/248 249/249 250/250
f 249/249 248/248 251/251
f 252/252 253/253 254/254
f 253/253 252/252 255/255
f 256/256 257/257 258/258
f 257/257 256/256 259/259
f 260/260 261/261 262/262
f 263/263 264/264 265/265
f 266/266 267/267 268/268
f 269/269 270/270 271/271
f 272/272 273/273 274/274
f 275/275 276/276 277/277
f 278/278 279/279 280/280
f 279/279 278/278 281/281
f 282/282 283/283 284/284
f 283/283 282/282 285/285
f 286/286 287/287 288/288
f 287/287 286/286 289/289
f 290/290 291/291 292/292
f 293/293 294/294 295/295
f 294/294 293/293 290/290
f 296/296 297/297 298/298
f 292/292 296/296 298/298
f 299/299 300/300 301/301
f 300/300 299/299 298/298
f 298/298 299/299 292/292
f 298/298 302/302 303/303
f 304/304 305/305 306/306
f 305/305 304/304 307/307
f 308/308 309/309 310/310
f 309/309 308/308 311/311
f 307/307 312/312 313/313
f 314/314 315/315 316/316
f 315/315 314/314 317/317
f 317/317 314/314 313/313
f 318/318 319/319 320/320
f 319/319 318/318 321/321
f 322/322 323/323 324/324
f 313/313 325/325 317/317
f 317/317 326/326 327/327
f 328/328 329/329 330/330
f 329/329 328/328 331/331
f 332/332 333/333 334/334
f 335/335 336/336 337/337
f 338/338 339/339 340/340
f 325/325 341/341 317/317
f 342/342 343/343 344/344
f 345/345 346/346 347/347
f 348/348 349/349 350/350
f 349/349 348/348 351/351
f 352/352 353/353 354/354
f 353/353 352/352 355/355
f 356/356 357/357 358/358
f 357/357 356/356 359/359
f 360/360 361/361 362/362
f 363/363 364/364 365/365
f 366/366 367/367 368/368
f 369/369 370/370 371/371
f 372/372 373/373 374/374
f 375/375 376/376 377/377
f 378/378 379/379 380/380
f 379/379 378/378 381/381
f 382/382 383/383 384/384
f 383/383 382/382 385/385
f 386/386 387/387 388/388
f 387/387 386/386 389/389
f 390/390 391/391 392/392
f 391/391 390/390 393/393
f 394/394 395/395 396/396
f 397/397 398/398 399/399
f 400/400 401/401 402/402
f 401/401 400/400 403/403
f 401/401 403/403 404/404
f 390/390 392/392 395/395
f 396/396 395/395 405/405
f 406/406 407/407 408/408
f 407/407 406/406 409/409
f 410/410 411/411 412/412
f 411/411 410/410 413/413
f 414/414 415/415 416/416
f 415/415 414/414 417/417
f 418/418 419/419 420/420
f 419/419 418/418 421/421
f 422/422 423/423 424/424
f 423/423 422/422 425/425
f 426/426 427/427 428/428
f 427/427 426/426 429/429
f 430/430 431/431 432/432
f 431/431 430/430 433/433
f 434/434 435/435 436/436
f 435/435 434/434 437/437
f 438/438 439/439 440/440
f 439/439 438/438 441/441
f 442/442 443/443 444/444
f 443/443 442/442 445/445
f 446/446 447/447 448/448
f 447/447 446/446 449/449
f 450/450 451/451 452/452
f 451/451 450/450 453/453
f 454/454 455/455 456/456
f 455/455 454/454 457/457
f 458/458 459/459 460/460
f 459/459 458/458 461/461
f 462/462 463/463 464/464
f 463/463 462/462 465/465
f 466/466 467/467 468/468
f 467/467 466/466 469/469
f 470/470 471/471 472/472
f 471/471 470/470 473/473
f 474/474 475/475 476/476
f 477/477 478/478 479/479
f 478/478 477/477 480/480
f 481/481 482/482 483/483
f 482/482 481/481 484/484
f 485/485 486/486 487/487
f 486/486 485/485 488/488
f 488/488 485/485 489/489
f 490/490 491/491 492/492
f 493/493 494/494 495/495
f 496/496 497/497 498/498
f 497/497 496/496 499/499
f 500/500 501/501 502/502
f 501/501 500/500 503/503
f 504/504 505/505 506/506
f 505/505 504/504 507/507
f 508/508 509/509 510/510
f 509/509 508/508 511/511
f 512/512 513/513 514/514
f 515/515 516/516 517/517
f 518/518 519/519 479/479
f 519/519 518/518 520/520
f 521/521 480/480 477/477
f 480/480 521/521 522/522
f 523/523 524/524 525/525
f 524/524 523/523 526/526
f 527/527 528/528 529/529
f 530/530 531/531 532/532
f 531/531 530/530 533/533
f 534/534 535/535 536/536
f 535/535 534/534 537/537
f 535/535 537/537 538/538
f 538/538 537/537 539/539
f 540/540 536/536 539/539
f 536/536 540/540 534/534
f 539/539 536/536 541/541
f 539/539 541/541 538/538
f 542/542 543/543 544/544
f 543/543 542/542 545/545
f 546/546 547/547 548/548
f 549/549 550/550 551/551
f 550/550 549/549 552/552
f 553/553 554/554 555/555
f 556/556 557/557 558/558
f 557/557 556/556 559/559
f 557/557 559/559 560/560
f 560/560 559/559 554/554
f 560/560 554/554 553/553
f 561/561 562/562 563/563
f 562/562 561/561 564/564
f 565/565 566/566 567/567
f 566/566 565/565 568/568
f 569/569 570/570 571/571
f 570/570 569/569 572/572
f 573/573 574/574 575/575
f 574/574 573/573 576/576
f 577/577 578/578 579/579
f 578/578 577/577 580/580
f 581/581 582/582 583/583
f 582/582 581/581 584/584
f 585/585 586/586 587/587
f 586/586 585/585 588/588
f 589/589 590/590 591/591
f 590/590 589/589 592/592
f 593/593 594/594 595/595
f 594/594 593/593 596/596
f 596/596 593/593 597/597
f 597/597 593/593 598/598
f 598/598 593/593 599/599
f 600/600 597/597 598/598
f 601/601 602/602 603/603
f 602/602 601/601 604/604
f 605/605 606/606 607/607
f 606/606 605/605 608/608
f 609/609 610/610 611/611
f 610/610 609/609 612/612
f 613/613 614/614 615/615
f 616/616 617/617 618/618
f 617/617 616/616 619/619
f 620/620 621/621 622/622
f 621/621 620/620 623/623
f 624/624 625/625 626/626
f 625/625 624/624 627/627
f 628/628 629/629 630/630
f 629/629 628/628 631/631
f 632/632 633/633 634/634
f 633/633 632/632 635/635
f 636/636 637/637 638/638
f 637/637 636/636 639/639
f 640/640 641/641 642/642
f 641/641 640/640 643/643
f 644/644 645/645 646/646
f 645/645 644/644 647/647
f 648/648 649/649 650/650
f 649/649 648/648 651/651
f 652/652 653/653 654/654
f 653/653 652/652 655/655
f 656/656 657/657 658/658
f 657/657 656/656 659/659
f 660/660 661/661 662/662
f 661/661 660/660 663/663
f 664/664 665/665 623/623
f 665/665 664/664 666/666
f 623/623 667/667 621/621
f 667/667 623/623 668/668
f 667/667 669/669 621/621
f 669/669 667/667 670/670
f 643/643 671/671 672/672
f 671/671 643/643 673/673
f 674/674 675/675 676/676
f 677/677 678/678 679/679
f 680/680 641/641 681/681
f 641/641 680/680 642/642
f 682/682 683/683 684/684
f 683/683 682/682 685/685
f 686/686 687/687 688/688
f 687/687 686/686 689/689
f 690/690 691/691 692/692
f 691/691 690/690 693/693
f 694/694 695/695 696/696
f 695/695 694/694 697/697
f 698/698 699/699 700/700
f 699/699 698/698 701/701
f 666/666 669/669 702/702
f 669/669 666/666 664/664
f 703/703 704/704 705/705
f 704/704 703/703 706/706
f 707/707 708/708 709/709
f 708/708 707/707 710/710
f 711/711 712/712 713/713
f 712/712 711/711 714/714
f 715/715 716/716 717/717
f 716/716 715/715 718/718
f 719/719 720/720 721/721
f 720/720 719/719 722/722
f 723/723 724/724 725/725
f 724/724 723/723 726/726
f 727/727 728/728 729/729
f 728/728 727/727 730/730
f 731/731 732/732 733/733
f 732/732 731/731 734/734
f 735/735 736/736 737/737
f 736/736 735/735 738/738
f 739/739 740/740 741/741
f 740/740 739/739 742/742
f 743/743 744/744 745/745
f 744/744 743/743 746/746
f 747/747 748/748 749/749
f 748/748 747/747 750/750
f 751/751 752/752 753/753
f 752/752 751/751 754/754
f 755/755 756/756 757/757
f 756/756 755/755 758/758
f 759/759 760/760 761/761
f 760/760 759/759 762/762
f 763/763 764/764 765/765
f 764/764 763/763 766/766
f 767/767 768/768 769/769
f 768/768 767/767 770/770
f 771/771 772/772 773/773
f 772/772 771/771 774/774
f 775/775 776/776 777/777
f 776/776 775/775 778/778
f 779/779 780/780 781/781
f 780/780 779/779 782/782
f 783/783 784/784 785/785
f 784/784 783/783 786/786
f 787/787 788/788 789/789
f 788/788 787/787 790/790
f 791/791 792/792 793/793
f 792/792 791/791 794/794
f 795/795 796/796 797/797
f 796/796 795/795 798/798
f 799/799 800/800 801/801
f 800/800 799/799 802/802
f 803/803 804/804 805/805
f 804/804 803/803 806/806
f 807/807 808/808 809/809
f 808/808 807/807 810/810
f 811/811 812/812 813/813
f 812/812 811/811 814/814
f 815/815 816/816 817/817
f 816/816 815/815 818/818
f 819/819 820/820 821/821
f 820/820 819/819 822/822
f 823/823 824/824 825/825
f 824/824 823/823 826/826
f 827/827 828/828 829/829
f 828/828 827/827 830/830
f 831/831 832/832 833/833
f 832/832 831/831 834/834
f 835/835 836/836 837/837
f 836/836 835/835 838/838
f 839/839 840/840 841/841
f 840/840 839/839 842/842
f 843/843 844/844 845/845
f 844/844 843/843 846/846
f 847/847 848/848 849/849
f 850/850 851/851 852/852
f 853/853 854/854 855/855
f 854/854 853/853 856/856
f 857/857 858/858 859/859
f 860/860 861/861 862/862
f 861/861 860/860 863/863
f 864/864 865/865 866/866
f 867/867 868/868 869/869
f 868/868 867/867 870/870
f 871/871 872/872 873/873
f 874/874 875/875 876/876
f 875/875 874/874 877/877
f 878/878 879/879 880/880
f 881/881 882/882 883/883
f 884/884 885/885 886/886
f 887/887 888/888 889/889
f 890/890 891/891 892/892
f 891/891 890/890 893/893
f 894/894 895/895 896/896
f 897/897 898/898 899/899
f 898/898 897/897 900/900
f 901/901 902/902 903/903
f 903/903 902/902 904/904
f 905/905 906/906 907/907
f 906/906 905/905 908/908
f 909/909 910/910 911/911
f 910/910 909/909 912/912
f 913/913 914/914 915/915
f 916/916 917/917 918/918
f 919/919 920/920 921/921
f 922/922 923/923 924/924
f 923/923 922/922 925/925
f 922/922 924/924 902/902
f 926/926 927/927 928/928
f 927/927 926/926 929/929
f 927/927 929/929 930/930
f 931/931 932/932 933/933
f 934/934 935/935 936/936
f 935/935 934/934 937/937
f 938/938 939/939 940/940
f 941/941 942/942 943/943
f 942/942 941/941 931/931
f 933/933 938/938 940/940
f 940/940 944/944 945/945
f 946/946 947/947 948/948
f 947/947 946/946 940/940
f 940/940 946/946 933/933
f 949/949 950/950 951/951
f 950/950 949/949 952/952
f 950/950 952/952 953/953
f 954/954 955/955 956/956
f 957/957 958/958 955/955
f 957/957 959/959 958/958
f 959/959 957/957 960/960
f 961/961 955/955 954/954
f 962/962 963/963 964/964
f 965/965 966/966 967/967
f 966/966 965/965 968/968
f 969/969 970/970 971/971
f 970/970 969/969 972/972
f 973/973 974/974 975/975
f 974/974 973/973 976/976
f 977/977 978/978 979/979
f 980/980 981/981 982/982
f 983/983 984/984 985/985
f 986/986 987/987 988/988
f 989/989 990/990 991/991
f 992/992 993/993 994/994
f 995/995 996/996 997/997
f 996/996 995/995 998/998
f 999/999 1000/1000 1001/1001
f 1000/1000 999/999 1002/1002
f 1003/1003 1004/1004 1005/1005
f 1004/1004 1003/1003 1006/1006
f 1007/1007 1008/1008 1009/1009
f 1010/1010 1011/1011 1012/1012
f 1013/1013 1014/1014 1015/1015
f 1016/1016 1017/1017 1018/1018
f 1019/1019 1020/1020 1021/1021
f 1022/1022 1023/1023 1024/1024
f 1025/1025 1026/1026 1027/1027
f 1026/1026 1025/1025 1028/1028
f 1029/1029 1030/1030 1031/1031
f 1030/1030 1029/1029 1032/1032
f 1033/1033 1034/1034 1035/1035
f 1034/1034 1033/1033 1036/1036
f 1037/1037 1038/1038 1039/1039
f 1038/1038 1037/1037 1040/1040
f 1040/1040 1041/1041 1042/1042
f 1043/1043 1044/1044 1045/1045
f 1046/1046 1047/1047 1048/1048
f 1047/1047 1046/1046 1045/1045
f 1045/1045 1046/1046 1042/1042
f 1042/1042 1043/1043 1045/1045
f 1045/1045 1049/1049 1050/1050

