# https://github.com/mikedh/trimesh
v -0.32624185 -7.46123696 -0.34206656
v 0.96874094 -7.46128662 -1.62705048
v -0.32609686 -7.46110416 -1.62718157
v 0.96857231 -7.46129740 -0.34214028
v 1.95223098 3.51099664 -0.55311167
v 2.03273460 3.46076036 -0.55299728
v 1.95256774 2.35670376 -0.55297417
v 2.29399872 3.51094170 -0.55291510
v 2.29394174 3.46083890 -0.55304985
v 2.03271128 2.41675108 -0.55293126
v 2.29370633 2.35654973 -0.55297795
v 2.29389712 2.41683382 -0.55291462
v 1.95243663 3.51100761 -0.34205088
v 1.95270087 2.35642053 -0.55277206
v 1.95268271 2.35667161 -0.34211481
v 1.95247846 3.51120298 -0.55271713
v 2.03304641 2.41696923 -0.55291438
v 2.03267602 3.46082678 -0.34206657
v 2.03266617 2.41685603 -0.34209445
v 2.03291036 3.46068162 -0.55303978
v 1.97253663 -1.43818350 -0.34193438
v 1.88218263 -1.43799907 -0.73368781
v 1.97278519 -1.43787707 -0.73357805
v 1.82174301 -1.43803315 -0.34206429
v -1.25974218 -4.55011571 -0.34192421
v -2.26388563 -4.55012108 -0.50265134
v -1.25985969 -4.54979327 -0.50274320
v -2.26380106 -4.55008613 -0.34228269
v -2.26388037 -5.23255975 -1.62702407
v -2.26356384 -5.23273019 -0.66317714
v -2.26375851 -5.43323094 -1.62714888
v -2.26381365 -5.43339395 -0.34201844
v -2.26370333 -4.55011173 -0.34231346
v -2.26389561 -4.74068582 -0.66326320
v -2.26374336 -4.74087989 -1.62698808
v -2.26388070 -4.55012620 -1.62701909
v -2.26400004 -4.54999213 -0.50283797
v -1.25985228 -4.46973405 -0.50274153
v -2.26363772 -4.55013299 -0.50259154
v -2.26363379 -4.46962091 -0.50262306
v -1.25976881 -4.54993580 -0.50275710
v -1.26004130 -5.23265395 -1.62719028
v -1.26004080 -5.43339288 -1.62716559
v -1.25999245 -5.23276568 -0.66335196
v -1.25982159 -5.43326195 -0.34214708
v -1.25973752 -4.54986712 -0.34200688
v -1.26015679 -4.74059648 -0.66334320
v -1.25981358 -4.74070200 -1.62704841
v -1.25982642 -4.55008262 -1.62732952
v -1.25987913 -4.55013858 -0.50263348
v -2.26375868 -5.43341441 -0.34224992
v -1.25992856 -5.43342610 -1.62727841
v -2.26368614 -5.43343774 -1.62724153
v -1.26016084 -5.43336155 -0.34218199
v -2.34410575 -5.23266639 -0.66316146
v -2.26372927 -5.23262667 -1.62727858
v -2.34383781 -5.23252443 -1.62696429
v -2.26371728 -5.23252453 -0.66333934
v -2.26364769 -4.74076641 -0.66356636
v -2.34391392 -5.23287544 -0.66341452
v -2.34406569 -4.74087601 -0.66330954
v -2.26374780 -5.23269109 -0.66332102
v -2.26378179 -4.74057676 -0.66334174
v -2.34409890 -4.74098693 -1.62725644
v -2.26358940 -4.74075391 -1.62713035
v -2.34383832 -4.74090552 -0.66345706
v -2.26378130 -4.54996630 -1.62717716
v -2.26379863 -4.46992225 -0.50267665
v -2.26362394 -4.55009829 -0.50274630
v -2.26388221 -4.46978157 -1.62692591
v -1.25984902 -4.46944043 -0.50286327
v -1.25979432 -4.55006251 -1.62702588
v -1.25986661 -4.55010873 -0.50287316
v -1.25948843 -4.46973303 -1.62734363
v -1.25994554 -5.23255389 -0.66344652
v -1.17938093 -5.23251398 -1.62711433
v -1.25992383 -5.23276098 -1.62718172
v -1.17972962 -5.23248912 -0.66318925
v -1.17970291 -4.74089309 -0.66360262
v -1.25998433 -4.74112993 -1.62723607
v -1.17938875 -4.74079022 -1.62699035
v -1.25992589 -4.74053102 -0.66336048
v -1.17959535 -4.74043359 -0.66342492
v -1.26001600 -5.23261248 -0.66338977
v -1.25973451 -4.74086109 -0.66328597
v -1.17944340 -5.23271949 -0.66336490
v -2.34414276 -5.51345096 -0.34223202
v -2.34409628 -5.23276849 -0.66342758
v -2.34404125 -5.51364514 -1.62717079
v -2.34406339 -4.55021398 -0.34225023
v -2.34370141 -4.74061955 -0.66348115
v -2.34420510 -4.74086773 -1.62709818
v -2.34403625 -4.55013005 -1.62725383
v -2.34386550 -5.23258175 -1.62714168
v -1.17957549 -5.23270249 -1.62745688
v -1.17953411 -5.23276907 -0.66350838
v -1.17962713 -5.51364951 -1.62723970
v -1.17972484 -5.51366089 -0.34205254
v -1.17966634 -4.54997047 -0.34218431
v -1.17951126 -4.74090285 -0.66328250
v -1.17940027 -4.74066929 -1.62702680
v -1.18001254 -4.55000638 -1.62709864
v -2.34405862 -4.55011727 -0.34214161
v -3.12697810 -4.55007091 -1.62715252
v -2.34388920 -4.55017447 -1.62696874
v -3.12700705 -4.55013865 -0.34218410
v -2.26383635 -5.51365655 -0.34210256
v -2.34410904 -5.51387526 -1.62705853
v -2.26360533 -5.51375363 -1.62704418
v -2.34408680 -5.51373131 -0.34218121
v -1.17951216 -5.51392541 -0.34206610
v -1.25989402 -5.51369550 -1.62713754
v -1.17950892 -5.51387161 -1.62694933
v -1.26007535 -5.51386751 -0.34211637
v -3.12684880 -7.46118648 -1.62712548
v -3.12720417 -4.55006321 -0.34215086
v -3.12682077 -7.46114415 -0.34233353
v -3.12677940 -4.55008706 -1.62720373
v -1.81180826 -5.51374575 -0.34219058
v -2.26369622 -5.51363566 -1.62697343
v -1.81215897 -5.51349370 -1.62697914
v -2.26376981 -5.51384036 -0.34226461
v -1.25985054 -5.51381937 -0.34223949
v -1.73157742 -5.51369476 -1.62714422
v -1.25977537 -5.51357136 -1.62723035
v -1.73175148 -5.51362363 -0.34205690
v -3.12700091 -7.46107766 -0.34227928
v -3.02685926 -7.46132733 -1.62707989
v -3.12712677 -7.46128066 -1.62721495
v -3.02675359 -7.46134435 -1.09500153
v -3.02657943 -7.46127982 -0.34217087
v -1.81206125 -5.51367425 -0.34213441
v -1.81179358 -6.24670951 -1.62705117
v -1.81193511 -6.24661906 -0.34207356
v -1.81216676 -5.51347889 -1.62726081
v -1.73156406 -6.24671267 -1.62695415
v -1.73172459 -5.51372013 -0.34213880
v -1.73154179 -6.24661428 -0.34251050
v -1.73177078 -5.51371702 -1.62714986
v -3.02658252 -7.46109576 -0.34216355
v -2.49480977 -7.46105037 -1.09491347
v -3.02671406 -7.46096127 -1.09508968
v -2.49476639 -7.46123988 -0.34201273
v -2.27387757 -6.24633460 -0.34225569
v -1.81187230 -6.24650771 -1.62711473
v -2.27362924 -6.24675927 -1.62692872
v -1.81199758 -6.24664146 -0.34205318
v -1.73154682 -6.24647998 -0.34189932
v -1.26977180 -6.24641676 -1.62716221
v -1.73166414 -6.24650543 -1.62709796
v -1.26986767 -6.24652227 -0.34204148
v -2.49463897 -7.46126375 -1.09514868
v -1.81209948 -7.46107643 -1.62710538
v -2.49452963 -7.46138035 -1.62733348
v -1.81211884 -7.46107960 -0.34201393
v -2.49458561 -7.46131941 -0.34216146
v -2.27379885 -6.24661716 -0.34245375
v -2.27386778 -6.32687276 -1.62690917
v -2.27374243 -6.32667820 -0.34219381
v -2.27379330 -6.24705455 -1.62703876
v -1.26983746 -6.32663232 -1.62715567
v -1.26989320 -6.24666153 -0.34229011
v -1.26999254 -6.32689304 -0.34197857
v -1.26990451 -6.24667199 -1.62707832
v -1.81196297 -6.32693380 -0.34200469
v -1.81222212 -7.46124698 -1.62701313
v -1.81215445 -7.46117625 -0.34198627
v -1.81193392 -6.32705735 -1.62718538
v -1.81183810 -6.32681387 -0.34214658
v -2.27370791 -6.32676064 -1.62718296
v -1.81202548 -6.32683178 -1.62716271
v -2.27377863 -6.32669088 -0.34226446
v -1.26966770 -6.32661932 -0.34235622
v -1.73169460 -6.32680720 -1.62718941
v -1.26999598 -6.32687858 -1.62700482
v -1.73174017 -6.32662580 -0.34210968
v -1.73168987 -7.46104236 -1.62701791
v -1.73163180 -6.32689133 -0.34192215
v -1.73157735 -7.46124573 -0.34233945
v -1.73163135 -6.32699011 -1.62730693
v -1.73171160 -7.46118607 -0.34198755
v -0.40653507 -7.46112152 -1.62724583
v -1.73168002 -7.46120542 -1.62698887
v -0.40655554 -7.46112176 -0.34220741
v -0.40652578 -4.54998862 -0.34230221
v -0.40654822 -7.46126013 -1.62732928
v -0.40645189 -7.46126523 -0.34225026
v -0.40661626 -4.55002145 -1.62690995
v -1.04906095 -0.83565842 -0.66321520
v -1.12928737 -1.32748203 -0.66344302
v -1.12925815 -0.83572369 -0.66325202
v -1.04916402 -1.32770945 -0.66322826
v -1.04906466 -0.83576072 -0.66337468
v -1.12943787 -0.83555265 -1.62724861
v -1.04905906 -0.83567386 -1.62710775
v -1.12945175 -0.83582341 -0.66333188
v -1.12947983 -1.32753400 -0.66357194
v -1.04910882 -1.32760906 -1.62724906
v -1.12927279 -1.32761581 -1.62722247
v -1.04922744 -1.32780618 -0.66337810
v 2.29368821 -1.93010051 -0.34217687
v -1.04876027 -1.92989840 -0.73356226
v 2.29385674 -1.92983621 -0.73382141
v -1.04909350 -1.92990040 -0.34215062
v 1.60114092 -1.60877853 -0.73368778
v -1.04913580 -1.93023058 -0.73380313
v -1.04898200 -1.60850499 -0.73343282
v 2.29384247 -1.92982262 -0.73354441
v 1.97250515 -1.60890554 -0.73365219
v 2.29361372 -1.60873596 -0.73358115
v 2.29365582 -1.92992858 -0.73350355
v 2.29387505 -1.60863232 -0.34203684
v 2.29404382 -1.92991392 -0.34199712
v 2.29382267 -1.60876380 -0.73361725
v 1.60109000 -1.60876712 -0.34222320
v 1.97230787 -1.60868361 -0.73381151
v 1.60115135 -1.60851817 -0.73372010
v 1.97252363 -1.60852876 -0.34208119
v 2.29395073 -0.18324830 -0.73356378
v 1.97250590 -1.43812274 -0.73358262
v 1.97251670 -0.18311018 -0.73336152
v 1.97238284 -1.60878916 -0.73351815
v 2.29381271 -1.60855372 -0.73378028
v 2.29387134 -1.60871512 -0.73363871
v 2.29387131 -0.18335470 -0.34228060
v 2.29400275 -1.60866051 -0.34213533
v 2.29382514 -0.18316070 -0.73379808
v 1.97246740 -1.43787902 -0.34212980
v 1.97269497 -1.60877112 -0.73348657
v 1.97263282 -1.60863737 -0.34208089
v 1.97249226 -1.43826914 -0.73378825
v 1.97279098 -0.18304452 -0.34219111
v 1.97255321 -0.18307701 -0.73367656
v 2.29367069 -0.18304884 -0.73359711
v 2.29352092 -0.02262498 -0.34213074
v 2.29388979 -0.18318585 -0.34222665
v 2.29381632 -0.18316830 -1.62712776
v 2.29378480 -0.02243237 -0.46272480
v 2.29378756 0.21809297 -1.62702814
v 2.29393249 0.21841024 -0.46249539
v 2.29388480 -0.18316243 -0.73359751
v 1.93240607 -0.18305834 -1.62713768
v 2.29365062 -0.18310000 -1.62686704
v 1.93232081 -0.18321708 -1.28586459
v 1.93239213 -0.18319890 -0.34230123
v 2.29379640 -0.18338497 -0.34221834
v 2.29368461 -0.02271676 -0.46281996
v 1.93258901 0.29871247 -0.46284427
v 1.93236552 -0.02266894 -0.46269334
v 2.29365252 0.29874266 -0.46265703
v 1.93249657 -0.02252162 -0.34197916
v 2.29360724 -0.02237250 -0.46245218
v 1.93250948 -0.02229313 -0.46258309
v 2.29393165 -0.02267731 -0.34200883
v 1.93245962 -0.02264196 -0.34188792
v 1.93240146 -0.18320348 -1.28580452
v 1.93234598 -0.18313920 -0.34205755
v 1.93248257 -0.02287692 -0.46248428
v 1.93239587 -0.18335425 -1.62702055
v 1.93250823 -0.18333293 -1.28547599
v 1.93229011 0.29843680 -1.62723673
v 1.93261380 0.29862819 -0.46265410
vt 2.69536090 -1.06250000
vt 1.68750000 -0.06250000
vt 2.69536090 -0.06250000
vt 1.68750000 -1.06250000
vt -0.90630001 -2.58196497
vt -0.87500000 -2.56250000
vt -0.90630001 -2.13280010
vt -0.77327120 -2.58224201
vt -0.77327120 -2.56271195
vt -0.87500000 -2.15630007
vt -0.77327120 -2.13307691
vt -0.77327120 -2.15651202
vt 5.16410017 -1.06250000
vt 4.26560020 -0.89839995
vt 4.26560020 -1.06250000
vt 5.16410017 -0.89839995
vt 2.15630007 -0.44920003
vt 2.56250000 -0.53129995
vt 2.15630007 -0.53129995
vt 2.56250000 -0.44920003
vt -2.12500000 -1.03909993
vt -2.19530010 -0.73440003
vt -2.12498093 -0.73440003
vt -2.24219990 -1.03909993
vt -3.33590007 -1.06250000
vt -4.11719990 -0.93750000
vt -3.33590007 -0.93750000
vt -4.11719990 -1.06250000
vt 1.71089995 -0.06246305
vt 1.71089995 -0.81250000
vt 1.86720002 -0.06244802
vt 1.86720002 -1.06250000
vt 1.17954099 -1.06256294
vt 1.32799602 -0.81253695
vt 1.32799602 -0.06249905
vt 1.17954099 -0.06251395
vt 1.17954099 -0.93755698
vt 1.74609995 3.83590007
vt 1.80859995 4.61719990
vt 1.74609995 4.61719990
vt 1.80859995 3.83590007
vt 1.71086395 -0.06249905
vt 1.86710703 -0.06249905
vt 1.71086395 -0.81249905
vt 1.86710703 -1.06250191
vt 1.17970002 -1.06250000
vt 1.32809997 -0.81250000
vt 1.32809997 -0.06250000
vt 1.17970002 -0.06250000
vt 1.17970002 -0.93750000
vt -5.07030010 -1.06239891
vt -4.28902197 -0.06255496
vt -5.07030010 -0.06255496
vt -4.28902197 -1.06239891
vt 5.13280010 -0.81250000
vt 5.07030010 -0.06250000
vt 5.13280010 -0.06250000
vt 5.07030010 -0.81250000
vt 5.07030010 -1.32809997
vt 5.13280010 -1.71090007
vt 5.13280010 -1.32809997
vt 5.07030010 -1.71090007
vt 5.07030010 -0.81250000
vt 5.13280010 -0.06250000
vt 5.07030010 -0.06250000
vt 5.13280010 -0.81250000
vt 1.80860102 -0.06250095
vt 1.74610102 -0.93755102
vt 1.80860102 -0.93750095
vt 1.74610102 -0.06255102
vt 1.74609995 -0.93750000
vt 1.80859995 -0.06250000
vt 1.80859995 -0.93750000
vt 1.74609995 -0.06250000
vt 4.28910017 -0.81250000
vt 4.22660017 -0.06250000
vt 4.28910017 -0.06250000
vt 4.22660017 -0.81250000
vt 4.22660017 -0.81250000
vt 4.28910017 -0.06250000
vt 4.22660017 -0.06250000
vt 4.28910017 -0.81250000
vt 4.22660017 -1.32809997
vt 4.28910017 -1.71090007
vt 4.28910017 -1.32809997
vt 4.22660017 -1.71090007
vt 1.92961097 -1.06250000
vt 1.71092200 -0.81249797
vt 1.92970002 -0.06250000
vt 1.17980599 -1.06249690
vt 1.32820797 -0.81249797
vt 1.32827497 -0.06250000
vt 1.17989504 -0.06250000
vt 1.71098900 -0.06250000
vt 1.71089995 -0.06250000
vt 1.71089995 -0.81249797
vt 1.92970002 -0.06250000
vt 1.92970002 -1.06250000
vt 1.17958999 -1.06249690
vt 1.32803094 -0.81249797
vt 1.32803094 -0.06250000
vt 1.17958999 -0.06250000
vt -5.13280010 -1.06250000
vt -5.74219990 -0.06250000
vt -5.13280010 -0.06250000
vt -5.74219990 -1.06250000
vt 5.07030010 -1.06250000
vt 5.13280010 -0.06250000
vt 5.07030010 -0.06250000
vt 5.13280010 -1.06250000
vt 5.00780010 -1.06250000
vt 5.07030010 -0.06250000
vt 5.00780010 -0.06250000
vt 5.07030010 -1.06250000
vt 3.44530201 -0.06249404
vt 1.17970002 -1.06250000
vt 3.44526196 -1.06249595
vt 1.17973995 -0.06250000
vt -4.71880007 -1.06255102
vt -5.07030010 -0.06250000
vt -4.71880007 -0.06255102
vt -5.07030010 -1.06250000
vt -4.28910017 -1.06250000
vt -4.65626192 -0.06250000
vt -4.28906202 -0.06250000
vt -4.65630007 -1.06250000
vt 5.65630007 -1.06250000
vt 5.57810020 -0.06250000
vt 5.65630007 -0.06250000
vt 5.57810020 -0.47656095
vt 5.57810020 -1.06250000
vt 1.92968404 -1.06246400
vt 2.50000596 -0.06255400
vt 2.49998498 -1.06253910
vt 1.92970598 -0.06247902
vt 2.50000596 -0.06247997
vt 1.92968500 -1.06253600
vt 2.49998403 -1.06245995
vt 1.92970598 -0.06255603
vt 5.62500000 -1.06250000
vt 5.21089983 -0.47660005
vt 5.62500000 -0.47660005
vt 5.21089983 -1.06250000
vt -5.07030010 -1.06250000
vt -4.71095991 -0.06250000
vt -5.07036018 -0.06250000
vt -4.71089983 -1.06250000
vt -4.64839983 -1.06255007
vt -4.28910017 -0.06250000
vt -4.64839983 -0.06254995
vt -4.28910017 -1.06250000
vt 4.38280010 -0.47660005
vt 3.85159993 -0.06250000
vt 4.38280010 -0.06253898
vt 3.85159993 -1.06250000
vt 4.38280010 -1.06253910
vt 2.50000000 -1.06250000
vt 2.56250000 -0.06250000
vt 2.56250000 -1.06250000
vt 2.50000000 -0.06250000
vt 2.56250000 -0.06250000
vt 2.50000000 -1.06250000
vt 2.56250000 -1.06250000
vt 2.50000000 -0.06250000
vt 2.56250000 -1.06250000
vt 3.44530010 -0.06250000
vt 3.44530010 -1.06249905
vt 2.56250000 -0.06250000
vt -4.71089983 -1.06250000
vt -5.07030010 -0.06250000
vt -4.71089983 -0.06250000
vt -5.07030010 -1.06250000
vt -4.28910017 -1.06250000
vt -4.64839983 -0.06250000
vt -4.28910017 -0.06250000
vt -4.64839983 -1.06250000
vt 3.44530010 -0.06250095
vt 2.56250000 -1.06250000
vt 3.44530010 -1.06250000
vt 2.56250000 -0.06250000
vt 3.78909993 -1.06250000
vt 2.75780010 -0.06250000
vt 3.78909993 -0.06250000
vt 2.75780010 -1.06250000
vt 1.17966795 -1.06249690
vt 3.44531202 -0.06250095
vt 3.44530010 -1.06250000
vt 1.17968094 -0.06250000
vt 1.18750000 0.10549998
vt 1.21879995 -0.08589995
vt 1.21879995 0.10549998
vt 1.18750000 -0.08589995
vt 1.82809997 -0.40629995
vt 1.85940003 -0.03129995
vt 1.82809997 -0.03129995
vt 1.85940003 -0.40629995
vt 1.21879900 -0.40627396
vt 1.18749905 -0.03129900
vt 1.21879900 -0.03127396
vt 1.18749905 -0.40629900
vt -1.14450002 -1.06250000
vt -3.74609995 -0.75779998
vt -1.14450002 -0.75779998
vt -3.74609995 -1.06250000
vt -1.68353295 -0.37109995
vt -3.74609995 -0.12109995
vt -3.74605989 -0.37109995
vt -1.14450002 -0.12109995
vt -1.39446700 -0.37109995
vt -1.14445996 -0.37109995
vt 0.62110001 -0.75779998
vt 0.87110001 -1.06250000
vt 0.62110001 -1.06250000
vt 0.87110001 -0.75779998
vt -1.68359995 -1.06250000
vt -1.39450002 -0.75779998
vt -1.68359995 -0.75779998
vt -1.39450002 -1.06250000
vt -2.31640005 0.99220002
vt -1.33980596 1.24220002
vt -2.31639099 1.24220002
vt -1.20699096 1.24220002
vt -1.20700002 0.99220002
vt -1.20700002 -0.75779998
vt -2.31638694 -1.06250000
vt -1.20698702 -1.06250000
vt -2.31640005 -0.75779998
vt -1.33977497 -1.06250000
vt -1.20686102 -0.75779998
vt -1.20694304 -1.06250000
vt -1.33969295 -0.75779998
vt -2.31648207 -1.06250000
vt -2.31640005 -0.75779998
vt -2.21880007 -0.75779998
vt -2.34379911 -1.06250501
vt -2.21880007 -1.06248307
vt -2.21880007 -0.06250000
vt -2.34379911 -0.96875894
vt -2.53130007 -0.06255496
vt -2.53130007 -0.96879101
vt 0.65630001 -0.75779998
vt 0.93750000 -0.06255102
vt 0.65630001 -0.06248999
vt 0.93750000 -0.32817495
vt 0.93750000 -1.06254697
vt 0.65630001 -1.06248689
vt 0.65630001 2.34385109
vt 0.93750000 2.59372997
vt 0.93750000 2.34380007
vt 0.65630001 2.59378099
vt 0.93750000 -1.06250000
vt 0.65630001 -0.96879995
vt 0.93750000 -0.96879995
vt 0.65630001 -1.06250000
vt -2.34380007 -1.06254697
vt -2.21880007 -0.32817495
vt -2.21880007 -1.06254697
vt -2.34380007 -0.96879995
vt -2.21880007 -0.06245100
vt -2.21880007 -0.32809997
vt -2.59380007 -0.06250000
vt -2.59380007 -0.96883297
f 1/1 2/2 3/3
f 2/2 1/1 4/4
f 5/5 6/6 7/7
f 6/6 5/5 8/8
f 6/6 8/8 9/9
f 7/7 10/10 11/11
f 10/10 7/7 6/6
f 11/11 10/10 12/12
f 13/13 14/14 15/15
f 14/14 13/13 16/16
f 17/17 18/18 19/19
f 18/18 17/17 20/20
f 21/21 22/22 23/23
f 22/22 21/21 24/24
f 25/25 26/26 27/27
f 26/26 25/25 28/28
f 29/29 30/30 31/31
f 32/32 30/30 33/33
f 30/30 32/32 31/31
f 33/33 30/30 34/34
f 33/33 34/34 35/35
f 33/33 35/35 36/36
f 33/33 36/36 37/37
f 38/38 39/39 40/40
f 39/39 38/38 41/41
f 42/42 43/43 44/44
f 45/45 44/44 43/43
f 44/44 45/45 46/46
f 44/44 46/46 47/47
f 47/47 46/46 48/48
f 48/48 46/46 49/49
f 49/49 46/46 50/50
f 51/51 52/52 53/53
f 52/52 51/51 54/54
f 55/55 56/56 57/57
f 56/56 55/55 58/58
f 59/59 60/60 61/61
f 60/60 59/59 62/62
f 63/63 64/64 65/65
f 64/64 63/63 66/66
f 67/67 68/68 69/69
f 68/68 67/67 70/70
f 71/71 72/72 73/73
f 72/72 71/71 74/74
f 75/75 76/76 77/77
f 76/76 75/75 78/78
f 79/79 80/80 81/81
f 80/80 79/79 82/82
f 83/83 84/84 85/85
f 84/84 83/83 86/86
f 87/87 88/88 89/89
f 88/88 87/87 90/90
f 88/88 90/90 91/91
f 91/91 90/90 92/92
f 92/92 90/90 93/93
f 94/94 89/89 88/88
f 95/95 96/96 97/97
f 98/98 96/96 99/99
f 96/96 98/98 97/97
f 99/99 96/96 100/100
f 99/99 100/100 101/101
f 99/99 101/101 102/102
f 103/103 104/104 105/105
f 104/104 103/103 106/106
f 107/107 108/108 109/109
f 108/108 107/107 110/110
f 111/111 112/112 113/113
f 112/112 111/111 114/114
f 115/115 116/116 117/117
f 116/116 115/115 118/118
f 119/119 120/120 121/121
f 120/120 119/119 122/122
f 123/123 124/124 125/125
f 124/124 123/123 126/126
f 127/127 128/128 129/129
f 128/128 127/127 130/130
f 130/130 127/127 131/131
f 132/132 133/133 134/134
f 133/133 132/132 135/135
f 136/136 137/137 138/138
f 137/137 136/136 139/139
f 140/140 141/141 142/142
f 141/141 140/140 143/143
f 144/144 145/145 146/146
f 145/145 144/144 147/147
f 148/148 149/149 150/150
f 149/149 148/148 151/151
f 152/152 153/153 154/154
f 153/153 152/152 155/155
f 155/155 152/152 156/156
f 157/157 158/158 159/159
f 158/158 157/157 160/160
f 161/161 162/162 163/163
f 162/162 161/161 164/164
f 165/165 166/166 167/167
f 166/166 165/165 168/168
f 169/169 170/170 171/171
f 170/170 169/169 172/172
f 173/173 174/174 175/175
f 174/174 173/173 176/176
f 177/177 178/178 179/179
f 178/178 177/177 180/180
f 181/181 182/182 183/183
f 182/182 181/181 184/184
f 185/185 186/186 187/187
f 186/186 185/185 188/188
f 189/189 190/190 191/191
f 190/190 189/189 192/192
f 193/193 194/194 195/195
f 194/194 193/193 196/196
f 197/197 198/198 199/199
f 198/198 197/197 200/200
f 201/201 202/202 203/203
f 202/202 201/201 204/204
f 205/205 206/206 207/207
f 206/206 205/205 208/208
f 208/208 205/205 209/209
f 208/208 209/209 210/210
f 211/211 212/212 213/213
f 212/212 211/211 214/214
f 215/215 216/216 217/217
f 216/216 215/215 218/218
f 219/219 220/220 221/221
f 220/220 219/219 222/222
f 222/222 219/219 223/223
f 224/224 225/225 226/226
f 225/225 224/224 227/227
f 228/228 229/229 230/230
f 229/229 228/228 231/231
f 231/231 228/228 232/232
f 231/231 232/232 233/233
f 234/234 235/235 236/236
f 235/235 234/234 237/237
f 235/235 237/237 238/238
f 238/238 237/237 239/239
f 238/238 239/239 240/240
f 241/241 242/242 243/243
f 242/242 241/241 244/244
f 244/244 241/241 245/245
f 245/245 241/241 246/246
f 247/247 248/248 249/249
f 248/248 247/247 250/250
f 251/251 252/252 253/253
f 252/252 251/251 254/254
f 255/255 256/256 257/257
f 256/256 255/255 258/258
f 258/258 259/259 260/260
f 259/259 258/258 261/261
f 261/261 258/258 262/262

