# https://github.com/mikedh/trimesh
v 3.79963178 -0.52451995 -0.34214623
v 3.79963171 -0.54460037 -0.58307217
v 3.79963580 -0.54459531 -0.34215082
v 3.79962703 -0.52452163 -0.58307327
v 3.79962341 -0.52452025 -0.34215267
v 4.04055658 -0.52452136 -0.58307449
v 3.79963275 -0.52451594 -0.58307384
v 4.04056375 -0.52452177 -0.34214722
v 4.04056217 -0.52451918 -0.58307594
v 3.79962820 -0.54460010 -0.58307265
v 3.79962790 -0.52452021 -0.58307395
v 4.04056093 -0.54459781 -0.58307219
v 4.04055685 -0.54459898 -0.34214574
v 3.79963644 -0.54460284 -0.58306824
v 4.04056368 -0.54459587 -0.58307250
v 3.79963028 -0.54459356 -0.34214173
v 4.04056523 -0.54459405 -0.58307219
v 4.04055496 -0.52451952 -0.34214618
v 4.04055468 -0.54459719 -0.34214695
v 4.04056146 -0.52452354 -0.58307566
vt 8.01560116 -3.58330011
vt 7.95310020 -2.83330011
vt 7.95310020 -3.58330011
vt 8.01560116 -2.83330011
vt 2.00000000 -5.00000000
vt 1.00000000 -4.00000000
vt 2.00000000 -4.00000000
vt 1.00000000 -5.00000000
vt -1.05470002 -8.03909969
vt -1.80470002 -7.97660065
vt -1.80470002 -8.03909969
vt -1.05470002 -7.97660065
vt -1.00000000 -5.00000000
vt -2.00000000 -4.00000000
vt -1.00000000 -4.00000000
vt -2.00000000 -5.00000000
vt 7.95310020 -2.83330011
vt 8.01560116 -3.58330011
vt 7.95310020 -3.58330011
vt 8.01560116 -2.83330011
f 1/1 2/2 3/3
f 2/2 1/1 4/4
f 5/5 6/6 7/7
f 6/6 5/5 8/8
f 9/9 10/10 11/11
f 10/10 9/9 12/12
f 13/13 14/14 15/15
f 14/14 13/13 16/16
f 17/17 18/18 19/19
f 18/18 17/17 20/20

