# https://github.com/mikedh/trimesh
v -3.02667367 -7.49134225 -1.09502856
v -3.02667427 -7.51143184 -1.62708470
v -3.02664021 -7.51138973 -1.09506674
v -3.02671319 -7.49135620 -1.62709380
v -3.02674329 -7.49134472 -1.09508214
v -2.49464726 -7.49135396 -1.62710396
v -3.02666555 -7.49130889 -1.62709863
v -2.49458765 -7.49135740 -1.09503676
v -2.49460080 -7.49133583 -1.62711609
v -3.02670343 -7.51142963 -1.62708872
v -3.02670592 -7.49134444 -1.62709950
v -2.49461110 -7.51141053 -1.62708488
v -2.49464504 -7.51142031 -1.09502448
v -3.02663483 -7.51145239 -1.62705197
v -2.49458824 -7.51139443 -1.62708746
v -3.02668616 -7.51137521 -1.09499107
v -2.49457529 -7.51137927 -1.09503660
v -3.02671157 -7.49133863 -1.09502810
v -3.02671384 -7.51140540 -1.09503454
v -2.49460669 -7.49137213 -1.09506554
v -2.49463886 -7.51144985 -1.62704557
v -2.49464055 -7.49132916 -1.09505409
v -2.49458149 -7.51137912 -1.09502876
v -2.49468905 -7.49133702 -1.62707556
v -0.89843584 -7.38096238 -0.34209361
v -0.49695401 -7.38096361 -0.74366590
v -0.89846296 -7.38088795 -0.74368710
v -0.49693449 -7.38095555 -0.34217636
v -0.89850065 -7.38092692 -0.34212886
v -0.89842758 -7.39096626 -0.74364448
v -0.89847252 -7.39090010 -0.34215766
v -0.89848525 -7.38093773 -0.74366316
v -0.49691193 -7.39096146 -0.74373055
v -0.49695631 -7.38093055 -0.34211725
v -0.49692117 -7.39097534 -0.34212057
v -0.49695287 -7.38096508 -0.74367482
v -0.49698042 -7.38093385 -0.74370898
v -0.89846125 -7.39094697 -0.74368671
v -0.89844464 -7.38096636 -0.74365209
v -0.49689588 -7.39092086 -0.74365937
v -0.49689413 -7.39092085 -0.34214322
v -0.89850488 -7.39094866 -0.74371431
v -0.49695692 -7.39093748 -0.74370860
v -0.89849361 -7.39097445 -0.34213774
vt 218.00000000 -1.10419989
vt 219.00000000 0.00000000
vt 219.00000000 -1.10419989
vt 218.00000000 0.00000000
vt 13.00000000 -1.00000000
vt 12.00000000 0.00000000
vt 13.00000000 0.00000000
vt 12.00000000 -1.00000000
vt 13.89579964 -218.00000000
vt 15.00000000 -219.00000000
vt 15.00000000 -218.00000000
vt 13.89579964 -219.00000000
vt 12.00000000 -1.00000000
vt 13.00000000 0.00000000
vt 12.00000000 0.00000000
vt 13.00000000 -1.00000000
vt 13.89579964 -219.00000000
vt 15.00000000 -218.00000000
vt 15.00000000 -219.00000000
vt 13.89579964 -218.00000000
vt 219.00000000 0.00000000
vt 218.00000000 -1.10419989
vt 219.00000000 -1.10419989
vt 218.00000000 0.00000000
vt 12.00000000 3.00000000
vt 11.00000000 2.00000000
vt 12.00000000 2.00000000
vt 11.00000000 3.00000000
vt -3.00000000 -424.00000000
vt -2.00000000 -425.00000000
vt -3.00000000 -425.00000000
vt -2.00000000 -424.00000000
vt -2.00000000 -425.00000000
vt -3.00000000 -424.00000000
vt -3.00000000 -425.00000000
vt -2.00000000 -424.00000000
vt 11.00000000 -424.00000000
vt 12.00000000 -425.00000000
vt 12.00000000 -424.00000000
vt 11.00000000 -425.00000000
vt 11.00000000 3.00000000
vt 12.00000000 2.00000000
vt 11.00000000 2.00000000
vt 12.00000000 3.00000000
f 1/1 2/2 3/3
f 2/2 1/1 4/4
f 5/5 6/6 7/7
f 6/6 5/5 8/8
f 9/9 10/10 11/11
f 10/10 9/9 12/12
f 13/13 14/14 15/15
f 14/14 13/13 16/16
f 17/17 18/18 19/19
f 18/18 17/17 20/20
f 21/21 22/22 23/23
f 22/22 21/21 24/24
f 25/25 26/26 27/27
f 26/26 25/25 28/28
f 29/29 30/30 31/31
f 30/30 29/29 32/32
f 33/33 34/34 35/35
f 34/34 33/33 36/36
f 37/37 38/38 39/39
f 38/38 37/37 40/40
f 41/41 42/42 43/43
f 42/42 41/41 44/44

