# https://github.com/mikedh/trimesh
v 4.04055951 -3.59633895 -0.58307122
v 3.79963171 -3.61641937 -0.58307217
v 3.79963580 -3.59633527 -0.58307581
v 4.04055476 -3.61641967 -0.58307327
v 4.04055115 -3.61641829 -0.58307766
v 4.04055658 -3.59634036 -0.34214950
v 4.04056049 -3.61641398 -0.34214886
v 4.04056375 -3.59634077 -0.58307221
v 4.04056217 -3.61641722 -0.34215096
v 3.79962820 -3.61641910 -0.58307265
v 4.04055564 -3.61641826 -0.58307395
v 3.79963319 -3.61641681 -0.34214721
v 3.79962912 -3.59633894 -0.34214574
v 3.79963644 -3.61642184 -0.58306824
v 3.79963594 -3.61641487 -0.34214752
v 3.79963028 -3.59633352 -0.58306672
v 3.79963750 -3.59633401 -0.34214720
v 4.04055496 -3.59633852 -0.58307117
v 3.79962695 -3.59633715 -0.58307194
v 4.04056146 -3.59634254 -0.34215068
vt -1.05470002 0.96090001
vt -1.80470002 1.02339995
vt -1.80470002 0.96090001
vt -1.05470002 1.02339995
vt -1.04690003 -2.83330011
vt -0.98439997 -3.58330011
vt -1.04690003 -3.58330011
vt -0.98439997 -2.83330011
vt -1.00000000 -5.00000000
vt -2.00000000 -4.00000000
vt -1.00000000 -4.00000000
vt -2.00000000 -5.00000000
vt -0.98439997 -3.58330011
vt -1.04690003 -2.83330011
vt -1.04690003 -3.58330011
vt -0.98439997 -2.83330011
vt 2.00000000 -5.00000000
vt 1.00000000 -4.00000000
vt 2.00000000 -4.00000000
vt 1.00000000 -5.00000000
f 1/1 2/2 3/3
f 2/2 1/1 4/4
f 5/5 6/6 7/7
f 6/6 5/5 8/8
f 9/9 10/10 11/11
f 10/10 9/9 12/12
f 13/13 14/14 15/15
f 14/14 13/13 16/16
f 17/17 18/18 19/19
f 18/18 17/17 20/20

