# https://github.com/mikedh/trimesh
v -1.27643720 1.37855069 -1.19174211
v -1.31356624 1.24576866 -1.28831360
v -1.27642982 1.24577788 -1.19175053
v -1.31357482 1.37854762 -1.28831561
v -1.29428947 1.40063675 -1.16123429
v -1.31357148 1.37854811 -1.28831785
v -1.27643541 1.37855805 -1.19174693
v -1.31355833 1.24576785 -1.28831367
v -1.34726241 1.40063871 -1.29902869
v -1.34727384 1.22368446 -1.29902265
v -1.31357322 1.37855021 -1.28831687
v -1.27643460 1.24577329 -1.19174389
v -1.31357099 1.24577121 -1.28831096
v -1.34725871 1.22367944 -1.29901454
v -1.29426647 1.40064302 -1.16122483
v -1.27643995 1.24578108 -1.19173384
v -1.29426362 1.22369556 -1.16122424
v -1.29428247 1.22368730 -1.16122237
v -1.27644606 1.37855400 -1.19174343
v -1.29427054 1.40063070 -1.16123063
v -1.29427764 1.40063079 -1.16121559
v -1.34727117 1.40064018 -1.29902565
v -1.34725815 1.40064639 -1.29902006
v -1.31358070 1.37855185 -1.28831159
v -1.34726178 1.22368345 -1.29901261
v -1.35774509 1.41719697 -1.32545013
v -1.35773651 1.20713729 -1.32545481
v -1.34727203 1.40063576 -1.29903086
v -1.34727607 1.40064207 -1.29902039
v -1.29426679 1.22368260 -1.16121590
v -1.27643979 1.24578181 -1.19174883
v -1.34727267 1.22368889 -1.29901757
v -1.30053366 1.41719745 -1.14471129
v -1.30054345 1.20712790 -1.14469669
v -1.30053570 1.41719439 -1.14469742
v -1.30054269 1.41719665 -1.14469900
v -1.35775091 1.41720354 -1.32545963
v -1.35773613 1.20712435 -1.59862764
v -1.35773247 1.20712000 -1.32544709
v -1.35773227 1.41720640 -1.59862160
v -1.29426997 1.22369261 -1.16122601
v -1.29428384 1.22368648 -1.16123130
v -1.35774573 1.20712637 -1.32545955
v -1.30054112 1.20711821 -1.14470121
v -1.27143574 1.21363892 -1.12627776
v -1.30052814 1.41720990 -1.14469569
v -1.30054949 1.20713245 -1.14470076
v -1.27143533 1.41069557 -1.12627528
v -1.27143599 1.41069100 -1.12628959
v -1.27143867 1.41068821 -1.12627091
v -1.29305601 1.43053237 -1.14470821
v -1.35774002 1.41720105 -1.32546530
v -1.30053278 1.41720045 -1.14471032
v -1.35027137 1.43053506 -1.32545785
v -1.35774014 1.20712327 -1.32544461
v -1.35025666 1.19379578 -1.59863826
v -1.35024603 1.19380099 -1.32544931
v -1.35773652 1.20713057 -1.59862658
v -1.35773297 1.41720017 -1.59863814
v -1.35024990 1.43051972 -1.59863041
v -1.32860724 1.41068679 -1.61705203
v -1.32860721 1.41069058 -1.61705262
v -1.32860894 1.41070202 -1.61705367
v -1.35773979 1.20711264 -1.59863710
v -1.35773001 1.41720080 -1.59863068
v -1.32859566 1.21362272 -1.61705958
v -1.30053763 1.20712842 -1.14470705
v -1.29305804 1.19378519 -1.14469832
v -1.27143294 1.21362765 -1.12627665
v -1.30054277 1.20712179 -1.14469426
v -1.27734534 1.18581003 -1.14470782
v -1.09064822 1.21362941 -1.12627413
v -1.27143803 1.41068973 -1.12628311
v -1.27141878 1.21363015 -1.12629031
v -1.09065592 1.41069749 -1.12628081
v -1.29304568 1.43053812 -1.14470385
v -1.29305716 1.43052555 -1.14470728
v -1.33455757 1.43853549 -1.32544602
v -1.35026422 1.43052444 -1.32546707
v -1.35026239 1.43051238 -1.32546315
v -1.27733807 1.43852567 -1.14469754
v -1.33455140 1.18580666 -1.32545474
v -1.35025874 1.19381123 -1.59863097
v -1.33455599 1.18579690 -1.59862918
v -1.35024967 1.19378947 -1.32545095
v -1.33454300 1.18579145 -1.59862792
v -1.35026155 1.19380994 -1.59863335
v -1.35773965 1.20711815 -1.59863107
v -1.33454838 1.43853276 -1.59863273
v -1.35025751 1.43052297 -1.59863409
v -1.35023908 1.43053837 -1.59863380
v -1.09066023 1.41068721 -1.61705601
v -1.32860574 1.21362609 -1.61706397
v -1.32859705 1.41069615 -1.61705822
v -1.09065324 1.21362744 -1.61707431
v -1.32860523 1.21362405 -1.61706219
v -1.33455235 1.18580022 -1.59863627
v -1.35774580 1.20712883 -1.59862418
v -1.27735220 1.18579908 -1.14470472
v -1.29305231 1.19378734 -1.14469767
v -1.27733865 1.18579955 -1.14469939
v -1.30055830 1.20712638 -1.14470305
v -1.29305512 1.19379129 -1.14470255
v -1.08474595 1.18579390 -1.14470579
v -1.27143028 1.21362371 -1.12627122
v -1.27734508 1.18579052 -1.14470471
v -1.09065762 1.21363487 -1.12627550
v -1.09065534 1.21362373 -1.12627579
v -1.09064586 1.21362992 -1.12627505
v -1.06155753 1.20712517 -1.14470472
v -1.09065001 1.41068379 -1.12627364
v -1.06155662 1.41720337 -1.14470502
v -1.08474653 1.43852111 -1.14469544
v -1.27735686 1.43852132 -1.14470142
v -1.09064269 1.41069499 -1.12627923
v -1.33455727 1.43852675 -1.32545611
v -1.08473794 1.43853184 -1.59863848
v -1.33453564 1.43852547 -1.59863441
v -1.08473930 1.43852752 -1.14470519
v -1.27734482 1.43853312 -1.14469667
v -1.08475715 1.18580807 -1.14469696
v -1.33455072 1.18579050 -1.59863501
v -1.08474776 1.18579157 -1.59863373
v -1.33454326 1.18579792 -1.32545846
v -1.27734159 1.18580412 -1.14470975
v -1.33455212 1.43853385 -1.59862440
v -1.08474711 1.43853523 -1.59863572
v -1.09066112 1.41068789 -1.61705511
v -1.06156016 1.41719807 -1.59863501
v -1.09065574 1.21362446 -1.61705361
v -1.09064688 1.21362774 -1.61705721
v -1.09065550 1.21363408 -1.61705535
v -1.09064187 1.41068646 -1.61705360
v -1.06155239 1.20712257 -1.59862525
v -1.32861497 1.21364403 -1.61706432
v -1.08474277 1.18578861 -1.59862173
v -1.33455075 1.18579662 -1.59862861
v -1.06903363 1.19379323 -1.14472148
v -1.06155994 1.41720227 -1.14470565
v -1.08474371 1.43853419 -1.14470382
v -1.09066119 1.41070192 -1.12627089
v -1.06155705 1.20713803 -1.59863109
v -1.06156230 1.41720014 -1.14469614
v -1.06156105 1.20713697 -1.14470851
v -1.06154920 1.41720453 -1.59862987
v -1.08474177 1.43851855 -1.59862040
v -1.06904093 1.43052845 -1.14469820
v -1.06903389 1.43053667 -1.59861638
v -1.08474176 1.43853587 -1.14470627
v -1.06903986 1.19379877 -1.59862905
v -1.08474665 1.18579822 -1.14469760
v -1.08474917 1.18579344 -1.59863413
v -1.06904611 1.19380259 -1.14470342
v -1.06155025 1.41719299 -1.59864104
v -1.09065843 1.41070050 -1.61704918
v -1.08474646 1.43852292 -1.59862972
v -1.06904239 1.19379308 -1.59864464
v -1.06156055 1.41719993 -1.14469339
v -1.06903952 1.43054062 -1.14470536
v -1.08475012 1.43850340 -1.14469999
v -1.06903710 1.19380629 -1.59863199
v -1.06155459 1.20712033 -1.14471026
v -1.06904499 1.19379308 -1.14469440
v -1.06155516 1.20711987 -1.59862801
v -1.06155381 1.41719688 -1.59862174
v -1.06905236 1.43053051 -1.14469873
v -1.06156356 1.41720338 -1.14469479
v -1.06903769 1.43052126 -1.59863346
v -1.06154746 1.41720299 -1.59862896
v -1.08474577 1.43853246 -1.59863334
v -1.06904235 1.43053274 -1.59863231
vt 0.43450001 0.14469999
vt 0.33370000 0.28329998
vt 0.43450001 0.28329998
vt 0.33370000 0.14469999
vt 0.51639998 0.06019998
vt 0.64800000 0.03420001
vt 0.54009998 0.03189999
vt 0.03299999 0.05760002
vt 0.19460000 0.02249998
vt 0.00999999 0.02249998
vt 0.17151929 0.05760002
vt 0.93620002 0.30830002
vt 0.82819998 0.30659997
vt 0.80479997 0.33499998
vt 0.46630001 0.12169999
vt 0.43450001 0.28321928
vt 0.46630001 0.30629998
vt 0.46630001 0.30633581
vt 0.43450001 0.14469999
vt 0.51639998 0.06019998
vt 0.46630001 0.12169999
vt 0.67040002 0.06349999
vt 0.32260001 0.12169999
vt 0.64800000 0.03420001
vt 0.32260001 0.30629998
vt 0.29499999 0.10439998
vt 0.29499999 0.32359999
vt 0.32260001 0.12166423
vt 0.32260001 0.12169999
vt 0.95870000 0.33749998
vt 0.93620002 0.30830002
vt 0.80479997 0.33499998
vt 0.48359999 0.10439998
vt 0.48359999 0.32359999
vt 0.48359999 0.10439998
vt 0.48359999 0.10439998
vt 0.29499999 0.10439998
vt 0.00999999 0.32359999
vt 0.29499999 0.32359999
vt 0.00999999 0.10439998
vt 0.46630001 0.30629998
vt 0.46630001 0.30629998
vt 0.29499999 0.32359999
vt 0.48359999 0.32359999
vt 0.54549998 0.11849999
vt 0.75779998 0.08819997
vt 0.53869998 0.08819997
vt 0.75102723 0.11849999
vt 0.75110000 0.11849999
vt 0.75110000 0.11852008
vt 0.48359999 0.09050000
vt 0.29499999 0.10439998
vt 0.48359999 0.10439998
vt 0.29499999 0.09050000
vt 0.29499999 0.32359999
vt 0.00999999 0.33749998
vt 0.29499999 0.33749998
vt 0.00999999 0.32359999
vt 0.00999999 0.10439998
vt 0.00999999 0.09050000
vt 0.79500002 0.42907900
vt 0.79500002 0.42909998
vt 0.79503739 0.42909998
vt 0.82539999 0.64150000
vt 0.82539999 0.42229998
vt 0.79500002 0.63470000
vt 0.48359999 0.32359999
vt 0.48359999 0.33749998
vt 0.54549998 0.11849999
vt 0.53869998 0.08819997
vt 0.51639998 0.11240000
vt 0.54549998 0.30710000
vt 0.75110000 0.11849999
vt 0.54549998 0.11849999
vt 0.75110000 0.30710000
vt 0.77179998 0.09600002
vt 0.48359999 0.93030000
vt 0.29499999 0.97359997
vt 0.29499999 0.98999995
vt 0.29499999 0.99000001
vt 0.48359999 0.91390002
vt 0.29499999 0.38669997
vt 0.00999999 0.37029999
vt 0.00999999 0.38669997
vt 0.29499999 0.37029999
vt 0.80119997 0.66369998
vt 0.81760001 0.65540004
vt 0.82539999 0.64150000
vt 0.00999999 0.97359997
vt 0.00999999 0.99000001
vt 0.81760001 0.40840000
vt 0.54680002 0.42909998
vt 0.79500002 0.63470000
vt 0.79500002 0.42909998
vt 0.54680002 0.63470000
vt 0.79500002 0.63470000
vt 0.80119997 0.66369998
vt 0.82539999 0.64150000
vt 0.48359999 0.44639999
vt 0.48359999 0.43000001
vt 0.51639998 0.11240000
vt 0.53869998 0.08819997
vt 0.52480000 0.09600002
vt 0.51639998 0.31330001
vt 0.54549998 0.11849999
vt 0.51639998 0.11240000
vt 0.54549998 0.30707991
vt 0.54557282 0.30710000
vt 0.54549998 0.30710000
vt 0.53869998 0.33749998
vt 0.75110000 0.30710000
vt 0.75779998 0.33749998
vt 0.78009999 0.31330001
vt 0.78009999 0.11240000
vt 0.75110000 0.30710000
vt 0.29499999 0.97359997
vt 0.00999999 0.71300000
vt 0.00999999 0.97359997
vt 0.48357889 0.71300000
vt 0.48357889 0.91392279
vt 0.48357889 0.64730000
vt 0.00999999 0.38669997
vt 0.00999999 0.64730000
vt 0.29499999 0.38669997
vt 0.48357889 0.44637722
vt 0.80119997 0.40009999
vt 0.54060000 0.40009999
vt 0.54680002 0.42909998
vt 0.51639998 0.42229998
vt 0.54680002 0.63472104
vt 0.54676259 0.63470000
vt 0.54680002 0.63470000
vt 0.54680002 0.42909998
vt 0.51639998 0.64150000
vt 0.79500002 0.63470000
vt 0.54060000 0.66369998
vt 0.80119997 0.66369998
vt 0.52480000 0.32969999
vt 0.75779998 0.33749998
vt 0.78009999 0.31330001
vt 0.75110000 0.30710000
vt 0.51639998 0.75690001
vt 0.98997891 0.97610003
vt 0.98997891 0.75690001
vt 0.51639998 0.97610003
vt 0.00999999 0.71300000
vt 0.48357889 0.69659996
vt 0.00999999 0.69659996
vt 0.48357889 0.71300000
vt 0.00999999 0.66369998
vt 0.48357889 0.64730000
vt 0.00999999 0.64730000
vt 0.48357889 0.66369998
vt 0.51639998 0.42229998
vt 0.54680002 0.42909998
vt 0.54060000 0.40009999
vt 0.52420002 0.65540004
vt 0.75779998 0.33749998
vt 0.77179998 0.32969999
vt 0.78009999 0.31330001
vt 0.51636809 0.74300003
vt 0.99000001 0.75690001
vt 0.99000001 0.74300003
vt 0.51636809 0.75690001
vt 0.51639998 0.97610003
vt 0.98997891 0.99000001
vt 0.98997891 0.97610003
vt 0.51639998 0.99000001
vt 0.51639998 0.42229998
vt 0.54060000 0.40009999
vt 0.52420002 0.40840000
f 1/1 2/2 3/3
f 2/2 1/1 4/4
f 5/5 6/6 7/7
f 8/8 9/9 10/10
f 9/9 8/8 11/11
f 12/12 13/13 14/14
f 15/15 16/16 17/17
f 16/16 15/15 19/19
f 20/20 22/22 24/24
f 25/25 26/26 27/27
f 26/26 25/25 28/28
f 30/30 31/31 32/32
f 33/33 18/18 34/34
f 18/18 33/33 15/15
f 35/35 23/23 21/21
f 26/26 29/29 36/36
f 37/37 38/38 39/39
f 38/38 37/37 40/40
f 25/25 27/27 41/41
f 42/42 43/43 44/44
f 45/45 46/46 47/47
f 46/46 45/45 48/48
f 51/51 52/52 53/53
f 52/52 51/51 54/54
f 55/55 56/56 57/57
f 56/56 55/55 58/58
f 54/54 59/59 52/52
f 59/59 54/54 60/60
f 61/61 64/64 65/65
f 64/64 61/61 66/66
f 67/67 57/57 68/68
f 57/57 67/67 55/55
f 69/69 70/70 71/71
f 72/72 73/73 74/74
f 73/73 72/72 75/75
f 49/49 76/76 46/46
f 77/77 78/78 79/79
f 78/78 77/77 81/81
f 82/82 83/83 84/84
f 83/83 82/82 85/85
f 86/86 87/87 88/88
f 80/80 89/89 90/90
f 89/89 80/80 78/78
f 62/62 65/65 91/91
f 92/92 93/93 94/94
f 93/93 92/92 95/95
f 96/96 97/97 98/98
f 99/99 85/85 82/82
f 85/85 99/99 100/100
f 101/101 102/102 103/103
f 104/104 105/105 106/106
f 105/105 104/104 107/107
f 110/110 111/111 108/108
f 111/111 110/110 112/112
f 50/50 113/113 114/114
f 113/113 50/50 115/115
f 49/49 114/114 76/76
f 116/116 117/117 118/118
f 117/117 116/116 119/119
f 119/119 116/116 120/120
f 121/121 122/122 123/123
f 122/122 121/121 124/124
f 124/124 121/121 125/125
f 62/62 91/91 126/126
f 127/127 63/63 126/126
f 63/63 127/127 128/128
f 129/129 130/130 133/133
f 130/130 129/129 134/134
f 135/135 136/136 137/137
f 136/136 135/135 131/131
f 138/138 109/109 104/104
f 139/139 140/140 141/141
f 110/110 109/109 138/138
f 142/142 143/143 144/144
f 143/143 142/142 145/145
f 146/146 147/147 148/148
f 147/147 146/146 149/149
f 150/150 151/151 152/152
f 151/151 150/150 153/153
f 154/154 155/155 156/156
f 134/134 157/157 132/132
f 157/157 136/136 132/132
f 158/158 159/159 160/160
f 161/161 162/162 163/163
f 162/162 161/161 164/164
f 165/165 166/166 167/167
f 166/166 165/165 168/168
f 169/169 170/170 171/171

