# https://github.com/mikedh/trimesh
v -3.15713185 3.19980859 -1.43628761
v -3.15713420 3.54107805 -1.25562276
v -3.15699930 3.19993000 -1.25574275
v -3.15728835 3.54106819 -1.43635493
v -3.15740755 -3.43577229 -1.22569022
v -3.15722837 -3.09447865 -0.47268388
v -3.15709969 -3.43563040 -0.47266276
v -3.15699228 -3.09449134 -1.22551044
v 1.51091951 5.01682210 -0.47273102
v 1.10916633 5.01676003 -1.22552392
v 1.51070429 5.01678799 -1.22556660
v 1.10933086 5.01683567 -0.47260740
v 2.32387420 3.16969382 -0.47255919
v 2.32411576 2.82825283 -1.22537876
v 2.32409916 2.82848130 -0.47261763
v 2.32391244 3.16987349 -1.22532847
v -3.15694332 -3.06415565 -1.22550978
v -3.15728193 -2.72298817 -0.47257445
v -3.15729093 -3.06425914 -0.47259994
v -3.15706769 -2.72312088 -1.22562442
v 1.51076877 5.01667993 -1.25546761
v 1.10921423 5.01684853 -1.43638847
v 1.51099600 5.01696006 -1.43628814
v 1.10902213 5.01681738 -1.25558637
v 2.32406069 0.88082363 -0.69329324
v 2.32379921 0.45919480 -1.10497971
v 2.32395327 0.45949440 -0.69347700
v 2.32387652 0.88085074 -1.10520749
v 2.32380402 3.54120922 -0.47258200
v 2.32409339 3.19973857 -1.22535898
v 2.32391542 3.20000057 -0.47269607
v 2.32386502 3.54116641 -1.22543296
v 3.17725200 0.26846978 -0.62338115
v 3.33769634 0.26859228 -1.18528064
v 3.17721540 0.26841487 -1.18529377
v 3.33770997 0.26845544 -0.62316040
v -3.15739913 -0.23335413 -1.22561496
v -3.15713370 0.10790904 -0.47262556
v -3.15706790 -0.23348291 -0.47248844
v -3.15706431 0.10801255 -1.22541841
v 3.47847971 -0.17307063 -0.61318285
v 3.47823061 -0.52453469 -1.19551799
v 3.47823106 -0.52449043 -0.61325532
v 3.47827527 -0.17328193 -1.19540123
v -3.15710565 3.19997223 -1.22555056
v -3.15702879 3.54129605 -0.47251799
v -3.15741208 3.19996168 -0.47260918
v -3.15709832 3.54118007 -1.22550593
v -3.15711006 1.17197417 -1.59719251
v -3.15715825 1.51323669 -1.25554238
v -3.15717848 1.17202393 -1.25575947
v -3.15720344 1.51332581 -1.59714565
v 3.51858119 -3.61642947 -0.61332474
v 3.51827757 -3.96773678 -1.19546551
v 3.51848774 -3.96782106 -0.61298793
v 3.51854176 -3.61640688 -1.19559925
v -3.15696068 -3.43564447 -1.43624066
v -3.15714063 -3.09431338 -1.25562285
v -3.15707702 -3.43576480 -1.25583046
v -3.15703025 -3.09463418 -1.43638768
v -3.15716900 3.57113909 -1.22548002
v -3.15716853 3.91251830 -0.47258890
v -3.15719961 3.57141266 -0.47260784
v -3.15719936 3.91234872 -1.22569596
v -1.94238018 5.01680583 -1.25569513
v -2.34385567 5.01666723 -1.43642527
v -1.94255561 5.01687748 -1.43643403
v -2.34410953 5.01663095 -1.25558123
v -2.37406703 5.01675793 -0.47262901
v -2.77583633 5.01675845 -1.22539367
v -2.37414245 5.01707143 -1.22563724
v -2.77562564 5.01678953 -0.47258373
v -3.15714681 2.82833134 -1.22564667
v -3.15680108 3.16969970 -0.47287425
v -3.15721896 2.82846968 -0.47270363
v -3.15699295 3.16982224 -1.22556613
v -3.15719912 -1.64896359 -1.22562850
v -3.15731172 -1.30740006 -0.47246935
v -3.15728731 -1.64898349 -0.47284725
v -3.15725443 -1.30788500 -1.22567826
v -3.15700010 -3.06434248 -1.43626455
v -3.15720100 -2.72278960 -1.25564217
v -3.15718897 -3.06401645 -1.25570108
v -3.15728338 -2.72296496 -1.43636494
v 3.47851107 -3.22502433 -0.61310083
v 3.47848704 -3.57633457 -1.19541359
v 3.47829766 -3.57599557 -0.61327057
v 3.47834014 -3.22504056 -1.19547089
v -3.15714666 0.68020641 -1.52677676
v -3.15716689 1.10158429 -1.26579596
v -3.15683598 0.68023717 -1.26579086
v -3.15729645 1.10163389 -1.52671041
v 2.32395166 3.91248371 -1.25580817
v 2.32410776 3.57130722 -1.43640171
v 2.32392293 3.57119684 -1.25599372
v 2.32396077 3.91244701 -1.43647226
v -3.15721802 0.68020242 -1.10521658
v -3.15730735 1.10181553 -0.69341335
v -3.15725387 0.68018320 -0.69353102
v -3.15711210 1.10160179 -1.10499105
v -1.94236708 5.01688319 -0.47258457
v -2.34446489 5.01684084 -1.22555155
v -1.94251898 5.01674059 -1.22554246
v -2.34399417 5.01678185 -0.47269950
v -3.15700765 1.17189019 -1.22543349
v -3.15712611 1.51323647 -0.47268000
v -3.15724949 1.17209029 -0.47260824
v -3.15720863 1.51320311 -1.22551528
v 2.32405546 1.29246392 -1.25561683
v 2.32390545 0.95117134 -1.59701139
v 2.32398083 0.95099390 -1.25559150
v 2.32392189 1.29251707 -1.59701687
v -3.15710996 -2.02040020 -1.43622668
v -3.15733764 -1.67908145 -1.25563784
v -3.15698143 -2.02024825 -1.25569224
v -3.15730631 -1.67898606 -1.43636261
v -1.51061792 5.01688151 -0.47281940
v -1.91215725 5.01676709 -1.22564762
v -1.51064219 5.01680593 -1.22559002
v -1.91236064 5.01690657 -0.47253564
v -3.15730070 0.17841024 -1.52660165
v -3.15718865 0.59971845 -1.26581196
v -3.15713212 0.17811245 -1.26578907
v -3.15705473 0.59985165 -1.52675248
v 2.32403035 3.91272127 -0.47277051
v 2.32387989 3.57136245 -1.22546811
v 2.32397326 3.57138718 -0.47276980
v 2.32378136 3.91246997 -1.22553505
v 2.32385820 1.29242173 -0.47275706
v 2.32387796 0.95105071 -1.22550804
v 2.32403718 0.95110959 -0.47267070
v 2.32388239 1.29253649 -1.22553920
v 0.21600697 5.01668829 -0.47260660
v -1.04899058 5.01677098 -1.43629374
v 0.21566581 5.01704988 -1.43651036
v -1.04893705 5.01668540 -0.47251791
v -3.15718928 -1.27740268 -1.43635438
v -3.15702217 -0.93614167 -1.25599807
v -3.15723150 -1.27739983 -1.25571382
v -3.15705939 -0.93599128 -1.43637689
v 1.07898525 5.01696724 -0.47252554
v 0.67757621 5.01704870 -1.22558793
v 1.07902491 5.01679399 -1.22542744
v 0.67750440 5.01703103 -0.47274824
v 1.94258540 5.01687277 -1.25568061
v 1.54105173 5.01664280 -1.43620667
v 1.94247086 5.01675050 -1.43627511
v 1.54104941 5.01689812 -1.25543835
v 1.94259960 5.01695591 -0.47270811
v 1.54094216 5.01687486 -1.22555068
v 1.94251196 5.01685946 -1.22545371
v 1.54091875 5.01677217 -0.47274056
v 2.32384744 0.88102514 -1.27575099
v 2.32403628 0.45912327 -1.52692612
v 2.32382974 0.45939821 -1.27562140
v 2.32398511 0.88080305 -1.52672280
v 2.32391426 3.54109950 -1.25594535
v 2.32385124 3.19980207 -1.43618906
v 2.32396584 3.19998105 -1.25570788
v 2.32391933 3.54069964 -1.43630745
v -3.15708445 -1.27722209 -1.22560451
v -3.15713540 -0.93618594 -0.47278062
v -3.15722622 -1.27745931 -0.47249582
v -3.15714575 -0.93619443 -1.22553372
v -3.15712152 -3.80724068 -1.43623215
v -3.15735843 -3.46588950 -1.25558984
v -3.15729656 -3.80712397 -1.25551921
v -3.15709496 -3.46605561 -1.43644260
v -3.15700737 -2.02024598 -1.22555094
v -3.15709636 -1.67888342 -0.47272800
v -3.15717866 -2.02026346 -0.47270949
v -3.15716101 -1.67881853 -1.22565863
v -3.15692926 -1.64863807 -1.43655313
v -3.15716186 -1.30749700 -1.25574987
v -3.15722936 -1.64887726 -1.25558119
v -3.15720352 -1.30733006 -1.43632776
v -3.15715754 -0.23323456 -1.59690836
v -3.15710445 0.10788038 -1.25545998
v -3.15705467 -0.23342048 -1.25584147
v -3.15710404 0.10778904 -1.59717181
v -3.15717740 3.57128807 -1.43621530
v -3.15711422 3.91265812 -1.25580134
v -3.15714853 3.57127038 -1.25556643
v -3.15713294 3.91265790 -1.43641618
v 3.51858763 -0.56462588 -0.61333195
v 3.51856711 -0.91606357 -1.19564578
v 3.51865518 -0.91606823 -0.61328725
v 3.51850492 -0.56465700 -1.19526179
v -1.08921544 -0.90593441 -0.75357623
v -1.08913676 -1.25722232 -1.17541034
v -1.08911004 -1.25734905 -0.75361004
v -1.08930967 -0.90607525 -1.17521400
v 1.07913077 5.01677114 -1.25565455
v 0.67753230 5.01696136 -1.43649991
v 1.07913589 5.01685055 -1.43637114
v 0.67751961 5.01671383 -1.25561543
v -3.15726192 0.17825805 -1.10525636
v -3.15720843 0.59981451 -0.69363907
v -3.15707265 0.17818319 -0.69361476
v -3.15731686 0.59963442 -1.10507916
v -3.15727613 -3.80731815 -1.22557615
v -3.15688979 -3.46583426 -0.47256247
v -3.15712207 -3.80707745 -0.47279939
v -3.15719443 -3.46583608 -1.22555208
v 2.32392616 3.16963456 -1.25569265
v 2.32386066 2.82812203 -1.43649403
v 2.32400126 2.82856963 -1.25545964
v 2.32395864 3.16980997 -1.43625751
v -3.15722387 2.82820346 -1.43635618
v -3.15734424 3.16967348 -1.25559518
v -3.15730575 2.82839810 -1.25552417
v -3.15710533 3.16976823 -1.43625765
v -2.37396276 5.01682856 -1.25552497
v -2.77569814 5.01675008 -1.43632397
v -2.37422587 5.01674705 -1.43642775
v -2.77594914 5.01682339 -1.25580546
v -1.51082017 5.01697464 -1.25572189
v -1.91244623 5.01696496 -1.43629793
v -1.51069825 5.01677155 -1.43627523
v -1.91246244 5.01673548 -1.25559621
vt -18.00000000 -1.00000000
vt -19.00000000 -2.00000000
vt -18.00000000 -2.00000000
vt -19.00000000 -1.00000000
vt 1.00000000 0.00000000
vt 0.00000000 -1.00000000
vt 1.00000000 -1.00000000
vt 0.00000000 0.00000000
vt 1.00000000 0.00000000
vt 0.00000000 -1.00000000
vt 1.00000000 -1.00000000
vt 0.00000000 0.00000000
vt -5.16669989 -1.00000000
vt -6.00000000 0.00000000
vt -5.16669989 0.00000000
vt -6.00000000 -1.00000000
vt -5.16669989 -1.00000000
vt -6.00000000 0.00000000
vt -5.16669989 0.00000000
vt -6.00000000 -1.00000000
vt 18.00000000 -1.00000000
vt 17.00000000 0.00000000
vt 17.00000000 -1.00000000
vt 18.00000000 0.00000000
vt 18.00000000 -1.00000000
vt 17.00000000 0.00000000
vt 17.00000000 -1.00000000
vt 18.00000000 0.00000000
vt -0.00000000 0.00000000
vt -1.00000000 -1.00000000
vt -0.00000000 -1.00000000
vt -1.00000000 0.00000000
vt -0.00000000 0.00000000
vt -1.00000000 -1.00000000
vt -0.00000000 -1.00000000
vt -1.00000000 0.00000000
vt -5.16669989 -2.00000000
vt -6.00000000 -1.00000000
vt -5.16669989 -1.00000000
vt -6.00000000 -2.00000000
vt -5.16669989 -2.00000000
vt -6.00000000 -1.00000000
vt -5.16669989 -1.00000000
vt -6.00000000 -2.00000000
vt 9.00000000 -2.00000000
vt 8.00000000 -1.14580011
vt 8.00000000 -2.00000000
vt 9.00000000 -1.14580011
vt 9.00000000 -2.00000000
vt 8.00000000 -1.14580011
vt 8.00000000 -2.00000000
vt 9.00000000 -1.14580011
vt 19.00000000 -1.00000000
vt 18.00000000 0.00000000
vt 18.00000000 -1.00000000
vt 19.00000000 0.00000000
vt 19.00000000 -1.00000000
vt 18.00000000 0.00000000
vt 18.00000000 -1.00000000
vt 19.00000000 0.00000000
vt -6.00000000 -1.00000000
vt -5.00000000 0.00000000
vt -6.00000000 0.00000000
vt -5.00000000 -1.00000000
vt -6.00000000 -1.00000000
vt -5.00000000 0.00000000
vt -6.00000000 0.00000000
vt -5.00000000 -1.00000000
vt -8.00000000 0.00000000
vt -9.00000000 -1.00000000
vt -8.00000000 -1.00000000
vt -9.00000000 0.00000000
vt -8.00000000 0.00000000
vt -9.00000000 -1.00000000
vt -8.00000000 -1.00000000
vt -9.00000000 0.00000000
vt -8.00000000 -1.00000000
vt -7.00000000 0.00000000
vt -7.00000000 -1.00000000
vt -8.00000000 0.00000000
vt -8.00000000 -1.00000000
vt -7.00000000 0.00000000
vt -7.00000000 -1.00000000
vt -8.00000000 0.00000000
vt -18.00000000 0.00000000
vt -19.00000000 -1.00000000
vt -18.00000000 -1.00000000
vt -19.00000000 0.00000000
vt -18.00000000 0.00000000
vt -19.00000000 -1.00000000
vt -18.00000000 -1.00000000
vt -19.00000000 0.00000000
vt -12.00000000 0.00000000
vt -13.00000000 -1.00000000
vt -12.00000000 -1.00000000
vt -13.00000000 0.00000000
vt -12.00000000 0.00000000
vt -13.00000000 -1.00000000
vt -12.00000000 -1.00000000
vt -13.00000000 0.00000000
vt 2.00000000 -1.00000000
vt 3.00000000 0.00000000
vt 3.00000000 -1.00000000
vt 2.00000000 0.00000000
vt 2.00000000 -1.00000000
vt 3.00000000 0.00000000
vt 3.00000000 -1.00000000
vt 2.00000000 0.00000000
vt 1.00000000 -1.00000000
vt 0.00000000 -2.00000000
vt 1.00000000 -2.00000000
vt 0.00000000 -1.00000000
vt 1.00000000 -1.00000000
vt 0.00000000 -2.00000000
vt 1.00000000 -2.00000000
vt 0.00000000 -1.00000000
vt -19.00000000 0.00000000
vt -20.00000000 -1.00000000
vt -19.00000000 -1.00000000
vt -20.00000000 0.00000000
vt -19.00000000 0.00000000
vt -20.00000000 -1.00000000
vt -19.00000000 -1.00000000
vt -20.00000000 0.00000000
vt -12.16670036 -2.00000000
vt -13.00000000 -1.00000000
vt -12.16670036 -1.00000000
vt -13.00000000 -2.00000000
vt -12.16670036 -2.00000000
vt -13.00000000 -1.00000000
vt -12.16670036 -1.00000000
vt -13.00000000 -2.00000000
vt -13.16670036 -1.00000000
vt -14.00000000 0.00000000
vt -13.16670036 0.00000000
vt -14.00000000 -1.00000000
vt -13.16670036 -1.00000000
vt -14.00000000 0.00000000
vt -13.16670036 0.00000000
vt -14.00000000 -1.00000000
vt -17.00000000 0.00000000
vt -18.00000000 -1.00000000
vt -17.00000000 -1.00000000
vt -18.00000000 0.00000000
vt -17.00000000 0.00000000
vt -18.00000000 -1.00000000
vt -17.00000000 -1.00000000
vt -18.00000000 0.00000000
vt -4.00000000 0.00000000
vt -5.00000000 -1.00000000
vt -4.00000000 -1.00000000
vt -5.00000000 0.00000000
vt -4.00000000 0.00000000
vt -5.00000000 -1.00000000
vt -4.00000000 -1.00000000
vt -5.00000000 0.00000000
vt 0.00000000 -1.00000000
vt -1.00000000 -2.00000000
vt 0.00000000 -2.00000000
vt -1.00000000 -1.00000000
vt 0.00000000 -1.00000000
vt -1.00000000 -2.00000000
vt 0.00000000 -2.00000000
vt -1.00000000 -1.00000000
vt 1.00000000 -1.00000000
vt 2.00000000 0.00000000
vt 2.00000000 -1.00000000
vt 1.00000000 0.00000000
vt 1.00000000 -1.00000000
vt 2.00000000 0.00000000
vt 2.00000000 -1.00000000
vt 1.00000000 0.00000000
vt -9.00000000 0.00000000
vt -10.00000000 -1.00000000
vt -9.00000000 -1.00000000
vt -10.00000000 0.00000000
vt -9.00000000 0.00000000
vt -10.00000000 -1.00000000
vt -9.00000000 -1.00000000
vt -10.00000000 0.00000000
vt 19.99799919 -2.00000000
vt 18.99799919 -1.00000000
vt 18.99799919 -2.00000000
vt 19.99799919 -1.00000000
vt 19.99799919 -2.00000000
vt 18.99799919 -1.00000000
vt 18.99799919 -2.00000000
vt 19.99799919 -1.00000000
vt -9.00000000 -1.14580011
vt -10.00000000 -2.00000000
vt -9.00000000 -2.00000000
vt -10.00000000 -1.14580011
vt -9.00000000 -1.14580011
vt -10.00000000 -2.00000000
vt -9.00000000 -2.00000000
vt -10.00000000 -1.14580011
vt -12.16670036 -1.00000000
vt -13.00000000 0.00000000
vt -12.16670036 0.00000000
vt -13.00000000 -1.00000000
vt -12.16670036 -1.00000000
vt -13.00000000 0.00000000
vt -12.16670036 0.00000000
vt -13.00000000 -1.00000000
vt -12.00000000 0.00000000
vt -13.00000000 -1.00000000
vt -12.00000000 -1.00000000
vt -13.00000000 0.00000000
vt -12.00000000 0.00000000
vt -13.00000000 -1.00000000
vt -12.00000000 -1.00000000
vt -13.00000000 0.00000000
vt 12.00000000 -1.00000000
vt 11.00000000 0.00000000
vt 11.00000000 -1.00000000
vt 12.00000000 0.00000000
vt 12.00000000 -1.00000000
vt 11.00000000 0.00000000
vt 11.00000000 -1.00000000
vt 12.00000000 0.00000000
f 1/1 2/2 3/3
f 2/2 1/1 4/4
f 5/5 6/6 7/7
f 6/6 5/5 8/8
f 9/9 10/10 11/11
f 10/10 9/9 12/12
f 13/13 14/14 15/15
f 14/14 13/13 16/16
f 17/17 18/18 19/19
f 18/18 17/17 20/20
f 21/21 22/22 23/23
f 22/22 21/21 24/24
f 25/25 26/26 27/27
f 26/26 25/25 28/28
f 29/29 30/30 31/31
f 30/30 29/29 32/32
f 33/33 34/34 35/35
f 34/34 33/33 36/36
f 37/37 38/38 39/39
f 38/38 37/37 40/40
f 41/41 42/42 43/43
f 42/42 41/41 44/44
f 45/45 46/46 47/47
f 46/46 45/45 48/48
f 49/49 50/50 51/51
f 50/50 49/49 52/52
f 53/53 54/54 55/55
f 54/54 53/53 56/56
f 57/57 58/58 59/59
f 58/58 57/57 60/60
f 61/61 62/62 63/63
f 62/62 61/61 64/64
f 65/65 66/66 67/67
f 66/66 65/65 68/68
f 69/69 70/70 71/71
f 70/70 69/69 72/72
f 73/73 74/74 75/75
f 74/74 73/73 76/76
f 77/77 78/78 79/79
f 78/78 77/77 80/80
f 81/81 82/82 83/83
f 82/82 81/81 84/84
f 85/85 86/86 87/87
f 86/86 85/85 88/88
f 89/89 90/90 91/91
f 90/90 89/89 92/92
f 93/93 94/94 95/95
f 94/94 93/93 96/96
f 97/97 98/98 99/99
f 98/98 97/97 100/100
f 101/101 102/102 103/103
f 102/102 101/101 104/104
f 105/105 106/106 107/107
f 106/106 105/105 108/108
f 109/109 110/110 111/111
f 110/110 109/109 112/112
f 113/113 114/114 115/115
f 114/114 113/113 116/116
f 117/117 118/118 119/119
f 118/118 117/117 120/120
f 121/121 122/122 123/123
f 122/122 121/121 124/124
f 125/125 126/126 127/127
f 126/126 125/125 128/128
f 129/129 130/130 131/131
f 130/130 129/129 132/132
f 133/133 134/134 135/135
f 134/134 133/133 136/136
f 137/137 138/138 139/139
f 138/138 137/137 140/140
f 141/141 142/142 143/143
f 142/142 141/141 144/144
f 145/145 146/146 147/147
f 146/146 145/145 148/148
f 149/149 150/150 151/151
f 150/150 149/149 152/152
f 153/153 154/154 155/155
f 154/154 153/153 156/156
f 157/157 158/158 159/159
f 158/158 157/157 160/160
f 161/161 162/162 163/163
f 162/162 161/161 164/164
f 165/165 166/166 167/167
f 166/166 165/165 168/168
f 169/169 170/170 171/171
f 170/170 169/169 172/172
f 173/173 174/174 175/175
f 174/174 173/173 176/176
f 177/177 178/178 179/179
f 178/178 177/177 180/180
f 181/181 182/182 183/183
f 182/182 181/181 184/184
f 185/185 186/186 187/187
f 186/186 185/185 188/188
f 189/189 190/190 191/191
f 190/190 189/189 192/192
f 193/193 194/194 195/195
f 194/194 193/193 196/196
f 197/197 198/198 199/199
f 198/198 197/197 200/200
f 201/201 202/202 203/203
f 202/202 201/201 204/204
f 205/205 206/206 207/207
f 206/206 205/205 208/208
f 209/209 210/210 211/211
f 210/210 209/209 212/212
f 213/213 214/214 215/215
f 214/214 213/213 216/216
f 217/217 218/218 219/219
f 218/218 217/217 220/220

