# https://github.com/mikedh/trimesh
v -0.16823267 -0.67359798 -1.22701756
v -0.16672994 -0.67512870 -1.22703324
v -0.16666249 -0.67353727 -1.22558926
v -0.02927772 -0.67513363 -1.22705126
v -0.16686663 -0.67360285 -1.22561976
v -0.16677703 -0.67512919 -1.22707138
v -0.02918339 -0.67353190 -1.22555691
v -0.16665897 -0.51602497 -1.22552975
v -0.16818892 -0.67358526 -1.22709541
v -0.16678769 -0.67361629 -1.22553729
v -0.16829654 -0.51599932 -1.22706254
v -0.16820932 -0.67357847 -1.22703359
v -0.16677262 -0.67510586 -1.26565908
v -0.16665183 -0.67516940 -1.22696843
v -0.16816404 -0.67354660 -1.26568831
v -0.02922420 -0.67350853 -1.22543941
v -0.16663450 -0.51591357 -1.22552942
v -0.16680381 -0.67359080 -1.22551275
v -0.02927901 -0.51596532 -1.22552535
v -0.02916739 -0.67516518 -1.22709081
v -0.16676039 -0.67516437 -1.26560534
v -0.02923444 -0.67508007 -1.26571773
v -0.16664677 -0.67502430 -1.22701796
v -0.02782659 -0.67358762 -1.22701513
v -0.02915007 -0.67362530 -1.22544719
v -0.02928082 -0.67513578 -1.22700099
v -0.16673308 -0.51437085 -1.22704298
v -0.16827536 -0.51600879 -1.22711496
v -0.16680771 -0.51595209 -1.22551684
v -0.16816693 -0.51603000 -1.22695857
v -0.16825591 -0.67350198 -1.26572753
v -0.16828112 -0.67357649 -1.22699556
v -0.16823069 -0.51602049 -1.26577863
v -0.16681468 -0.51445521 -1.26564751
v -0.16824899 -0.67365098 -1.26565407
v -0.16831177 -0.51602766 -1.26566825
v -0.16686241 -0.67507684 -1.26573590
v -0.02920040 -0.51448775 -1.26569181
v -0.02916750 -0.67514123 -1.26562325
v -0.02766179 -0.51594009 -1.26563766
v -0.02765833 -0.67354307 -1.26569893
v -0.02778289 -0.67359814 -1.22709687
v -0.02928657 -0.51597301 -1.22558151
v -0.02926447 -0.67364922 -1.22553458
v -0.02768246 -0.51591316 -1.22705437
v -0.02914794 -0.51590867 -1.22548483
v -0.16686889 -0.51441438 -1.22703448
v -0.16671200 -0.51596667 -1.22552800
v -0.02918858 -0.51450368 -1.22716055
v -0.02921267 -0.67514378 -1.26564242
v -0.02771888 -0.67358585 -1.22710138
v -0.02923527 -0.67509922 -1.22713714
v -0.02768572 -0.67359651 -1.26576988
v -0.16687074 -0.51445463 -1.22707032
v -0.16826956 -0.51600083 -1.26560100
v -0.16824255 -0.51598268 -1.22713723
v -0.16664318 -0.51443188 -1.26564317
v -0.16673316 -0.51443193 -1.22703272
v -0.02917205 -0.51449205 -1.26578609
v -0.16667797 -0.51459233 -1.26571668
v -0.02921805 -0.51454215 -1.22701910
v -0.02771391 -0.51601212 -1.26567394
v -0.02923335 -0.51440536 -1.22703382
v -0.02772932 -0.51609692 -1.22712715
v -0.02914541 -0.51448634 -1.26571911
v -0.02761020 -0.67366270 -1.26573613
v -0.02772922 -0.51595457 -1.22709091
v -0.02773714 -0.67368084 -1.22701256
v -0.02765729 -0.51601435 -1.26569399
v -0.02777535 -0.51601409 -1.22697607
v -0.02919891 -0.51435353 -1.22709787
v -0.02917390 -0.51599855 -1.22551770
v -0.80811320 -0.67362211 -1.22710239
v -0.80643642 -0.67510292 -1.22716702
v -0.80664537 -0.67355241 -1.22557780
v -0.66900306 -0.67504219 -1.22706215
v -0.80663545 -0.67364707 -1.22558905
v -0.80669175 -0.67503082 -1.22696411
v -0.66915025 -0.67365702 -1.22564916
v -0.80666310 -0.51616228 -1.22561378
v -0.80803984 -0.67360999 -1.22700551
v -0.80663639 -0.67349151 -1.22553847
v -0.80813428 -0.51584397 -1.22707184
v -0.80818149 -0.67357919 -1.22705577
v -0.80654890 -0.67515041 -1.26565792
v -0.80656092 -0.67513613 -1.22704440
v -0.80815952 -0.67345859 -1.26574279
v -0.66910508 -0.67365050 -1.22556915
v -0.80660922 -0.51594436 -1.22558387
v -0.80661934 -0.67367022 -1.22559622
v -0.66892457 -0.51592898 -1.22559348
v -0.66915482 -0.67515345 -1.22705481
v -0.80660693 -0.67514044 -1.26577555
v -0.66899958 -0.67507316 -1.26572425
v -0.80662130 -0.67512836 -1.22721874
v -0.66756918 -0.67365076 -1.22710999
v -0.66911561 -0.67354935 -1.22561552
v -0.66916027 -0.67506258 -1.22701115
v -0.80666283 -0.51445185 -1.22706999
v -0.80809584 -0.51605848 -1.22700673
v -0.80654120 -0.51595171 -1.22551812
v -0.80832499 -0.51597289 -1.22705502
v -0.80812106 -0.67362602 -1.26570007
v -0.80808961 -0.67360538 -1.22707965
v -0.80804362 -0.51604973 -1.26564523
v -0.80659894 -0.51452873 -1.26571949
v -0.80816454 -0.67355257 -1.26568361
v -0.80814411 -0.51604955 -1.26568621
v -0.80655503 -0.67510498 -1.26567965
v -0.66910074 -0.51447969 -1.26571957
v -0.66906305 -0.67518350 -1.26566695
v -0.66758862 -0.51596738 -1.26572233
v -0.66755766 -0.67365088 -1.26563629
v -0.66767151 -0.67364900 -1.22704033
v -0.66899730 -0.51597190 -1.22556347
v -0.66915975 -0.67360131 -1.22555080
v -0.66748059 -0.51595255 -1.22713960
v -0.66896558 -0.51600977 -1.22559900
v -0.80652593 -0.51448629 -1.22707425
v -0.80659658 -0.51594002 -1.22549365
v -0.66915695 -0.51437107 -1.22700032
v -0.66910092 -0.67514462 -1.26575769
v -0.66756874 -0.67362700 -1.22709661
v -0.66903396 -0.67507806 -1.22707578
v -0.66753438 -0.67351363 -1.26576475
v -0.80664282 -0.51443047 -1.22701314
v -0.80810004 -0.51592216 -1.26576440
v -0.80819600 -0.51603629 -1.22704669
v -0.80665367 -0.51451090 -1.26575803
v -0.80664379 -0.51454001 -1.22703291
v -0.66903488 -0.51451052 -1.26571484
v -0.80664157 -0.51445361 -1.26569817
v -0.66898992 -0.51454511 -1.22703319
v -0.66755071 -0.51600782 -1.26567036
v -0.66916051 -0.51436431 -1.22712908
v -0.66752394 -0.51605061 -1.22698885
v -0.66910123 -0.51447458 -1.26570018
v -0.66751377 -0.67360863 -1.26587009
v -0.66761844 -0.51597721 -1.22707836
v -0.66753238 -0.67353343 -1.22706190
v -0.66765948 -0.51590969 -1.26564226
v -0.66759251 -0.51586896 -1.22707321
v -0.66914355 -0.51449226 -1.22699296
v -0.66913232 -0.51587779 -1.22559996
v 3.29774656 -4.20016591 -1.22706286
v 3.29624975 -4.19874586 -1.22697783
v 3.29618538 -4.20022705 -1.22550799
v 3.29624859 -4.20015323 -1.22543766
v 3.15872534 -4.19858930 -1.22708456
v 3.15867054 -4.20016486 -1.22555113
v 3.29620593 -4.19863753 -1.22700671
v 3.29768716 -4.35781448 -1.22710079
v 3.29613880 -4.20013058 -1.22555489
v 3.29623323 -4.35786778 -1.22565931
v 3.29763386 -4.20013203 -1.22699411
v 3.29771155 -4.20024166 -1.26571115
v 3.29617222 -4.19868090 -1.22719516
v 3.29764461 -4.20020723 -1.22696889
v 3.29619801 -4.19858270 -1.26572594
v 3.29617475 -4.35801415 -1.22552423
v 3.15869533 -4.20009732 -1.22557752
v 3.15866985 -4.35783449 -1.22561645
v 3.29614885 -4.20021594 -1.22547389
v 3.15866468 -4.19870597 -1.22704621
v 3.29620120 -4.19869954 -1.26563948
v 3.15855833 -4.19867351 -1.26566638
v 3.29611368 -4.19864118 -1.22698147
v 3.15869007 -4.19875657 -1.22709516
v 3.15722508 -4.20017975 -1.22705475
v 3.15868937 -4.20015597 -1.22558999
v 3.29617263 -4.35778676 -1.22558089
v 3.29618146 -4.35921776 -1.22710864
v 3.29780125 -4.35768908 -1.22715058
v 3.29768494 -4.35777552 -1.26574659
v 3.29765118 -4.20020989 -1.22701262
v 3.29766411 -4.35769205 -1.22703788
v 3.29768710 -4.20011501 -1.26566856
v 3.15868532 -4.19868013 -1.26560175
v 3.15720143 -4.35780624 -1.26579251
v 3.15717674 -4.20026087 -1.26580032
v 3.15864885 -4.35927494 -1.26563165
v 3.29620485 -4.19861616 -1.26577275
v 3.29618770 -4.35928378 -1.26565529
v 3.29769940 -4.20015130 -1.26573215
v 3.29771301 -4.35777146 -1.26577409
v 3.15867443 -4.35781282 -1.22565740
v 3.15720967 -4.20021689 -1.22710214
v 3.15713454 -4.35778703 -1.22696937
v 3.15865522 -4.20016996 -1.22547287
v 3.29621898 -4.35773469 -1.22557709
v 3.15870792 -4.35929403 -1.22699376
v 3.29613251 -4.35933462 -1.22698283
v 3.15865352 -4.35781499 -1.22554593
v 3.15862577 -4.19858658 -1.22712446
v 3.15714729 -4.20017702 -1.26570967
v 3.15711063 -4.20024538 -1.22703027
v 3.15860659 -4.19862515 -1.26578953
v 3.29766165 -4.35779276 -1.26577423
v 3.29622564 -4.35929181 -1.22711248
v 3.29610353 -4.35937884 -1.26570092
v 3.29762780 -4.35787158 -1.22706720
v 3.29631708 -4.35927516 -1.22701128
v 3.15867652 -4.35924673 -1.26577934
v 3.29616475 -4.35927607 -1.26570480
v 3.15865375 -4.35932823 -1.22706873
v 3.15862100 -4.35942700 -1.22712139
v 3.15718252 -4.35770721 -1.26560178
v 3.15866999 -4.35924052 -1.26565272
v 3.15711682 -4.35789031 -1.22705246
v 3.15705664 -4.20021453 -1.22701999
v 3.15707588 -4.35779298 -1.26563404
v 3.15717610 -4.35776542 -1.22700319
v 3.15725324 -4.20018802 -1.26563463
v 3.15866094 -4.35782552 -1.22553258
v 3.15712168 -4.35782704 -1.22708838
v 3.15853543 -4.35928484 -1.22712529
vt 0.25060001 0.73769999
vt 0.24050000 0.73769999
vt 0.24550000 0.74640000
vt 0.02249997 0.26639998
vt 0.95700002 0.27660000
vt 0.95700002 0.26639998
vt 0.02249997 0.27660000
vt 0.76819998 0.48350000
vt 0.02569997 0.47640002
vt 0.02569997 0.48350000
vt 0.76819998 0.47640002
vt 0.02569997 0.47640002
vt 0.01859998 0.29439998
vt 0.01859998 0.47640002
vt 0.02569997 0.29439998
vt 0.73369998 0.94760001
vt 0.98909998 0.72469997
vt 0.73369998 0.72469997
vt 0.98909998 0.94760001
vt 0.02249997 0.26639998
vt 0.95700002 0.00379997
vt 0.02249997 0.00379997
vt 0.95700002 0.26639998
vt 0.10629990 0.75169998
vt 0.11140000 0.76040000
vt 0.11640000 0.75169998
vt 0.03459995 0.73409998
vt 0.02459996 0.73409998
vt 0.02959996 0.74280000
vt 0.76819998 0.47640002
vt 0.02569997 0.29439998
vt 0.02569997 0.47640002
vt 0.76819998 0.29439998
vt 0.73710608 0.73119998
vt 0.98420000 0.72889996
vt 0.73944223 0.72886491
vt 0.98654127 0.73123580
vt 0.73706478 0.94476420
vt 0.98650002 0.94480002
vt 0.73940003 0.94709998
vt 0.98415780 0.94713509
vt 0.76819998 0.70249999
vt 0.02569997 0.70959997
vt 0.76819998 0.70959997
vt 0.02569997 0.70249999
vt 0.67250001 0.96890002
vt 0.02459996 0.96179998
vt 0.02459996 0.96890002
vt 0.67250001 0.96179998
vt 0.77530003 0.52039999
vt 0.76819998 0.70249999
vt 0.77530003 0.70249999
vt 0.76819998 0.52039999
vt 0.77530003 0.47640002
vt 0.76819998 0.29439998
vt 0.76819998 0.47640002
vt 0.77530003 0.29439998
vt 0.02459996 0.96179998
vt 0.67250001 0.77969998
vt 0.02459996 0.77969998
vt 0.67250001 0.96179998
vt 0.02569997 0.52039999
vt 0.01859998 0.70249999
vt 0.02569997 0.70249999
vt 0.01859998 0.52039999
vt 0.76819998 0.52039999
vt 0.02569997 0.70249999
vt 0.76819998 0.70249999
vt 0.02569997 0.52039999
vt 0.71939999 0.96020001
vt 0.70940000 0.96020001
vt 0.71439999 0.96890002
vt 0.25060001 0.73769999
vt 0.24050000 0.73769999
vt 0.24550000 0.74640000
vt 0.02249997 0.26639998
vt 0.95700002 0.27660000
vt 0.95700002 0.26639998
vt 0.02249997 0.27660000
vt 0.76819998 0.48350000
vt 0.02569997 0.47640002
vt 0.02569997 0.48350000
vt 0.76819998 0.47640002
vt 0.02569997 0.47640002
vt 0.01859998 0.29439998
vt 0.01859998 0.47640002
vt 0.02569997 0.29439998
vt 0.73369998 0.94760001
vt 0.98909998 0.72469997
vt 0.73369998 0.72469997
vt 0.98909998 0.94760001
vt 0.02249997 0.26639998
vt 0.95700002 0.00379997
vt 0.02249997 0.00379997
vt 0.95700002 0.26639998
vt 0.10629990 0.75169998
vt 0.11140000 0.76040000
vt 0.11640000 0.75169998
vt 0.03459995 0.73409998
vt 0.02459996 0.73409998
vt 0.02959996 0.74280000
vt 0.76819998 0.47640002
vt 0.02569997 0.29439998
vt 0.02569997 0.47640002
vt 0.76819998 0.29439998
vt 0.73710608 0.73119938
vt 0.98420000 0.72889996
vt 0.73944223 0.72886491
vt 0.98654127 0.73123521
vt 0.73706478 0.94476420
vt 0.98650002 0.94480002
vt 0.73940003 0.94709998
vt 0.98415780 0.94713509
vt 0.76819998 0.70249999
vt 0.02569997 0.70959997
vt 0.76819998 0.70959997
vt 0.02569997 0.70249999
vt 0.67250001 0.96890002
vt 0.02459996 0.96179998
vt 0.02459996 0.96890002
vt 0.67250001 0.96179998
vt 0.77530003 0.52039999
vt 0.76819998 0.70249999
vt 0.77530003 0.70249999
vt 0.76819998 0.52039999
vt 0.77530003 0.47640002
vt 0.76819998 0.29439998
vt 0.76819998 0.47640002
vt 0.77530003 0.29439998
vt 0.02459996 0.96179998
vt 0.67250001 0.77969998
vt 0.02459996 0.77969998
vt 0.67250001 0.96179998
vt 0.02569997 0.52039999
vt 0.01859998 0.70249999
vt 0.02569997 0.70249999
vt 0.01859998 0.52039999
vt 0.76819998 0.52039999
vt 0.02569997 0.70249999
vt 0.76819998 0.70249999
vt 0.02569997 0.52039999
vt 0.71939999 0.96020001
vt 0.70940000 0.96020001
vt 0.71439999 0.96890002
vt 0.25060001 0.73769999
vt 0.24050000 0.73769999
vt 0.24550000 0.74640000
vt 0.95700002 0.27660000
vt 0.02249997 0.26639998
vt 0.02249997 0.27660000
vt 0.95700002 0.26639998
vt 0.76819998 0.47640002
vt 0.02569997 0.48350000
vt 0.76819998 0.48350000
vt 0.02569997 0.47640002
vt 0.02569997 0.29439998
vt 0.01859998 0.47640002
vt 0.02569997 0.47640002
vt 0.01859998 0.29439998
vt 0.98909998 0.72469997
vt 0.73369998 0.94760001
vt 0.98909998 0.94760001
vt 0.73369998 0.72469997
vt 0.02249997 0.26639998
vt 0.95700002 0.00379997
vt 0.02249997 0.00379997
vt 0.95700002 0.26639998
vt 0.11640000 0.75169998
vt 0.10629990 0.75169998
vt 0.11140000 0.76040000
vt 0.02959996 0.74280000
vt 0.03459995 0.73409998
vt 0.02459996 0.73409998
vt 0.76819998 0.29439998
vt 0.02569997 0.47640002
vt 0.76819998 0.47640002
vt 0.02569997 0.29439998
vt 0.98650002 0.94480002
vt 0.73940003 0.94709998
vt 0.98411489 0.94713813
vt 0.73707789 0.94476116
vt 0.98658329 0.73123890
vt 0.73716110 0.73119998
vt 0.98420000 0.72889996
vt 0.73948509 0.72886181
vt 0.02569997 0.70959997
vt 0.76819998 0.70249999
vt 0.02569997 0.70249999
vt 0.76819998 0.70959997
vt 0.02459996 0.96890002
vt 0.67250001 0.96179998
vt 0.02459996 0.96179998
vt 0.67250001 0.96890002
vt 0.77530003 0.70249999
vt 0.76819998 0.52039999
vt 0.76819998 0.70249999
vt 0.77530003 0.52039999
vt 0.76819998 0.29439998
vt 0.77530003 0.47640002
vt 0.77530003 0.29439998
vt 0.76819998 0.47640002
vt 0.02459996 0.96179998
vt 0.67250001 0.77969998
vt 0.02459996 0.77969998
vt 0.67250001 0.96179998
vt 0.01859998 0.70249999
vt 0.02569997 0.52039999
vt 0.01859998 0.52039999
vt 0.02569997 0.70249999
vt 0.76819998 0.70249999
vt 0.02569997 0.52039999
vt 0.02569997 0.70249999
vt 0.76819998 0.52039999
vt 0.71439999 0.96890002
vt 0.71939999 0.96020001
vt 0.70940000 0.96020001
f 1/1 2/2 3/3
f 4/4 5/5 6/6
f 5/5 4/4 7/7
f 8/8 9/9 10/10
f 9/9 8/8 11/11
f 12/12 13/13 14/14
f 13/13 12/12 15/15
f 16/16 17/17 18/18
f 17/17 16/16 19/19
f 20/20 21/21 22/22
f 21/21 20/20 23/23
f 24/24 25/25 26/26
f 27/27 28/28 29/29
f 30/30 31/31 32/32
f 31/31 30/30 33/33
f 34/34 35/35 36/36
f 35/35 34/34 37/37
f 37/37 34/34 38/38
f 37/37 38/38 39/39
f 39/39 38/38 40/40
f 39/39 40/40 41/41
f 42/42 43/43 44/44
f 43/43 42/42 45/45
f 46/46 47/47 48/48
f 47/47 46/46 49/49
f 50/50 51/51 52/52
f 51/51 50/50 53/53
f 54/54 55/55 56/56
f 55/55 54/54 57/57
f 58/58 59/59 60/60
f 59/59 58/58 61/61
f 62/62 63/63 64/64
f 63/63 62/62 65/65
f 66/66 67/67 68/68
f 67/67 66/66 69/69
f 70/70 71/71 72/72
f 73/73 74/74 75/75
f 76/76 77/77 78/78
f 77/77 76/76 79/79
f 80/80 81/81 82/82
f 81/81 80/80 83/83
f 84/84 85/85 86/86
f 85/85 84/84 87/87
f 88/88 89/89 90/90
f 89/89 88/88 91/91
f 92/92 93/93 94/94
f 93/93 92/92 95/95
f 96/96 97/97 98/98
f 99/99 100/100 101/101
f 102/102 103/103 104/104
f 103/103 102/102 105/105
f 106/106 107/107 108/108
f 107/107 106/106 109/109
f 109/109 106/106 110/110
f 109/109 110/110 111/111
f 111/111 110/110 112/112
f 111/111 112/112 113/113
f 114/114 115/115 116/116
f 115/115 114/114 117/117
f 118/118 119/119 120/120
f 119/119 118/118 121/121
f 122/122 123/123 124/124
f 123/123 122/122 125/125
f 126/126 127/127 128/128
f 127/127 126/126 129/129
f 130/130 131/131 132/132
f 131/131 130/130 133/133
f 134/134 135/135 136/136
f 135/135 134/134 137/137
f 138/138 139/139 140/140
f 139/139 138/138 141/141
f 142/142 143/143 144/144
f 145/145 146/146 147/147
f 148/148 149/149 150/150
f 149/149 148/148 151/151
f 152/152 153/153 154/154
f 153/153 152/152 155/155
f 156/156 157/157 158/158
f 157/157 156/156 159/159
f 160/160 161/161 162/162
f 161/161 160/160 163/163
f 164/164 165/165 166/166
f 165/165 164/164 167/167
f 168/168 169/169 170/170
f 171/171 172/172 173/173
f 174/174 175/175 176/176
f 175/175 174/174 177/177
f 178/178 179/179 180/180
f 179/179 178/178 181/181
f 181/181 178/178 182/182
f 181/181 182/182 183/183
f 183/183 182/182 184/184
f 183/183 184/184 185/185
f 186/186 187/187 188/188
f 187/187 186/186 189/189
f 190/190 191/191 192/192
f 191/191 190/190 193/193
f 194/194 195/195 196/196
f 195/195 194/194 197/197
f 198/198 199/199 200/200
f 199/199 198/198 201/201
f 202/202 203/203 204/204
f 203/203 202/202 205/205
f 206/206 207/207 208/208
f 207/207 206/206 209/209
f 210/210 211/211 212/212
f 211/211 210/210 213/213
f 214/214 215/215 216/216

