# https://github.com/mikedh/trimesh
v -2.31391651 -4.74074972 -0.66337509
v -2.31391684 -5.23264561 -1.62708999
v -2.31389830 -5.23262269 -0.66339587
v -2.31393802 -4.74075732 -1.62709487
v -1.20970147 -5.23264071 -1.62711485
v -1.20967685 -4.74075609 -0.66338988
v -1.20965916 -5.23262121 -0.66338698
v -1.20964440 -4.74075796 -1.62709007
vt 3.99959993 -1.00029993
vt 4.99959993 -0.00030005
vt 4.99959993 -1.00029993
vt 3.99959993 -0.00030005
vt -4.00000000 0.00000000
vt -3.00000000 -1.00000000
vt -4.00000000 -1.00000000
vt -3.00000000 0.00000000
f 1/1 2/2 3/3
f 2/2 1/1 4/4
f 5/5 6/6 7/7
f 6/6 5/5 8/8

