# https://github.com/mikedh/trimesh
v -1.07915205 -1.25734848 -1.17532789
v -1.09923112 -0.90601167 -1.17534045
v -1.09917711 -1.25729987 -1.17538843
v -1.07921471 -0.90601562 -1.17535487
v -1.09934055 -1.25735238 -0.75378702
v -1.07919069 -1.25736704 -1.17537098
v -1.09921730 -1.25729558 -1.17536252
v -1.07909617 -1.25737249 -0.75371508
v -1.07911702 -0.90598331 -0.75376424
v -1.09927735 -0.90600816 -1.17534681
v -1.07920319 -0.90599697 -1.17536390
v -1.09921148 -0.90597788 -0.75371475
v -1.07918716 -0.90599339 -0.75369545
v -1.09916858 -1.25739924 -0.75366272
v -1.09917522 -0.90595236 -0.75371884
v -1.07917185 -1.25727686 -0.75364262
v -1.22966739 -4.74068845 -0.66336889
v -1.22980296 -5.23263753 -1.62706602
v -1.22980656 -5.23261953 -0.66336563
v -1.22971719 -4.74080101 -1.62712531
v -1.22976819 -4.74080037 -0.66330665
v -1.20968786 -4.74073286 -1.62710715
v -1.22967722 -4.74068821 -1.62706698
v -1.20976477 -4.74074534 -0.66335420
v -1.20962031 -4.74077551 -1.62701345
v -1.22980800 -5.23266712 -1.62705347
v -1.22974633 -4.74065750 -1.62708702
v -1.20969405 -5.23265433 -1.62714473
v -1.20972307 -5.23260894 -0.66335882
v -1.22969023 -5.23267132 -1.62701951
v -1.20967847 -5.23256642 -1.62711508
v -1.22978166 -5.23262608 -0.66333854
v -1.20965828 -5.23266370 -0.66344540
v -1.22981166 -4.74072504 -0.66334042
v -1.22975593 -5.23268572 -0.66334567
v -1.20972319 -4.74077980 -0.66335702
v -1.09933718 -0.83569915 -0.66341042
v -1.07915279 -0.83571996 -1.17534763
v -1.09920458 -0.83575071 -1.17529273
v -1.07912501 -0.83567855 -0.66333176
v -1.07912224 -1.32757551 -0.66338098
v -1.09930010 -0.83572263 -0.66341889
v -1.09929992 -1.32760189 -0.66340999
v -1.07920410 -0.83576353 -0.66337214
v -1.07914156 -1.32755396 -0.66338501
v -1.09918892 -1.32755037 -0.75367911
v -1.07926424 -1.32755819 -0.75371561
v -1.09921675 -1.32759681 -0.66336714
v -1.07914333 -1.32762969 -1.17544238
v -1.09924075 -1.32764972 -1.62704633
v -1.07917072 -1.32760977 -1.62713324
v -1.09925884 -1.32761404 -1.17542363
v -1.07914417 -0.83572133 -1.62714830
v -1.09934385 -1.32759042 -1.62710838
v -1.09925971 -0.83572719 -1.62701309
v -1.07915996 -1.32760962 -1.62716195
vt 1.62109995 0.69139999
vt 1.62890005 0.82809997
vt 1.62890005 0.69139999
vt 1.62109995 0.82809997
vt 1.62890005 -0.37109995
vt 1.62109995 -0.20700002
vt 1.62890005 -0.20700002
vt 1.62109995 -0.37109995
vt 1.62109995 -0.37109995
vt 1.62890005 -0.20700002
vt 1.62109995 -0.20700002
vt 1.62890005 -0.37109995
vt 1.62109995 0.82809997
vt 1.62890005 0.69139999
vt 1.62890005 0.82809997
vt 1.62109995 0.69139999
vt 4.00000000 -1.00000000
vt 5.00000000 0.00000000
vt 5.00000000 -1.00000000
vt 4.00000000 0.00000000
vt 274.00000000 -0.89719999
vt 273.00000000 0.00000000
vt 274.00000000 0.00000000
vt 273.00000000 -0.89719999
vt 273.00000000 -4.00000000
vt 274.00000000 -5.00000000
vt 274.00000000 -4.00000000
vt 273.00000000 -5.00000000
vt 273.00000000 -0.89719999
vt 274.00000000 0.00000000
vt 273.00000000 0.00000000
vt 274.00000000 -0.89719999
vt 273.00000000 -5.00000000
vt 274.00000000 -4.00000000
vt 274.00000000 -5.00000000
vt 273.00000000 -4.00000000
vt 267.00000000 -0.89720500
vt 266.00000000 -0.42060006
vt 267.00000000 -0.42060006
vt 266.00000000 -0.89720500
vt 266.00000000 3.00000000
vt 267.00000000 4.00000000
vt 267.00000000 3.00000000
vt 266.00000000 4.00000000
vt 266.00000000 -0.89719999
vt 267.00000000 -0.81309998
vt 266.00000000 -0.81309998
vt 267.00000000 -0.89719999
vt 266.00000000 -0.42060006
vt 267.00000000 0.00000000
vt 266.00000000 0.00000000
vt 267.00000000 -0.42060006
vt 266.00000000 4.00000000
vt 267.00000000 3.00000000
vt 267.00000000 4.00000000
vt 266.00000000 3.00000000
f 1/1 2/2 3/3
f 2/2 1/1 4/4
f 5/5 6/6 7/7
f 6/6 5/5 8/8
f 9/9 10/10 11/11
f 10/10 9/9 12/12
f 13/13 14/14 15/15
f 14/14 13/13 16/16
f 17/17 18/18 19/19
f 18/18 17/17 20/20
f 21/21 22/22 23/23
f 22/22 21/21 24/24
f 25/25 26/26 27/27
f 26/26 25/25 28/28
f 29/29 30/30 31/31
f 30/30 29/29 32/32
f 33/33 34/34 35/35
f 34/34 33/33 36/36
f 37/37 38/38 39/39
f 38/38 37/37 40/40
f 41/41 42/42 43/43
f 42/42 41/41 44/44
f 45/45 46/46 47/47
f 46/46 45/45 48/48
f 49/49 50/50 51/51
f 50/50 49/49 52/52
f 53/53 54/54 55/55
f 54/54 53/53 56/56

