# https://github.com/mikedh/trimesh
v -0.60641142 -7.39212812 -0.88611456
v -0.78711002 -7.40146549 -0.88341457
v -0.78708944 -7.39210961 -0.88613762
v -0.60643528 -7.40146699 -0.88342006
v -0.60645346 -7.38299509 -0.88315872
v -0.78712438 -7.39213519 -0.88613097
v -0.78710475 -7.38297345 -0.88313955
v -0.60639013 -7.39213727 -0.88611951
v -0.60639807 -7.40543113 -0.87661865
v -0.78712763 -7.40146415 -0.88341699
v -0.60643090 -7.40145989 -0.88342350
v -0.78710254 -7.40542906 -0.87659980
v -0.78712303 -7.37937173 -0.87619083
v -0.60638795 -7.38301293 -0.88311137
v -0.78708873 -7.38297793 -0.88313280
v -0.60641896 -7.37934449 -0.87617065
v -0.60638266 -7.40178774 -0.86966662
v -0.78713255 -7.40543282 -0.87659463
v -0.60643568 -7.40542596 -0.87659852
v -0.78709987 -7.40183062 -0.86968411
v -0.78711930 -7.38340569 -0.86935941
v -0.60642208 -7.37936386 -0.87620872
v -0.78708465 -7.37934685 -0.87619341
v -0.60645138 -7.38338473 -0.86937752
v -0.60639635 -7.40182090 -0.86964150
v -0.78713447 -7.39268774 -0.86666851
v -0.78711097 -7.40177595 -0.86966952
v -0.60642444 -7.39268287 -0.86670327
v -0.60643550 -7.39266558 -0.86667458
v -0.78708961 -7.38339857 -0.86936027
v -0.78711675 -7.39264938 -0.86669198
v -0.60642619 -7.38338133 -0.86937155
v -0.62347624 -7.35497037 -0.61303035
v -0.76985071 -7.36428276 -0.61028131
v -0.76982948 -7.35497876 -0.61299236
v -0.62350097 -7.36430362 -0.61028764
v -0.62351761 -7.34581979 -0.61002537
v -0.76982479 -7.35496163 -0.61300387
v -0.76981475 -7.34583943 -0.60999101
v -0.62346655 -7.35494585 -0.61298735
v -0.62346549 -7.36825334 -0.60348211
v -0.76985114 -7.36429370 -0.61031149
v -0.62350341 -7.36428695 -0.61030804
v -0.76984433 -7.36828572 -0.60347880
v -0.76982051 -7.34218190 -0.60308661
v -0.62346113 -7.34580236 -0.60999566
v -0.76986724 -7.34580534 -0.61000957
v -0.62347173 -7.34219822 -0.60307981
v -0.62347352 -7.36465154 -0.59658702
v -0.76982853 -7.36828161 -0.60346488
v -0.62348396 -7.36826639 -0.60349799
v -0.76983542 -7.36464558 -0.59657988
v -0.76982150 -7.34618224 -0.59629169
v -0.62352015 -7.34219579 -0.60309148
v -0.76983575 -7.34220864 -0.60305521
v -0.62347986 -7.34617893 -0.59629686
v -0.62345074 -7.36462964 -0.59653609
v -0.76982584 -7.35549575 -0.59355990
v -0.76981614 -7.36464800 -0.59657968
v -0.62346135 -7.35554467 -0.59357038
v -0.62348251 -7.35552937 -0.59355575
v -0.76983010 -7.34618792 -0.59626242
v -0.76983484 -7.35548764 -0.59356024
v -0.62348714 -7.34621378 -0.59629378
v -0.60639493 -7.39212672 -0.43722118
v -0.78708362 -7.40147831 -0.43452144
v -0.78711992 -7.39211579 -0.43722770
v -0.60642410 -7.40148384 -0.43449888
v -0.60639974 -7.38299951 -0.43422554
v -0.78713399 -7.39213395 -0.43719268
v -0.78710949 -7.38295169 -0.43424185
v -0.60640362 -7.39212921 -0.43720661
v -0.60641370 -7.40544237 -0.42771125
v -0.78705921 -7.40145763 -0.43454599
v -0.60642470 -7.40144467 -0.43451997
v -0.78708848 -7.40541554 -0.42769898
v -0.78711992 -7.37938675 -0.42731042
v -0.60643885 -7.38297067 -0.43420105
v -0.78713337 -7.38301161 -0.43425869
v -0.60643011 -7.37942280 -0.42731801
v -0.60639132 -7.40181623 -0.42075268
v -0.78712021 -7.40540253 -0.42769294
v -0.60642013 -7.40538895 -0.42770193
v -0.78713277 -7.40180684 -0.42076801
v -0.78709352 -7.38340143 -0.42046957
v -0.60639894 -7.37938096 -0.42729561
v -0.78712607 -7.37932926 -0.42731049
v -0.60642135 -7.38340391 -0.42048932
v -0.60641368 -7.40179713 -0.42077782
v -0.78711500 -7.39270069 -0.41779357
v -0.78706454 -7.40179244 -0.42078075
v -0.60643652 -7.39269313 -0.41777974
v -0.60641298 -7.39268916 -0.41780144
v -0.78708741 -7.38337787 -0.42048981
v -0.78711560 -7.39268548 -0.41782974
v -0.60641159 -7.38340399 -0.42050058
v -0.60642456 -7.39211329 -0.58844047
v -0.78713642 -7.40144532 -0.58570344
v -0.78712827 -7.39211621 -0.58842539
v -0.60640840 -7.40147793 -0.58570209
v -0.60639293 -7.38298040 -0.58542284
v -0.78717654 -7.39212138 -0.58842083
v -0.78711434 -7.38300215 -0.58543147
v -0.60640650 -7.39213038 -0.58842834
v -0.60639248 -7.40545170 -0.57888367
v -0.78710878 -7.40147010 -0.58572136
v -0.60642936 -7.40144472 -0.58571041
v -0.78712137 -7.40545165 -0.57889617
v -0.78709539 -7.37937146 -0.57849210
v -0.60642003 -7.38299017 -0.58543741
v -0.78710677 -7.38301724 -0.58542136
v -0.60641752 -7.37936335 -0.57850512
v -0.60640808 -7.40182870 -0.57194796
v -0.78714104 -7.40545057 -0.57889730
v -0.60638848 -7.40542797 -0.57890560
v -0.78713627 -7.40181358 -0.57196871
v -0.78708281 -7.38337495 -0.57171063
v -0.60637880 -7.37937628 -0.57851437
v -0.78708651 -7.37937036 -0.57850558
v -0.60640982 -7.38337112 -0.57166736
v -0.60643717 -7.40177601 -0.57195212
v -0.78711832 -7.39269044 -0.56899595
v -0.78710970 -7.40182142 -0.57198149
v -0.60639966 -7.39267014 -0.56898609
v -0.60640098 -7.39265293 -0.56899810
v -0.78712217 -7.38336945 -0.57167206
v -0.78710793 -7.39265645 -0.56899799
v -0.60643895 -7.38340049 -0.57168230
v -0.58611473 -7.40681866 -0.98029579
v -0.58611172 -7.37607986 -0.89996568
v -0.58608744 -7.40681855 -0.89997554
v -0.58611104 -7.37605351 -0.98027754
v -0.62345165 -7.35497912 -0.31258409
v -0.76981904 -7.36429757 -0.30987538
v -0.76985134 -7.35492398 -0.31261334
v -0.62346322 -7.36431062 -0.30986564
v -0.62348561 -7.34582370 -0.30960142
v -0.76980777 -7.35496584 -0.31264122
v -0.76983970 -7.34582326 -0.30960989
v -0.62346580 -7.35494291 -0.31259285
v -0.62350456 -7.36824407 -0.30305177
v -0.76983179 -7.36425521 -0.30989137
v -0.62349851 -7.36429406 -0.30986690
v -0.76984274 -7.36823435 -0.30308574
v -0.76981029 -7.34219525 -0.30267108
v -0.62346047 -7.34585215 -0.30957905
v -0.76982775 -7.34583572 -0.30958948
v -0.62346082 -7.34219138 -0.30263413
v -0.62346046 -7.36462336 -0.29615060
v -0.76982483 -7.36825816 -0.30307066
v -0.62347383 -7.36826051 -0.30305587
v -0.76982840 -7.36465139 -0.29615555
v -0.76984196 -7.34616030 -0.29585882
v -0.62346550 -7.34222685 -0.30270169
v -0.76984466 -7.34218492 -0.30265011
v -0.62347331 -7.34619418 -0.29585962
v -0.62348411 -7.36465130 -0.29618433
v -0.76984138 -7.35551474 -0.29312735
v -0.76982390 -7.36462135 -0.29614809
v -0.62348334 -7.35557838 -0.29314541
v -0.62346962 -7.35548121 -0.29316171
v -0.76982504 -7.34619252 -0.29587755
v -0.76983889 -7.35551739 -0.29313011
v -0.62347897 -7.34619398 -0.29585494
v -0.62347527 -7.35497193 -0.46254278
v -0.76985906 -7.36429505 -0.45984193
v -0.76984962 -7.35495413 -0.46254021
v -0.62347122 -7.36432038 -0.45986584
v -0.62345786 -7.34582130 -0.45957458
v -0.76981909 -7.35494796 -0.46257454
v -0.76983164 -7.34582396 -0.45958375
v -0.62348129 -7.35493806 -0.46257899
v -0.62344595 -7.36823558 -0.45307168
v -0.76982908 -7.36428550 -0.45986640
v -0.62349172 -7.36429546 -0.45984066
v -0.76983543 -7.36823648 -0.45303730
v -0.76982842 -7.34217973 -0.45263053
v -0.62347267 -7.34583210 -0.45954329
v -0.76981273 -7.34582991 -0.45960147
v -0.62347261 -7.34222421 -0.45267072
v -0.62348379 -7.36464056 -0.44608729
v -0.76982181 -7.36825399 -0.45306331
v -0.62347939 -7.36826569 -0.45302748
v -0.76982467 -7.36463159 -0.44611795
v -0.76982052 -7.34617330 -0.44584784
v -0.62347599 -7.34221009 -0.45267395
v -0.76981022 -7.34221080 -0.45265590
v -0.62348548 -7.34617805 -0.44580053
v -0.62348185 -7.36463728 -0.44608573
v -0.76981751 -7.35549314 -0.44312949
v -0.76981343 -7.36464638 -0.44609086
v -0.62349622 -7.35552485 -0.44309955
v -0.62348237 -7.35551763 -0.44311999
v -0.76983849 -7.34615757 -0.44584783
v -0.76982924 -7.35550552 -0.44312311
v -0.62349277 -7.34619532 -0.44581910
v -0.62349668 -7.35494924 -0.16628559
v -0.76983618 -7.36429076 -0.16357585
v -0.76981547 -7.35496065 -0.16627722
v -0.62350506 -7.36431824 -0.16355349
v -0.62349885 -7.34584983 -0.16327528
v -0.76978759 -7.35495557 -0.16624635
v -0.76982301 -7.34581298 -0.16329436
v -0.62348639 -7.35495584 -0.16625975
v -0.62348230 -7.36827925 -0.15674376
v -0.76983994 -7.36433293 -0.16357486
v -0.62347084 -7.36426467 -0.16352325
v -0.76982500 -7.36825249 -0.15672375
v -0.76983854 -7.34223372 -0.15633780
v -0.62350924 -7.34583191 -0.16326088
v -0.76985102 -7.34582586 -0.16325004
v -0.62347280 -7.34219563 -0.15632277
v -0.62344927 -7.36464279 -0.14978922
v -0.76982776 -7.36827719 -0.15673393
v -0.62348940 -7.36827766 -0.15674976
v -0.76986604 -7.36464358 -0.14983200
v -0.76982850 -7.34615554 -0.14953635
v -0.62348830 -7.34218119 -0.15632896
v -0.76980991 -7.34221069 -0.15632549
v -0.62349078 -7.34619202 -0.14951719
v -0.62348927 -7.36463222 -0.14976928
v -0.76985559 -7.35552438 -0.14679915
v -0.76982915 -7.36462547 -0.14982764
v -0.62347332 -7.35551406 -0.14681596
v -0.62347332 -7.35553241 -0.14683680
v -0.76980265 -7.34617539 -0.14952559
v -0.76982742 -7.35550536 -0.14683820
v -0.62349614 -7.34615804 -0.14952482
v -0.62346442 -7.35497072 -0.01327073
v -0.76982074 -7.36428313 -0.01058093
v -0.76984033 -7.35499234 -0.01331279
v -0.62345103 -7.36426907 -0.01059630
v -0.62348418 -7.34580863 -0.01030927
v -0.76984895 -7.35493861 -0.01328617
v -0.76986983 -7.34583179 -0.01030391
v -0.62347075 -7.35495772 -0.01330526
v -0.62348099 -7.36826276 -0.00377991
v -0.76983304 -7.36426990 -0.01060658
v -0.62348500 -7.36432623 -0.01058106
v -0.76981245 -7.36825841 -0.00375957
v -0.76981910 -7.34219871 -0.00336526
v -0.62348359 -7.34580603 -0.01031236
v -0.76985175 -7.34581184 -0.01027463
v -0.62349548 -7.34220633 -0.00338515
v -0.62348553 -7.36464459 0.00313637
v -0.76983142 -7.36829297 -0.00378506
v -0.62349935 -7.36828599 -0.00380482
v -0.76980574 -7.36463665 0.00312478
v -0.76983690 -7.34619192 0.00342978
v -0.62350383 -7.34219165 -0.00338019
v -0.76981863 -7.34219555 -0.00334980
v -0.62351014 -7.34615059 0.00346341
v -0.62346917 -7.36460449 0.00316119
v -0.76981257 -7.35552414 0.00616206
v -0.76982378 -7.36465313 0.00319399
v -0.62348423 -7.35551132 0.00613921
v -0.62349197 -7.35550236 0.00615527
v -0.76982058 -7.34622092 0.00345893
v -0.76983267 -7.35553234 0.00615295
v -0.62346935 -7.34619832 0.00348406
v -0.60643433 -7.39215559 -0.73592875
v -0.78708744 -7.40145932 -0.73321056
v -0.78711288 -7.39213609 -0.73592079
v -0.60642458 -7.40144415 -0.73318667
v -0.60643168 -7.38298723 -0.73290714
v -0.78713038 -7.39213448 -0.73592676
v -0.78713397 -7.38298959 -0.73293330
v -0.60640275 -7.39212636 -0.73590187
v -0.60641859 -7.40544363 -0.72639085
v -0.78711190 -7.40146841 -0.73319685
v -0.60640076 -7.40145359 -0.73317478
v -0.78712267 -7.40542381 -0.72639631
v -0.78710779 -7.37938375 -0.72596855
v -0.60641055 -7.38297088 -0.73294239
v -0.78712028 -7.38300665 -0.73292979
v -0.60642546 -7.37937157 -0.72598798
v -0.60641428 -7.40181983 -0.71945309
v -0.78709679 -7.40544822 -0.72638928
v -0.60641485 -7.40542470 -0.72639039
v -0.78711209 -7.40182731 -0.71945594
v -0.78712763 -7.38337677 -0.71917457
v -0.60641289 -7.37938480 -0.72597389
v -0.78709994 -7.37935473 -0.72594947
v -0.60641448 -7.38336497 -0.71917493
v -0.60640681 -7.40180403 -0.71945177
v -0.78710052 -7.39268161 -0.71646733
v -0.78710263 -7.40178031 -0.71947076
v -0.60644456 -7.39268470 -0.71646649
v -0.60641057 -7.39267481 -0.71644774
v -0.78709507 -7.38338647 -0.71918086
v -0.78711775 -7.39268250 -0.71647190
v -0.60644056 -7.38339353 -0.71918009
v -0.61063556 -7.37224802 -1.60575227
v -0.59825376 -7.36681783 -1.62923591
v -0.61063636 -7.37223994 -1.62923372
v -0.59823739 -7.36680601 -1.60576717
v -0.61062063 -7.37224064 -1.60577246
v -0.61063491 -7.40970535 -1.62926170
v -0.61066463 -7.40969611 -1.60574088
v -0.61064187 -7.37223014 -1.62924526
v -0.59825665 -7.41509484 -1.60575381
v -0.61066238 -7.37222579 -1.60578224
v -0.61063538 -7.40967299 -1.60576894
v -0.59822543 -7.36679724 -1.60579085
v -0.58586992 -7.40967961 -1.60577366
v -0.58586553 -7.37222993 -1.60575836
v -0.59826042 -7.36680731 -1.62925571
v -0.58588267 -7.37226304 -1.60575887
v -0.58586230 -7.37224356 -1.62926487
v -0.59824778 -7.36682810 -1.60577969
v -0.59824746 -7.36683404 -1.62923372
v -0.61058966 -7.40967658 -1.62926310
v -0.61063698 -7.37227034 -1.62925168
v -0.59823592 -7.41510769 -1.62926291
v -0.58585668 -7.37222381 -1.62921509
v -0.58587384 -7.40969928 -1.62924427
v -0.59829487 -7.41512691 -1.60576845
v -0.61064021 -7.40971162 -1.62924942
v -0.59825795 -7.41510480 -1.62926096
v -0.61063717 -7.40968844 -1.60575406
v -0.58590550 -7.40969029 -1.62923217
v -0.59825083 -7.41514400 -1.60575819
v -0.59823885 -7.41512244 -1.62926510
v -0.58587452 -7.40968983 -1.60577882
v -0.58589476 -7.40969765 -1.62924626
v -0.58587052 -7.37224495 -1.60576236
v -0.58584643 -7.40964664 -1.60575124
v -0.58588591 -7.37228924 -1.62924683
v -0.62347778 -7.35498026 -0.76169560
v -0.76983982 -7.36428447 -0.75900116
v -0.76981984 -7.35499023 -0.76170779
v -0.62348155 -7.36431583 -0.75896328
v -0.62348828 -7.34580257 -0.75872354
v -0.76983061 -7.35494002 -0.76169506
v -0.76982337 -7.34582185 -0.75873558
v -0.62348569 -7.35497674 -0.76169688
v -0.62348834 -7.36826858 -0.75218202
v -0.76982728 -7.36429198 -0.75900676
v -0.62349709 -7.36430278 -0.75897719
v -0.76982024 -7.36825775 -0.75215701
v -0.76984690 -7.34219584 -0.75179752
v -0.62348474 -7.34581811 -0.75868444
v -0.76984008 -7.34582804 -0.75869230
v -0.62350456 -7.34219838 -0.75178437
v -0.62349413 -7.36464287 -0.74524124
v -0.76984231 -7.36826130 -0.75217772
v -0.62350031 -7.36824117 -0.75216199
v -0.76984141 -7.36465545 -0.74523822
v -0.76983516 -7.34621198 -0.74495009
v -0.62347885 -7.34217187 -0.75177295
v -0.76982338 -7.34215527 -0.75178203
v -0.62349533 -7.34617649 -0.74494860
v -0.62349899 -7.36466097 -0.74524373
v -0.76988152 -7.35553022 -0.74224959
v -0.76983673 -7.36467329 -0.74521841
v -0.62350320 -7.35552045 -0.74226964
v -0.62347758 -7.35551781 -0.74226463
v -0.76982567 -7.34618191 -0.74496649
v -0.76986748 -7.35550391 -0.74228734
v -0.62351618 -7.34615672 -0.74499015
v -0.80836850 -7.37607588 -0.89998362
v -0.80836328 -7.40682829 -0.98027267
v -0.80836505 -7.40679032 -0.89997775
v -0.80835363 -7.37603310 -0.98025184
v -0.78689180 -7.33680260 -0.62193840
v -0.78686356 -7.36761142 -0.70228287
v -0.78689153 -7.36759703 -0.62198466
v -0.78689349 -7.33679422 -0.70229496
v -0.60682767 -7.37249565 0.04633314
v -0.60682415 -7.33506175 0.06983563
v -0.60681244 -7.37251306 0.06981117
v -0.60685449 -7.33507372 0.04630989
v -0.60685107 -7.37250837 0.04632596
v -0.61685469 -7.37796303 0.06982821
v -0.61686033 -7.37793189 0.04633924
v -0.60683066 -7.37252774 0.06980815
v -0.61684859 -7.32963342 0.04630717
v -0.62687449 -7.37252320 0.04634167
v -0.62690406 -7.33506779 0.04631402
v -0.61686057 -7.37795738 0.04632279
v -0.60684322 -7.33508137 0.04629782
v -0.60681846 -7.37250303 0.04632009
v -0.61688647 -7.32965648 0.04634394
v -0.60682276 -7.33508389 0.06982300
v -0.60685136 -7.33508925 0.04633583
v -0.61686444 -7.32965550 0.06976451
v -0.61685128 -7.37794672 0.06977770
v -0.62688179 -7.33507898 0.06981239
v -0.62687587 -7.37253223 0.06981985
v -0.61685106 -7.32963232 0.06983567
v -0.60682219 -7.37252917 0.06983846
v -0.60685249 -7.33508667 0.06979106
v -0.61686456 -7.37793370 0.06982987
v -0.62688414 -7.37252999 0.04631819
v -0.61687314 -7.37793592 0.04631213
v -0.62687726 -7.37252009 0.06981056
v -0.62686615 -7.33508689 0.06983612
v -0.62691627 -7.37253368 0.04630061
v -0.62690490 -7.37250953 0.06982026
v -0.62688683 -7.33507415 0.04630756
v -0.62691485 -7.33507352 0.06983073
v -0.61686904 -7.32966715 0.04630138
v -0.62690377 -7.33505164 0.04632412
v -0.61688060 -7.32965584 0.06979931
v -0.62347445 -7.35497165 -0.91100303
v -0.76982989 -7.36428334 -0.90827068
v -0.76981721 -7.35496818 -0.91101684
v -0.62349270 -7.36428651 -0.90830587
v -0.62347467 -7.34583654 -0.90800557
v -0.76980745 -7.35495657 -0.91096425
v -0.76984277 -7.34580702 -0.90797999
v -0.62353039 -7.35496184 -0.91096130
v -0.62346565 -7.36827539 -0.90147210
v -0.76984902 -7.36428784 -0.90831375
v -0.62349642 -7.36427218 -0.90828334
v -0.76983290 -7.36826964 -0.90142106
v -0.76980890 -7.34221790 -0.90103790
v -0.62348053 -7.34581372 -0.90800565
v -0.76984275 -7.34581266 -0.90800878
v -0.62349241 -7.34218919 -0.90108643
v -0.62350335 -7.36463603 -0.89456859
v -0.76983956 -7.36827410 -0.90149119
v -0.62349817 -7.36825640 -0.90146309
v -0.76984289 -7.36463630 -0.89450890
v -0.76984866 -7.34617937 -0.89421755
v -0.62346852 -7.34219063 -0.90106993
v -0.76984035 -7.34218497 -0.90105528
v -0.62347989 -7.34618840 -0.89428145
v -0.62347633 -7.36465725 -0.89453723
v -0.76981515 -7.35549741 -0.89153443
v -0.76978797 -7.36462540 -0.89454777
v -0.62349304 -7.35547153 -0.89155815
v -0.62347976 -7.35548154 -0.89151733
v -0.76982760 -7.34617627 -0.89427951
v -0.76984224 -7.35551774 -0.89154686
v -0.62348455 -7.34617781 -0.89421384
v -0.61685483 -7.32964009 -1.20544436
v -0.62689504 -7.37249838 -1.20546140
v -0.62689424 -7.33509754 -1.20544290
v -0.61686075 -7.37793648 -1.20542384
v -0.60682212 -7.33505090 -1.20541714
v -0.60682809 -7.37251313 -1.20547761
v -0.61685730 -7.37795236 -1.18199306
v -0.62689949 -7.37250310 -1.20546565
v -0.61684061 -7.37794412 -1.20544831
v -0.62689453 -7.37250529 -1.18198865
v -0.62685708 -7.33509269 -1.18197722
v -0.62687115 -7.37250598 -1.20542165
v -0.62687414 -7.37251307 -1.18198599
v -0.62690020 -7.33507533 -1.20544469
v -0.62692731 -7.33506082 -1.18193439
v -0.61683767 -7.32966285 -1.20543691
v -0.62692857 -7.33504974 -1.20547768
v -0.61685575 -7.32962544 -1.18194194
v -0.61685689 -7.32966985 -1.20544613
v -0.60683810 -7.33507242 -1.18194715
v -0.60682214 -7.33504233 -1.20543305
v -0.61686946 -7.32961742 -1.18196949
v -0.60682866 -7.37251643 -1.20548374
v -0.60682875 -7.33507377 -1.18196769
v -0.60683592 -7.37254157 -1.18196268
v -0.60680771 -7.33508178 -1.20545335
v -0.60684392 -7.37248492 -1.20546764
v -0.61684830 -7.37795036 -1.18193114
v -0.61684030 -7.37795379 -1.20547084
v -0.60680897 -7.37249452 -1.18198305
v -0.61685001 -7.37796601 -1.18197741
v -0.62691970 -7.33506273 -1.18195944
v -0.62688361 -7.37249461 -1.18195262
v -0.61685276 -7.32963253 -1.18198236
v -0.60683409 -7.37254023 -1.18197953
v -0.60683507 -7.33506052 -1.18192878
v -0.62349762 -7.35495735 -1.06308736
v -0.76981761 -7.36428078 -1.06037523
v -0.76984325 -7.35495356 -1.06307084
v -0.62348781 -7.36425683 -1.06038548
v -0.62348988 -7.34582133 -1.06010236
v -0.76985012 -7.35496078 -1.06305877
v -0.76979230 -7.34583614 -1.06008241
v -0.62347673 -7.35495546 -1.06306440
v -0.62346438 -7.36826517 -1.05358243
v -0.76984594 -7.36429187 -1.06037590
v -0.62347037 -7.36427736 -1.06036464
v -0.76986789 -7.36825232 -1.05358446
v -0.76980755 -7.34219881 -1.05315803
v -0.62348828 -7.34582157 -1.06012998
v -0.76980787 -7.34583209 -1.06014236
v -0.62346079 -7.34217582 -1.05318388
v -0.62345820 -7.36465825 -1.04667621
v -0.76983280 -7.36826223 -1.05356420
v -0.62347723 -7.36826274 -1.05356278
v -0.76983037 -7.36465570 -1.04664189
v -0.76983269 -7.34618562 -1.04637282
v -0.62348831 -7.34220318 -1.05316354
v -0.76982776 -7.34220774 -1.05315968
v -0.62346503 -7.34616875 -1.04638392
v -0.62348682 -7.36463328 -1.04662848
v -0.76981500 -7.35550608 -1.04366376
v -0.76980568 -7.36466871 -1.04662041
v -0.62347928 -7.35553674 -1.04365592
v -0.62345835 -7.35552157 -1.04366989
v -0.76983161 -7.34619446 -1.04637535
v -0.76981915 -7.35549778 -1.04365859
v -0.62347002 -7.34618706 -1.04635560
v -0.60641146 -7.39210023 -1.03679791
v -0.78712896 -7.40144745 -1.03410564
v -0.78711982 -7.39214026 -1.03680707
v -0.60641461 -7.40146320 -1.03412572
v -0.60644286 -7.38298914 -1.03381544
v -0.78707436 -7.39212892 -1.03678910
v -0.78709131 -7.38299238 -1.03381718
v -0.60642095 -7.39209540 -1.03683250
v -0.60641425 -7.40540899 -1.02728882
v -0.78712161 -7.40145230 -1.03409281
v -0.60640384 -7.40145147 -1.03408898
v -0.78709559 -7.40545173 -1.02729347
v -0.78709690 -7.37936112 -1.02688133
v -0.60640204 -7.38297500 -1.03383321
v -0.78713287 -7.38301113 -1.03378660
v -0.60643167 -7.37937353 -1.02688854
v -0.60639588 -7.40184013 -1.02035840
v -0.78709098 -7.40541361 -1.02727995
v -0.60641805 -7.40540258 -1.02731565
v -0.78709499 -7.40180158 -1.02034758
v -0.78710726 -7.38338210 -1.02005435
v -0.60643336 -7.37939089 -1.02688257
v -0.78711092 -7.37936670 -1.02685807
v -0.60642351 -7.38337273 -1.02006373
v -0.60637297 -7.40183436 -1.02036709
v -0.78711965 -7.39265373 -1.01738366
v -0.78708337 -7.40178288 -1.02034287
v -0.60640607 -7.39270309 -1.01736647
v -0.60643812 -7.39268261 -1.01736611
v -0.78711712 -7.38336931 -1.02007254
v -0.78713839 -7.39269458 -1.01739145
v -0.60641900 -7.38336422 -1.02006165
v -0.61062650 -7.37226571 -0.35395073
v -0.61063281 -7.40964298 -0.37748724
v -0.61064207 -7.40963985 -0.35400982
v -0.61062514 -7.37224945 -0.37748632
v -0.59820755 -7.36682753 -0.37745697
v -0.61061338 -7.40970181 -0.37750491
v -0.61066287 -7.37225737 -0.37746854
v -0.59823887 -7.41512104 -0.37747417
v -0.58584510 -7.37223047 -0.37746586
v -0.58587240 -7.40967111 -0.37746925
v -0.59825746 -7.41512770 -0.35397030
v -0.61060066 -7.40969354 -0.37750802
v -0.59823455 -7.41513330 -0.37745980
v -0.61063877 -7.40964620 -0.35398945
v -0.59822914 -7.41513864 -0.35403975
v -0.61063000 -7.37223916 -0.35397902
v -0.61064183 -7.40970661 -0.35401883
v -0.59823514 -7.36679812 -0.35400640
v -0.58587088 -7.40969694 -0.35402389
v -0.58585840 -7.37222914 -0.35399521
v -0.61065673 -7.37224705 -0.35396797
v -0.59820809 -7.36680569 -0.37748590
v -0.61066639 -7.37227018 -0.37747389
v -0.59824076 -7.36680590 -0.35399589
v -0.58588829 -7.40971150 -0.37746983
v -0.59825878 -7.41509541 -0.35401641
v -0.59821568 -7.41512923 -0.37746853
v -0.58585799 -7.40969035 -0.35402592
v -0.59825291 -7.36678418 -0.37749434
v -0.58589342 -7.37224741 -0.35399845
v -0.58588400 -7.37225656 -0.37748062
v -0.59825171 -7.36680751 -0.35397925
v -0.58585518 -7.40967858 -0.37744354
v -0.58584302 -7.37229363 -0.35399761
v -0.58588887 -7.40969627 -0.35397815
v -0.58586527 -7.37225100 -0.37744977
v -0.80820695 -7.37224526 -1.60575438
v -0.79579304 -7.36683026 -1.62924559
v -0.80816730 -7.37223752 -1.62923975
v -0.79578818 -7.36680798 -1.60578509
v -0.80818646 -7.37223626 -1.60581723
v -0.80816816 -7.40967866 -1.62926381
v -0.80819396 -7.40968795 -1.60575670
v -0.80818757 -7.37222363 -1.62923812
v -0.79580695 -7.41512588 -1.60575989
v -0.80816866 -7.37223199 -1.60576547
v -0.80817859 -7.40968488 -1.60574969
v -0.79581038 -7.36679996 -1.60579558
v -0.78339802 -7.40968005 -1.60576380
v -0.78344723 -7.37221677 -1.60574838
v -0.79579302 -7.36680243 -1.62926132
v -0.78340186 -7.37221689 -1.60578401
v -0.78336445 -7.37225115 -1.62923101
v -0.79580763 -7.36680360 -1.60578565
v -0.79580476 -7.36681422 -1.62925646
v -0.80818529 -7.40966770 -1.62926712
v -0.80820167 -7.37224284 -1.62925488
v -0.79581068 -7.41511553 -1.62925489
v -0.78340488 -7.37224433 -1.62924866
v -0.78340693 -7.40966689 -1.62922266
v -0.79579620 -7.41513547 -1.60578973
v -0.80821947 -7.40970462 -1.62925983
v -0.79579436 -7.41515006 -1.62922068
v -0.80816291 -7.40966308 -1.60577260
v -0.78340158 -7.40970070 -1.62921861
v -0.79581427 -7.41512661 -1.60573938
v -0.79575074 -7.41511937 -1.62925231
v -0.78344878 -7.40965510 -1.60575851
v -0.78343808 -7.40966950 -1.62923467
v -0.78341672 -7.37225322 -1.60575127
v -0.78340175 -7.40967610 -1.60574275
v -0.78339017 -7.37223060 -1.62923516
v -0.77687984 -7.32966452 0.04634173
v -0.76681263 -7.33506984 0.06982202
v -0.76683324 -7.33506904 0.04631072
v -0.77685684 -7.32962944 0.06979599
v -0.76679022 -7.37250007 0.04635123
v -0.76682735 -7.33510257 0.06979562
v -0.76681427 -7.37252432 0.06981998
v -0.76682115 -7.33508885 0.04634371
v -0.77683472 -7.32965795 0.04633647
v -0.78688452 -7.37251471 0.04632590
v -0.78690870 -7.33505455 0.04630978
v -0.77687285 -7.37794101 0.04633077
v -0.76683739 -7.33509002 0.04632496
v -0.76683121 -7.37250844 0.04630771
v -0.78688097 -7.33505248 0.06981106
v -0.77687315 -7.32965779 0.04632844
v -0.78689792 -7.33505755 0.04629611
v -0.77682979 -7.32968013 0.06980690
v -0.77687649 -7.37793820 0.06979433
v -0.78690665 -7.33508457 0.06980055
v -0.78692041 -7.37251173 0.06976656
v -0.77683773 -7.32965105 0.06982396
v -0.76683403 -7.37253314 0.06981879
v -0.76683375 -7.33510529 0.06980611
v -0.76684736 -7.37251975 0.04635134
v -0.77684139 -7.37795224 0.06980476
v -0.77686335 -7.37796321 0.04633378
v -0.76682644 -7.37252608 0.06981224
v -0.77689254 -7.37791870 0.06981842
v -0.78691112 -7.37251756 0.04630831
v -0.77686716 -7.37796763 0.04634642
v -0.78692016 -7.37252561 0.06977931
v -0.78688756 -7.33508419 0.06978347
v -0.78686251 -7.37249271 0.04631801
v -0.78687825 -7.37252208 0.06981178
v -0.78686092 -7.33508334 0.04635843
v -0.78689215 -7.33508034 -1.18193168
v -0.77685319 -7.32968025 -1.20544054
v -0.78690920 -7.33510726 -1.20546057
v -0.77685232 -7.32966449 -1.18198813
v -0.78689372 -7.33507179 -1.18197604
v -0.78690962 -7.37255681 -1.20545771
v -0.78687272 -7.37250234 -1.18195054
v -0.78689021 -7.33507652 -1.20542264
v -0.77687281 -7.37794602 -1.18199619
v -0.78687550 -7.33508647 -1.18198392
v -0.78687395 -7.37253860 -1.18197897
v -0.77683154 -7.32966333 -1.18197535
v -0.76683545 -7.37250607 -1.18199559
v -0.76680228 -7.33508291 -1.18196953
v -0.77687329 -7.32964788 -1.20541917
v -0.76682008 -7.33509473 -1.18197005
v -0.76681456 -7.33507727 -1.20544881
v -0.77684754 -7.32963919 -1.18198258
v -0.77689076 -7.32963680 -1.20541253
v -0.78690129 -7.37252195 -1.20542116
v -0.78685736 -7.33507762 -1.20542295
v -0.77684503 -7.37796181 -1.20547903
v -0.76683933 -7.33507240 -1.20543720
v -0.76683235 -7.37253425 -1.20547185
v -0.77688674 -7.37795437 -1.18199111
v -0.78688747 -7.37253322 -1.20545170
v -0.77682145 -7.37795144 -1.20545029
v -0.78689018 -7.37254481 -1.18194112
v -0.76680918 -7.37252866 -1.20544046
v -0.77686943 -7.37794547 -1.18198713
v -0.77685332 -7.37792651 -1.20543674
v -0.76683385 -7.37250324 -1.18193063
v -0.76681119 -7.37251786 -1.20545816
v -0.76681626 -7.33504576 -1.18199870
v -0.76680696 -7.37251700 -1.18193813
v -0.76682593 -7.33511586 -1.20541023
v -0.79581335 -7.36679657 -0.37747455
v -0.78341132 -7.37224129 -0.35400074
v -0.78340744 -7.37223837 -0.37745861
v -0.79579131 -7.36680483 -0.35396859
v -0.78342124 -7.40968324 -0.37746416
v -0.78339288 -7.37224474 -0.35398967
v -0.78341168 -7.40966317 -0.35399689
v -0.78339889 -7.37224540 -0.37747183
v -0.79581444 -7.36680933 -0.37747287
v -0.80820661 -7.40969715 -0.37748015
v -0.80820738 -7.37226454 -0.37744715
v -0.79581113 -7.41513250 -0.37749631
v -0.78338959 -7.37222790 -0.37746690
v -0.78340432 -7.40969289 -0.37747724
v -0.80819272 -7.37223236 -0.35397950
v -0.79577780 -7.36677515 -0.37746023
v -0.80817027 -7.37222643 -0.37749882
v -0.79579338 -7.36683625 -0.35396431
v -0.79580192 -7.41508738 -0.35397316
v -0.80819063 -7.37227213 -0.35401066
v -0.80816333 -7.40968996 -0.35401679
v -0.79579731 -7.36678126 -0.35396377
v -0.78341388 -7.40967916 -0.35398086
v -0.78343602 -7.37225280 -0.35399833
v -0.78339883 -7.40969320 -0.37749634
v -0.79578789 -7.41512881 -0.35401244
v -0.79581448 -7.41512162 -0.37744747
v -0.78340876 -7.40966604 -0.35402991
v -0.79580785 -7.41513938 -0.35399609
v -0.80816794 -7.40969382 -0.37749371
v -0.79577720 -7.41513087 -0.37746769
v -0.80819256 -7.40967558 -0.35399796
v -0.80816751 -7.37223300 -0.35395326
v -0.80818253 -7.40970118 -0.37749228
v -0.80819140 -7.40967801 -0.35400362
v -0.80815509 -7.37224022 -0.37748913
v -0.62526917 -7.33662472 0.04721972
v -0.62527882 -7.37096128 -1.18341506
v -0.62526530 -7.37096866 0.04720382
v -0.62526125 -7.33658302 -1.18340189
v -0.61685775 -7.37599267 0.04719961
v -0.62523123 -7.37098602 -1.18337638
v -0.61687453 -7.37596175 -1.18341247
v -0.62525408 -7.37096362 0.04722424
v -0.62524746 -7.33664058 0.04720876
v -0.61682771 -7.33161770 -1.18340348
v -0.62526403 -7.33662443 -1.18343458
v -0.61688238 -7.33158490 0.04721531
v -0.60848963 -7.37099879 -1.18339396
v -0.61687904 -7.37599523 0.04719751
v -0.61688440 -7.37595498 -1.18341136
v -0.60847475 -7.37099482 0.04722889
v -0.61686174 -7.33160875 -1.18340660
v -0.60847537 -7.33662202 0.04718690
v -0.60847768 -7.33657665 -1.18343021
v -0.61686272 -7.33160801 0.04723715
v -0.60842363 -7.37099008 -1.18342400
v -0.60845105 -7.33661011 0.04725109
v -0.60845679 -7.37099597 0.04721329
v -0.60846198 -7.33660518 -1.18342840
v -0.60644659 -7.39215337 -1.48639568
v -0.78711445 -7.40148778 -1.48371213
v -0.78714505 -7.39213037 -1.48642112
v -0.60642315 -7.40145775 -1.48369955
v -0.60641255 -7.38296917 -1.48337649
v -0.78709720 -7.39212911 -1.48639337
v -0.78712429 -7.38300550 -1.48343263
v -0.60640856 -7.39210461 -1.48636811
v -0.60639085 -7.40542077 -1.47690029
v -0.78711050 -7.40144697 -1.48370478
v -0.60638161 -7.40147037 -1.48371493
v -0.78710530 -7.40539831 -1.47691959
v -0.78712633 -7.37934741 -1.47649864
v -0.60637825 -7.38300543 -1.48339928
v -0.78711333 -7.38298345 -1.48343546
v -0.60644113 -7.37935620 -1.47649607
v -0.60642934 -7.40182927 -1.46997381
v -0.78708860 -7.40544857 -1.47689779
v -0.60637983 -7.40544016 -1.47688858
v -0.78710551 -7.40181538 -1.46996769
v -0.78708987 -7.38338013 -1.46968356
v -0.60643734 -7.37938937 -1.47650457
v -0.78714881 -7.37934937 -1.47648524
v -0.60640437 -7.38340996 -1.46968108
v -0.60641769 -7.40180901 -1.46995942
v -0.78713318 -7.39265766 -1.46695507
v -0.78711053 -7.40179259 -1.46993516
v -0.60638966 -7.39267359 -1.46697266
v -0.60642181 -7.39266110 -1.46697929
v -0.78712749 -7.38337611 -1.46966378
v -0.78710090 -7.39269096 -1.46696210
v -0.60639787 -7.38339385 -1.46967736
v -0.78526146 -7.33658770 0.04723212
v -0.78527935 -7.37100937 -1.18339779
v -0.78526000 -7.37097536 0.04722122
v -0.78523903 -7.33664166 -1.18341835
v -0.77685360 -7.37598047 0.04720040
v -0.78526539 -7.37099333 -1.18340818
v -0.77684589 -7.37598800 -1.18341157
v -0.78529228 -7.37100270 0.04724845
v -0.78528577 -7.33659036 0.04721155
v -0.77689159 -7.33158876 -1.18338692
v -0.78526498 -7.33659889 -1.18341505
v -0.77685704 -7.33161092 0.04721270
v -0.76845536 -7.37097666 -1.18341792
v -0.77685283 -7.37599343 0.04721896
v -0.77686643 -7.37598161 -1.18338148
v -0.76847557 -7.37100960 0.04724401
v -0.77685289 -7.33162493 -1.18341323
v -0.76848003 -7.33659768 0.04722890
v -0.76845357 -7.33660999 -1.18344412
v -0.77687828 -7.33160889 0.04717111
v -0.76846572 -7.37100087 -1.18339808
v -0.76846773 -7.33659560 0.04722246
v -0.76846240 -7.37100120 0.04722743
v -0.76842353 -7.33664312 -1.18342651
v -0.60638502 -7.39211707 -1.33517153
v -0.78709840 -7.40145059 -1.33247257
v -0.78712328 -7.39211118 -1.33516056
v -0.60639508 -7.40144508 -1.33247191
v -0.60638743 -7.38300717 -1.33218603
v -0.78712525 -7.39214989 -1.33515577
v -0.78712988 -7.38300307 -1.33216207
v -0.60639873 -7.39213652 -1.33518890
v -0.60641536 -7.40546015 -1.32566528
v -0.78711847 -7.40145901 -1.33247090
v -0.60641607 -7.40143259 -1.33245062
v -0.78708815 -7.40541737 -1.32564397
v -0.78713264 -7.37939243 -1.32524669
v -0.60642058 -7.38300737 -1.33217122
v -0.78709081 -7.38299250 -1.33217678
v -0.60642296 -7.37938131 -1.32521247
v -0.60643513 -7.40181307 -1.31872492
v -0.78711370 -7.40541479 -1.32563090
v -0.60641598 -7.40541346 -1.32566110
v -0.78710571 -7.40177977 -1.31872716
v -0.78710830 -7.38335991 -1.31844659
v -0.60641247 -7.37937491 -1.32526550
v -0.78710488 -7.37938399 -1.32521793
v -0.60641322 -7.38338923 -1.31843144
v -0.60641181 -7.40181372 -1.31871627
v -0.78712168 -7.39268496 -1.31571886
v -0.78714847 -7.40182402 -1.31871710
v -0.60640770 -7.39268309 -1.31572556
v -0.60641957 -7.39270832 -1.31571177
v -0.78710722 -7.38340205 -1.31840683
v -0.78710019 -7.39268712 -1.31570892
v -0.60640433 -7.38337140 -1.31844247
v -0.60862527 -7.37379341 -0.37595760
v -0.60865541 -7.40813082 -1.60697763
v -0.60860595 -7.40817169 -0.37594631
v -0.60863618 -7.37377964 -1.60698482
v -0.59825478 -7.41313810 -0.37594464
v -0.60861279 -7.40816414 -1.60699506
v -0.59825995 -7.41315818 -1.60693200
v -0.60860595 -7.40814398 -0.37595830
v -0.60862823 -7.37376831 -0.37595470
v -0.59825041 -7.36874639 -1.60697422
v -0.60862055 -7.37378358 -1.60696855
v -0.59826885 -7.36875747 -0.37597255
v -0.58789399 -7.40814502 -1.60697872
v -0.59824730 -7.41315382 -0.37595238
v -0.59824703 -7.41317358 -1.60696681
v -0.58785638 -7.40812944 -0.37595828
v -0.59822602 -7.36879542 -1.60698078
v -0.58791303 -7.37379839 -0.37594042
v -0.58788400 -7.37375079 -1.60694298
v -0.59825071 -7.36878313 -0.37595202
v -0.58786128 -7.40815601 -1.60695763
v -0.58789104 -7.37375701 -0.37595430
v -0.58788952 -7.40817549 -0.37593174
v -0.58788857 -7.37378050 -1.60696442
v -0.60641677 -7.39215987 -1.18404840
v -0.78713041 -7.40141892 -1.18130713
v -0.78710430 -7.39208319 -1.18401302
v -0.60643665 -7.40147835 -1.18132565
v -0.60641476 -7.38298770 -1.18106089
v -0.78708015 -7.39213188 -1.18401572
v -0.78708678 -7.38300137 -1.18103684
v -0.60638624 -7.39210084 -1.18402204
v -0.60640603 -7.40543139 -1.17449748
v -0.78710181 -7.40145417 -1.18133835
v -0.60643678 -7.40145928 -1.18129825
v -0.78712011 -7.40544374 -1.17452338
v -0.78711547 -7.37937910 -1.17410661
v -0.60640798 -7.38297104 -1.18103641
v -0.78710862 -7.38302742 -1.18104335
v -0.60642478 -7.37935102 -1.17411638
v -0.60642666 -7.40181962 -1.16760681
v -0.78712121 -7.40542733 -1.17449903
v -0.60640466 -7.40541885 -1.17450396
v -0.78711737 -7.40178537 -1.16760938
v -0.78710970 -7.38339464 -1.16733641
v -0.60638511 -7.37940378 -1.17410581
v -0.78708105 -7.37937299 -1.17411962
v -0.60644615 -7.38338991 -1.16727779
v -0.60642253 -7.40182702 -1.16762592
v -0.78708976 -7.39266933 -1.16460317
v -0.78709393 -7.40181941 -1.16759192
v -0.60637713 -7.39269177 -1.16459301
v -0.60640974 -7.39267472 -1.16459788
v -0.78713423 -7.38338798 -1.16730684
v -0.78712329 -7.39269069 -1.16461517
v -0.60642746 -7.38337860 -1.16730206
v -0.80613615 -7.37376895 -0.37595852
v -0.80617380 -7.40815238 -1.60696338
v -0.80616449 -7.40811611 -0.37595092
v -0.80616229 -7.37379974 -1.60698312
v -0.79579578 -7.41315657 -0.37594485
v -0.80614127 -7.40815817 -1.60696912
v -0.79577667 -7.41315689 -1.60695639
v -0.80616636 -7.40811717 -0.37597719
v -0.80617863 -7.37376813 -0.37592841
v -0.79581111 -7.36875907 -1.60696546
v -0.80617701 -7.37379011 -1.60695131
v -0.79578514 -7.36879431 -0.37594478
v -0.78543380 -7.40816988 -1.60692835
v -0.79581006 -7.41314765 -0.37596830
v -0.79580086 -7.41314785 -1.60695461
v -0.78544481 -7.40815147 -0.37594231
v -0.79576799 -7.36876560 -1.60693897
v -0.78541639 -7.37379074 -0.37595395
v -0.78541169 -7.37379109 -1.60697662
v -0.79579421 -7.36881049 -0.37596174
v -0.78544680 -7.40815649 -1.60693486
v -0.78538746 -7.37376912 -0.37596480
v -0.78541470 -7.40814220 -0.37595865
v -0.78541213 -7.37378759 -1.60696732
v -0.60675927 -7.36758651 -0.70230504
v -0.60675416 -7.33684169 -0.62198227
v -0.60676846 -7.36760724 -0.62203062
v -0.60678512 -7.33684025 -0.70228833
vt 0.00569999 0.61860001
vt 0.02649998 0.00669998
vt 0.00569999 0.00669998
vt 0.02649998 0.61860001
vt 0.15160000 0.61860001
vt 0.17250000 0.00669998
vt 0.15160000 0.00669998
vt 0.17250000 0.61860001
vt 0.04739999 0.61860001
vt 0.02649998 0.00669998
vt 0.02649998 0.61860001
vt 0.04739999 0.00669998
vt 0.13079999 0.00669998
vt 0.15160000 0.61860001
vt 0.15160000 0.00669998
vt 0.13079999 0.61860001
vt 0.06819999 0.61860001
vt 0.04739999 0.00669998
vt 0.04739999 0.61860001
vt 0.06819999 0.00669998
vt 0.10989990 0.00669998
vt 0.13079999 0.61860001
vt 0.13079999 0.00669998
vt 0.10989990 0.61860001
vt 0.06819999 0.61860001
vt 0.08910000 0.00669998
vt 0.06819999 0.00669998
vt 0.08910000 0.61860001
vt 0.08910000 0.61860001
vt 0.10989990 0.00669998
vt 0.08910000 0.00669998
vt 0.10989990 0.61860001
vt 0.00569999 0.61860001
vt 0.02649998 0.00669998
vt 0.00569999 0.00669998
vt 0.02649998 0.61860001
vt 0.15160000 0.61860001
vt 0.17250000 0.00669998
vt 0.15160000 0.00669998
vt 0.17250000 0.61860001
vt 0.04739999 0.61860001
vt 0.02649998 0.00669998
vt 0.02649998 0.61860001
vt 0.04739999 0.00669998
vt 0.13079999 0.00669998
vt 0.15160000 0.61860001
vt 0.15160000 0.00669998
vt 0.13079999 0.61860001
vt 0.06819999 0.61860001
vt 0.04739999 0.00669998
vt 0.04739999 0.61860001
vt 0.06819999 0.00669998
vt 0.10989990 0.00669998
vt 0.13079999 0.61860001
vt 0.13079999 0.00669998
vt 0.10989990 0.61860001
vt 0.06819999 0.61860001
vt 0.08910000 0.00669998
vt 0.06819999 0.00669998
vt 0.08910000 0.61860001
vt 0.08910000 0.61860001
vt 0.10989990 0.00669998
vt 0.08910000 0.00669998
vt 0.10989990 0.61860001
vt 0.00569999 0.61860001
vt 0.02649998 0.00669998
vt 0.00569999 0.00669998
vt 0.02649998 0.61860001
vt 0.15160000 0.61860001
vt 0.17250000 0.00669998
vt 0.15160000 0.00669998
vt 0.17250000 0.61860001
vt 0.04739999 0.61860001
vt 0.02649998 0.00669998
vt 0.02649998 0.61860001
vt 0.04739999 0.00669998
vt 0.13079999 0.00669998
vt 0.15160000 0.61860001
vt 0.15160000 0.00669998
vt 0.13079999 0.61860001
vt 0.06819999 0.61860001
vt 0.04739999 0.00669998
vt 0.04739999 0.61860001
vt 0.06819999 0.00669998
vt 0.10989990 0.00669998
vt 0.13079999 0.61860001
vt 0.13079999 0.00669998
vt 0.10989990 0.61860001
vt 0.06819999 0.61860001
vt 0.08910000 0.00669998
vt 0.06819999 0.00669998
vt 0.08910000 0.61860001
vt 0.08910000 0.61860001
vt 0.10989990 0.00669998
vt 0.08910000 0.00669998
vt 0.10989990 0.61860001
vt 0.00569999 0.61860001
vt 0.02649998 0.00669998
vt 0.00569999 0.00669998
vt 0.02649998 0.61860001
vt 0.15160000 0.61860001
vt 0.17250000 0.00669998
vt 0.15160000 0.00669998
vt 0.17250000 0.61860001
vt 0.04739999 0.61860001
vt 0.02649998 0.00669998
vt 0.02649998 0.61860001
vt 0.04739999 0.00669998
vt 0.13079999 0.00669998
vt 0.15160000 0.61860001
vt 0.15160000 0.00669998
vt 0.13079999 0.61860001
vt 0.06819999 0.61860001
vt 0.04739999 0.00669998
vt 0.04739999 0.61860001
vt 0.06819999 0.00669998
vt 0.10989990 0.00669998
vt 0.13079999 0.61860001
vt 0.13079999 0.00669998
vt 0.10989990 0.61860001
vt 0.06819999 0.61860001
vt 0.08910000 0.00669998
vt 0.06819999 0.00669998
vt 0.08910000 0.61860001
vt 0.08910000 0.61860001
vt 0.10989990 0.00669998
vt 0.08910000 0.00669998
vt 0.10989990 0.61860001
vt 0.33939999 0.65990001
vt 0.62440002 0.33609998
vt 0.35049999 0.33420002
vt 0.61330003 0.66180003
vt 0.00569999 0.61860001
vt 0.02649998 0.00669998
vt 0.00569999 0.00669998
vt 0.02649998 0.61860001
vt 0.15160000 0.61860001
vt 0.17250000 0.00669998
vt 0.15160000 0.00669998
vt 0.17250000 0.61860001
vt 0.04739999 0.61860001
vt 0.02649998 0.00669998
vt 0.02649998 0.61860001
vt 0.04739999 0.00669998
vt 0.13079999 0.00669998
vt 0.15160000 0.61860001
vt 0.15160000 0.00669998
vt 0.13079999 0.61860001
vt 0.06819999 0.61860001
vt 0.04739999 0.00669998
vt 0.04739999 0.61860001
vt 0.06819999 0.00669998
vt 0.10989990 0.00669998
vt 0.13079999 0.61860001
vt 0.13079999 0.00669998
vt 0.10989990 0.61860001
vt 0.06819999 0.61860001
vt 0.08910000 0.00669998
vt 0.06819999 0.00669998
vt 0.08910000 0.61860001
vt 0.08910000 0.61860001
vt 0.10989990 0.00669998
vt 0.08910000 0.00669998
vt 0.10989990 0.61860001
vt 0.00569999 0.61860001
vt 0.02649998 0.00669998
vt 0.00569999 0.00669998
vt 0.02649998 0.61860001
vt 0.15160000 0.61860001
vt 0.17250000 0.00669998
vt 0.15160000 0.00669998
vt 0.17250000 0.61860001
vt 0.04739999 0.61860001
vt 0.02649998 0.00669998
vt 0.02649998 0.61860001
vt 0.04739999 0.00669998
vt 0.13079999 0.00669998
vt 0.15160000 0.61860001
vt 0.15160000 0.00669998
vt 0.13079999 0.61860001
vt 0.06819999 0.61860001
vt 0.04739999 0.00669998
vt 0.04739999 0.61860001
vt 0.06819999 0.00669998
vt 0.10989990 0.00669998
vt 0.13079999 0.61860001
vt 0.13079999 0.00669998
vt 0.10989990 0.61860001
vt 0.06819999 0.61860001
vt 0.08910000 0.00669998
vt 0.06819999 0.00669998
vt 0.08910000 0.61860001
vt 0.08910000 0.61860001
vt 0.10989990 0.00669998
vt 0.08910000 0.00669998
vt 0.10989990 0.61860001
vt 0.00569999 0.61860001
vt 0.02649998 0.00669998
vt 0.00569999 0.00669998
vt 0.02649998 0.61860001
vt 0.15160000 0.61860001
vt 0.17250000 0.00669998
vt 0.15160000 0.00669998
vt 0.17250000 0.61860001
vt 0.04739999 0.61860001
vt 0.02649998 0.00669998
vt 0.02649998 0.61860001
vt 0.04739999 0.00669998
vt 0.13079999 0.00669998
vt 0.15160000 0.61860001
vt 0.15160000 0.00669998
vt 0.13079999 0.61860001
vt 0.06819999 0.61860001
vt 0.04739999 0.00669998
vt 0.04739999 0.61860001
vt 0.06819999 0.00669998
vt 0.10989990 0.00669998
vt 0.13079999 0.61860001
vt 0.13079999 0.00669998
vt 0.10989990 0.61860001
vt 0.06819999 0.61860001
vt 0.08910000 0.00669998
vt 0.06819999 0.00669998
vt 0.08910000 0.61860001
vt 0.08910000 0.61860001
vt 0.10989990 0.00669998
vt 0.08910000 0.00669998
vt 0.10989990 0.61860001
vt 0.00569999 0.61860001
vt 0.02649998 0.00669998
vt 0.00569999 0.00669998
vt 0.02649998 0.61860001
vt 0.15160000 0.61860001
vt 0.17250000 0.00669998
vt 0.15160000 0.00669998
vt 0.17250000 0.61860001
vt 0.04739999 0.61860001
vt 0.02649998 0.00669998
vt 0.02649998 0.61860001
vt 0.04739999 0.00669998
vt 0.13079999 0.00669998
vt 0.15160000 0.61860001
vt 0.15160000 0.00669998
vt 0.13079999 0.61860001
vt 0.06819999 0.61860001
vt 0.04739999 0.00669998
vt 0.04739999 0.61860001
vt 0.06819999 0.00669998
vt 0.10989990 0.00669998
vt 0.13079999 0.61860001
vt 0.13079999 0.00669998
vt 0.10989990 0.61860001
vt 0.06819999 0.61860001
vt 0.08910000 0.00669998
vt 0.06819999 0.00669998
vt 0.08910000 0.61860001
vt 0.08910000 0.61860001
vt 0.10989990 0.00669998
vt 0.08910000 0.00669998
vt 0.10989990 0.61860001
vt 0.00569999 0.61860001
vt 0.02649998 0.00669998
vt 0.00569999 0.00669998
vt 0.02649998 0.61860001
vt 0.15160000 0.61860001
vt 0.17250000 0.00669998
vt 0.15160000 0.00669998
vt 0.17250000 0.61860001
vt 0.04739999 0.61860001
vt 0.02649998 0.00669998
vt 0.02649998 0.61860001
vt 0.04739999 0.00669998
vt 0.13079999 0.00669998
vt 0.15160000 0.61860001
vt 0.15160000 0.00669998
vt 0.13079999 0.61860001
vt 0.06819999 0.61860001
vt 0.04739999 0.00669998
vt 0.04739999 0.61860001
vt 0.06819999 0.00669998
vt 0.10989990 0.00669998
vt 0.13079999 0.61860001
vt 0.13079999 0.00669998
vt 0.10989990 0.61860001
vt 0.06819999 0.61860001
vt 0.08910000 0.00669998
vt 0.06819999 0.00669998
vt 0.08910000 0.61860001
vt 0.08910000 0.61860001
vt 0.10989990 0.00669998
vt 0.08910000 0.00669998
vt 0.10989990 0.61860001
vt 0.18850000 0.00569999
vt 0.31810001 0.31940001
vt 0.31810001 0.00569999
vt 0.18850000 0.31940001
vt 0.18850000 0.46139997
vt 0.31810001 0.18699998
vt 0.18850000 0.18699998
vt 0.31810001 0.46139997
vt 0.25400001 0.13000000
vt 0.20039991 0.02349269
vt 0.20039991 0.11650002
vt 0.25400001 0.00999999
vt 0.30760011 0.11650729
vt 0.30760011 0.02350003
vt 0.31810001 0.31940001
vt 0.18850000 0.61640000
vt 0.31810001 0.61640000
vt 0.18850000 0.31940001
vt 0.47389990 0.99470001
vt 0.34570000 0.72120011
vt 0.34570000 0.96007389
vt 0.47389990 0.68650001
vt 0.60209990 0.95999998
vt 0.60209990 0.72112620
vt 0.18850000 0.31940001
vt 0.31810001 0.61640000
vt 0.31810001 0.31940001
vt 0.18850000 0.61640000
vt 0.31810001 0.00569999
vt 0.18850000 0.31940001
vt 0.31810001 0.31940001
vt 0.18850000 0.00569999
vt 0.31810001 0.46139997
vt 0.18850000 0.18699998
vt 0.18850000 0.46139997
vt 0.31810001 0.18699998
vt 0.00569999 0.61860001
vt 0.02649998 0.00669998
vt 0.00569999 0.00669998
vt 0.02649998 0.61860001
vt 0.15160000 0.61860001
vt 0.17250000 0.00669998
vt 0.15160000 0.00669998
vt 0.17250000 0.61860001
vt 0.04739999 0.61860001
vt 0.02649998 0.00669998
vt 0.02649998 0.61860001
vt 0.04739999 0.00669998
vt 0.13079999 0.00669998
vt 0.15160000 0.61860001
vt 0.15160000 0.00669998
vt 0.13079999 0.61860001
vt 0.06819999 0.61860001
vt 0.04739999 0.00669998
vt 0.04739999 0.61860001
vt 0.06819999 0.00669998
vt 0.10989990 0.00669998
vt 0.13079999 0.61860001
vt 0.13079999 0.00669998
vt 0.10989990 0.61860001
vt 0.06819999 0.61860001
vt 0.08910000 0.00669998
vt 0.06819999 0.00669998
vt 0.08910000 0.61860001
vt 0.08910000 0.61860001
vt 0.10989990 0.00669998
vt 0.08910000 0.00669998
vt 0.10989990 0.61860001
vt 0.35049999 0.33420002
vt 0.61330003 0.66180003
vt 0.62440002 0.33609998
vt 0.33939999 0.65990001
vt 0.35049999 0.33420002
vt 0.61330003 0.66180003
vt 0.62440002 0.33609998
vt 0.33939999 0.65990001
vt 0.18850000 0.18699998
vt 0.31810001 0.46139997
vt 0.31810001 0.18699998
vt 0.18850000 0.46139997
vt 0.18850000 0.61640000
vt 0.31810001 0.31940001
vt 0.18850000 0.31940001
vt 0.31810001 0.61640000
vt 0.25400001 0.00999999
vt 0.30758330 0.11650729
vt 0.30758330 0.02350003
vt 0.25400001 0.13000000
vt 0.20039991 0.02349269
vt 0.20039991 0.11650002
vt 0.18850000 0.31940001
vt 0.31810001 0.00569999
vt 0.18850000 0.00569999
vt 0.31810001 0.31940001
vt 0.47389990 0.68650007
vt 0.60209990 0.95999998
vt 0.60209990 0.72112620
vt 0.47389990 0.99470001
vt 0.34565970 0.72120011
vt 0.34565970 0.96007389
vt 0.31810001 0.31940001
vt 0.18850000 0.00569999
vt 0.18850000 0.31940001
vt 0.31810001 0.00569999
vt 0.31810001 0.18699998
vt 0.18850000 0.46139997
vt 0.31810001 0.46139997
vt 0.18850000 0.18699998
vt 0.31810001 0.61640000
vt 0.18850000 0.31940001
vt 0.18850000 0.61640000
vt 0.31810001 0.31940001
vt 0.00569999 0.61860001
vt 0.02649998 0.00669998
vt 0.00569999 0.00669998
vt 0.02649998 0.61860001
vt 0.15160000 0.61860001
vt 0.17250000 0.00669998
vt 0.15160000 0.00669998
vt 0.17250000 0.61860001
vt 0.04739999 0.61860001
vt 0.02649998 0.00669998
vt 0.02649998 0.61860001
vt 0.04739999 0.00669998
vt 0.13079999 0.00669998
vt 0.15160000 0.61860001
vt 0.15160000 0.00669998
vt 0.13079999 0.61860001
vt 0.06819999 0.61860001
vt 0.04739999 0.00669998
vt 0.04739999 0.61860001
vt 0.06819999 0.00669998
vt 0.10989990 0.00669998
vt 0.13079999 0.61860001
vt 0.13079999 0.00669998
vt 0.10989990 0.61860001
vt 0.06819999 0.61860001
vt 0.08910000 0.00669998
vt 0.06819999 0.00669998
vt 0.08910000 0.61860001
vt 0.08910000 0.61860001
vt 0.10989990 0.00669998
vt 0.08910000 0.00669998
vt 0.10989990 0.61860001
vt 0.47389990 0.99470001
vt 0.34574020 0.72120011
vt 0.34574020 0.96007389
vt 0.47389990 0.68650007
vt 0.60209990 0.95999998
vt 0.60209990 0.72112620
vt 0.18850000 0.31940001
vt 0.31810001 0.61640000
vt 0.31810001 0.31940001
vt 0.18850000 0.61640000
vt 0.18850000 0.46139997
vt 0.31810001 0.18699998
vt 0.18850000 0.18699998
vt 0.31810001 0.46139997
vt 0.18850000 0.00569999
vt 0.31810001 0.31940001
vt 0.31810001 0.00569999
vt 0.18850000 0.31940001
vt 0.31810001 0.31940001
vt 0.18850000 0.61640000
vt 0.31810001 0.61640000
vt 0.18850000 0.31940001
vt 0.31810001 0.46139997
vt 0.18850000 0.18699998
vt 0.18850000 0.46139997
vt 0.31810001 0.18699998
vt 0.31810001 0.00569999
vt 0.18850000 0.31940001
vt 0.31810001 0.31940001
vt 0.18850000 0.00569999
vt 0.25400001 0.13000000
vt 0.20039991 0.02349269
vt 0.20039991 0.11650002
vt 0.25400001 0.00999999
vt 0.30761689 0.11650729
vt 0.30761689 0.02350003
vt 0.00569999 0.61860001
vt 0.02649998 0.00669998
vt 0.00569999 0.00669998
vt 0.02649998 0.61860001
vt 0.15160000 0.61860001
vt 0.17250000 0.00669998
vt 0.15160000 0.00669998
vt 0.17250000 0.61860001
vt 0.04739999 0.61860001
vt 0.02649998 0.00669998
vt 0.02649998 0.61860001
vt 0.04739999 0.00669998
vt 0.13079999 0.00669998
vt 0.15160000 0.61860001
vt 0.15160000 0.00669998
vt 0.13079999 0.61860001
vt 0.06819999 0.61860001
vt 0.04739999 0.00669998
vt 0.04739999 0.61860001
vt 0.06819999 0.00669998
vt 0.10989990 0.00669998
vt 0.13079999 0.61860001
vt 0.13079999 0.00669998
vt 0.10989990 0.61860001
vt 0.06819999 0.61860001
vt 0.08910000 0.00669998
vt 0.06819999 0.00669998
vt 0.08910000 0.61860001
vt 0.08910000 0.61860001
vt 0.10989990 0.00669998
vt 0.08910000 0.00669998
vt 0.10989990 0.61860001
vt 0.00569999 0.61860001
vt 0.02649998 0.00669998
vt 0.00569999 0.00669998
vt 0.02649998 0.61860001
vt 0.15160000 0.61860001
vt 0.17250000 0.00669998
vt 0.15160000 0.00669998
vt 0.17250000 0.61860001
vt 0.04739999 0.61860001
vt 0.02649998 0.00669998
vt 0.02649998 0.61860001
vt 0.04739999 0.00669998
vt 0.13079999 0.00669998
vt 0.15160000 0.61860001
vt 0.15160000 0.00669998
vt 0.13079999 0.61860001
vt 0.06819999 0.61860001
vt 0.04739999 0.00669998
vt 0.04739999 0.61860001
vt 0.06819999 0.00669998
vt 0.10989990 0.00669998
vt 0.13079999 0.61860001
vt 0.13079999 0.00669998
vt 0.10989990 0.61860001
vt 0.06819999 0.61860001
vt 0.08910000 0.00669998
vt 0.06819999 0.00669998
vt 0.08910000 0.61860001
vt 0.08910000 0.61860001
vt 0.10989990 0.00669998
vt 0.08910000 0.00669998
vt 0.10989990 0.61860001
vt 0.31810001 0.18699998
vt 0.18850000 0.46139997
vt 0.31810001 0.46139997
vt 0.18850000 0.18699998
vt 0.25400001 0.00999999
vt 0.30760011 0.11650729
vt 0.30760011 0.02350003
vt 0.25400001 0.13000000
vt 0.20039991 0.02349269
vt 0.20039991 0.11650002
vt 0.31810001 0.31940001
vt 0.18850000 0.00569999
vt 0.18850000 0.31940001
vt 0.31810001 0.00569999
vt 0.47389990 0.68650001
vt 0.60209990 0.95999998
vt 0.60209990 0.72112620
vt 0.47389990 0.99470001
vt 0.34570000 0.72120011
vt 0.34570000 0.96007389
vt 0.31810001 0.61640000
vt 0.18850000 0.31940001
vt 0.18850000 0.61640000
vt 0.31810001 0.31940001
vt 0.18850000 0.61640000
vt 0.31810001 0.31940001
vt 0.18850000 0.31940001
vt 0.31810001 0.61640000
vt 0.18850000 0.31940001
vt 0.31810001 0.00569999
vt 0.18850000 0.00569999
vt 0.31810001 0.31940001
vt 0.18850000 0.18699998
vt 0.31810001 0.46139997
vt 0.31810001 0.18699998
vt 0.18850000 0.46139997
vt 0.18850000 0.00569999
vt 0.31810001 0.31940001
vt 0.31810001 0.00569999
vt 0.18850000 0.31940001
vt 0.18850000 0.46139997
vt 0.31810001 0.18699998
vt 0.18850000 0.18699998
vt 0.31810001 0.46139997
vt 0.25400001 0.13000000
vt 0.20039991 0.02349269
vt 0.20039991 0.11650002
vt 0.25400001 0.00999999
vt 0.30760011 0.11650729
vt 0.30758309 0.02350003
vt 0.31810001 0.31940001
vt 0.18850000 0.61640000
vt 0.31810001 0.61640000
vt 0.18850000 0.31940001
vt 0.47389990 0.99470001
vt 0.34565920 0.72120011
vt 0.34565920 0.96007389
vt 0.47389990 0.68650001
vt 0.60209990 0.95999998
vt 0.60214072 0.72112620
vt 0.18850000 0.31940001
vt 0.31810001 0.61640000
vt 0.31810001 0.31940001
vt 0.18850000 0.61640000
vt 0.31810001 0.00569999
vt 0.18850000 0.31940001
vt 0.31810001 0.31940001
vt 0.18850000 0.00569999
vt 0.31810001 0.46139997
vt 0.18850000 0.18699998
vt 0.18850000 0.46139997
vt 0.31810001 0.18699998
vt 0.18850000 0.31940001
vt 0.31810001 0.00569999
vt 0.18850000 0.00569999
vt 0.31810001 0.31940001
vt 0.18850000 0.18699998
vt 0.31810001 0.46139997
vt 0.31810001 0.18699998
vt 0.18850000 0.46139997
vt 0.25400001 0.00999999
vt 0.30759799 0.11650729
vt 0.30759799 0.02350003
vt 0.25400001 0.13000000
vt 0.20039991 0.02349269
vt 0.20039991 0.11650002
vt 0.31810001 0.61640000
vt 0.18850000 0.31940001
vt 0.18850000 0.61640000
vt 0.31810001 0.31940001
vt 0.47389990 0.68650007
vt 0.60209990 0.95999998
vt 0.60209990 0.72112620
vt 0.47389990 0.99470001
vt 0.34569490 0.72120011
vt 0.34569490 0.96007389
vt 0.18850000 0.61640000
vt 0.31810001 0.31940001
vt 0.18850000 0.31940001
vt 0.31810001 0.61640000
vt 0.31810001 0.31940001
vt 0.18850000 0.00569999
vt 0.18850000 0.31940001
vt 0.31810001 0.00569999
vt 0.31810001 0.18699998
vt 0.18850000 0.46139997
vt 0.31810001 0.46139997
vt 0.18850000 0.18699998
vt 0.18850000 0.00569999
vt 0.31810001 0.31940001
vt 0.31810001 0.00569999
vt 0.18850000 0.31940001
vt 0.18850000 0.46139997
vt 0.31810001 0.18699998
vt 0.18850000 0.18699998
vt 0.31810001 0.46139997
vt 0.25400001 0.13000000
vt 0.20039991 0.02349269
vt 0.20039991 0.11650002
vt 0.25400001 0.00999999
vt 0.30760220 0.11650729
vt 0.30760220 0.02350003
vt 0.31810001 0.31940001
vt 0.18850000 0.61640000
vt 0.31810001 0.61640000
vt 0.18850000 0.31940001
vt 0.47389990 0.99470001
vt 0.34570500 0.72120011
vt 0.34570500 0.96007389
vt 0.47389990 0.68650007
vt 0.60209990 0.95999998
vt 0.60209990 0.72112620
vt 0.18850000 0.31940001
vt 0.31810001 0.61640000
vt 0.31810001 0.31940001
vt 0.18850000 0.61640000
vt 0.31810001 0.00569999
vt 0.18850000 0.31940001
vt 0.31810001 0.31940001
vt 0.18850000 0.00569999
vt 0.31810001 0.46139997
vt 0.18850000 0.18699998
vt 0.18850000 0.46139997
vt 0.31810001 0.18699998
vt 0.18850000 0.31940001
vt 0.31810001 0.00569999
vt 0.18850000 0.00569999
vt 0.31810001 0.31940001
vt 0.18850000 0.18699998
vt 0.31810001 0.46139997
vt 0.31810001 0.18699998
vt 0.18850000 0.46139997
vt 0.25400001 0.00999999
vt 0.30760011 0.11650729
vt 0.30760011 0.02350003
vt 0.25400001 0.13000000
vt 0.20041689 0.02349269
vt 0.20039991 0.11650002
vt 0.31810001 0.61640000
vt 0.18850000 0.31940001
vt 0.18850000 0.61640000
vt 0.31810001 0.31940001
vt 0.47389990 0.68650001
vt 0.60209990 0.95999998
vt 0.60209990 0.72112620
vt 0.47389990 0.99470001
vt 0.34570000 0.72120011
vt 0.34574071 0.96007389
vt 0.18850000 0.61640000
vt 0.31810001 0.31940001
vt 0.18850000 0.31940001
vt 0.31810001 0.61640000
vt 0.31810001 0.31940001
vt 0.18850000 0.00569999
vt 0.18850000 0.31940001
vt 0.31810001 0.00569999
vt 0.31810001 0.18699998
vt 0.18850000 0.46139997
vt 0.31810001 0.46139997
vt 0.18850000 0.18699998
vt 0.80010003 0.00000000
vt 0.92420000 2.74170017
vt 0.92420000 0.00000000
vt 0.80010003 2.74170017
vt 0.92690003 0.00000000
vt 0.99900001 1.00000000
vt 0.92690003 1.00000000
vt 0.99900001 0.00000000
vt 0.99900001 0.00000000
vt 0.92690003 1.00000000
vt 0.99900001 1.00000000
vt 0.92690003 0.00000000
vt 0.99900001 1.00000000
vt 0.92690003 0.00000000
vt 0.92690003 1.00000000
vt 0.99900001 0.00000000
vt 0.92690003 1.00000000
vt 0.99900001 0.00000000
vt 0.99900001 1.00000000
vt 0.92690003 0.00000000
vt 0.80010003 2.08610010
vt 0.92420000 -0.65569997
vt 0.80010003 -0.65569997
vt 0.92420000 2.08610010
vt 0.00569999 0.61860001
vt 0.02649998 0.00669998
vt 0.00569999 0.00669998
vt 0.02649998 0.61860001
vt 0.15160000 0.61860001
vt 0.17250000 0.00669998
vt 0.15160000 0.00669998
vt 0.17250000 0.61860001
vt 0.04739999 0.61860001
vt 0.02649998 0.00669998
vt 0.02649998 0.61860001
vt 0.04739999 0.00669998
vt 0.13079999 0.00669998
vt 0.15160000 0.61860001
vt 0.15160000 0.00669998
vt 0.13079999 0.61860001
vt 0.06819999 0.61860001
vt 0.04739999 0.00669998
vt 0.04739999 0.61860001
vt 0.06819999 0.00669998
vt 0.10989990 0.00669998
vt 0.13079999 0.61860001
vt 0.13079999 0.00669998
vt 0.10989990 0.61860001
vt 0.06819999 0.61860001
vt 0.08910000 0.00669998
vt 0.06819999 0.00669998
vt 0.08910000 0.61860001
vt 0.08910000 0.61860001
vt 0.10989990 0.00669998
vt 0.08910000 0.00669998
vt 0.10989990 0.61860001
vt 0.80010003 -0.65569997
vt 0.92420000 2.08610010
vt 0.92420000 -0.65569997
vt 0.80010003 2.08610010
vt 0.92690003 0.00000000
vt 0.99900001 1.00000000
vt 0.92690003 1.00000000
vt 0.99900001 0.00000000
vt 0.99900001 0.00000000
vt 0.92690003 1.00000000
vt 0.99900001 1.00000000
vt 0.92690003 0.00000000
vt 0.99900001 1.00000000
vt 0.92690003 0.00000000
vt 0.92690003 1.00000000
vt 0.99900001 0.00000000
vt 0.92690003 1.00000000
vt 0.99900001 0.00000000
vt 0.99900001 1.00000000
vt 0.92690003 0.00000000
vt 0.80010003 2.74170017
vt 0.92420000 0.00000000
vt 0.80010003 0.00000000
vt 0.92420000 2.74170017
vt 0.00569999 0.61860001
vt 0.02649998 0.00669998
vt 0.00569999 0.00669998
vt 0.02649998 0.61860001
vt 0.15160000 0.61860001
vt 0.17250000 0.00669998
vt 0.15160000 0.00669998
vt 0.17250000 0.61860001
vt 0.04739999 0.61860001
vt 0.02649998 0.00669998
vt 0.02649998 0.61860001
vt 0.04739999 0.00669998
vt 0.13079999 0.00669998
vt 0.15160000 0.61860001
vt 0.15160000 0.00669998
vt 0.13079999 0.61860001
vt 0.06819999 0.61860001
vt 0.04739999 0.00669998
vt 0.04739999 0.61860001
vt 0.06819999 0.00669998
vt 0.10989990 0.00669998
vt 0.13079999 0.61860001
vt 0.13079999 0.00669998
vt 0.10989990 0.61860001
vt 0.06819999 0.61860001
vt 0.08910000 0.00669998
vt 0.06819999 0.00669998
vt 0.08910000 0.61860001
vt 0.08910000 0.61860001
vt 0.10989990 0.00669998
vt 0.08910000 0.00669998
vt 0.10989990 0.61860001
vt 0.80010003 0.00000000
vt 0.92420000 2.74170017
vt 0.92420000 0.00000000
vt 0.80010003 2.74170017
vt 0.92690003 0.00000000
vt 0.99900001 1.00000000
vt 0.92690003 1.00000000
vt 0.99900001 0.00000000
vt 0.99900001 0.00000000
vt 0.92690003 1.00000000
vt 0.99900001 1.00000000
vt 0.92690003 0.00000000
vt 0.99900001 1.00000000
vt 0.92690003 0.00000000
vt 0.92690003 1.00000000
vt 0.99900001 0.00000000
vt 0.92690003 1.00000000
vt 0.99900001 0.00000000
vt 0.99900001 1.00000000
vt 0.92690003 0.00000000
vt 0.80010003 2.74170017
vt 0.92420000 0.00000000
vt 0.80010003 0.00000000
vt 0.92420000 2.74170017
vt 0.00569999 0.61860001
vt 0.02649998 0.00669998
vt 0.00569999 0.00669998
vt 0.02649998 0.61860001
vt 0.15160000 0.61860001
vt 0.17250000 0.00669998
vt 0.15160000 0.00669998
vt 0.17250000 0.61860001
vt 0.04739999 0.61860001
vt 0.02649998 0.00669998
vt 0.02649998 0.61860001
vt 0.04739999 0.00669998
vt 0.13079999 0.00669998
vt 0.15160000 0.61860001
vt 0.15160000 0.00669998
vt 0.13079999 0.61860001
vt 0.06819999 0.61860001
vt 0.04739999 0.00669998
vt 0.04739999 0.61860001
vt 0.06819999 0.00669998
vt 0.10989990 0.00669998
vt 0.13079999 0.61860001
vt 0.13079999 0.00669998
vt 0.10989990 0.61860001
vt 0.06819999 0.61860001
vt 0.08910000 0.00669998
vt 0.06819999 0.00669998
vt 0.08910000 0.61860001
vt 0.08910000 0.61860001
vt 0.10989990 0.00669998
vt 0.08910000 0.00669998
vt 0.10989990 0.61860001
vt 0.80010003 0.00000000
vt 0.92420000 2.74170017
vt 0.92420000 0.00000000
vt 0.80010003 2.74170017
vt 0.92690003 0.00000000
vt 0.99900001 1.00000000
vt 0.92690003 1.00000000
vt 0.99900001 0.00000000
vt 0.99900001 0.00000000
vt 0.92690003 1.00000000
vt 0.99900001 1.00000000
vt 0.92690003 0.00000000
vt 0.99900001 1.00000000
vt 0.92690003 0.00000000
vt 0.92690003 1.00000000
vt 0.99900001 0.00000000
vt 0.92690003 1.00000000
vt 0.99900001 0.00000000
vt 0.99900001 1.00000000
vt 0.92690003 0.00000000
vt 0.80010003 2.74170017
vt 0.92420000 0.00000000
vt 0.80010003 0.00000000
vt 0.92420000 2.74170017
vt 0.33939999 0.65990001
vt 0.62440002 0.33609998
vt 0.35049999 0.33420002
vt 0.61330003 0.66180003
f 1/1 2/2 3/3
f 2/2 1/1 4/4
f 5/5 6/6 7/7
f 6/6 5/5 8/8
f 9/9 10/10 11/11
f 10/10 9/9 12/12
f 13/13 14/14 15/15
f 14/14 13/13 16/16
f 17/17 18/18 19/19
f 18/18 17/17 20/20
f 21/21 22/22 23/23
f 22/22 21/21 24/24
f 25/25 26/26 27/27
f 26/26 25/25 28/28
f 29/29 30/30 31/31
f 30/30 29/29 32/32
f 33/33 34/34 35/35
f 34/34 33/33 36/36
f 37/37 38/38 39/39
f 38/38 37/37 40/40
f 41/41 42/42 43/43
f 42/42 41/41 44/44
f 45/45 46/46 47/47
f 46/46 45/45 48/48
f 49/49 50/50 51/51
f 50/50 49/49 52/52
f 53/53 54/54 55/55
f 54/54 53/53 56/56
f 57/57 58/58 59/59
f 58/58 57/57 60/60
f 61/61 62/62 63/63
f 62/62 61/61 64/64
f 65/65 66/66 67/67
f 66/66 65/65 68/68
f 69/69 70/70 71/71
f 70/70 69/69 72/72
f 73/73 74/74 75/75
f 74/74 73/73 76/76
f 77/77 78/78 79/79
f 78/78 77/77 80/80
f 81/81 82/82 83/83
f 82/82 81/81 84/84
f 85/85 86/86 87/87
f 86/86 85/85 88/88
f 89/89 90/90 91/91
f 90/90 89/89 92/92
f 93/93 94/94 95/95
f 94/94 93/93 96/96
f 97/97 98/98 99/99
f 98/98 97/97 100/100
f 101/101 102/102 103/103
f 102/102 101/101 104/104
f 105/105 106/106 107/107
f 106/106 105/105 108/108
f 109/109 110/110 111/111
f 110/110 109/109 112/112
f 113/113 114/114 115/115
f 114/114 113/113 116/116
f 117/117 118/118 119/119
f 118/118 117/117 120/120
f 121/121 122/122 123/123
f 122/122 121/121 124/124
f 125/125 126/126 127/127
f 126/126 125/125 128/128
f 129/129 130/130 131/131
f 130/130 129/129 132/132
f 133/133 134/134 135/135
f 134/134 133/133 136/136
f 137/137 138/138 139/139
f 138/138 137/137 140/140
f 141/141 142/142 143/143
f 142/142 141/141 144/144
f 145/145 146/146 147/147
f 146/146 145/145 148/148
f 149/149 150/150 151/151
f 150/150 149/149 152/152
f 153/153 154/154 155/155
f 154/154 153/153 156/156
f 157/157 158/158 159/159
f 158/158 157/157 160/160
f 161/161 162/162 163/163
f 162/162 161/161 164/164
f 165/165 166/166 167/167
f 166/166 165/165 168/168
f 169/169 170/170 171/171
f 170/170 169/169 172/172
f 173/173 174/174 175/175
f 174/174 173/173 176/176
f 177/177 178/178 179/179
f 178/178 177/177 180/180
f 181/181 182/182 183/183
f 182/182 181/181 184/184
f 185/185 186/186 187/187
f 186/186 185/185 188/188
f 189/189 190/190 191/191
f 190/190 189/189 192/192
f 193/193 194/194 195/195
f 194/194 193/193 196/196
f 197/197 198/198 199/199
f 198/198 197/197 200/200
f 201/201 202/202 203/203
f 202/202 201/201 204/204
f 205/205 206/206 207/207
f 206/206 205/205 208/208
f 209/209 210/210 211/211
f 210/210 209/209 212/212
f 213/213 214/214 215/215
f 214/214 213/213 216/216
f 217/217 218/218 219/219
f 218/218 217/217 220/220
f 221/221 222/222 223/223
f 222/222 221/221 224/224
f 225/225 226/226 227/227
f 226/226 225/225 228/228
f 229/229 230/230 231/231
f 230/230 229/229 232/232
f 233/233 234/234 235/235
f 234/234 233/233 236/236
f 237/237 238/238 239/239
f 238/238 237/237 240/240
f 241/241 242/242 243/243
f 242/242 241/241 244/244
f 245/245 246/246 247/247
f 246/246 245/245 248/248
f 249/249 250/250 251/251
f 250/250 249/249 252/252
f 253/253 254/254 255/255
f 254/254 253/253 256/256
f 257/257 258/258 259/259
f 258/258 257/257 260/260
f 261/261 262/262 263/263
f 262/262 261/261 264/264
f 265/265 266/266 267/267
f 266/266 265/265 268/268
f 269/269 270/270 271/271
f 270/270 269/269 272/272
f 273/273 274/274 275/275
f 274/274 273/273 276/276
f 277/277 278/278 279/279
f 278/278 277/277 280/280
f 281/281 282/282 283/283
f 282/282 281/281 284/284
f 285/285 286/286 287/287
f 286/286 285/285 288/288
f 289/289 290/290 291/291
f 290/290 289/289 292/292
f 293/293 294/294 295/295
f 294/294 293/293 296/296
f 297/297 298/298 299/299
f 298/298 297/297 300/300
f 301/301 302/302 303/303
f 302/302 301/301 304/304
f 304/304 301/301 305/305
f 304/304 305/305 306/306
f 307/307 308/308 309/309
f 308/308 307/307 310/310
f 311/311 312/312 313/313
f 312/312 311/311 314/314
f 314/314 311/311 315/315
f 314/314 315/315 316/316
f 317/317 318/318 319/319
f 318/318 317/317 320/320
f 321/321 322/322 323/323
f 322/322 321/321 324/324
f 325/325 326/326 327/327
f 326/326 325/325 328/328
f 329/329 330/330 331/331
f 330/330 329/329 332/332
f 333/333 334/334 335/335
f 334/334 333/333 336/336
f 337/337 338/338 339/339
f 338/338 337/337 340/340
f 341/341 342/342 343/343
f 342/342 341/341 344/344
f 345/345 346/346 347/347
f 346/346 345/345 348/348
f 349/349 350/350 351/351
f 350/350 349/349 352/352
f 353/353 354/354 355/355
f 354/354 353/353 356/356
f 357/357 358/358 359/359
f 358/358 357/357 360/360
f 361/361 362/362 363/363
f 362/362 361/361 364/364
f 365/365 366/366 367/367
f 366/366 365/365 368/368
f 369/369 370/370 371/371
f 370/370 369/369 372/372
f 373/373 374/374 375/375
f 374/374 373/373 376/376
f 377/377 378/378 379/379
f 378/378 377/377 380/380
f 380/380 377/377 381/381
f 380/380 381/381 382/382
f 383/383 384/384 385/385
f 384/384 383/383 386/386
f 387/387 388/388 389/389
f 388/388 387/387 390/390
f 390/390 387/387 391/391
f 390/390 391/391 392/392
f 393/393 394/394 395/395
f 394/394 393/393 396/396
f 397/397 398/398 399/399
f 398/398 397/397 400/400
f 401/401 402/402 403/403
f 402/402 401/401 404/404
f 405/405 406/406 407/407
f 406/406 405/405 408/408
f 409/409 410/410 411/411
f 410/410 409/409 412/412
f 413/413 414/414 415/415
f 414/414 413/413 416/416
f 417/417 418/418 419/419
f 418/418 417/417 420/420
f 421/421 422/422 423/423
f 422/422 421/421 424/424
f 425/425 426/426 427/427
f 426/426 425/425 428/428
f 429/429 430/430 431/431
f 430/430 429/429 432/432
f 433/433 434/434 435/435
f 434/434 433/433 436/436
f 437/437 438/438 439/439
f 438/438 437/437 440/440
f 440/440 437/437 441/441
f 440/440 441/441 442/442
f 443/443 444/444 445/445
f 444/444 443/443 446/446
f 447/447 448/448 449/449
f 448/448 447/447 450/450
f 451/451 452/452 453/453
f 452/452 451/451 454/454
f 455/455 456/456 457/457
f 456/456 455/455 458/458
f 459/459 460/460 461/461
f 460/460 459/459 462/462
f 463/463 464/464 465/465
f 464/464 463/463 466/466
f 467/467 468/468 469/469
f 468/468 467/467 470/470
f 470/470 467/467 471/471
f 470/470 471/471 472/472
f 473/473 474/474 475/475
f 474/474 473/473 476/476
f 477/477 478/478 479/479
f 478/478 477/477 480/480
f 481/481 482/482 483/483
f 482/482 481/481 484/484
f 485/485 486/486 487/487
f 486/486 485/485 488/488
f 489/489 490/490 491/491
f 490/490 489/489 492/492
f 493/493 494/494 495/495
f 494/494 493/493 496/496
f 497/497 498/498 499/499
f 498/498 497/497 500/500
f 501/501 502/502 503/503
f 502/502 501/501 504/504
f 505/505 506/506 507/507
f 506/506 505/505 508/508
f 509/509 510/510 511/511
f 510/510 509/509 512/512
f 513/513 514/514 515/515
f 514/514 513/513 516/516
f 517/517 518/518 519/519
f 518/518 517/517 520/520
f 521/521 522/522 523/523
f 522/522 521/521 524/524
f 525/525 526/526 527/527
f 526/526 525/525 528/528
f 529/529 530/530 531/531
f 530/530 529/529 532/532
f 533/533 534/534 535/535
f 534/534 533/533 536/536
f 537/537 538/538 539/539
f 538/538 537/537 540/540
f 541/541 542/542 543/543
f 542/542 541/541 544/544
f 544/544 541/541 545/545
f 544/544 545/545 546/546
f 547/547 548/548 549/549
f 548/548 547/547 550/550
f 551/551 552/552 553/553
f 552/552 551/551 554/554
f 554/554 551/551 555/555
f 554/554 555/555 556/556
f 557/557 558/558 559/559
f 558/558 557/557 560/560
f 561/561 562/562 563/563
f 562/562 561/561 564/564
f 565/565 566/566 567/567
f 566/566 565/565 568/568
f 569/569 570/570 571/571
f 570/570 569/569 572/572
f 573/573 574/574 575/575
f 574/574 573/573 576/576
f 577/577 578/578 579/579
f 578/578 577/577 580/580
f 581/581 582/582 583/583
f 582/582 581/581 584/584
f 584/584 581/581 585/585
f 584/584 585/585 586/586
f 587/587 588/588 589/589
f 588/588 587/587 590/590
f 591/591 592/592 593/593
f 592/592 591/591 594/594
f 594/594 591/591 595/595
f 594/594 595/595 596/596
f 597/597 598/598 599/599
f 598/598 597/597 600/600
f 601/601 602/602 603/603
f 602/602 601/601 604/604
f 605/605 606/606 607/607
f 606/606 605/605 608/608
f 609/609 610/610 611/611
f 610/610 609/609 612/612
f 613/613 614/614 615/615
f 614/614 613/613 616/616
f 617/617 618/618 619/619
f 618/618 617/617 620/620
f 620/620 617/617 621/621
f 620/620 621/621 622/622
f 623/623 624/624 625/625
f 624/624 623/623 626/626
f 627/627 628/628 629/629
f 628/628 627/627 630/630
f 630/630 627/627 631/631
f 630/630 631/631 632/632
f 633/633 634/634 635/635
f 634/634 633/633 636/636
f 637/637 638/638 639/639
f 638/638 637/637 640/640
f 641/641 642/642 643/643
f 642/642 641/641 644/644
f 645/645 646/646 647/647
f 646/646 645/645 648/648
f 649/649 650/650 651/651
f 650/650 649/649 652/652
f 653/653 654/654 655/655
f 654/654 653/653 656/656
f 656/656 653/653 657/657
f 656/656 657/657 658/658
f 659/659 660/660 661/661
f 660/660 659/659 662/662
f 663/663 664/664 665/665
f 664/664 663/663 666/666
f 666/666 663/663 667/667
f 666/666 667/667 668/668
f 669/669 670/670 671/671
f 670/670 669/669 672/672
f 673/673 674/674 675/675
f 674/674 673/673 676/676
f 677/677 678/678 679/679
f 678/678 677/677 680/680
f 681/681 682/682 683/683
f 682/682 681/681 684/684
f 685/685 686/686 687/687
f 686/686 685/685 688/688
f 689/689 690/690 691/691
f 690/690 689/689 692/692
f 692/692 689/689 693/693
f 692/692 693/693 694/694
f 695/695 696/696 697/697
f 696/696 695/695 698/698
f 699/699 700/700 701/701
f 700/700 699/699 702/702
f 702/702 699/699 703/703
f 702/702 703/703 704/704
f 705/705 706/706 707/707
f 706/706 705/705 708/708
f 709/709 710/710 711/711
f 710/710 709/709 712/712
f 713/713 714/714 715/715
f 714/714 713/713 716/716
f 717/717 718/718 719/719
f 718/718 717/717 720/720
f 721/721 722/722 723/723
f 722/722 721/721 724/724
f 725/725 726/726 727/727
f 726/726 725/725 728/728
f 729/729 730/730 731/731
f 730/730 729/729 732/732
f 733/733 734/734 735/735
f 734/734 733/733 736/736
f 737/737 738/738 739/739
f 738/738 737/737 740/740
f 741/741 742/742 743/743
f 742/742 741/741 744/744
f 745/745 746/746 747/747
f 746/746 745/745 748/748
f 749/749 750/750 751/751
f 750/750 749/749 752/752
f 753/753 754/754 755/755
f 754/754 753/753 756/756
f 757/757 758/758 759/759
f 758/758 757/757 760/760
f 761/761 762/762 763/763
f 762/762 761/761 764/764
f 765/765 766/766 767/767
f 766/766 765/765 768/768
f 769/769 770/770 771/771
f 770/770 769/769 772/772
f 773/773 774/774 775/775
f 774/774 773/773 776/776
f 777/777 778/778 779/779
f 778/778 777/777 780/780
f 781/781 782/782 783/783
f 782/782 781/781 784/784
f 785/785 786/786 787/787
f 786/786 785/785 788/788
f 789/789 790/790 791/791
f 790/790 789/789 792/792
f 793/793 794/794 795/795
f 794/794 793/793 796/796
f 797/797 798/798 799/799
f 798/798 797/797 800/800
f 801/801 802/802 803/803
f 802/802 801/801 804/804
f 805/805 806/806 807/807
f 806/806 805/805 808/808
f 809/809 810/810 811/811
f 810/810 809/809 812/812
f 813/813 814/814 815/815
f 814/814 813/813 816/816
f 817/817 818/818 819/819
f 818/818 817/817 820/820
f 821/821 822/822 823/823
f 822/822 821/821 824/824
f 825/825 826/826 827/827
f 826/826 825/825 828/828
f 829/829 830/830 831/831
f 830/830 829/829 832/832
f 833/833 834/834 835/835
f 834/834 833/833 836/836
f 837/837 838/838 839/839
f 838/838 837/837 840/840
f 841/841 842/842 843/843
f 842/842 841/841 844/844
f 845/845 846/846 847/847
f 846/846 845/845 848/848
f 849/849 850/850 851/851
f 850/850 849/849 852/852
f 853/853 854/854 855/855
f 854/854 853/853 856/856
f 857/857 858/858 859/859
f 858/858 857/857 860/860
f 861/861 862/862 863/863
f 862/862 861/861 864/864
f 865/865 866/866 867/867
f 866/866 865/865 868/868
f 869/869 870/870 871/871
f 870/870 869/869 872/872
f 873/873 874/874 875/875
f 874/874 873/873 876/876
f 877/877 878/878 879/879
f 878/878 877/877 880/880
f 881/881 882/882 883/883
f 882/882 881/881 884/884
f 885/885 886/886 887/887
f 886/886 885/885 888/888
f 889/889 890/890 891/891
f 890/890 889/889 892/892
f 893/893 894/894 895/895
f 894/894 893/893 896/896
f 897/897 898/898 899/899
f 898/898 897/897 900/900
f 901/901 902/902 903/903
f 902/902 901/901 904/904
f 905/905 906/906 907/907
f 906/906 905/905 908/908
f 909/909 910/910 911/911
f 910/910 909/909 912/912

