# https://github.com/mikedh/trimesh
v 1.31004540 -1.51835065 -0.73363614
v 0.91853596 -1.60871319 -0.73364478
v 0.91857312 -1.51831721 -0.73367779
v 1.31000230 -1.60871591 -0.73365471
v 0.91846068 -1.51835334 -0.73369459
v -0.75794505 -1.60871346 -0.73366579
v -0.75790961 -1.51831426 -0.73365997
v 0.91857505 -1.60871720 -0.73364510
v 1.60119254 -1.51834364 -0.73367902
v 1.31001295 -1.60871078 -0.73364916
v 1.31001022 -1.51835304 -0.73366092
v 1.60118131 -1.60868994 -0.73364498
v -0.75794262 -1.51835057 -0.73363170
v -1.04899426 -1.60873560 -0.73360908
v -1.04899883 -1.51832235 -0.73364779
v -0.75793209 -1.60865142 -0.73359525
v 1.60122037 -1.60865585 -0.73364491
v 1.60112711 -1.45811369 -0.34212808
v 1.60112463 -1.60868435 -0.34213510
v 1.60118612 -1.51838325 -0.73367649
v 1.82200064 -1.04656777 -0.34209453
v 1.97257497 -1.04652133 -0.73366400
v 1.88229271 -1.04649062 -0.73363636
v 1.97252206 -1.04652991 -0.34212724
v 1.97262144 -1.04655067 -0.73359954
v 1.88220274 -1.43806005 -0.73362702
v 1.88224517 -1.04646948 -0.73365015
v 1.97257071 -1.43805125 -0.73368979
vt 3.78130007 9.56250000
vt 4.39060020 9.00000000
vt 4.39060020 9.56250000
vt 3.78130007 9.00000000
vt 4.36719990 9.56250000
vt 6.97657585 9.00000000
vt 6.97657585 9.56250000
vt 4.36719990 9.00000000
vt 4.01560020 9.56250000
vt 4.46880007 9.00000000
vt 4.46880007 9.56250000
vt 4.01560020 9.00000000
vt 7.01560020 9.56250000
vt 7.46880007 9.00000000
vt 7.46880007 9.56250000
vt 7.01560020 9.00000000
vt -2.24995899 -5.87500000
vt -2.48440003 -8.31250000
vt -2.25000000 -8.31250000
vt -2.39059997 -5.87500000
vt -4.48439980 -8.31250000
vt -4.24996090 -5.87500000
vt -4.39060020 -5.87500000
vt -4.25000000 -8.31250000
vt -2.64059997 15.00000000
vt -2.03130007 15.56250000
vt -2.64059997 15.56250000
vt -2.03130007 15.00000000
f 1/1 2/2 3/3
f 2/2 1/1 4/4
f 5/5 6/6 7/7
f 6/6 5/5 8/8
f 9/9 10/10 11/11
f 10/10 9/9 12/12
f 13/13 14/14 15/15
f 14/14 13/13 16/16
f 17/17 18/18 19/19
f 18/18 17/17 20/20
f 21/21 22/22 23/23
f 22/22 21/21 24/24
f 25/25 26/26 27/27
f 26/26 25/25 28/28

