# https://github.com/mikedh/trimesh
v 2.34403287 0.45926187 -1.26566734
v 2.34403171 0.88086343 -1.11510408
v 2.34409839 0.45932188 -1.11516340
v 2.34395551 0.88085859 -1.26570058
v -3.17735829 1.10173147 -1.11519347
v -3.17726972 0.68008978 -1.26572054
v -3.17720611 0.68017801 -1.11513133
v -3.17715302 1.10170665 -1.26568333
vt 7.09030008 -0.35329998
vt 8.00170135 -0.67879999
vt 7.09030008 -0.67879999
vt 8.00170135 -0.35329998
vt -8.90970135 -0.67879999
vt -7.99830008 -0.35329998
vt -7.99830008 -0.67879999
vt -8.90970135 -0.35329998
f 1/1 2/2 3/3
f 2/2 1/1 4/4
f 5/5 6/6 7/7
f 6/6 5/5 8/8

