# https://github.com/mikedh/trimesh
v -0.53834429 7.92306766 0.51115526
v -0.54610356 7.95703548 0.51114888
v -0.54607614 7.93919524 0.51112452
v -0.53837611 7.97313516 0.51114156
v -0.52443061 7.91192432 0.51111212
v -0.52439419 7.98427894 0.51113338
v -0.50694615 7.90797611 0.51113767
v -0.50692432 7.98825200 0.51114865
v -0.48951303 7.91193147 0.51112361
v -0.48955477 7.98428091 0.51114565
v -0.47558705 7.92306590 0.51113697
v -0.47555160 7.97315432 0.51114874
v -0.46782501 7.93917062 0.51115854
v -0.46777591 7.95701894 0.51117524
v -0.54607518 7.93919145 0.51114666
v -0.53835435 7.92310463 -1.61701200
v -0.53830597 7.92310075 0.51114879
v -0.54613359 7.93917348 -1.61704181
v -0.52440690 7.91193836 0.51115044
v -0.53833125 7.92304421 -1.61707196
v -0.52438742 7.91190257 -1.61701705
v -0.53835851 7.92307820 0.51113470
v -0.50691935 7.90798247 0.51115510
v -0.52442783 7.91193051 -1.61704119
v -0.50693261 7.90793936 -1.61701516
v -0.52440764 7.91191419 0.51116200
v -0.48953257 7.91197511 -1.61705252
v -0.50697005 7.90794364 0.51111566
v -0.50698479 7.90796791 -1.61704354
v -0.48950409 7.91191206 0.51117924
v -0.47557054 7.92310729 -1.61706672
v -0.48955051 7.91193503 0.51116420
v -0.48953001 7.91191593 -1.61708750
v -0.47559602 7.92308217 0.51116325
v -0.47556772 7.92304672 -1.61703686
v -0.46783934 7.93915728 0.51115482
v -0.47561542 7.92307951 0.51112731
v -0.46780756 7.93917185 -1.61705221
v -0.46779418 7.93915624 -1.61702433
v -0.46779345 7.95706702 0.51116725
v -0.46779205 7.93919289 0.51114234
v -0.46784269 7.95704464 -1.61707439
v -0.46784260 7.95705364 -1.61706979
v -0.47558752 7.97312556 0.51114675
v -0.46780186 7.95707797 0.51114030
v -0.47554014 7.97318270 -1.61703049
v -0.48958778 7.98431948 -1.61704902
v -0.47555427 7.97315790 0.51114937
v -0.47555666 7.97314243 -1.61710028
v -0.48953618 7.98427300 0.51116532
v -0.50696217 7.98827034 -1.61707622
v -0.48954537 7.98429112 0.51110664
v -0.48952682 7.98428896 -1.61708391
v -0.50701041 7.98827894 0.51113381
v -0.52438956 7.98428598 0.51118215
v -0.50695671 7.98827041 -1.61709080
v -0.52433977 7.98431236 -1.61703239
v -0.50695448 7.98828817 0.51114910
v -0.53833315 7.97314593 0.51110691
v -0.52435391 7.98424713 -1.61706228
v -0.53835185 7.97312679 -1.61704277
v -0.52438202 7.98428139 0.51115250
v -0.53835807 7.97318118 0.51114865
v -0.54611680 7.95700327 -1.61708670
v -0.54608110 7.95704657 0.51113414
v -0.53830959 7.97312130 -1.61707018
v -0.54611676 7.95706114 0.51112544
v -0.54611999 7.93913688 -1.61704015
v -0.54608752 7.93916269 0.51114435
v -0.54613552 7.95703694 -1.61702528
v -0.53834406 7.97320347 -1.61707479
v -0.54609269 7.93916911 -1.61704389
v -0.54610612 7.95703490 -1.61707663
v -0.53827705 7.92306952 -1.61710295
v -0.52439227 7.98430689 -1.61706822
v -0.52434633 7.91195225 -1.61706031
v -0.50696637 7.98824545 -1.61707280
v -0.50698926 7.90798103 -1.61702045
v -0.48956242 7.98426436 -1.61709723
v -0.48955573 7.91185828 -1.61708295
v -0.47553431 7.97314273 -1.61703725
v -0.47557515 7.92311155 -1.61705227
v -0.46781879 7.95710610 -1.61706421
v -0.46783799 7.93917820 -1.61705772
v -0.55822513 8.32352262 0.54063198
v -0.45564700 8.30069335 0.50753442
v -0.55826851 8.30076226 0.50751459
v -0.45567687 8.32351933 0.54060566
v -0.45566664 8.30072618 0.50751673
v -0.55825376 7.94807796 0.49172365
v -0.55818649 8.30073243 0.50751282
v -0.45569709 7.94808804 0.49174208
v -0.55824872 8.32352668 0.54058415
v -0.55821698 7.59552180 0.50752212
v -0.55825456 7.57266550 0.54054643
v -0.55824687 7.94808587 0.49171964
v -0.55826415 8.30072537 0.50750392
v -0.45569930 7.57269225 0.54063083
v -0.55827144 8.32355656 0.54060691
v -0.55824262 7.57264878 0.54063262
v -0.45563899 8.32355827 0.54062634
v -0.45575277 7.59551743 0.50753011
v -0.45566987 8.32352928 0.54061484
v -0.45565708 7.57267158 0.54060298
v -0.45563838 7.94808507 0.49176613
v -0.45566246 8.30069022 0.50752406
v -0.55827055 7.59552691 0.50753865
v -0.45567924 7.59548627 0.50753759
v -0.45564461 7.57267501 0.54062314
v -0.55825811 7.59551302 0.50752403
v -0.45565978 7.59547695 0.50754542
v -0.55825477 7.57268581 0.54060579
vt 0.41690740 0.39574093
vt 0.52969998 0.37000000
vt 0.47036579 0.36999041
vt 0.58314770 0.39576793
vt 0.37991190 0.44214070
vt 0.62012398 0.44217968
vt 0.36669999 0.50000000
vt 0.63331193 0.50004327
vt 0.37988791 0.55786097
vt 0.62010002 0.55790001
vt 0.41686419 0.60427284
vt 0.58310449 0.60429978
vt 0.47031191 0.63002890
vt 0.52964610 0.63003862
vt 0.52969998 0.00050002
vt 0.58310002 0.99949998
vt 0.58310002 0.00050002
vt 0.52969998 0.99949998
vt 0.44209999 0.00050002
vt 0.39579999 0.99949998
vt 0.44209999 0.99949998
vt 0.39579999 0.00050002
vt 0.50000000 0.00050002
vt 0.44209999 0.99949998
vt 0.50000000 0.99949998
vt 0.44209999 0.00050002
vt 0.55790001 0.99949998
vt 0.50000000 0.00050002
vt 0.50000000 0.99949998
vt 0.55790001 0.00050002
vt 0.60420001 0.99949998
vt 0.55790001 0.00050002
vt 0.55790001 0.99949998
vt 0.60420001 0.00050002
vt 0.41690001 0.99949998
vt 0.47029999 0.00050002
vt 0.41690001 0.00050002
vt 0.47029999 0.99949998
vt 0.47029999 0.99949998
vt 0.52969998 0.00050002
vt 0.47029999 0.00050002
vt 0.52969998 0.99949998
vt 0.52969998 0.99949998
vt 0.58310002 0.00050002
vt 0.52969998 0.00050002
vt 0.58310002 0.99949998
vt 0.44209999 0.99949998
vt 0.39579999 0.00050002
vt 0.39579999 0.99949998
vt 0.44209999 0.00050002
vt 0.50000000 0.99949998
vt 0.44209999 0.00050002
vt 0.44209999 0.99949998
vt 0.50000000 0.00050002
vt 0.55790001 0.00050002
vt 0.50000000 0.99949998
vt 0.55790001 0.99949998
vt 0.50000000 0.00050002
vt 0.60420001 0.00050002
vt 0.55790001 0.99949998
vt 0.60420001 0.99949998
vt 0.55790001 0.00050002
vt 0.41690001 0.00050002
vt 0.47029999 0.99949998
vt 0.47029999 0.00050002
vt 0.41690001 0.99949998
vt 0.47029999 0.00050002
vt 0.52969998 0.99949998
vt 0.52969998 0.00050002
vt 0.47029999 0.99949998
vt 0.41686419 0.39571810
vt 0.52964610 0.36994171
vt 0.47031191 0.36994970
vt 0.58310449 0.39569569
vt 0.37988791 0.44213241
vt 0.62010002 0.44209999
vt 0.36669999 0.50000000
vt 0.63331193 0.49996412
vt 0.37991190 0.55786151
vt 0.62012398 0.55782914
vt 0.41690740 0.60426581
vt 0.58314770 0.60424340
vt 0.47036579 0.63000798
vt 0.52969998 0.63000000
vt 0.99949998 0.64600003
vt 0.96910000 0.35399997
vt 0.96910000 0.64600003
vt 0.99949998 0.35399997
vt 0.96910000 0.35399997
vt 0.50000000 0.64600003
vt 0.96910000 0.64600003
vt 0.50000000 0.35399997
vt 0.00052059 0.43049598
vt 0.96910000 0.52460003
vt 0.99947941 0.43050402
vt 0.50000000 0.56949997
vt 0.03090000 0.52459252
vt 0.99949998 0.35399997
vt 0.00050000 0.64600003
vt 0.99949998 0.64600003
vt 0.00050000 0.35399997
vt 0.03090000 0.52460003
vt 0.99947941 0.43049598
vt 0.00052059 0.43050402
vt 0.50000000 0.56949997
vt 0.96910000 0.52459252
vt 0.03090000 0.64600003
vt 0.03090000 0.35399997
vt 0.00050000 0.35399997
vt 0.03090000 0.64600003
vt 0.03090000 0.35399997
vt 0.00050000 0.64600003
f 1/1 2/2 3/3
f 2/2 1/1 4/4
f 4/4 1/1 5/5
f 4/4 5/5 6/6
f 6/6 5/5 7/7
f 6/6 7/7 8/8
f 8/8 7/7 9/9
f 8/8 9/9 10/10
f 10/10 9/9 11/11
f 10/10 11/11 12/12
f 12/12 11/11 13/13
f 12/12 13/13 14/14
f 15/15 16/16 17/17
f 16/16 15/15 18/18
f 19/19 20/20 21/21
f 20/20 19/19 22/22
f 23/23 24/24 25/25
f 24/24 23/23 26/26
f 27/27 28/28 29/29
f 28/28 27/27 30/30
f 31/31 32/32 33/33
f 32/32 31/31 34/34
f 35/35 36/36 37/37
f 36/36 35/35 38/38
f 39/39 40/40 41/41
f 40/40 39/39 42/42
f 43/43 44/44 45/45
f 44/44 43/43 46/46
f 47/47 48/48 49/49
f 48/48 47/47 50/50
f 51/51 52/52 53/53
f 52/52 51/51 54/54
f 55/55 56/56 57/57
f 56/56 55/55 58/58
f 59/59 60/60 61/61
f 60/60 59/59 62/62
f 63/63 64/64 65/65
f 64/64 63/63 66/66
f 67/67 68/68 69/69
f 68/68 67/67 70/70
f 71/71 72/72 73/73
f 72/72 71/71 74/74
f 74/74 71/71 75/75
f 74/74 75/75 76/76
f 76/76 75/75 77/77
f 76/76 77/77 78/78
f 78/78 77/77 79/79
f 78/78 79/79 80/80
f 80/80 79/79 81/81
f 80/80 81/81 82/82
f 82/82 81/81 83/83
f 82/82 83/83 84/84
f 85/85 86/86 87/87
f 86/86 85/85 88/88
f 89/89 90/90 91/91
f 90/90 89/89 92/92
f 93/93 94/94 95/95
f 94/94 93/93 96/96
f 96/96 93/93 97/97
f 98/98 99/99 100/100
f 99/99 98/98 101/101
f 102/102 103/103 104/104
f 103/103 102/102 105/105
f 103/103 105/105 106/106
f 92/92 107/107 90/90
f 107/107 92/92 108/108
f 109/109 110/110 111/111
f 110/110 109/109 112/112

