# https://github.com/mikedh/trimesh
v -2.29383897 -5.23263876 -1.62708865
v -2.29383920 -4.74075348 -0.66338108
v -2.29382622 -5.23262708 -0.66339261
v -2.29385403 -4.74075443 -1.62709506
v -2.29386549 -5.23263970 -0.66339847
v -2.31392638 -5.23264322 -1.62709901
v -2.29383588 -5.23262605 -1.62709698
v -2.31390367 -5.23264453 -0.66338119
v -2.29383055 -4.74074666 -1.62710355
v -2.31392843 -5.23264228 -1.62709320
v -2.31392938 -4.74074994 -1.62709723
v -2.29383448 -5.23263501 -1.62709174
v -2.31392553 -4.74074908 -0.66337651
v -2.29382417 -4.74076131 -1.62707913
v -2.31390389 -4.74073923 -1.62709265
v -2.29384373 -4.74073190 -0.66336378
v -2.29382084 -5.23262310 -0.66338112
v -2.31393153 -4.74074773 -0.66337789
v -2.31393240 -5.23263305 -0.66338034
v -2.29383280 -4.74076049 -0.66339215
vt -5.00000000 0.00000000
vt -4.00000000 -1.00000000
vt -5.00000000 -1.00000000
vt -4.00000000 0.00000000
vt 327.00000000 -0.89719999
vt 328.00000000 0.00000000
vt 327.00000000 0.00000000
vt 328.00000000 -0.89719999
vt 327.00000000 -4.00000000
vt 328.00000000 -5.00000000
vt 328.00000000 -4.00000000
vt 327.00000000 -5.00000000
vt 328.00000000 -0.89719999
vt 327.00000000 0.00000000
vt 328.00000000 0.00000000
vt 327.00000000 -0.89719999
vt 327.00000000 -5.00000000
vt 328.00000000 -4.00000000
vt 328.00000000 -5.00000000
vt 327.00000000 -4.00000000
f 1/1 2/2 3/3
f 2/2 1/1 4/4
f 5/5 6/6 7/7
f 6/6 5/5 8/8
f 9/9 10/10 11/11
f 10/10 9/9 12/12
f 13/13 14/14 15/15
f 14/14 13/13 16/16
f 17/17 18/18 19/19
f 18/18 17/17 20/20

