# https://github.com/mikedh/trimesh
v 0.95869053 -0.68011914 -0.97457324
v 0.91853402 0.08281248 -0.97457648
v 0.91854893 -0.68010572 -0.97458995
v 0.95867323 0.04265788 -0.97458046
v 1.87217568 0.08281642 -0.97459647
v 1.87219548 0.04265887 -0.97458491
v 0.95869408 -0.68010453 -0.98462209
v 0.95870596 0.04265736 -0.97457660
v 0.95870020 -0.68011632 -0.97459045
v 0.95867750 0.04265994 -0.98461760
v 1.87219203 0.04266303 -0.97458295
v 0.95869569 0.04266830 -0.98461592
v 1.87219646 0.04266402 -0.98461059
v 0.95870754 0.04264998 -0.97456215
v 1.87222133 0.04267535 -0.98461705
v 1.87220069 0.08283727 -0.97455660
v 1.87222699 0.04268199 -0.97457653
v 1.87218956 0.08281908 -0.98461218
v 1.87218857 0.09286342 -0.98616224
v 1.87221325 0.09284378 -0.99621518
v 0.91852729 0.08280459 -0.97455934
v 1.87219842 0.09286260 -0.98617080
v 0.90851334 0.09287492 -0.98615971
v 1.87217719 0.08281978 -0.97457247
v 0.91854520 0.08281145 -0.97455832
v 0.90847723 -0.68012572 -0.98615618
v 0.91853332 -0.68009259 -0.97457886
v 0.90848578 0.09285381 -0.98618115
v 0.95867308 -0.68010965 -0.97457398
v 0.91854881 -0.68012688 -0.98459949
v 0.95868539 -0.68009791 -0.98462588
v 0.90848451 -0.68011439 -0.98615499
v 0.90849565 -0.68012477 -0.99622371
v 0.91851529 -0.68011124 -0.97456890
v 0.91853067 0.08280578 -0.98460949
v 0.95867304 0.04265677 -0.98461262
v 0.91850473 -0.68011269 -0.98462773
v 1.87220595 0.08281820 -0.98461783
v 1.87221322 0.04265620 -0.98460267
v 0.95869799 -0.68010700 -0.98460601
v 1.87221438 0.08282963 -0.98461940
v 0.90847591 0.09285683 -0.99621652
v 1.87218690 0.09286172 -0.99621402
v 0.91851991 0.08280617 -0.98461700
v 0.90849811 0.09287495 -0.98616776
v 1.87221755 0.09287594 -0.99619265
v 0.90846424 0.09287378 -0.99620273
v 1.87220986 0.09286312 -0.98616282
v 0.90849762 0.09285404 -0.98619123
v 0.90849230 -0.68012749 -0.99619360
v 0.90849006 -0.68011645 -0.98617838
v 0.90848730 0.09285836 -0.99622542
v 0.90849739 -0.68011881 -0.99622177
v 0.91850289 0.08282552 -0.98462404
v 0.91852612 -0.68012043 -0.98459791
v 0.90849303 0.09285958 -0.99622544
v 1.87222508 0.08283062 -1.02476058
v 0.90849425 0.09286990 -1.03635592
v 1.87221222 0.09285661 -1.03637886
v 0.91854551 0.08279515 -1.02477683
v 0.91853017 0.08280625 -1.02476622
v 0.95868647 0.04266020 -1.02476738
v 0.91852679 -0.68010022 -1.02476970
v 1.87219869 0.08279504 -1.02479011
v 1.87221811 0.04266500 -1.02477737
v 0.95870940 -0.68013344 -1.02478136
v 0.90848778 -0.68011020 -1.03636893
v 0.91852509 0.08279925 -1.02476478
v 0.91854274 -0.68012342 -1.02477204
v 0.90847758 0.09285264 -1.03634340
v 0.90849534 0.09288724 -1.02633095
v 1.87221181 0.09285607 -1.03635349
v 0.90849356 0.09285153 -1.03637132
v 1.87224272 0.09285754 -1.02634624
v 1.87219652 0.04267407 -1.02478006
v 1.87222151 0.08283168 -1.01473645
v 1.87219872 0.04265314 -1.01474326
v 1.87218627 0.08283419 -1.02475406
v 1.87218897 0.09284381 -1.02634316
v 1.87219260 0.09281988 -1.03637474
v 1.87222072 0.04266134 -1.01472393
v 0.95868288 0.04268753 -1.02477137
v 1.87219984 0.04269737 -1.02477788
v 0.95867378 0.04266815 -1.01473504
v 0.95870223 -0.68012895 -1.02476407
v 0.95869957 0.04265733 -1.01473252
v 0.95867863 -0.68008832 -1.01474339
v 0.95868333 0.04265238 -1.02477815
v 0.95868889 -0.68010794 -1.01474222
v 0.91853040 -0.68013511 -1.02478436
v 0.95872323 -0.68010454 -1.02478379
v 0.90847702 -0.68012962 -1.02632151
v 0.90849408 -0.68012675 -1.03637668
v 0.91855040 -0.68011188 -1.01473929
v 0.90849091 0.09285192 -1.02635767
v 0.90849509 -0.68013081 -1.03637315
v 0.90848569 -0.68010839 -1.02633580
v 0.90847582 0.09286646 -1.03635115
v 0.91852079 0.08282621 -1.01473818
v 1.87220834 0.09284282 -1.02631081
v 0.90850862 0.09286643 -1.02631422
v 1.87215768 0.08282245 -1.01473487
v 0.95868714 -0.68012533 -1.01473394
v 0.91853784 0.08281593 -1.01474032
v 0.91854801 -0.68013124 -1.01472182
v 0.95869116 0.04265563 -1.01473816
v 1.87219315 0.08282761 -1.01473023
v 1.87219767 0.04265193 -1.01473080
v 0.91854462 0.08281780 -1.01472935
v 0.90848898 -0.68011665 -1.02632486
v 0.91853637 -0.68013627 -1.01472662
v 0.90849079 0.09286296 -1.02632540
v 0.95869295 -0.68013083 -1.09503089
v 0.91851153 0.08280629 -1.09504260
v 0.91855091 -0.68011403 -1.09504876
v 0.95867124 0.04266326 -1.09504578
v 1.87222561 0.08282695 -1.09506454
v 1.87222979 0.04266072 -1.09505646
v 0.95870731 -0.68011811 -1.10508962
v 0.95869169 0.04267614 -1.09503318
v 0.95867186 -0.68009264 -1.09503391
v 0.95868425 0.04265545 -1.10509702
v 1.87220612 0.04265758 -1.09505504
v 0.95869905 0.04267017 -1.10508988
v 1.87221372 0.04268264 -1.10509858
v 0.95868146 0.04267736 -1.09503659
v 1.87220741 0.04268009 -1.10509850
v 1.87218620 0.08280844 -1.09504400
v 1.87219469 0.04265958 -1.09505765
v 1.87219687 0.08280672 -1.10508040
v 1.87221447 0.09285253 -1.10663471
v 1.87219736 0.09286511 -1.11667047
v 0.91855254 0.08280559 -1.09504102
v 1.87221011 0.09285402 -1.10662488
v 0.90847576 0.09288485 -1.10664883
v 1.87221603 0.08280527 -1.09503122
v 0.91852793 0.08282118 -1.09504487
v 0.90850734 -0.68012149 -1.10666919
v 0.91852326 -0.68011521 -1.09505116
v 0.90850323 0.09287113 -1.10663397
v 0.95867044 -0.68010028 -1.09503221
v 0.91852899 -0.68009128 -1.10508939
v 0.95867482 -0.68011943 -1.10507165
v 0.90848199 -0.68009323 -1.10664344
v 0.90850552 -0.68011072 -1.11667357
v 0.91854615 -0.68013614 -1.09502880
v 0.91853192 0.08281247 -1.10507566
v 0.95870215 0.04267521 -1.10506011
v 0.91854615 -0.68010153 -1.10509176
v 1.87220591 0.08282621 -1.10508519
v 1.87220834 0.04267093 -1.10507447
v 0.95868770 -0.68012184 -1.10509535
v 1.87219350 0.08283379 -1.10508602
v 0.90850344 0.09284237 -1.11669568
v 1.87219154 0.09287276 -1.11665830
v 0.91853684 0.08280924 -1.10508660
v 0.90848995 0.09285422 -1.10666330
v 1.87219392 0.09285614 -1.11665272
v 0.90849565 0.09287593 -1.11667648
v 1.87220145 0.09281001 -1.10662638
v 0.90850046 0.09288044 -1.10663819
v 0.90849482 -0.68012627 -1.11668628
v 0.90848478 -0.68012178 -1.10661543
v 0.90849368 0.09284867 -1.11666982
v 0.90849636 -0.68012590 -1.11665744
v 0.91850923 0.08281656 -1.10507670
v 0.91851607 -0.68011300 -1.10506897
v 0.90849929 0.09283749 -1.11668064
v 0.95870429 -0.68011378 -1.06493159
v 0.95869445 0.04267460 -1.05490084
v 0.95868535 -0.68011572 -1.05489894
v 0.95868731 0.04268177 -1.06494343
v 0.91855667 0.08284258 -1.06495270
v 0.95868721 0.04266990 -1.06494085
v 0.91852350 -0.68012045 -1.06492228
v 1.87219823 0.08284193 -1.06492779
v 1.87220331 0.04268366 -1.06492360
v 0.95869356 -0.68012161 -1.06490891
v 1.87221469 0.04266310 -1.05491164
v 0.95869360 0.04265141 -1.06495273
v 1.87220112 0.04266913 -1.06491544
v 0.95869248 0.04267566 -1.05490727
v 0.95868868 -0.68011595 -1.05488146
v 0.91853416 0.08282921 -1.05489829
v 0.91853717 -0.68011233 -1.05490772
v 0.95869115 0.04266165 -1.05491570
v 1.87221651 0.08281471 -1.05490262
v 1.87219990 0.04266735 -1.05487327
v 0.95868690 -0.68011162 -1.05487510
v 0.91853935 -0.68010420 -1.06493739
v 0.95869855 -0.68011821 -1.06491811
v 0.90848117 -0.68012719 -1.06645912
v 0.90849121 -0.68012196 -1.07651322
v 0.91852414 -0.68010093 -1.05490771
v 0.90849178 -0.68011318 -1.07651549
v 0.91852274 0.08280841 -1.06492610
v 0.91851990 -0.68010946 -1.06495042
v 0.90848675 0.09285896 -1.07652961
v 1.87221270 0.08281898 -1.06494428
v 0.90847476 0.09283904 -1.07651340
v 1.87219020 0.09284153 -1.07651691
v 0.91856104 0.08282267 -1.06492191
v 1.87220724 0.04267537 -1.06494809
v 1.87219924 0.08282246 -1.05489225
v 1.87220220 0.04265735 -1.05489524
v 1.87219496 0.08278910 -1.06494625
v 1.87221050 0.09287787 -1.06645211
v 1.87220579 0.09286961 -1.07650274
v 0.91852411 0.08279810 -1.05489164
v 1.87218268 0.09285453 -1.06646710
v 0.90847599 0.09285891 -1.06645925
v 1.87220909 0.08282571 -1.05488075
v 0.91855427 0.08282110 -1.05487674
v 0.90849285 -0.68012428 -1.06647098
v 0.91852518 -0.68012462 -1.05489974
v 0.90846511 0.09285982 -1.06649038
v 0.90849232 0.09287654 -1.06648115
v 0.90848691 -0.68010053 -1.07650739
v 0.90850580 -0.68012191 -1.06646559
v 0.90848512 0.09285010 -1.07650662
v 0.90848621 0.09286804 -1.06644492
v 1.87218362 0.09284915 -1.07650010
v 0.90849185 0.09287294 -1.07652659
v 1.87220871 0.09285663 -1.06647292
vt 0.94749999 0.00050002
vt 0.98909998 0.98649305
vt 0.98909998 0.00050002
vt 0.94749999 0.93460000
vt 0.00107247 0.98649305
vt 0.00107247 0.93460000
vt 0.00050000 0.49309999
vt 0.93460000 0.40380001
vt 0.00050000 0.40380001
vt 0.93460000 0.49309999
vt 0.99949998 0.40380001
vt 0.05249994 0.49309999
vt 0.99949998 0.49309999
vt 0.05249994 0.40380001
vt 0.93460000 0.49309999
vt 0.98650002 0.40380001
vt 0.93460000 0.40380001
vt 0.98650002 0.49309999
vt 0.99947631 0.50686270
vt 0.99947631 0.59616268
vt 0.98912519 0.98650002
vt 0.00050000 0.99949998
vt 0.99953252 0.99949998
vt 0.00050000 0.98650002
vt 0.98909998 0.98649305
vt 0.99949998 0.00050002
vt 0.98909998 0.00050002
vt 0.99949998 0.99946755
vt 0.05249994 0.40380001
vt 0.01089996 0.49309999
vt 0.05249994 0.49309999
vt 0.00049895 0.50686270
vt 0.00049895 0.59616268
vt 0.01089996 0.40380001
vt 0.01087477 0.98650002
vt 0.05249994 0.93460000
vt 0.01087477 0.00037402
vt 0.99949998 0.98650002
vt 0.99949998 0.93460000
vt 0.05249994 0.00037402
vt 0.99949998 0.98650002
vt 0.00046746 0.99949998
vt 0.99949998 0.99949998
vt 0.01087477 0.98650002
vt 0.99953252 0.50690001
vt 0.00050000 0.59619999
vt 0.99953252 0.59619999
vt 0.00050000 0.50690001
vt 0.00053244 0.50690001
vt 0.99949998 0.59619999
vt 0.99949998 0.50690001
vt 0.00053244 0.59619999
vt 0.00050000 0.00050002
vt 0.01089996 0.98649305
vt 0.01089996 0.00050002
vt 0.00050000 0.99946755
vt 0.99949998 0.98650002
vt 0.00046746 0.99949998
vt 0.99949998 0.99949998
vt 0.01087477 0.98650002
vt 0.01089996 0.98649305
vt 0.05249994 0.93460000
vt 0.01089996 0.00050002
vt 0.99892700 0.98649305
vt 0.99892700 0.93460000
vt 0.05249994 0.00050002
vt 0.00050000 0.00050002
vt 0.01089996 0.98649305
vt 0.01089996 0.00050002
vt 0.00050000 0.99946755
vt 0.99953252 0.50690001
vt 0.00050000 0.59619999
vt 0.99953252 0.59619999
vt 0.00050000 0.50690001
vt 0.93460000 0.49309999
vt 0.98650002 0.40380001
vt 0.93460000 0.40380001
vt 0.98650002 0.49309999
vt 0.99947631 0.50686270
vt 0.99947631 0.59616268
vt 0.99949998 0.40380001
vt 0.05249994 0.49309999
vt 0.99949998 0.49309999
vt 0.05249994 0.40380001
vt 0.00050000 0.49309999
vt 0.93460000 0.40380001
vt 0.00050000 0.40380001
vt 0.93460000 0.49309999
vt 0.05249994 0.40380001
vt 0.01089996 0.49309999
vt 0.05249994 0.49309999
vt 0.00049895 0.50686270
vt 0.00049895 0.59616268
vt 0.01089996 0.40380001
vt 0.00053244 0.50690001
vt 0.99949998 0.59619999
vt 0.99949998 0.50690001
vt 0.00053244 0.59619999
vt 0.98912519 0.98650002
vt 0.00050000 0.99949998
vt 0.99953252 0.99949998
vt 0.00050000 0.98650002
vt 0.94749999 0.00050002
vt 0.98909998 0.98649305
vt 0.98909998 0.00050002
vt 0.94749999 0.93460000
vt 0.00107247 0.98649305
vt 0.00107247 0.93460000
vt 0.98909998 0.98649305
vt 0.99949998 0.00050002
vt 0.98909998 0.00050002
vt 0.99949998 0.99946755
vt 0.94749999 0.00050002
vt 0.98909998 0.98649305
vt 0.98909998 0.00050002
vt 0.94749999 0.93460000
vt 0.00107247 0.98649305
vt 0.00107247 0.93460000
vt 0.00050000 0.49309999
vt 0.93460000 0.40380001
vt 0.00050000 0.40380001
vt 0.93460000 0.49309999
vt 0.99949998 0.40380001
vt 0.05249994 0.49309999
vt 0.99949998 0.49309999
vt 0.05249994 0.40380001
vt 0.93460000 0.49309999
vt 0.98650002 0.40380001
vt 0.93460000 0.40380001
vt 0.98650002 0.49309999
vt 0.99947631 0.50686270
vt 0.99947631 0.59616268
vt 0.98912519 0.98650002
vt 0.00050000 0.99949998
vt 0.99953252 0.99949998
vt 0.00050000 0.98650002
vt 0.98909998 0.98649305
vt 0.99949998 0.00050002
vt 0.98909998 0.00050002
vt 0.99949998 0.99946755
vt 0.05249994 0.40380001
vt 0.01089996 0.49309999
vt 0.05249994 0.49309999
vt 0.00049895 0.50686270
vt 0.00049895 0.59616268
vt 0.01089996 0.40380001
vt 0.01089996 0.98649305
vt 0.05249994 0.93460000
vt 0.01089996 0.00050002
vt 0.99892700 0.98649305
vt 0.99892700 0.93460000
vt 0.05249994 0.00050002
vt 0.99949998 0.98650002
vt 0.00046746 0.99949998
vt 0.99949998 0.99949998
vt 0.01087477 0.98650002
vt 0.99953252 0.50690001
vt 0.00050000 0.59619999
vt 0.99953252 0.59619999
vt 0.00050000 0.50690001
vt 0.00053244 0.50690001
vt 0.99949998 0.59619999
vt 0.99949998 0.50690001
vt 0.00053244 0.59619999
vt 0.00050000 0.00050002
vt 0.01089996 0.98649305
vt 0.01089996 0.00050002
vt 0.00050000 0.99946755
vt 0.00050000 0.49309999
vt 0.93460000 0.40380001
vt 0.00050000 0.40380001
vt 0.93460000 0.49309999
vt 0.01089996 0.98649305
vt 0.05249994 0.93460000
vt 0.01089996 0.00050002
vt 0.99892700 0.98649305
vt 0.99892700 0.93460000
vt 0.05249994 0.00050002
vt 0.99949998 0.40380001
vt 0.05249994 0.49309999
vt 0.99949998 0.49309999
vt 0.05249994 0.40380001
vt 0.94749999 0.00050002
vt 0.98909998 0.98649305
vt 0.98909998 0.00050002
vt 0.94749999 0.93460000
vt 0.00107247 0.98649305
vt 0.00107247 0.93460000
vt 0.05249994 0.40380001
vt 0.01089996 0.49309999
vt 0.05249994 0.49309999
vt 0.00049895 0.50682771
vt 0.00049895 0.59612769
vt 0.01089996 0.40380001
vt 0.00050000 0.00050002
vt 0.01089996 0.98649305
vt 0.01089996 0.00050002
vt 0.00050000 0.99946755
vt 0.99949998 0.98650002
vt 0.00046746 0.99949998
vt 0.99949998 0.99949998
vt 0.01087477 0.98650002
vt 0.93460000 0.49309999
vt 0.98650002 0.40380001
vt 0.93460000 0.40380001
vt 0.98650002 0.49309999
vt 0.99947631 0.50682771
vt 0.99947631 0.59612769
vt 0.98912519 0.98650002
vt 0.00050000 0.99949998
vt 0.99953252 0.99949998
vt 0.00050000 0.98650002
vt 0.98909998 0.98649305
vt 0.99949998 0.00050002
vt 0.98909998 0.00050002
vt 0.99949998 0.99946755
vt 0.00053244 0.50690001
vt 0.99949998 0.59619999
vt 0.99949998 0.50690001
vt 0.00053244 0.59619999
vt 0.99953252 0.50690001
vt 0.00050000 0.59619999
vt 0.99953252 0.59619999
vt 0.00050000 0.50690001
f 1/1 2/2 3/3
f 2/2 1/1 4/4
f 2/2 4/4 5/5
f 5/5 4/4 6/6
f 7/7 8/8 9/9
f 8/8 7/7 10/10
f 11/11 12/12 13/13
f 12/12 11/11 14/14
f 15/15 16/16 17/17
f 16/16 15/15 18/18
f 16/16 18/18 19/19
f 19/19 18/18 20/20
f 21/21 22/22 23/23
f 22/22 21/21 24/24
f 25/25 26/26 27/27
f 26/26 25/25 28/28
f 29/29 30/30 31/31
f 30/30 32/32 33/33
f 32/32 30/30 34/34
f 34/34 30/30 29/29
f 35/35 36/36 37/37
f 36/36 35/35 38/38
f 36/36 38/38 39/39
f 40/40 37/37 36/36
f 41/41 42/42 43/43
f 42/42 41/41 44/44
f 45/45 46/46 47/47
f 46/46 45/45 48/48
f 49/49 50/50 51/51
f 50/50 49/49 52/52
f 53/53 54/54 55/55
f 54/54 53/53 56/56
f 57/57 58/58 59/59
f 58/58 57/57 60/60
f 61/61 62/62 63/63
f 62/62 61/61 64/64
f 62/62 64/64 65/65
f 66/66 63/63 62/62
f 67/67 68/68 69/69
f 68/68 67/67 70/70
f 71/71 72/72 73/73
f 72/72 71/71 74/74
f 75/75 76/76 77/77
f 76/76 75/75 78/78
f 76/76 78/78 79/79
f 79/79 78/78 80/80
f 81/81 82/82 83/83
f 82/82 81/81 84/84
f 85/85 86/86 87/87
f 86/86 85/85 88/88
f 89/89 90/90 91/91
f 90/90 92/92 93/93
f 92/92 90/90 94/94
f 94/94 90/90 89/89
f 95/95 96/96 97/97
f 96/96 95/95 98/98
f 99/99 100/100 101/101
f 100/100 99/99 102/102
f 103/103 104/104 105/105
f 104/104 103/103 106/106
f 104/104 106/106 107/107
f 107/107 106/106 108/108
f 109/109 110/110 111/111
f 110/110 109/109 112/112
f 113/113 114/114 115/115
f 114/114 113/113 116/116
f 114/114 116/116 117/117
f 117/117 116/116 118/118
f 119/119 120/120 121/121
f 120/120 119/119 122/122
f 123/123 124/124 125/125
f 124/124 123/123 126/126
f 127/127 128/128 129/129
f 128/128 127/127 130/130
f 128/128 130/130 131/131
f 131/131 130/130 132/132
f 133/133 134/134 135/135
f 134/134 133/133 136/136
f 137/137 138/138 139/139
f 138/138 137/137 140/140
f 141/141 142/142 143/143
f 142/142 144/144 145/145
f 144/144 142/142 146/146
f 146/146 142/142 141/141
f 147/147 148/148 149/149
f 148/148 147/147 150/150
f 148/148 150/150 151/151
f 152/152 149/149 148/148
f 153/153 154/154 155/155
f 154/154 153/153 156/156
f 157/157 158/158 159/159
f 158/158 157/157 160/160
f 161/161 162/162 163/163
f 162/162 161/161 164/164
f 165/165 166/166 167/167
f 166/166 165/165 168/168
f 169/169 170/170 171/171
f 170/170 169/169 172/172
f 173/173 174/174 175/175
f 174/174 173/173 176/176
f 174/174 176/176 177/177
f 178/178 175/175 174/174
f 179/179 180/180 181/181
f 180/180 179/179 182/182
f 183/183 184/184 185/185
f 184/184 183/183 186/186
f 184/184 186/186 187/187
f 187/187 186/186 188/188
f 189/189 190/190 191/191
f 190/190 192/192 193/193
f 192/192 190/190 194/194
f 194/194 190/190 189/189
f 195/195 196/196 197/197
f 196/196 195/195 198/198
f 199/199 200/200 201/201
f 200/200 199/199 202/202
f 203/203 204/204 205/205
f 204/204 203/203 206/206
f 204/204 206/206 207/207
f 207/207 206/206 208/208
f 209/209 210/210 211/211
f 210/210 209/209 212/212
f 213/213 214/214 215/215
f 214/214 213/213 216/216
f 217/217 218/218 219/219
f 218/218 217/217 220/220
f 221/221 222/222 223/223
f 222/222 221/221 224/224

