# https://github.com/mikedh/trimesh
v 2.41429906 -8.45508359 -1.62707157
v 2.41429829 -8.45509844 -1.62708183
v 1.04908360 -8.45504390 -1.70743032
v 2.41424789 -8.45510166 -1.70740292
v 2.41420892 -8.45508678 -1.70745027
v 1.04900871 -8.45509875 -1.62710676
v 2.76167774 -8.40244152 -1.70740915
v 2.76171285 -8.40250432 -1.70739149
v 2.76170071 -8.40247640 -1.62712247
v 2.76163358 -8.40249669 -1.62708703
v 2.41425730 -8.45508643 -1.62710098
v 1.04905554 -7.50136967 -1.62708190
v 1.04901160 -8.45508350 -1.62706629
v 3.65914428 -7.50142387 -1.62703929
v 2.76171698 -8.40245112 -1.62708540
v 3.05675847 -8.28435494 -1.62702299
v 3.32185093 -8.07821945 -1.62708191
v 3.53809765 -7.78976396 -1.62707087
v 3.05673728 -8.28439404 -1.70738859
v 3.65911496 -7.50142111 -1.70742863
v 3.65907330 -7.50142059 -1.62703100
v 3.53812385 -7.78975169 -1.62710452
v 3.65914759 -7.50132900 -1.62707168
v 1.04895460 -5.86507682 -1.62707055
v 1.04907257 -7.50140029 -1.62702796
v 3.45826931 -5.86510307 -1.62706131
v 3.65909116 -5.86500509 -1.62708877
v 3.05674673 -8.28442246 -1.62713522
v 2.76162049 -8.40245667 -1.62707375
v 3.05683228 -8.28443632 -1.70734228
v 3.32177410 -8.07820992 -1.62711097
v 3.32175762 -8.07825864 -1.62705712
v 3.05677594 -8.28443010 -1.62714442
v 3.32174289 -8.07824933 -1.70736796
v 3.32178839 -8.07830734 -1.70737226
v 3.53809500 -7.78979002 -1.62707217
v 3.32170191 -8.07825361 -1.62711644
v 3.53814123 -7.78980564 -1.70739689
v 3.65911489 -7.50140546 -1.70735203
v 3.65911606 -7.50134653 -1.70736145
v 3.65911832 -5.86504769 -1.62709292
v 3.65903688 -7.50138253 -1.62712328
v 3.65903703 -5.86506923 -1.70742571
v 3.45828000 -5.86511710 -1.62708583
v 3.65910255 -5.86503010 -1.70740532
v 3.45835619 -5.86502716 -1.70736250
v 3.65900236 -5.86503355 -1.62708321
v 3.65910494 -7.50136391 -1.62708090
v 1.04904739 -7.50139076 -1.70747423
v 3.65908535 -7.50140712 -1.70736456
v 1.04902502 -7.50137449 -1.62712622
v 3.32177565 -8.07826825 -1.70745900
v 3.53814827 -7.78980676 -1.70744794
vt 0.53130001 -0.06250000
vt 0.56250471 -0.06247902
vt 1.59379995 0.00000000
vt 0.53130001 0.00000000
vt 0.56250232 0.00002080
vt 1.59379995 -0.06250000
vt 0.29220471 0.00002080
vt 0.29220000 0.00000000
vt 0.29220471 -0.06247902
vt 0.29220000 -0.06250000
vt 0.53132212 -4.21870279
vt 1.59379995 -3.47660017
vt 1.59384704 -4.21870279
vt -0.43750000 -3.47660017
vt 0.26097229 -4.17777395
vt 0.03129994 -4.08589983
vt -0.17496310 -3.92549515
vt -0.34335920 -3.70100212
vt 0.06250000 0.00000000
vt 3.47659993 0.00000000
vt 3.47659993 -0.06250000
vt 3.70099998 -0.06250000
vt -0.43750000 -3.47660017
vt 1.59379995 -2.20309997
vt 1.59379995 -3.47660017
vt -0.28124729 -2.20309997
vt -0.43750000 -2.20309997
vt 0.06250000 -0.06250000
vt 0.29220000 -0.06250000
vt 0.06250000 0.00000000
vt -0.14370000 -0.06250000
vt 3.92549992 -0.06250000
vt 0.06250000 -0.06250000
vt -0.14380001 0.00000000
vt 3.92549992 0.00000000
vt 3.70099998 -0.06250000
vt 3.92549992 -0.06250000
vt 3.70099998 0.00000000
vt 3.47659993 0.00000000
vt 3.47665191 0.00000000
vt 2.20309997 -0.06250000
vt 3.47659993 -0.06250000
vt 2.20315194 0.00000000
vt -0.25000000 -0.06250000
vt -0.40630001 0.00000000
vt -0.24996869 0.00000000
vt -0.40633130 -0.06250000
vt -0.40630001 -0.06250000
vt 1.62501299 0.00000000
vt -0.40628669 0.00000000
vt 1.62500000 -0.06250000
vt -0.14380001 0.00000000
vt 3.70099998 0.00000000
f 1/1 3/3 4/4
f 3/3 1/1 6/6
f 7/7 2/2 5/5
f 2/2 7/7 9/9
f 11/11 12/12 13/13
f 12/12 11/11 14/14
f 14/14 11/11 15/15
f 14/14 15/15 16/16
f 14/14 16/16 17/17
f 14/14 17/17 18/18
f 10/10 8/8 19/19
f 20/20 21/21 22/22
f 23/23 24/24 25/25
f 24/24 23/23 26/26
f 26/26 23/23 27/27
f 28/28 29/29 30/30
f 31/31 33/33 34/34
f 36/36 37/37 38/38
f 39/39 36/36 38/38
f 40/40 41/41 42/42
f 41/41 40/40 43/43
f 44/44 45/45 46/46
f 45/45 44/44 47/47
f 48/48 49/49 50/50
f 49/49 48/48 51/51
f 28/28 30/30 52/52
f 53/53 32/32 35/35

