# https://github.com/mikedh/trimesh
v 3.45833581 0.29863121 -1.70731244
v 3.45833283 -3.12460400 -1.62704366
v 3.45850388 -5.86494364 -1.70750519
v 3.45813736 0.29856115 -1.62708881
v 3.45798622 -3.12455880 -1.62727297
v 3.45821342 -5.86515637 -1.62714082
v 3.45837659 -5.86493003 -1.70742314
v 1.04923056 -7.54162931 -1.70735415
v 1.04916452 -7.50136415 -1.62720103
v 1.04890416 -7.54159972 -1.62706356
v 1.04889163 -7.50140740 -1.70742700
v -3.12695166 4.98672404 -0.34209666
v -3.12712207 1.72412343 -0.34203552
v -3.12681578 4.98651382 -0.31181345
v -3.12683683 4.98680487 -0.26179865
v -3.12707359 -5.86487076 -0.34186574
v -3.12677181 -5.86489114 -0.26178738
v -3.12720117 1.72414129 -0.34205371
v -3.12721259 4.98674978 -0.31196808
v 2.29392985 4.98652451 -0.34224174
v -3.12709106 4.98652655 -0.34189924
v 2.29375983 4.98674035 -0.26187326
v -3.12680293 4.98688176 -0.26174603
v -3.12734313 -5.86507131 -0.26174084
v -3.12688560 -7.46130884 -0.34188547
v -3.12721716 -7.46131507 -0.26170498
v -3.12702181 -5.86479310 -0.34211848
v 3.45822755 -5.86513259 -0.26199401
v 2.29364831 0.29873968 -0.26175348
v 0.96891269 -5.86518638 -0.26159742
v 3.45827688 0.29887433 -0.26189811
v -3.12713372 4.98672905 -0.26168924
v -3.12700584 -5.86516226 -0.26202968
v 2.29363065 4.98676513 -0.26169520
v 2.29380713 0.29849650 -0.34202388
v 2.29364792 4.98659170 -0.26174779
v 2.29350959 0.29870486 -0.26191934
v 2.29384615 4.98668262 -0.34211852
v 0.96882216 -7.46132888 -0.31182869
v -3.12692523 -7.46110035 -0.34197920
v 0.96884037 -7.46110030 -0.34213458
v -3.12723233 -7.46123997 -0.26194813
v 0.96852508 -7.46118384 -0.26191946
v -3.12717571 -7.46136948 -0.26180007
v -0.89841319 -7.38075618 -0.26184034
v -3.12688019 -5.86487871 -0.26167429
v 0.96839063 -7.46104544 -0.26178991
v -0.49685605 -7.38089187 -0.26178376
v -0.49687094 -6.97942070 -0.26210962
v -0.89847989 -6.97948416 -0.26168428
v 0.96868684 -5.86506683 -0.26195955
v 3.45824503 -5.86508038 -0.26205024
v 1.04907854 -5.86509387 -0.31219945
v 3.45797577 -5.86500555 -0.31207276
v 0.96865242 -5.86511242 -0.34188625
v 1.04902854 -5.86506638 -0.34235749
v 0.96896301 -5.86494786 -0.26168617
v 3.45832467 -5.86494798 -0.31197740
v 3.45840534 0.29862804 -0.26204662
v 3.45846463 -5.86535475 -0.26187259
v 3.45828870 -5.86522749 -0.34205791
v 3.45828929 0.29858743 -0.34207427
v 2.29376258 0.29884788 -0.26178624
v 2.37407052 0.29837241 -0.34233496
v 2.29398560 0.29864253 -0.34218880
v 2.37437259 0.29846679 -0.31211294
v 3.45825046 0.29873339 -0.31212405
v 3.45823037 0.29842078 -0.26173234
v 0.96884302 -5.86514669 -0.34212207
v 0.96853875 -7.46128801 -0.31183483
v 0.96874739 -7.46089114 -0.34225766
v 0.96881080 -5.86510662 -0.34206466
v 0.96872700 -7.46130076 -0.26196212
v 0.96916050 -7.46123174 -0.31231905
v 0.96863551 -5.86498202 -0.34221669
v 0.96892209 -5.86493575 -0.26186009
v 0.96866067 -7.46136403 -0.26193821
v -0.49712664 -6.97919771 -0.26161145
v -0.89864354 -6.97953807 -0.34239764
v -0.49705399 -6.97981261 -0.34230831
v -0.89827936 -6.97941882 -0.26171646
v -0.89853410 -7.38069367 -0.34211695
v -0.89851885 -6.97900542 -0.26188464
v -0.89863856 -7.38091602 -0.26184390
v -0.89831225 -6.97950097 -0.34203058
v -0.49679486 -6.97946475 -0.26181507
v -0.49703501 -7.38061021 -0.34224581
v -0.49698113 -7.38109686 -0.26188773
v -0.49691734 -6.97925999 -0.34223245
v -0.89849086 -7.38114688 -0.26195638
v -0.49652340 -7.38079630 -0.34225683
v -0.89865513 -7.38108399 -0.34214846
v -0.49691155 -7.38105100 -0.26202188
v -3.12682591 -0.26345112 -1.62714821
v -3.12706028 -7.54160996 -1.70782310
v -3.12701231 -7.54168713 -1.62723800
v -3.12712014 -0.26341109 -1.70757086
v -3.08711621 -7.54144315 -1.62698737
v -3.12716560 -7.54145420 -1.70744589
v -3.08686864 -7.54171429 -1.70728548
v -3.12685717 -7.54144355 -1.62701533
v -3.12756691 -0.26347837 -1.62709841
v -3.20736717 -0.26360550 -1.70739599
v -3.12697002 -0.26355318 -1.70746998
v -3.20717077 -0.26367322 -1.62694784
v -3.12700359 4.98657869 -1.62713531
v 2.29369933 4.98678972 -1.70735340
v -3.12710823 4.98653619 -1.70735999
v 2.29396713 4.98667718 -1.62703427
v -3.12708245 4.98670306 -1.62713549
v -3.12698686 1.54322984 -1.70731169
v -3.12706161 1.54349636 -1.62714306
v -3.12698311 4.98654042 -1.70723340
v 2.29358756 0.29850181 -1.70737018
v 2.29403923 4.98673309 -1.62712931
v 2.29362728 0.29862277 -1.62709754
v 2.29407172 4.98678216 -1.70762115
v -3.20705708 1.54338886 -1.62721997
v -3.12681843 1.54343811 -1.70745599
v -3.20731498 1.54356573 -1.70726189
v -3.12722497 1.54373028 -1.62695945
v 2.29377648 0.29853328 -1.62723293
v 2.37415578 0.29855762 -1.70751290
v 2.29394629 0.29870206 -1.70746008
v 2.37424292 0.29884511 -1.62725083
vt -2.59379792 0.00000000
vt 0.07039089 -0.06250000
vt 2.20331192 0.00000000
vt -2.59380102 -0.06250000
vt 0.07031182 -0.06250000
vt 2.20299792 -0.06250000
vt 2.20309997 0.00000000
vt 3.50780010 0.00000000
vt 3.47659993 -0.06250000
vt 3.50780010 -0.06250000
vt 3.47659993 0.00000000
vt -6.24216604 -1.00000000
vt -3.70319009 -1.00000000
vt -6.24219990 -1.02340007
vt -6.24225283 -1.06245208
vt 2.20318294 -1.00008011
vt 2.20309901 -1.06256294
vt -3.70309997 -1.00000000
vt 4.84372902 -1.02343893
vt 0.62502939 -1.00000000
vt 4.84373999 -1.00000000
vt 0.62500000 -1.06250000
vt 4.84371090 -1.06250000
vt 2.07030010 -1.06250000
vt 3.31250000 -1.00000000
vt 3.31250000 -1.06250000
vt 2.07030010 -1.00000000
vt -0.28124371 -2.20301890
vt 0.62500000 2.59380388
vt 1.65624595 -2.20302105
vt -0.28124371 2.59380484
vt 4.84371090 6.24219513
vt 4.84371090 -2.20302510
vt 0.62500000 6.24219990
vt -2.59380388 -1.00000000
vt -6.24219990 -1.06250000
vt -2.59380388 -1.06250000
vt -6.24219990 -1.00000000
vt 1.68746197 -1.08593702
vt 4.87502289 -1.06250000
vt 1.68746805 -1.06250000
vt 4.87500000 -1.12500000
vt 1.68744504 -1.12500000
vt 4.84380007 -3.31250000
vt 3.10940003 -3.25002480
vt 4.84380007 -2.07030010
vt 1.65624499 -3.31250000
vt 2.79689288 -3.25002480
vt 2.79689288 -2.93749905
vt 3.10940003 -2.93749905
vt 1.65624499 -2.07030010
vt -0.25000000 -1.12500000
vt 1.62500000 -1.08590007
vt -0.25000000 -1.08590007
vt 1.68750095 -1.06244111
vt 1.62500000 -1.06244111
vt 1.68750095 -1.12500000
vt 2.20314407 -1.02343893
vt -2.59380007 -1.06250000
vt 2.20314407 -1.06250000
vt 2.20314407 -1.00000310
vt -2.59380007 -1.00000000
vt 0.65630192 -1.12500000
vt 0.59380001 -1.06243801
vt 0.65630192 -1.06243801
vt 0.59380001 -1.08590007
vt -0.25000000 -1.08590007
vt -0.25000000 -1.12500000
vt 2.07030010 -1.00000000
vt 3.31250000 -1.02340007
vt 3.31250000 -1.00000000
vt 2.07030010 -1.00000000
vt 3.31250000 -1.06250000
vt 3.31250000 -1.02340007
vt 2.07030010 -1.00000000
vt 2.07030010 -1.06250000
vt 3.31250000 -1.06250000
vt -3.71880007 -1.12500000
vt -4.03130007 -1.06250000
vt -3.71880007 -1.06250000
vt -4.03130007 -1.12500000
vt -3.31250000 -1.06250000
vt -3.00000000 -1.12500000
vt -3.31250000 -1.12500000
vt -3.00000000 -1.06250000
vt -3.00000000 -1.12500000
vt -3.31250000 -1.06250000
vt -3.31250000 -1.12500000
vt -3.00000000 -1.06250000
vt -4.03113317 -1.12500000
vt -3.71880007 -1.06250000
vt -4.03113317 -1.06250000
vt -3.71880007 -1.12500000
vt -2.15619493 -0.06250000
vt 3.50645709 -0.00000095
vt 3.50656199 -0.06250095
vt -2.15630007 0.00000000
vt 4.81250000 -0.06250000
vt 4.84380007 0.00000000
vt 4.81250000 0.00000000
vt 4.84380007 -0.06250000
vt 5.65630007 -0.06250000
vt 5.71880007 0.00000000
vt 5.65630007 0.00000000
vt 5.71880007 -0.06250000
vt 4.84380007 -0.06250000
vt 0.62436980 0.00000000
vt 4.84380007 0.00000000
vt 0.62436980 -0.06250000
vt -6.24219322 -0.06250000
vt -3.56238890 0.00000000
vt -3.56238198 -0.06250000
vt -6.24219990 0.00000000
vt -2.59360099 0.00000000
vt -6.24219990 -0.06250000
vt -2.59358501 -0.06250000
vt -6.24221611 0.00000000
vt 5.71880007 -0.06250000
vt 5.65630007 0.00000000
vt 5.71880007 0.00000000
vt 5.65630007 -0.06250000
vt 0.65630001 -0.06250000
vt 0.59380001 0.00000000
vt 0.65630001 0.00000000
vt 0.59380001 -0.06250000
f 1/1 2/2 3/3
f 2/2 1/1 4/4
f 5/5 6/6 7/7
f 8/8 9/9 10/10
f 9/9 8/8 11/11
f 12/12 13/13 14/14
f 15/15 16/16 17/17
f 16/16 15/15 18/18
f 18/18 15/15 14/14
f 19/19 20/20 21/21
f 20/20 19/19 22/22
f 22/22 19/19 23/23
f 24/24 25/25 26/26
f 25/25 24/24 27/27
f 28/28 29/29 30/30
f 29/29 28/28 31/31
f 30/30 32/32 33/33
f 32/32 30/30 34/34
f 34/34 30/30 29/29
f 35/35 36/36 37/37
f 36/36 35/35 38/38
f 39/39 40/40 41/41
f 40/40 39/39 42/42
f 42/42 39/39 43/43
f 44/44 45/45 46/46
f 45/45 44/44 47/47
f 45/45 47/47 48/48
f 48/48 47/47 49/49
f 46/46 50/50 51/51
f 50/50 46/46 45/45
f 51/51 50/50 49/49
f 51/51 49/49 47/47
f 52/52 53/53 54/54
f 53/53 55/55 56/56
f 55/55 53/53 57/57
f 57/57 53/53 52/52
f 58/58 59/59 60/60
f 59/59 58/58 61/61
f 59/59 61/61 62/62
f 63/63 64/64 65/65
f 64/64 63/63 66/66
f 66/66 63/63 67/67
f 67/67 63/63 68/68
f 69/69 70/70 71/71
f 72/72 73/73 74/74
f 75/75 76/76 77/77
f 78/78 79/79 80/80
f 79/79 78/78 81/81
f 82/82 83/83 84/84
f 83/83 82/82 85/85
f 86/86 87/87 88/88
f 87/87 86/86 89/89
f 90/90 91/91 92/92
f 91/91 90/90 93/93
f 94/94 95/95 96/96
f 95/95 94/94 97/97
f 98/98 99/99 100/100
f 99/99 98/98 101/101
f 102/102 103/103 104/104
f 103/103 102/102 105/105
f 106/106 107/107 108/108
f 107/107 106/106 109/109
f 110/110 111/111 112/112
f 111/111 110/110 113/113
f 114/114 115/115 116/116
f 115/115 114/114 117/117
f 118/118 119/119 120/120
f 119/119 118/118 121/121
f 122/122 123/123 124/124
f 123/123 122/122 125/125

