# https://github.com/mikedh/trimesh
v 0.79646030 1.21917099 -1.14021890
v 0.79335356 1.39532589 -1.14023589
v 0.79342665 1.23068555 -1.14030082
v 0.79637551 1.40676945 -1.14025541
v 0.80444081 1.21102121 -1.14033387
v 0.80453789 1.41491598 -1.14027721
v 0.81606757 1.20799807 -1.14026577
v 0.81612577 1.41801098 -1.14023651
v 0.98082899 1.20794026 -1.14030325
v 0.98071775 1.41802363 -1.14024451
v 0.99215282 1.21102180 -1.14026764
v 0.99224732 1.41496223 -1.14023627
v 1.00032392 1.21917114 -1.14021015
v 1.00045480 1.40673070 -1.14016566
v 1.00354639 1.23067544 -1.14024181
v 1.00344522 1.39544741 -1.14013845
v 0.81615229 1.20801469 -1.14023615
v 0.80450887 1.21103427 -1.14021792
v 0.80450399 1.21105863 -1.14023173
v 0.79401459 1.19942497 -1.14816051
v 0.79394557 1.19942585 -1.14801416
v 0.99006011 1.19606490 -1.14813593
v 0.99018685 1.19612532 -1.14808157
v 0.81590817 1.20793770 -1.14021626
v 0.81610367 1.20789687 -1.14014688
v 0.80663583 1.19600452 -1.14806318
v 0.80671930 1.19616689 -1.14810868
v 0.98073533 1.20791152 -1.14032444
v 0.98069605 1.20797296 -1.14022251
v 0.99229326 1.21098855 -1.14015498
v 0.99219684 1.21113051 -1.14028431
v 1.00278964 1.19951237 -1.14805731
v 1.00284429 1.19946146 -1.14820192
v 1.00027835 1.21920968 -1.14019761
v 1.01189184 1.20849546 -1.14806696
v 1.01182381 1.20851748 -1.14808232
v 1.00332721 1.23065137 -1.14029338
v 1.00347102 1.23062321 -1.14024561
v 1.00040608 1.21913282 -1.14017132
v 1.00040803 1.21923047 -1.14018693
v 1.01540201 1.22135649 -1.14811557
v 1.01526704 1.22129681 -1.14816708
v 1.00337764 1.39537430 -1.14029258
v 1.00340159 1.39529497 -1.14024157
v 1.01537587 1.40476204 -1.14812102
v 1.01541751 1.40476690 -1.14805007
v 1.01175769 1.41750043 -1.14809947
v 1.01192768 1.41744816 -1.14809684
v 1.00038324 1.40678557 -1.14037384
v 1.00035713 1.40675845 -1.14019209
v 0.99219675 1.41495424 -1.14030972
v 1.00280335 1.42648783 -1.14821071
v 1.00285280 1.42648207 -1.14819245
v 0.98062775 1.41808280 -1.14027607
v 0.99218205 1.41493476 -1.14014721
v 0.99221132 1.41495443 -1.14034857
v 0.81614289 1.41810745 -1.14019290
v 0.99009324 1.42999712 -1.14809756
v 0.99012771 1.42993198 -1.14821001
v 0.80677902 1.42982332 -1.14813480
v 0.98076146 1.41798797 -1.14022056
v 0.98076172 1.41802490 -1.14022625
v 0.80455347 1.41503381 -1.14023651
v 0.80455361 1.41483064 -1.14033764
v 0.80464876 1.41494607 -1.14027519
v 0.79407233 1.42641035 -1.14815587
v 0.79394336 1.42652427 -1.14816062
v 0.79641525 1.40670961 -1.14021348
v 0.79339630 1.39532951 -1.14024797
v 0.79326838 1.39532979 -1.14017394
v 0.78491794 1.41756636 -1.14816815
v 0.78494504 1.41741362 -1.14808569
v 0.78145708 1.40464723 -1.14817306
v 0.78164440 1.40467672 -1.14824309
v 0.79641310 1.40684877 -1.14028841
v 0.79653556 1.40686854 -1.14026722
v 0.79331839 1.23056658 -1.14030059
v 0.79325738 1.23070123 -1.14016098
v 0.78138096 1.22123302 -1.14822797
v 0.78139877 1.22111571 -1.14818980
v 0.78498872 1.20853987 -1.14806809
v 0.78487986 1.20866826 -1.14810803
v 0.79642935 1.21933461 -1.14027771
v 0.79637820 1.21919135 -1.14026030
v 0.80464751 1.21097837 -1.14020888
v 0.78496164 1.20852025 -1.14811022
v 0.79392153 1.19964013 -1.14816309
v 0.99006272 1.19597988 -1.14814127
v 0.99008997 1.19609164 -1.14815738
v 0.80151944 1.18933600 -1.16404860
v 0.99545361 1.18948581 -1.16404579
v 0.99520413 1.18936288 -1.16399949
v 0.80671843 1.19599948 -1.14819859
v 0.80680300 1.19607238 -1.14814300
v 1.00873411 1.19303615 -1.16417712
v 1.00284152 1.19943190 -1.14818129
v 1.00279545 1.19954178 -1.14819152
v 1.01526658 1.22134405 -1.14807419
v 1.01184341 1.20859522 -1.14813795
v 1.01835088 1.20257150 -1.16394740
v 1.02205332 1.40991317 -1.16396406
v 1.02175006 1.40989023 -1.16399964
v 1.01534504 1.22126661 -1.14811680
v 1.01537912 1.22128897 -1.14814841
v 1.02205494 1.21604675 -1.16393538
v 1.01536478 1.40463241 -1.14813785
v 1.01529793 1.40472258 -1.14809897
v 1.01186792 1.41735836 -1.14810178
v 1.01196021 1.41741860 -1.14809468
v 1.00281155 1.42649265 -1.14813793
v 0.80673423 1.42984923 -1.14808091
v 0.99527163 1.43658520 -1.16401883
v 0.99530517 1.43649797 -1.16392561
v 0.80142693 1.43650000 -1.16398372
v 0.99017949 1.42995821 -1.14813528
v 0.99000347 1.42992960 -1.14812139
v 0.80681935 1.42997917 -1.14821337
v 0.79409570 1.42646446 -1.14817378
v 0.77857378 1.42333590 -1.16402048
v 0.78147085 1.40473293 -1.14805963
v 0.78482585 1.41754735 -1.14806246
v 0.78143441 1.22125515 -1.14817924
v 0.78146504 1.22126555 -1.14816679
v 0.77488587 1.40989656 -1.16402214
v 0.77488118 1.21619746 -1.16406488
v 0.77479965 1.21617157 -1.16395434
v 0.78147134 1.40475229 -1.14818650
v 0.78481951 1.20850813 -1.14811271
v 0.79392365 1.19946745 -1.14817960
v 0.77844607 1.20258711 -1.16397577
v 0.78810753 1.19303914 -1.16401080
v 0.78487425 1.20859332 -1.14811475
v 0.79406933 1.19943038 -1.14809808
v 0.78808614 1.19304646 -1.16396260
v 0.80662863 1.19617399 -1.14820197
v 0.99534171 1.18935412 -1.61699179
v 0.99526219 1.18943211 -1.61705869
v 0.99226680 1.18940286 -1.61415285
v 0.80148444 1.18943365 -1.61708879
v 0.99533257 1.18948423 -1.16400717
v 0.99519485 1.18950671 -1.16393215
v 0.99218147 1.18955084 -1.16710605
v 0.80454739 1.18941284 -1.16701909
v 0.80455956 1.18954138 -1.61402664
v 0.80158893 1.18945553 -1.16400756
v 0.78812494 1.19297701 -1.16391542
v 1.01832864 1.20261529 -1.16395250
v 1.00289907 1.19954407 -1.14799830
v 1.00881343 1.19314666 -1.16403107
v 1.01190835 1.20859526 -1.14812126
v 1.00876594 1.19309451 -1.61701048
v 1.00874137 1.19304711 -1.16404865
v 1.01827817 1.20271982 -1.16400332
v 1.02202795 1.21603504 -1.61718007
v 1.02191604 1.21618401 -1.61699684
v 1.02200022 1.40982545 -1.16400606
v 1.02196183 1.21609309 -1.16415091
v 1.02192769 1.21610253 -1.16390574
v 1.02198978 1.40995981 -1.61708590
v 1.01831712 1.42310125 -1.16396985
v 1.01193520 1.41753304 -1.14814984
v 1.02198572 1.40983134 -1.16406978
v 1.00870409 1.43289660 -1.16391547
v 1.01190199 1.41737735 -1.14811153
v 1.01834578 1.42329771 -1.16392841
v 1.00271938 1.42647552 -1.14807964
v 0.99000875 1.42996327 -1.14804137
v 1.00286212 1.42638552 -1.14816456
v 1.00882267 1.43293582 -1.16399869
v 0.79399906 1.42653248 -1.14816336
v 1.00872986 1.43292634 -1.16403124
v 0.80152263 1.43664245 -1.16405708
v 0.99540308 1.43667789 -1.61716630
v 0.99527705 1.43658423 -1.61710824
v 0.80148559 1.43654887 -1.61701681
v 0.99525448 1.43667468 -1.16398041
v 0.99527939 1.43665167 -1.16395992
v 0.79399468 1.42646835 -1.14800961
v 0.77853337 1.42332653 -1.16409422
v 0.78493240 1.41735582 -1.14822476
v 0.78804207 1.43293479 -1.16391992
v 0.77850110 1.42338806 -1.16407281
v 0.77483505 1.40988191 -1.16394553
v 0.77484350 1.21616313 -1.61709267
v 0.77485824 1.21613941 -1.61713811
v 0.77484713 1.21609459 -1.16411422
v 0.77489484 1.21609206 -1.16405012
v 0.77481343 1.40988284 -1.61696999
v 0.77482631 1.21614291 -1.16391444
v 0.77851641 1.20271348 -1.16402721
v 0.78495666 1.20855741 -1.14805469
v 0.77842272 1.20260084 -1.16392083
v 0.78804713 1.19304666 -1.61705721
v 0.78801706 1.19314961 -1.16407430
v 0.77847471 1.20266958 -1.61706831
v 0.78801018 1.19301561 -1.61703601
v 0.78799627 1.19310782 -1.16409106
v 1.01829869 1.20265064 -1.61713826
v 1.00878730 1.19306730 -1.16406132
v 1.00865498 1.19297312 -1.61705883
v 1.01826201 1.20256516 -1.16401226
v 1.01847134 1.20266535 -1.61701544
v 1.01834548 1.20269608 -1.16408003
v 1.01830628 1.42335486 -1.16399918
v 1.01832082 1.42329834 -1.61707761
v 1.00870037 1.43277013 -1.61713467
v 1.01836151 1.42343383 -1.16388755
v 1.01833842 1.42339338 -1.61700652
v 1.00870536 1.43281414 -1.16399621
v 0.79386476 1.42646903 -1.14808311
v 0.80144421 1.43656531 -1.16392251
v 0.78808112 1.43294947 -1.16394282
v 1.00885318 1.43292686 -1.16392315
v 1.00874365 1.43288446 -1.61704267
v 0.78802216 1.43288270 -1.16403513
v 0.78791917 1.43292418 -1.61713890
v 0.78805254 1.43300601 -1.16402984
v 0.77845085 1.42342206 -1.61702856
v 0.77854341 1.42331727 -1.16395249
v 0.78801726 1.43287654 -1.61702552
v 0.77844742 1.42338569 -1.16385231
v 0.77838111 1.42329308 -1.61699359
v 0.77847504 1.20271920 -1.61712350
v 0.77850408 1.20263918 -1.16398961
v 2.06182926 4.06970195 -1.14032294
v 2.05879378 4.24597124 -1.14025099
v 2.05870581 4.08124305 -1.14032793
v 2.06174819 4.25748582 -1.14024825
v 2.07000056 4.06159364 -1.14017356
v 2.06996978 4.26557285 -1.14022403
v 2.08135035 4.05841472 -1.14032298
v 2.08149831 4.26872582 -1.14027862
v 2.24611198 4.05859162 -1.14026774
v 2.24605118 4.26872368 -1.14022839
v 2.25742719 4.06161146 -1.14024872
v 2.25760990 4.26555279 -1.14029622
v 2.26571316 4.06979427 -1.14027381
v 2.26569755 4.25748263 -1.14031517
v 2.26880438 4.08109751 -1.14022450
v 2.26887617 4.24598680 -1.14020154
v 2.06183594 4.25742719 -1.14022859
v 2.06179279 4.25747874 -1.14027872
v 2.05018186 4.26806815 -1.14800684
v 2.05021247 4.26801016 -1.14816142
v 2.05868530 4.24595618 -1.14033316
v 2.05869157 4.08113196 -1.14029211
v 2.05863620 4.08115676 -1.14036230
v 2.04689317 4.25530660 -1.14823651
v 2.04678247 4.25523471 -1.14816175
v 2.04673066 4.07194448 -1.14814377
v 2.04684738 4.07193060 -1.14803581
v 2.05859788 4.24605934 -1.14018014
v 2.05874343 4.24609865 -1.14024498
v 2.06185915 4.06973130 -1.14018833
v 2.05934373 4.05005886 -1.14799076
v 2.05931492 4.05008690 -1.14813182
v 2.06176302 4.06980869 -1.14021247
v 2.06183068 4.06963243 -1.14019603
v 2.05024965 4.05907931 -1.14808287
v 2.05030530 4.05908987 -1.14796894
v 2.06987500 4.06152493 -1.14032782
v 2.07003533 4.06161984 -1.14028015
v 2.08139514 4.05849208 -1.14029955
v 2.25541746 4.04668164 -1.14805759
v 2.08133462 4.05854302 -1.14020943
v 2.08133299 4.05849781 -1.14032074
v 2.07199895 4.04664470 -1.14816466
v 2.07211610 4.04663670 -1.14809464
v 2.24611256 4.05848974 -1.14026300
v 2.25758026 4.06158753 -1.14023147
v 2.26824619 4.05009600 -1.14801535
v 2.26816214 4.05011810 -1.14814471
v 2.26573452 4.06972572 -1.14018950
v 2.26573094 4.06984897 -1.14033464
v 2.25755049 4.06157615 -1.14028990
v 2.25753835 4.06162321 -1.14025852
v 2.27726069 4.05911958 -1.14810822
v 2.27731655 4.05909845 -1.14811959
v 2.26882117 4.08124986 -1.14026137
v 2.28071438 4.07183809 -1.14811832
v 2.28065914 4.07192993 -1.14812593
v 2.26882811 4.24589905 -1.14020848
v 2.26886788 4.24600588 -1.14012171
v 2.26882248 4.08129466 -1.14026502
v 2.26884970 4.08124358 -1.14024135
v 2.28075545 4.25525705 -1.14811715
v 2.28074796 4.25538211 -1.14817098
v 2.26561013 4.25737681 -1.14025199
v 2.27727385 4.26802198 -1.14804755
v 2.27732268 4.26801335 -1.14814826
v 2.25755948 4.26552180 -1.14027122
v 2.26562436 4.25737821 -1.14028337
v 2.26570870 4.25739081 -1.14021651
v 2.26816826 4.27705670 -1.14808661
v 2.26818634 4.27709663 -1.14807884
v 2.24615609 4.26866179 -1.14026945
v 2.25762213 4.26555422 -1.14028824
v 2.25757137 4.26546927 -1.14031608
v 2.08128416 4.26860510 -1.14017607
v 2.08136501 4.26869455 -1.14025768
v 2.25541384 4.28061807 -1.14808415
v 2.25534977 4.28059997 -1.14818515
v 2.07206679 4.28057722 -1.14813792
v 2.24619857 4.26869295 -1.14035359
v 2.24610158 4.26866374 -1.14029252
v 2.06993555 4.26559227 -1.14023816
v 2.06989262 4.26555416 -1.14029479
v 2.06987466 4.26547464 -1.14023998
v 2.05933178 4.27708377 -1.14818950
v 2.05932229 4.27702022 -1.14817611
v 2.06179902 4.25732199 -1.14021668
v 2.05948507 4.27711140 -1.14818321
v 2.05025447 4.26792155 -1.14814266
v 2.04684977 4.07193442 -1.14818253
v 2.04683708 4.07196898 -1.14801267
v 2.04015016 4.26041180 -1.16399431
v 2.04001440 4.06667296 -1.16401415
v 2.04016487 4.06660878 -1.16401260
v 2.04677151 4.25532174 -1.14817562
v 2.04680164 4.25526138 -1.14808505
v 2.04666367 4.07187774 -1.14807334
v 2.05024895 4.05906037 -1.14809973
v 2.04386085 4.05322387 -1.16406832
v 2.05928835 4.05006724 -1.14817316
v 2.05921646 4.05003948 -1.14812356
v 2.25542564 4.04663388 -1.14811469
v 2.25551119 4.04677281 -1.14807519
v 2.06680161 4.03985454 -1.16400339
v 2.26064644 4.03994566 -1.16398105
v 2.26059534 4.04004102 -1.16401747
v 2.07210186 4.04653224 -1.14814652
v 2.07206858 4.04655164 -1.14800506
v 2.25542358 4.04672321 -1.14816029
v 2.28367495 4.05331252 -1.16397911
v 2.26821239 4.05010257 -1.14820306
v 2.27409003 4.04360412 -1.16398560
v 2.27723003 4.05915076 -1.14812435
v 2.27726097 4.05915132 -1.14815940
v 2.28727218 4.26042398 -1.16393232
v 2.28735923 4.26050025 -1.16391352
v 2.28064344 4.07192958 -1.14818517
v 2.28069495 4.07192801 -1.14802124
v 2.28728875 4.06669954 -1.16392716
v 2.28724562 4.06672739 -1.16401642
v 2.28066159 4.25528451 -1.14808338
v 2.28065974 4.25529873 -1.14810907
v 2.28063964 4.25537026 -1.14805321
v 2.27721077 4.26798060 -1.14807266
v 2.26817049 4.27697130 -1.14805571
v 2.07207817 4.28065273 -1.14809785
v 2.07208928 4.28071170 -1.14813012
v 2.26058408 4.28717248 -1.16392841
v 2.06681619 4.28710315 -1.16397022
v 2.06669232 4.28709191 -1.16394915
v 2.25542078 4.28043736 -1.14800227
v 2.07199166 4.28050460 -1.14814236
v 2.05342548 4.28348578 -1.16400257
v 2.05027450 4.26801107 -1.14811396
v 2.05918850 4.27711032 -1.14820524
v 2.04370827 4.27401761 -1.16407598
v 2.04682981 4.25522849 -1.14816099
v 2.05030048 4.26795247 -1.14809693
v 2.04021607 4.06677630 -1.16401812
v 2.04025666 4.06681020 -1.16390092
v 2.04022859 4.06982291 -1.16691058
v 2.04032892 4.06665860 -1.61700515
v 2.04022956 4.06670973 -1.61705210
v 2.04022260 4.26052161 -1.16398430
v 2.04021358 4.25745943 -1.16706489
v 2.04022609 4.25743493 -1.61387195
v 2.04026766 4.06981852 -1.61395887
v 2.04011829 4.26048319 -1.61712462
v 2.05020858 4.05919309 -1.14812577
v 2.04386911 4.27389520 -1.16392442
v 2.04020163 4.06677772 -1.16395658
v 2.04385040 4.05321119 -1.16399571
v 2.05032146 4.05919597 -1.14819251
v 2.05939601 4.05007333 -1.14807010
v 2.04379782 4.05327923 -1.16404618
v 2.05342829 4.04364425 -1.16401504
v 2.05929896 4.05007700 -1.14822589
v 2.05347384 4.04372103 -1.16402462
v 2.07199354 4.04659907 -1.14806203
v 2.26068022 4.03999817 -1.16394294
v 2.06682373 4.03997914 -1.61703252
v 2.06688136 4.03998057 -1.61721456
v 2.26068300 4.04003621 -1.61716768
v 2.06692380 4.04001560 -1.16398064
v 2.06694482 4.03997138 -1.16395414
v 2.26824237 4.05013278 -1.14802008
v 2.05346056 4.04362819 -1.16388802
v 2.26813319 4.05005816 -1.14817858
v 2.26063583 4.04008244 -1.16391853
v 2.27414202 4.04362527 -1.16403137
v 2.27407700 4.04372049 -1.61711670
v 2.28374166 4.05323837 -1.16398714
v 2.27420591 4.04363344 -1.16389635
v 2.28360306 4.05319009 -1.61715765
v 2.28066981 4.07193403 -1.14807467
v 2.27728188 4.05916972 -1.14819116
v 2.28360809 4.05325888 -1.16391548
v 2.27724099 4.26793904 -1.14821310
v 2.28364748 4.27402969 -1.16401029
v 2.28362570 4.05320321 -1.16402710
v 2.28735262 4.06666509 -1.61711569
v 2.28732497 4.06673389 -1.61701774
v 2.28736998 4.26043659 -1.16410095
v 2.28728776 4.06672264 -1.16407892
v 2.28735182 4.06666936 -1.16403311
v 2.28740466 4.26047873 -1.61697789
v 2.26814343 4.27715236 -1.14806423
v 2.27708063 4.26801098 -1.14802564
v 2.28373639 4.27390651 -1.16401182
v 2.25537712 4.28054907 -1.14822894
v 2.26813880 4.27715165 -1.14812089
v 2.27409162 4.28350185 -1.16383051
v 2.06695030 4.28711123 -1.16389604
v 2.06688179 4.28720359 -1.16403339
v 2.26058493 4.28720739 -1.61710827
v 2.06683958 4.28721323 -1.61713223
v 2.06680070 4.28719173 -1.61718086
v 2.26059627 4.28713622 -1.16407963
v 2.05926539 4.27712402 -1.14810181
v 2.27405613 4.28354057 -1.16390503
v 2.05925533 4.27708717 -1.14799916
v 2.06692446 4.28720809 -1.16400983
v 2.05337177 4.28357799 -1.16395779
v 2.05026786 4.26798799 -1.14822617
v 2.05342991 4.28346614 -1.16400567
v 2.04388123 4.27398339 -1.16395381
v 2.04397778 4.27400443 -1.16404311
v 2.04379046 4.27407531 -1.61710184
v 2.04383764 4.05334671 -1.61695689
v 2.04383700 4.05325510 -1.16409729
v 2.05336505 4.04364015 -1.16399798
v 2.04382063 4.05324964 -1.61692780
v 2.05344871 4.04368123 -1.61706133
v 2.04382985 4.05331551 -1.16405805
v 2.27410612 4.04359563 -1.61705613
v 2.27412103 4.04371852 -1.16392463
v 2.05346082 4.04376129 -1.61696462
v 2.05343963 4.04368517 -1.16411565
v 2.28370848 4.05324005 -1.61716436
v 2.28366267 4.05329871 -1.16407314
v 2.28376777 4.27396235 -1.16401155
v 2.28368029 4.27398400 -1.61714865
v 2.27423816 4.28345872 -1.16404428
v 2.26827509 4.27713159 -1.14803886
v 2.28375272 4.27395635 -1.16407543
v 2.05339159 4.28352040 -1.16399868
v 2.05329529 4.28357196 -1.61695589
v 2.27420301 4.28344626 -1.16397106
v 2.27398416 4.28361131 -1.61717964
v 2.04386535 4.27400427 -1.16391892
v 2.05344138 4.28342141 -1.61706757
v 2.04382398 4.27395586 -1.61700120
v 2.05346076 4.28363762 -1.16395734
v 2.27409007 4.28360765 -1.61708058
v 2.28370614 4.27394443 -1.16413741
v 2.28370584 4.27395105 -1.61707419
v 2.27410516 4.28343001 -1.16399260
v 2.07735479 4.25736377 -1.16711608
v 2.04015583 4.25749752 -1.61405410
v 2.07731468 4.25738136 -1.61385442
v 2.04027279 4.25736919 -1.16717821
v 2.07735032 4.25746344 -1.16715160
v 2.04023829 4.06974672 -1.16713156
v 2.04009478 4.25743143 -1.16706773
v 2.07729332 4.06988406 -1.16704350
v 2.07729881 4.06984120 -1.61403643
v 2.04019077 4.25730105 -1.61402635
v 2.04018727 4.06986026 -1.61384609
v 2.07719704 4.25738514 -1.61397582
v 2.04022501 4.06983103 -1.16706217
v 2.07720423 4.06981959 -1.61391715
v 2.04016158 4.06991610 -1.61398586
v 2.07722455 4.06981360 -1.16709996
v 0.80453337 1.18942086 -1.61387474
v 0.80473876 1.22645946 -1.16702961
v 0.80462478 1.18943964 -1.16700754
v 0.80466863 1.22650355 -1.61402860
v 0.99213120 1.22649012 -1.16706506
v 0.80464737 1.18947000 -1.16702508
v 0.80447023 1.22654909 -1.16714863
v 0.99226761 1.18944286 -1.16704636
v 0.99216674 1.18943968 -1.61408581
v 0.80468346 1.22647398 -1.61412980
v 0.80468140 1.18952466 -1.61402540
v 0.99227362 1.22644844 -1.61411014
v 0.99217789 1.22651390 -1.16707665
v 0.99220602 1.18944052 -1.61395880
v 0.99218654 1.18938569 -1.16710099
v 0.99217827 1.22647568 -1.61403922
v -1.01462047 1.18818254 -1.61395314
v -1.01459130 1.22523833 -1.16705221
v -1.01453776 1.18821890 -1.16719145
v -1.01461516 1.22529264 -1.61394058
v -0.82696784 1.22526868 -1.16713681
v -1.01451289 1.18809458 -1.16702471
v -1.01458840 1.22515976 -1.16710894
v -0.82693591 1.18814159 -1.16715858
v -1.01460500 1.18812767 -1.61404822
v -1.01763202 1.18822610 -1.16403179
v -1.01762678 1.18815394 -1.61706802
v -1.01457988 1.18826847 -1.16705385
v -0.96423326 1.18820889 -1.16401165
v -0.82703770 1.18812634 -1.61397360
v -1.01459107 1.22522512 -1.61405679
v -1.01469146 1.18818533 -1.61396113
v -0.82687621 1.22523874 -1.61390974
v -0.82693643 1.22524580 -1.16708011
v -0.82703548 1.18828573 -1.61406394
v -0.82701169 1.18826182 -1.16709135
v -0.82704408 1.22526383 -1.61393988
v -0.82388387 1.18819469 -1.61701622
v -0.82695164 1.18811006 -1.61399509
v -1.01760568 1.18820731 -1.61704764
v -0.82387747 1.18823549 -1.16405046
v -0.82399324 1.18810713 -1.16388488
v -0.82707355 1.18816315 -1.16709609
v -1.01452456 1.18807150 -1.16708718
v -0.96409834 1.18824541 -1.16397322
v -1.01460331 1.18828466 -1.61407390
v -0.82905398 1.19483089 -1.14808415
v -0.82909757 1.19481243 -1.14806344
v -0.96424264 1.18810147 -1.16398826
v -0.82391528 1.18818743 -1.16390123
v -0.82395377 1.18822325 -1.16397473
v -1.01751445 1.18809199 -1.16403144
v -1.01253028 1.19488041 -1.14817015
v -1.01240139 1.19489733 -1.14806741
v -1.03109883 1.19172880 -1.61705084
v -1.03121269 1.19180144 -1.16398579
v -0.81047537 1.19188161 -1.61706981
v -0.81055093 1.19175893 -1.16407581
v -0.81638892 1.19832826 -1.14808935
v -0.82909308 1.19472157 -1.14797577
v -0.82911549 1.19494723 -1.14817304
v -1.00320600 1.20684848 -1.14032345
v -1.00314587 1.20666941 -1.14030751
v -1.01237072 1.19473872 -1.14806547
v -1.01243513 1.19473825 -1.14823581
v -0.83853871 1.20664129 -1.14024436
v -0.83840973 1.20667850 -1.14026435
v -1.03106612 1.19187036 -1.16397508
v -1.03116309 1.19187093 -1.16398712
v -1.04077556 1.20136838 -1.61698705
v -1.03101301 1.19179137 -1.61718860
v -1.04069417 1.20134837 -1.16395352
v -0.81047946 1.19195955 -1.61705510
v -0.80082143 1.20132937 -1.16417000
v -0.81044829 1.19183951 -1.16395426
v -0.80091022 1.20132480 -1.61715949
v -0.81633591 1.19829551 -1.14817355
v -0.82395064 1.18813307 -1.16411368
v -0.81044441 1.19187511 -1.16401178
v -0.82707645 1.20977753 -1.14017477
v -0.82685993 1.20980602 -1.14030602
v -0.81649065 1.19815799 -1.14812559
v -0.81635587 1.19826786 -1.14813620
v -1.02283088 1.21783806 -1.14024895
v -1.02589743 1.39419395 -1.14034685
v -1.02574434 1.22934273 -1.14024433
v -1.02272321 1.40554239 -1.14038066
v -1.01465587 1.20988242 -1.14033600
v -1.01473874 1.41369561 -1.14028307
v -1.00325019 1.20664416 -1.14028725
v -1.00319655 1.41681736 -1.14021486
v -0.83840658 1.20671086 -1.14015552
v -0.83836342 1.41662990 -1.14028007
v -0.82708584 1.20974762 -1.14021093
v -0.82700201 1.41368284 -1.14017766
v -0.81893199 1.21792843 -1.14022448
v -0.81883886 1.40549245 -1.14025931
v -0.81569053 1.22940513 -1.14023857
v -0.81572101 1.39412266 -1.14033359
v -1.02523613 1.19827848 -1.14831001
v -1.02517113 1.19827279 -1.14818626
v -1.03117098 1.19181112 -1.16397297
v -1.01252524 1.19487105 -1.14809499
v -1.04440097 1.21484051 -1.16398429
v -1.04430863 1.21491068 -1.16400411
v -1.04072087 1.20140201 -1.61701184
v -1.04079009 1.20144017 -1.16411107
v -1.04432554 1.21488485 -1.61706196
v -1.04448301 1.21496473 -1.61700718
v -1.02521573 1.19828018 -1.14817743
v -1.04069876 1.20149852 -1.16406997
v -1.03096136 1.19179691 -1.16394773
v -0.80092682 1.20142734 -1.61713959
v -0.79726917 1.21485530 -1.16403814
v -0.79724372 1.21492872 -1.16407601
v -0.80094935 1.20140630 -1.16403255
v -0.79729018 1.21487728 -1.61709634
v -0.79720852 1.21486681 -1.61707420
v -0.80730641 1.20737880 -1.14804008
v -0.81046627 1.19176076 -1.16409028
v -0.80101260 1.20133175 -1.16405012
v -0.80730545 1.20720182 -1.14803303
v -0.81630480 1.19832811 -1.14815144
v -0.81044167 1.19176580 -1.16390370
v -0.81891427 1.21790284 -1.14017117
v -1.00301963 1.20668443 -1.14028318
v -1.01477928 1.20989387 -1.14023915
v -1.01474129 1.20984273 -1.14022051
v -1.02523889 1.19821822 -1.14807567
v -1.02520303 1.19828189 -1.14804542
v -0.80722952 1.20736279 -1.14808450
v -0.80738015 1.20724845 -1.14807028
v -0.81570030 1.22941494 -1.14020671
v -0.81887410 1.21796858 -1.14031820
v -0.81883653 1.21799079 -1.14029919
v -0.80373595 1.22012966 -1.14803654
v -0.80386785 1.21997588 -1.14816275
v -0.81570612 1.39409741 -1.14021396
v -0.81573058 1.39407847 -1.14020099
v -0.81565736 1.22933873 -1.14022673
v -0.81573020 1.22940047 -1.14026428
v -0.80393133 1.40352326 -1.14818378
v -0.80390805 1.40347735 -1.14810921
v -0.81888885 1.40552328 -1.14026760
v -0.81886691 1.40560276 -1.14032889
v -0.81881819 1.40565664 -1.14024566
v -0.81642377 1.42520038 -1.14811751
v -0.81640768 1.42531970 -1.14823235
v -0.82688985 1.41358553 -1.14026043
v -0.82705575 1.41375895 -1.14030511
v -0.80737131 1.41616072 -1.14814523
v -0.80742019 1.41620915 -1.14826601
v -0.83835848 1.41678732 -1.14019984
v -1.00320799 1.41675910 -1.14021821
v -0.82914937 1.42860280 -1.14812548
v -0.82919770 1.42869634 -1.14803613
v -1.01244377 1.42869724 -1.14813028
v -0.83844948 1.41676858 -1.14023629
v -0.83843980 1.41678418 -1.14024147
v -1.01474949 1.41382820 -1.14021952
v -1.01471142 1.41371597 -1.14032675
v -1.01465933 1.41365440 -1.14019138
v -1.02533436 1.42522285 -1.14822069
v -1.02521853 1.42522508 -1.14820592
v -1.02264906 1.40565865 -1.14029232
v -1.02270500 1.40555428 -1.14024309
v -1.03422058 1.41616508 -1.14801094
v -1.03433153 1.41617575 -1.14800502
v -1.02583039 1.39399057 -1.14024423
v -1.02592530 1.39401308 -1.14031539
v -1.02582729 1.22931549 -1.14034334
v -1.02587031 1.22940802 -1.14030038
v -1.03781645 1.40330492 -1.14816748
v -1.03768535 1.40349843 -1.14807203
v -1.03774750 1.22006842 -1.14804291
v -1.03778976 1.22008273 -1.14823421
v -1.02269523 1.21790666 -1.14032837
v -1.02268971 1.21786642 -1.14031079
v -1.03422029 1.20725268 -1.14816016
v -1.03435561 1.20736427 -1.14823208
v -1.04427681 1.21485440 -1.16401748
v -1.04078463 1.20139456 -1.16390854
v -1.03430099 1.20725960 -1.14814135
v -1.04432045 1.40863153 -1.16401377
v -1.04431618 1.40864834 -1.61712759
v -1.03443068 1.20734694 -1.14800696
v -1.04078001 1.20139483 -1.16391563
v -1.02511125 1.19825620 -1.14804400
v -0.79718325 1.40859634 -1.16412114
v -0.79728443 1.40865284 -1.61703635
v -0.80388559 1.22000826 -1.14821771
v -0.80395740 1.22005310 -1.14821616
v -0.80087739 1.20135479 -1.16402414
v -0.79709946 1.21487217 -1.16401911
v -0.80386555 1.21997072 -1.14803855
v -0.80725057 1.20728401 -1.14810620
v -0.80091740 1.20142758 -1.16408002
v -0.81635333 1.19834372 -1.14809297
v -0.80733821 1.20737433 -1.14800129
v -0.79718445 1.40863615 -1.16404699
v -0.79720245 1.40874738 -1.16412102
v -0.80379541 1.40344636 -1.14802793
v -0.80386278 1.40330547 -1.14799879
v -0.80392565 1.40348613 -1.14812795
v -0.81637204 1.42525283 -1.14815345
v -0.80729087 1.41620020 -1.14807132
v -0.80086884 1.42211427 -1.16391713
v -0.81642461 1.42524872 -1.14809102
v -1.01243933 1.42869325 -1.14811412
v -0.82393948 1.43539485 -1.16401766
v -0.82387669 1.43531304 -1.16399621
v -1.01773324 1.43532271 -1.16399990
v -0.82920420 1.42865200 -1.14814784
v -0.82920695 1.42862294 -1.14803060
v -1.01256522 1.42864491 -1.14820525
v -1.03766201 1.22011651 -1.14810078
v -1.03773168 1.22003056 -1.14813751
v -1.04439412 1.40866645 -1.16395590
v -1.04429740 1.21499411 -1.16395506
v -1.04431435 1.21493041 -1.16409215
v -1.03773653 1.40334516 -1.14802404
v -1.03434401 1.20742451 -1.14805547
v -1.04076364 1.42199368 -1.16406660
v -1.04066667 1.42207526 -1.61715219
v -0.80089016 1.42219801 -1.16390000
v -0.80090530 1.42211362 -1.61702455
v -0.80739240 1.41614897 -1.14814488
v -0.80085184 1.42206374 -1.16408326
v -0.80728249 1.41614232 -1.14819502
v -0.79730369 1.40861663 -1.16390965
v -0.81046718 1.43173895 -1.16413499
v -0.81642075 1.42516777 -1.14813691
v -0.80082952 1.42206153 -1.16407394
v -0.82905600 1.42865068 -1.14810356
v -0.81641016 1.42527597 -1.14814355
v -0.81040808 1.43171140 -1.16386270
v -1.02522217 1.42518500 -1.14819095
v -0.81049295 1.43169642 -1.16404160
v -1.01756611 1.43533146 -1.16405764
v -0.82394667 1.43528034 -1.61705100
v -0.82398095 1.43539739 -1.61708358
v -1.01767315 1.43537552 -1.61710748
v -0.82391854 1.43542849 -1.16397303
v -0.82390055 1.43529022 -1.16405869
v -1.02511069 1.42523469 -1.14800449
v -1.03116717 1.43174615 -1.16401060
v -1.03428856 1.41625561 -1.14809326
v -1.04068106 1.42199958 -1.16402617
v -1.03761219 1.40342338 -1.14810075
v -1.03432391 1.41614356 -1.14821124
v -1.04079957 1.42219740 -1.16400291
v -1.04080244 1.42203974 -1.16394485
v -1.03118322 1.43163154 -1.61712992
v -1.04080673 1.42219535 -1.61707049
v -1.03114508 1.43163300 -1.16395466
v -0.80087272 1.42211266 -1.61705356
v -0.81047832 1.43164424 -1.16410383
v -0.80090644 1.42222671 -1.16407363
v -0.81045628 1.43169409 -1.61698909
v -1.02505526 1.42522026 -1.14817363
v -1.01759407 1.43533224 -1.16387580
v -1.03108128 1.43162889 -1.16401007
v -0.81043076 1.43170406 -1.16406721
v -0.81057383 1.43157587 -1.61702425
v -1.03113483 1.43155782 -1.16403166
v -1.03124355 1.43165361 -1.61711461
v -1.03434797 1.41617631 -1.14810904
v -1.03112186 1.43174838 -1.16385174
v -1.04067805 1.42208328 -1.16395226
v -2.90975380 1.48049341 -1.61402506
v -2.90969165 1.51769001 -1.16694907
v -2.90962876 1.48058620 -1.16712659
v -2.90970480 1.51764764 -1.61397941
v -2.72199339 1.51756454 -1.16712816
v -2.90968631 1.48066599 -1.16719513
v -2.90976104 1.51769302 -1.16712602
v -2.72198143 1.48049360 -1.16701928
v -2.71904590 1.48057168 -1.16406123
v -2.90980737 1.48059094 -1.16711690
v -2.72216293 1.48047630 -1.16714833
v -2.90962699 1.48048751 -1.61400502
v -2.91266089 1.48051732 -1.16399843
v -2.91275835 1.48052571 -1.61710381
v -2.72202898 1.48056324 -1.61401033
v -2.90979391 1.51754396 -1.61403441
v -2.90984088 1.48061530 -1.61396573
v -2.72207422 1.51752804 -1.61400153
v -2.72212157 1.51761912 -1.16709721
v -2.72218281 1.48061030 -1.61392867
v -2.72210237 1.48060659 -1.16701100
v -2.72202197 1.51762445 -1.61399115
v -2.72422602 1.48721993 -1.14816293
v -2.72425246 1.48719939 -1.14808830
v -2.91274196 1.48049191 -1.16397976
v -2.71898474 1.48051442 -1.16401443
v -2.71905869 1.48063627 -1.16394318
v -2.90766228 1.48707291 -1.14808055
v -2.90759356 1.48719806 -1.14810398
v -2.92618114 1.48409021 -1.61709526
v -2.92622738 1.48420359 -1.16405588
v -2.71907266 1.48050804 -1.61705914
v -2.72206423 1.48052696 -1.61398129
v -2.91290840 1.48047907 -1.61694892
v -2.71914504 1.48062683 -1.16401625
v -2.71916019 1.48063252 -1.16391982
v -2.72213761 1.48059653 -1.16710633
v -2.90970637 1.48055388 -1.61398604
v -2.71144509 1.49064195 -1.14815204
v -2.72417874 1.48713387 -1.14811202
v -2.89827980 1.49906133 -1.14016037
v -2.89828937 1.49896623 -1.14016077
v -2.90756274 1.48712595 -1.14813539
v -2.90763626 1.48722277 -1.14807670
v -2.73348952 1.49906883 -1.14038288
v -2.92631502 1.48420664 -1.16415991
v -2.93581294 1.49370551 -1.16395949
v -2.92625466 1.48425384 -1.61704128
v -2.92623574 1.48412997 -1.16395983
v -2.93566309 1.49366390 -1.61712426
v -2.70543324 1.48422049 -1.61707990
v -2.70548701 1.48420957 -1.16403787
v -2.71151778 1.49067057 -1.14809925
v -2.71141136 1.49065829 -1.14815760
v -2.72197497 1.50209759 -1.14028556
v -2.72211558 1.50206845 -1.14021998
v -2.72426095 1.48712390 -1.14806271
v -2.70548193 1.48415142 -1.16407782
v -2.72207423 1.50205646 -1.14031952
v -2.91787764 1.51028989 -1.14029177
v -2.92097810 1.68656487 -1.14021963
v -2.92088517 1.52180297 -1.14024379
v -2.91792799 1.69784802 -1.14025911
v -2.90973438 1.50209689 -1.14023296
v -2.90963486 1.70606702 -1.14025262
v -2.89828285 1.49901347 -1.14013763
v -2.89832609 1.70916368 -1.14028511
v -2.73353453 1.49911918 -1.14019736
v -2.73353637 1.70924199 -1.14030458
v -2.72204619 1.50226232 -1.14029314
v -2.72205537 1.70616251 -1.14030920
v -2.71395360 1.51028034 -1.14032601
v -2.71393288 1.69787801 -1.14015693
v -2.71084591 1.52173554 -1.14025544
v -2.71084090 1.68646849 -1.14025437
v -2.92037439 1.49058800 -1.14808805
v -2.92046957 1.49056971 -1.14811965
v -2.92622181 1.48416550 -1.16398979
v -2.90760187 1.48705219 -1.14806285
v -2.93945388 1.50717820 -1.16390819
v -2.93942892 1.50719843 -1.16393064
v -2.93577525 1.49381868 -1.61709854
v -2.93584203 1.49371788 -1.16403107
v -2.93961120 1.50730269 -1.61713381
v -2.93943549 1.50715751 -1.61705474
v -2.93588078 1.49376679 -1.16409559
v -2.92627875 1.48422951 -1.16398505
v -2.92032893 1.49056612 -1.14825406
v -2.70558910 1.48415816 -1.61697170
v -2.69593453 1.49378729 -1.16403355
v -2.70557912 1.48422835 -1.16402077
v -2.69598977 1.49388505 -1.61712171
v -2.71397468 1.51028431 -1.14029763
v -2.71404356 1.51037708 -1.14034402
v -2.70244057 1.49969709 -1.14819598
v -2.71148655 1.49060280 -1.14813460
v -2.70554321 1.48410346 -1.16403158
v -2.89817122 1.49912635 -1.14029333
v -2.90964335 1.50209657 -1.14034107
v -2.90983243 1.50208602 -1.14022990
v -2.92035920 1.49071972 -1.14806901
v -2.92036095 1.49060483 -1.14813333
v -2.70232436 1.49965806 -1.14812106
v -2.70243008 1.49976063 -1.14814145
v -2.71088659 1.52165570 -1.14019904
v -2.71088323 1.52174406 -1.14028295
v -2.69896889 1.51230470 -1.14816800
v -2.69902357 1.51255831 -1.14803808
v -2.71082047 1.68663221 -1.14018000
v -2.71092913 1.68640230 -1.14024153
v -2.69896175 1.69581634 -1.14817030
v -2.69884503 1.69578205 -1.14805174
v -2.71386857 1.69789379 -1.14022272
v -2.71386043 1.69801834 -1.14021203
v -2.70235845 1.70855232 -1.14804269
v -2.70234972 1.70855509 -1.14814883
v -2.72215032 1.70606059 -1.14014421
v -2.72209735 1.70603208 -1.14027252
v -2.71149003 1.71757647 -1.14808082
v -2.71145719 1.71768265 -1.14808336
v -2.73351647 1.70904532 -1.14024584
v -2.89828932 1.70923920 -1.14025338
v -2.72424326 1.72103020 -1.14819325
v -2.72423015 1.72108252 -1.14804817
v -2.90754888 1.72111266 -1.14806571
v -2.73354756 1.70926208 -1.14034024
v -2.73352031 1.70914146 -1.14037765
v -2.90960835 1.70594941 -1.14021584
v -2.90960018 1.70605879 -1.14026489
v -2.90982521 1.70605594 -1.14016942
v -2.92037118 1.71755116 -1.14826117
v -2.92026099 1.71763565 -1.14813843
v -2.91779044 1.69789711 -1.14027821
v -2.91772454 1.69787483 -1.14024016
v -2.91784038 1.69793540 -1.14025747
v -2.92947173 1.70853914 -1.14813480
v -2.92943286 1.70849671 -1.14818108
v -2.92101857 1.68650557 -1.14025563
v -2.92086833 1.52178513 -1.14029420
v -2.92100210 1.52173781 -1.14027926
v -2.93285378 1.69592177 -1.14812929
v -2.93284596 1.69573082 -1.14821148
v -2.93286227 1.51240010 -1.14810788
v -2.93277129 1.51239442 -1.14816190
v -2.92090960 1.68645408 -1.14025435
v -2.92097568 1.68659518 -1.14036044
v -2.91790404 1.51033920 -1.14018722
v -2.90977220 1.50222571 -1.14028664
v -2.91789827 1.51026112 -1.14023636
v -2.91782447 1.51024621 -1.14024538
v -2.92941538 1.49960877 -1.14801706
v -2.92945106 1.49968772 -1.14819117
v -2.92941838 1.49968701 -1.14811034
v -2.93953261 1.50722925 -1.16397676
v -2.93937975 1.50728521 -1.16393270
v -2.93576952 1.49372734 -1.16401810
v -2.93279875 1.51238364 -1.14818852
v -2.93285667 1.51231473 -1.14816786
v -2.93953967 1.70096729 -1.16391810
v -2.93932886 1.70102866 -1.61712038
v -2.92934753 1.49970710 -1.14815689
v -2.93575440 1.49373853 -1.16403341
v -2.92033586 1.49066022 -1.14814262
v -2.69594759 1.49365665 -1.61704405
v -2.69237535 1.50720468 -1.16415204
v -2.69243452 1.50713016 -1.16396119
v -2.69602543 1.49378466 -1.16395793
v -2.69237950 1.50717401 -1.61698808
v -2.69233023 1.50716150 -1.61703258
v -2.69600970 1.49379634 -1.16394773
v -2.92944188 1.49971144 -1.14830373
v -2.69231284 1.70087685 -1.16384415
v -2.69232460 1.70095893 -1.16392901
v -2.69900533 1.51243280 -1.14813754
v -2.69895745 1.51239143 -1.14809347
v -2.69239129 1.50724342 -1.16395978
v -2.69899382 1.69585438 -1.14809042
v -2.69897553 1.69577212 -1.14812300
v -2.71150465 1.71757923 -1.14812811
v -2.90759350 1.72106982 -1.14803348
v -2.71898495 1.72773710 -1.16396656
v -2.71907733 1.72762067 -1.16401196
v -2.91270846 1.72775841 -1.16408696
v -2.72430491 1.72116539 -1.14803317
v -2.72423497 1.72105860 -1.14811697
v -2.90751333 1.72103357 -1.14808395
v -2.92032267 1.71762887 -1.14805578
v -2.92938315 1.70846942 -1.14806502
v -2.93949990 1.70104715 -1.16398195
v -2.93952983 1.70100798 -1.16403679
v -2.93283753 1.69577881 -1.14805846
v -2.93289738 1.69578104 -1.14816268
v -2.93290239 1.51240910 -1.14810712
v -2.93577393 1.71446402 -1.16402583
v -2.93590313 1.71451848 -1.61709276
v -2.69232177 1.70093140 -1.16390580
v -2.69230404 1.70094223 -1.61704061
v -2.69588740 1.49375724 -1.16410179
v -2.69892968 1.51253814 -1.14821753
v -2.70232279 1.49966728 -1.14812573
v -2.69595755 1.49376876 -1.16394550
v -2.70245624 1.70854227 -1.14817705
v -2.71150818 1.71779173 -1.14817158
v -2.70235790 1.70856619 -1.14823705
v -2.69603916 1.71435021 -1.16400741
v -2.71155718 1.71755586 -1.14821359
v -2.70549364 1.72407599 -1.16390749
v -2.92035008 1.71765554 -1.14805117
v -2.91265325 1.72760916 -1.16404748
v -2.71910032 1.72760095 -1.61701828
v -2.71899615 1.72760027 -1.61712800
v -2.91276164 1.72765550 -1.61704787
v -2.71905083 1.72774993 -1.16392941
v -2.71915206 1.72776799 -1.16402746
v -2.92631180 1.72407247 -1.16405780
v -2.92946872 1.70852649 -1.14803706
v -2.92045016 1.71754708 -1.14822312
v -2.92946552 1.70853846 -1.14820046
v -2.93578919 1.71446736 -1.16395407
v -2.92612565 1.72397547 -1.16402740
v -2.93584494 1.71443350 -1.61703724
v -2.93577154 1.71443007 -1.16391692
v -2.92625923 1.72402881 -1.61711607
v -2.69592852 1.71450636 -1.16399792
v -2.69610047 1.71444620 -1.61702566
v -2.69599467 1.71445501 -1.16396685
v -2.70249615 1.70859595 -1.14823545
v -2.69234037 1.70103137 -1.16402868
v -2.70550619 1.72406971 -1.16403050
v -2.92036522 1.71765955 -1.14810134
v -2.91274416 1.72771036 -1.16403279
v -2.92630710 1.72397347 -1.16407952
v -2.70565711 1.72400365 -1.16405299
v -2.70553075 1.72402585 -1.61703908
v -2.92617406 1.72397593 -1.16401334
v -2.92626588 1.72398263 -1.61713454
v -2.92623904 1.72405179 -1.16401499
v -2.93577383 1.71447991 -1.16393643
v -2.92938945 1.70855685 -1.14805171
v -2.69599555 1.71448922 -1.61700116
v -2.70547965 1.72409031 -1.16395999
v -2.69598643 1.71452091 -1.16402874
v -2.70556028 1.72402682 -1.61702879
vt 0.91226101 0.12084222
vt 0.92480290 0.83267790
vt 0.92480290 0.16710001
vt 0.91226101 0.87893569
vt 0.87937832 0.08793521
vt 0.87937832 0.91183150
vt 0.83306241 0.07541001
vt 0.83306241 0.92436630
vt 0.16710000 0.07541001
vt 0.16710000 0.92436630
vt 0.12084770 0.08793521
vt 0.12084770 0.91183150
vt 0.08790138 0.12084222
vt 0.08790138 0.87893569
vt 0.07535947 0.16710001
vt 0.07535947 0.83267790
vt 0.16710000 0.00050002
vt 0.12070000 0.00050002
vt 0.87930000 0.08789998
vt 0.07789999 0.01700002
vt 0.92210001 0.04119998
vt 0.87059999 0.01700002
vt 0.87064570 0.01696122
vt 0.16698040 0.00050002
vt 0.16710000 0.00050002
vt 0.12932239 0.01700002
vt 0.12940000 0.01700002
vt 0.83289999 0.00050002
vt 0.83301288 0.00046170
vt 0.87924713 0.00046140
vt 0.12080000 0.08789998
vt 0.92214602 0.01696151
vt 0.07789999 0.04119998
vt 0.08789998 0.12080002
vt 0.07775424 0.01699579
vt 0.04119998 0.07789999
vt 0.16695350 0.00049549
vt 0.16703860 0.00050002
vt 0.12068750 0.00049520
vt 0.08789998 0.12080002
vt 0.12925451 0.01699561
vt 0.12937050 0.01700002
vt 0.83289999 0.00050002
vt 0.83308369 0.00052059
vt 0.87059999 0.01700002
vt 0.87074852 0.01702029
vt 0.92224872 0.01702052
vt 0.04119998 0.92210001
vt 0.87934971 0.00052041
vt 0.08789998 0.87919998
vt 0.12080000 0.91210002
vt 0.07789999 0.01700002
vt 0.07789999 0.95880002
vt 0.16710000 0.00050002
vt 0.12080000 0.00050002
vt 0.12080000 0.91210002
vt 0.83289999 0.00050002
vt 0.12938011 0.01700002
vt 0.12940000 0.01700002
vt 0.87059999 0.01700002
vt 0.16703220 0.00050002
vt 0.16710000 0.00050002
vt 0.87930000 0.00050002
vt 0.87930000 0.91210002
vt 0.87930000 0.00050002
vt 0.92210001 0.95880002
vt 0.92210001 0.01700002
vt 0.91210002 0.87919998
vt 0.16725290 0.00051832
vt 0.16710190 0.00050002
vt 0.07805365 0.01701862
vt 0.95880002 0.92210001
vt 0.12955390 0.01701838
vt 0.12934750 0.01700002
vt 0.12098690 0.00051802
vt 0.91210002 0.87919998
vt 0.83298397 0.00050002
vt 0.83276409 0.00047809
vt 0.87059999 0.01700002
vt 0.87042892 0.01697773
vt 0.92192912 0.01697803
vt 0.95880002 0.07789999
vt 0.87903011 0.00047779
vt 0.91210002 0.12080002
vt 0.87930000 0.08789998
vt 0.95880002 0.07789999
vt 0.07789999 0.01700002
vt 0.87069589 0.01700002
vt 0.87075990 0.01695621
vt 0.10840000 0.05019999
vt 0.89169568 0.05019999
vt 0.89174879 0.05015522
vt 0.12937100 0.01700002
vt 0.12940000 0.01700002
vt 0.94614887 0.05015570
vt 0.92225027 0.01695561
vt 0.07789999 0.04119998
vt 0.12940000 0.01700002
vt 0.07789999 0.01700002
vt 0.05399996 0.05019999
vt 0.89170742 0.05019999
vt 0.89160001 0.05019999
vt 0.12937890 0.01700002
vt 0.12940000 0.01700002
vt 0.10840000 0.05019999
vt 0.87070793 0.01700002
vt 0.87059999 0.01700002
vt 0.92210001 0.01700002
vt 0.04119998 0.92210001
vt 0.07789999 0.01700002
vt 0.87059999 0.01700002
vt 0.10830430 0.05019999
vt 0.10840000 0.05019999
vt 0.89160001 0.05019999
vt 0.12927510 0.01700002
vt 0.12940000 0.01700002
vt 0.87059999 0.01700002
vt 0.92210001 0.95880002
vt 0.05399996 0.05019999
vt 0.12940000 0.01700002
vt 0.07789999 0.01700002
vt 0.87067991 0.01700002
vt 0.87059999 0.01700002
vt 0.10840000 0.05019999
vt 0.89165550 0.05019999
vt 0.89160001 0.05019999
vt 0.12940000 0.01700002
vt 0.92210001 0.01700002
vt 0.95874810 0.01697248
vt 0.94594783 0.05017239
vt 0.98474789 0.05017251
vt 0.92203802 0.01697260
vt 0.07789999 0.01700002
vt 0.05399996 0.05019999
vt 0.12940000 0.01700002
vt 0.89306200 0.99788463
vt 0.89160001 0.99949998
vt 0.88056201 0.99143606
vt 0.10840000 0.99949998
vt 0.89306200 0.04858458
vt 0.89160001 0.05019999
vt 0.88056201 0.05507767
vt 0.12090000 0.05664158
vt 0.12090000 0.99299997
vt 0.10840000 0.05019999
vt 0.05399996 0.05019999
vt 0.98472929 0.05019349
vt 0.92201817 0.01699328
vt 0.94592941 0.05019373
vt 0.95872903 0.01699352
vt 0.94599998 0.99949998
vt 0.94599998 0.05019999
vt 0.05399996 0.05019999
vt 0.10834450 0.99949998
vt 0.10840000 0.99949998
vt 0.89160001 0.05019999
vt 0.10834450 0.05019999
vt 0.10840000 0.05019999
vt 0.89160001 0.99949998
vt 0.94599998 0.05019999
vt 0.92210001 0.01700002
vt 0.89160001 0.05019999
vt 0.98482472 0.05021292
vt 0.92211348 0.01701289
vt 0.94602460 0.05021280
vt 0.95882481 0.01701289
vt 0.12940000 0.01700002
vt 0.07789999 0.01700002
vt 0.05399996 0.05019999
vt 0.92210001 0.01700002
vt 0.05399996 0.05019999
vt 0.89160001 0.05019999
vt 0.10830430 0.99949998
vt 0.10840000 0.99949998
vt 0.89160001 0.99949998
vt 0.10830430 0.05019999
vt 0.10840000 0.05019999
vt 0.92208922 0.01699990
vt 0.98480010 0.05019993
vt 0.95880008 0.01699990
vt 0.94600010 0.05019993
vt 0.05399996 0.05019999
vt 0.10840000 0.05019999
vt 0.89165550 0.99949998
vt 0.89160001 0.99949998
vt 0.89165550 0.05019999
vt 0.89160001 0.05019999
vt 0.10840000 0.99949998
vt 0.89160001 0.05019999
vt 0.94599998 0.05019999
vt 0.92210001 0.01700002
vt 0.94599998 0.05019999
vt 0.98479998 0.99949998
vt 0.98479998 0.05019999
vt 0.94599998 0.99949998
vt 0.05399996 0.99949998
vt 0.05399996 0.05019999
vt 0.98479998 0.99949998
vt 0.94599998 0.05019999
vt 0.94599998 0.99949998
vt 0.98479998 0.05019999
vt 0.05399996 0.99949998
vt 0.05399996 0.05019999
vt 0.94599998 0.05019999
vt 0.94599998 0.99949998
vt 0.98479998 0.99949998
vt 0.94599998 0.05019999
vt 0.94599998 0.99949998
vt 0.98479998 0.05019999
vt 0.92210001 0.01700002
vt 0.89160001 0.05019999
vt 0.94599998 0.05019999
vt 0.05399996 0.05019999
vt 0.05399996 0.99949998
vt 0.94599998 0.05019999
vt 0.94599998 0.99949998
vt 0.94599998 0.05019999
vt 0.98479998 0.99949998
vt 0.98479998 0.05019999
vt 0.94599998 0.99949998
vt 0.05399996 0.05019999
vt 0.05399996 0.99949998
vt 0.94599998 0.99949998
vt 0.94599998 0.05019999
vt 0.12084930 0.08794910
vt 0.83281070 0.07541472
vt 0.16710000 0.07541472
vt 0.87909323 0.08794910
vt 0.08793131 0.12084383
vt 0.91197783 0.12084383
vt 0.07539415 0.16710001
vt 0.92451650 0.16710001
vt 0.07539415 0.83266121
vt 0.92451650 0.83266121
vt 0.08793131 0.87891740
vt 0.91197783 0.87891740
vt 0.12084930 0.91181213
vt 0.87909323 0.91181213
vt 0.16710000 0.92434645
vt 0.83281070 0.92434645
vt 0.12070000 0.00050008
vt 0.87930000 0.08789998
vt 0.07789998 0.01700008
vt 0.92210001 0.04119998
vt 0.16710000 0.00050008
vt 0.83289999 0.00050002
vt 0.83290011 0.00049990
vt 0.12936990 0.01700002
vt 0.12940000 0.01700008
vt 0.87059999 0.01700002
vt 0.87060010 0.01699990
vt 0.16703740 0.00050002
vt 0.16710000 0.00050008
vt 0.87920010 0.00049990
vt 0.07789998 0.01700008
vt 0.04118150 0.07777858
vt 0.12085260 0.08770829
vt 0.87920010 0.00049990
vt 0.07788118 0.04107833
vt 0.92210013 0.01699990
vt 0.08788197 0.12067813
vt 0.12080000 0.00050002
vt 0.16710000 0.00050002
vt 0.87059999 0.01700002
vt 0.16703220 0.00050002
vt 0.16710000 0.00050002
vt 0.12936421 0.01700002
vt 0.12940000 0.01700002
vt 0.83289999 0.00050002
vt 0.87919998 0.00050002
vt 0.04123432 0.92223883
vt 0.92210001 0.01700002
vt 0.12083450 0.91223961
vt 0.12080000 0.00049990
vt 0.08786393 0.87926978
vt 0.87919998 0.00050002
vt 0.07793400 0.95893914
vt 0.07790000 0.01699990
vt 0.16710000 0.00049990
vt 0.12935840 0.01700002
vt 0.12940000 0.01699990
vt 0.83289999 0.00050002
vt 0.83289993 0.00050008
vt 0.16702700 0.00050002
vt 0.16710000 0.00049990
vt 0.87059999 0.01700002
vt 0.87059993 0.01700008
vt 0.87929988 0.00050008
vt 0.92210001 0.95880002
vt 0.92209989 0.01700008
vt 0.91210002 0.87919998
vt 0.87930000 0.91210002
vt 0.87929988 0.00050008
vt 0.07789999 0.01700002
vt 0.95880002 0.92210001
vt 0.16710000 0.00050002
vt 0.12080000 0.00050002
vt 0.91210002 0.87919998
vt 0.83298469 0.00050002
vt 0.83289999 0.00050002
vt 0.12936421 0.01700002
vt 0.12940000 0.01700002
vt 0.87059999 0.01700002
vt 0.16711690 0.00050002
vt 0.16710000 0.00050002
vt 0.87919998 0.00050002
vt 0.91210002 0.12080002
vt 0.87919998 0.00050002
vt 0.95880002 0.07789999
vt 0.92210001 0.01700002
vt 0.87930000 0.08789998
vt 0.95880002 0.07789999
vt 0.07789998 0.01700008
vt 0.87071741 0.01700002
vt 0.87059999 0.01700002
vt 0.10840000 0.05019999
vt 0.89171582 0.05019999
vt 0.89160001 0.05019999
vt 0.12937111 0.01700002
vt 0.12940000 0.01700002
vt 0.87060010 0.01699990
vt 0.92210013 0.01699990
vt 0.94600010 0.05019993
vt 0.95880008 0.01699990
vt 0.07789999 0.01700002
vt 0.87071180 0.01700002
vt 0.87059999 0.01700002
vt 0.10840000 0.05019999
vt 0.89169568 0.05019999
vt 0.89160001 0.05019999
vt 0.12937100 0.01700002
vt 0.12940000 0.01700002
vt 0.87059999 0.01700002
vt 0.98496759 0.05026412
vt 0.92224097 0.01706427
vt 0.94616753 0.05026388
vt 0.95896798 0.01706409
vt 0.07790000 0.01699990
vt 0.89160001 0.05019999
vt 0.89159322 0.05024320
vt 0.12925380 0.01700002
vt 0.12940000 0.01700002
vt 0.10828420 0.05019999
vt 0.10840000 0.05019999
vt 0.87059999 0.01700002
vt 0.87063509 0.01704347
vt 0.87059993 0.01700008
vt 0.92210001 0.95880002
vt 0.07789999 0.01700002
vt 0.87074077 0.01700002
vt 0.87059999 0.01700002
vt 0.10840000 0.05019999
vt 0.89169568 0.05019999
vt 0.89160001 0.05019999
vt 0.12940000 0.01700002
vt 0.87059999 0.01700002
vt 0.94600010 0.05019993
vt 0.95880008 0.01699990
vt 0.92210013 0.01699990
vt 0.05399996 0.05019999
vt 0.12940000 0.01700002
vt 0.07789999 0.01700002
vt 0.89207679 0.04858673
vt 0.89160001 0.05019999
vt 0.87957829 0.05507970
vt 0.89207679 0.99788666
vt 0.89160001 0.99949998
vt 0.10840000 0.05019999
vt 0.12090000 0.05664158
vt 0.12090000 0.99299997
vt 0.87957829 0.99143809
vt 0.10840000 0.99949998
vt 0.92210001 0.01700002
vt 0.05399996 0.05019999
vt 0.89160001 0.05019999
vt 0.94599998 0.05019999
vt 0.92210001 0.01700002
vt 0.95880008 0.01699990
vt 0.94600010 0.05019993
vt 0.98480010 0.05019993
vt 0.07789999 0.01700002
vt 0.05399996 0.05019999
vt 0.12940000 0.01700002
vt 0.89160001 0.05019999
vt 0.10830430 0.99949998
vt 0.10840000 0.99949998
vt 0.89160001 0.99949998
vt 0.10830430 0.05019999
vt 0.10840000 0.05019999
vt 0.92210001 0.01700002
vt 0.05399996 0.05019999
vt 0.92210001 0.01700002
vt 0.89160001 0.05019999
vt 0.94599998 0.05019999
vt 0.94599998 0.99949998
vt 0.98479998 0.05019999
vt 0.94599998 0.05019999
vt 0.98479998 0.99949998
vt 0.12940000 0.01700002
vt 0.07789999 0.01700002
vt 0.05399996 0.05019999
vt 0.92209381 0.01704329
vt 0.94599319 0.05024338
vt 0.05399996 0.05019999
vt 0.10828420 0.99949998
vt 0.10840000 0.99949998
vt 0.89160001 0.05019999
vt 0.10828420 0.05019999
vt 0.10840000 0.05019999
vt 0.89160001 0.99949998
vt 0.95879990 0.01700008
vt 0.92209989 0.01700008
vt 0.94599992 0.05020010
vt 0.12940000 0.01700002
vt 0.07789999 0.01700002
vt 0.05399996 0.05019999
vt 0.89169568 0.05019999
vt 0.89160001 0.05019999
vt 0.10840000 0.99949998
vt 0.89169568 0.99949998
vt 0.89160001 0.99949998
vt 0.10840000 0.05019999
vt 0.92210001 0.01700002
vt 0.05399996 0.05019999
vt 0.92210001 0.01700002
vt 0.89160001 0.05019999
vt 0.94599998 0.05019999
vt 0.95880008 0.01699990
vt 0.94600010 0.05019993
vt 0.98480010 0.05019993
vt 0.05399996 0.05019999
vt 0.05399996 0.99949998
vt 0.94599998 0.99949998
vt 0.94599998 0.05019999
vt 0.98479998 0.05019999
vt 0.94599998 0.99949998
vt 0.98479998 0.99949998
vt 0.94599998 0.05019999
vt 0.94599998 0.99949998
vt 0.94599998 0.05019999
vt 0.05399996 0.99949998
vt 0.05399996 0.05019999
vt 0.05399996 0.99949998
vt 0.05399996 0.05019999
vt 0.94599998 0.05019999
vt 0.94599998 0.99949998
vt 0.98479992 0.05020010
vt 0.95879990 0.01700008
vt 0.94599992 0.05020010
vt 0.94599998 0.05019999
vt 0.94599998 0.99949998
vt 0.05399996 0.05019999
vt 0.05399996 0.99949998
vt 0.98479998 0.05019999
vt 0.94599998 0.99949998
vt 0.98479998 0.99949998
vt 0.94599998 0.05019999
vt 0.98479998 0.99949998
vt 0.94599998 0.05019999
vt 0.94599998 0.99949998
vt 0.98479998 0.05019999
vt 0.15030000 0.05669999
vt 0.00050000 0.99299997
vt 0.15030000 0.99299997
vt 0.00050000 0.05669999
vt 0.12086360 0.15030003
vt 0.87910002 0.00050002
vt 0.12086360 0.00050002
vt 0.87910002 0.15030003
vt 0.12081010 0.15028578
vt 0.87910002 0.00050169
vt 0.12079260 0.00050169
vt 0.87911749 0.15028578
vt 0.99949998 0.05669999
vt 0.84969997 0.99299997
vt 0.99949998 0.99299997
vt 0.84969997 0.05669999
vt 0.00050000 0.99299997
vt 0.15030000 0.05669999
vt 0.00050000 0.05669999
vt 0.15030000 0.99299997
vt 0.87910002 0.15030003
vt 0.12084180 0.00050002
vt 0.12084180 0.15030003
vt 0.87910002 0.00050002
vt 0.12084180 0.00050169
vt 0.87910002 0.15029693
vt 0.87910002 0.00050169
vt 0.12084180 0.15029693
vt 0.84969997 0.05669999
vt 0.99949998 0.99299997
vt 0.99949998 0.05669999
vt 0.84969997 0.99299997
vt 0.00050000 0.99299997
vt 0.15030000 0.05669999
vt 0.00050000 0.05669999
vt 0.15030000 0.99299997
vt 0.87910002 0.15030003
vt 0.12085340 0.00050002
vt 0.12085340 0.15030003
vt 0.87910002 0.00050002
vt 0.12090000 0.99299997
vt 0.10840000 0.05019999
vt 0.10840000 0.99949998
vt 0.12090000 0.05664158
vt 0.32612440 0.04975182
vt 0.12085930 0.00050169
vt 0.87910002 0.15029848
vt 0.87910002 0.00050169
vt 0.12085930 0.15029848
vt 0.84969997 0.05669999
vt 0.99949998 0.99299997
vt 0.99949998 0.05669999
vt 0.84969997 0.99299997
vt 0.89160001 0.99949998
vt 0.87910002 0.99299997
vt 0.10810110 0.99786168
vt 0.89160001 0.05025917
vt 0.89160001 0.05019999
vt 0.87910002 0.05669999
vt 0.12051990 0.05511379
vt 0.32441109 0.04907322
vt 0.12051990 0.99141383
vt 0.87087142 0.01700002
vt 0.87059999 0.01700002
vt 0.32470000 0.05019999
vt 0.89186257 0.05019999
vt 0.89160001 0.05019999
vt 0.10840000 0.05019999
vt 0.12926459 0.01700002
vt 0.12940000 0.01700002
vt 0.05399996 0.99949998
vt 0.05399996 0.05019999
vt 0.94599998 0.99949998
vt 0.94599998 0.05019999
vt 0.92210001 0.01700002
vt 0.87059999 0.01700002
vt 0.87060553 0.01699269
vt 0.16695020 0.00050002
vt 0.16710000 0.00050002
vt 0.12925880 0.01700002
vt 0.12940000 0.01700002
vt 0.83289999 0.00050002
vt 0.83296871 0.00049281
vt 0.05399996 0.05019999
vt 0.98479998 0.05019999
vt 0.94599998 0.99949998
vt 0.98479998 0.99949998
vt 0.94599998 0.05019999
vt 0.94599998 0.99949998
vt 0.98479998 0.05019999
vt 0.94599998 0.05019999
vt 0.98479998 0.99949998
vt 0.92210001 0.01700002
vt 0.89160001 0.05019999
vt 0.94599998 0.05019999
vt 0.87920570 0.00049281
vt 0.12080000 0.08789998
vt 0.92210549 0.01699281
vt 0.07789999 0.04119998
vt 0.91195101 0.12084103
vt 0.92452079 0.83267367
vt 0.92452079 0.16710001
vt 0.91195101 0.87893111
vt 0.87917387 0.08793432
vt 0.87917387 0.91184258
vt 0.83287227 0.07541078
vt 0.83287227 0.92436135
vt 0.16708571 0.07541078
vt 0.16708571 0.92436135
vt 0.12084610 0.08793432
vt 0.12084610 0.91184258
vt 0.08791155 0.12084103
vt 0.08791155 0.87893111
vt 0.07538784 0.16710001
vt 0.07538784 0.83267367
vt 0.07789999 0.01700002
vt 0.07789999 0.01700002
vt 0.05399996 0.05019999
vt 0.12940000 0.01700002
vt 0.89160001 0.05019999
vt 0.89170039 0.05019999
vt 0.94599998 0.99949998
vt 0.94599998 0.05019999
vt 0.89160001 0.99949998
vt 0.89170039 0.99949998
vt 0.95880008 0.01699990
vt 0.94600010 0.05019993
vt 0.98480010 0.05019993
vt 0.05399996 0.99949998
vt 0.10840000 0.05019999
vt 0.10834130 0.05019999
vt 0.05399996 0.05019999
vt 0.10840000 0.99949998
vt 0.10834130 0.99949998
vt 0.95879990 0.01700008
vt 0.94599992 0.05020010
vt 0.98479992 0.05020010
vt 0.95879990 0.01700008
vt 0.92209989 0.01700008
vt 0.94599992 0.05020010
vt 0.08789998 0.12080002
vt 0.16710000 0.00050002
vt 0.12070000 0.00050002
vt 0.87930000 0.08789998
vt 0.07789999 0.01700002
vt 0.92210001 0.04119998
vt 0.07790000 0.01699990
vt 0.04119998 0.07789999
vt 0.16710000 0.00049990
vt 0.12080000 0.00049990
vt 0.08789998 0.12080002
vt 0.12931129 0.01700002
vt 0.12940000 0.01699990
vt 0.83289999 0.00050002
vt 0.83289993 0.00050008
vt 0.16698520 0.00050002
vt 0.16710000 0.00049990
vt 0.87059999 0.01700002
vt 0.87059993 0.01700008
vt 0.87919992 0.00050008
vt 0.08782549 0.87898088
vt 0.87919992 0.00050008
vt 0.07791027 0.95866627
vt 0.07789999 0.01700002
vt 0.12080980 0.91196585
vt 0.12080000 0.00050002
vt 0.04120998 0.92196655
vt 0.92209989 0.01700008
vt 0.16710000 0.00050002
vt 0.83289999 0.00050002
vt 0.12948351 0.01700002
vt 0.12940000 0.01700002
vt 0.87059999 0.01700002
vt 0.16715211 0.00050002
vt 0.16710000 0.00050002
vt 0.87930000 0.00050002
vt 0.87930000 0.91210002
vt 0.87930000 0.00050002
vt 0.92210001 0.95880002
vt 0.92210001 0.01700002
vt 0.91210002 0.87919998
vt 0.12080000 0.00050008
vt 0.07789998 0.01700008
vt 0.95880002 0.92210001
vt 0.16710000 0.00050008
vt 0.16710560 0.00050002
vt 0.83298421 0.00050002
vt 0.83290011 0.00049990
vt 0.12935160 0.01700002
vt 0.12940000 0.01700008
vt 0.87059999 0.01700002
vt 0.87060010 0.01699990
vt 0.87920010 0.00049990
vt 0.91210002 0.12080002
vt 0.95880002 0.07789999
vt 0.92210013 0.01699990
vt 0.89160001 0.05019999
vt 0.94599992 0.05020010
vt 0.92210001 0.01700002
vt 0.10840000 0.05019999
vt 0.10840000 0.99949998
vt 0.92210013 0.01699990
vt 0.94600010 0.05019993
vt 0.95880008 0.01699990
vt 0.89160001 0.05019999
vt 0.89160001 0.99949998
vt 0.12940000 0.01700002
vt 0.12938030 0.01700002
vt 0.05399996 0.05019999
vt 0.10840000 0.05019999
vt 0.12940000 0.01700002
vt 0.07789999 0.01700002
vt 0.05399996 0.05019999
vt 0.07789999 0.04119998
vt 0.07790000 0.01699990
vt 0.89169908 0.05019999
vt 0.89160001 0.05019999
vt 0.87070000 0.01700002
vt 0.87059999 0.01700002
vt 0.87059993 0.01700008
vt 0.95879990 0.01700008
vt 0.92209989 0.01700008
vt 0.94599992 0.05020010
vt 0.07789999 0.01700002
vt 0.87059999 0.01700002
vt 0.10813740 0.05019999
vt 0.10840000 0.05019999
vt 0.89160001 0.05019999
vt 0.12899320 0.01700002
vt 0.12940000 0.01700002
vt 0.87059999 0.01700002
vt 0.87073600 0.01700002
vt 0.87059999 0.01700002
vt 0.10840000 0.05019999
vt 0.89170039 0.05019999
vt 0.89160001 0.05019999
vt 0.12940000 0.01700002
vt 0.92210001 0.01700002
vt 0.05399996 0.05019999
vt 0.05399996 0.99949998
vt 0.94599998 0.05019999
vt 0.94599998 0.99949998
vt 0.92210001 0.01700002
vt 0.94599998 0.05019999
vt 0.92210001 0.01700002
vt 0.89160001 0.05019999
vt 0.98479992 0.05020010
vt 0.95879990 0.01700008
vt 0.94599992 0.05020010
vt 0.12940000 0.01700002
vt 0.07789999 0.01700002
vt 0.05399996 0.05019999
vt 0.92210001 0.01700002
vt 0.05399996 0.05019999
vt 0.89160001 0.05019999
vt 0.10813740 0.99949998
vt 0.10840000 0.99949998
vt 0.89160001 0.99949998
vt 0.10813740 0.05019999
vt 0.10840000 0.05019999
vt 0.92210013 0.01699990
vt 0.94600010 0.05019993
vt 0.95880008 0.01699990
vt 0.05399996 0.05019999
vt 0.12940000 0.01700002
vt 0.07789999 0.01700002
vt 0.05399996 0.05019999
vt 0.98479998 0.05019999
vt 0.94599998 0.99949998
vt 0.98479998 0.99949998
vt 0.94599998 0.05019999
vt 0.94599998 0.99949998
vt 0.98479998 0.05019999
vt 0.94599998 0.05019999
vt 0.98479998 0.99949998
vt 0.92210001 0.01700002
vt 0.89160001 0.05019999
vt 0.94599998 0.05019999
vt 0.05399996 0.05019999
vt 0.05399996 0.99949998
vt 0.94599998 0.05019999
vt 0.94599998 0.99949998
vt 0.95880008 0.01699990
vt 0.94600010 0.05019993
vt 0.98480010 0.05019993
vt 0.00050000 0.99299997
vt 0.15030000 0.05669999
vt 0.00050000 0.05669999
vt 0.15030000 0.99299997
vt 0.87910002 0.15030003
vt 0.12101490 0.00050002
vt 0.12101490 0.15030003
vt 0.87910002 0.00050002
vt 0.89702177 0.04857647
vt 0.12090000 0.05664158
vt 0.88452178 0.05506963
vt 0.12090000 0.99299997
vt 0.10840000 0.05019999
vt 0.10840000 0.99949998
vt 0.12101490 0.00050169
vt 0.87910002 0.15030169
vt 0.87910002 0.00050169
vt 0.12101490 0.15030169
vt 0.84969997 0.05669999
vt 0.99949998 0.99299997
vt 0.99949998 0.05669999
vt 0.84969997 0.99299997
vt 0.87079138 0.01700002
vt 0.87059999 0.01700002
vt 0.10840000 0.05019999
vt 0.89163202 0.05019999
vt 0.89160001 0.05019999
vt 0.12941881 0.01700002
vt 0.12940000 0.01700002
vt 0.05399996 0.99949998
vt 0.05399996 0.05019999
vt 0.89160001 0.99949998
vt 0.87910002 0.99299997
vt 0.10297820 0.99785101
vt 0.89160001 0.05025917
vt 0.89160001 0.05019999
vt 0.87910002 0.05669999
vt 0.11547820 0.99140328
vt 0.92210001 0.01700002
vt 0.87059999 0.01700002
vt 0.16742620 0.00050002
vt 0.16710000 0.00050002
vt 0.12973550 0.01700002
vt 0.12940000 0.01700002
vt 0.83289999 0.00050002
vt 0.05399996 0.05019999
vt 0.94599998 0.05019999
vt 0.98479998 0.99949998
vt 0.98479998 0.05019999
vt 0.94599998 0.99949998
vt 0.94599998 0.99949998
vt 0.94599998 0.05019999
vt 0.92210001 0.01700002
vt 0.07789999 0.04119998
vt 0.87919998 0.00050002
vt 0.12080000 0.08789998
vt 0.87059999 0.01700002
vt 0.94599998 0.05019999
vt 0.87919998 0.00050002
vt 0.91203678 0.12084383
vt 0.92460620 0.83266121
vt 0.92460620 0.16710001
vt 0.91203678 0.87891740
vt 0.87910169 0.08793318
vt 0.87910169 0.91181213
vt 0.83280170 0.07541472
vt 0.83280170 0.92434645
vt 0.16710000 0.07541472
vt 0.16710000 0.92434645
vt 0.12080000 0.08793318
vt 0.12080000 0.91181213
vt 0.08802405 0.12084383
vt 0.08802405 0.87891740
vt 0.07545464 0.16710001
vt 0.07545464 0.83266121
vt 0.07789999 0.01700002
vt 0.07789999 0.01700002
vt 0.05399996 0.05019999
vt 0.12940000 0.01700002
vt 0.89160001 0.05019999
vt 0.89169568 0.05019999
vt 0.94599998 0.99949998
vt 0.94599998 0.05019999
vt 0.89160001 0.99949998
vt 0.89169568 0.99949998
vt 0.94600010 0.05019993
vt 0.98480010 0.05019993
vt 0.95880008 0.01699990
vt 0.94599998 0.99949998
vt 0.98479998 0.05019999
vt 0.94599998 0.05019999
vt 0.98479998 0.99949998
vt 0.08789998 0.12080002
vt 0.12080000 0.00049990
vt 0.95879990 0.01700008
vt 0.92209989 0.01700008
vt 0.94599992 0.05020010
vt 0.16710000 0.00050002
vt 0.12070000 0.00050002
vt 0.87930000 0.08789998
vt 0.07789999 0.01700002
vt 0.92210001 0.04119998
vt 0.07790000 0.01699990
vt 0.04119998 0.07789999
vt 0.16710000 0.00049990
vt 0.16703220 0.00050002
vt 0.12936421 0.01700002
vt 0.12940000 0.01699990
vt 0.83289999 0.00050002
vt 0.83289993 0.00050008
vt 0.87059999 0.01700002
vt 0.87059993 0.01700008
vt 0.87919992 0.00050008
vt 0.08789998 0.87919998
vt 0.04119998 0.92210001
vt 0.92209989 0.01700008
vt 0.12080000 0.91210002
vt 0.12080000 0.00050002
vt 0.07789999 0.01700002
vt 0.07789999 0.95880002
vt 0.16710000 0.00050002
vt 0.83289999 0.00050002
vt 0.12915941 0.01700002
vt 0.12940000 0.01700002
vt 0.87059999 0.01700002
vt 0.16690870 0.00050002
vt 0.16710000 0.00050002
vt 0.87930000 0.00050002
vt 0.87930000 0.91210002
vt 0.87930000 0.00050002
vt 0.92210001 0.95880002
vt 0.92210001 0.01700002
vt 0.91210002 0.87919998
vt 0.12080000 0.00050008
vt 0.91210002 0.87919998
vt 0.07789998 0.01700008
vt 0.95880002 0.92210001
vt 0.16710000 0.00050008
vt 0.83298469 0.00050002
vt 0.83290011 0.00049990
vt 0.12936421 0.01700002
vt 0.12940000 0.01700008
vt 0.87059999 0.01700002
vt 0.87060010 0.01699990
vt 0.16711690 0.00050002
vt 0.16710000 0.00050008
vt 0.87920010 0.00049990
vt 0.87930000 0.08789998
vt 0.91210002 0.12080002
vt 0.87920010 0.00049990
vt 0.95880002 0.07789999
vt 0.92210013 0.01699990
vt 0.92203557 0.01698083
vt 0.89153558 0.05018079
vt 0.89169568 0.05019999
vt 0.94593561 0.05018079
vt 0.87056148 0.01698089
vt 0.87074077 0.01700002
vt 0.10840000 0.05019999
vt 0.10840000 0.99949998
vt 0.92210013 0.01699990
vt 0.94600010 0.05019993
vt 0.95880008 0.01699990
vt 0.05399996 0.99949998
vt 0.10840000 0.05019999
vt 0.10834600 0.05019999
vt 0.05399996 0.05019999
vt 0.10840000 0.99949998
vt 0.10834600 0.99949998
vt 0.98479992 0.05020010
vt 0.95880002 0.07789999
vt 0.89171159 0.05019999
vt 0.89160001 0.05019999
vt 0.12937100 0.01700002
vt 0.12940000 0.01700002
vt 0.10840000 0.05019999
vt 0.87071180 0.01700002
vt 0.87059999 0.01700002
vt 0.07789999 0.01700002
vt 0.87059999 0.01700002
vt 0.10836800 0.05019999
vt 0.10840000 0.05019999
vt 0.89160001 0.05019999
vt 0.12922740 0.01700002
vt 0.12940000 0.01700002
vt 0.87059999 0.01700002
vt 0.92210001 0.95880002
vt 0.07789998 0.01700008
vt 0.10840000 0.05019999
vt 0.10845810 0.05022418
vt 0.12940000 0.01700002
vt 0.12945800 0.01702422
vt 0.87060010 0.01699990
vt 0.05399996 0.05019999
vt 0.05399996 0.99949998
vt 0.89160001 0.05019999
vt 0.89160001 0.99949998
vt 0.05399996 0.05019999
vt 0.12940000 0.01700002
vt 0.07789999 0.01700002
vt 0.05399996 0.05019999
vt 0.92210001 0.01700002
vt 0.95879990 0.01700008
vt 0.92209989 0.01700008
vt 0.94599992 0.05020010
vt 0.07789999 0.01700002
vt 0.05399996 0.05019999
vt 0.92210001 0.01700002
vt 0.89160001 0.05019999
vt 0.10836800 0.99949998
vt 0.10840000 0.99949998
vt 0.89160001 0.99949998
vt 0.10836800 0.05019999
vt 0.10840000 0.05019999
vt 0.94600010 0.05019993
vt 0.95880008 0.01699990
vt 0.92210013 0.01699990
vt 0.07798379 0.01702422
vt 0.05405801 0.05022430
vt 0.94599998 0.05019999
vt 0.98479998 0.99949998
vt 0.98479998 0.05019999
vt 0.94599998 0.99949998
vt 0.94599998 0.05019999
vt 0.94599998 0.99949998
vt 0.94599998 0.05019999
vt 0.92210001 0.01700002
vt 0.89160001 0.05019999
vt 0.98479992 0.05020010
vt 0.92210001 0.01700002
vt 0.89160001 0.05019999
vt 0.94599998 0.05019999
vt 0.05399996 0.05019999
vt 0.05399996 0.99949998
vt 0.94599998 0.05019999
vt 0.94599998 0.99949998
vt 0.94600010 0.05019993
vt 0.98480010 0.05019993
vt 0.95880008 0.01699990
vt 0.94599998 0.99949998
vt 0.98479998 0.05019999
vt 0.94599998 0.05019999
vt 0.98479998 0.99949998
f 1/1 2/2 3/3
f 2/2 1/1 4/4
f 4/4 1/1 5/5
f 4/4 5/5 6/6
f 6/6 5/5 7/7
f 6/6 7/7 8/8
f 8/8 7/7 9/9
f 8/8 9/9 10/10
f 10/10 9/9 11/11
f 10/10 11/11 12/12
f 12/12 11/11 13/13
f 12/12 13/13 14/14
f 14/14 13/13 15/15
f 14/14 15/15 16/16
f 17/17 18/18 20/20
f 22/22 24/24 26/26
f 24/24 22/22 28/28
f 23/23 30/30 29/29
f 30/30 23/23 32/32
f 33/33 34/34 31/31
f 35/35 37/37 39/39
f 37/37 35/35 41/41
f 42/42 43/43 38/38
f 43/43 42/42 45/45
f 44/44 47/47 49/49
f 47/47 44/44 46/46
f 48/48 51/51 50/50
f 52/52 54/54 55/55
f 57/57 58/58 60/60
f 58/58 57/57 61/61
f 57/57 60/60 63/63
f 64/64 66/66 68/68
f 69/69 71/71 73/73
f 71/71 69/69 75/75
f 77/77 74/74 79/79
f 74/74 77/77 70/70
f 81/81 78/78 80/80
f 78/78 81/81 83/83
f 85/85 84/84 82/82
f 19/19 86/86 21/21
f 25/25 87/87 27/27
f 88/88 90/90 91/91
f 90/90 88/88 93/93
f 95/95 89/89 92/92
f 89/89 95/95 96/96
f 36/36 40/40 97/97
f 98/98 99/99 100/100
f 101/101 103/103 105/105
f 103/103 101/101 106/106
f 108/108 107/107 102/102
f 109/109 53/53 56/56
f 110/110 59/59 62/62
f 111/111 112/112 114/114
f 112/112 111/111 115/115
f 117/117 67/67 65/65
f 76/76 118/118 72/72
f 119/119 120/120 121/121
f 122/122 124/124 125/125
f 124/124 122/122 127/127
f 123/123 126/126 128/128
f 129/129 130/130 131/131
f 130/130 129/129 132/132
f 133/133 134/134 135/135
f 136/136 138/138 139/139
f 138/138 136/136 140/140
f 138/138 140/140 142/142
f 142/142 140/140 143/143
f 139/139 144/144 145/145
f 144/144 139/139 138/138
f 145/145 144/144 143/143
f 145/145 143/143 140/140
f 94/94 146/146 90/90
f 147/147 148/148 149/149
f 148/148 147/147 150/150
f 151/151 141/141 137/137
f 141/141 151/151 152/152
f 104/104 153/153 105/105
f 154/154 156/156 157/157
f 156/156 154/154 159/159
f 160/160 161/161 162/162
f 163/163 164/164 165/165
f 164/164 163/163 166/166
f 167/167 168/168 169/169
f 111/111 114/114 170/170
f 116/116 171/171 113/113
f 172/172 173/173 175/175
f 173/173 172/172 176/176
f 178/178 179/179 180/180
f 179/179 178/178 181/181
f 182/182 124/124 127/127
f 183/183 184/184 186/186
f 184/184 183/183 188/188
f 189/189 190/190 191/191
f 192/192 193/193 194/194
f 193/193 192/192 195/195
f 145/145 196/196 139/139
f 196/196 145/145 197/197
f 198/198 199/199 200/200
f 199/199 198/198 201/201
f 202/202 158/158 203/203
f 158/158 202/202 155/155
f 159/159 204/204 156/156
f 204/204 159/159 205/205
f 206/206 207/207 208/208
f 207/207 206/206 209/209
f 210/210 211/211 212/212
f 174/174 213/213 214/214
f 213/213 174/174 177/177
f 215/215 175/175 216/216
f 175/175 215/215 172/172
f 217/217 218/218 219/219
f 218/218 217/217 220/220
f 221/221 188/188 183/183
f 188/188 221/221 222/222
f 187/187 223/223 224/224
f 223/223 187/187 185/185
f 225/225 226/226 227/227
f 226/226 225/225 228/228
f 228/228 225/225 229/229
f 228/228 229/229 230/230
f 230/230 229/229 231/231
f 230/230 231/231 232/232
f 232/232 231/231 233/233
f 232/232 233/233 234/234
f 234/234 233/233 235/235
f 234/234 235/235 236/236
f 236/236 235/235 237/237
f 236/236 237/237 238/238
f 238/238 237/237 239/239
f 238/238 239/239 240/240
f 241/241 243/243 245/245
f 246/246 248/248 250/250
f 248/248 246/246 252/252
f 254/254 247/247 251/251
f 256/256 257/257 259/259
f 257/257 256/256 261/261
f 263/263 262/262 255/255
f 264/264 265/265 267/267
f 265/265 264/264 269/269
f 270/270 269/269 264/264
f 271/271 273/273 275/275
f 273/273 271/271 277/277
f 278/278 279/279 274/274
f 280/280 282/282 284/284
f 282/282 280/280 286/286
f 287/287 288/288 283/283
f 289/289 291/291 292/292
f 294/294 296/296 297/297
f 299/299 301/301 303/303
f 301/301 299/299 304/304
f 300/300 303/303 306/306
f 307/307 309/309 311/311
f 242/242 312/312 244/244
f 253/253 313/313 249/249
f 314/314 316/316 317/317
f 316/316 314/314 319/319
f 258/258 321/321 260/260
f 322/322 323/323 324/324
f 266/266 325/325 268/268
f 326/326 328/328 329/329
f 328/328 326/326 331/331
f 272/272 276/276 333/333
f 334/334 335/335 336/336
f 335/335 334/334 337/337
f 281/281 285/285 338/338
f 339/339 341/341 343/343
f 341/341 339/339 345/345
f 347/347 290/290 293/293
f 348/348 295/295 298/298
f 349/349 302/302 305/305
f 350/350 352/352 353/353
f 352/352 350/350 355/355
f 356/356 310/310 308/308
f 357/357 358/358 359/359
f 360/360 361/361 362/362
f 363/363 365/365 366/366
f 365/365 363/363 368/368
f 365/365 368/368 369/369
f 369/369 368/368 370/370
f 366/366 371/371 372/372
f 371/371 366/366 365/365
f 372/372 371/371 370/370
f 372/372 370/370 368/368
f 315/315 318/318 373/373
f 374/374 316/316 320/320
f 375/375 376/376 377/377
f 378/378 379/379 380/380
f 381/381 382/382 383/383
f 384/384 385/385 387/387
f 385/385 384/384 388/388
f 390/390 327/327 330/330
f 332/332 391/391 328/328
f 392/392 393/393 394/394
f 395/395 396/396 397/397
f 396/396 395/395 398/398
f 399/399 400/400 401/401
f 340/340 402/402 346/346
f 402/402 340/340 403/403
f 342/342 404/404 344/344
f 405/405 407/407 408/408
f 407/407 405/405 410/410
f 411/411 412/412 413/413
f 414/414 415/415 416/416
f 417/417 419/419 420/420
f 419/419 417/417 422/422
f 351/351 354/354 423/423
f 355/355 424/424 352/352
f 425/425 426/426 427/427
f 428/428 429/429 430/430
f 431/431 372/372 368/368
f 372/372 431/431 432/432
f 364/364 433/433 434/434
f 433/433 364/364 367/367
f 435/435 436/436 437/437
f 436/436 435/435 438/438
f 439/439 384/384 387/387
f 384/384 439/439 440/440
f 389/389 441/441 386/386
f 441/441 389/389 442/442
f 443/443 409/409 444/444
f 409/409 443/443 406/406
f 410/410 445/445 407/407
f 445/445 410/410 446/446
f 447/447 448/448 449/449
f 450/450 421/421 451/451
f 421/421 450/450 418/418
f 419/419 452/452 453/453
f 452/452 419/419 422/422
f 454/454 455/455 456/456
f 455/455 454/454 457/457
f 458/458 459/459 460/460
f 459/459 458/458 461/461
f 462/462 463/463 464/464
f 463/463 462/462 465/465
f 466/466 467/467 468/468
f 467/467 466/466 469/469
f 470/470 471/471 472/472
f 471/471 470/470 473/473
f 474/474 475/475 476/476
f 475/475 474/474 477/477
f 478/478 479/479 480/480
f 479/479 478/478 481/481
f 482/482 483/483 484/484
f 483/483 482/482 485/485
f 486/486 487/487 488/488
f 487/487 486/486 489/489
f 490/490 491/491 492/492
f 491/491 490/490 493/493
f 494/494 495/495 496/496
f 495/495 494/494 497/497
f 498/498 499/499 500/500
f 499/499 498/498 501/501
f 502/502 503/503 504/504
f 503/503 502/502 505/505
f 503/503 505/505 506/506
f 507/507 508/508 509/509
f 508/508 507/507 510/510
f 511/511 512/512 513/513
f 512/512 511/511 514/514
f 515/515 516/516 517/517
f 516/516 515/515 518/518
f 516/516 518/518 520/520
f 520/520 518/518 521/521
f 521/521 518/518 522/522
f 523/523 517/517 516/516
f 524/524 526/526 527/527
f 526/526 524/524 529/529
f 529/529 524/524 530/530
f 503/503 532/532 504/504
f 532/532 503/503 533/533
f 534/534 519/519 515/515
f 519/519 534/534 535/535
f 536/536 525/525 528/528
f 537/537 539/539 541/541
f 539/539 537/537 543/543
f 531/531 545/545 529/529
f 546/546 547/547 548/548
f 547/547 546/546 549/549
f 550/550 551/551 552/552
f 551/551 550/550 553/553
f 554/554 555/555 556/556
f 538/538 557/557 544/544
f 557/557 538/538 559/559
f 561/561 562/562 563/563
f 562/562 561/561 564/564
f 564/564 561/561 565/565
f 564/564 565/565 566/566
f 566/566 565/565 567/567
f 566/566 567/567 568/568
f 568/568 567/567 569/569
f 568/568 569/569 570/570
f 570/570 569/569 571/571
f 570/570 571/571 572/572
f 572/572 571/571 573/573
f 572/572 573/573 574/574
f 574/574 573/573 575/575
f 574/574 575/575 576/576
f 540/540 577/577 542/542
f 578/578 579/579 580/580
f 581/581 583/583 584/584
f 583/583 581/581 585/585
f 587/587 588/588 589/589
f 590/590 591/591 593/593
f 591/591 590/590 594/594
f 596/596 597/597 598/598
f 599/599 600/600 601/601
f 560/560 602/602 558/558
f 603/603 604/604 606/606
f 608/608 610/610 611/611
f 613/613 615/615 617/617
f 615/615 613/613 619/619
f 620/620 621/621 616/616
f 622/622 624/624 626/626
f 624/624 622/622 628/628
f 625/625 630/630 627/627
f 631/631 632/632 634/634
f 632/632 631/631 635/635
f 631/631 634/634 637/637
f 638/638 640/640 642/642
f 643/643 644/644 646/646
f 648/648 650/650 652/652
f 650/650 648/648 647/647
f 654/654 649/649 653/653
f 605/605 655/655 656/656
f 658/658 659/659 660/660
f 661/661 586/586 582/582
f 586/586 661/661 662/662
f 663/663 664/664 665/665
f 595/595 666/666 592/592
f 666/666 595/595 667/667
f 668/668 670/670 671/671
f 672/672 673/673 674/674
f 609/609 612/612 675/675
f 605/605 656/656 607/607
f 614/614 618/618 676/676
f 677/677 669/669 671/671
f 669/669 677/677 679/679
f 681/681 629/629 623/623
f 682/682 683/683 684/684
f 685/685 633/633 636/636
f 686/686 687/687 689/689
f 687/687 686/686 690/690
f 692/692 641/641 639/639
f 642/642 640/640 645/645
f 646/646 644/644 651/651
f 693/693 695/695 696/696
f 695/695 693/693 698/698
f 654/654 653/653 657/657
f 694/694 697/697 699/699
f 700/700 662/662 661/661
f 662/662 700/700 701/701
f 667/667 702/702 666/666
f 702/702 667/667 703/703
f 704/704 680/680 678/678
f 705/705 706/706 707/707
f 708/708 709/709 710/710
f 711/711 712/712 713/713
f 686/686 689/689 714/714
f 691/691 715/715 688/688
f 716/716 717/717 719/719
f 717/717 716/716 720/720
f 722/722 723/723 724/724
f 725/725 726/726 727/727
f 728/728 695/695 698/698
f 729/729 730/730 731/731
f 730/730 729/729 732/732
f 733/733 734/734 735/735
f 734/734 733/733 736/736
f 737/737 738/738 739/739
f 718/718 740/740 741/741
f 740/740 718/718 721/721
f 742/742 719/719 743/743
f 719/719 742/742 716/716
f 744/744 745/745 746/746
f 747/747 748/748 749/749
f 748/748 747/747 750/750
f 751/751 752/752 753/753
f 752/752 751/751 754/754
f 755/755 756/756 757/757
f 758/758 759/759 760/760
f 759/759 758/758 756/756
f 759/759 756/756 755/755
f 761/761 762/762 763/763
f 762/762 761/761 764/764
f 765/765 766/766 767/767
f 766/766 765/765 768/768
f 769/769 771/771 772/772
f 771/771 769/769 774/774
f 759/759 776/776 760/760
f 776/776 759/759 777/777
f 778/778 779/779 780/780
f 779/779 778/778 781/781
f 779/779 781/781 783/783
f 784/784 780/780 779/779
f 785/785 770/770 773/773
f 786/786 787/787 789/789
f 787/787 786/786 791/791
f 775/775 792/792 771/771
f 793/793 794/794 795/795
f 794/794 793/793 796/796
f 797/797 782/782 778/778
f 782/782 797/797 798/798
f 799/799 801/801 803/803
f 785/785 773/773 804/804
f 805/805 791/791 786/786
f 806/806 807/807 808/808
f 807/807 806/806 809/809
f 809/809 806/806 810/810
f 809/809 810/810 811/811
f 811/811 810/810 812/812
f 811/811 812/812 813/813
f 813/813 812/812 814/814
f 813/813 814/814 815/815
f 815/815 814/814 816/816
f 815/815 816/816 817/817
f 817/817 816/816 818/818
f 817/817 818/818 819/819
f 819/819 818/818 820/820
f 819/819 820/820 821/821
f 788/788 822/822 790/790
f 823/823 824/824 825/825
f 826/826 828/828 829/829
f 828/828 826/826 830/830
f 832/832 833/833 834/834
f 835/835 836/836 837/837
f 836/836 835/835 838/838
f 800/800 839/839 802/802
f 841/841 842/842 843/843
f 844/844 845/845 847/847
f 849/849 851/851 840/840
f 853/853 855/855 852/852
f 855/855 853/853 857/857
f 858/858 859/859 856/856
f 861/861 863/863 860/860
f 865/865 867/867 864/864
f 868/868 869/869 871/871
f 869/869 868/868 872/872
f 868/868 871/871 874/874
f 875/875 877/877 879/879
f 880/880 882/882 884/884
f 885/885 887/887 889/889
f 887/887 885/885 891/891
f 893/893 886/886 890/890
f 894/894 895/895 897/897
f 899/899 900/900 902/902
f 900/900 899/899 903/903
f 905/905 831/831 827/827
f 831/831 905/905 906/906
f 907/907 908/908 909/909
f 910/910 911/911 913/913
f 911/911 910/910 914/914
f 841/841 843/843 916/916
f 850/850 839/839 800/800
f 846/846 917/917 848/848
f 854/854 851/851 849/849
f 918/918 920/920 922/922
f 920/920 918/918 923/923
f 858/858 862/862 859/859
f 861/861 866/866 863/863
f 925/925 870/870 873/873
f 926/926 927/927 929/929
f 927/927 926/926 930/930
f 932/932 878/878 876/876
f 881/881 933/933 883/883
f 892/892 934/934 888/888
f 904/904 935/935 901/901
f 935/935 904/904 937/937
f 896/896 939/939 898/898
f 940/940 906/906 905/905
f 906/906 940/940 941/941
f 915/915 942/942 912/912
f 942/942 915/915 943/943
f 921/921 944/944 922/922
f 945/945 946/946 947/947
f 948/948 924/924 919/919
f 949/949 950/950 951/951
f 931/931 952/952 953/953
f 926/926 929/929 954/954
f 931/931 953/953 928/928
f 955/955 956/956 958/958
f 956/956 955/955 959/959
f 961/961 962/962 963/963
f 964/964 936/936 938/938
f 936/936 964/964 965/965
f 966/966 967/967 968/968
f 967/967 966/966 969/969
f 943/943 970/970 942/942
f 970/970 943/943 971/971
f 972/972 973/973 974/974
f 975/975 949/949 951/951
f 976/976 977/977 978/978
f 957/957 979/979 980/980
f 979/979 957/957 960/960
f 981/981 958/958 982/982
f 958/958 981/981 955/955
f 983/983 984/984 985/985
f 986/986 987/987 988/988
f 987/987 986/986 989/989

