# https://github.com/mikedh/trimesh
v -1.67120295 -6.50874032 -1.07582280
v -1.67891791 -6.51138038 -1.07874159
v -1.67056687 -6.50771169 -1.07716845
v -1.67058039 -6.50980614 -1.07486137
v -1.67893069 -6.51137871 -1.07875005
v -1.67120747 -6.50874249 -1.07582783
v -1.67057156 -6.50771119 -1.07716542
v -1.67891127 -6.51138106 -1.07874165
v -1.67151136 -6.50740124 -1.11329468
v -1.66809811 -6.50382077 -1.07480923
v -1.67120893 -6.50874072 -1.07582701
v -1.67057088 -6.50771555 -1.07716288
v -1.66809670 -6.50759895 -1.07082204
v -1.67056587 -6.50980948 -1.07485362
v -1.67056665 -6.50979875 -1.07486019
v -1.67151777 -6.51924404 -1.07476071
v -1.67890898 -6.51137064 -1.07874162
v -1.67152247 -6.50740176 -1.11328731
v -1.68184028 -6.51133642 -1.11496957
v -1.66808960 -6.50539991 -1.07226276
v -1.67151841 -6.51925786 -1.07476187
v -1.68183611 -6.52098155 -1.07879605
v -1.66808493 -6.50286659 -1.11190156
v -1.69176697 -6.51921237 -1.11580678
v -1.68178915 -6.51177510 -1.32417451
v -1.66853478 -6.50181378 -1.06851023
v -1.66809300 -6.50538314 -1.07225828
v -1.66809659 -6.50382035 -1.07481613
v -1.66809998 -6.51794895 -1.07016561
v -1.66808645 -6.50760224 -1.07081728
v -1.68309477 -6.54554225 -1.07907643
v -1.67892233 -6.51137625 -1.07873807
v -1.68183265 -6.52098636 -1.07880175
v -1.68184087 -6.52098063 -1.07878948
v -1.69175624 -6.51921830 -1.11580578
v -1.66491152 -6.50331003 -1.32379142
v -1.66491662 -6.50330424 -1.32379775
v -1.66852726 -6.49799173 -1.11070296
v -1.66808961 -6.50287753 -1.11189741
v -1.66934921 -6.50775130 -1.32394603
v -1.66852369 -6.49940535 -1.07232189
v -1.66853534 -6.51685130 -1.06527899
v -1.66810075 -6.51795091 -1.07017166
v -1.66809868 -6.54398193 -1.06994677
v -1.66809137 -6.54396948 -1.06994825
v -1.66852235 -6.50526789 -1.06631221
v -1.68310571 -6.54554407 -1.07907237
v -1.68309103 -6.54554858 -1.07907214
v -1.67183182 -6.54456854 -1.07474960
v -1.66490536 -6.50331050 -1.32378901
v -1.66935455 -6.50775530 -1.32395663
v -1.66935571 -6.50775580 -1.32395998
v -1.69407801 -6.52240229 -1.32439221
v -1.67980022 -6.51212315 -1.34513956
v -1.66979039 -6.49500063 -1.06982448
v -1.66809352 -6.54397598 -1.06995600
v -1.66808459 -6.54397161 -1.06994256
v -1.67183325 -6.54456183 -1.07473764
v -1.67183027 -6.54456745 -1.07474734
v -1.66978218 -6.50296245 -1.06181559
v -1.69439317 -6.54642211 -1.11626384
v -1.69439314 -6.54641892 -1.11626434
v -1.69439460 -6.54640932 -1.11626522
v -1.68309576 -6.73060105 -1.07908111
v -1.68308754 -6.73059109 -1.07907572
v -1.67182485 -6.73154239 -1.07474267
v -1.67183598 -6.73153256 -1.07474308
v -1.66475176 -6.49855093 -1.32390812
v -1.66962222 -6.50775824 -1.34502064
v -1.69817819 -6.54669499 -1.32444494
v -1.69817067 -6.54668035 -1.32445633
v -1.69816833 -6.54669353 -1.32444921
v -1.69407963 -6.52240469 -1.32439053
v -1.69355076 -6.52248027 -1.34524779
v -1.66962988 -6.50775217 -1.34502413
v -1.66978044 -6.49822226 -1.06477182
v -1.66853032 -6.54354777 -1.06493225
v -1.66853558 -6.54353614 -1.06492020
v -1.66853444 -6.54354870 -1.06493788
v -1.67183857 -6.73155199 -1.07474560
v -1.67182667 -6.73153746 -1.07473509
v -1.66809583 -6.73215504 -1.06994721
v -1.69439410 -6.72971130 -1.11626885
v -1.69439852 -6.72972367 -1.11626735
v -1.69438648 -6.72972958 -1.11626291
v -1.68308877 -6.73059433 -1.07907337
v -1.68309763 -6.73057848 -1.07907794
v -1.67151850 -6.75689526 -1.07477284
v -1.66305423 -6.49936547 -1.34514197
v -1.66537940 -6.49370801 -1.32451788
v -1.66402603 -6.50369508 -1.34494718
v -1.66979463 -6.49311487 -1.10957041
v -1.69356671 -6.52248377 -1.34524395
v -1.69304672 -6.52255622 -1.36609151
v -1.67777704 -6.51244358 -1.36610498
v -1.67856629 -6.49555617 -1.06196532
v -1.66979097 -6.49822369 -1.06477718
v -1.66979514 -6.49499602 -1.06983007
v -1.66979264 -6.54310678 -1.05991042
v -1.66978601 -6.54311638 -1.05990450
v -1.66808693 -6.73216095 -1.06994532
v -1.66854768 -6.73259690 -1.06492870
v -1.66852861 -6.73260158 -1.06492828
v -1.66978543 -6.51571001 -1.06038770
v -1.67150964 -6.75689546 -1.07476560
v -1.66978667 -6.49823177 -1.06477255
v -1.67857174 -6.49554699 -1.06195822
v -1.66979053 -6.50295807 -1.06181274
v -1.69175033 -6.75689025 -1.11580825
v -1.69817337 -6.72940943 -1.32445372
v -1.69816984 -6.72941773 -1.32444880
v -1.69817260 -6.72940790 -1.32445398
v -1.69816970 -6.72941543 -1.32444593
v -1.68184246 -6.75516294 -1.07879345
v -1.66403283 -6.50369910 -1.34494437
v -1.66199724 -6.50917337 -1.36608964
v -1.66977870 -6.49499612 -1.06984209
v -1.66977693 -6.49311182 -1.10957492
v -1.67855913 -6.48948757 -1.10871789
v -1.69817024 -6.54668806 -1.36608431
v -1.69817862 -6.54668199 -1.36608455
v -1.69817338 -6.54669681 -1.36609463
v -1.69305355 -6.52256200 -1.36609356
v -1.66198548 -6.50917045 -1.36609161
v -1.67856303 -6.49168531 -1.06797365
v -1.66979077 -6.73298637 -1.05990510
v -1.66978640 -6.73298522 -1.05991461
v -1.66853561 -6.75929533 -1.06527438
v -1.66979179 -6.50295483 -1.06181946
v -1.67857016 -6.51488688 -1.05671405
v -1.66978342 -6.51571115 -1.06038636
v -1.66809632 -6.75818568 -1.07016827
v -1.67855851 -6.50122647 -1.05843443
v -1.68183116 -6.75515937 -1.07879162
v -1.69817896 -6.72939864 -1.36609660
v -1.69816655 -6.72941569 -1.36608348
v -1.69817341 -6.72940896 -1.36608925
v -1.69816560 -6.72941148 -1.40215129
v -1.69817539 -6.72940882 -1.40213799
v -1.69816734 -6.66818313 -1.40213645
v -1.69817922 -6.66818119 -1.40212998
v -1.69817296 -6.66817738 -1.40213751
v -1.69817737 -6.66818930 -1.40213001
v -1.69817632 -6.60794200 -1.40214039
v -1.69816636 -6.60794941 -1.40213649
v -1.69816570 -6.60796016 -1.40212853
v -1.69817172 -6.54669536 -1.40213174
v -1.69816581 -6.54668845 -1.40212516
v -1.67891277 -6.76471798 -1.07874641
v -1.66273626 -6.49479989 -1.34585388
v -1.66305261 -6.49936726 -1.34513432
v -1.66404106 -6.50370240 -1.34494742
v -1.65530010 -6.50554437 -1.36608998
v -1.66537428 -6.49370739 -1.32452373
v -1.65530093 -6.50554450 -1.36608391
v -1.67856515 -6.49169673 -1.06796858
v -1.69230870 -6.52287535 -1.38022835
v -1.69231164 -6.52287454 -1.38020719
v -1.66198890 -6.50916499 -1.36609161
v -1.67777721 -6.51246131 -1.36608710
v -1.64950640 -6.51420337 -1.37958705
v -1.67856640 -6.49555425 -1.06196624
v -1.67857065 -6.49169432 -1.06796076
v -1.70155516 -6.49059498 -1.06734512
v -1.66978645 -6.73299489 -1.05990287
v -1.66979753 -6.73299246 -1.05990539
v -1.67857394 -6.54279290 -1.05613827
v -1.67856451 -6.54280369 -1.05614891
v -1.67856041 -6.73330470 -1.05614513
v -1.67856457 -6.73330248 -1.05614880
v -1.66978913 -6.54310899 -1.05991175
v -1.66978830 -6.54310291 -1.05991398
v -1.66808312 -6.75817859 -1.07017776
v -1.67856764 -6.50121890 -1.05844034
v -1.66809716 -6.76854373 -1.07082228
v -1.67856959 -6.49554093 -1.06195852
v -1.70155572 -6.50062165 -1.05730313
v -1.67856495 -6.50122245 -1.05842679
v -1.69407532 -6.75374069 -1.32439434
v -1.67891649 -6.76473075 -1.07875260
v -1.69313379 -6.69850194 -1.42262972
v -1.69281346 -6.63806644 -1.42267710
v -1.69313244 -6.57763668 -1.42263182
v -1.69356628 -6.75361760 -1.34523991
v -1.69230525 -6.75326564 -1.38022174
v -1.67057281 -6.76634019 -1.07487168
v -1.65343978 -6.50157661 -1.36637005
v -1.66273880 -6.49480213 -1.34584585
v -1.67187343 -6.49086299 -1.34631737
v -1.65344202 -6.50156908 -1.36636807
v -1.67430991 -6.48988190 -1.32489728
v -1.65530069 -6.50555464 -1.36608286
v -1.70155621 -6.49059271 -1.06734546
v -1.67466916 -6.51361482 -1.38050674
v -1.67777667 -6.51243897 -1.36609008
v -1.67466975 -6.51362640 -1.38049793
v -1.64951470 -6.51420925 -1.37959250
v -1.70155810 -6.49464519 -1.06103356
v -1.67856346 -6.49555063 -1.06196550
v -1.70156317 -6.49059906 -1.06734560
v -1.66979368 -6.76040086 -1.06038648
v -1.67855491 -6.73330481 -1.05614106
v -1.67856578 -6.73330215 -1.05615214
v -1.70155744 -6.54271530 -1.05488922
v -1.70155619 -6.54272018 -1.05489049
v -1.70155925 -6.73343743 -1.05489541
v -1.67856439 -6.54278661 -1.05613553
v -1.67856639 -6.54279010 -1.05614030
v -1.67857054 -6.76122964 -1.05671582
v -1.66810253 -6.76854416 -1.07082297
v -1.70156265 -6.50062910 -1.05729990
v -1.67057183 -6.76633575 -1.07485689
v -1.67855778 -6.49554974 -1.06195358
v -1.70155551 -6.49464826 -1.06102532
v -1.70155836 -6.50063229 -1.05730962
v -1.69176745 -6.75688909 -1.11581710
v -1.68179500 -6.76432282 -1.32418683
v -1.69408244 -6.75373245 -1.32438317
v -1.67891332 -6.76472660 -1.07873964
v -1.67892207 -6.76472829 -1.07874043
v -1.68183664 -6.76479882 -1.11495924
v -1.68184237 -6.76480681 -1.11496593
v -1.69328934 -6.72920654 -1.42254020
v -1.69297433 -6.66818927 -1.42266991
v -1.69297433 -6.66819490 -1.42267630
v -1.69296871 -6.60795073 -1.42267009
v -1.69297631 -6.60795039 -1.42267673
v -1.69329383 -6.54692185 -1.42253409
v -1.69257609 -6.52330946 -1.40250674
v -1.69305238 -6.75353995 -1.36608665
v -1.69258476 -6.75284429 -1.40251964
v -1.67056515 -6.76633166 -1.07486349
v -1.67120520 -6.76735600 -1.07582705
v -1.67892529 -6.76471807 -1.07874106
v -1.65219830 -6.49728497 -1.36719191
v -1.66155264 -6.49326702 -1.36774838
v -1.63667786 -6.50988004 -1.37479257
v -1.65344678 -6.50156812 -1.36637055
v -1.65529725 -6.50556122 -1.36608669
v -1.69903617 -6.48814653 -1.32438633
v -1.65529309 -6.50554873 -1.36608704
v -1.64951068 -6.51420639 -1.37958632
v -1.64034705 -6.51271220 -1.37447030
v -1.70156023 -6.48826836 -1.10834160
v -1.67584917 -6.51535315 -1.40366061
v -1.64951074 -6.51422036 -1.37958747
v -1.67467177 -6.51362740 -1.38050921
v -1.67584075 -6.51535072 -1.40366417
v -1.73168039 -6.49464891 -1.06103061
v -1.73168486 -6.49058685 -1.06734795
v -1.66978513 -6.76039091 -1.06037803
v -1.66979715 -6.77317933 -1.06180765
v -1.73167423 -6.54270413 -1.05488805
v -1.73167292 -6.54272056 -1.05488316
v -1.73167636 -6.73342706 -1.05487799
v -1.66852944 -6.77086543 -1.06631938
v -1.70155915 -6.51460292 -1.05549155
v -1.67120175 -6.76737387 -1.07582086
v -1.73167909 -6.49465179 -1.06102380
v -1.73167428 -6.50063476 -1.05729341
v -1.69357326 -6.75363094 -1.34524333
v -1.67150864 -6.76870149 -1.11329273
v -1.68931429 -6.74626290 -1.41782870
v -1.67868746 -6.72853876 -1.43171222
v -1.69313788 -6.69850216 -1.42263232
v -1.69329427 -6.72921529 -1.42254035
v -1.67747017 -6.66818794 -1.43225643
v -1.69297275 -6.66818863 -1.42266848
v -1.67746492 -6.66819182 -1.43225304
v -1.69281497 -6.63807439 -1.42266841
v -1.69297215 -6.66818764 -1.42266163
v -1.67746671 -6.60794953 -1.43225471
v -1.69297484 -6.60795664 -1.42266478
v -1.67746245 -6.60794600 -1.43225922
v -1.69313492 -6.57764203 -1.42263916
v -1.69297972 -6.60795290 -1.42267074
v -1.67868430 -6.54760119 -1.43171649
v -1.69328397 -6.54693346 -1.42253488
v -1.68931435 -6.52987913 -1.41782529
v -1.69258065 -6.52331149 -1.40251387
v -1.67979245 -6.76401279 -1.34513854
v -1.69305399 -6.75354717 -1.36608531
v -1.67777224 -6.76369603 -1.36607781
v -1.69230741 -6.75326149 -1.38021582
v -1.67584509 -6.76078482 -1.40365276
v -1.69257710 -6.75283607 -1.40251377
v -1.67120080 -6.76735225 -1.07583060
v -1.67058323 -6.76838817 -1.07716427
v -1.67891754 -6.76472425 -1.07873735
v -1.65217992 -6.49728358 -1.36719514
v -1.65218688 -6.49728520 -1.36719386
v -1.69148533 -6.49015990 -1.36719490
v -1.69525734 -6.48913464 -1.34578876
v -1.64034215 -6.51271898 -1.37447719
v -1.62108766 -6.52814828 -1.37957505
v -1.62108421 -6.52814810 -1.37957960
v -1.64033577 -6.51271575 -1.37448269
v -1.64951007 -6.51421906 -1.37958954
v -1.73168715 -6.48827140 -1.10819310
v -1.65475146 -6.51924757 -1.40520138
v -1.70155886 -6.49058378 -1.06734280
v -1.73168646 -6.48826234 -1.10820579
v -1.73167818 -6.49058730 -1.06734744
v -1.66978171 -6.77318447 -1.06182262
v -1.70155766 -6.76153416 -1.05549846
v -1.73167838 -6.51460150 -1.05549377
v -1.73168209 -6.76153473 -1.05549866
v -1.66853423 -6.77433639 -1.06851364
v -1.73167739 -6.50062924 -1.05731245
v -1.66809423 -6.77075314 -1.07226415
v -1.67057460 -6.76839290 -1.07716122
v -1.68930088 -6.74625735 -1.41783056
v -1.67809469 -6.69831446 -1.43212187
v -1.67675270 -6.63806758 -1.43225799
v -1.67809169 -6.57778872 -1.43211065
v -1.68931765 -6.52988614 -1.41782467
v -1.69259597 -6.52330907 -1.40251541
v -1.68931638 -6.52988993 -1.41782625
v -1.67585125 -6.51534941 -1.40365891
v -1.67466701 -6.76252076 -1.38049729
v -1.69259396 -6.75283626 -1.40250998
v -1.67584907 -6.76079478 -1.40365244
v -1.68931219 -6.74626119 -1.41783117
v -1.66809716 -6.77232404 -1.07481507
v -1.67058383 -6.76838967 -1.07716507
v -1.63340843 -6.50657510 -1.37570015
v -1.63982194 -6.50152405 -1.38165972
v -1.69148444 -6.49017145 -1.36719317
v -1.66155480 -6.49327394 -1.36774361
v -1.63983070 -6.50153353 -1.38166528
v -1.62108433 -6.52815859 -1.37958088
v -1.73167803 -6.48748736 -1.34474739
v -1.62714884 -6.52959840 -1.38637097
v -1.62714721 -6.52959948 -1.38636587
v -1.62714499 -6.52960431 -1.38637466
v -1.65951133 -6.52846939 -1.42656762
v -1.65475140 -6.51925194 -1.40520177
v -1.63608662 -6.53141681 -1.40681269
v -1.63609197 -6.53142012 -1.40680362
v -1.67856493 -6.77491757 -1.05842518
v -1.70156138 -6.77550879 -1.05731223
v -1.73167901 -6.77550893 -1.05729808
v -1.66809738 -6.77074818 -1.07225319
v -1.66936087 -6.76834465 -1.32395378
v -1.67152075 -6.76869979 -1.11328764
v -1.67825431 -6.75172957 -1.42443156
v -1.65865155 -6.69770850 -1.43483464
v -1.67809779 -6.69830936 -1.43211583
v -1.67868669 -6.72855216 -1.43171207
v -1.67746333 -6.66817844 -1.43225068
v -1.65541648 -6.63805555 -1.43504998
v -1.67676038 -6.63806947 -1.43224658
v -1.67746951 -6.60795705 -1.43225019
v -1.65866184 -6.57843043 -1.43483619
v -1.67809635 -6.57780336 -1.43210975
v -1.67825693 -6.52441254 -1.42443443
v -1.67868364 -6.54760021 -1.43171790
v -1.67824921 -6.52441025 -1.42443198
v -1.66963898 -6.76838330 -1.34502889
v -1.67778728 -6.76369329 -1.36609630
v -1.64950833 -6.76193278 -1.37958805
v -1.67466298 -6.76252505 -1.38049832
v -1.67824751 -6.75172544 -1.42443424
v -1.64950377 -6.76191966 -1.37957614
v -1.67584408 -6.76078438 -1.40363916
v -1.67465378 -6.76252356 -1.38049542
v -1.61226490 -6.52492027 -1.38114465
v -1.63340320 -6.50656977 -1.37569944
v -1.68470768 -6.49286621 -1.38211150
v -1.73167438 -6.48747465 -1.36608094
v -1.61654872 -6.52672958 -1.37998687
v -1.73168368 -6.48747832 -1.32343081
v -1.61069631 -6.54700402 -1.38861169
v -1.61068843 -6.54701075 -1.38860484
v -1.65950852 -6.52845811 -1.42656512
v -1.67824864 -6.52441231 -1.42443230
v -1.66978324 -6.77318481 -1.06182062
v -1.67856150 -6.77492178 -1.05842816
v -1.67857056 -6.78058746 -1.06196424
v -1.66978692 -6.77791539 -1.06477253
v -1.70155816 -6.78149617 -1.06103613
v -1.73167263 -6.77550641 -1.05730891
v -1.73168451 -6.78149876 -1.06102199
v -1.70155188 -6.77551305 -1.05730185
v -1.66809874 -6.77232561 -1.07480797
v -1.66935353 -6.76834966 -1.32396538
v -1.66934950 -6.76834485 -1.32396133
v -1.66490163 -6.77283455 -1.32379322
v -1.66489981 -6.77283837 -1.32379093
v -1.66808966 -6.77326382 -1.11189636
v -1.65950581 -6.74767935 -1.42655931
v -1.67825534 -6.75173400 -1.42443754
v -1.66010064 -6.72605693 -1.43422415
v -1.65702637 -6.66819168 -1.43504798
v -1.65703198 -6.60794726 -1.43504984
v -1.65950473 -6.52846453 -1.42656776
v -1.67824156 -6.52441229 -1.42442372
v -1.66010751 -6.55004279 -1.43423917
v -1.66199368 -6.76696532 -1.36608565
v -1.67777426 -6.76369916 -1.36609571
v -1.66199673 -6.76696678 -1.36608244
v -1.64951119 -6.76193539 -1.37959255
v -1.65951286 -6.74766808 -1.42656987
v -1.67825497 -6.75173477 -1.42443501
v -1.65474714 -6.75689312 -1.40520604
v -1.61226906 -6.52491819 -1.38114169
v -1.61226517 -6.52492306 -1.38115438
v -1.68463067 -6.49574619 -1.40680330
v -1.73167592 -6.48803472 -1.38115054
v -1.73167136 -6.48747871 -1.36608232
v -1.59896246 -6.54629288 -1.38268090
v -1.60381703 -6.54665391 -1.38216643
v -1.62108233 -6.52815174 -1.37957980
v -1.64310012 -6.53846327 -1.42740802
v -1.64309860 -6.53845847 -1.42739869
v -1.67856881 -6.77492121 -1.05841802
v -1.70154973 -6.77551556 -1.05729781
v -1.67856736 -6.78058693 -1.06196314
v -1.66979253 -6.77790960 -1.06477507
v -1.66979171 -6.78113663 -1.06984016
v -1.70156264 -6.78149249 -1.06103729
v -1.73168120 -6.78555246 -1.06735295
v -1.70156106 -6.78554703 -1.06734433
v -1.73168222 -6.78149258 -1.06101898
v -1.67857364 -6.78059050 -1.06194965
v -1.66852462 -6.77672729 -1.07232335
v -1.66963066 -6.76837960 -1.34501806
v -1.66852810 -6.77815186 -1.11071337
v -1.66809244 -6.77327146 -1.11190566
v -1.64336317 -6.72050716 -1.43462987
v -1.63725620 -6.66818235 -1.43520891
v -1.63727237 -6.60794002 -1.43520847
v -1.64336693 -6.55562009 -1.43462463
v -1.66404081 -6.77240046 -1.34494854
v -1.66199453 -6.76697031 -1.36608956
v -1.65529711 -6.77059002 -1.36607800
v -1.64950683 -6.76192709 -1.37958447
v -1.63608733 -6.74467796 -1.40681447
v -1.63608709 -6.74469021 -1.40680880
v -1.65474791 -6.75688481 -1.40519506
v -1.61159563 -6.52388917 -1.38920129
v -1.61159746 -6.52389574 -1.38921984
v -1.64446853 -6.50606265 -1.40796575
v -1.60380354 -6.54664840 -1.38218107
v -1.62170951 -6.54743830 -1.40804829
v -1.59462721 -6.56283011 -1.38307152
v -1.64308252 -6.53846864 -1.42740261
v -1.63087981 -6.54865612 -1.42254119
v -1.67856139 -6.78058884 -1.06196676
v -1.66979009 -6.78114031 -1.06983413
v -1.66979840 -6.77790832 -1.06476191
v -1.73166954 -6.78555589 -1.06734357
v -1.73168844 -6.78786464 -1.10821049
v -1.70155302 -6.78554442 -1.06733907
v -1.67856508 -6.78059832 -1.06196058
v -1.66490620 -6.77283253 -1.32378949
v -1.64029193 -6.69628766 -1.43505067
v -1.63423789 -6.63806210 -1.43522472
v -1.65541600 -6.63806973 -1.43506114
v -1.63726661 -6.66818695 -1.43520609
v -1.63423658 -6.63807744 -1.43522263
v -1.63726016 -6.60795320 -1.43520773
v -1.65542068 -6.63806007 -1.43505621
v -1.64029096 -6.57980227 -1.43504404
v -1.65528851 -6.77059129 -1.36609765
v -1.65528789 -6.77058315 -1.36609535
v -1.64033543 -6.76342890 -1.37448427
v -1.64951775 -6.76192380 -1.37958306
v -1.65950668 -6.74766875 -1.42656526
v -1.62714292 -6.74649142 -1.38637315
v -1.62714618 -6.74650171 -1.38637228
v -1.62714648 -6.74648977 -1.38635672
v -1.59376792 -6.54574677 -1.39216355
v -1.61159635 -6.52389464 -1.38920775
v -1.61160421 -6.52389563 -1.38920496
v -1.61809596 -6.52475339 -1.41033611
v -1.61809660 -6.52476223 -1.41033623
v -1.59420397 -6.54582655 -1.38408346
v -1.73166671 -6.48964837 -1.40623950
v -1.65002128 -6.50925022 -1.43144351
v -1.59462198 -6.56283366 -1.38306887
v -1.61353375 -6.56279514 -1.40848316
v -1.60179179 -6.56283036 -1.38937810
v -1.60180708 -6.56282972 -1.38938877
v -1.63088037 -6.54865851 -1.42254484
v -1.64309611 -6.53846287 -1.42740841
v -1.64336094 -6.55563101 -1.43464728
v -1.67856131 -6.78444003 -1.06797258
v -1.70154879 -6.78555448 -1.06735779
v -1.73167913 -6.78787182 -1.10819958
v -1.70155463 -6.78787198 -1.10833693
v -1.67856803 -6.78059398 -1.06196145
v -1.70155703 -6.78555213 -1.06735167
v -1.67856975 -6.78444842 -1.06796634
v -1.66404086 -6.77240270 -1.34493713
v -1.66304991 -6.77676827 -1.34514797
v -1.66475093 -6.77759455 -1.32390939
v -1.64308968 -6.73763568 -1.42740315
v -1.62347745 -6.69496748 -1.42789538
v -1.64029550 -6.69630658 -1.43505623
v -1.64336037 -6.72051457 -1.43464003
v -1.63726959 -6.66819278 -1.43521156
v -1.61864272 -6.63806648 -1.42800078
v -1.63423308 -6.63807272 -1.43522359
v -1.63726742 -6.60794441 -1.43520231
v -1.62348914 -6.58113864 -1.42790173
v -1.64029786 -6.57980727 -1.43505429
v -1.64336702 -6.55563139 -1.43464098
v -1.65530439 -6.77059015 -1.36608860
v -1.66402904 -6.77240267 -1.34493456
v -1.66304791 -6.77677217 -1.34513836
v -1.63667951 -6.76621136 -1.37479788
v -1.64033956 -6.76341740 -1.37448076
v -1.65529841 -6.77058959 -1.36608676
v -1.62108344 -6.74795079 -1.37957462
v -1.62108145 -6.74795809 -1.37958056
v -1.64033478 -6.76342211 -1.37447896
v -1.64308972 -6.73763232 -1.42740318
v -1.64309972 -6.73764340 -1.42738888
v -1.61069647 -6.72913454 -1.38861225
v -1.61068549 -6.72914245 -1.38861149
v -1.59419039 -6.54582055 -1.38408970
v -1.58478897 -6.56282522 -1.38510666
v -1.73167208 -6.49204383 -1.43073326
v -1.68738386 -6.49885634 -1.43087128
v -1.58971554 -6.56284103 -1.38360722
v -1.58970920 -6.56283361 -1.38359971
v -1.59683654 -6.58160982 -1.38941744
v -1.59682104 -6.58162115 -1.38942233
v -1.62797848 -6.56097633 -1.42777258
v -1.67855817 -6.78444044 -1.06796341
v -1.67856459 -6.78666163 -1.10871500
v -1.66979513 -6.78114327 -1.06983297
v -1.66978922 -6.78298633 -1.10957097
v -1.69904868 -6.78799691 -1.32439786
v -1.66538008 -6.78243423 -1.32451087
v -1.63088444 -6.72748662 -1.42253459
v -1.64336685 -6.72049876 -1.43463822
v -1.64309625 -6.73762365 -1.42740432
v -1.62797387 -6.71511958 -1.42777266
v -1.61914634 -6.66819376 -1.42796126
v -1.61915190 -6.60795759 -1.42797597
v -1.62798544 -6.56098748 -1.42776710
v -1.65344306 -6.77452858 -1.36636612
v -1.62108130 -6.74794823 -1.37957658
v -1.65344807 -6.77452350 -1.36636461
v -1.63089017 -6.72748289 -1.42254059
v -1.62170660 -6.72870335 -1.40805802
v -1.60194759 -6.54650011 -1.41266600
v -1.58478958 -6.56282274 -1.38509728
v -1.62651136 -6.52669890 -1.43291662
v -1.62651540 -6.52669113 -1.43289799
v -1.68919969 -6.50236825 -1.44399011
v -1.58474562 -6.58161003 -1.38364888
v -1.62797885 -6.56098711 -1.42777824
v -1.58966448 -6.58164899 -1.38310136
v -1.59463395 -6.56283552 -1.38305680
v -1.59682229 -6.58161235 -1.38942361
v -1.66979805 -6.78299947 -1.10957076
v -1.73167606 -6.78866015 -1.32342689
v -1.62798419 -6.71512609 -1.42776761
v -1.62348823 -6.69495346 -1.42790824
v -1.62796720 -6.71512130 -1.42776721
v -1.61352666 -6.71330808 -1.40849545
v -1.60384287 -6.66814140 -1.40856282
v -1.61916741 -6.66818963 -1.42796815
v -1.61865182 -6.63807464 -1.42800041
v -1.61915989 -6.60795141 -1.42796227
v -1.60383830 -6.60795047 -1.40854724
v -1.62347812 -6.58115668 -1.42790247
v -1.65345312 -6.77453121 -1.36636151
v -1.66273787 -6.78134076 -1.34584686
v -1.61656309 -6.74941028 -1.37998508
v -1.65218493 -6.77886354 -1.36719286
v -1.60379702 -6.72948542 -1.38217299
v -1.62108481 -6.74795156 -1.37958510
v -1.59258219 -6.56283221 -1.41371617
v -1.61277189 -6.54637579 -1.43439247
v -1.58427883 -6.56354355 -1.39322599
v -1.57982863 -6.58160763 -1.38513189
v -1.63179857 -6.52874210 -1.44528836
v -1.63179060 -6.52873605 -1.44529007
v -1.65360517 -6.51267652 -1.44430333
v -1.58475372 -6.58161060 -1.38365402
v -1.59462409 -6.56283312 -1.38306399
v -1.58967675 -6.58164520 -1.38309546
v -1.60856676 -6.58161136 -1.40852482
v -1.59683080 -6.58160556 -1.38942566
v -1.59681933 -6.58161607 -1.38941511
v -1.58494819 -6.60795022 -1.38314507
v -1.66538189 -6.78244200 -1.32451698
v -1.67431524 -6.78625463 -1.32490965
v -1.73168354 -6.78866125 -1.34476026
v -1.60857218 -6.69452689 -1.40852285
v -1.60289618 -6.63807089 -1.40859342
v -1.65218542 -6.77885204 -1.36718583
v -1.61226891 -6.75122612 -1.38115341
v -1.59896927 -6.72984872 -1.38269017
v -1.63340604 -6.76957655 -1.37569307
v -1.60379567 -6.72948075 -1.38217736
v -1.59462518 -6.71331126 -1.38305583
v -1.60180082 -6.71330898 -1.38937577
v -1.60178133 -6.71330676 -1.38938544
v -1.60180763 -6.71329727 -1.38938164
v -1.57873306 -6.58141204 -1.39343555
v -1.57510196 -6.60795521 -1.38516643
v -1.57982543 -6.58161121 -1.38512761
v -1.73167097 -6.49491665 -1.44397861
v -1.65691835 -6.51575355 -1.45051756
v -1.65690822 -6.51574495 -1.45051745
v -1.58494676 -6.60794930 -1.38314357
v -1.59210661 -6.60794738 -1.38945922
v -1.59209666 -6.60794630 -1.38944844
v -1.59210804 -6.60795958 -1.38945934
v -1.58494094 -6.60795374 -1.38313457
v -1.69525556 -6.78697149 -1.34578662
v -1.67186545 -6.78527912 -1.34632198
v -1.66273599 -6.78133702 -1.34585433
v -1.59684009 -6.69447989 -1.38942495
v -1.59120819 -6.63806723 -1.38949183
v -1.59120780 -6.63807414 -1.38949361
v -1.66155747 -6.78287013 -1.36775116
v -1.65218315 -6.77884937 -1.36719169
v -1.63983133 -6.77457045 -1.38166334
v -1.63340905 -6.76956015 -1.37571027
v -1.59461784 -6.71331693 -1.38306420
v -1.59683919 -6.69448299 -1.38942353
v -1.59683946 -6.69448909 -1.38942162
v -1.60467571 -6.56350103 -1.43507185
v -1.57871696 -6.58141836 -1.39343376
v -1.57510326 -6.60795644 -1.38516684
v -1.57510317 -6.60796041 -1.38517073
v -1.58475578 -6.58161384 -1.38363702
v -1.58001691 -6.60795226 -1.38368333
v -1.73167891 -6.49492401 -1.44397982
v -1.68919761 -6.50236346 -1.44398026
v -1.73168787 -6.49896554 -1.45029967
v -1.61932130 -6.54669190 -1.44631360
v -1.69097208 -6.50610639 -1.45029724
v -1.69097934 -6.50610355 -1.45031166
v -1.58494396 -6.60795394 -1.38314577
v -1.73166967 -6.78865327 -1.36609250
v -1.59683075 -6.69448809 -1.38941818
v -1.59682543 -6.69448872 -1.38941003
v -1.59210845 -6.66814991 -1.38944572
v -1.59210549 -6.66816011 -1.38945448
v -1.59420352 -6.73032308 -1.38409693
v -1.61226635 -6.75122656 -1.38115283
v -1.61227006 -6.75121857 -1.38114912
v -1.58971635 -6.71331771 -1.38361216
v -1.58970503 -6.71330100 -1.38360392
v -1.58966645 -6.69448662 -1.38309352
v -1.60081268 -6.58137565 -1.43692541
v -1.61179084 -6.56275811 -1.44675624
v -1.58868002 -6.58083226 -1.41394845
v -1.57505295 -6.60646180 -1.39332371
v -1.57911736 -6.63806655 -1.38372832
v -1.73167067 -6.49897711 -1.45030465
v -1.73168196 -6.49897660 -1.45029525
v -1.62439097 -6.54713076 -1.45184568
v -1.63620080 -6.53043229 -1.45117474
v -1.63620043 -6.53043084 -1.45117905
v -1.63621369 -6.53043011 -1.45116361
v -1.69353215 -6.50988233 -1.45401313
v -1.58403137 -6.63807034 -1.38316758
v -1.58493990 -6.60795520 -1.38314899
v -1.59120840 -6.63806874 -1.38949057
v -1.69147969 -6.78598779 -1.36720117
v -1.58495269 -6.66815006 -1.38314666
v -1.63982674 -6.77457085 -1.38166581
v -1.66154399 -6.78287328 -1.36774684
v -1.59419769 -6.73032208 -1.38408492
v -1.59375775 -6.73039648 -1.39216087
v -1.58479113 -6.71330419 -1.38510493
v -1.61159771 -6.75223575 -1.38920730
v -1.61160223 -6.75223865 -1.38919939
v -1.58966168 -6.69448679 -1.38310441
v -1.58474624 -6.69447719 -1.38365489
v -1.58493871 -6.66814864 -1.38313041
v -1.58482733 -6.60504984 -1.41384208
v -1.57388549 -6.63806647 -1.39330994
v -1.57506124 -6.60645557 -1.39332313
v -1.57419580 -6.63806906 -1.38520305
v -1.57509944 -6.60795059 -1.38516328
v -1.57911852 -6.63807031 -1.38371615
v -1.64210149 -6.53126010 -1.45423354
v -1.66160094 -6.51771015 -1.45407626
v -1.57911016 -6.63807121 -1.38371850
v -1.58495028 -6.60795197 -1.38313853
v -1.58404833 -6.63807457 -1.38317654
v -1.58495189 -6.66815582 -1.38313064
v -1.73168267 -6.78811425 -1.38115482
v -1.68470301 -6.78326299 -1.38211150
v -1.58478715 -6.71330886 -1.38509936
v -1.61809681 -6.75133504 -1.41033123
v -1.61808846 -6.75132772 -1.41033115
v -1.61159578 -6.75223837 -1.38921777
v -1.61159910 -6.75225161 -1.38920135
v -1.57982925 -6.69447798 -1.38512848
v -1.58494675 -6.66815815 -1.38314428
v -1.58001651 -6.66815110 -1.38369025
v -1.60679562 -6.58156580 -1.44686529
v -1.60679692 -6.58157309 -1.44687054
v -1.57388718 -6.63807348 -1.39331140
v -1.57419465 -6.63807336 -1.38521462
v -1.57509839 -6.66815279 -1.38517673
v -1.73168369 -6.50496150 -1.45401262
v -1.61706879 -6.56271103 -1.45212377
v -1.62439650 -6.54713247 -1.45184530
v -1.65797202 -6.52740461 -1.45630551
v -1.69352285 -6.50988560 -1.45401882
v -1.58494735 -6.66814669 -1.38314039
v -1.68462228 -6.78039041 -1.40678460
v -1.58427532 -6.71256373 -1.39323428
v -1.64447336 -6.77007676 -1.40796062
v -1.57509211 -6.66814836 -1.38517541
v -1.57982910 -6.69449066 -1.38513313
v -1.57872854 -6.69467770 -1.39344065
v -1.57510135 -6.66814456 -1.38517421
v -1.57911378 -6.63806125 -1.38371650
v -1.60206633 -6.60791510 -1.44694441
v -1.60205867 -6.60791344 -1.44692920
v -1.61211053 -6.58156810 -1.45217014
v -1.61210474 -6.58156831 -1.45216673
v -1.59545232 -6.60642485 -1.43529949
v -1.58288719 -6.63807188 -1.41369929
v -1.57510096 -6.66815268 -1.38517813
v -1.73168325 -6.51837677 -1.45583368
v -1.73168350 -6.50496508 -1.45401566
v -1.61707285 -6.56271997 -1.45211783
v -1.62369071 -6.56270800 -1.45448669
v -1.63084886 -6.54732555 -1.45440110
v -1.69565153 -6.52078520 -1.45583254
v -1.59258245 -6.71330880 -1.41370898
v -1.60195327 -6.72963400 -1.41267637
v -1.65002195 -6.76688788 -1.43144397
v -1.59426092 -6.63807277 -1.43529177
v -1.58482108 -6.67106150 -1.41384200
v -1.57505722 -6.66968797 -1.39332129
v -1.61210471 -6.58157207 -1.45217502
v -1.63798620 -6.54741017 -1.45547452
v -1.64876301 -6.53162342 -1.45588735
v -1.69605756 -6.54578813 -1.45644210
v -1.69605030 -6.54578719 -1.45643659
v -1.73167693 -6.78648856 -1.40623174
v -1.57871866 -6.69468545 -1.39343482
v -1.61277971 -6.72972786 -1.43439147
v -1.62651457 -6.74944234 -1.43289008
v -1.62650915 -6.74944518 -1.43290540
v -1.60738485 -6.60790974 -1.45221380
v -1.57505123 -6.66968876 -1.39332401
v -1.61872114 -6.58156415 -1.45453180
v -1.66038287 -6.54672479 -1.45644112
v -1.66036758 -6.54673589 -1.45643191
v -1.73167771 -6.78409243 -1.43074194
v -1.68739371 -6.77723957 -1.43087706
v -1.58868892 -6.69528108 -1.41394938
v -1.63178731 -6.74736630 -1.44529241
v -1.63178409 -6.74736372 -1.44528958
v -1.60647512 -6.63807224 -1.45225298
v -1.60737852 -6.60791091 -1.45221647
v -1.61400387 -6.60791869 -1.45456386
v -1.61211828 -6.58156853 -1.45216852
v -1.60116173 -6.63807814 -1.44697752
v -1.60116581 -6.63807028 -1.44697605
v -1.59546309 -6.66971777 -1.43529333
v -1.73167685 -6.54483710 -1.45643119
v -1.73166991 -6.54484167 -1.45643921
v -1.61399911 -6.60790791 -1.45456216
v -1.62601311 -6.58157179 -1.45540101
v -1.63100495 -6.56272114 -1.45536400
v -1.73167243 -6.73126229 -1.45643896
v -1.73167881 -6.73125177 -1.45643281
v -1.69605442 -6.73036140 -1.45643413
v -1.69604848 -6.73035059 -1.45643615
v -1.66037311 -6.72941834 -1.45644043
v -1.66037710 -6.72940856 -1.45644254
v -1.65935580 -6.57760135 -1.45643731
v -1.65934934 -6.69854393 -1.45643835
v -1.65936405 -6.69854806 -1.45642780
v -1.65837572 -6.60794509 -1.45643912
v -1.65837703 -6.66818081 -1.45643079
v -1.65836935 -6.66818391 -1.45643942
v -1.65738499 -6.63806980 -1.45643877
v -1.65738249 -6.63806865 -1.45644030
v -1.68919522 -6.77378204 -1.44398106
v -1.60081072 -6.69472300 -1.43690715
v -1.60466897 -6.71264503 -1.43505087
v -1.65360442 -6.76342811 -1.44430897
v -1.60648186 -6.63806574 -1.45224560
v -1.60647374 -6.63806952 -1.45226014
v -1.60207412 -6.66822604 -1.44695315
v -1.60206829 -6.66823293 -1.44693585
v -1.62600934 -6.58156914 -1.45540199
v -1.62128114 -6.60791772 -1.45543628
v -1.62126922 -6.66823654 -1.45544497
v -1.62599954 -6.69456396 -1.45540532
v -1.63100419 -6.71338387 -1.45536902
v -1.65797959 -6.74873512 -1.45629727
v -1.73167158 -6.75775230 -1.45583649
v -1.61178641 -6.71339048 -1.44675255
v -1.61931808 -6.72941716 -1.44630438
v -1.65691716 -6.76039728 -1.45051691
v -1.65690707 -6.76039695 -1.45052875
v -1.60647760 -6.63807909 -1.45225467
v -1.61309530 -6.63807151 -1.45459839
v -1.61309403 -6.63806341 -1.45459217
v -1.61398932 -6.60790788 -1.45455725
v -1.61400297 -6.60791963 -1.45455858
v -1.62038057 -6.63807560 -1.45547359
v -1.63796963 -6.72870092 -1.45547732
v -1.64876508 -6.74449092 -1.45587289
v -1.69565847 -6.75535424 -1.45583562
v -1.73167782 -6.78121520 -1.44397653
v -1.62439283 -6.72900959 -1.45184789
v -1.63620174 -6.74569925 -1.45117650
v -1.63620253 -6.74570073 -1.45117789
v -1.63620327 -6.74571027 -1.45117934
v -1.60738313 -6.66823198 -1.45220364
v -1.61399647 -6.66822864 -1.45455825
v -1.62037788 -6.63807173 -1.45547545
v -1.60738828 -6.66823017 -1.45220958
v -1.60648829 -6.63807489 -1.45224931
v -1.60679263 -6.69456871 -1.44687316
v -1.60679627 -6.69457644 -1.44686893
v -1.61399517 -6.66823258 -1.45455071
v -1.62368052 -6.71338891 -1.45448024
v -1.64210410 -6.74487723 -1.45423723
v -1.69353076 -6.76622503 -1.45402310
v -1.68920895 -6.77377359 -1.44398797
v -1.73167425 -6.78122753 -1.44398115
v -1.73168352 -6.77716441 -1.45031140
v -1.69097235 -6.77003498 -1.45030186
v -1.69096834 -6.77004297 -1.45031454
v -1.61211163 -6.69456934 -1.45216127
v -1.61210394 -6.69456499 -1.45217212
v -1.61211077 -6.69456328 -1.45217101
v -1.61399835 -6.66821745 -1.45456363
v -1.61872463 -6.69456796 -1.45452569
v -1.62601573 -6.69455996 -1.45541120
v -1.63085194 -6.72881701 -1.45441151
v -1.66159994 -6.75842603 -1.45407590
v -1.73167798 -6.77118783 -1.45402314
v -1.73167049 -6.77715818 -1.45030604
v -1.73167154 -6.77716925 -1.45031016
v -1.69353845 -6.76622656 -1.45401783
v -1.61706958 -6.71337688 -1.45210765
v -1.62439395 -6.72901668 -1.45184499
v -1.61210168 -6.69456867 -1.45216913
v -1.73168112 -6.77117359 -1.45402209
v -1.61707127 -6.71339362 -1.45210698
vt 0.42620000 0.29170001
vt 0.42969999 0.30180001
vt 0.42989999 0.29909998
vt 0.38670000 0.29100001
vt 0.38460001 0.29909998
vt 0.38780001 0.29170001
vt 0.42770001 0.29100001
vt 0.42989999 0.29909998
vt 0.46669999 0.29200000
vt 0.11380000 0.39219999
vt 0.11490000 0.39749998
vt 0.11640000 0.39639997
vt 0.10950000 0.39630002
vt 0.11390000 0.39859998
vt 0.38670000 0.29100001
vt 0.37650001 0.29200000
vt 0.38460001 0.29909998
vt 0.15539999 0.39609998
vt 0.46849999 0.30320001
vt 0.11110000 0.39389998
vt 0.11380000 0.40890002
vt 0.37459999 0.30320001
vt 0.15390000 0.39109999
vt 0.45629999 0.31389999
vt 0.69470000 0.30309999
vt 0.10700000 0.38999999
vt 0.11110000 0.39389998
vt 0.11380000 0.39219999
vt 0.10880000 0.40740001
vt 0.10950000 0.39630002
vt 0.34810001 0.30449998
vt 0.11840000 0.40069997
vt 0.11720000 0.40079999
vt 0.11820000 0.41070002
vt 0.14500000 0.40880001
vt 0.38299999 0.39160001
vt 0.69419998 0.28479999
vt 0.15260001 0.38590002
vt 0.15390000 0.39109999
vt 0.69440001 0.28969997
vt 0.11120000 0.38739997
vt 0.10350000 0.40619999
vt 0.10880000 0.40740001
vt 0.10860000 0.43559998
vt 0.10860000 0.43569303
vt 0.10470000 0.39370000
vt 0.11850000 0.43730003
vt 0.11850000 0.43715620
vt 0.34909999 0.29229999
vt 0.38299999 0.39160001
vt 0.38310000 0.39649999
vt 0.69440001 0.28969997
vt 0.69489998 0.31639999
vt 0.71730000 0.30089998
vt 0.10850000 0.38260001
vt 0.10860000 0.43559998
vt 0.10860000 0.43592072
vt 0.11380000 0.43620002
vt 0.11380000 0.43625849
vt 0.09979999 0.39120001
vt 0.15870000 0.43820000
vt 0.15870000 0.43809372
vt 0.15870000 0.43818730
vt 0.14813641 0.30449998
vt 0.14810000 0.30449998
vt 0.14705160 0.29229999
vt 0.14700000 0.29229999
vt 0.38310000 0.38650000
vt 0.71719998 0.29000002
vt 0.38370001 0.43849999
vt 0.38370129 0.43849999
vt 0.38370129 0.43851489
vt 0.38360000 0.41229999
vt 0.71740001 0.31580001
vt 0.71719998 0.29000002
vt 0.10300000 0.38609999
vt 0.10320000 0.43510002
vt 0.10320000 0.43538600
vt 0.10320000 0.43508738
vt 0.11380000 0.63824713
vt 0.11380000 0.63830000
vt 0.10860000 0.63900000
vt 0.15870000 0.63650632
vt 0.15870000 0.63629997
vt 0.15870000 0.63628972
vt 0.11850000 0.63744378
vt 0.11850000 0.63730001
vt 0.11970000 0.29200000
vt 0.40599999 0.38739997
vt 0.38370001 0.38120002
vt 0.71710002 0.28390002
vt 0.15140000 0.38059998
vt 0.40610000 0.41240001
vt 0.73989999 0.31529999
vt 0.73989999 0.29879999
vt 0.09880000 0.13180000
vt 0.10180000 0.14130002
vt 0.10730000 0.14130002
vt 0.09769999 0.43470001
vt 0.09769999 0.43461931
vt 0.10860000 0.63900000
vt 0.10320000 0.63940001
vt 0.10320000 0.63941491
vt 0.09829998 0.40499997
vt 0.11380000 0.66569996
vt 0.85149997 0.59060001
vt 0.85439998 0.58109999
vt 0.84640002 0.59060001
vt 0.14500000 0.66569996
vt 0.38370001 0.63596421
vt 0.38370001 0.63600004
vt 0.38370129 0.63595301
vt 0.38370129 0.63600004
vt 0.12150000 0.30320001
vt 0.40580001 0.39209998
vt 0.73989999 0.28170002
vt 0.10730000 0.14130002
vt 0.15019999 0.14130002
vt 0.14929999 0.13180000
vt 0.42870000 0.43849999
vt 0.42870000 0.43851489
vt 0.42863119 0.43849999
vt 0.42870000 0.41240001
vt 0.73989999 0.28170002
vt 0.10530000 0.13180000
vt 0.09769999 0.63984036
vt 0.09769999 0.63989997
vt 0.10350000 0.66830003
vt 0.84640002 0.59060001
vt 0.83340001 0.58109999
vt 0.83249998 0.59060001
vt 0.10880000 0.66710001
vt 0.84820002 0.58109999
vt 0.11820000 0.66380000
vt 0.42870000 0.63595301
vt 0.42870000 0.63600004
vt 0.42863119 0.63600004
vt 0.46765599 0.63595301
vt 0.46759999 0.63600004
vt 0.46765599 0.56980002
vt 0.46759999 0.56975377
vt 0.46759999 0.56990004
vt 0.46759999 0.56980002
vt 0.46765599 0.50471050
vt 0.46759999 0.50470001
vt 0.46759999 0.50470430
vt 0.46765599 0.43851489
vt 0.46759999 0.43849999
vt 0.11160000 0.29909998
vt 0.40680000 0.38239998
vt 0.40599999 0.38739997
vt 0.40580001 0.39209998
vt 0.42870000 0.39399999
vt 0.38249999 0.14600003
vt 0.73989999 0.27450001
vt 0.10530000 0.13180000
vt 0.44389999 0.41280001
vt 0.75520003 0.31449997
vt 0.73989999 0.28170002
vt 0.73989999 0.29879999
vt 0.75449997 0.26819998
vt 0.09880000 0.13180000
vt 0.10530000 0.13180000
vt 0.10460000 0.10689998
vt 0.59770030 0.59060001
vt 0.59770000 0.59060001
vt 0.80344260 0.58109999
vt 0.80330002 0.58109999
vt 0.59735948 0.58109999
vt 0.59740001 0.58109999
vt 0.80310190 0.59060001
vt 0.80290002 0.59060001
vt 0.10880000 0.66710001
vt 0.84820002 0.58109999
vt 0.10950000 0.67830002
vt 0.85439998 0.58109999
vt 0.84890002 0.55630004
vt 0.84820002 0.58109999
vt 0.38360000 0.66229999
vt 0.11720000 0.67369998
vt 0.48980001 0.60259998
vt 0.48980001 0.53729999
vt 0.48980001 0.47200000
vt 0.40610000 0.66219997
vt 0.44389999 0.66180003
vt 0.10950000 0.29100001
vt 0.42899999 0.38980001
vt 0.40560001 0.14889997
vt 0.40610000 0.13900000
vt 0.42899999 0.38980001
vt 0.38299999 0.13639998
vt 0.73989999 0.27450001
vt 0.10460000 0.10689998
vt 0.75550002 0.29540002
vt 0.73989999 0.29879999
vt 0.75550002 0.29540002
vt 0.75449997 0.26819998
vt 0.09769999 0.10689998
vt 0.09880000 0.13180000
vt 0.10460000 0.10689998
vt 0.09829998 0.66949999
vt 0.59728539 0.58109999
vt 0.59740001 0.58109999
vt 0.80391490 0.55630004
vt 0.80339998 0.55630004
vt 0.59719998 0.55630004
vt 0.80378687 0.58109999
vt 0.80330002 0.58109999
vt 0.56720001 0.58109999
vt 0.10950000 0.67830002
vt 0.84890002 0.55630004
vt 0.11390000 0.67589998
vt 0.85439998 0.58109999
vt 0.85530001 0.55630004
vt 0.84890002 0.55630004
vt 0.14380001 0.11760002
vt 0.38220000 0.12830001
vt 0.38240001 0.11500001
vt 0.11720000 0.12959999
vt 0.11750000 0.13230002
vt 0.11750000 0.13230002
vt 0.15610000 0.12819999
vt 0.48969999 0.63580000
vt 0.48980001 0.56980002
vt 0.48980001 0.56980002
vt 0.48980001 0.50470001
vt 0.48980001 0.50470001
vt 0.48969999 0.43879998
vt 0.46799999 0.41320002
vt 0.42870000 0.66209996
vt 0.46799999 0.66130000
vt 0.11160000 0.29909998
vt 0.10830000 0.29170001
vt 0.11150000 0.30180001
vt 0.42989999 0.38510001
vt 0.42930001 0.15020001
vt 0.83880001 0.62639999
vt 0.84780002 0.60829997
vt 0.84350002 0.60630000
vt 0.38240001 0.10970002
vt 0.73989999 0.27450001
vt 0.75449997 0.26819998
vt 0.74900001 0.25830001
vt 0.14890000 0.10689998
vt 0.78049999 0.29670000
vt 0.75449997 0.26819998
vt 0.75550002 0.29540002
vt 0.78049999 0.29670000
vt 0.09769999 0.07440001
vt 0.10460000 0.07440001
vt 0.56809998 0.59060001
vt 0.09979999 0.68330002
vt 0.80391490 0.52370000
vt 0.80339998 0.52370000
vt 0.59719998 0.52370000
vt 0.10470000 0.68079996
vt 0.83370000 0.55630004
vt 0.11490000 0.67699999
vt 0.85530001 0.52370000
vt 0.84890002 0.52370000
vt 0.40490001 0.11559999
vt 0.15420000 0.13940001
vt 0.48460001 0.65419996
vt 0.75999999 0.93620002
vt 0.66180003 0.98339999
vt 0.76220000 0.98390001
vt 0.56279999 0.93210000
vt 0.56279999 0.98290002
vt 0.56279999 0.93210000
vt 0.46450001 0.98229998
vt 0.56279999 0.98290002
vt 0.36610001 0.93210000
vt 0.36610001 0.98290002
vt 0.36610001 0.93210000
vt 0.26710001 0.98339999
vt 0.36610001 0.98290002
vt 0.16900000 0.93620002
vt 0.16680001 0.98390001
vt 0.48460001 0.42030001
vt 0.77929997 0.31480002
vt 0.40480000 0.13050002
vt 0.42750001 0.11610001
vt 0.42750001 0.13260001
vt 0.44270000 0.11699998
vt 0.46810001 0.13470000
vt 0.46680000 0.11659998
vt 0.11370000 0.13980001
vt 0.11520000 0.14039999
vt 0.11750000 0.13230002
vt 0.85250002 0.60960001
vt 0.42870000 0.16030002
vt 0.42870000 0.11780000
vt 0.40549999 0.11379999
vt 0.83579999 0.62239999
vt 0.75449997 0.23750001
vt 0.81910002 0.64320004
vt 0.74900001 0.25830001
vt 0.75449997 0.26819998
vt 0.14869989 0.07440001
vt 0.78219998 0.27389997
vt 0.10460000 0.10689998
vt 0.14869989 0.07440001
vt 0.10460000 0.07440001
vt 0.55430001 0.59060001
vt 0.56690001 0.55630004
vt 0.83370000 0.52370000
vt 0.56690001 0.52370000
vt 0.10700000 0.68449998
vt 0.84890002 0.52370000
vt 0.11110000 0.68070000
vt 0.11520000 0.14039999
vt 0.81779999 0.97090000
vt 0.66130000 0.93430001
vt 0.46450001 0.92979997
vt 0.26769999 0.93430001
vt 0.11110000 0.97090000
vt 0.77929997 0.31480002
vt 0.79589999 0.31120002
vt 0.78049999 0.29670000
vt 0.44299999 0.13599998
vt 0.46680000 0.11659998
vt 0.46810001 0.13470000
vt 0.48339999 0.12019998
vt 0.11380000 0.68239999
vt 0.11640000 0.67809999
vt 0.84240001 0.62989998
vt 0.44430000 0.17369998
vt 0.42870000 0.11780000
vt 0.42930001 0.15020001
vt 0.44430000 0.17369998
vt 0.81910002 0.64320004
vt 0.40439999 0.07440001
vt 0.76190001 0.24409997
vt 0.81750000 0.63670003
vt 0.09769999 0.00959998
vt 0.80530000 0.27899998
vt 0.78219998 0.27389997
vt 0.78399998 0.25370002
vt 0.09969997 0.03170002
vt 0.55239999 0.58109999
vt 0.55180001 0.55630004
vt 0.55180001 0.52370000
vt 0.11110000 0.68070000
vt 0.38190001 0.14170003
vt 0.15539999 0.67850000
vt 0.83569998 0.93470001
vt 0.65930003 0.87059999
vt 0.66130000 0.93430001
vt 0.75999999 0.93620002
vt 0.56279999 0.93210000
vt 0.46450001 0.86010003
vt 0.46450001 0.92979997
vt 0.36610001 0.93210000
vt 0.26969999 0.87059999
vt 0.26769999 0.93430001
vt 0.09329998 0.93470001
vt 0.16900000 0.93620002
vt 0.80299997 0.29930001
vt 0.40470001 0.14150000
vt 0.42750001 0.13260001
vt 0.44209999 0.16320002
vt 0.44299999 0.13599998
vt 0.49050000 0.13209999
vt 0.44209999 0.16320002
vt 0.46810001 0.13470000
vt 0.44299999 0.13599998
vt 0.82260001 0.65279996
vt 0.43790001 0.18059999
vt 0.44479999 0.12510002
vt 0.42750001 0.07440001
vt 0.82069999 0.64810002
vt 0.38139999 0.07440001
vt 0.79869998 0.65450001
vt 0.11650000 0.01200002
vt 0.80530000 0.27899998
vt 0.80299997 0.29930001
vt 0.55430001 0.59060001
vt 0.55239999 0.58109999
vt 0.54629999 0.58109999
vt 0.10300000 0.68840003
vt 0.54530001 0.55630004
vt 0.55180001 0.52370000
vt 0.54530001 0.52370000
vt 0.55180001 0.55630004
vt 0.11380000 0.68239999
vt 0.38310000 0.67809999
vt 0.38190001 0.14170003
vt 0.38299999 0.68290001
vt 0.38180000 0.14660001
vt 0.15390000 0.68340003
vt 0.82249999 0.87349999
vt 0.83569998 0.93470001
vt 0.75199997 0.87550002
vt 0.56279999 0.86549997
vt 0.36610001 0.86549997
vt 0.10650000 0.87349999
vt 0.09329998 0.93470001
vt 0.17700000 0.87550002
vt 0.42750001 0.14969999
vt 0.42750001 0.13260001
vt 0.42750001 0.14969999
vt 0.44209999 0.16320002
vt 0.49280000 0.15240002
vt 0.49050000 0.13209999
vt 0.46970001 0.15750003
vt 0.44369999 0.20349997
vt 0.44490001 0.41500002
vt 0.47150001 0.12519997
vt 0.44369999 0.07440001
vt 0.42750001 0.07440001
vt 0.79949999 0.66710001
vt 0.79909998 0.66190004
vt 0.81910002 0.64320004
vt 0.80620003 0.26130003
vt 0.10730000 0.05390000
vt 0.55239999 0.58109999
vt 0.55180001 0.55630004
vt 0.54629999 0.58109999
vt 0.54920000 0.59060001
vt 0.10850000 0.69190001
vt 0.41020000 0.32450002
vt 0.41710001 0.35699999
vt 0.41710001 0.32450002
vt 0.41020000 0.35699999
vt 0.54629999 0.58109999
vt 0.11120000 0.68709999
vt 0.40470001 0.14150000
vt 0.15260001 0.68869996
vt 0.15390000 0.68340003
vt 0.73369998 0.82080007
vt 0.56279999 0.80089998
vt 0.36610001 0.80089998
vt 0.19520000 0.82080007
vt 0.40459999 0.14749998
vt 0.42750001 0.14969999
vt 0.42750001 0.15700001
vt 0.44209999 0.16320002
vt 0.47150001 0.17769998
vt 0.33019999 0.03170002
vt 0.46970001 0.15750003
vt 0.45249999 0.20420003
vt 0.45370001 0.41390002
vt 0.47270000 0.16869998
vt 0.79909998 0.66190004
vt 0.11700000 0.03299999
vt 0.78160000 0.67180002
vt 0.13920000 0.81990004
vt 0.11830000 0.04869998
vt 0.41119999 0.29960001
vt 0.41970000 0.29009998
vt 0.41429999 0.29009998
vt 0.41710001 0.35699999
vt 0.46120000 0.35699999
vt 0.41710001 0.32450002
vt 0.41119999 0.29960001
vt 0.38299999 0.68290001
vt 0.65469998 0.81080002
vt 0.46450001 0.79100001
vt 0.46450001 0.86010003
vt 0.56279999 0.80089998
vt 0.46450001 0.79100001
vt 0.36610001 0.80089998
vt 0.46450001 0.86010003
vt 0.27419999 0.81080002
vt 0.42750001 0.15700001
vt 0.42750001 0.15700001
vt 0.43650001 0.17309999
vt 0.44209999 0.16320002
vt 0.49280000 0.15240002
vt 0.44940001 0.18739998
vt 0.33219999 0.00959998
vt 0.58310002 0.63670003
vt 0.45690000 0.43750000
vt 0.45249999 0.20420003
vt 0.45370001 0.41390002
vt 0.47530001 0.19720000
vt 0.47650000 0.41479999
vt 0.80000001 0.67229998
vt 0.47090000 0.07440001
vt 0.49810001 0.16259998
vt 0.78160000 0.67180002
vt 0.13359991 0.03350002
vt 0.78160000 0.66409999
vt 0.13359991 0.01279998
vt 0.17239989 0.78009999
vt 0.13920000 0.81990004
vt 0.19520000 0.82080007
vt 0.41769999 0.29960001
vt 0.41710001 0.32450002
vt 0.46120000 0.35699999
vt 0.46140000 0.32450002
vt 0.41119999 0.29960001
vt 0.41710001 0.32450002
vt 0.41769999 0.29960001
vt 0.40580001 0.68250000
vt 0.40599999 0.68720001
vt 0.38310000 0.68809998
vt 0.78969997 0.81990004
vt 0.65030003 0.75590003
vt 0.65469998 0.81080002
vt 0.73369998 0.82080007
vt 0.56279999 0.80089998
vt 0.46450001 0.74010003
vt 0.46450001 0.79100001
vt 0.36610001 0.80089998
vt 0.27860001 0.75590003
vt 0.27419999 0.81080002
vt 0.19520000 0.82080007
vt 0.42870000 0.68050003
vt 0.40580001 0.68250000
vt 0.40599999 0.68720001
vt 0.56180000 0.62639999
vt 0.56480002 0.62239999
vt 0.55710000 0.60630000
vt 0.44200000 0.19389999
vt 0.58149999 0.64320004
vt 0.43650001 0.17309999
vt 0.49370000 0.17019999
vt 0.32260001 0.05390000
vt 0.31340000 0.01200002
vt 0.60189998 0.65450001
vt 0.44810000 0.43760002
vt 0.78160000 0.68250000
vt 0.49730000 0.07440001
vt 0.49750000 0.12230003
vt 0.78160000 0.67710000
vt 0.78160000 0.67719996
vt 0.76130003 0.66939998
vt 0.15400000 0.01289999
vt 0.21280000 0.77050006
vt 0.41769999 0.29960001
vt 0.46180001 0.29960001
vt 0.41970000 0.29009998
vt 0.15140000 0.69389999
vt 0.69489998 0.32179999
vt 0.38370001 0.69330001
vt 0.75650001 0.78009999
vt 0.73369998 0.82080007
vt 0.78969997 0.81990004
vt 0.71619999 0.77050006
vt 0.56279999 0.74180001
vt 0.36610001 0.74180001
vt 0.21280000 0.77050006
vt 0.42899999 0.68480003
vt 0.58149999 0.64320004
vt 0.55280000 0.60829997
vt 0.31160000 0.04869998
vt 0.31290001 0.03299999
vt 0.47900000 0.43830001
vt 0.44920000 0.45590001
vt 0.49970001 0.18800002
vt 0.50089997 0.41689998
vt 0.51169997 0.12029999
vt 0.76130003 0.68250000
vt 0.13169999 0.05430001
vt 0.76130003 0.67719996
vt 0.78160000 0.67180002
vt 0.76130003 0.66939998
vt 0.46270001 0.29009998
vt 0.69379997 0.35699999
vt 0.71619999 0.77050006
vt 0.27649999 0.05449998
vt 0.29820001 0.05430001
vt 0.29629999 0.03350002
vt 0.24750000 0.03359997
vt 0.24750000 0.05449998
vt 0.21500000 0.05460000
vt 0.18240000 0.05449998
vt 0.18240000 0.03359997
vt 0.15340000 0.05449998
vt 0.42899999 0.68480003
vt 0.40680000 0.69209999
vt 0.57999998 0.64810002
vt 0.54809999 0.60960001
vt 0.60149997 0.66190004
vt 0.58149999 0.64320004
vt 0.48010001 0.45599997
vt 0.50250000 0.43820000
vt 0.45800000 0.45670003
vt 0.76130003 0.68779999
vt 0.51310003 0.18239999
vt 0.51429999 0.41909999
vt 0.51200002 0.15880001
vt 0.76130003 0.68250000
vt 0.78160000 0.67180002
vt 0.76130003 0.67719996
vt 0.15390000 0.03350002
vt 0.15400000 0.01289999
vt 0.76130003 0.66939998
vt 0.73280001 0.68229997
vt 0.69499999 0.28539997
vt 0.69540000 0.29500002
vt 0.71689999 0.35699999
vt 0.27599999 0.03350002
vt 0.21500000 0.03359997
vt 0.42989999 0.68939996
vt 0.57800001 0.65279996
vt 0.60110003 0.66710001
vt 0.55820000 0.62989998
vt 0.60149997 0.66190004
vt 0.61900002 0.67180002
vt 0.29629999 0.01279998
vt 0.61900002 0.66409999
vt 0.61900002 0.66400003
vt 0.45820001 0.47610003
vt 0.73280001 0.69290000
vt 0.44929999 0.47630000
vt 0.51169997 0.07440001
vt 0.51870000 0.15520000
vt 0.38029999 0.27620000
vt 0.73280001 0.68229997
vt 0.18250000 0.01300001
vt 0.73280001 0.67460001
vt 0.18240000 0.01289999
vt 0.73280001 0.68229997
vt 0.71799999 0.31770003
vt 0.71859998 0.29240000
vt 0.71810001 0.28250003
vt 0.27590001 0.01289999
vt 0.21500000 0.01289999
vt 0.70029998 0.67550004
vt 0.74169999 0.28119999
vt 0.74110001 0.27109998
vt 0.75680000 0.25770003
vt 0.75029999 0.25080001
vt 0.61900002 0.67180002
vt 0.27590001 0.01289999
vt 0.63929999 0.66939998
vt 0.50319999 0.45670003
vt 0.45820001 0.47610003
vt 0.44929999 0.50470001
vt 0.73280001 0.69290000
vt 0.76130003 0.68250000
vt 0.73280001 0.68760002
vt 0.51169997 0.07440001
vt 0.51169997 0.12029999
vt 0.51849997 0.07440001
vt 0.51539999 0.43849999
vt 0.51849997 0.11839998
vt 0.39070001 0.31300002
vt 0.73280001 0.68229997
vt 0.73989999 0.35699999
vt 0.27590001 0.01289999
vt 0.63929999 0.66939998
vt 0.24750000 0.01289999
vt 0.66780001 0.67460001
vt 0.60060000 0.67229998
vt 0.75620002 0.22799999
vt 0.44490001 0.65960002
vt 0.61900002 0.67710000
vt 0.61900002 0.67719996
vt 0.63929999 0.67719996
vt 0.50520003 0.47600001
vt 0.51580000 0.45590001
vt 0.48040000 0.47539997
vt 0.45809999 0.50310004
vt 0.70029998 0.68860000
vt 0.51849997 0.07440001
vt 0.39840001 0.35699999
vt 0.52139997 0.43900001
vt 0.51940000 0.17760003
vt 0.52060002 0.42089999
vt 0.36440000 0.25379997
vt 0.38659999 0.31580001
vt 0.70029998 0.68330002
vt 0.73280001 0.68229997
vt 0.70029998 0.67550004
vt 0.74110001 0.31360000
vt 0.66780001 0.68229997
vt 0.75680000 0.25770003
vt 0.74169999 0.28119999
vt 0.44810000 0.63699996
vt 0.45690000 0.63709998
vt 0.61900002 0.68250000
vt 0.76490003 0.22719997
vt 0.45370001 0.66069996
vt 0.63929999 0.67719996
vt 0.63929999 0.68250000
vt 0.66780001 0.68229997
vt 0.48030001 0.50160003
vt 0.45809999 0.53729999
vt 0.45809999 0.50310004
vt 0.70029998 0.69389999
vt 0.73280001 0.69290000
vt 0.70029998 0.68860000
vt 0.36350000 0.26020002
vt 0.37819999 0.28130001
vt 0.70029998 0.68860000
vt 0.73280001 0.68229997
vt 0.70029998 0.68330002
vt 0.66780001 0.68229997
vt 0.75620002 0.35699999
vt 0.75730002 0.30629998
vt 0.44920000 0.61860001
vt 0.78780001 0.23430002
vt 0.47650000 0.65970004
vt 0.76490003 0.22719997
vt 0.45370001 0.66069996
vt 0.63929999 0.68779999
vt 0.66780001 0.68229997
vt 0.66780001 0.68760002
vt 0.51599997 0.47619998
vt 0.30919999 0.22210002
vt 0.45809999 0.53729999
vt 0.44929999 0.53729999
vt 0.66780001 0.69290000
vt 0.39199999 0.35699999
vt 0.52160001 0.45590001
vt 0.34639999 0.24110001
vt 0.36770001 0.27740002
vt 0.38659999 0.31580001
vt 0.66780001 0.68229997
vt 0.78390002 0.30620003
vt 0.45800000 0.61780000
vt 0.78520000 0.26279998
vt 0.66780001 0.69290000
vt 0.44929999 0.59829998
vt 0.45820001 0.59850001
vt 0.66780001 0.69290000
vt 0.70029998 0.68860000
vt 0.51609999 0.50470001
vt 0.28070000 0.21700001
vt 0.52170002 0.47619998
vt 0.30919999 0.22780001
vt 0.50349998 0.50310004
vt 0.48010001 0.53729999
vt 0.44929999 0.56980002
vt 0.37740001 0.35699999
vt 0.39199999 0.35699999
vt 0.32949999 0.23320001
vt 0.32949999 0.24030000
vt 0.34619999 0.24809998
vt 0.37480000 0.31809998
vt 0.48010001 0.61860001
vt 0.47900000 0.63620001
vt 0.81059998 0.26880002
vt 0.50349998 0.53729999
vt 0.48030001 0.57300001
vt 0.45809999 0.57139999
vt 0.30919999 0.22780001
vt 0.34610000 0.25580001
vt 0.36309999 0.26740003
vt 0.34779999 0.31849998
vt 0.34797889 0.31858093
vt 0.78329998 0.35699999
vt 0.45820001 0.59850001
vt 0.50250000 0.63639998
vt 0.81220001 0.24339998
vt 0.50089997 0.65759999
vt 0.28070000 0.22270000
vt 0.45809999 0.57139999
vt 0.30919999 0.23500001
vt 0.34680000 0.27999997
vt 0.34695470 0.28004318
vt 0.80980003 0.35699999
vt 0.81000000 0.30919999
vt 0.48040000 0.59909999
vt 0.82550001 0.24910003
vt 0.51429999 0.65540004
vt 0.24810000 0.22170001
vt 0.28070000 0.22270000
vt 0.28070000 0.22979999
vt 0.30919999 0.22780001
vt 0.51609999 0.53729999
vt 0.24810000 0.21600002
vt 0.50349998 0.57150000
vt 0.34880000 0.35699999
vt 0.34900299 0.35707623
vt 0.28070000 0.22979999
vt 0.30919999 0.24280000
vt 0.32949999 0.24820000
vt 0.14695179 0.35685122
vt 0.14730000 0.35699999
vt 0.14793320 0.31835818
vt 0.14839999 0.31849998
vt 0.14895730 0.27982271
vt 0.14939991 0.27999997
vt 0.31349999 0.27890003
vt 0.18241210 0.27875412
vt 0.18269999 0.27890003
vt 0.28060001 0.27780002
vt 0.21531209 0.27772731
vt 0.21549989 0.27780002
vt 0.24795599 0.27670032
vt 0.24810000 0.27670002
vt 0.82410002 0.31110001
vt 0.50520003 0.59850001
vt 0.50319999 0.61790001
vt 0.82450002 0.27260000
vt 0.24810000 0.22170001
vt 0.24810000 0.22170001
vt 0.51609999 0.56990004
vt 0.21549989 0.21700001
vt 0.30919999 0.24280000
vt 0.28070000 0.23769999
vt 0.21549989 0.23769999
vt 0.18700001 0.24280000
vt 0.16670001 0.24820000
vt 0.12850000 0.27740002
vt 0.11870000 0.35699999
vt 0.51580000 0.61870003
vt 0.51539999 0.63600004
vt 0.83120000 0.27620000
vt 0.11590000 0.27620000
vt 0.24810000 0.22170001
vt 0.24810000 0.22890002
vt 0.24810000 0.22880000
vt 0.28070000 0.22979999
vt 0.28070000 0.22979999
vt 0.24810000 0.23670000
vt 0.15009990 0.25580001
vt 0.13310000 0.26740003
vt 0.12130000 0.31809998
vt 0.82410002 0.35699999
vt 0.52139997 0.63559997
vt 0.83190000 0.25379997
vt 0.52060002 0.65359998
vt 0.13179991 0.25379997
vt 0.21549989 0.22270000
vt 0.21549989 0.22979999
vt 0.24810000 0.23670000
vt 0.21549989 0.22270000
vt 0.24810000 0.22170001
vt 0.51599997 0.59829998
vt 0.18700001 0.22210002
vt 0.21549989 0.22979999
vt 0.16670001 0.24030000
vt 0.13259999 0.26020002
vt 0.10960000 0.31580001
vt 0.82410002 0.31110001
vt 0.82410002 0.35699999
vt 0.83099997 0.35699999
vt 0.83099997 0.31300002
vt 0.10540000 0.31300002
vt 0.18700001 0.22780001
vt 0.18700001 0.22780001
vt 0.52170002 0.59829998
vt 0.21549989 0.22979999
vt 0.18700001 0.23500001
vt 0.18700001 0.24280000
vt 0.15000001 0.24809998
vt 0.11800000 0.28130001
vt 0.10420000 0.35699999
vt 0.83099997 0.35699999
vt 0.09769999 0.35699999
vt 0.10960000 0.31580001
vt 0.52160001 0.61870003
vt 0.14980000 0.24110001
vt 0.18700001 0.22780001
vt 0.10420000 0.35699999
vt 0.16670001 0.23320001
f 1/1 2/2 3/3
f 4/4 5/5 6/6
f 7/7 8/8 9/9
f 10/10 11/11 12/12
f 13/13 14/14 11/11
f 15/15 16/16 17/17
f 10/10 12/12 18/18
f 8/8 19/19 9/9
f 10/10 20/20 11/11
f 13/13 21/21 14/14
f 20/20 13/13 11/11
f 16/16 22/22 17/17
f 23/23 10/10 18/18
f 8/8 24/24 19/19
f 9/9 19/19 25/25
f 26/26 27/27 28/28
f 13/13 29/29 21/21
f 26/26 30/30 27/27
f 16/16 31/31 22/22
f 32/32 33/33 35/35
f 23/23 18/18 36/36
f 38/38 28/28 39/39
f 19/19 24/24 25/25
f 9/9 25/25 40/40
f 41/41 26/26 28/28
f 30/30 42/42 43/43
f 29/29 44/44 21/21
f 26/26 46/46 30/30
f 35/35 34/34 47/47
f 16/16 49/49 31/31
f 38/38 39/39 50/50
f 18/18 51/51 36/36
f 38/38 41/41 28/28
f 24/24 53/53 25/25
f 40/40 25/25 54/54
f 55/55 26/26 41/41
f 42/42 56/56 43/43
f 46/46 42/42 30/30
f 21/21 44/44 58/58
f 26/26 60/60 46/46
f 35/35 47/47 61/61
f 49/49 64/64 31/31
f 64/64 49/49 66/66
f 38/38 50/50 68/68
f 37/37 52/52 69/69
f 55/55 41/41 38/38
f 35/35 70/70 73/73
f 25/25 53/53 74/74
f 25/25 74/74 54/54
f 40/40 54/54 75/75
f 55/55 76/76 26/26
f 42/42 77/77 56/56
f 60/60 42/42 46/46
f 80/80 45/45 82/82
f 45/45 80/80 59/59
f 76/76 60/60 26/26
f 83/83 48/48 86/86
f 48/48 83/83 62/62
f 35/35 61/61 70/70
f 88/88 65/65 67/67
f 68/68 50/50 89/89
f 90/90 38/38 68/68
f 37/37 69/69 91/91
f 92/92 55/55 38/38
f 73/73 70/70 93/93
f 54/54 74/74 94/94
f 75/75 54/54 95/95
f 96/96 97/97 98/98
f 42/42 99/99 77/77
f 101/101 78/78 102/102
f 78/78 101/101 57/57
f 60/60 104/104 42/42
f 81/81 82/82 105/105
f 106/106 107/107 108/108
f 84/84 87/87 109/109
f 110/110 63/63 85/85
f 63/63 110/110 70/70
f 88/88 114/114 65/65
f 90/90 68/68 89/89
f 89/89 50/50 115/115
f 92/92 38/38 90/90
f 91/91 69/69 116/116
f 117/117 118/118 119/119
f 93/93 71/71 120/120
f 93/93 120/120 123/123
f 54/54 94/94 95/95
f 75/75 95/95 124/124
f 96/96 98/98 125/125
f 103/103 100/100 126/126
f 100/100 103/103 79/79
f 104/104 99/99 42/42
f 101/101 102/102 128/128
f 129/129 130/130 131/131
f 82/82 132/132 105/105
f 108/108 107/107 133/133
f 111/111 84/84 109/109
f 87/87 134/134 109/109
f 135/135 72/72 112/112
f 72/72 135/135 138/138
f 72/72 138/138 140/140
f 72/72 140/140 144/144
f 72/72 144/144 121/121
f 121/121 144/144 147/147
f 88/88 149/149 114/114
f 90/90 89/89 150/150
f 151/151 152/152 153/153
f 119/119 118/118 154/154
f 91/91 116/116 155/155
f 156/156 117/117 119/119
f 123/123 120/120 157/157
f 95/95 94/94 158/158
f 159/159 160/160 161/161
f 162/162 163/163 164/164
f 102/102 127/127 128/128
f 165/165 167/167 169/169
f 167/167 165/165 171/171
f 131/131 130/130 172/172
f 101/101 128/128 173/173
f 129/129 174/174 130/130
f 105/105 132/132 175/175
f 176/176 177/177 178/178
f 111/111 109/109 179/179
f 134/134 180/180 109/109
f 141/141 139/139 181/181
f 145/145 142/142 182/182
f 148/148 146/146 183/183
f 157/157 122/122 148/148
f 136/136 113/113 184/184
f 139/139 137/137 185/185
f 186/186 149/149 88/88
f 150/150 89/89 187/187
f 154/154 188/188 189/189
f 151/151 153/153 190/190
f 119/119 154/154 191/191
f 192/192 159/159 161/161
f 193/193 156/156 119/119
f 95/95 158/158 194/194
f 195/195 196/196 197/197
f 198/198 199/199 200/200
f 127/127 201/201 128/128
f 172/172 130/130 168/168
f 202/202 204/204 206/206
f 204/204 202/202 207/207
f 166/166 170/170 209/209
f 173/173 128/128 210/210
f 174/174 211/211 130/130
f 105/105 175/175 212/212
f 213/213 214/214 215/215
f 216/216 217/217 218/218
f 111/111 179/179 184/184
f 219/219 221/221 216/216
f 181/181 139/139 223/223
f 224/224 143/143 181/181
f 182/182 143/143 225/225
f 226/226 145/145 182/182
f 183/183 145/145 227/227
f 148/148 183/183 228/228
f 157/157 148/148 229/229
f 136/136 184/184 230/230
f 136/136 230/230 185/185
f 139/139 185/185 231/231
f 232/232 233/233 234/234
f 150/150 187/187 235/235
f 188/188 236/236 189/189
f 154/154 189/189 191/191
f 237/237 238/238 239/239
f 119/119 191/191 240/240
f 241/241 242/242 243/243
f 193/193 119/119 244/244
f 158/158 245/245 194/194
f 246/246 247/247 248/248
f 249/249 200/200 250/250
f 200/200 249/249 198/198
f 166/166 209/209 251/251
f 128/128 201/201 252/252
f 130/130 205/205 208/208
f 203/203 206/206 209/209
f 206/206 253/253 255/255
f 253/253 206/206 204/204
f 128/128 256/256 210/210
f 130/130 211/211 257/257
f 212/212 175/175 258/258
f 215/215 259/259 260/260
f 259/259 215/215 214/214
f 217/217 261/261 218/218
f 222/222 217/217 216/216
f 220/220 262/262 222/222
f 223/223 139/139 263/263
f 264/264 265/265 266/266
f 267/267 268/268 265/265
f 269/269 270/270 271/271
f 272/272 273/273 270/270
f 274/274 275/275 276/276
f 277/277 278/278 275/275
f 279/279 148/148 228/228
f 229/229 148/148 279/279
f 158/158 280/280 245/245
f 281/281 282/282 261/261
f 282/282 283/283 284/284
f 284/284 285/285 286/286
f 139/139 231/231 263/263
f 287/287 288/288 289/289
f 237/237 290/290 238/238
f 188/188 291/291 236/236
f 189/189 236/236 292/292
f 191/191 189/189 293/293
f 237/237 239/239 294/294
f 240/240 191/191 293/293
f 244/244 119/119 240/240
f 295/295 297/297 298/298
f 193/193 244/244 299/299
f 246/246 248/248 300/300
f 301/301 302/302 303/303
f 251/251 209/209 304/304
f 128/128 252/252 256/256
f 130/130 257/257 205/205
f 209/209 206/206 305/305
f 205/205 306/306 254/254
f 306/306 205/205 257/257
f 305/305 255/255 307/307
f 255/255 305/305 206/206
f 210/210 256/256 308/308
f 257/257 309/309 306/306
f 309/309 257/257 211/211
f 258/258 175/175 310/310
f 217/217 281/281 261/261
f 262/262 217/217 222/222
f 311/311 262/262 220/220
f 264/264 266/266 312/312
f 313/313 265/265 264/264
f 267/267 265/265 313/313
f 314/314 270/270 269/269
f 314/314 272/272 270/270
f 274/274 315/315 275/275
f 277/277 316/316 278/278
f 315/315 277/277 275/275
f 317/317 318/318 319/319
f 281/281 283/283 282/282
f 283/283 320/320 284/284
f 321/321 322/322 323/323
f 284/284 320/320 285/285
f 258/258 324/324 325/325
f 326/326 290/290 237/237
f 291/291 327/327 236/236
f 328/328 329/329 330/330
f 293/293 189/189 292/292
f 331/331 237/237 294/294
f 240/240 293/293 332/332
f 299/299 244/244 240/240
f 295/295 298/298 333/333
f 248/248 336/336 300/300
f 298/298 337/337 338/338
f 304/304 209/209 340/340
f 256/256 252/252 308/308
f 209/209 305/305 341/341
f 341/341 307/307 342/342
f 307/307 341/341 305/305
f 210/210 308/308 343/343
f 258/258 310/310 324/324
f 344/344 281/281 217/217
f 262/262 344/344 217/217
f 325/325 324/324 345/345
f 346/346 264/264 312/312
f 347/347 348/348 349/349
f 347/347 350/350 348/348
f 351/351 352/352 350/350
f 351/351 353/353 352/352
f 354/354 355/355 353/353
f 356/356 316/316 277/277
f 354/354 357/357 355/355
f 319/319 318/318 358/358
f 359/359 283/283 281/281
f 360/360 361/361 362/362
f 322/322 363/363 323/323
f 364/364 365/365 366/366
f 367/367 326/326 237/237
f 291/291 368/368 327/327
f 328/328 330/330 369/369
f 293/293 292/292 370/370
f 371/371 237/237 331/331
f 332/332 293/293 370/370
f 372/372 240/240 332/332
f 299/299 240/240 372/372
f 298/298 338/338 333/333
f 373/373 296/296 334/334
f 337/337 375/375 338/338
f 248/248 376/376 336/336
f 209/209 341/341 340/340
f 377/377 378/378 379/379
f 252/252 380/380 308/308
f 381/381 382/382 383/383
f 382/382 381/381 384/384
f 343/343 308/308 385/385
f 344/344 359/359 281/281
f 386/386 345/345 388/388
f 345/345 324/324 390/390
f 391/391 349/349 392/392
f 347/347 349/349 393/393
f 394/394 350/350 347/347
f 351/351 350/350 394/394
f 351/351 395/395 353/353
f 395/395 354/354 353/353
f 396/396 397/397 357/357
f 354/354 398/398 357/357
f 359/359 399/399 283/283
f 400/400 401/401 402/402
f 365/365 403/403 404/404
f 364/364 405/405 365/365
f 368/368 406/406 327/327
f 367/367 237/237 371/371
f 330/330 408/408 369/369
f 328/328 369/369 409/409
f 410/410 328/328 409/409
f 411/411 371/371 331/331
f 335/335 339/339 374/374
f 412/412 413/413 373/373
f 338/338 375/375 414/414
f 416/416 417/417 418/418
f 377/377 379/379 419/419
f 308/308 380/380 420/420
f 421/421 422/422 423/423
f 422/422 421/421 424/424
f 425/425 384/384 381/381
f 385/385 308/308 426/426
f 387/387 389/389 427/427
f 345/345 390/390 388/388
f 385/385 428/428 429/429
f 391/391 393/393 349/349
f 430/430 347/347 393/393
f 431/431 394/394 347/347
f 431/431 351/351 394/394
f 432/432 395/395 351/351
f 432/432 354/354 395/395
f 396/396 357/357 398/398
f 433/433 398/398 354/354
f 434/434 435/435 427/427
f 401/401 436/436 402/402
f 365/365 405/405 403/403
f 437/437 438/438 440/440
f 406/406 441/441 327/327
f 411/411 367/367 371/371
f 409/409 369/369 408/408
f 330/330 443/443 408/408
f 411/411 331/331 444/444
f 339/339 445/445 374/374
f 446/446 412/412 373/373
f 447/447 396/396 433/433
f 339/339 415/415 448/448
f 449/449 450/450 451/451
f 308/308 420/420 426/426
f 452/452 453/453 454/454
f 421/421 423/423 455/455
f 385/385 426/426 428/428
f 389/389 434/434 427/427
f 456/456 429/429 428/428
f 430/430 393/393 391/391
f 457/457 347/347 430/430
f 431/431 347/347 457/457
f 458/458 459/459 460/460
f 461/461 462/462 463/463
f 432/432 464/464 354/354
f 433/433 396/396 398/398
f 464/464 433/433 354/354
f 434/434 465/465 435/435
f 466/466 467/467 468/468
f 440/440 438/438 469/469
f 437/437 470/470 438/438
f 442/442 407/407 473/473
f 330/330 474/474 476/476
f 478/478 367/367 411/411
f 409/409 408/408 479/479
f 330/330 476/476 443/443
f 408/408 443/443 480/480
f 481/481 411/411 444/444
f 339/339 448/448 445/445
f 374/374 445/445 482/482
f 446/446 373/373 483/483
f 485/485 486/486 487/487
f 449/449 488/488 450/450
f 426/426 420/420 428/428
f 489/489 490/490 491/491
f 492/492 493/493 494/494
f 495/495 456/456 496/496
f 456/456 428/428 497/497
f 498/498 430/430 391/391
f 499/499 500/500 501/501
f 499/499 502/502 500/500
f 503/503 504/504 502/502
f 503/503 505/505 504/504
f 506/506 507/507 505/505
f 506/506 508/508 507/507
f 509/509 510/510 511/511
f 512/512 513/513 514/514
f 515/515 437/437 517/517
f 438/438 518/518 469/469
f 515/515 470/470 437/437
f 471/471 520/520 439/439
f 475/475 473/473 477/477
f 407/407 522/522 473/473
f 523/523 478/478 411/411
f 479/479 408/408 524/524
f 443/443 476/476 480/480
f 408/408 480/480 525/525
f 526/526 411/411 481/481
f 445/445 448/448 482/482
f 374/374 482/482 484/484
f 446/446 483/483 528/528
f 530/530 485/485 487/487
f 531/531 532/532 533/533
f 428/428 420/420 534/534
f 490/490 535/535 491/491
f 489/489 491/491 532/532
f 489/489 532/532 531/531
f 456/456 497/497 496/496
f 497/497 428/428 536/536
f 537/537 538/538 539/539
f 499/499 501/501 540/540
f 541/541 502/502 499/499
f 503/503 502/502 541/541
f 503/503 542/542 505/505
f 542/542 506/506 505/505
f 506/506 543/543 508/508
f 509/509 511/511 544/544
f 545/545 513/513 512/512
f 512/512 514/514 546/546
f 547/547 519/519 439/439
f 521/521 472/472 516/516
f 548/548 439/439 520/520
f 477/477 473/473 549/549
f 473/473 522/522 550/550
f 523/523 411/411 526/526
f 408/408 525/525 524/524
f 476/476 551/551 480/480
f 525/525 480/480 553/553
f 554/554 526/526 481/481
f 448/448 555/555 482/482
f 482/482 529/529 484/484
f 556/556 557/557 558/558
f 533/533 532/532 559/559
f 428/428 534/534 536/536
f 491/491 535/535 532/532
f 490/490 560/560 535/535
f 496/496 497/497 536/536
f 561/561 538/538 537/537
f 562/562 563/563 564/564
f 565/565 566/566 562/562
f 567/567 566/566 565/565
f 568/568 567/567 569/569
f 570/570 568/568 569/569
f 555/555 570/570 482/482
f 571/571 496/496 572/572
f 573/573 545/545 512/512
f 512/512 546/546 574/574
f 547/547 439/439 548/548
f 575/575 521/521 576/576
f 564/564 548/548 520/520
f 473/473 577/577 549/549
f 477/477 549/549 578/578
f 473/473 550/550 579/579
f 554/554 523/523 527/527
f 523/523 554/554 580/580
f 524/524 525/525 553/553
f 477/477 578/578 552/552
f 480/480 551/551 581/581
f 480/480 583/583 553/553
f 584/584 585/585 586/586
f 482/482 587/587 588/588
f 590/590 556/556 558/558
f 532/532 591/591 559/559
f 532/532 535/535 592/592
f 560/560 593/593 535/535
f 496/496 536/536 572/572
f 564/564 563/563 547/547
f 594/594 562/562 564/564
f 565/565 562/562 594/594
f 567/567 565/565 595/595
f 569/569 567/567 595/595
f 570/570 569/569 587/587
f 482/482 570/570 587/587
f 571/571 572/572 596/596
f 597/597 573/573 512/512
f 598/598 545/545 573/573
f 599/599 512/512 574/574
f 564/564 547/547 548/548
f 598/598 600/600 545/545
f 601/601 521/521 575/575
f 564/564 520/520 602/602
f 578/578 549/549 577/577
f 473/473 579/579 577/577
f 550/550 605/605 579/579
f 606/606 580/580 554/554
f 550/550 607/607 605/605
f 524/524 553/553 608/608
f 552/552 578/578 582/582
f 480/480 581/581 583/583
f 553/553 583/583 609/609
f 584/584 586/586 611/611
f 588/588 569/569 612/612
f 569/569 588/588 587/587
f 615/615 589/589 613/613
f 532/532 592/592 591/591
f 535/535 616/616 592/592
f 535/535 593/593 616/616
f 591/591 617/617 618/618
f 619/619 594/594 564/564
f 565/565 594/594 619/619
f 595/595 565/565 620/620
f 569/569 595/595 620/620
f 618/618 622/622 623/623
f 598/598 573/573 597/597
f 597/597 512/512 599/599
f 623/623 624/624 625/625
f 626/626 600/600 598/598
f 601/601 603/603 521/521
f 627/627 564/564 602/602
f 578/578 577/577 629/629
f 577/577 579/579 630/630
f 605/605 607/607 631/631
f 632/632 633/633 634/634
f 635/635 636/636 637/637
f 582/582 578/578 638/638
f 583/583 581/581 609/609
f 553/553 609/609 639/639
f 634/634 633/633 641/641
f 569/569 620/620 614/614
f 615/615 613/613 621/621
f 591/591 592/592 617/617
f 592/592 616/616 617/617
f 593/593 642/642 616/616
f 618/618 617/617 622/622
f 565/565 643/643 645/645
f 620/620 565/565 645/645
f 623/623 622/622 624/624
f 647/647 598/598 597/597
f 625/625 624/624 648/648
f 650/650 626/626 598/598
f 601/601 628/628 604/604
f 628/628 601/601 652/652
f 577/577 653/653 629/629
f 578/578 629/629 654/654
f 577/577 630/630 655/655
f 605/605 631/631 656/656
f 632/632 634/634 657/657
f 553/553 639/639 658/658
f 578/578 654/654 638/638
f 582/582 638/638 660/660
f 581/581 661/661 609/609
f 610/610 664/664 640/640
f 657/657 634/634 641/641
f 665/665 666/666 667/667
f 616/616 668/668 617/617
f 616/616 642/642 668/668
f 617/617 668/668 622/622
f 669/669 646/646 644/644
f 669/669 621/621 646/646
f 668/668 670/670 671/671
f 672/672 649/649 673/673
f 674/674 598/598 647/647
f 648/648 624/624 675/675
f 674/674 650/650 598/598
f 650/650 677/677 626/626
f 677/677 650/650 678/678
f 679/679 628/628 652/652
f 654/654 629/629 653/653
f 577/577 655/655 653/653
f 655/655 630/630 680/680
f 656/656 631/631 681/681
f 630/630 682/682 680/680
f 683/683 684/684 685/685
f 640/640 664/664 659/659
f 638/638 654/654 660/660
f 582/582 660/660 662/662
f 663/663 686/686 610/610
f 610/610 687/687 664/664
f 688/688 689/689 690/690
f 665/665 667/667 691/691
f 642/642 692/692 668/668
f 668/668 693/693 670/670
f 694/694 672/672 673/673
f 673/673 649/649 676/676
f 670/670 695/695 697/697
f 674/674 678/678 651/651
f 678/678 674/674 699/699
f 678/678 700/700 677/677
f 700/700 678/678 701/701
f 654/654 653/653 702/702
f 655/655 680/680 653/653
f 680/680 682/682 704/704
f 631/631 705/705 681/681
f 683/683 685/685 706/706
f 664/664 707/707 659/659
f 660/660 654/654 708/708
f 709/709 686/686 663/663
f 686/686 687/687 610/610
f 710/710 711/711 687/687
f 688/688 690/690 712/712
f 668/668 692/692 693/693
f 670/670 693/693 713/713
f 714/714 694/694 673/673
f 673/673 698/698 696/696
f 670/670 715/715 695/695
f 716/716 678/678 699/699
f 717/717 694/694 718/718
f 719/719 701/701 678/678
f 720/720 700/700 701/701
f 653/653 721/721 702/702
f 702/702 723/723 654/654
f 653/653 680/680 725/725
f 680/680 704/704 726/726
f 681/681 705/705 727/727
f 719/719 720/720 701/701
f 711/711 728/728 729/729
f 708/708 654/654 723/723
f 730/730 731/731 709/709
f 709/709 732/732 686/686
f 686/686 710/710 687/687
f 710/710 733/733 711/711
f 692/692 713/713 693/693
f 670/670 713/713 715/715
f 714/714 673/673 734/734
f 718/718 694/694 714/714
f 735/735 673/673 696/696
f 715/715 736/736 695/695
f 727/727 717/717 718/718
f 722/722 724/724 703/703
f 653/653 725/725 721/721
f 680/680 737/737 725/725
f 726/726 704/704 738/738
f 680/680 726/726 737/737
f 681/681 727/727 739/739
f 711/711 733/733 728/728
f 740/740 731/731 730/730
f 731/731 732/732 709/709
f 732/732 741/741 686/686
f 686/686 742/742 710/710
f 710/710 743/743 733/733
f 692/692 745/745 713/713
f 713/713 736/736 715/715
f 746/746 714/714 734/734
f 734/734 673/673 735/735
f 735/735 696/696 747/747
f 695/695 736/736 748/748
f 727/727 718/718 739/739
f 722/722 750/750 724/724
f 725/725 737/737 721/721
f 737/737 726/726 738/738
f 704/704 751/751 738/738
f 733/733 743/743 728/728
f 740/740 752/752 731/731
f 731/731 741/741 732/732
f 741/741 742/742 686/686
f 742/742 753/753 710/710
f 710/710 753/753 743/743
f 745/745 755/755 713/713
f 713/713 756/756 736/736
f 746/746 734/734 757/757
f 734/734 735/735 747/747
f 747/747 696/696 749/749
f 736/736 758/758 748/748
f 751/751 746/746 738/738
f 722/722 760/760 750/750
f 761/761 762/762 763/763
f 721/721 737/737 764/764
f 737/737 738/738 766/766
f 743/743 767/767 728/728
f 740/740 769/769 752/752
f 752/752 770/770 731/731
f 731/731 771/771 741/741
f 741/741 753/753 742/742
f 744/744 772/772 768/768
f 772/772 744/744 774/774
f 774/774 744/744 754/754
f 774/774 754/754 776/776
f 776/776 754/754 778/778
f 776/776 778/778 779/779
f 779/779 778/778 781/781
f 779/779 781/781 782/782
f 782/782 781/781 784/784
f 713/713 755/755 756/756
f 756/756 786/786 736/736
f 787/787 757/757 734/734
f 738/738 746/746 757/757
f 788/788 734/734 747/747
f 747/747 749/749 759/759
f 736/736 789/789 758/758
f 790/790 762/762 761/761
f 765/765 791/791 722/722
f 764/764 737/737 792/792
f 766/766 738/738 787/787
f 737/737 766/766 792/792
f 769/769 770/770 752/752
f 731/731 794/794 771/771
f 771/771 753/753 741/741
f 771/771 778/778 753/753
f 794/794 781/781 778/778
f 795/795 785/785 781/781
f 796/796 783/783 785/785
f 797/797 780/780 783/783
f 798/798 777/777 780/780
f 799/799 775/775 777/777
f 775/775 800/800 773/773
f 755/755 786/786 756/756
f 736/736 786/786 789/789
f 738/738 757/757 787/787
f 787/787 734/734 788/788
f 788/788 747/747 801/801
f 802/802 747/747 759/759
f 789/789 803/803 758/758
f 805/805 806/806 808/808
f 765/765 793/793 791/791
f 792/792 766/766 787/787
f 809/809 795/795 794/794
f 794/794 778/778 771/771
f 795/795 781/781 794/794
f 810/810 785/785 795/795
f 796/796 797/797 783/783
f 810/810 796/796 785/785
f 797/797 798/798 780/780
f 798/798 811/811 777/777
f 812/812 799/799 777/777
f 799/799 813/813 775/775
f 813/813 800/800 775/775
f 755/755 814/814 786/786
f 786/786 803/803 789/789
f 787/787 788/788 801/801
f 801/801 747/747 802/802
f 815/815 802/802 759/759
f 758/758 803/803 816/816
f 807/807 819/819 820/820
f 819/819 807/807 805/805
f 806/806 821/821 808/808
f 793/793 822/822 823/823
f 792/792 787/787 824/824
f 809/809 810/810 795/795
f 826/826 797/797 796/796
f 826/826 796/796 810/810
f 827/827 798/798 797/797
f 811/811 812/812 777/777
f 827/827 811/811 798/798
f 828/828 799/799 812/812
f 799/799 829/829 813/813
f 829/829 800/800 813/813
f 830/830 831/831 832/832
f 786/786 833/833 803/803
f 824/824 787/787 801/801
f 801/801 802/802 815/815
f 815/815 759/759 817/817
f 818/818 804/804 828/828
f 819/819 835/835 820/820
f 806/806 820/820 821/821
f 793/793 836/836 822/822
f 793/793 825/825 836/836
f 838/838 839/839 840/840
f 839/839 827/827 840/840
f 811/811 828/828 812/812
f 827/827 841/841 811/811
f 828/828 842/842 799/799
f 799/799 842/842 829/829
f 829/829 843/843 800/800
f 786/786 844/844 833/833
f 804/804 834/834 846/846
f 824/824 801/801 837/837
f 847/847 801/801 815/815
f 848/848 818/818 828/828
f 828/828 804/804 842/842
f 849/849 839/839 838/838
f 849/849 827/827 839/839
f 841/841 828/828 811/811
f 827/827 848/848 841/841
f 804/804 846/846 842/842
f 846/846 845/845 850/850
f 834/834 845/845 846/846
f 837/837 801/801 847/847
f 851/851 848/848 827/827
f 848/848 828/828 841/841
f 849/849 851/851 827/827

