# https://github.com/mikedh/trimesh
v 2.29384442 0.41909998 -1.62702412
v 2.29384212 0.30863034 -1.62705488
v 2.29397421 0.41921867 -0.47272582
v 2.29369118 0.41904569 -0.34214387
v 2.29357446 0.29862595 -1.62723195
v 2.29374990 0.29858980 -0.34218326
v 2.29387591 0.30880418 -1.62710887
v 2.29398109 0.41904107 -0.44249468
v 2.29393009 0.41912470 -0.47273020
v 2.29372904 1.32254422 -0.34212310
v 2.29371935 0.41909130 -0.44255094
v 2.29389014 0.41913799 -0.34210927
v 2.29375854 1.32258037 -0.44244704
v 2.29399507 3.46068864 -0.34198059
v 2.29397882 2.79836152 -0.44250427
v 2.29379599 2.41696801 -0.34193142
v 2.29402902 3.94283041 -0.44249403
v 2.29369747 3.51102307 -0.34207504
v 2.29368865 4.98673694 -0.34210000
v 2.29390724 3.94255511 -1.46654855
v 2.29378249 1.32246578 -0.44234180
v 2.29377594 1.32263088 -0.34217583
v 2.29400499 1.32274028 -1.62702475
v 2.29358784 2.79828210 -1.46640054
v 2.29394116 4.98662536 -1.62689324
v 2.29368512 4.98662055 -0.34204435
v 1.97259574 4.98691399 -1.62707318
v 2.29376082 4.98665183 -1.62721414
v 1.97244959 4.98676286 -1.46641145
v 1.97273293 4.98661030 -0.44234734
v 1.97255868 4.98686685 -0.34219502
v 2.29374955 3.46085485 -0.55284474
v 2.29384830 3.51095906 -0.34229509
v 2.29367618 3.46088270 -0.34203833
v 2.29381247 3.51090521 -0.55286219
v 2.37399714 4.98661487 -0.34207894
v 2.29358271 4.98673598 -1.62715801
v 2.37415022 4.98668508 -1.62707168
v 2.29390703 4.98660988 -0.34199082
v 1.97267031 4.98678636 -0.34201904
v 0.64757455 4.98678640 -0.44252507
v 1.97243317 4.98667854 -0.44261816
v 0.24578810 4.98672189 -0.44259603
v 0.24583139 4.98657853 -0.34211778
v 1.97262984 4.98683909 -1.46647700
v 0.24605959 4.98684788 -1.62696725
v 1.97232979 4.98682876 -1.62705653
v 0.24599150 4.98673431 -1.46643331
v 0.64752298 4.98665388 -1.46668494
v 2.29381857 3.46073880 -0.34202837
v 2.03279290 3.46083653 -0.55305194
v 2.29377432 3.46082606 -0.55312197
v 2.03285783 3.46081565 -0.34227796
v 0.24568065 4.98674993 -0.34218013
v -1.07921610 4.98666741 -0.44233331
v 0.24593934 4.98670296 -0.44269720
v -1.48050946 4.98679448 -0.44241587
v -1.48068567 4.98679439 -0.34210649
v 0.24601237 4.98667666 -1.46663782
v -1.44046040 4.98648028 -1.62712037
v 0.24592230 4.98657855 -1.62702641
v -1.07917978 4.98664530 -1.46641821
v -1.48074341 4.98684642 -0.44249468
v -1.48074317 4.98647925 -1.62723800
v -1.44045401 4.98668785 -1.62712513
v -1.48050991 4.98655213 -0.34221186
v -2.80586016 4.98675801 -0.44260649
v -1.48075849 4.98651661 -0.44245306
v -2.80571931 4.98664095 -0.47262939
v -3.12717120 4.98664145 -0.34199556
v -3.12701386 4.98694791 -1.62718066
v -1.48062700 4.98667188 -1.46641314
v -3.12702960 4.98663160 -1.62718952
v -1.48035318 4.98668490 -1.62731609
v -2.80587955 4.98676811 -1.46653055
v -2.80565825 4.98680384 -0.47266416
v -3.12708082 3.94257486 -0.44261050
v -3.12719108 4.98682609 -0.34197213
v -3.12716718 3.94255538 -0.34234216
v -3.12713498 3.94234337 -1.46660148
v -3.12688595 3.94264747 -1.62699996
v -3.12708267 4.98688736 -1.62707200
v -3.12707089 2.79855661 -0.44256914
v -3.12716333 3.94270779 -0.34215163
v -3.12691135 2.79817393 -0.34205871
v -3.12693488 3.94261200 -0.44251542
v -3.12712032 1.54370360 -1.62717208
v -3.12707872 2.79815805 -0.34218548
v -3.12702946 1.54352963 -0.34221460
v -3.12704927 2.79811942 -0.44262454
v -3.12672525 2.79839106 -1.46656193
v -3.12717613 3.94257808 -1.62709649
v -3.12702498 3.94260355 -1.46661738
v 2.03298139 2.41685716 -0.34218861
v 2.29380626 2.41674907 -0.55328177
v 2.03283745 2.41668948 -0.55306880
v 2.29376004 2.41688807 -0.34227629
v -1.26002371 -4.46965425 -0.50268330
v -0.40667545 -4.46966156 -1.62712759
v -1.25983253 -4.46986241 -1.62700372
v -0.40643728 -4.46965456 -0.34208692
v -1.26028125 -4.46969602 -0.34215122
v -0.40658602 -2.04042804 -0.34214232
v -0.40652443 -4.46975257 -1.62714651
v -0.40643436 -4.46984649 -0.34203494
v -0.40655035 -2.04044626 -1.62712703
v -2.26382448 -4.46965037 -0.34211010
v -1.25992706 -4.46984614 -0.50273316
v -2.26361769 -4.46973727 -0.50272032
v -1.25990714 -4.46971729 -0.34218050
v -0.40653743 -2.04052489 -0.34207746
v -1.04906586 -2.04031816 -1.62713258
v -0.40653454 -2.04047581 -1.62696410
v -1.04922818 -2.04047306 -0.34212246
v -3.12686767 -4.46969409 -0.34217573
v -2.26388012 -4.46974458 -1.62709766
v -3.12684259 -4.46965498 -1.62726391
v -2.26349989 -4.46976824 -0.50286327
v -2.26356069 -4.46973021 -0.34218889
v -1.04901643 -2.04026551 -0.34203900
v -1.12950451 -2.04013753 -1.62699079
v -1.04908230 -2.04044784 -1.62720183
v -1.12933944 -2.04042996 -0.34223267
v -3.12693945 -4.46968335 -1.62713893
v -3.12694793 -3.83713301 -0.34226898
v -3.12709526 -4.46962090 -0.34206922
v -3.12700384 -3.83715559 -0.44265418
v -3.12719174 -3.83737908 -1.62708190
v -1.12944072 -1.32766719 -0.34225582
v -1.12942137 -2.04046835 -1.62705461
v -1.12926547 -2.04041150 -0.34217125
v -1.12941703 -1.32755501 -0.66337457
v -1.12917743 -1.32773420 -1.62705504
v -3.12697990 -3.83732333 -0.44247003
v -3.12718727 -2.69263617 -0.34229625
v -3.12692749 -3.83740713 -0.34202164
v -3.12707119 -2.69285212 -0.44252844
v -3.12690756 -3.83731905 -1.62742224
v -3.12711253 -2.69284933 -1.46652528
v -3.12694401 -3.83717179 -1.46649316
v -3.12719290 -0.90583508 -1.62697560
v -3.12706177 -2.05016541 -1.46651508
v -3.12715407 -2.05041481 -0.44241559
v -3.12713207 -2.05018271 -0.34224717
v -3.12692368 -0.90592757 -1.46649343
v -3.12690978 -2.69303478 -0.44238477
v -3.12703582 -2.69292932 -0.34206589
v -1.12923628 -0.83563176 -0.34192817
v -1.12923398 -1.32747214 -0.66344385
v -1.12934129 -1.32755151 -0.34215037
v -1.12931980 -0.83566962 -0.66329123
v -3.12704000 -0.90602608 -0.44262556
v -3.12712704 -0.26338640 -0.34215773
v -3.12694212 -0.90613046 -0.34236191
v -3.12714437 -0.90586124 -1.46635881
v -3.12699223 -0.90607591 -1.62710931
v -3.12706161 -0.26355355 -1.62737084
v -3.12712331 -2.05041859 -0.44236727
v -3.12701110 -0.90583324 -0.34219179
v -3.12705664 -2.05082718 -0.34209738
v -3.12696854 -0.90579326 -0.44258793
vt -2.68750000 0.00000000
vt -2.60159993 0.00000000
vt -2.68750000 -0.89845204
vt -2.68750095 -1.00002789
vt -2.59379101 -0.00000203
vt -2.59380102 -1.00005198
vt -2.60159993 0.00000012
vt -2.68750000 -0.92190003
vt -2.68750000 -0.89846301
vt 3.39059997 -1.00000000
vt 2.68750000 -0.92190003
vt 2.68750000 -1.00000000
vt 3.39059997 -0.92190003
vt -5.05474806 -1.00000000
vt -4.53909683 -0.92187095
vt -4.24220705 -1.00000000
vt -5.42976904 -0.92187095
vt -5.09381485 -1.00000000
vt -6.24230003 -1.00000000
vt -5.42976904 -0.12495196
vt -3.39060307 -0.92187095
vt -3.39060307 -1.00000000
vt -3.39060307 0.00005549
vt -4.53909683 -0.12495196
vt -6.24230003 0.00005549
vt 2.30469990 -0.99999797
vt 2.55469990 0.00003737
vt 2.30469990 0.00000000
vt 2.55469990 -0.12496197
vt 2.55469990 -0.92183602
vt 2.55469990 -0.99995995
vt 2.56250000 -0.44920003
vt 2.58200002 -0.53129995
vt 2.56250000 -0.53129995
vt 2.58200002 -0.44920003
vt 2.24219990 -1.00000000
vt 2.30469990 0.00002670
vt 2.24219990 0.00000000
vt 2.30469990 -0.99997306
vt 2.21095300 -0.99995995
vt 3.24219990 -0.92183602
vt 2.21095300 -0.92183602
vt 3.55469990 -0.92183602
vt 3.55469990 -0.99995995
vt 2.21095300 -0.12496197
vt 3.55469990 0.00003737
vt 2.21095300 0.00003737
vt 3.55469990 -0.12496197
vt 3.24219990 -0.12496197
vt -0.77340001 -0.53129995
vt -0.87500000 -0.44920003
vt -0.77340001 -0.44920003
vt -0.87500000 -0.53129995
vt 3.21094108 -0.99975300
vt 4.24220181 -0.92183697
vt 3.21093392 -0.92162704
vt 4.55469990 -0.92190003
vt 4.55470705 -1.00002599
vt 3.21086693 -0.12473595
vt 4.52339983 0.00000000
vt 3.21085596 0.00026631
vt 4.24213505 -0.12494504
vt 4.55469990 -0.92183602
vt 4.55469990 0.00003737
vt 4.52339983 0.00000000
vt 5.21088505 -1.00012589
vt 6.24219990 -0.92190003
vt 5.21088505 -0.92200100
vt 6.24219990 -0.89846396
vt 6.49219990 -1.00000000
vt 6.49219990 0.00000000
vt 5.21089983 -0.12500000
vt 6.49215603 0.00000000
vt 5.21085978 0.00000000
vt 6.24219990 -0.12500000
vt 6.24244690 -0.89843905
vt -4.67009878 -0.92187595
vt -5.48260021 -1.00000000
vt -4.67010021 -1.00000000
vt -4.67008400 -0.12500000
vt -4.67008209 0.00000000
vt -5.48258209 0.00000000
vt -3.93379998 -0.38440001
vt -4.82439995 -0.46249998
vt -3.93379998 -0.46249998
vt -4.82439995 -0.38440001
vt -3.01052189 -0.00000799
vt -3.98709989 -0.99996197
vt -3.01052189 -1.00000811
vt -3.98709989 -0.92183805
vt -3.98709989 -0.12496197
vt -4.87774181 0.00007951
vt -4.87774181 -0.12492096
vt -0.87500000 -0.53129995
vt -0.77340001 -0.44920003
vt -0.87500000 -0.44920003
vt -0.77340001 -0.53129995
vt -3.80180001 -0.87500000
vt -3.13770008 0.00000000
vt -3.80180001 0.00000018
vt -3.13770008 -1.00000000
vt -3.80180001 -1.00000000
vt -0.47999999 -1.00000000
vt 1.41065395 0.00000000
vt 1.41075206 -1.00000000
vt -0.48009861 0.00000000
vt -4.70030022 -0.56250000
vt -3.91910005 -0.43750000
vt -4.70030022 -0.43750000
vt -3.91910005 -0.56250000
vt -3.29947305 -1.00000000
vt -3.79952693 0.00000000
vt -3.29949999 0.00000000
vt -3.79949999 -1.00000000
vt -4.91499996 -1.00000000
vt -4.24320507 0.00005549
vt -4.91499996 0.00005549
vt -4.24320507 -0.87499297
vt -4.24320507 -1.00000000
vt 4.13280106 -1.00000000
vt 4.19530106 0.00002670
vt 4.13280106 0.00000000
vt 4.19530106 -0.99997306
vt 1.47729194 0.00000417
vt 0.98510152 -0.99995601
vt 1.47730696 -0.99995196
vt 0.98510033 -0.92183495
vt 0.98508668 0.00000000
vt -1.14549994 -0.99989605
vt -0.59078509 -0.00005496
vt -0.59078509 -0.99989605
vt -1.14549994 -0.74993598
vt -1.14549994 -0.00005496
vt 1.43193996 -0.38440001
vt 0.54140002 -0.46249998
vt 1.43193996 -0.46249998
vt 0.54140002 -0.38440001
vt 1.15627003 -0.00013196
vt 0.26563150 -0.12502003
vt 1.15626502 -0.12513304
vt -1.12499499 0.00015831
vt -0.23436940 -0.12495601
vt -0.23440090 -0.92183602
vt -0.23440400 -0.99996102
vt -1.12500000 -0.12484300
vt 0.26560000 -0.92190003
vt 0.26559690 -1.00002503
vt -1.69040000 -1.00000000
vt -1.30760002 -0.75000000
vt -1.30760002 -1.00000000
vt -1.69040000 -0.75000000
vt -1.34372902 -0.92186797
vt -1.84370995 -1.00000095
vt -1.34372103 -0.99999595
vt -1.34380198 -0.12496102
vt -1.34381402 0.00004357
vt -1.84380198 0.00003839
vt -0.39719999 -0.38440001
vt -1.28779995 -0.46249998
vt -0.39719999 -0.46249998
vt -1.28779995 -0.38440001
f 1/1 2/2 3/3
f 4/4 5/5 6/6
f 5/5 4/4 7/7
f 7/7 4/4 8/8
f 7/7 8/8 9/9
f 10/10 11/11 12/12
f 11/11 10/10 13/13
f 14/14 15/15 16/16
f 15/15 14/14 17/17
f 17/17 14/14 18/18
f 17/17 18/18 19/19
f 17/17 19/19 20/20
f 16/16 21/21 22/22
f 21/21 16/16 23/23
f 23/23 16/16 24/24
f 23/23 24/24 25/25
f 24/24 16/16 15/15
f 25/25 24/24 20/20
f 25/25 20/20 19/19
f 26/26 27/27 28/28
f 27/27 26/26 29/29
f 29/29 26/26 30/30
f 30/30 26/26 31/31
f 32/32 33/33 34/34
f 33/33 32/32 35/35
f 36/36 37/37 38/38
f 37/37 36/36 39/39
f 40/40 41/41 42/42
f 41/41 40/40 43/43
f 43/43 40/40 44/44
f 45/45 46/46 47/47
f 46/46 45/45 48/48
f 48/48 49/49 41/41
f 48/48 41/41 43/43
f 50/50 51/51 52/52
f 51/51 50/50 53/53
f 54/54 55/55 56/56
f 55/55 54/54 57/57
f 57/57 54/54 58/58
f 59/59 60/60 61/61
f 60/60 59/59 62/62
f 60/60 62/62 57/57
f 57/57 62/62 55/55
f 63/63 64/64 65/65
f 66/66 67/67 68/68
f 69/69 70/70 71/71
f 70/70 69/69 67/67
f 70/70 67/67 66/66
f 72/72 73/73 74/74
f 73/73 72/72 75/75
f 73/73 75/75 76/76
f 77/77 78/78 79/79
f 78/78 77/77 80/80
f 78/78 80/80 81/81
f 78/78 81/81 82/82
f 83/83 84/84 85/85
f 84/84 83/83 86/86
f 87/87 88/88 89/89
f 88/88 87/87 90/90
f 90/90 87/87 91/91
f 91/91 87/87 92/92
f 91/91 92/92 93/93
f 94/94 95/95 96/96
f 95/95 94/94 97/97
f 98/98 99/99 100/100
f 99/99 98/98 101/101
f 101/101 98/98 102/102
f 103/103 104/104 105/105
f 104/104 103/103 106/106
f 107/107 108/108 109/109
f 108/108 107/107 110/110
f 111/111 112/112 113/113
f 112/112 111/111 114/114
f 115/115 116/116 117/117
f 116/116 115/115 118/118
f 118/118 115/115 119/119
f 120/120 121/121 122/122
f 121/121 120/120 123/123
f 124/124 125/125 126/126
f 125/125 124/124 127/127
f 127/127 124/124 128/128
f 129/129 130/130 131/131
f 130/130 129/129 132/132
f 130/130 132/132 133/133
f 134/134 135/135 136/136
f 135/135 134/134 137/137
f 138/138 139/139 140/140
f 139/139 138/138 141/141
f 139/139 141/141 142/142
f 139/139 142/142 143/143
f 139/139 143/143 144/144
f 142/142 141/141 145/145
f 146/146 144/144 147/147
f 144/144 146/146 139/139
f 148/148 149/149 150/150
f 149/149 148/148 151/151
f 152/152 153/153 154/154
f 153/153 152/152 155/155
f 153/153 155/155 156/156
f 153/153 156/156 157/157
f 158/158 159/159 160/160
f 159/159 158/158 161/161

