# https://github.com/mikedh/trimesh
v 1.54387505 -2.07784724 -1.04427155
v 1.54546187 -2.08094680 -1.04653248
v 1.52937323 -2.08094049 -1.05812767
v 1.54545604 -2.08094717 -1.04653385
v 1.52670153 -2.08404054 -1.05647250
v 1.52936456 -2.08094684 -1.05812602
v 1.52671318 -2.07784224 -1.05646774
v 1.52937349 -2.08094735 -1.05812318
v 1.52671527 -2.08403921 -1.05647036
v 1.52670750 -2.08404065 -1.15008831
v 1.54387021 -2.08404050 -1.04427495
v 1.52671373 -2.07784577 -1.05646568
v 1.52936489 -2.08094507 -1.05812134
v 1.52940821 -2.08094988 -1.14844889
v 1.54229333 -2.08094119 -1.04201332
v 1.54387317 -2.07784047 -1.04426593
v 1.52671910 -2.07784108 -1.05646567
v 1.52401585 -2.08094454 -1.15171639
v 1.52670594 -2.08403701 -1.15008741
v 1.52671439 -2.08404465 -1.05647001
v 1.52940000 -2.08094950 -1.14844793
v 1.54387240 -2.08403821 -1.04427537
v 1.52406192 -2.08093890 -1.05480304
v 1.52670204 -2.08403939 -1.05646428
v 1.52671570 -2.07784931 -1.15008149
v 1.52404955 -2.08094734 -1.05480175
v 1.52671163 -2.08403017 -1.15008844
v 1.52401830 -2.08094613 -1.15172384
v 1.54215032 -2.08094183 -1.16362605
v 1.52406069 -2.08094773 -1.05479854
v 1.52940063 -2.08093781 -1.14845718
v 1.52670829 -2.08403763 -1.15008485
v 1.54387520 -2.08404119 -1.16150044
v 1.54228163 -2.08094238 -1.04201023
v 1.52940116 -2.08094909 -1.14845162
v 1.54558781 -2.08094756 -1.15935822
v 1.52670184 -2.07784503 -1.15009172
v 1.52671189 -2.07784700 -1.15008838
v 1.52405813 -2.08094775 -1.05479969
v 1.52671452 -2.07784309 -1.05646223
v 1.52402435 -2.08094092 -1.15171887
v 1.54386844 -2.07784725 -1.16149801
v 1.54214970 -2.08094342 -1.16363094
v 1.54387013 -2.08404314 -1.16149359
v 1.52402252 -2.08093889 -1.15171925
v 1.54559770 -2.08093855 -1.15935597
v 1.54386444 -2.07784145 -1.16149329
v 1.52671323 -2.07784510 -1.15008761
v 1.75887587 -1.85425324 -1.18238868
v 1.76188674 -1.85726691 -1.18237598
v 1.75887328 -1.85726313 -1.18539598
v 1.54464382 -1.85425176 -1.18238691
v 1.75887579 -1.85726394 -1.18539741
v 1.54463578 -1.85726130 -1.18539363
v 1.75887225 -1.85425271 -1.18237285
v 1.76188699 -1.85726312 -1.18238691
v 1.75888153 -1.85424780 -1.02282083
v 1.76188741 -1.85725959 -1.02282380
v 1.75887712 -1.85425236 -1.18238686
v 1.75887889 -2.16322479 -1.18539338
v 1.76188634 -1.85726793 -1.18237797
v 1.76188635 -2.16321841 -1.18237837
v 1.75887248 -1.85725757 -1.18539086
v 1.75887249 -1.85727177 -1.18539793
v 1.54465062 -2.16321677 -1.18539357
v 1.54465299 -1.85726895 -1.18539485
v 1.75887250 -2.16321406 -1.18539519
v 1.54464338 -1.85425854 -1.18237748
v 1.54464943 -1.85726552 -1.18539167
v 1.54162780 -1.85726550 -1.18237471
v 1.54464657 -1.85424187 -1.02282873
v 1.75887698 -1.85425254 -1.18237817
v 1.54464597 -1.85425410 -1.18238428
v 1.75888757 -1.85425204 -1.02283396
v 1.76188445 -1.85726060 -1.02282750
v 1.75888030 -1.85424744 -1.02282602
v 1.75887250 -1.85726777 -1.01981658
v 1.76188093 -2.16321142 -1.18237381
v 1.76188186 -1.85726852 -1.02283291
v 1.76188310 -2.16322978 -1.02283031
v 1.76189273 -1.85726496 -1.18237694
v 1.76188512 -2.16320906 -1.18237973
v 1.75887289 -2.16621655 -1.18238196
v 1.75886931 -2.16321569 -1.18539253
v 1.75887905 -2.16322048 -1.18538893
v 1.54464963 -2.16623026 -1.18237989
v 1.54464246 -2.16320656 -1.18539536
v 1.75887258 -2.16623196 -1.18238205
v 1.54163328 -1.85726022 -1.18238318
v 1.54464521 -2.16322258 -1.18539588
v 1.54164504 -2.16321212 -1.18238391
v 1.54464030 -1.85726764 -1.18539245
v 1.54464614 -1.85425488 -1.02283085
v 1.54163936 -1.85726157 -1.18238218
v 1.54163236 -1.85726574 -1.02283788
v 1.54464649 -1.85425627 -1.18238485
v 1.75887179 -1.85726037 -1.01981858
v 1.54463989 -1.85424898 -1.02282216
v 1.54464191 -1.85726109 -1.01981484
v 1.75887579 -1.85425708 -1.02282183
v 1.76189233 -2.16321384 -1.02282307
v 1.75885845 -1.85726238 -1.01981370
v 1.75887389 -2.16321924 -1.01981344
v 1.76188896 -1.85726461 -1.02282735
v 1.75887975 -2.16623212 -1.18237619
v 1.76188796 -2.16321998 -1.02282669
v 1.75887059 -2.16622454 -1.02282397
v 1.76188484 -2.16322125 -1.18237930
v 1.75887859 -2.16622790 -1.02282367
v 1.54464439 -2.16622713 -1.18238182
v 1.75887576 -2.16623385 -1.18237784
v 1.54464502 -2.16622589 -1.02282690
v 1.54464736 -2.16623198 -1.18237552
v 1.54162605 -2.16322098 -1.18237958
v 1.54465223 -2.16321537 -1.18539342
v 1.54162723 -1.85726430 -1.02282546
v 1.54164050 -2.16321390 -1.18238709
v 1.54164193 -2.16321823 -1.02282920
v 1.54163958 -1.85726370 -1.18238215
v 1.54464693 -1.85424811 -1.02282114
v 1.54162744 -1.85725498 -1.02282134
v 1.54464438 -1.85726697 -1.01981772
v 1.75887504 -2.16321931 -1.01981693
v 1.54464945 -1.85726194 -1.01981527
v 1.54464912 -2.16321073 -1.01981833
v 1.75887194 -1.85725947 -1.01981053
v 1.75887548 -2.16321160 -1.01981830
v 1.75886821 -2.16623111 -1.02282493
v 1.76188382 -2.16321863 -1.02282960
v 1.54163066 -2.16322083 -1.02282389
v 1.54464938 -2.16622946 -1.18238146
v 1.54464352 -2.16622515 -1.02282507
v 1.54164009 -2.16322122 -1.18237904
v 1.75887640 -2.16321809 -1.01981119
v 1.54463987 -2.16621839 -1.02283117
v 1.75887843 -2.16623219 -1.02282055
v 1.54464436 -2.16321588 -1.01981344
v 1.54465068 -1.85726486 -1.01982623
v 1.54163006 -2.16321577 -1.02282733
v 1.54464927 -2.16321223 -1.01981430
v 1.54162696 -1.85725759 -1.02282076
v 1.54464472 -2.16320758 -1.01981516
v 1.54162846 -2.16321722 -1.02282086
v 1.54464200 -2.16621911 -1.02282927
v 1.54183268 -1.87901715 -1.05356234
v 1.53812716 -1.87902586 -1.14984329
v 1.54182834 -1.87902178 -1.14984588
v 1.53812707 -1.87901619 -1.05355317
v 1.54183322 -1.87901400 -1.05356399
v 1.53812301 -2.04934025 -1.05356176
v 1.53812384 -1.87901766 -1.05355809
v 1.54182818 -2.04934414 -1.05356521
v 1.53811876 -1.85765950 -1.03577465
v 1.53812591 -1.85767001 -1.03578254
v 1.53811809 -1.87901459 -1.14984452
v 1.53812397 -1.87902289 -1.14984963
v 1.53812129 -1.87902094 -1.05357236
v 1.53811891 -1.87902028 -1.05355523
v 1.53812324 -1.86067458 -1.16832311
v 1.53812148 -1.86069715 -1.16831946
v 1.53812489 -1.85765698 -1.16531173
v 1.54182901 -2.04934566 -1.14985408
v 1.53811952 -1.87902094 -1.14984330
v 1.53812257 -2.04934602 -1.14984847
v 1.54182954 -1.87902235 -1.14984420
v 1.53811452 -2.04934356 -1.05355886
v 1.54182291 -2.04934111 -1.14984357
v 1.53812449 -2.04934985 -1.14985217
v 1.54183386 -2.04934138 -1.05356173
v 1.53812444 -1.86067747 -1.03276537
v 1.53812132 -2.04934204 -1.05356400
v 1.53812199 -2.04933712 -1.05356581
v 1.53813076 -2.09310967 -1.03276973
v 1.53812196 -2.09311622 -1.03276567
v 1.53811940 -1.85766550 -1.03577114
v 1.54163112 -1.85765671 -1.16530842
v 1.53812212 -1.85765832 -1.16530699
v 1.54163487 -1.85766590 -1.03576656
v 1.54163676 -1.85766536 -1.16531637
v 1.53812415 -1.86068541 -1.16832874
v 1.53812137 -1.85766329 -1.16530420
v 1.54163450 -1.86067711 -1.16832666
v 1.53812246 -2.04934212 -1.14984540
v 1.53812305 -2.09311425 -1.16832358
v 1.53812408 -2.09612769 -1.16531498
v 1.53812331 -2.09613082 -1.16531777
v 1.53812664 -2.09613100 -1.03577792
v 1.54163169 -2.09311709 -1.03275601
v 1.53812185 -1.86067853 -1.03275651
v 1.53812483 -2.09311313 -1.03276446
v 1.54163658 -1.86068079 -1.03275778
v 1.54162903 -1.86068386 -1.03275695
v 1.53812172 -1.85766602 -1.03577396
v 1.53811962 -1.86067487 -1.03276768
v 1.54163266 -1.85766301 -1.03577473
v 1.54162988 -1.86068424 -1.16831963
v 1.53811817 -2.09311492 -1.16832793
v 1.53812020 -1.86068039 -1.16832677
v 1.54163608 -2.09311775 -1.16832585
v 1.54162683 -2.09312434 -1.16832122
v 1.53811763 -2.09613527 -1.16531064
v 1.53813226 -2.09311649 -1.16831819
v 1.54163421 -2.09612612 -1.16531538
v 1.54163147 -2.09612834 -1.03577436
v 1.53812174 -2.09613229 -1.16531076
v 1.54163000 -2.09613977 -1.16531474
v 1.53812458 -2.09612283 -1.03576657
v 1.54163371 -2.09311387 -1.03275857
v 1.53811961 -2.09613669 -1.03577416
v 1.54162580 -2.09613082 -1.03577170
v 1.53811651 -2.09311754 -1.03275715
vt 0.95740002 0.00929999
vt 0.97490001 0.01639998
vt 0.97490001 0.08840001
vt 0.97490001 0.01639998
vt 0.99250001 0.08469999
vt 0.97490001 0.08840001
vt 0.95740002 0.08469999
vt 0.97490001 0.08840001
vt 0.99250001 0.08469999
vt 0.99250001 0.51349998
vt 0.99250001 0.00929999
vt 0.95740002 0.08469999
vt 0.97490001 0.08840001
vt 0.97490001 0.50960004
vt 0.97490001 0.00209999
vt 0.95740002 0.00929999
vt 0.95740002 0.08469999
vt 0.97490001 0.51750004
vt 0.99250001 0.51349998
vt 0.99250001 0.08469999
vt 0.97490001 0.50960004
vt 0.99250001 0.00929999
vt 0.97490001 0.08090001
vt 0.99250001 0.08469999
vt 0.95740002 0.51349998
vt 0.97490001 0.08090001
vt 0.99250001 0.51349998
vt 0.97490001 0.51750004
vt 0.97490001 0.59249997
vt 0.97490001 0.08090001
vt 0.97490001 0.50960004
vt 0.99250001 0.51349998
vt 0.99250001 0.58510000
vt 0.97490001 0.00209999
vt 0.97490001 0.50960004
vt 0.97490001 0.57760000
vt 0.95740002 0.51349998
vt 0.95740002 0.51349998
vt 0.97490001 0.08090001
vt 0.95740002 0.08469999
vt 0.97490001 0.51750004
vt 0.95740002 0.58510000
vt 0.97490001 0.59249997
vt 0.99250001 0.58510000
vt 0.97490001 0.51750004
vt 0.97490001 0.57760000
vt 0.95740002 0.58510000
vt 0.95740002 0.51349998
vt 0.00639999 0.01199991
vt 0.01449996 0.01199991
vt 0.01449996 0.00369990
vt 0.00090000 0.87870002
vt 0.00759995 0.47000003
vt 0.00759995 0.87870002
vt 0.00090000 0.47000003
vt 0.01449996 0.44849998
vt 0.00639999 0.01200002
vt 0.01449996 0.01200002
vt 0.00639999 0.44849998
vt 0.62190002 0.47909999
vt 0.03119999 0.48490000
vt 0.62190002 0.48490000
vt 0.03119999 0.47909999
vt 0.00759995 0.47000003
vt 0.69160002 0.87870002
vt 0.00759995 0.87870002
vt 0.69160002 0.47000003
vt 0.00639999 0.01199991
vt 0.01449996 0.00369990
vt 0.01449996 0.01199991
vt 0.38550001 0.87800002
vt 0.02089995 0.47750002
vt 0.02089995 0.87800002
vt 0.38550001 0.47750002
vt 0.01449996 0.01200008
vt 0.00639999 0.01200008
vt 0.01449996 0.00370008
vt 0.71039999 0.89510000
vt 0.93790001 0.46390003
vt 0.93790001 0.89510000
vt 0.71039999 0.46390003
vt 0.84149992 0.01200008
vt 0.84959990 0.01200008
vt 0.84149992 0.00370008
vt 0.69160002 0.47000003
vt 0.69840002 0.87870002
vt 0.69160002 0.87870002
vt 0.69840002 0.47000003
vt 0.01449996 0.01200002
vt 0.84149998 0.00370002
vt 0.84149998 0.01200002
vt 0.01449996 0.00370002
vt 0.00639999 0.01200002
vt 0.01449996 0.44849998
vt 0.01449996 0.01200002
vt 0.00639999 0.44849998
vt 0.00759995 0.47000003
vt 0.00090000 0.87870002
vt 0.00759995 0.87870002
vt 0.00090000 0.47000003
vt 0.62190002 0.48490000
vt 0.03119999 0.47909999
vt 0.62190002 0.47909999
vt 0.03119999 0.48490000
vt 0.84960002 0.44849998
vt 0.84149998 0.01200002
vt 0.84960002 0.01200002
vt 0.84149998 0.44849998
vt 0.38550001 0.46749997
vt 0.02089995 0.83700001
vt 0.02089995 0.46749997
vt 0.38550001 0.83700001
vt 0.84959990 0.01200008
vt 0.84149992 0.01200008
vt 0.84149992 0.00370008
vt 0.01449996 0.01200002
vt 0.84149998 0.44849998
vt 0.84149998 0.01200002
vt 0.01449996 0.44849998
vt 0.00639999 0.01200008
vt 0.01449996 0.01200008
vt 0.01449996 0.00370008
vt 0.69160002 0.47000003
vt 0.00759995 0.87870002
vt 0.69160002 0.87870002
vt 0.00759995 0.47000003
vt 0.84150010 0.00369990
vt 0.84960008 0.01199991
vt 0.84150010 0.01199991
vt 0.84149998 0.01200002
vt 0.84960002 0.44849998
vt 0.84960002 0.01200002
vt 0.84149998 0.44849998
vt 0.69160002 0.47000003
vt 0.69840002 0.87870002
vt 0.69840002 0.47000003
vt 0.69160002 0.87870002
vt 0.01449996 0.00370002
vt 0.84149998 0.01200002
vt 0.84149998 0.00370002
vt 0.01449996 0.01200002
vt 0.84150010 0.00369990
vt 0.84150010 0.01199991
vt 0.84960008 0.01199991
vt 0.21810000 0.36059999
vt 0.50169998 0.34460002
vt 0.50169998 0.36059999
vt 0.21810000 0.34460002
vt 0.25350001 0.35909998
vt 0.50360000 0.34640002
vt 0.25350001 0.34640002
vt 0.50360000 0.35909998
vt 0.01510000 0.05479997
vt 0.01969407 0.04567099
vt 0.07549995 0.35170239
vt 0.07411193 0.35811383
vt 0.07549995 0.09570003
vt 0.07411193 0.09570003
vt 0.02362993 0.40630490
vt 0.02829998 0.41090000
vt 0.01510000 0.39920002
vt 0.50360000 0.35909998
vt 0.25350001 0.34640002
vt 0.50360000 0.34640002
vt 0.25350001 0.35909998
vt 0.21810000 0.34460002
vt 0.50169998 0.36059999
vt 0.50169998 0.34460002
vt 0.21810000 0.36059999
vt 0.02829998 0.03719997
vt 0.53179997 0.09570003
vt 0.53179997 0.09697402
vt 0.65289998 0.03719997
vt 0.65268308 0.03901148
vt 0.14950000 0.01059997
vt 0.56059998 0.02810001
vt 0.56059998 0.01059997
vt 0.14950000 0.02810001
vt 0.29510000 0.02340001
vt 0.29850000 0.01660001
vt 0.29510000 0.01660001
vt 0.29850000 0.02340001
vt 0.53179997 0.35869998
vt 0.65289998 0.41170001
vt 0.66042799 0.40309358
vt 0.66100001 0.39920002
vt 0.66100001 0.04710001
vt 0.55610001 0.02340001
vt 0.29850000 0.01660001
vt 0.55610001 0.01660001
vt 0.29850000 0.02340001
vt 0.29850000 0.02340001
vt 0.29510000 0.01660001
vt 0.29850000 0.01660001
vt 0.29510000 0.02340001
vt 0.29850000 0.02340001
vt 0.55610001 0.01660001
vt 0.29850000 0.01660001
vt 0.55610001 0.02340001
vt 0.55610001 0.02340001
vt 0.55940002 0.01660001
vt 0.55610001 0.01660001
vt 0.55940002 0.02340001
vt 0.14950000 0.02810001
vt 0.56059998 0.01059997
vt 0.56059998 0.02810001
vt 0.14950000 0.01059997
vt 0.55610001 0.02340001
vt 0.55940002 0.01660001
vt 0.55940002 0.02340001
vt 0.55610001 0.01660001
f 1/1 2/2 3/3
f 4/4 5/5 6/6
f 1/1 3/3 7/7
f 8/8 9/9 10/10
f 11/11 5/5 4/4
f 12/12 13/13 14/14
f 15/15 16/16 17/17
f 18/18 19/19 20/20
f 21/21 8/8 10/10
f 22/22 23/23 24/24
f 25/25 12/12 14/14
f 15/15 17/17 26/26
f 27/27 28/28 29/29
f 18/18 20/20 30/30
f 31/31 32/32 33/33
f 34/34 23/23 22/22
f 35/35 36/36 37/37
f 38/38 39/39 40/40
f 41/41 42/42 43/43
f 27/27 29/29 44/44
f 38/38 45/45 39/39
f 31/31 33/33 46/46
f 37/37 36/36 47/47
f 48/48 42/42 41/41
f 49/49 50/50 51/51
f 52/52 53/53 54/54
f 53/53 52/52 55/55
f 56/56 57/57 58/58
f 57/57 56/56 59/59
f 60/60 61/61 62/62
f 61/61 60/60 63/63
f 64/64 65/65 66/66
f 65/65 64/64 67/67
f 68/68 69/69 70/70
f 71/71 72/72 73/73
f 72/72 71/71 74/74
f 75/75 76/76 77/77
f 78/78 79/79 80/80
f 79/79 78/78 81/81
f 82/82 83/83 84/84
f 85/85 86/86 87/87
f 86/86 85/85 88/88
f 89/89 90/90 91/91
f 90/90 89/89 92/92
f 93/93 94/94 95/95
f 94/94 93/93 96/96
f 97/97 98/98 99/99
f 98/98 97/97 100/100
f 101/101 102/102 103/103
f 102/102 101/101 104/104
f 105/105 106/106 107/107
f 106/106 105/105 108/108
f 109/109 110/110 111/111
f 110/110 109/109 112/112
f 113/113 114/114 115/115
f 116/116 117/117 118/118
f 117/117 116/116 119/119
f 120/120 121/121 122/122
f 123/123 124/124 125/125
f 124/124 123/123 126/126
f 127/127 128/128 129/129
f 130/130 131/131 132/132
f 131/131 130/130 133/133
f 134/134 135/135 136/136
f 135/135 134/134 137/137
f 138/138 139/139 140/140
f 139/139 138/138 141/141
f 142/142 143/143 144/144
f 145/145 146/146 147/147
f 146/146 145/145 148/148
f 149/149 150/150 151/151
f 150/150 149/149 152/152
f 153/153 155/155 157/157
f 155/155 153/153 159/159
f 159/159 153/153 161/161
f 162/162 163/163 164/164
f 163/163 162/162 165/165
f 166/166 167/167 168/168
f 167/167 166/166 169/169
f 170/170 171/171 173/173
f 171/171 170/170 158/158
f 158/158 170/170 154/154
f 175/175 176/176 177/177
f 176/176 175/175 178/178
f 179/179 180/180 181/181
f 180/180 179/179 182/182
f 183/183 184/184 185/185
f 184/184 183/183 160/160
f 160/160 183/183 156/156
f 174/174 186/186 187/187
f 186/186 174/174 183/183
f 183/183 174/174 172/172
f 188/188 189/189 190/190
f 189/189 188/188 191/191
f 192/192 193/193 194/194
f 193/193 192/192 195/195
f 196/196 197/197 198/198
f 197/197 196/196 199/199
f 200/200 201/201 202/202
f 201/201 200/200 203/203
f 204/204 205/205 206/206
f 205/205 204/204 207/207
f 208/208 209/209 210/210
f 209/209 208/208 211/211

