# https://github.com/mikedh/trimesh
v -1.75173217 5.06698398 -1.62697573
v -4.24090594 5.41895663 -1.62702714
v -4.36155380 5.06718313 -1.62722377
v -4.02470373 5.77134250 -1.62708617
v -3.75986020 6.02314932 -1.62732367
v -3.46456628 6.16714383 -1.62715212
v -3.11695285 6.23168896 -1.62711747
v -1.75150321 6.23137383 -1.62702889
v -4.02430349 5.77147487 -1.62723099
v -3.75960124 6.02310523 -1.70736223
v -4.02465652 5.77141892 -1.70743228
v -3.75933135 6.02322931 -1.62702818
v -4.02459087 5.77143360 -1.62694912
v -4.24064970 5.41882314 -1.70712358
v -4.24067693 5.41919966 -1.62704507
v -4.02452814 5.77172657 -1.70704116
v -4.36146197 5.06725104 -1.70733706
v -4.36201741 5.06700754 -1.62697276
v -1.75199312 5.06708128 -1.62701458
v -4.36166599 5.06678985 -1.70752512
v -1.75183591 5.06679249 -1.70708204
v -4.36188595 5.06706907 -1.62714162
v 2.51497726 5.06725201 -1.62697703
v -1.75216199 6.23150618 -1.62696759
v -1.75157011 5.06689434 -1.62675768
v -0.76820509 6.23137451 -1.62692121
v -0.24594065 6.23186609 -1.62705897
v 2.51456821 6.23142691 -1.62729511
v -3.11726458 6.23161291 -1.62698651
v -1.75151648 6.23135733 -1.70709112
v -3.11708184 6.23178711 -1.70748268
v -1.75189109 6.23154268 -1.62690342
v -3.46440144 6.16713621 -1.62734125
v -3.11728744 6.23158934 -1.70722018
v -3.46446147 6.16704601 -1.70724173
v -3.11726508 6.23136500 -1.62697915
v 2.51426983 5.06707966 -1.62720124
v -1.75173521 5.06699439 -1.70736571
v 2.51481316 5.06686842 -1.70714079
v -1.75162138 5.06716406 -1.62687895
v -1.75161003 6.23165234 -1.62707980
v -0.76822471 6.23147166 -1.70754482
v -1.75201792 6.23154428 -1.70750774
v -0.24613974 6.23130411 -1.70735329
v 2.51475125 6.23174062 -1.70740539
v 2.51487731 6.23175535 -1.62688151
v -0.24638619 6.23172332 -1.62703108
v -0.76788323 7.94817886 -1.62702282
v -0.76790248 6.23143035 -1.62744467
v -0.24602352 7.94796204 -1.62689412
v -1.75180866 6.23151199 -1.62725053
v -1.75184960 5.06700623 -1.70767711
v -1.75169988 5.06698879 -1.62731271
v -1.75219793 6.23159126 -1.70745773
v 2.51458725 5.06696478 -1.70706781
v 2.51467587 6.23151257 -1.62736817
v 2.51498905 5.06717767 -1.62689702
v 2.51469386 6.22162667 -1.70733437
v 2.51479821 6.23146850 -1.70767480
v 2.51487492 5.06665130 -1.62713818
v 2.51464732 5.05677594 -1.70728987
v 2.51464809 5.05688777 -1.62699802
v 2.51459711 5.06726468 -1.70733816
v -0.24609095 7.94775157 -1.62733477
v -0.73764368 8.02841595 -1.62714569
v -0.76765819 7.94787366 -1.62720152
v -0.67770195 8.09880937 -1.62721589
v -0.59742033 8.13856244 -1.62695882
v -0.50681657 8.15884947 -1.62706327
v -0.41684254 8.13877158 -1.62683913
v -0.33627134 8.09912751 -1.62723871
v -0.27604770 8.02850762 -1.62698904
v -0.76796276 7.94800679 -1.62725355
v -0.76739564 6.23148231 -1.70777496
v -0.76808111 6.23162170 -1.62718602
v -0.24569866 7.94829533 -1.70743067
v -0.24609056 7.94792493 -1.62722262
v -0.24622155 6.23171883 -1.62680022
v 2.51445326 6.22123946 -1.70772917
v 2.37396032 5.05639516 -1.62730473
v 2.51492438 5.05690460 -1.70724531
v 2.37404795 5.05729329 -1.70736625
v 2.51461457 5.05743939 -1.62715382
v 2.91600267 5.05700564 -1.62710111
v 2.51488183 5.06683829 -1.62694541
v 2.51484242 5.05684517 -1.62706382
v -0.27630809 8.02897658 -1.62722339
v -0.24608703 7.94791367 -1.62715732
v -0.27614610 8.02856698 -1.70751519
v -0.33633067 8.09843978 -1.70755522
v -0.33578785 8.09889332 -1.62723765
v -0.27640158 8.02836367 -1.62709745
v -0.41659760 8.13872128 -1.62733083
v -0.33603391 8.09878452 -1.62716257
v -0.41665449 8.13876093 -1.70794432
v -0.50694399 8.15873983 -1.62727844
v -0.41672215 8.13899378 -1.62730941
v -0.50721536 8.15905545 -1.70726331
v -0.50714229 8.15904116 -1.62714723
v -0.59724665 8.13862595 -1.70724882
v -0.59708509 8.13897620 -1.62699038
v -0.59800324 8.13890674 -1.62709811
v -0.67765165 8.09858481 -1.70739232
v -0.67753870 8.09865249 -1.62717895
v -0.67738781 8.09849719 -1.62690335
v -0.73782138 8.02827687 -1.70745605
v -0.73801401 8.02854987 -1.62702925
v -0.73794699 8.02822190 -1.62703777
v -0.76778964 7.94808934 -1.70732535
v -0.76803082 7.94812282 -1.62714720
v -0.73779974 8.02814669 -1.70728366
v -0.76800874 7.94817653 -1.70746535
v -0.76790231 6.23129866 -1.70718338
v -0.76827579 7.94791858 -1.62704996
v -0.24567976 7.94816168 -1.70744830
v -0.24621268 6.23146128 -1.62709742
v -0.24563774 6.23161139 -1.70768499
v -0.27577101 8.02835240 -1.70756482
v -0.24573126 7.94810117 -1.62716125
v -0.24590933 7.94826626 -1.70721925
v 2.91597426 5.05733717 -1.62691922
v 2.51461508 6.22130645 -1.70758164
v 2.51470783 5.06688878 -1.62723505
v 2.37428789 5.05703566 -1.70747582
v 2.37427368 2.79852869 -1.62729626
v 2.37402686 5.05714233 -1.62696128
v 3.45835970 0.29886456 -1.62729552
v 2.37386523 2.78808061 -1.62707167
v 2.37399128 0.29856015 -1.62727463
v 2.91611354 2.78805509 -1.62702648
v 2.91637471 5.05687973 -1.62713219
v 3.53851827 5.05706642 -1.62707751
v 3.53891966 0.29844790 -1.62702781
v 3.53870742 1.24221731 -1.62698687
v 3.53836003 4.03342352 -1.62734175
v 2.37430792 5.05676150 -1.62688157
v 2.37406718 2.79830560 -1.62708444
v 2.51488818 5.05690905 -1.62764149
v 2.51454480 5.05700228 -1.62717523
v 3.53876755 5.05715575 -1.70743028
v 2.51441017 5.05722381 -1.70720315
v 3.53857028 5.05735743 -1.62715832
v -0.33650622 8.09867241 -1.70720364
v -0.27632778 8.02890377 -1.62725889
v -0.27596890 8.02852576 -1.70743096
v -0.33609699 8.09842441 -1.62684293
v -0.33630814 8.09860107 -1.70726429
v -0.41641818 8.13900070 -1.70703354
v -0.50675125 8.15917423 -1.70750214
v -0.50694567 8.15904127 -1.62709668
v -0.50689502 8.15901601 -1.70724672
v -0.59732100 8.13879409 -1.70755537
v -0.67778907 8.09891753 -1.70741813
v -0.67747929 8.09846176 -1.70776019
v -0.73804760 8.02863688 -1.70720544
v -0.67755347 8.09855314 -1.62711759
v 3.53857054 6.22139386 -1.70786528
v 2.51452674 6.22142244 -1.70712299
v 3.53865515 5.05722690 -1.62716660
v 2.37409155 2.78752093 -1.62700879
v 2.37423914 0.29897553 -1.70749362
v 2.37415556 0.29851986 -1.62731177
v 2.37400659 2.79821270 -1.62684416
v 3.65908976 -5.86522462 -1.62706952
v 3.53866564 0.29852527 -1.62688374
v 3.53827702 -5.86511814 -1.62697297
v 3.53837850 1.24235048 -1.62685597
v 3.53870921 4.03272064 -1.62722847
v 3.65931676 3.47092145 -1.62709599
v 3.53870690 0.29878311 -1.70753453
v 3.53857190 1.24231019 -1.62719493
v 3.53860086 0.29888956 -1.62727330
v 3.53898102 5.05731519 -1.70771920
v 3.53859946 4.03309577 -1.62723450
v 3.53848873 5.05692457 -1.62695754
v 3.65899500 3.47120348 -1.62704066
v 3.53860656 5.05723582 -1.62697837
v 3.53869363 4.03297143 -1.62675936
v 3.53877530 6.22141998 -1.62738480
v 3.65915818 6.22124646 -1.62741040
v 2.91617651 2.78829245 -1.62685763
v 2.37419031 2.79842511 -1.62732050
v 2.37413403 2.78826343 -1.62693517
v 3.53864691 0.29879843 -1.62718775
v 3.45838393 0.29872661 -1.70763442
v 3.53865788 0.29859094 -1.70775516
v 3.45849473 0.29858328 -1.62725200
v 3.53855586 6.22148302 -1.70712456
v 3.53859487 5.05705556 -1.62684047
v 3.53872395 6.22165471 -1.62718169
v 3.65923164 -5.86508943 -1.70720654
v 3.65890416 3.47072254 -1.62686005
v 3.65905317 -5.86514498 -1.62708138
v 3.65896212 6.22170331 -1.70763333
v 3.65906157 6.22152154 -1.62711303
v 3.53847744 4.03287228 -1.62701560
v 3.53843533 5.06712762 -1.70768427
v 3.53852308 1.24229052 -1.62732562
v 3.53874581 5.05696496 -1.62728514
v 3.53834520 0.29836115 -1.62708529
v 3.53841201 -5.86533060 -1.70744747
v 3.53904576 -5.86502752 -1.62695491
v 3.53866474 0.29879454 -1.70765164
v 3.53854604 1.24233205 -1.62709786
v 3.53859006 5.05684551 -1.70745069
v 3.53848262 5.06656145 -1.70762344
v 3.53871326 6.22174485 -1.62675909
v 3.65910721 6.22162238 -1.70723527
v 3.53849774 6.22114419 -1.70739712
v 3.65876417 6.22139848 -1.62698154
v -3.20760824 -5.84499343 -1.62686687
v -4.36172772 5.05706477 -1.62692662
v -4.36147464 -5.84497145 -1.62686881
v -3.20735803 5.05686760 -1.62703585
v -3.20745798 -0.26362131 -1.62720693
v -3.20776978 1.54346467 -1.62732774
v -3.20736599 1.54371277 -1.70749973
v -3.20744621 5.05722007 -1.62699313
v -3.20716599 1.54337964 -1.62695647
v -3.20747281 5.05684364 -1.70729298
v -4.36190485 5.05710994 -1.62665260
v -3.20765734 5.05682958 -1.70719631
v -4.36182121 5.05718264 -1.70758940
v -3.20728505 5.05694060 -1.62706804
v -4.36173333 5.05674325 -1.62729216
v -4.36153623 -5.84494528 -1.70738518
v -4.36180257 -5.84493360 -1.62730901
v -4.36197879 5.05720911 -1.70737510
v -4.30746272 -7.55778816 -1.62684092
v -4.37176978 -5.84491058 -1.62699444
v -4.37198057 -7.21061956 -1.62729324
v -4.36149355 -5.84475937 -1.62715972
v -3.20740186 -5.84480810 -1.62712678
v -4.16376759 -7.85252220 -1.62700696
v -3.91225878 -8.11777447 -1.62706854
v -3.55930328 -8.33414429 -1.62721240
v -3.20736755 -8.45502433 -1.62714458
v -3.20741482 -7.54130337 -1.62726966
v -3.20741068 -5.84537423 -1.70730498
v -3.20719335 -0.26341433 -1.62692544
v -3.20726487 -5.84493618 -1.62700824
v -3.20739552 -0.26329626 -1.70746821
v -4.36206429 -5.84484258 -1.62675418
v -4.36197161 -5.84501814 -1.70753129
v -3.20741642 -5.84499088 -1.70763396
v -3.91184567 -8.11798720 -1.62719991
v -3.55965002 -8.33432873 -1.70772180
v -3.55916708 -8.33407842 -1.62744893
v -3.55950222 -8.33429608 -1.62722259
v -3.20761319 -8.45493953 -1.70747749
v -3.20725980 -8.45498153 -1.62684131
v -3.08724653 -8.45475790 -1.62686099
v -3.20724044 -7.54109457 -1.62705715
v -3.20719460 -8.45521500 -1.62688580
v -3.08688065 -7.54161769 -1.62670433
v -3.08696787 -8.33460408 -1.62713149
v -3.20748564 -7.54143639 -1.70726803
v -3.20728080 -5.84543500 -1.62690969
v -3.20741082 -7.54175888 -1.62698365
v -3.20724233 -5.84519187 -1.70694856
v -4.37205671 -5.84531919 -1.62730868
v -4.36153225 -5.84503184 -1.70747346
v -4.37184497 -5.84510949 -1.70753218
v -3.20746452 -5.84486875 -1.70721650
v -4.36198913 -5.84495524 -1.62695025
v -4.37203312 -5.84509213 -1.62728726
v -4.37207173 -7.21025647 -1.70754007
v -4.37171703 -7.21028070 -1.62701875
v -4.37188743 -5.84511657 -1.70742154
v -4.37183442 -7.21040552 -1.62701618
v -4.30748186 -7.55764722 -1.70708809
v -4.30773632 -7.55758032 -1.62717040
v -4.37179020 -7.21042842 -1.70719845
v -4.16349535 -7.85253573 -1.70763798
v -4.16361890 -7.85292045 -1.62719317
v -4.16365564 -7.85277798 -1.62709820
v -3.91184106 -8.11781919 -1.70736980
v -3.91163285 -8.11788318 -1.62709489
v -3.91180810 -8.11763025 -1.62710683
v -3.91183639 -8.11789957 -1.70740038
v -3.55960127 -8.33403814 -1.70742347
v -3.20733884 -8.45524319 -1.70725612
v -3.08678387 -8.45491975 -1.62668410
v -3.20735588 -8.45485667 -1.70742729
v -3.08683890 -8.45501132 -1.70735562
v -3.20722472 -8.45513482 -1.62708757
v 1.04913443 -8.45475620 -1.62725057
v -3.08724491 -8.33469504 -1.62707849
v -3.08687933 -8.45506172 -1.62687686
v 1.04921576 -8.33461480 -1.62718174
v -3.20741004 -7.54160017 -1.62713661
v -3.08720183 -7.54161950 -1.70748269
v -3.20738105 -7.54158135 -1.70728028
v -3.08700978 -7.54161536 -1.62699497
v -3.91187692 -8.11767673 -1.70728087
v 1.04911351 -8.45503257 -1.62713138
v -3.08678579 -8.45504634 -1.70749760
v 1.04900782 -8.45530352 -1.70758188
v -3.08725908 -8.45520421 -1.62684867
v -3.20744888 -5.84485406 -1.62709634
v -3.20747547 -5.84475243 -1.62698826
v -3.20766946 -5.84480722 -1.70760314
v -4.36182726 -5.84487610 -1.62715103
vt -4.40632820 -5.47655916
vt -6.34344292 -5.75058889
vt -6.43752193 -5.47663689
vt -6.17497301 -6.02481508
vt -5.96869993 -6.22069979
vt -5.73911715 -6.33279181
vt -5.46875715 -6.38278103
vt -4.40626812 -6.38274097
vt -6.14370012 -0.06250000
vt -5.93739986 0.00000000
vt -6.14370012 0.00000000
vt -5.93739986 -0.06250000
vt 6.02479982 -0.06250000
vt 5.75050020 0.00000000
vt 5.75050020 -0.06250000
vt 6.02479982 0.00000000
vt 5.47660017 0.00000000
vt 5.47660017 -0.06250000
vt -4.37500000 -0.06250000
vt -6.40623188 0.00000000
vt -4.37503099 0.00000000
vt -6.40620184 -0.06250000
vt -6.30469990 0.42970002
vt -7.21100807 3.75018501
vt -6.30469990 3.75018501
vt -7.21100807 2.98451710
vt -7.21100807 2.57824802
vt -7.21100807 0.42970002
vt -5.46880007 -0.06250000
vt -4.40630007 0.00000000
vt -5.46880007 0.00000000
vt -4.40630007 -0.06250000
vt -5.70790005 -0.06250000
vt -5.43750000 0.00000000
vt -5.70790005 0.00000000
vt -5.43750000 -0.06250000
vt -0.42940089 -0.06250000
vt -3.75000000 0.00000000
vt -0.42932579 0.00000000
vt -3.75007510 -0.06250000
vt -3.75000000 -0.06250000
vt -2.98429799 0.00000000
vt -3.75000000 0.00000000
vt -2.57801199 0.00000000
vt -0.42937091 0.00000000
vt -0.42937091 -0.06250000
vt -3.52346396 -7.28129959
vt -3.92969990 -8.61719990
vt -3.92970395 -7.28129959
vt -3.52349997 -8.61719990
vt -7.21089983 -0.06250000
vt -6.30479383 0.00000000
vt -6.30479383 -0.06250000
vt -7.21089983 0.00000000
vt 6.36719990 0.00000000
vt 7.27339983 -0.06250000
vt 6.36710691 -0.06250000
vt 7.26567888 0.00000000
vt 7.27349281 0.00000000
vt 6.37500000 -0.06250000
vt 6.36719990 0.00000000
vt 6.36719990 -0.06250000
vt 6.37500000 0.00000000
vt -3.52344990 -8.73443890
vt -3.90630007 -8.79689980
vt -3.92976594 -8.73443031
vt -3.85939193 -8.85156155
vt -3.79686594 -8.88279819
vt -3.72653604 -8.89841747
vt -3.65619993 -8.88280106
vt -3.59369397 -8.85156822
vt -3.54690003 -8.79699993
vt 8.61719990 -0.06250000
vt 7.28130007 0.00000000
vt 7.28130007 -0.06250000
vt 8.61719990 0.00000000
vt 8.61719990 -0.06250000
vt 7.28130007 -0.06250000
vt 7.27347898 0.00000000
vt 0.69529998 -0.06250000
vt 0.58590001 0.00000000
vt 0.69529998 0.00000000
vt 0.58590001 -0.06250000
vt -1.06250000 -6.36719990
vt -1.37500000 -6.37500000
vt -1.37500000 -6.36719990
vt 8.79699993 -0.06250000
vt 8.73439980 -0.06250000
vt 8.79689980 0.00000000
vt 8.85159969 0.00000000
vt 8.85159969 -0.06250000
vt 8.79699993 -0.06250000
vt -3.65619993 -0.06250000
vt -3.59369993 -0.06250000
vt -3.65630007 0.00000000
vt -3.72659993 -0.06250000
vt -3.65619993 -0.06250000
vt -3.72659993 0.00000000
vt -3.72659993 -0.06250000
vt -3.79690003 0.00000000
vt -3.79690003 -0.06250000
vt -3.79690003 -0.06250000
vt -3.85940003 0.00000000
vt -3.85940003 -0.06250000
vt 8.85159969 -0.06250000
vt 8.79689980 0.00000000
vt 8.79689980 -0.06250000
vt 8.79689980 -0.06250000
vt 8.73439980 0.00000000
vt 8.73439980 -0.06250000
vt 8.79689980 0.00000000
vt 8.61719990 0.00000000
vt 7.28130007 0.00000000
vt 8.61719990 -0.06250000
vt 8.61719990 0.00000000
vt 7.28130007 -0.06250000
vt 7.28130007 0.00000000
vt 8.79689980 0.00000000
vt 8.73439980 -0.06250000
vt 8.73439980 0.00000000
vt -1.06250000 -6.36719704
vt -1.37499905 -7.27339554
vt -1.37499905 -6.37499714
vt -6.28910017 0.00000000
vt -4.53121281 -0.06250000
vt -6.28911018 -0.06250000
vt -0.14841130 2.58591986
vt 0.69521081 4.52347898
vt 0.69521081 2.58588004
vt 0.27340001 4.52349901
vt 0.27340001 6.28920507
vt -0.21089999 6.28922701
vt -0.21089999 2.58592200
vt -0.21089999 3.32033396
vt -0.21089999 5.49231815
vt 0.69521081 6.28918505
vt 0.69521081 4.53129005
vt 0.58585089 6.28918982
vt 0.58590001 -0.06250000
vt -0.21089999 0.00000000
vt 0.58585089 0.00000000
vt -0.21085089 -0.06250000
vt 8.85159969 0.00000000
vt 8.79699993 -0.06250000
vt 8.79689980 0.00000000
vt -3.59369993 -0.06250000
vt -3.59380007 0.00000000
vt -3.65630007 0.00000000
vt -3.72659993 0.00000000
vt -3.72659993 -0.06250000
vt -3.72659993 0.00000000
vt -3.79690003 0.00000000
vt -3.85940003 0.00000000
vt 8.85159969 0.00000000
vt 8.79689980 0.00000000
vt 8.85159969 -0.06250000
vt -0.57810003 -7.27340031
vt -1.37500000 -7.27340031
vt -0.57810938 -6.36719990
vt -4.52339983 -0.06250000
vt -2.58655691 0.00000000
vt -2.58620000 -0.06250000
vt -4.53120899 -0.06250000
vt -0.03129994 -2.60159993
vt 0.06250000 2.19547987
vt 0.06250000 -2.60159993
vt 0.06250000 2.92988706
vt 0.06250000 5.10185909
vt -0.03129994 4.66433907
vt -2.58580089 0.00000000
vt -3.32020307 -0.06250000
vt -2.58578992 -0.06250000
vt -6.28911018 0.00000000
vt -5.49218988 -0.06250000
vt -6.28910017 -0.06250000
vt -0.03129994 4.66409969
vt 0.06250000 5.89827681
vt 0.06250000 5.10153198
vt 0.06250000 6.80438805
vt -0.03129994 6.80438805
vt 0.27340001 4.52340031
vt 0.69529998 4.53130007
vt 0.69529998 4.52340031
vt -0.21089999 -0.06250000
vt -0.14839999 0.00000000
vt -0.21089999 0.00000000
vt -0.14839999 -0.06250000
vt -6.80469990 0.00000000
vt -5.89842510 -0.06250000
vt -6.80471802 -0.06250000
vt 2.60159993 0.00000000
vt -4.66433907 -0.06250000
vt 2.60159993 -0.06250000
vt -6.80505610 0.00000000
vt -6.80505610 -0.06250000
vt -5.10152483 -0.06250000
vt -5.90626001 0.00000000
vt -2.92964911 -0.06250000
vt -5.89839506 -0.06250000
vt -2.19543910 -0.06250000
vt 2.60032201 0.00000000
vt 2.60068393 -0.06250000
vt -2.19580102 0.00000000
vt -2.92969990 -0.06250000
vt -5.89834595 0.00000000
vt -5.90615797 0.00000000
vt 0.06250000 -0.06250000
vt -0.03129994 0.00000000
vt 0.06250000 0.00000000
vt -0.03129994 -0.06250000
vt 5.65630007 -2.18749905
vt 6.55469990 6.29692602
vt 6.55469990 -2.18750000
vt 5.65630007 6.29692698
vt 5.65630007 2.15627503
vt 5.65630007 3.56253695
vt -3.56240201 0.00000000
vt -6.29689980 -0.06250000
vt -3.56239104 -0.06250000
vt -6.29690981 0.00000000
vt 6.55469990 -0.06250000
vt 5.65630007 0.00000000
vt 6.55469990 0.00000000
vt 5.65630007 -0.06250000
vt -6.29692221 -0.06250000
vt 2.18749809 0.00000000
vt 2.18749809 -0.06250000
vt -6.29692221 0.00000000
vt -3.73916006 -6.33283615
vt -2.40630007 -6.38281298
vt -3.46880102 -6.38280678
vt -2.40630007 -6.37500000
vt -2.40630198 -5.47660685
vt -3.96880007 -6.22069979
vt -4.17500114 -6.02480078
vt -4.34345484 -5.75055981
vt -4.43754911 -5.47659588
vt -3.72659993 -5.47660017
vt 2.18750000 0.00000000
vt -2.15627694 -0.06250000
vt 2.18750000 -0.06250000
vt -2.15627694 0.00000000
vt 6.55469990 -0.06250000
vt 6.55459404 0.00000000
vt 5.65630007 0.00000000
vt 6.02479982 -0.06250000
vt 5.75059986 0.00000000
vt 5.75050020 -0.06250000
vt 5.75050020 -0.06250000
vt 5.47660017 0.00000000
vt 5.47660017 -0.06250000
vt 4.96880007 -4.60160017
vt 5.06250000 -3.89060020
vt 5.06250000 -4.60160017
vt 4.96880007 -3.89060020
vt 4.96880007 -4.50783777
vt -3.69530010 0.00000000
vt -2.37500000 -0.06250000
vt -3.69530392 -0.06250000
vt -2.37499595 0.00000000
vt 6.38280010 -0.06250000
vt 6.37489414 0.00000000
vt 6.38270617 0.00000000
vt 5.47660017 0.00000000
vt 6.37498808 -0.06250000
vt -2.40630007 -0.06250000
vt -3.46880007 0.00000018
vt -3.46880007 -0.06250000
vt -2.40630007 0.00000000
vt -3.43750000 -0.06250000
vt -3.70790005 0.00000000
vt -3.70790005 -0.06250000
vt -3.43750000 0.00000000
vt -3.93750000 0.00000000
vt -3.93750000 -0.06250000
vt -3.93750000 -0.06250000
vt -4.14370012 0.00000000
vt -4.14370012 -0.06250000
vt 6.02479982 -0.06250000
vt 6.02479982 0.00000000
vt 5.75059986 0.00000000
vt 5.47660017 0.00000000
vt 4.96880007 -0.06250000
vt 5.06250000 0.00000000
vt 4.96880007 0.00000000
vt 5.06250000 -0.06250000
vt 1.99220002 -4.60160017
vt 5.21099281 -4.50780010
vt 5.21107817 -4.60160017
vt 1.99211502 -4.50780010
vt 5.06250000 -0.06250000
vt 4.96880007 0.00000000
vt 5.06251907 0.00000000
vt 4.96878099 -0.06250000
vt -4.14370012 0.00000000
vt 1.99220002 -0.06250000
vt 5.21089983 0.00000000
vt 1.99220002 0.00000000
vt 5.21089983 -0.06250000
vt 5.65630007 -0.06250000
vt 5.47660017 -0.06250000
vt 5.47660017 0.00000000
vt 6.37500000 -0.06250000
f 1/1 2/2 3/3
f 2/2 1/1 4/4
f 4/4 1/1 5/5
f 5/5 1/1 6/6
f 6/6 1/1 7/7
f 7/7 1/1 8/8
f 9/9 10/10 11/11
f 10/10 9/9 12/12
f 13/13 14/14 15/15
f 14/14 13/13 16/16
f 15/15 17/17 18/18
f 17/17 15/15 14/14
f 19/19 20/20 21/21
f 20/20 19/19 22/22
f 23/23 24/24 25/25
f 24/24 23/23 26/26
f 26/26 23/23 27/27
f 27/27 23/23 28/28
f 29/29 30/30 31/31
f 30/30 29/29 32/32
f 33/33 34/34 35/35
f 34/34 33/33 36/36
f 12/12 35/35 10/10
f 35/35 12/12 33/33
f 37/37 38/38 39/39
f 38/38 37/37 40/40
f 41/41 42/42 43/43
f 42/42 41/41 44/44
f 44/44 41/41 45/45
f 45/45 41/41 46/46
f 47/47 48/48 49/49
f 48/48 47/47 50/50
f 51/51 52/52 53/53
f 52/52 51/51 54/54
f 55/55 56/56 57/57
f 56/56 55/55 58/58
f 56/56 58/58 59/59
f 60/60 61/61 62/62
f 61/61 60/60 63/63
f 64/64 65/65 66/66
f 65/65 64/64 67/67
f 67/67 64/64 68/68
f 68/68 64/64 69/69
f 69/69 64/64 70/70
f 70/70 64/64 71/71
f 71/71 64/64 72/72
f 73/73 74/74 75/75
f 76/76 77/77 78/78
f 79/79 63/63 60/60
f 80/80 81/81 82/82
f 81/81 80/80 83/83
f 84/84 85/85 86/86
f 87/87 88/88 89/89
f 90/90 91/91 92/92
f 93/93 94/94 95/95
f 96/96 97/97 98/98
f 99/99 100/100 101/101
f 102/102 103/103 104/104
f 105/105 106/106 107/107
f 108/108 109/109 110/110
f 109/109 108/108 111/111
f 112/112 113/113 114/114
f 115/115 116/116 117/117
f 118/118 119/119 120/120
f 121/121 122/122 123/123
f 124/124 125/125 126/126
f 127/127 128/128 129/129
f 128/128 127/127 130/130
f 130/130 127/127 131/131
f 131/131 127/127 132/132
f 132/132 127/127 133/133
f 132/132 133/133 134/134
f 132/132 134/134 135/135
f 130/130 136/136 137/137
f 136/136 130/130 138/138
f 138/138 130/130 131/131
f 139/139 140/140 141/141
f 140/140 139/139 142/142
f 143/143 144/144 145/145
f 146/146 147/147 148/148
f 93/93 95/95 149/149
f 150/150 151/151 152/152
f 101/101 100/100 153/153
f 154/154 155/155 156/156
f 84/84 157/157 158/158
f 157/157 84/84 159/159
f 160/160 161/161 162/162
f 161/161 160/160 124/124
f 124/124 160/160 163/163
f 164/164 165/165 166/166
f 165/165 164/164 167/167
f 167/167 164/164 168/168
f 168/168 164/164 169/169
f 170/170 171/171 172/172
f 171/171 170/170 173/173
f 171/171 173/173 174/174
f 174/174 173/173 175/175
f 176/176 177/177 178/178
f 177/177 176/176 179/179
f 179/179 176/176 180/180
f 181/181 182/182 183/183
f 184/184 185/185 186/186
f 185/185 184/184 187/187
f 188/188 189/189 190/190
f 191/191 192/192 193/193
f 192/192 191/191 194/194
f 192/192 194/194 195/195
f 196/196 197/197 198/198
f 197/197 196/196 199/199
f 197/197 199/199 188/188
f 200/200 201/201 202/202
f 201/201 200/200 203/203
f 203/203 200/200 204/204
f 203/203 204/204 205/205
f 205/205 204/204 206/206
f 207/207 208/208 209/209
f 208/208 207/207 210/210
f 211/211 212/212 213/213
f 212/212 211/211 214/214
f 214/214 211/211 215/215
f 214/214 215/215 216/216
f 217/217 218/218 219/219
f 218/218 217/217 220/220
f 221/221 222/222 223/223
f 222/222 221/221 224/224
f 225/225 226/226 227/227
f 226/226 225/225 228/228
f 229/229 230/230 231/231
f 230/230 229/229 232/232
f 232/232 229/229 233/233
f 233/233 229/229 234/234
f 233/233 234/234 235/235
f 233/233 235/235 236/236
f 233/233 236/236 237/237
f 233/233 237/237 238/238
f 239/239 240/240 241/241
f 240/240 239/239 242/242
f 243/243 244/244 245/245
f 246/246 247/247 248/248
f 249/249 250/250 251/251
f 252/252 253/253 254/254
f 253/253 252/252 255/255
f 255/255 252/252 256/256
f 257/257 258/258 259/259
f 258/258 257/257 260/260
f 261/261 262/262 263/263
f 262/262 261/261 264/264
f 264/264 261/261 265/265
f 266/266 267/267 268/268
f 267/267 266/266 269/269
f 270/270 271/271 272/272
f 271/271 270/270 273/273
f 272/272 274/274 275/275
f 274/274 272/272 271/271
f 276/276 277/277 278/278
f 279/279 280/280 281/281
f 248/248 247/247 282/282
f 283/283 284/284 285/285
f 284/284 283/283 286/286
f 287/287 288/288 289/289
f 288/288 287/287 290/290
f 291/291 292/292 293/293
f 292/292 291/291 294/294
f 274/274 295/295 275/275
f 296/296 297/297 298/298
f 297/297 296/296 299/299
f 243/243 245/245 300/300
f 301/301 302/302 303/303

